M48
; DRILL file {KiCad (5.1.10)-1} date 12/02/21 23:37:55
; FORMAT={-:-/ absolute / inch / decimal}
; #@! TF.CreationDate,2021-12-02T23:37:55+01:00
; #@! TF.GenerationSoftware,Kicad,Pcbnew,(5.1.10)-1
FMAT,2
INCH
T1C0.0157
T2C0.0295
T3C0.0315
T4C0.0354
T5C0.0374
T6C0.0394
T7C0.0433
T8C0.0512
T9C0.0598
T10C0.1260
T11C0.0472
%
G90
G05
T1
X2.06Y-1.73
X2.14Y-1.73
T2
X3.715Y-2.86
X3.765Y-2.81
X3.815Y-2.86
X4.765Y-2.87
X4.815Y-2.82
X4.865Y-2.87
T3
X1.78Y-2.05
X1.9769Y-2.05
X2.465Y-1.72
X2.765Y-1.72
X3.295Y-2.86
X3.515Y-3.015
X3.595Y-2.86
X3.815Y-3.015
X4.345Y-2.87
X4.565Y-3.02
X4.645Y-2.87
X4.865Y-3.02
T4
X3.09Y-2.86
X3.19Y-2.86
X4.14Y-2.87
X4.24Y-2.87
T5
X2.3047Y-1.96
X2.4031Y-1.96
X2.5016Y-1.96
X2.6Y-1.96
X2.775Y-1.1281
X2.775Y-1.2266
X2.775Y-1.325
X3.15Y-1.1281
X3.15Y-1.2266
X3.15Y-1.325
X3.525Y-1.1281
X3.525Y-1.2266
X3.525Y-1.325
X3.9Y-1.1281
X3.9Y-1.2266
X3.9Y-1.325
X4.275Y-1.1281
X4.275Y-1.2266
X4.275Y-1.325
X4.65Y-1.1281
X4.65Y-1.2266
X4.65Y-1.325
T6
X1.9Y-2.25
X1.9Y-2.35
X1.9Y-2.45
X2.275Y-1.59
X2.3Y-2.25
X2.3Y-2.44
X2.3Y-2.95
X2.375Y-1.59
X2.4Y-2.25
X2.4Y-2.44
X2.4Y-2.95
X2.5Y-2.25
X2.5Y-2.44
X2.5Y-2.95
X2.6Y-2.25
X2.6Y-2.44
X2.6Y-2.95
X3.05Y-1.61
X3.05Y-2.61
X3.1118Y-3.3768
X3.15Y-1.61
X3.15Y-2.61
X3.16Y-3.15
X3.25Y-1.61
X3.25Y-2.61
X3.26Y-3.15
X3.35Y-1.61
X3.35Y-2.61
X3.36Y-3.15
X3.45Y-1.61
X3.45Y-2.61
X3.55Y-1.61
X3.55Y-2.61
X3.5843Y-3.3768
X3.65Y-1.61
X3.65Y-2.61
X3.75Y-1.61
X3.75Y-2.61
X3.85Y-1.61
X3.85Y-2.61
X3.95Y-1.61
X3.95Y-2.61
X4.05Y-1.61
X4.05Y-2.61
X4.15Y-1.61
X4.15Y-2.61
X4.1868Y-3.3768
X4.2Y-3.15
X4.25Y-1.61
X4.25Y-2.61
X4.3Y-3.15
X4.35Y-1.61
X4.35Y-2.61
X4.4Y-3.15
X4.45Y-1.61
X4.45Y-2.61
X4.55Y-1.61
X4.55Y-2.61
X4.65Y-1.61
X4.65Y-2.61
X4.6593Y-3.3768
X4.75Y-1.61
X4.75Y-2.61
X4.85Y-1.61
X4.85Y-2.61
T7
X3.515Y-3.15
X3.815Y-3.15
X4.565Y-3.155
X4.865Y-3.155
T8
X3.1118Y-3.8571
X3.35Y-3.3
X3.5862Y-3.8591
X4.1868Y-3.8571
X4.425Y-3.3
X4.6612Y-3.8591
T9
X3.15Y-4.28
X3.35Y-4.28
X3.55Y-4.28
X4.23Y-4.28
X4.43Y-4.28
X4.63Y-4.28
T10
X1.7717Y-1.063
X1.7717Y-4.2913
X5.0Y-1.063
X5.0Y-4.2913
T11
X2.663Y-1.8813
X2.8537Y-1.388
X3.2287Y-1.388
X3.6037Y-1.388
X3.9787Y-1.388
X4.3537Y-1.388
X4.7287Y-1.388
T0
M30
