%TF.GenerationSoftware,KiCad,Pcbnew,5.1.10-88a1d61d58~90~ubuntu21.04.1*%
%TF.CreationDate,2021-12-13T13:58:26+01:00*%
%TF.ProjectId,terrarium,74657272-6172-4697-956d-2e6b69636164,rev?*%
%TF.SameCoordinates,Original*%
%TF.FileFunction,Legend,Top*%
%TF.FilePolarity,Positive*%
%FSLAX46Y46*%
G04 Gerber Fmt 4.6, Leading zero omitted, Abs format (unit mm)*
G04 Created by KiCad (PCBNEW 5.1.10-88a1d61d58~90~ubuntu21.04.1) date 2021-12-13 13:58:26*
%MOMM*%
%LPD*%
G01*
G04 APERTURE LIST*
%ADD10C,0.150000*%
%ADD11C,0.120000*%
%ADD12C,0.300000*%
%TA.AperFunction,Profile*%
%ADD13C,0.050000*%
%TD*%
%ADD14C,0.010000*%
G04 APERTURE END LIST*
D10*
X102330000Y-63581357D02*
X102282380Y-63676595D01*
X102282380Y-63819452D01*
X102330000Y-63962309D01*
X102425238Y-64057547D01*
X102520476Y-64105166D01*
X102710952Y-64152785D01*
X102853809Y-64152785D01*
X103044285Y-64105166D01*
X103139523Y-64057547D01*
X103234761Y-63962309D01*
X103282380Y-63819452D01*
X103282380Y-63724214D01*
X103234761Y-63581357D01*
X103187142Y-63533738D01*
X102853809Y-63533738D01*
X102853809Y-63724214D01*
X102377619Y-63152785D02*
X102330000Y-63105166D01*
X102282380Y-63009928D01*
X102282380Y-62771833D01*
X102330000Y-62676595D01*
X102377619Y-62628976D01*
X102472857Y-62581357D01*
X102568095Y-62581357D01*
X102710952Y-62628976D01*
X103282380Y-63200404D01*
X103282380Y-62581357D01*
X102282380Y-61724214D02*
X102282380Y-61914690D01*
X102330000Y-62009928D01*
X102377619Y-62057547D01*
X102520476Y-62152785D01*
X102710952Y-62200404D01*
X103091904Y-62200404D01*
X103187142Y-62152785D01*
X103234761Y-62105166D01*
X103282380Y-62009928D01*
X103282380Y-61819452D01*
X103234761Y-61724214D01*
X103187142Y-61676595D01*
X103091904Y-61628976D01*
X102853809Y-61628976D01*
X102758571Y-61676595D01*
X102710952Y-61724214D01*
X102663333Y-61819452D01*
X102663333Y-62009928D01*
X102710952Y-62105166D01*
X102758571Y-62152785D01*
X102853809Y-62200404D01*
X104870000Y-63581357D02*
X104822380Y-63676595D01*
X104822380Y-63819452D01*
X104870000Y-63962309D01*
X104965238Y-64057547D01*
X105060476Y-64105166D01*
X105250952Y-64152785D01*
X105393809Y-64152785D01*
X105584285Y-64105166D01*
X105679523Y-64057547D01*
X105774761Y-63962309D01*
X105822380Y-63819452D01*
X105822380Y-63724214D01*
X105774761Y-63581357D01*
X105727142Y-63533738D01*
X105393809Y-63533738D01*
X105393809Y-63724214D01*
X104917619Y-63152785D02*
X104870000Y-63105166D01*
X104822380Y-63009928D01*
X104822380Y-62771833D01*
X104870000Y-62676595D01*
X104917619Y-62628976D01*
X105012857Y-62581357D01*
X105108095Y-62581357D01*
X105250952Y-62628976D01*
X105822380Y-63200404D01*
X105822380Y-62581357D01*
X104822380Y-62248023D02*
X104822380Y-61581357D01*
X105822380Y-62009928D01*
D11*
X51402000Y-47320000D02*
X50317400Y-48463200D01*
D10*
X99830000Y-63581357D02*
X99782380Y-63676595D01*
X99782380Y-63819452D01*
X99830000Y-63962309D01*
X99925238Y-64057547D01*
X100020476Y-64105166D01*
X100210952Y-64152785D01*
X100353809Y-64152785D01*
X100544285Y-64105166D01*
X100639523Y-64057547D01*
X100734761Y-63962309D01*
X100782380Y-63819452D01*
X100782380Y-63724214D01*
X100734761Y-63581357D01*
X100687142Y-63533738D01*
X100353809Y-63533738D01*
X100353809Y-63724214D01*
X99877619Y-63152785D02*
X99830000Y-63105166D01*
X99782380Y-63009928D01*
X99782380Y-62771833D01*
X99830000Y-62676595D01*
X99877619Y-62628976D01*
X99972857Y-62581357D01*
X100068095Y-62581357D01*
X100210952Y-62628976D01*
X100782380Y-63200404D01*
X100782380Y-62581357D01*
X99782380Y-61676595D02*
X99782380Y-62152785D01*
X100258571Y-62200404D01*
X100210952Y-62152785D01*
X100163333Y-62057547D01*
X100163333Y-61819452D01*
X100210952Y-61724214D01*
X100258571Y-61676595D01*
X100353809Y-61628976D01*
X100591904Y-61628976D01*
X100687142Y-61676595D01*
X100734761Y-61724214D01*
X100782380Y-61819452D01*
X100782380Y-62057547D01*
X100734761Y-62152785D01*
X100687142Y-62200404D01*
X82010000Y-45166357D02*
X81962380Y-45261595D01*
X81962380Y-45404452D01*
X82010000Y-45547309D01*
X82105238Y-45642547D01*
X82200476Y-45690166D01*
X82390952Y-45737785D01*
X82533809Y-45737785D01*
X82724285Y-45690166D01*
X82819523Y-45642547D01*
X82914761Y-45547309D01*
X82962380Y-45404452D01*
X82962380Y-45309214D01*
X82914761Y-45166357D01*
X82867142Y-45118738D01*
X82533809Y-45118738D01*
X82533809Y-45309214D01*
X82057619Y-44737785D02*
X82010000Y-44690166D01*
X81962380Y-44594928D01*
X81962380Y-44356833D01*
X82010000Y-44261595D01*
X82057619Y-44213976D01*
X82152857Y-44166357D01*
X82248095Y-44166357D01*
X82390952Y-44213976D01*
X82962380Y-44785404D01*
X82962380Y-44166357D01*
X81962380Y-43833023D02*
X81962380Y-43213976D01*
X82343333Y-43547309D01*
X82343333Y-43404452D01*
X82390952Y-43309214D01*
X82438571Y-43261595D01*
X82533809Y-43213976D01*
X82771904Y-43213976D01*
X82867142Y-43261595D01*
X82914761Y-43309214D01*
X82962380Y-43404452D01*
X82962380Y-43690166D01*
X82914761Y-43785404D01*
X82867142Y-43833023D01*
D12*
X70866571Y-104310571D02*
X70866571Y-102810571D01*
X70866571Y-103524857D02*
X71723714Y-103524857D01*
X71723714Y-104310571D02*
X71723714Y-102810571D01*
X73009428Y-104239142D02*
X72866571Y-104310571D01*
X72580857Y-104310571D01*
X72438000Y-104239142D01*
X72366571Y-104096285D01*
X72366571Y-103524857D01*
X72438000Y-103382000D01*
X72580857Y-103310571D01*
X72866571Y-103310571D01*
X73009428Y-103382000D01*
X73080857Y-103524857D01*
X73080857Y-103667714D01*
X72366571Y-103810571D01*
X74366571Y-104310571D02*
X74366571Y-103524857D01*
X74295142Y-103382000D01*
X74152285Y-103310571D01*
X73866571Y-103310571D01*
X73723714Y-103382000D01*
X74366571Y-104239142D02*
X74223714Y-104310571D01*
X73866571Y-104310571D01*
X73723714Y-104239142D01*
X73652285Y-104096285D01*
X73652285Y-103953428D01*
X73723714Y-103810571D01*
X73866571Y-103739142D01*
X74223714Y-103739142D01*
X74366571Y-103667714D01*
X74866571Y-103310571D02*
X75438000Y-103310571D01*
X75080857Y-102810571D02*
X75080857Y-104096285D01*
X75152285Y-104239142D01*
X75295142Y-104310571D01*
X75438000Y-104310571D01*
X76509428Y-104239142D02*
X76366571Y-104310571D01*
X76080857Y-104310571D01*
X75938000Y-104239142D01*
X75866571Y-104096285D01*
X75866571Y-103524857D01*
X75938000Y-103382000D01*
X76080857Y-103310571D01*
X76366571Y-103310571D01*
X76509428Y-103382000D01*
X76580857Y-103524857D01*
X76580857Y-103667714D01*
X75866571Y-103810571D01*
X77223714Y-104310571D02*
X77223714Y-103310571D01*
X77223714Y-103596285D02*
X77295142Y-103453428D01*
X77366571Y-103382000D01*
X77509428Y-103310571D01*
X77652285Y-103310571D01*
X79223714Y-102953428D02*
X79295142Y-102882000D01*
X79438000Y-102810571D01*
X79795142Y-102810571D01*
X79938000Y-102882000D01*
X80009428Y-102953428D01*
X80080857Y-103096285D01*
X80080857Y-103239142D01*
X80009428Y-103453428D01*
X79152285Y-104310571D01*
X80080857Y-104310571D01*
D10*
X94837000Y-45309214D02*
X94789380Y-45404452D01*
X94789380Y-45547309D01*
X94837000Y-45690166D01*
X94932238Y-45785404D01*
X95027476Y-45833023D01*
X95217952Y-45880642D01*
X95360809Y-45880642D01*
X95551285Y-45833023D01*
X95646523Y-45785404D01*
X95741761Y-45690166D01*
X95789380Y-45547309D01*
X95789380Y-45452071D01*
X95741761Y-45309214D01*
X95694142Y-45261595D01*
X95360809Y-45261595D01*
X95360809Y-45452071D01*
X95789380Y-44833023D02*
X94789380Y-44833023D01*
X95789380Y-44261595D01*
X94789380Y-44261595D01*
X95789380Y-43785404D02*
X94789380Y-43785404D01*
X94789380Y-43547309D01*
X94837000Y-43404452D01*
X94932238Y-43309214D01*
X95027476Y-43261595D01*
X95217952Y-43213976D01*
X95360809Y-43213976D01*
X95551285Y-43261595D01*
X95646523Y-43309214D01*
X95741761Y-43404452D01*
X95789380Y-43547309D01*
X95789380Y-43785404D01*
D12*
X122075285Y-87459428D02*
X122146714Y-87388000D01*
X122289571Y-87316571D01*
X122646714Y-87316571D01*
X122789571Y-87388000D01*
X122861000Y-87459428D01*
X122932428Y-87602285D01*
X122932428Y-87745142D01*
X122861000Y-87959428D01*
X122003857Y-88816571D01*
X122932428Y-88816571D01*
X123503857Y-87459428D02*
X123575285Y-87388000D01*
X123718142Y-87316571D01*
X124075285Y-87316571D01*
X124218142Y-87388000D01*
X124289571Y-87459428D01*
X124361000Y-87602285D01*
X124361000Y-87745142D01*
X124289571Y-87959428D01*
X123432428Y-88816571D01*
X124361000Y-88816571D01*
X125289571Y-87316571D02*
X125432428Y-87316571D01*
X125575285Y-87388000D01*
X125646714Y-87459428D01*
X125718142Y-87602285D01*
X125789571Y-87888000D01*
X125789571Y-88245142D01*
X125718142Y-88530857D01*
X125646714Y-88673714D01*
X125575285Y-88745142D01*
X125432428Y-88816571D01*
X125289571Y-88816571D01*
X125146714Y-88745142D01*
X125075285Y-88673714D01*
X125003857Y-88530857D01*
X124932428Y-88245142D01*
X124932428Y-87888000D01*
X125003857Y-87602285D01*
X125075285Y-87459428D01*
X125146714Y-87388000D01*
X125289571Y-87316571D01*
X126289571Y-87816571D02*
X126646714Y-88816571D01*
X127003857Y-87816571D01*
X128718142Y-88816571D02*
X128718142Y-87816571D01*
X128718142Y-87316571D02*
X128646714Y-87388000D01*
X128718142Y-87459428D01*
X128789571Y-87388000D01*
X128718142Y-87316571D01*
X128718142Y-87459428D01*
X129432428Y-87816571D02*
X129432428Y-88816571D01*
X129432428Y-87959428D02*
X129503857Y-87888000D01*
X129646714Y-87816571D01*
X129861000Y-87816571D01*
X130003857Y-87888000D01*
X130075285Y-88030857D01*
X130075285Y-88816571D01*
X88900571Y-104183571D02*
X88900571Y-102683571D01*
X88900571Y-103397857D02*
X89757714Y-103397857D01*
X89757714Y-104183571D02*
X89757714Y-102683571D01*
X91043428Y-104112142D02*
X90900571Y-104183571D01*
X90614857Y-104183571D01*
X90472000Y-104112142D01*
X90400571Y-103969285D01*
X90400571Y-103397857D01*
X90472000Y-103255000D01*
X90614857Y-103183571D01*
X90900571Y-103183571D01*
X91043428Y-103255000D01*
X91114857Y-103397857D01*
X91114857Y-103540714D01*
X90400571Y-103683571D01*
X92400571Y-104183571D02*
X92400571Y-103397857D01*
X92329142Y-103255000D01*
X92186285Y-103183571D01*
X91900571Y-103183571D01*
X91757714Y-103255000D01*
X92400571Y-104112142D02*
X92257714Y-104183571D01*
X91900571Y-104183571D01*
X91757714Y-104112142D01*
X91686285Y-103969285D01*
X91686285Y-103826428D01*
X91757714Y-103683571D01*
X91900571Y-103612142D01*
X92257714Y-103612142D01*
X92400571Y-103540714D01*
X92900571Y-103183571D02*
X93472000Y-103183571D01*
X93114857Y-102683571D02*
X93114857Y-103969285D01*
X93186285Y-104112142D01*
X93329142Y-104183571D01*
X93472000Y-104183571D01*
X94543428Y-104112142D02*
X94400571Y-104183571D01*
X94114857Y-104183571D01*
X93972000Y-104112142D01*
X93900571Y-103969285D01*
X93900571Y-103397857D01*
X93972000Y-103255000D01*
X94114857Y-103183571D01*
X94400571Y-103183571D01*
X94543428Y-103255000D01*
X94614857Y-103397857D01*
X94614857Y-103540714D01*
X93900571Y-103683571D01*
X95257714Y-104183571D02*
X95257714Y-103183571D01*
X95257714Y-103469285D02*
X95329142Y-103326428D01*
X95400571Y-103255000D01*
X95543428Y-103183571D01*
X95686285Y-103183571D01*
X98114857Y-104183571D02*
X97257714Y-104183571D01*
X97686285Y-104183571D02*
X97686285Y-102683571D01*
X97543428Y-102897857D01*
X97400571Y-103040714D01*
X97257714Y-103112142D01*
X108581428Y-104183571D02*
X107867142Y-104183571D01*
X107867142Y-102683571D01*
X109724285Y-104183571D02*
X109724285Y-103397857D01*
X109652857Y-103255000D01*
X109510000Y-103183571D01*
X109224285Y-103183571D01*
X109081428Y-103255000D01*
X109724285Y-104112142D02*
X109581428Y-104183571D01*
X109224285Y-104183571D01*
X109081428Y-104112142D01*
X109010000Y-103969285D01*
X109010000Y-103826428D01*
X109081428Y-103683571D01*
X109224285Y-103612142D01*
X109581428Y-103612142D01*
X109724285Y-103540714D01*
X110438571Y-104183571D02*
X110438571Y-103183571D01*
X110438571Y-103326428D02*
X110510000Y-103255000D01*
X110652857Y-103183571D01*
X110867142Y-103183571D01*
X111010000Y-103255000D01*
X111081428Y-103397857D01*
X111081428Y-104183571D01*
X111081428Y-103397857D02*
X111152857Y-103255000D01*
X111295714Y-103183571D01*
X111510000Y-103183571D01*
X111652857Y-103255000D01*
X111724285Y-103397857D01*
X111724285Y-104183571D01*
X112438571Y-103183571D02*
X112438571Y-104683571D01*
X112438571Y-103255000D02*
X112581428Y-103183571D01*
X112867142Y-103183571D01*
X113010000Y-103255000D01*
X113081428Y-103326428D01*
X113152857Y-103469285D01*
X113152857Y-103897857D01*
X113081428Y-104040714D01*
X113010000Y-104112142D01*
X112867142Y-104183571D01*
X112581428Y-104183571D01*
X112438571Y-104112142D01*
X115724285Y-104183571D02*
X114867142Y-104183571D01*
X115295714Y-104183571D02*
X115295714Y-102683571D01*
X115152857Y-102897857D01*
X115010000Y-103040714D01*
X114867142Y-103112142D01*
D10*
X75788204Y-33231200D02*
X75692966Y-33183580D01*
X75550109Y-33183580D01*
X75407252Y-33231200D01*
X75312014Y-33326438D01*
X75264395Y-33421676D01*
X75216776Y-33612152D01*
X75216776Y-33755009D01*
X75264395Y-33945485D01*
X75312014Y-34040723D01*
X75407252Y-34135961D01*
X75550109Y-34183580D01*
X75645347Y-34183580D01*
X75788204Y-34135961D01*
X75835823Y-34088342D01*
X75835823Y-33755009D01*
X75645347Y-33755009D01*
D11*
X64770000Y-60646000D02*
X66040000Y-60646000D01*
X49590000Y-62230000D02*
X49590000Y-60960000D01*
X46926500Y-63563500D02*
X48260000Y-63560000D01*
X46930000Y-60960000D02*
X46926500Y-63563500D01*
X67373500Y-58483500D02*
X67370000Y-57150000D01*
X64770000Y-58480000D02*
X67373500Y-58483500D01*
X66040000Y-55820000D02*
X64770000Y-55820000D01*
X67373500Y-63309500D02*
X67370000Y-61976000D01*
X64770000Y-63306000D02*
X67373500Y-63309500D01*
X61785500Y-68643500D02*
X59182000Y-68643500D01*
X61782000Y-67310000D02*
X61785500Y-68643500D01*
X60452000Y-65980000D02*
X59182000Y-65980000D01*
X60452000Y-65976500D02*
X60452000Y-65980000D01*
D13*
X45000000Y-113000000D02*
G75*
G02*
X41000000Y-109000000I0J4000000D01*
G01*
X131000000Y-109000000D02*
G75*
G02*
X127000000Y-113000000I-4000000J0D01*
G01*
X127000000Y-23000000D02*
G75*
G02*
X131000000Y-27000000I0J-4000000D01*
G01*
X41000000Y-27000000D02*
G75*
G02*
X45000000Y-23000000I4000000J0D01*
G01*
D12*
X114236428Y-26523761D02*
X113093571Y-26523761D01*
X113665000Y-26523761D02*
X113665000Y-24523761D01*
X113474523Y-24809476D01*
X113284047Y-24999952D01*
X113093571Y-25095190D01*
X103568571Y-24714238D02*
X103663809Y-24619000D01*
X103854285Y-24523761D01*
X104330476Y-24523761D01*
X104520952Y-24619000D01*
X104616190Y-24714238D01*
X104711428Y-24904714D01*
X104711428Y-25095190D01*
X104616190Y-25380904D01*
X103473333Y-26523761D01*
X104711428Y-26523761D01*
X93948333Y-24523761D02*
X95186428Y-24523761D01*
X94519761Y-25285666D01*
X94805476Y-25285666D01*
X94995952Y-25380904D01*
X95091190Y-25476142D01*
X95186428Y-25666619D01*
X95186428Y-26142809D01*
X95091190Y-26333285D01*
X94995952Y-26428523D01*
X94805476Y-26523761D01*
X94234047Y-26523761D01*
X94043571Y-26428523D01*
X93948333Y-26333285D01*
X85343952Y-25190428D02*
X85343952Y-26523761D01*
X84867761Y-24428523D02*
X84391571Y-25857095D01*
X85629666Y-25857095D01*
X76041190Y-24523761D02*
X75088809Y-24523761D01*
X74993571Y-25476142D01*
X75088809Y-25380904D01*
X75279285Y-25285666D01*
X75755476Y-25285666D01*
X75945952Y-25380904D01*
X76041190Y-25476142D01*
X76136428Y-25666619D01*
X76136428Y-26142809D01*
X76041190Y-26333285D01*
X75945952Y-26428523D01*
X75755476Y-26523761D01*
X75279285Y-26523761D01*
X75088809Y-26428523D01*
X74993571Y-26333285D01*
X66420952Y-24523761D02*
X66040000Y-24523761D01*
X65849523Y-24619000D01*
X65754285Y-24714238D01*
X65563809Y-24999952D01*
X65468571Y-25380904D01*
X65468571Y-26142809D01*
X65563809Y-26333285D01*
X65659047Y-26428523D01*
X65849523Y-26523761D01*
X66230476Y-26523761D01*
X66420952Y-26428523D01*
X66516190Y-26333285D01*
X66611428Y-26142809D01*
X66611428Y-25666619D01*
X66516190Y-25476142D01*
X66420952Y-25380904D01*
X66230476Y-25285666D01*
X65849523Y-25285666D01*
X65659047Y-25380904D01*
X65563809Y-25476142D01*
X65468571Y-25666619D01*
D11*
X130429000Y-39116000D02*
X124968000Y-39116000D01*
X130429000Y-68072000D02*
X125095000Y-68072000D01*
X76454000Y-39116000D02*
X124968000Y-39116000D01*
X76454000Y-68072000D02*
X76454000Y-39116000D01*
X127595000Y-68072000D02*
X76454000Y-68072000D01*
X130429000Y-39116000D02*
X130429000Y-68072000D01*
D10*
X66263204Y-33104200D02*
X66167966Y-33056580D01*
X66025109Y-33056580D01*
X65882252Y-33104200D01*
X65787014Y-33199438D01*
X65739395Y-33294676D01*
X65691776Y-33485152D01*
X65691776Y-33628009D01*
X65739395Y-33818485D01*
X65787014Y-33913723D01*
X65882252Y-34008961D01*
X66025109Y-34056580D01*
X66120347Y-34056580D01*
X66263204Y-34008961D01*
X66310823Y-33961342D01*
X66310823Y-33628009D01*
X66120347Y-33628009D01*
X65501300Y-28103580D02*
X65025109Y-28103580D01*
X64977490Y-28579771D01*
X65025109Y-28532152D01*
X65120347Y-28484533D01*
X65358442Y-28484533D01*
X65453680Y-28532152D01*
X65501300Y-28579771D01*
X65548919Y-28675009D01*
X65548919Y-28913104D01*
X65501300Y-29008342D01*
X65453680Y-29055961D01*
X65358442Y-29103580D01*
X65120347Y-29103580D01*
X65025109Y-29055961D01*
X64977490Y-29008342D01*
X65882252Y-28436914D02*
X66120347Y-29103580D01*
X66358442Y-28436914D01*
X65739395Y-31595961D02*
X65882252Y-31643580D01*
X66120347Y-31643580D01*
X66215585Y-31595961D01*
X66263204Y-31548342D01*
X66310823Y-31453104D01*
X66310823Y-31357866D01*
X66263204Y-31262628D01*
X66215585Y-31215009D01*
X66120347Y-31167390D01*
X65929871Y-31119771D01*
X65834633Y-31072152D01*
X65787014Y-31024533D01*
X65739395Y-30929295D01*
X65739395Y-30834057D01*
X65787014Y-30738819D01*
X65834633Y-30691200D01*
X65929871Y-30643580D01*
X66167966Y-30643580D01*
X66310823Y-30691200D01*
X75051700Y-28078180D02*
X74575509Y-28078180D01*
X74527890Y-28554371D01*
X74575509Y-28506752D01*
X74670747Y-28459133D01*
X74908842Y-28459133D01*
X75004080Y-28506752D01*
X75051700Y-28554371D01*
X75099319Y-28649609D01*
X75099319Y-28887704D01*
X75051700Y-28982942D01*
X75004080Y-29030561D01*
X74908842Y-29078180D01*
X74670747Y-29078180D01*
X74575509Y-29030561D01*
X74527890Y-28982942D01*
X75432652Y-28411514D02*
X75670747Y-29078180D01*
X75908842Y-28411514D01*
X75289795Y-31570561D02*
X75432652Y-31618180D01*
X75670747Y-31618180D01*
X75765985Y-31570561D01*
X75813604Y-31522942D01*
X75861223Y-31427704D01*
X75861223Y-31332466D01*
X75813604Y-31237228D01*
X75765985Y-31189609D01*
X75670747Y-31141990D01*
X75480271Y-31094371D01*
X75385033Y-31046752D01*
X75337414Y-30999133D01*
X75289795Y-30903895D01*
X75289795Y-30808657D01*
X75337414Y-30713419D01*
X75385033Y-30665800D01*
X75480271Y-30618180D01*
X75718366Y-30618180D01*
X75861223Y-30665800D01*
X85338604Y-33078800D02*
X85243366Y-33031180D01*
X85100509Y-33031180D01*
X84957652Y-33078800D01*
X84862414Y-33174038D01*
X84814795Y-33269276D01*
X84767176Y-33459752D01*
X84767176Y-33602609D01*
X84814795Y-33793085D01*
X84862414Y-33888323D01*
X84957652Y-33983561D01*
X85100509Y-34031180D01*
X85195747Y-34031180D01*
X85338604Y-33983561D01*
X85386223Y-33935942D01*
X85386223Y-33602609D01*
X85195747Y-33602609D01*
X84576700Y-28078180D02*
X84100509Y-28078180D01*
X84052890Y-28554371D01*
X84100509Y-28506752D01*
X84195747Y-28459133D01*
X84433842Y-28459133D01*
X84529080Y-28506752D01*
X84576700Y-28554371D01*
X84624319Y-28649609D01*
X84624319Y-28887704D01*
X84576700Y-28982942D01*
X84529080Y-29030561D01*
X84433842Y-29078180D01*
X84195747Y-29078180D01*
X84100509Y-29030561D01*
X84052890Y-28982942D01*
X84957652Y-28411514D02*
X85195747Y-29078180D01*
X85433842Y-28411514D01*
X84814795Y-31570561D02*
X84957652Y-31618180D01*
X85195747Y-31618180D01*
X85290985Y-31570561D01*
X85338604Y-31522942D01*
X85386223Y-31427704D01*
X85386223Y-31332466D01*
X85338604Y-31237228D01*
X85290985Y-31189609D01*
X85195747Y-31141990D01*
X85005271Y-31094371D01*
X84910033Y-31046752D01*
X84862414Y-30999133D01*
X84814795Y-30903895D01*
X84814795Y-30808657D01*
X84862414Y-30713419D01*
X84910033Y-30665800D01*
X85005271Y-30618180D01*
X85243366Y-30618180D01*
X85386223Y-30665800D01*
D12*
X78021857Y-49320571D02*
X78593285Y-49320571D01*
X78236142Y-48820571D02*
X78236142Y-50106285D01*
X78307571Y-50249142D01*
X78450428Y-50320571D01*
X78593285Y-50320571D01*
X79664714Y-50249142D02*
X79521857Y-50320571D01*
X79236142Y-50320571D01*
X79093285Y-50249142D01*
X79021857Y-50106285D01*
X79021857Y-49534857D01*
X79093285Y-49392000D01*
X79236142Y-49320571D01*
X79521857Y-49320571D01*
X79664714Y-49392000D01*
X79736142Y-49534857D01*
X79736142Y-49677714D01*
X79021857Y-49820571D01*
X80379000Y-50320571D02*
X80379000Y-49320571D01*
X80379000Y-49606285D02*
X80450428Y-49463428D01*
X80521857Y-49392000D01*
X80664714Y-49320571D01*
X80807571Y-49320571D01*
X81307571Y-50320571D02*
X81307571Y-49320571D01*
X81307571Y-49606285D02*
X81379000Y-49463428D01*
X81450428Y-49392000D01*
X81593285Y-49320571D01*
X81736142Y-49320571D01*
X82879000Y-50320571D02*
X82879000Y-49534857D01*
X82807571Y-49392000D01*
X82664714Y-49320571D01*
X82379000Y-49320571D01*
X82236142Y-49392000D01*
X82879000Y-50249142D02*
X82736142Y-50320571D01*
X82379000Y-50320571D01*
X82236142Y-50249142D01*
X82164714Y-50106285D01*
X82164714Y-49963428D01*
X82236142Y-49820571D01*
X82379000Y-49749142D01*
X82736142Y-49749142D01*
X82879000Y-49677714D01*
X83593285Y-50320571D02*
X83593285Y-49320571D01*
X83593285Y-49606285D02*
X83664714Y-49463428D01*
X83736142Y-49392000D01*
X83879000Y-49320571D01*
X84021857Y-49320571D01*
X84521857Y-50320571D02*
X84521857Y-49320571D01*
X84521857Y-48820571D02*
X84450428Y-48892000D01*
X84521857Y-48963428D01*
X84593285Y-48892000D01*
X84521857Y-48820571D01*
X84521857Y-48963428D01*
X85879000Y-49320571D02*
X85879000Y-50320571D01*
X85236142Y-49320571D02*
X85236142Y-50106285D01*
X85307571Y-50249142D01*
X85450428Y-50320571D01*
X85664714Y-50320571D01*
X85807571Y-50249142D01*
X85879000Y-50177714D01*
X86593285Y-50320571D02*
X86593285Y-49320571D01*
X86593285Y-49463428D02*
X86664714Y-49392000D01*
X86807571Y-49320571D01*
X87021857Y-49320571D01*
X87164714Y-49392000D01*
X87236142Y-49534857D01*
X87236142Y-50320571D01*
X87236142Y-49534857D02*
X87307571Y-49392000D01*
X87450428Y-49320571D01*
X87664714Y-49320571D01*
X87807571Y-49392000D01*
X87879000Y-49534857D01*
X87879000Y-50320571D01*
X90379000Y-50249142D02*
X90236142Y-50320571D01*
X89950428Y-50320571D01*
X89807571Y-50249142D01*
X89736142Y-50177714D01*
X89664714Y-50034857D01*
X89664714Y-49606285D01*
X89736142Y-49463428D01*
X89807571Y-49392000D01*
X89950428Y-49320571D01*
X90236142Y-49320571D01*
X90379000Y-49392000D01*
X91236142Y-50320571D02*
X91093285Y-50249142D01*
X91021857Y-50177714D01*
X90950428Y-50034857D01*
X90950428Y-49606285D01*
X91021857Y-49463428D01*
X91093285Y-49392000D01*
X91236142Y-49320571D01*
X91450428Y-49320571D01*
X91593285Y-49392000D01*
X91664714Y-49463428D01*
X91736142Y-49606285D01*
X91736142Y-50034857D01*
X91664714Y-50177714D01*
X91593285Y-50249142D01*
X91450428Y-50320571D01*
X91236142Y-50320571D01*
X92379000Y-49320571D02*
X92379000Y-50320571D01*
X92379000Y-49463428D02*
X92450428Y-49392000D01*
X92593285Y-49320571D01*
X92807571Y-49320571D01*
X92950428Y-49392000D01*
X93021857Y-49534857D01*
X93021857Y-50320571D01*
X93521857Y-49320571D02*
X94093285Y-49320571D01*
X93736142Y-48820571D02*
X93736142Y-50106285D01*
X93807571Y-50249142D01*
X93950428Y-50320571D01*
X94093285Y-50320571D01*
X94593285Y-50320571D02*
X94593285Y-49320571D01*
X94593285Y-49606285D02*
X94664714Y-49463428D01*
X94736142Y-49392000D01*
X94879000Y-49320571D01*
X95021857Y-49320571D01*
X95736142Y-50320571D02*
X95593285Y-50249142D01*
X95521857Y-50177714D01*
X95450428Y-50034857D01*
X95450428Y-49606285D01*
X95521857Y-49463428D01*
X95593285Y-49392000D01*
X95736142Y-49320571D01*
X95950428Y-49320571D01*
X96093285Y-49392000D01*
X96164714Y-49463428D01*
X96236142Y-49606285D01*
X96236142Y-50034857D01*
X96164714Y-50177714D01*
X96093285Y-50249142D01*
X95950428Y-50320571D01*
X95736142Y-50320571D01*
X97093285Y-50320571D02*
X96950428Y-50249142D01*
X96879000Y-50106285D01*
X96879000Y-48820571D01*
X97879000Y-50320571D02*
X97736142Y-50249142D01*
X97664714Y-50106285D01*
X97664714Y-48820571D01*
X99021857Y-50249142D02*
X98879000Y-50320571D01*
X98593285Y-50320571D01*
X98450428Y-50249142D01*
X98379000Y-50106285D01*
X98379000Y-49534857D01*
X98450428Y-49392000D01*
X98593285Y-49320571D01*
X98879000Y-49320571D01*
X99021857Y-49392000D01*
X99093285Y-49534857D01*
X99093285Y-49677714D01*
X98379000Y-49820571D01*
X99736142Y-50320571D02*
X99736142Y-49320571D01*
X99736142Y-49606285D02*
X99807571Y-49463428D01*
X99879000Y-49392000D01*
X100021857Y-49320571D01*
X100164714Y-49320571D01*
X78093285Y-51870571D02*
X78450428Y-52870571D01*
X78807571Y-51870571D01*
X80164714Y-52870571D02*
X79307571Y-52870571D01*
X79736142Y-52870571D02*
X79736142Y-51370571D01*
X79593285Y-51584857D01*
X79450428Y-51727714D01*
X79307571Y-51799142D01*
X80807571Y-52727714D02*
X80879000Y-52799142D01*
X80807571Y-52870571D01*
X80736142Y-52799142D01*
X80807571Y-52727714D01*
X80807571Y-52870571D01*
X81450428Y-51513428D02*
X81521857Y-51442000D01*
X81664714Y-51370571D01*
X82021857Y-51370571D01*
X82164714Y-51442000D01*
X82236142Y-51513428D01*
X82307571Y-51656285D01*
X82307571Y-51799142D01*
X82236142Y-52013428D01*
X81379000Y-52870571D01*
X82307571Y-52870571D01*
X78879000Y-54420571D02*
X78879000Y-55634857D01*
X78807571Y-55777714D01*
X78736142Y-55849142D01*
X78593285Y-55920571D01*
X78379000Y-55920571D01*
X78236142Y-55849142D01*
X78879000Y-55349142D02*
X78736142Y-55420571D01*
X78450428Y-55420571D01*
X78307571Y-55349142D01*
X78236142Y-55277714D01*
X78164714Y-55134857D01*
X78164714Y-54706285D01*
X78236142Y-54563428D01*
X78307571Y-54492000D01*
X78450428Y-54420571D01*
X78736142Y-54420571D01*
X78879000Y-54492000D01*
X79593285Y-55420571D02*
X79593285Y-54420571D01*
X79593285Y-53920571D02*
X79521857Y-53992000D01*
X79593285Y-54063428D01*
X79664714Y-53992000D01*
X79593285Y-53920571D01*
X79593285Y-54063428D01*
X80093285Y-54420571D02*
X80664714Y-54420571D01*
X80307571Y-53920571D02*
X80307571Y-55206285D01*
X80379000Y-55349142D01*
X80521857Y-55420571D01*
X80664714Y-55420571D01*
X81164714Y-55420571D02*
X81164714Y-53920571D01*
X81807571Y-55420571D02*
X81807571Y-54634857D01*
X81736142Y-54492000D01*
X81593285Y-54420571D01*
X81379000Y-54420571D01*
X81236142Y-54492000D01*
X81164714Y-54563428D01*
X83164714Y-54420571D02*
X83164714Y-55420571D01*
X82521857Y-54420571D02*
X82521857Y-55206285D01*
X82593285Y-55349142D01*
X82736142Y-55420571D01*
X82950428Y-55420571D01*
X83093285Y-55349142D01*
X83164714Y-55277714D01*
X83879000Y-55420571D02*
X83879000Y-53920571D01*
X83879000Y-54492000D02*
X84021857Y-54420571D01*
X84307571Y-54420571D01*
X84450428Y-54492000D01*
X84521857Y-54563428D01*
X84593285Y-54706285D01*
X84593285Y-55134857D01*
X84521857Y-55277714D01*
X84450428Y-55349142D01*
X84307571Y-55420571D01*
X84021857Y-55420571D01*
X83879000Y-55349142D01*
X85236142Y-55277714D02*
X85307571Y-55349142D01*
X85236142Y-55420571D01*
X85164714Y-55349142D01*
X85236142Y-55277714D01*
X85236142Y-55420571D01*
X86593285Y-55349142D02*
X86450428Y-55420571D01*
X86164714Y-55420571D01*
X86021857Y-55349142D01*
X85950428Y-55277714D01*
X85879000Y-55134857D01*
X85879000Y-54706285D01*
X85950428Y-54563428D01*
X86021857Y-54492000D01*
X86164714Y-54420571D01*
X86450428Y-54420571D01*
X86593285Y-54492000D01*
X87450428Y-55420571D02*
X87307571Y-55349142D01*
X87236142Y-55277714D01*
X87164714Y-55134857D01*
X87164714Y-54706285D01*
X87236142Y-54563428D01*
X87307571Y-54492000D01*
X87450428Y-54420571D01*
X87664714Y-54420571D01*
X87807571Y-54492000D01*
X87879000Y-54563428D01*
X87950428Y-54706285D01*
X87950428Y-55134857D01*
X87879000Y-55277714D01*
X87807571Y-55349142D01*
X87664714Y-55420571D01*
X87450428Y-55420571D01*
X88593285Y-55420571D02*
X88593285Y-54420571D01*
X88593285Y-54563428D02*
X88664714Y-54492000D01*
X88807571Y-54420571D01*
X89021857Y-54420571D01*
X89164714Y-54492000D01*
X89236142Y-54634857D01*
X89236142Y-55420571D01*
X89236142Y-54634857D02*
X89307571Y-54492000D01*
X89450428Y-54420571D01*
X89664714Y-54420571D01*
X89807571Y-54492000D01*
X89879000Y-54634857D01*
X89879000Y-55420571D01*
X91664714Y-53849142D02*
X90379000Y-55777714D01*
X92164714Y-55420571D02*
X92164714Y-53920571D01*
X92164714Y-54492000D02*
X92307571Y-54420571D01*
X92593285Y-54420571D01*
X92736142Y-54492000D01*
X92807571Y-54563428D01*
X92879000Y-54706285D01*
X92879000Y-55134857D01*
X92807571Y-55277714D01*
X92736142Y-55349142D01*
X92593285Y-55420571D01*
X92307571Y-55420571D01*
X92164714Y-55349142D01*
X93521857Y-55420571D02*
X93521857Y-54420571D01*
X93521857Y-54706285D02*
X93593285Y-54563428D01*
X93664714Y-54492000D01*
X93807571Y-54420571D01*
X93950428Y-54420571D01*
X95093285Y-54420571D02*
X95093285Y-55420571D01*
X94450428Y-54420571D02*
X94450428Y-55206285D01*
X94521857Y-55349142D01*
X94664714Y-55420571D01*
X94879000Y-55420571D01*
X95021857Y-55349142D01*
X95093285Y-55277714D01*
X95736142Y-55349142D02*
X95879000Y-55420571D01*
X96164714Y-55420571D01*
X96307571Y-55349142D01*
X96379000Y-55206285D01*
X96379000Y-55134857D01*
X96307571Y-54992000D01*
X96164714Y-54920571D01*
X95950428Y-54920571D01*
X95807571Y-54849142D01*
X95736142Y-54706285D01*
X95736142Y-54634857D01*
X95807571Y-54492000D01*
X95950428Y-54420571D01*
X96164714Y-54420571D01*
X96307571Y-54492000D01*
X97021857Y-55420571D02*
X97021857Y-53920571D01*
X97664714Y-55420571D02*
X97664714Y-54634857D01*
X97593285Y-54492000D01*
X97450428Y-54420571D01*
X97236142Y-54420571D01*
X97093285Y-54492000D01*
X97021857Y-54563428D01*
X98379000Y-55420571D02*
X98379000Y-53920571D01*
X98521857Y-54849142D02*
X98950428Y-55420571D01*
X98950428Y-54420571D02*
X98379000Y-54992000D01*
X99593285Y-54420571D02*
X99593285Y-55420571D01*
X99593285Y-54563428D02*
X99664714Y-54492000D01*
X99807571Y-54420571D01*
X100021857Y-54420571D01*
X100164714Y-54492000D01*
X100236142Y-54634857D01*
X100236142Y-55420571D01*
X100950428Y-55420571D02*
X100950428Y-54420571D01*
X100950428Y-53920571D02*
X100879000Y-53992000D01*
X100950428Y-54063428D01*
X101021857Y-53992000D01*
X100950428Y-53920571D01*
X100950428Y-54063428D01*
X102307571Y-54420571D02*
X102307571Y-55634857D01*
X102236142Y-55777714D01*
X102164714Y-55849142D01*
X102021857Y-55920571D01*
X101807571Y-55920571D01*
X101664714Y-55849142D01*
X102307571Y-55349142D02*
X102164714Y-55420571D01*
X101879000Y-55420571D01*
X101736142Y-55349142D01*
X101664714Y-55277714D01*
X101593285Y-55134857D01*
X101593285Y-54706285D01*
X101664714Y-54563428D01*
X101736142Y-54492000D01*
X101879000Y-54420571D01*
X102164714Y-54420571D01*
X102307571Y-54492000D01*
X103021857Y-55420571D02*
X103021857Y-53920571D01*
X103664714Y-55420571D02*
X103664714Y-54634857D01*
X103593285Y-54492000D01*
X103450428Y-54420571D01*
X103236142Y-54420571D01*
X103093285Y-54492000D01*
X103021857Y-54563428D01*
X104164714Y-54420571D02*
X104736142Y-54420571D01*
X104379000Y-53920571D02*
X104379000Y-55206285D01*
X104450428Y-55349142D01*
X104593285Y-55420571D01*
X104736142Y-55420571D01*
X106307571Y-53849142D02*
X105021857Y-55777714D01*
X106593285Y-54420571D02*
X107164714Y-54420571D01*
X106807571Y-53920571D02*
X106807571Y-55206285D01*
X106879000Y-55349142D01*
X107021857Y-55420571D01*
X107164714Y-55420571D01*
X108236142Y-55349142D02*
X108093285Y-55420571D01*
X107807571Y-55420571D01*
X107664714Y-55349142D01*
X107593285Y-55206285D01*
X107593285Y-54634857D01*
X107664714Y-54492000D01*
X107807571Y-54420571D01*
X108093285Y-54420571D01*
X108236142Y-54492000D01*
X108307571Y-54634857D01*
X108307571Y-54777714D01*
X107593285Y-54920571D01*
X108950428Y-55420571D02*
X108950428Y-54420571D01*
X108950428Y-54706285D02*
X109021857Y-54563428D01*
X109093285Y-54492000D01*
X109236142Y-54420571D01*
X109379000Y-54420571D01*
X109879000Y-55420571D02*
X109879000Y-54420571D01*
X109879000Y-54706285D02*
X109950428Y-54563428D01*
X110021857Y-54492000D01*
X110164714Y-54420571D01*
X110307571Y-54420571D01*
X111450428Y-55420571D02*
X111450428Y-54634857D01*
X111379000Y-54492000D01*
X111236142Y-54420571D01*
X110950428Y-54420571D01*
X110807571Y-54492000D01*
X111450428Y-55349142D02*
X111307571Y-55420571D01*
X110950428Y-55420571D01*
X110807571Y-55349142D01*
X110736142Y-55206285D01*
X110736142Y-55063428D01*
X110807571Y-54920571D01*
X110950428Y-54849142D01*
X111307571Y-54849142D01*
X111450428Y-54777714D01*
X112164714Y-55420571D02*
X112164714Y-54420571D01*
X112164714Y-54706285D02*
X112236142Y-54563428D01*
X112307571Y-54492000D01*
X112450428Y-54420571D01*
X112593285Y-54420571D01*
X113093285Y-55420571D02*
X113093285Y-54420571D01*
X113093285Y-53920571D02*
X113021857Y-53992000D01*
X113093285Y-54063428D01*
X113164714Y-53992000D01*
X113093285Y-53920571D01*
X113093285Y-54063428D01*
X114450428Y-54420571D02*
X114450428Y-55420571D01*
X113807571Y-54420571D02*
X113807571Y-55206285D01*
X113879000Y-55349142D01*
X114021857Y-55420571D01*
X114236142Y-55420571D01*
X114379000Y-55349142D01*
X114450428Y-55277714D01*
X115164714Y-55420571D02*
X115164714Y-54420571D01*
X115164714Y-54563428D02*
X115236142Y-54492000D01*
X115379000Y-54420571D01*
X115593285Y-54420571D01*
X115736142Y-54492000D01*
X115807571Y-54634857D01*
X115807571Y-55420571D01*
X115807571Y-54634857D02*
X115879000Y-54492000D01*
X116021857Y-54420571D01*
X116236142Y-54420571D01*
X116379000Y-54492000D01*
X116450428Y-54634857D01*
X116450428Y-55420571D01*
X78879000Y-56970571D02*
X78879000Y-58184857D01*
X78807571Y-58327714D01*
X78736142Y-58399142D01*
X78593285Y-58470571D01*
X78379000Y-58470571D01*
X78236142Y-58399142D01*
X78879000Y-57899142D02*
X78736142Y-57970571D01*
X78450428Y-57970571D01*
X78307571Y-57899142D01*
X78236142Y-57827714D01*
X78164714Y-57684857D01*
X78164714Y-57256285D01*
X78236142Y-57113428D01*
X78307571Y-57042000D01*
X78450428Y-56970571D01*
X78736142Y-56970571D01*
X78879000Y-57042000D01*
X79593285Y-57970571D02*
X79593285Y-56970571D01*
X79593285Y-56470571D02*
X79521857Y-56542000D01*
X79593285Y-56613428D01*
X79664714Y-56542000D01*
X79593285Y-56470571D01*
X79593285Y-56613428D01*
X80093285Y-56970571D02*
X80664714Y-56970571D01*
X80307571Y-56470571D02*
X80307571Y-57756285D01*
X80379000Y-57899142D01*
X80521857Y-57970571D01*
X80664714Y-57970571D01*
X81164714Y-57970571D02*
X81164714Y-56470571D01*
X81807571Y-57970571D02*
X81807571Y-57184857D01*
X81736142Y-57042000D01*
X81593285Y-56970571D01*
X81379000Y-56970571D01*
X81236142Y-57042000D01*
X81164714Y-57113428D01*
X83164714Y-56970571D02*
X83164714Y-57970571D01*
X82521857Y-56970571D02*
X82521857Y-57756285D01*
X82593285Y-57899142D01*
X82736142Y-57970571D01*
X82950428Y-57970571D01*
X83093285Y-57899142D01*
X83164714Y-57827714D01*
X83879000Y-57970571D02*
X83879000Y-56470571D01*
X83879000Y-57042000D02*
X84021857Y-56970571D01*
X84307571Y-56970571D01*
X84450428Y-57042000D01*
X84521857Y-57113428D01*
X84593285Y-57256285D01*
X84593285Y-57684857D01*
X84521857Y-57827714D01*
X84450428Y-57899142D01*
X84307571Y-57970571D01*
X84021857Y-57970571D01*
X83879000Y-57899142D01*
X85236142Y-57827714D02*
X85307571Y-57899142D01*
X85236142Y-57970571D01*
X85164714Y-57899142D01*
X85236142Y-57827714D01*
X85236142Y-57970571D01*
X86593285Y-57899142D02*
X86450428Y-57970571D01*
X86164714Y-57970571D01*
X86021857Y-57899142D01*
X85950428Y-57827714D01*
X85879000Y-57684857D01*
X85879000Y-57256285D01*
X85950428Y-57113428D01*
X86021857Y-57042000D01*
X86164714Y-56970571D01*
X86450428Y-56970571D01*
X86593285Y-57042000D01*
X87450428Y-57970571D02*
X87307571Y-57899142D01*
X87236142Y-57827714D01*
X87164714Y-57684857D01*
X87164714Y-57256285D01*
X87236142Y-57113428D01*
X87307571Y-57042000D01*
X87450428Y-56970571D01*
X87664714Y-56970571D01*
X87807571Y-57042000D01*
X87879000Y-57113428D01*
X87950428Y-57256285D01*
X87950428Y-57684857D01*
X87879000Y-57827714D01*
X87807571Y-57899142D01*
X87664714Y-57970571D01*
X87450428Y-57970571D01*
X88593285Y-57970571D02*
X88593285Y-56970571D01*
X88593285Y-57113428D02*
X88664714Y-57042000D01*
X88807571Y-56970571D01*
X89021857Y-56970571D01*
X89164714Y-57042000D01*
X89236142Y-57184857D01*
X89236142Y-57970571D01*
X89236142Y-57184857D02*
X89307571Y-57042000D01*
X89450428Y-56970571D01*
X89664714Y-56970571D01*
X89807571Y-57042000D01*
X89879000Y-57184857D01*
X89879000Y-57970571D01*
X91664714Y-56399142D02*
X90379000Y-58327714D01*
X92164714Y-57970571D02*
X92164714Y-56470571D01*
X92164714Y-57042000D02*
X92307571Y-56970571D01*
X92593285Y-56970571D01*
X92736142Y-57042000D01*
X92807571Y-57113428D01*
X92879000Y-57256285D01*
X92879000Y-57684857D01*
X92807571Y-57827714D01*
X92736142Y-57899142D01*
X92593285Y-57970571D01*
X92307571Y-57970571D01*
X92164714Y-57899142D01*
X93521857Y-57970571D02*
X93521857Y-56970571D01*
X93521857Y-57256285D02*
X93593285Y-57113428D01*
X93664714Y-57042000D01*
X93807571Y-56970571D01*
X93950428Y-56970571D01*
X95093285Y-56970571D02*
X95093285Y-57970571D01*
X94450428Y-56970571D02*
X94450428Y-57756285D01*
X94521857Y-57899142D01*
X94664714Y-57970571D01*
X94879000Y-57970571D01*
X95021857Y-57899142D01*
X95093285Y-57827714D01*
X95736142Y-57899142D02*
X95879000Y-57970571D01*
X96164714Y-57970571D01*
X96307571Y-57899142D01*
X96379000Y-57756285D01*
X96379000Y-57684857D01*
X96307571Y-57542000D01*
X96164714Y-57470571D01*
X95950428Y-57470571D01*
X95807571Y-57399142D01*
X95736142Y-57256285D01*
X95736142Y-57184857D01*
X95807571Y-57042000D01*
X95950428Y-56970571D01*
X96164714Y-56970571D01*
X96307571Y-57042000D01*
X97021857Y-57970571D02*
X97021857Y-56470571D01*
X97664714Y-57970571D02*
X97664714Y-57184857D01*
X97593285Y-57042000D01*
X97450428Y-56970571D01*
X97236142Y-56970571D01*
X97093285Y-57042000D01*
X97021857Y-57113428D01*
X98379000Y-57970571D02*
X98379000Y-56470571D01*
X98521857Y-57399142D02*
X98950428Y-57970571D01*
X98950428Y-56970571D02*
X98379000Y-57542000D01*
X99593285Y-56970571D02*
X99593285Y-57970571D01*
X99593285Y-57113428D02*
X99664714Y-57042000D01*
X99807571Y-56970571D01*
X100021857Y-56970571D01*
X100164714Y-57042000D01*
X100236142Y-57184857D01*
X100236142Y-57970571D01*
X100950428Y-57970571D02*
X100950428Y-56970571D01*
X100950428Y-56470571D02*
X100879000Y-56542000D01*
X100950428Y-56613428D01*
X101021857Y-56542000D01*
X100950428Y-56470571D01*
X100950428Y-56613428D01*
X102307571Y-56970571D02*
X102307571Y-58184857D01*
X102236142Y-58327714D01*
X102164714Y-58399142D01*
X102021857Y-58470571D01*
X101807571Y-58470571D01*
X101664714Y-58399142D01*
X102307571Y-57899142D02*
X102164714Y-57970571D01*
X101879000Y-57970571D01*
X101736142Y-57899142D01*
X101664714Y-57827714D01*
X101593285Y-57684857D01*
X101593285Y-57256285D01*
X101664714Y-57113428D01*
X101736142Y-57042000D01*
X101879000Y-56970571D01*
X102164714Y-56970571D01*
X102307571Y-57042000D01*
X103021857Y-57970571D02*
X103021857Y-56470571D01*
X103664714Y-57970571D02*
X103664714Y-57184857D01*
X103593285Y-57042000D01*
X103450428Y-56970571D01*
X103236142Y-56970571D01*
X103093285Y-57042000D01*
X103021857Y-57113428D01*
X104164714Y-56970571D02*
X104736142Y-56970571D01*
X104379000Y-56470571D02*
X104379000Y-57756285D01*
X104450428Y-57899142D01*
X104593285Y-57970571D01*
X104736142Y-57970571D01*
X106307571Y-56399142D02*
X105021857Y-58327714D01*
X106593285Y-56970571D02*
X107164714Y-56970571D01*
X106807571Y-56470571D02*
X106807571Y-57756285D01*
X106879000Y-57899142D01*
X107021857Y-57970571D01*
X107164714Y-57970571D01*
X108236142Y-57899142D02*
X108093285Y-57970571D01*
X107807571Y-57970571D01*
X107664714Y-57899142D01*
X107593285Y-57756285D01*
X107593285Y-57184857D01*
X107664714Y-57042000D01*
X107807571Y-56970571D01*
X108093285Y-56970571D01*
X108236142Y-57042000D01*
X108307571Y-57184857D01*
X108307571Y-57327714D01*
X107593285Y-57470571D01*
X108950428Y-57970571D02*
X108950428Y-56970571D01*
X108950428Y-57256285D02*
X109021857Y-57113428D01*
X109093285Y-57042000D01*
X109236142Y-56970571D01*
X109379000Y-56970571D01*
X109879000Y-57970571D02*
X109879000Y-56970571D01*
X109879000Y-57256285D02*
X109950428Y-57113428D01*
X110021857Y-57042000D01*
X110164714Y-56970571D01*
X110307571Y-56970571D01*
X111450428Y-57970571D02*
X111450428Y-57184857D01*
X111379000Y-57042000D01*
X111236142Y-56970571D01*
X110950428Y-56970571D01*
X110807571Y-57042000D01*
X111450428Y-57899142D02*
X111307571Y-57970571D01*
X110950428Y-57970571D01*
X110807571Y-57899142D01*
X110736142Y-57756285D01*
X110736142Y-57613428D01*
X110807571Y-57470571D01*
X110950428Y-57399142D01*
X111307571Y-57399142D01*
X111450428Y-57327714D01*
X112164714Y-57970571D02*
X112164714Y-56970571D01*
X112164714Y-57256285D02*
X112236142Y-57113428D01*
X112307571Y-57042000D01*
X112450428Y-56970571D01*
X112593285Y-56970571D01*
X113093285Y-57970571D02*
X113093285Y-56970571D01*
X113093285Y-56470571D02*
X113021857Y-56542000D01*
X113093285Y-56613428D01*
X113164714Y-56542000D01*
X113093285Y-56470571D01*
X113093285Y-56613428D01*
X114450428Y-56970571D02*
X114450428Y-57970571D01*
X113807571Y-56970571D02*
X113807571Y-57756285D01*
X113879000Y-57899142D01*
X114021857Y-57970571D01*
X114236142Y-57970571D01*
X114379000Y-57899142D01*
X114450428Y-57827714D01*
X115164714Y-57970571D02*
X115164714Y-56970571D01*
X115164714Y-57113428D02*
X115236142Y-57042000D01*
X115379000Y-56970571D01*
X115593285Y-56970571D01*
X115736142Y-57042000D01*
X115807571Y-57184857D01*
X115807571Y-57970571D01*
X115807571Y-57184857D02*
X115879000Y-57042000D01*
X116021857Y-56970571D01*
X116236142Y-56970571D01*
X116379000Y-57042000D01*
X116450428Y-57184857D01*
X116450428Y-57970571D01*
X117164714Y-57399142D02*
X118307571Y-57399142D01*
X119021857Y-57970571D02*
X119021857Y-56470571D01*
X119664714Y-57970571D02*
X119664714Y-57184857D01*
X119593285Y-57042000D01*
X119450428Y-56970571D01*
X119236142Y-56970571D01*
X119093285Y-57042000D01*
X119021857Y-57113428D01*
X121021857Y-57970571D02*
X121021857Y-57184857D01*
X120950428Y-57042000D01*
X120807571Y-56970571D01*
X120521857Y-56970571D01*
X120379000Y-57042000D01*
X121021857Y-57899142D02*
X120879000Y-57970571D01*
X120521857Y-57970571D01*
X120379000Y-57899142D01*
X120307571Y-57756285D01*
X120307571Y-57613428D01*
X120379000Y-57470571D01*
X120521857Y-57399142D01*
X120879000Y-57399142D01*
X121021857Y-57327714D01*
X121736142Y-57970571D02*
X121736142Y-56970571D01*
X121736142Y-57256285D02*
X121807571Y-57113428D01*
X121879000Y-57042000D01*
X122021857Y-56970571D01*
X122164714Y-56970571D01*
X123307571Y-57970571D02*
X123307571Y-56470571D01*
X123307571Y-57899142D02*
X123164714Y-57970571D01*
X122879000Y-57970571D01*
X122736142Y-57899142D01*
X122664714Y-57827714D01*
X122593285Y-57684857D01*
X122593285Y-57256285D01*
X122664714Y-57113428D01*
X122736142Y-57042000D01*
X122879000Y-56970571D01*
X123164714Y-56970571D01*
X123307571Y-57042000D01*
X123879000Y-56970571D02*
X124164714Y-57970571D01*
X124450428Y-57256285D01*
X124736142Y-57970571D01*
X125021857Y-56970571D01*
X126236142Y-57970571D02*
X126236142Y-57184857D01*
X126164714Y-57042000D01*
X126021857Y-56970571D01*
X125736142Y-56970571D01*
X125593285Y-57042000D01*
X126236142Y-57899142D02*
X126093285Y-57970571D01*
X125736142Y-57970571D01*
X125593285Y-57899142D01*
X125521857Y-57756285D01*
X125521857Y-57613428D01*
X125593285Y-57470571D01*
X125736142Y-57399142D01*
X126093285Y-57399142D01*
X126236142Y-57327714D01*
X126950428Y-57970571D02*
X126950428Y-56970571D01*
X126950428Y-57256285D02*
X127021857Y-57113428D01*
X127093285Y-57042000D01*
X127236142Y-56970571D01*
X127379000Y-56970571D01*
X128450428Y-57899142D02*
X128307571Y-57970571D01*
X128021857Y-57970571D01*
X127879000Y-57899142D01*
X127807571Y-57756285D01*
X127807571Y-57184857D01*
X127879000Y-57042000D01*
X128021857Y-56970571D01*
X128307571Y-56970571D01*
X128450428Y-57042000D01*
X128521857Y-57184857D01*
X128521857Y-57327714D01*
X127807571Y-57470571D01*
D10*
X94390595Y-31595961D02*
X94533452Y-31643580D01*
X94771547Y-31643580D01*
X94866785Y-31595961D01*
X94914404Y-31548342D01*
X94962023Y-31453104D01*
X94962023Y-31357866D01*
X94914404Y-31262628D01*
X94866785Y-31215009D01*
X94771547Y-31167390D01*
X94581071Y-31119771D01*
X94485833Y-31072152D01*
X94438214Y-31024533D01*
X94390595Y-30929295D01*
X94390595Y-30834057D01*
X94438214Y-30738819D01*
X94485833Y-30691200D01*
X94581071Y-30643580D01*
X94819166Y-30643580D01*
X94962023Y-30691200D01*
X113227900Y-28128980D02*
X112751709Y-28128980D01*
X112704090Y-28605171D01*
X112751709Y-28557552D01*
X112846947Y-28509933D01*
X113085042Y-28509933D01*
X113180280Y-28557552D01*
X113227900Y-28605171D01*
X113275519Y-28700409D01*
X113275519Y-28938504D01*
X113227900Y-29033742D01*
X113180280Y-29081361D01*
X113085042Y-29128980D01*
X112846947Y-29128980D01*
X112751709Y-29081361D01*
X112704090Y-29033742D01*
X113608852Y-28462314D02*
X113846947Y-29128980D01*
X114085042Y-28462314D01*
X113465995Y-31748361D02*
X113608852Y-31795980D01*
X113846947Y-31795980D01*
X113942185Y-31748361D01*
X113989804Y-31700742D01*
X114037423Y-31605504D01*
X114037423Y-31510266D01*
X113989804Y-31415028D01*
X113942185Y-31367409D01*
X113846947Y-31319790D01*
X113656471Y-31272171D01*
X113561233Y-31224552D01*
X113513614Y-31176933D01*
X113465995Y-31081695D01*
X113465995Y-30986457D01*
X113513614Y-30891219D01*
X113561233Y-30843600D01*
X113656471Y-30795980D01*
X113894566Y-30795980D01*
X114037423Y-30843600D01*
X103677500Y-28154380D02*
X103201309Y-28154380D01*
X103153690Y-28630571D01*
X103201309Y-28582952D01*
X103296547Y-28535333D01*
X103534642Y-28535333D01*
X103629880Y-28582952D01*
X103677500Y-28630571D01*
X103725119Y-28725809D01*
X103725119Y-28963904D01*
X103677500Y-29059142D01*
X103629880Y-29106761D01*
X103534642Y-29154380D01*
X103296547Y-29154380D01*
X103201309Y-29106761D01*
X103153690Y-29059142D01*
X104058452Y-28487714D02*
X104296547Y-29154380D01*
X104534642Y-28487714D01*
X103915595Y-31773761D02*
X104058452Y-31821380D01*
X104296547Y-31821380D01*
X104391785Y-31773761D01*
X104439404Y-31726142D01*
X104487023Y-31630904D01*
X104487023Y-31535666D01*
X104439404Y-31440428D01*
X104391785Y-31392809D01*
X104296547Y-31345190D01*
X104106071Y-31297571D01*
X104010833Y-31249952D01*
X103963214Y-31202333D01*
X103915595Y-31107095D01*
X103915595Y-31011857D01*
X103963214Y-30916619D01*
X104010833Y-30869000D01*
X104106071Y-30821380D01*
X104344166Y-30821380D01*
X104487023Y-30869000D01*
X94152500Y-28103580D02*
X93676309Y-28103580D01*
X93628690Y-28579771D01*
X93676309Y-28532152D01*
X93771547Y-28484533D01*
X94009642Y-28484533D01*
X94104880Y-28532152D01*
X94152500Y-28579771D01*
X94200119Y-28675009D01*
X94200119Y-28913104D01*
X94152500Y-29008342D01*
X94104880Y-29055961D01*
X94009642Y-29103580D01*
X93771547Y-29103580D01*
X93676309Y-29055961D01*
X93628690Y-29008342D01*
X94533452Y-28436914D02*
X94771547Y-29103580D01*
X95009642Y-28436914D01*
X113989804Y-33256600D02*
X113894566Y-33208980D01*
X113751709Y-33208980D01*
X113608852Y-33256600D01*
X113513614Y-33351838D01*
X113465995Y-33447076D01*
X113418376Y-33637552D01*
X113418376Y-33780409D01*
X113465995Y-33970885D01*
X113513614Y-34066123D01*
X113608852Y-34161361D01*
X113751709Y-34208980D01*
X113846947Y-34208980D01*
X113989804Y-34161361D01*
X114037423Y-34113742D01*
X114037423Y-33780409D01*
X113846947Y-33780409D01*
X104439404Y-33282000D02*
X104344166Y-33234380D01*
X104201309Y-33234380D01*
X104058452Y-33282000D01*
X103963214Y-33377238D01*
X103915595Y-33472476D01*
X103867976Y-33662952D01*
X103867976Y-33805809D01*
X103915595Y-33996285D01*
X103963214Y-34091523D01*
X104058452Y-34186761D01*
X104201309Y-34234380D01*
X104296547Y-34234380D01*
X104439404Y-34186761D01*
X104487023Y-34139142D01*
X104487023Y-33805809D01*
X104296547Y-33805809D01*
X94914404Y-33104200D02*
X94819166Y-33056580D01*
X94676309Y-33056580D01*
X94533452Y-33104200D01*
X94438214Y-33199438D01*
X94390595Y-33294676D01*
X94342976Y-33485152D01*
X94342976Y-33628009D01*
X94390595Y-33818485D01*
X94438214Y-33913723D01*
X94533452Y-34008961D01*
X94676309Y-34056580D01*
X94771547Y-34056580D01*
X94914404Y-34008961D01*
X94962023Y-33961342D01*
X94962023Y-33628009D01*
X94771547Y-33628009D01*
X49228952Y-102068380D02*
X49228952Y-102782666D01*
X49181333Y-102925523D01*
X49086095Y-103020761D01*
X48943238Y-103068380D01*
X48848000Y-103068380D01*
X50181333Y-103068380D02*
X49705142Y-103068380D01*
X49705142Y-102068380D01*
X51086095Y-102973142D02*
X51038476Y-103020761D01*
X50895619Y-103068380D01*
X50800380Y-103068380D01*
X50657523Y-103020761D01*
X50562285Y-102925523D01*
X50514666Y-102830285D01*
X50467047Y-102639809D01*
X50467047Y-102496952D01*
X50514666Y-102306476D01*
X50562285Y-102211238D01*
X50657523Y-102116000D01*
X50800380Y-102068380D01*
X50895619Y-102068380D01*
X51038476Y-102116000D01*
X51086095Y-102163619D01*
X51800380Y-102068380D02*
X51800380Y-102782666D01*
X51752761Y-102925523D01*
X51657523Y-103020761D01*
X51514666Y-103068380D01*
X51419428Y-103068380D01*
X52752761Y-103068380D02*
X52276571Y-103068380D01*
X52276571Y-102068380D01*
X53657523Y-102973142D02*
X53609904Y-103020761D01*
X53467047Y-103068380D01*
X53371809Y-103068380D01*
X53228952Y-103020761D01*
X53133714Y-102925523D01*
X53086095Y-102830285D01*
X53038476Y-102639809D01*
X53038476Y-102496952D01*
X53086095Y-102306476D01*
X53133714Y-102211238D01*
X53228952Y-102116000D01*
X53371809Y-102068380D01*
X53467047Y-102068380D01*
X53609904Y-102116000D01*
X53657523Y-102163619D01*
X54371809Y-102068380D02*
X54371809Y-102782666D01*
X54324190Y-102925523D01*
X54228952Y-103020761D01*
X54086095Y-103068380D01*
X53990857Y-103068380D01*
X55324190Y-103068380D02*
X54848000Y-103068380D01*
X54848000Y-102068380D01*
X56228952Y-102973142D02*
X56181333Y-103020761D01*
X56038476Y-103068380D01*
X55943238Y-103068380D01*
X55800380Y-103020761D01*
X55705142Y-102925523D01*
X55657523Y-102830285D01*
X55609904Y-102639809D01*
X55609904Y-102496952D01*
X55657523Y-102306476D01*
X55705142Y-102211238D01*
X55800380Y-102116000D01*
X55943238Y-102068380D01*
X56038476Y-102068380D01*
X56181333Y-102116000D01*
X56228952Y-102163619D01*
X56943238Y-102068380D02*
X56943238Y-102782666D01*
X56895619Y-102925523D01*
X56800380Y-103020761D01*
X56657523Y-103068380D01*
X56562285Y-103068380D01*
X57895619Y-103068380D02*
X57419428Y-103068380D01*
X57419428Y-102068380D01*
X58800380Y-102973142D02*
X58752761Y-103020761D01*
X58609904Y-103068380D01*
X58514666Y-103068380D01*
X58371809Y-103020761D01*
X58276571Y-102925523D01*
X58228952Y-102830285D01*
X58181333Y-102639809D01*
X58181333Y-102496952D01*
X58228952Y-102306476D01*
X58276571Y-102211238D01*
X58371809Y-102116000D01*
X58514666Y-102068380D01*
X58609904Y-102068380D01*
X58752761Y-102116000D01*
X58800380Y-102163619D01*
D13*
X127000000Y-23000000D02*
X45000000Y-23000000D01*
X131000000Y-109000000D02*
X131000000Y-27000000D01*
X45000000Y-113000000D02*
X127000000Y-113000000D01*
X41000000Y-27000000D02*
X41000000Y-109000000D01*
D12*
X45382571Y-62908285D02*
X43882571Y-62908285D01*
X43882571Y-62336857D01*
X43954000Y-62194000D01*
X44025428Y-62122571D01*
X44168285Y-62051142D01*
X44382571Y-62051142D01*
X44525428Y-62122571D01*
X44596857Y-62194000D01*
X44668285Y-62336857D01*
X44668285Y-62908285D01*
X45382571Y-61194000D02*
X45311142Y-61336857D01*
X45239714Y-61408285D01*
X45096857Y-61479714D01*
X44668285Y-61479714D01*
X44525428Y-61408285D01*
X44454000Y-61336857D01*
X44382571Y-61194000D01*
X44382571Y-60979714D01*
X44454000Y-60836857D01*
X44525428Y-60765428D01*
X44668285Y-60694000D01*
X45096857Y-60694000D01*
X45239714Y-60765428D01*
X45311142Y-60836857D01*
X45382571Y-60979714D01*
X45382571Y-61194000D01*
X44382571Y-60194000D02*
X45382571Y-59908285D01*
X44668285Y-59622571D01*
X45382571Y-59336857D01*
X44382571Y-59051142D01*
X45311142Y-57908285D02*
X45382571Y-58051142D01*
X45382571Y-58336857D01*
X45311142Y-58479714D01*
X45168285Y-58551142D01*
X44596857Y-58551142D01*
X44454000Y-58479714D01*
X44382571Y-58336857D01*
X44382571Y-58051142D01*
X44454000Y-57908285D01*
X44596857Y-57836857D01*
X44739714Y-57836857D01*
X44882571Y-58551142D01*
X45382571Y-57194000D02*
X44382571Y-57194000D01*
X44668285Y-57194000D02*
X44525428Y-57122571D01*
X44454000Y-57051142D01*
X44382571Y-56908285D01*
X44382571Y-56765428D01*
D10*
X62309523Y-63841380D02*
X62928571Y-63841380D01*
X62595238Y-64222333D01*
X62738095Y-64222333D01*
X62833333Y-64269952D01*
X62880952Y-64317571D01*
X62928571Y-64412809D01*
X62928571Y-64650904D01*
X62880952Y-64746142D01*
X62833333Y-64793761D01*
X62738095Y-64841380D01*
X62452380Y-64841380D01*
X62357142Y-64793761D01*
X62309523Y-64746142D01*
X63261904Y-64174714D02*
X63500000Y-64841380D01*
X63738095Y-64174714D01*
X64023809Y-63841380D02*
X64642857Y-63841380D01*
X64309523Y-64222333D01*
X64452380Y-64222333D01*
X64547619Y-64269952D01*
X64595238Y-64317571D01*
X64642857Y-64412809D01*
X64642857Y-64650904D01*
X64595238Y-64746142D01*
X64547619Y-64793761D01*
X64452380Y-64841380D01*
X64166666Y-64841380D01*
X64071428Y-64793761D01*
X64023809Y-64746142D01*
X109950000Y-44213976D02*
X109902380Y-44309214D01*
X109902380Y-44452071D01*
X109950000Y-44594928D01*
X110045238Y-44690166D01*
X110140476Y-44737785D01*
X110330952Y-44785404D01*
X110473809Y-44785404D01*
X110664285Y-44737785D01*
X110759523Y-44690166D01*
X110854761Y-44594928D01*
X110902380Y-44452071D01*
X110902380Y-44356833D01*
X110854761Y-44213976D01*
X110807142Y-44166357D01*
X110473809Y-44166357D01*
X110473809Y-44356833D01*
X110235714Y-43309214D02*
X110902380Y-43309214D01*
X109854761Y-43547309D02*
X110569047Y-43785404D01*
X110569047Y-43166357D01*
X102330000Y-44213976D02*
X102282380Y-44309214D01*
X102282380Y-44452071D01*
X102330000Y-44594928D01*
X102425238Y-44690166D01*
X102520476Y-44737785D01*
X102710952Y-44785404D01*
X102853809Y-44785404D01*
X103044285Y-44737785D01*
X103139523Y-44690166D01*
X103234761Y-44594928D01*
X103282380Y-44452071D01*
X103282380Y-44356833D01*
X103234761Y-44213976D01*
X103187142Y-44166357D01*
X102853809Y-44166357D01*
X102853809Y-44356833D01*
X102282380Y-43261595D02*
X102282380Y-43737785D01*
X102758571Y-43785404D01*
X102710952Y-43737785D01*
X102663333Y-43642547D01*
X102663333Y-43404452D01*
X102710952Y-43309214D01*
X102758571Y-43261595D01*
X102853809Y-43213976D01*
X103091904Y-43213976D01*
X103187142Y-43261595D01*
X103234761Y-43309214D01*
X103282380Y-43404452D01*
X103282380Y-43642547D01*
X103234761Y-43737785D01*
X103187142Y-43785404D01*
X90582380Y-44166357D02*
X90106190Y-44499690D01*
X90582380Y-44737785D02*
X89582380Y-44737785D01*
X89582380Y-44356833D01*
X89630000Y-44261595D01*
X89677619Y-44213976D01*
X89772857Y-44166357D01*
X89915714Y-44166357D01*
X90010952Y-44213976D01*
X90058571Y-44261595D01*
X90106190Y-44356833D01*
X90106190Y-44737785D01*
X89582380Y-43833023D02*
X90582380Y-43166357D01*
X89582380Y-43166357D02*
X90582380Y-43833023D01*
X87042380Y-44642547D02*
X87042380Y-44071119D01*
X88042380Y-44356833D02*
X87042380Y-44356833D01*
X87042380Y-43833023D02*
X88042380Y-43166357D01*
X87042380Y-43166357D02*
X88042380Y-43833023D01*
D12*
X71290571Y-63614571D02*
X70290571Y-63614571D01*
X69790571Y-63614571D02*
X69862000Y-63686000D01*
X69933428Y-63614571D01*
X69862000Y-63543142D01*
X69790571Y-63614571D01*
X69933428Y-63614571D01*
X69933428Y-62971714D02*
X69862000Y-62900285D01*
X69790571Y-62757428D01*
X69790571Y-62400285D01*
X69862000Y-62257428D01*
X69933428Y-62186000D01*
X70076285Y-62114571D01*
X70219142Y-62114571D01*
X70433428Y-62186000D01*
X71290571Y-63043142D01*
X71290571Y-62114571D01*
X71219142Y-60828857D02*
X71290571Y-60971714D01*
X71290571Y-61257428D01*
X71219142Y-61400285D01*
X71147714Y-61471714D01*
X71004857Y-61543142D01*
X70576285Y-61543142D01*
X70433428Y-61471714D01*
X70362000Y-61400285D01*
X70290571Y-61257428D01*
X70290571Y-60971714D01*
X70362000Y-60828857D01*
X70504857Y-58543142D02*
X70576285Y-58328857D01*
X70647714Y-58257428D01*
X70790571Y-58186000D01*
X71004857Y-58186000D01*
X71147714Y-58257428D01*
X71219142Y-58328857D01*
X71290571Y-58471714D01*
X71290571Y-59043142D01*
X69790571Y-59043142D01*
X69790571Y-58543142D01*
X69862000Y-58400285D01*
X69933428Y-58328857D01*
X70076285Y-58257428D01*
X70219142Y-58257428D01*
X70362000Y-58328857D01*
X70433428Y-58400285D01*
X70504857Y-58543142D01*
X70504857Y-59043142D01*
X69790571Y-57543142D02*
X71004857Y-57543142D01*
X71147714Y-57471714D01*
X71219142Y-57400285D01*
X71290571Y-57257428D01*
X71290571Y-56971714D01*
X71219142Y-56828857D01*
X71147714Y-56757428D01*
X71004857Y-56686000D01*
X69790571Y-56686000D01*
X71219142Y-56043142D02*
X71290571Y-55828857D01*
X71290571Y-55471714D01*
X71219142Y-55328857D01*
X71147714Y-55257428D01*
X71004857Y-55186000D01*
X70862000Y-55186000D01*
X70719142Y-55257428D01*
X70647714Y-55328857D01*
X70576285Y-55471714D01*
X70504857Y-55757428D01*
X70433428Y-55900285D01*
X70362000Y-55971714D01*
X70219142Y-56043142D01*
X70076285Y-56043142D01*
X69933428Y-55971714D01*
X69862000Y-55900285D01*
X69790571Y-55757428D01*
X69790571Y-55400285D01*
X69862000Y-55186000D01*
D10*
X79422380Y-64089309D02*
X79422380Y-63470261D01*
X79803333Y-63803595D01*
X79803333Y-63660738D01*
X79850952Y-63565500D01*
X79898571Y-63517880D01*
X79993809Y-63470261D01*
X80231904Y-63470261D01*
X80327142Y-63517880D01*
X80374761Y-63565500D01*
X80422380Y-63660738D01*
X80422380Y-63946452D01*
X80374761Y-64041690D01*
X80327142Y-64089309D01*
X79755714Y-63136928D02*
X80422380Y-62898833D01*
X79755714Y-62660738D01*
X79422380Y-62375023D02*
X79422380Y-61755976D01*
X79803333Y-62089309D01*
X79803333Y-61946452D01*
X79850952Y-61851214D01*
X79898571Y-61803595D01*
X79993809Y-61755976D01*
X80231904Y-61755976D01*
X80327142Y-61803595D01*
X80374761Y-61851214D01*
X80422380Y-61946452D01*
X80422380Y-62232166D01*
X80374761Y-62327404D01*
X80327142Y-62375023D01*
X61364761Y-46785547D02*
X61412380Y-46642690D01*
X61412380Y-46404595D01*
X61364761Y-46309357D01*
X61317142Y-46261738D01*
X61221904Y-46214119D01*
X61126666Y-46214119D01*
X61031428Y-46261738D01*
X60983809Y-46309357D01*
X60936190Y-46404595D01*
X60888571Y-46595071D01*
X60840952Y-46690309D01*
X60793333Y-46737928D01*
X60698095Y-46785547D01*
X60602857Y-46785547D01*
X60507619Y-46737928D01*
X60460000Y-46690309D01*
X60412380Y-46595071D01*
X60412380Y-46356976D01*
X60460000Y-46214119D01*
X61412380Y-45785547D02*
X60412380Y-45785547D01*
X60412380Y-45547452D01*
X60460000Y-45404595D01*
X60555238Y-45309357D01*
X60650476Y-45261738D01*
X60840952Y-45214119D01*
X60983809Y-45214119D01*
X61174285Y-45261738D01*
X61269523Y-45309357D01*
X61364761Y-45404595D01*
X61412380Y-45547452D01*
X61412380Y-45785547D01*
X61126666Y-44833166D02*
X61126666Y-44356976D01*
X61412380Y-44928404D02*
X60412380Y-44595071D01*
X61412380Y-44261738D01*
X58824761Y-46737928D02*
X58872380Y-46595071D01*
X58872380Y-46356976D01*
X58824761Y-46261738D01*
X58777142Y-46214119D01*
X58681904Y-46166500D01*
X58586666Y-46166500D01*
X58491428Y-46214119D01*
X58443809Y-46261738D01*
X58396190Y-46356976D01*
X58348571Y-46547452D01*
X58300952Y-46642690D01*
X58253333Y-46690309D01*
X58158095Y-46737928D01*
X58062857Y-46737928D01*
X57967619Y-46690309D01*
X57920000Y-46642690D01*
X57872380Y-46547452D01*
X57872380Y-46309357D01*
X57920000Y-46166500D01*
X58777142Y-45166500D02*
X58824761Y-45214119D01*
X58872380Y-45356976D01*
X58872380Y-45452214D01*
X58824761Y-45595071D01*
X58729523Y-45690309D01*
X58634285Y-45737928D01*
X58443809Y-45785547D01*
X58300952Y-45785547D01*
X58110476Y-45737928D01*
X58015238Y-45690309D01*
X57920000Y-45595071D01*
X57872380Y-45452214D01*
X57872380Y-45356976D01*
X57920000Y-45214119D01*
X57967619Y-45166500D01*
X58872380Y-44261738D02*
X58872380Y-44737928D01*
X57872380Y-44737928D01*
X65413000Y-46325214D02*
X65365380Y-46420452D01*
X65365380Y-46563309D01*
X65413000Y-46706166D01*
X65508238Y-46801404D01*
X65603476Y-46849023D01*
X65793952Y-46896642D01*
X65936809Y-46896642D01*
X66127285Y-46849023D01*
X66222523Y-46801404D01*
X66317761Y-46706166D01*
X66365380Y-46563309D01*
X66365380Y-46468071D01*
X66317761Y-46325214D01*
X66270142Y-46277595D01*
X65936809Y-46277595D01*
X65936809Y-46468071D01*
X66365380Y-45849023D02*
X65365380Y-45849023D01*
X66365380Y-45277595D01*
X65365380Y-45277595D01*
X66365380Y-44801404D02*
X65365380Y-44801404D01*
X65365380Y-44563309D01*
X65413000Y-44420452D01*
X65508238Y-44325214D01*
X65603476Y-44277595D01*
X65793952Y-44229976D01*
X65936809Y-44229976D01*
X66127285Y-44277595D01*
X66222523Y-44325214D01*
X66317761Y-44420452D01*
X66365380Y-44563309D01*
X66365380Y-44801404D01*
X62952380Y-46309500D02*
X62952380Y-46785690D01*
X63428571Y-46833309D01*
X63380952Y-46785690D01*
X63333333Y-46690452D01*
X63333333Y-46452357D01*
X63380952Y-46357119D01*
X63428571Y-46309500D01*
X63523809Y-46261880D01*
X63761904Y-46261880D01*
X63857142Y-46309500D01*
X63904761Y-46357119D01*
X63952380Y-46452357D01*
X63952380Y-46690452D01*
X63904761Y-46785690D01*
X63857142Y-46833309D01*
X63285714Y-45928547D02*
X63952380Y-45690452D01*
X63285714Y-45452357D01*
X107410000Y-45166357D02*
X107362380Y-45261595D01*
X107362380Y-45404452D01*
X107410000Y-45547309D01*
X107505238Y-45642547D01*
X107600476Y-45690166D01*
X107790952Y-45737785D01*
X107933809Y-45737785D01*
X108124285Y-45690166D01*
X108219523Y-45642547D01*
X108314761Y-45547309D01*
X108362380Y-45404452D01*
X108362380Y-45309214D01*
X108314761Y-45166357D01*
X108267142Y-45118738D01*
X107933809Y-45118738D01*
X107933809Y-45309214D01*
X108362380Y-44166357D02*
X108362380Y-44737785D01*
X108362380Y-44452071D02*
X107362380Y-44452071D01*
X107505238Y-44547309D01*
X107600476Y-44642547D01*
X107648095Y-44737785D01*
X107362380Y-43309214D02*
X107362380Y-43499690D01*
X107410000Y-43594928D01*
X107457619Y-43642547D01*
X107600476Y-43737785D01*
X107790952Y-43785404D01*
X108171904Y-43785404D01*
X108267142Y-43737785D01*
X108314761Y-43690166D01*
X108362380Y-43594928D01*
X108362380Y-43404452D01*
X108314761Y-43309214D01*
X108267142Y-43261595D01*
X108171904Y-43213976D01*
X107933809Y-43213976D01*
X107838571Y-43261595D01*
X107790952Y-43309214D01*
X107743333Y-43404452D01*
X107743333Y-43594928D01*
X107790952Y-43690166D01*
X107838571Y-43737785D01*
X107933809Y-43785404D01*
X104870000Y-45166357D02*
X104822380Y-45261595D01*
X104822380Y-45404452D01*
X104870000Y-45547309D01*
X104965238Y-45642547D01*
X105060476Y-45690166D01*
X105250952Y-45737785D01*
X105393809Y-45737785D01*
X105584285Y-45690166D01*
X105679523Y-45642547D01*
X105774761Y-45547309D01*
X105822380Y-45404452D01*
X105822380Y-45309214D01*
X105774761Y-45166357D01*
X105727142Y-45118738D01*
X105393809Y-45118738D01*
X105393809Y-45309214D01*
X105822380Y-44166357D02*
X105822380Y-44737785D01*
X105822380Y-44452071D02*
X104822380Y-44452071D01*
X104965238Y-44547309D01*
X105060476Y-44642547D01*
X105108095Y-44737785D01*
X104822380Y-43833023D02*
X104822380Y-43166357D01*
X105822380Y-43594928D01*
X99790000Y-45166357D02*
X99742380Y-45261595D01*
X99742380Y-45404452D01*
X99790000Y-45547309D01*
X99885238Y-45642547D01*
X99980476Y-45690166D01*
X100170952Y-45737785D01*
X100313809Y-45737785D01*
X100504285Y-45690166D01*
X100599523Y-45642547D01*
X100694761Y-45547309D01*
X100742380Y-45404452D01*
X100742380Y-45309214D01*
X100694761Y-45166357D01*
X100647142Y-45118738D01*
X100313809Y-45118738D01*
X100313809Y-45309214D01*
X100742380Y-44166357D02*
X100742380Y-44737785D01*
X100742380Y-44452071D02*
X99742380Y-44452071D01*
X99885238Y-44547309D01*
X99980476Y-44642547D01*
X100028095Y-44737785D01*
X100170952Y-43594928D02*
X100123333Y-43690166D01*
X100075714Y-43737785D01*
X99980476Y-43785404D01*
X99932857Y-43785404D01*
X99837619Y-43737785D01*
X99790000Y-43690166D01*
X99742380Y-43594928D01*
X99742380Y-43404452D01*
X99790000Y-43309214D01*
X99837619Y-43261595D01*
X99932857Y-43213976D01*
X99980476Y-43213976D01*
X100075714Y-43261595D01*
X100123333Y-43309214D01*
X100170952Y-43404452D01*
X100170952Y-43594928D01*
X100218571Y-43690166D01*
X100266190Y-43737785D01*
X100361428Y-43785404D01*
X100551904Y-43785404D01*
X100647142Y-43737785D01*
X100694761Y-43690166D01*
X100742380Y-43594928D01*
X100742380Y-43404452D01*
X100694761Y-43309214D01*
X100647142Y-43261595D01*
X100551904Y-43213976D01*
X100361428Y-43213976D01*
X100266190Y-43261595D01*
X100218571Y-43309214D01*
X100170952Y-43404452D01*
X97250000Y-45166357D02*
X97202380Y-45261595D01*
X97202380Y-45404452D01*
X97250000Y-45547309D01*
X97345238Y-45642547D01*
X97440476Y-45690166D01*
X97630952Y-45737785D01*
X97773809Y-45737785D01*
X97964285Y-45690166D01*
X98059523Y-45642547D01*
X98154761Y-45547309D01*
X98202380Y-45404452D01*
X98202380Y-45309214D01*
X98154761Y-45166357D01*
X98107142Y-45118738D01*
X97773809Y-45118738D01*
X97773809Y-45309214D01*
X98202380Y-44166357D02*
X98202380Y-44737785D01*
X98202380Y-44452071D02*
X97202380Y-44452071D01*
X97345238Y-44547309D01*
X97440476Y-44642547D01*
X97488095Y-44737785D01*
X98202380Y-43690166D02*
X98202380Y-43499690D01*
X98154761Y-43404452D01*
X98107142Y-43356833D01*
X97964285Y-43261595D01*
X97773809Y-43213976D01*
X97392857Y-43213976D01*
X97297619Y-43261595D01*
X97250000Y-43309214D01*
X97202380Y-43404452D01*
X97202380Y-43594928D01*
X97250000Y-43690166D01*
X97297619Y-43737785D01*
X97392857Y-43785404D01*
X97630952Y-43785404D01*
X97726190Y-43737785D01*
X97773809Y-43690166D01*
X97821428Y-43594928D01*
X97821428Y-43404452D01*
X97773809Y-43309214D01*
X97726190Y-43261595D01*
X97630952Y-43213976D01*
X92170000Y-45166357D02*
X92122380Y-45261595D01*
X92122380Y-45404452D01*
X92170000Y-45547309D01*
X92265238Y-45642547D01*
X92360476Y-45690166D01*
X92550952Y-45737785D01*
X92693809Y-45737785D01*
X92884285Y-45690166D01*
X92979523Y-45642547D01*
X93074761Y-45547309D01*
X93122380Y-45404452D01*
X93122380Y-45309214D01*
X93074761Y-45166357D01*
X93027142Y-45118738D01*
X92693809Y-45118738D01*
X92693809Y-45309214D01*
X92217619Y-44737785D02*
X92170000Y-44690166D01*
X92122380Y-44594928D01*
X92122380Y-44356833D01*
X92170000Y-44261595D01*
X92217619Y-44213976D01*
X92312857Y-44166357D01*
X92408095Y-44166357D01*
X92550952Y-44213976D01*
X93122380Y-44785404D01*
X93122380Y-44166357D01*
X93122380Y-43213976D02*
X93122380Y-43785404D01*
X93122380Y-43499690D02*
X92122380Y-43499690D01*
X92265238Y-43594928D01*
X92360476Y-43690166D01*
X92408095Y-43785404D01*
X84550000Y-45166357D02*
X84502380Y-45261595D01*
X84502380Y-45404452D01*
X84550000Y-45547309D01*
X84645238Y-45642547D01*
X84740476Y-45690166D01*
X84930952Y-45737785D01*
X85073809Y-45737785D01*
X85264285Y-45690166D01*
X85359523Y-45642547D01*
X85454761Y-45547309D01*
X85502380Y-45404452D01*
X85502380Y-45309214D01*
X85454761Y-45166357D01*
X85407142Y-45118738D01*
X85073809Y-45118738D01*
X85073809Y-45309214D01*
X84597619Y-44737785D02*
X84550000Y-44690166D01*
X84502380Y-44594928D01*
X84502380Y-44356833D01*
X84550000Y-44261595D01*
X84597619Y-44213976D01*
X84692857Y-44166357D01*
X84788095Y-44166357D01*
X84930952Y-44213976D01*
X85502380Y-44785404D01*
X85502380Y-44166357D01*
X84597619Y-43785404D02*
X84550000Y-43737785D01*
X84502380Y-43642547D01*
X84502380Y-43404452D01*
X84550000Y-43309214D01*
X84597619Y-43261595D01*
X84692857Y-43213976D01*
X84788095Y-43213976D01*
X84930952Y-43261595D01*
X85502380Y-43833023D01*
X85502380Y-43213976D01*
X79724000Y-45309214D02*
X79676380Y-45404452D01*
X79676380Y-45547309D01*
X79724000Y-45690166D01*
X79819238Y-45785404D01*
X79914476Y-45833023D01*
X80104952Y-45880642D01*
X80247809Y-45880642D01*
X80438285Y-45833023D01*
X80533523Y-45785404D01*
X80628761Y-45690166D01*
X80676380Y-45547309D01*
X80676380Y-45452071D01*
X80628761Y-45309214D01*
X80581142Y-45261595D01*
X80247809Y-45261595D01*
X80247809Y-45452071D01*
X80676380Y-44833023D02*
X79676380Y-44833023D01*
X80676380Y-44261595D01*
X79676380Y-44261595D01*
X80676380Y-43785404D02*
X79676380Y-43785404D01*
X79676380Y-43547309D01*
X79724000Y-43404452D01*
X79819238Y-43309214D01*
X79914476Y-43261595D01*
X80104952Y-43213976D01*
X80247809Y-43213976D01*
X80438285Y-43261595D01*
X80533523Y-43309214D01*
X80628761Y-43404452D01*
X80676380Y-43547309D01*
X80676380Y-43785404D01*
X125142380Y-63581500D02*
X125142380Y-64057690D01*
X125618571Y-64105309D01*
X125570952Y-64057690D01*
X125523333Y-63962452D01*
X125523333Y-63724357D01*
X125570952Y-63629119D01*
X125618571Y-63581500D01*
X125713809Y-63533880D01*
X125951904Y-63533880D01*
X126047142Y-63581500D01*
X126094761Y-63629119D01*
X126142380Y-63724357D01*
X126142380Y-63962452D01*
X126094761Y-64057690D01*
X126047142Y-64105309D01*
X125475714Y-63200547D02*
X126142380Y-62962452D01*
X125475714Y-62724357D01*
X55776761Y-72334285D02*
X55824380Y-72191428D01*
X55824380Y-71953333D01*
X55776761Y-71858095D01*
X55729142Y-71810476D01*
X55633904Y-71762857D01*
X55538666Y-71762857D01*
X55443428Y-71810476D01*
X55395809Y-71858095D01*
X55348190Y-71953333D01*
X55300571Y-72143809D01*
X55252952Y-72239047D01*
X55205333Y-72286666D01*
X55110095Y-72334285D01*
X55014857Y-72334285D01*
X54919619Y-72286666D01*
X54872000Y-72239047D01*
X54824380Y-72143809D01*
X54824380Y-71905714D01*
X54872000Y-71762857D01*
X55824380Y-71334285D02*
X54824380Y-71334285D01*
X54824380Y-71096190D01*
X54872000Y-70953333D01*
X54967238Y-70858095D01*
X55062476Y-70810476D01*
X55252952Y-70762857D01*
X55395809Y-70762857D01*
X55586285Y-70810476D01*
X55681523Y-70858095D01*
X55776761Y-70953333D01*
X55824380Y-71096190D01*
X55824380Y-71334285D01*
X55538666Y-70381904D02*
X55538666Y-69905714D01*
X55824380Y-70477142D02*
X54824380Y-70143809D01*
X55824380Y-69810476D01*
X57364380Y-72310476D02*
X57364380Y-71691428D01*
X57745333Y-72024761D01*
X57745333Y-71881904D01*
X57792952Y-71786666D01*
X57840571Y-71739047D01*
X57935809Y-71691428D01*
X58173904Y-71691428D01*
X58269142Y-71739047D01*
X58316761Y-71786666D01*
X58364380Y-71881904D01*
X58364380Y-72167619D01*
X58316761Y-72262857D01*
X58269142Y-72310476D01*
X57697714Y-71358095D02*
X58364380Y-71120000D01*
X57697714Y-70881904D01*
X57364380Y-70596190D02*
X57364380Y-69977142D01*
X57745333Y-70310476D01*
X57745333Y-70167619D01*
X57792952Y-70072380D01*
X57840571Y-70024761D01*
X57935809Y-69977142D01*
X58173904Y-69977142D01*
X58269142Y-70024761D01*
X58316761Y-70072380D01*
X58364380Y-70167619D01*
X58364380Y-70453333D01*
X58316761Y-70548571D01*
X58269142Y-70596190D01*
X59952000Y-71881904D02*
X59904380Y-71977142D01*
X59904380Y-72120000D01*
X59952000Y-72262857D01*
X60047238Y-72358095D01*
X60142476Y-72405714D01*
X60332952Y-72453333D01*
X60475809Y-72453333D01*
X60666285Y-72405714D01*
X60761523Y-72358095D01*
X60856761Y-72262857D01*
X60904380Y-72120000D01*
X60904380Y-72024761D01*
X60856761Y-71881904D01*
X60809142Y-71834285D01*
X60475809Y-71834285D01*
X60475809Y-72024761D01*
X60904380Y-71405714D02*
X59904380Y-71405714D01*
X60904380Y-70834285D01*
X59904380Y-70834285D01*
X60904380Y-70358095D02*
X59904380Y-70358095D01*
X59904380Y-70120000D01*
X59952000Y-69977142D01*
X60047238Y-69881904D01*
X60142476Y-69834285D01*
X60332952Y-69786666D01*
X60475809Y-69786666D01*
X60666285Y-69834285D01*
X60761523Y-69881904D01*
X60856761Y-69977142D01*
X60904380Y-70120000D01*
X60904380Y-70358095D01*
X53236761Y-72310476D02*
X53284380Y-72167619D01*
X53284380Y-71929523D01*
X53236761Y-71834285D01*
X53189142Y-71786666D01*
X53093904Y-71739047D01*
X52998666Y-71739047D01*
X52903428Y-71786666D01*
X52855809Y-71834285D01*
X52808190Y-71929523D01*
X52760571Y-72120000D01*
X52712952Y-72215238D01*
X52665333Y-72262857D01*
X52570095Y-72310476D01*
X52474857Y-72310476D01*
X52379619Y-72262857D01*
X52332000Y-72215238D01*
X52284380Y-72120000D01*
X52284380Y-71881904D01*
X52332000Y-71739047D01*
X53189142Y-70739047D02*
X53236761Y-70786666D01*
X53284380Y-70929523D01*
X53284380Y-71024761D01*
X53236761Y-71167619D01*
X53141523Y-71262857D01*
X53046285Y-71310476D01*
X52855809Y-71358095D01*
X52712952Y-71358095D01*
X52522476Y-71310476D01*
X52427238Y-71262857D01*
X52332000Y-71167619D01*
X52284380Y-71024761D01*
X52284380Y-70929523D01*
X52332000Y-70786666D01*
X52379619Y-70739047D01*
X53284380Y-69834285D02*
X53284380Y-70310476D01*
X52284380Y-70310476D01*
X51337785Y-61730000D02*
X51242547Y-61682380D01*
X51099690Y-61682380D01*
X50956833Y-61730000D01*
X50861595Y-61825238D01*
X50813976Y-61920476D01*
X50766357Y-62110952D01*
X50766357Y-62253809D01*
X50813976Y-62444285D01*
X50861595Y-62539523D01*
X50956833Y-62634761D01*
X51099690Y-62682380D01*
X51194928Y-62682380D01*
X51337785Y-62634761D01*
X51385404Y-62587142D01*
X51385404Y-62253809D01*
X51194928Y-62253809D01*
X51813976Y-62682380D02*
X51813976Y-61682380D01*
X52385404Y-62682380D01*
X52385404Y-61682380D01*
X52861595Y-62682380D02*
X52861595Y-61682380D01*
X53099690Y-61682380D01*
X53242547Y-61730000D01*
X53337785Y-61825238D01*
X53385404Y-61920476D01*
X53433023Y-62110952D01*
X53433023Y-62253809D01*
X53385404Y-62444285D01*
X53337785Y-62539523D01*
X53242547Y-62634761D01*
X53099690Y-62682380D01*
X52861595Y-62682380D01*
X50845690Y-59142380D02*
X51464738Y-59142380D01*
X51131404Y-59523333D01*
X51274261Y-59523333D01*
X51369500Y-59570952D01*
X51417119Y-59618571D01*
X51464738Y-59713809D01*
X51464738Y-59951904D01*
X51417119Y-60047142D01*
X51369500Y-60094761D01*
X51274261Y-60142380D01*
X50988547Y-60142380D01*
X50893309Y-60094761D01*
X50845690Y-60047142D01*
X51798071Y-59475714D02*
X52036166Y-60142380D01*
X52274261Y-59475714D01*
X52559976Y-59142380D02*
X53179023Y-59142380D01*
X52845690Y-59523333D01*
X52988547Y-59523333D01*
X53083785Y-59570952D01*
X53131404Y-59618571D01*
X53179023Y-59713809D01*
X53179023Y-59951904D01*
X53131404Y-60047142D01*
X53083785Y-60094761D01*
X52988547Y-60142380D01*
X52702833Y-60142380D01*
X52607595Y-60094761D01*
X52559976Y-60047142D01*
X51353500Y-56602380D02*
X50877309Y-56602380D01*
X50829690Y-57078571D01*
X50877309Y-57030952D01*
X50972547Y-56983333D01*
X51210642Y-56983333D01*
X51305880Y-57030952D01*
X51353500Y-57078571D01*
X51401119Y-57173809D01*
X51401119Y-57411904D01*
X51353500Y-57507142D01*
X51305880Y-57554761D01*
X51210642Y-57602380D01*
X50972547Y-57602380D01*
X50877309Y-57554761D01*
X50829690Y-57507142D01*
X51734452Y-56935714D02*
X51972547Y-57602380D01*
X52210642Y-56935714D01*
D12*
X71290571Y-51327714D02*
X71290571Y-52042000D01*
X69790571Y-52042000D01*
X71147714Y-49970571D02*
X71219142Y-50042000D01*
X71290571Y-50256285D01*
X71290571Y-50399142D01*
X71219142Y-50613428D01*
X71076285Y-50756285D01*
X70933428Y-50827714D01*
X70647714Y-50899142D01*
X70433428Y-50899142D01*
X70147714Y-50827714D01*
X70004857Y-50756285D01*
X69862000Y-50613428D01*
X69790571Y-50399142D01*
X69790571Y-50256285D01*
X69862000Y-50042000D01*
X69933428Y-49970571D01*
X71290571Y-49327714D02*
X69790571Y-49327714D01*
X69790571Y-48970571D01*
X69862000Y-48756285D01*
X70004857Y-48613428D01*
X70147714Y-48542000D01*
X70433428Y-48470571D01*
X70647714Y-48470571D01*
X70933428Y-48542000D01*
X71076285Y-48613428D01*
X71219142Y-48756285D01*
X71290571Y-48970571D01*
X71290571Y-49327714D01*
X53244857Y-88816571D02*
X52744857Y-88102285D01*
X52387714Y-88816571D02*
X52387714Y-87316571D01*
X52959142Y-87316571D01*
X53102000Y-87388000D01*
X53173428Y-87459428D01*
X53244857Y-87602285D01*
X53244857Y-87816571D01*
X53173428Y-87959428D01*
X53102000Y-88030857D01*
X52959142Y-88102285D01*
X52387714Y-88102285D01*
X53673428Y-87316571D02*
X54530571Y-87316571D01*
X54102000Y-88816571D02*
X54102000Y-87316571D01*
X55887714Y-88673714D02*
X55816285Y-88745142D01*
X55602000Y-88816571D01*
X55459142Y-88816571D01*
X55244857Y-88745142D01*
X55102000Y-88602285D01*
X55030571Y-88459428D01*
X54959142Y-88173714D01*
X54959142Y-87959428D01*
X55030571Y-87673714D01*
X55102000Y-87530857D01*
X55244857Y-87388000D01*
X55459142Y-87316571D01*
X55602000Y-87316571D01*
X55816285Y-87388000D01*
X55887714Y-87459428D01*
D11*
X66040000Y-65532000D02*
X66040000Y-104648000D01*
X42164000Y-65532000D02*
X66040000Y-65532000D01*
X42164000Y-104648000D02*
X42164000Y-65532000D01*
X66040000Y-104648000D02*
X42164000Y-104648000D01*
%TO.C,Q3*%
X80827000Y-75924000D02*
X80827000Y-79524000D01*
X80838522Y-79562478D02*
G75*
G03*
X85277000Y-77724000I1838478J1838478D01*
G01*
X80838522Y-75885522D02*
G75*
G02*
X85277000Y-77724000I1838478J-1838478D01*
G01*
%TO.C,Q2*%
X98988000Y-75924000D02*
X98988000Y-79524000D01*
X98999522Y-79562478D02*
G75*
G03*
X103438000Y-77724000I1838478J1838478D01*
G01*
X98999522Y-75885522D02*
G75*
G02*
X103438000Y-77724000I1838478J-1838478D01*
G01*
%TO.C,Q1*%
X117149000Y-75924000D02*
X117149000Y-79524000D01*
X117160522Y-79562478D02*
G75*
G03*
X121599000Y-77724000I1838478J1838478D01*
G01*
X117160522Y-75885522D02*
G75*
G02*
X121599000Y-77724000I1838478J-1838478D01*
G01*
%TO.C,S3*%
X81120000Y-111252000D02*
X70960000Y-111252000D01*
X81120000Y-112522000D02*
X81120000Y-104902000D01*
X81120000Y-104902000D02*
X70960000Y-104902000D01*
X70960000Y-104902000D02*
X70960000Y-112522000D01*
X70960000Y-112522000D02*
X81120000Y-112522000D01*
%TO.C,RE3*%
X74800000Y-82600000D02*
X68200000Y-82600000D01*
X83800000Y-82600000D02*
X77200000Y-82600000D01*
X83800000Y-82600000D02*
X83800000Y-102400000D01*
X83800000Y-102400000D02*
X68200000Y-102400000D01*
X68200000Y-102400000D02*
X68200000Y-82600000D01*
X71800000Y-98150000D02*
X74250000Y-98150000D01*
X80200000Y-98150000D02*
X77700000Y-98150000D01*
X69950000Y-87550000D02*
X69950000Y-90050000D01*
X75950000Y-86650000D02*
X75950000Y-85850000D01*
X81950000Y-90050000D02*
X81950000Y-87550000D01*
X75950000Y-93450000D02*
X75950000Y-94950000D01*
X75950000Y-94950000D02*
X78450000Y-99550000D01*
X72350000Y-93450000D02*
X72350000Y-86650000D01*
X75950000Y-93450000D02*
X72350000Y-93450000D01*
X75950000Y-86650000D02*
X72350000Y-86650000D01*
X81950000Y-90050000D02*
X77750000Y-90050000D01*
X74150000Y-90050000D02*
X69950000Y-90050000D01*
X74150000Y-92050000D02*
X77750000Y-88050000D01*
X74150000Y-88050000D02*
X77750000Y-88050000D01*
X77750000Y-88050000D02*
X77750000Y-92050000D01*
X77750000Y-92050000D02*
X74150000Y-92050000D01*
X74150000Y-92050000D02*
X74150000Y-88050000D01*
%TO.C,R7*%
X75597000Y-71160000D02*
X75597000Y-70830000D01*
X75597000Y-70830000D02*
X82137000Y-70830000D01*
X82137000Y-70830000D02*
X82137000Y-71160000D01*
X75597000Y-73240000D02*
X75597000Y-73570000D01*
X75597000Y-73570000D02*
X82137000Y-73570000D01*
X82137000Y-73570000D02*
X82137000Y-73240000D01*
%TO.C,R6*%
X77057000Y-77494000D02*
X77057000Y-77824000D01*
X77057000Y-77824000D02*
X70517000Y-77824000D01*
X70517000Y-77824000D02*
X70517000Y-77494000D01*
X77057000Y-75414000D02*
X77057000Y-75084000D01*
X77057000Y-75084000D02*
X70517000Y-75084000D01*
X70517000Y-75084000D02*
X70517000Y-75414000D01*
%TO.C,LED3*%
X72680000Y-73436000D02*
X72680000Y-73280000D01*
X72680000Y-71120000D02*
X72680000Y-70964000D01*
X70078870Y-71120163D02*
G75*
G02*
X72160961Y-71120000I1041130J-1079837D01*
G01*
X70078870Y-73279837D02*
G75*
G03*
X72160961Y-73280000I1041130J1079837D01*
G01*
X69447665Y-71121392D02*
G75*
G02*
X72680000Y-70964484I1672335J-1078608D01*
G01*
X69447665Y-73278608D02*
G75*
G03*
X72680000Y-73435516I1672335J1078608D01*
G01*
%TO.C,D3*%
X76507000Y-81223000D02*
X76507000Y-81353000D01*
X76507000Y-81353000D02*
X71067000Y-81353000D01*
X71067000Y-81353000D02*
X71067000Y-81223000D01*
X76507000Y-78543000D02*
X76507000Y-78413000D01*
X76507000Y-78413000D02*
X71067000Y-78413000D01*
X71067000Y-78413000D02*
X71067000Y-78543000D01*
X75607000Y-81353000D02*
X75607000Y-78413000D01*
X75487000Y-81353000D02*
X75487000Y-78413000D01*
X75727000Y-81353000D02*
X75727000Y-78413000D01*
%TO.C,S2*%
X88960000Y-112522000D02*
X99120000Y-112522000D01*
X88960000Y-104902000D02*
X88960000Y-112522000D01*
X99120000Y-104902000D02*
X88960000Y-104902000D01*
X99120000Y-112522000D02*
X99120000Y-104902000D01*
X99120000Y-111252000D02*
X88960000Y-111252000D01*
%TO.C,S1*%
X106960000Y-112522000D02*
X117120000Y-112522000D01*
X106960000Y-104902000D02*
X106960000Y-112522000D01*
X117120000Y-104902000D02*
X106960000Y-104902000D01*
X117120000Y-112522000D02*
X117120000Y-104902000D01*
X117120000Y-111252000D02*
X106960000Y-111252000D01*
%TO.C,S0*%
X130683000Y-100457000D02*
X130683000Y-90297000D01*
X123063000Y-100457000D02*
X130683000Y-100457000D01*
X123063000Y-90297000D02*
X123063000Y-100457000D01*
X130683000Y-90297000D02*
X123063000Y-90297000D01*
X129413000Y-90297000D02*
X129413000Y-100457000D01*
%TO.C,R5*%
X68358000Y-41937000D02*
X68358000Y-42267000D01*
X74898000Y-41937000D02*
X68358000Y-41937000D01*
X74898000Y-42267000D02*
X74898000Y-41937000D01*
X68358000Y-44677000D02*
X68358000Y-44347000D01*
X74898000Y-44677000D02*
X68358000Y-44677000D01*
X74898000Y-44347000D02*
X74898000Y-44677000D01*
%TO.C,D1*%
X112448000Y-81223000D02*
X112448000Y-81353000D01*
X112448000Y-81353000D02*
X107008000Y-81353000D01*
X107008000Y-81353000D02*
X107008000Y-81223000D01*
X112448000Y-78543000D02*
X112448000Y-78413000D01*
X112448000Y-78413000D02*
X107008000Y-78413000D01*
X107008000Y-78413000D02*
X107008000Y-78543000D01*
X111548000Y-81353000D02*
X111548000Y-78413000D01*
X111428000Y-81353000D02*
X111428000Y-78413000D01*
X111668000Y-81353000D02*
X111668000Y-78413000D01*
%TO.C,R4*%
X88424000Y-75084000D02*
X88424000Y-75414000D01*
X94964000Y-75084000D02*
X88424000Y-75084000D01*
X94964000Y-75414000D02*
X94964000Y-75084000D01*
X88424000Y-77824000D02*
X88424000Y-77494000D01*
X94964000Y-77824000D02*
X88424000Y-77824000D01*
X94964000Y-77494000D02*
X94964000Y-77824000D01*
%TO.C,R3*%
X100298000Y-73570000D02*
X100298000Y-73240000D01*
X93758000Y-73570000D02*
X100298000Y-73570000D01*
X93758000Y-73240000D02*
X93758000Y-73570000D01*
X100298000Y-70830000D02*
X100298000Y-71160000D01*
X93758000Y-70830000D02*
X100298000Y-70830000D01*
X93758000Y-71160000D02*
X93758000Y-70830000D01*
%TO.C,R2*%
X106458000Y-75084000D02*
X106458000Y-75414000D01*
X112998000Y-75084000D02*
X106458000Y-75084000D01*
X112998000Y-75414000D02*
X112998000Y-75084000D01*
X106458000Y-77824000D02*
X106458000Y-77494000D01*
X112998000Y-77824000D02*
X106458000Y-77824000D01*
X112998000Y-77494000D02*
X112998000Y-77824000D01*
%TO.C,R1*%
X118459000Y-73570000D02*
X118459000Y-73240000D01*
X111919000Y-73570000D02*
X118459000Y-73570000D01*
X111919000Y-73240000D02*
X111919000Y-73570000D01*
X118459000Y-70830000D02*
X118459000Y-71160000D01*
X111919000Y-70830000D02*
X118459000Y-70830000D01*
X111919000Y-71160000D02*
X111919000Y-70830000D01*
%TO.C,C1*%
X50332000Y-53125000D02*
X50332000Y-53440000D01*
X50332000Y-50700000D02*
X50332000Y-51015000D01*
X45092000Y-53125000D02*
X45092000Y-53440000D01*
X45092000Y-50700000D02*
X45092000Y-51015000D01*
X45092000Y-53440000D02*
X50332000Y-53440000D01*
X45092000Y-50700000D02*
X50332000Y-50700000D01*
%TO.C,ALED1*%
X51402000Y-48470000D02*
X51402000Y-47320000D01*
X44102000Y-48470000D02*
X51402000Y-48470000D01*
X44102000Y-42970000D02*
X51402000Y-42970000D01*
%TO.C,RE1*%
X110800000Y-82600000D02*
X104200000Y-82600000D01*
X119800000Y-82600000D02*
X113200000Y-82600000D01*
X119800000Y-82600000D02*
X119800000Y-102400000D01*
X119800000Y-102400000D02*
X104200000Y-102400000D01*
X104200000Y-102400000D02*
X104200000Y-82600000D01*
X107800000Y-98150000D02*
X110250000Y-98150000D01*
X116200000Y-98150000D02*
X113700000Y-98150000D01*
X105950000Y-87550000D02*
X105950000Y-90050000D01*
X111950000Y-86650000D02*
X111950000Y-85850000D01*
X117950000Y-90050000D02*
X117950000Y-87550000D01*
X111950000Y-93450000D02*
X111950000Y-94950000D01*
X111950000Y-94950000D02*
X114450000Y-99550000D01*
X108350000Y-93450000D02*
X108350000Y-86650000D01*
X111950000Y-93450000D02*
X108350000Y-93450000D01*
X111950000Y-86650000D02*
X108350000Y-86650000D01*
X117950000Y-90050000D02*
X113750000Y-90050000D01*
X110150000Y-90050000D02*
X105950000Y-90050000D01*
X110150000Y-92050000D02*
X113750000Y-88050000D01*
X110150000Y-88050000D02*
X113750000Y-88050000D01*
X113750000Y-88050000D02*
X113750000Y-92050000D01*
X113750000Y-92050000D02*
X110150000Y-92050000D01*
X110150000Y-92050000D02*
X110150000Y-88050000D01*
%TO.C,RE2*%
X92800000Y-82600000D02*
X86200000Y-82600000D01*
X101800000Y-82600000D02*
X95200000Y-82600000D01*
X101800000Y-82600000D02*
X101800000Y-102400000D01*
X101800000Y-102400000D02*
X86200000Y-102400000D01*
X86200000Y-102400000D02*
X86200000Y-82600000D01*
X89800000Y-98150000D02*
X92250000Y-98150000D01*
X98200000Y-98150000D02*
X95700000Y-98150000D01*
X87950000Y-87550000D02*
X87950000Y-90050000D01*
X93950000Y-86650000D02*
X93950000Y-85850000D01*
X99950000Y-90050000D02*
X99950000Y-87550000D01*
X93950000Y-93450000D02*
X93950000Y-94950000D01*
X93950000Y-94950000D02*
X96450000Y-99550000D01*
X90350000Y-93450000D02*
X90350000Y-86650000D01*
X93950000Y-93450000D02*
X90350000Y-93450000D01*
X93950000Y-86650000D02*
X90350000Y-86650000D01*
X99950000Y-90050000D02*
X95750000Y-90050000D01*
X92150000Y-90050000D02*
X87950000Y-90050000D01*
X92150000Y-92050000D02*
X95750000Y-88050000D01*
X92150000Y-88050000D02*
X95750000Y-88050000D01*
X95750000Y-88050000D02*
X95750000Y-92050000D01*
X95750000Y-92050000D02*
X92150000Y-92050000D01*
X92150000Y-92050000D02*
X92150000Y-88050000D01*
%TO.C,LED2*%
X90841000Y-73436000D02*
X90841000Y-73280000D01*
X90841000Y-71120000D02*
X90841000Y-70964000D01*
X88239870Y-71120163D02*
G75*
G02*
X90321961Y-71120000I1041130J-1079837D01*
G01*
X88239870Y-73279837D02*
G75*
G03*
X90321961Y-73280000I1041130J1079837D01*
G01*
X87608665Y-71121392D02*
G75*
G02*
X90841000Y-70964484I1672335J-1078608D01*
G01*
X87608665Y-73278608D02*
G75*
G03*
X90841000Y-73435516I1672335J1078608D01*
G01*
%TO.C,LED1*%
X108748000Y-73436000D02*
X108748000Y-73280000D01*
X108748000Y-71120000D02*
X108748000Y-70964000D01*
X106146870Y-71120163D02*
G75*
G02*
X108228961Y-71120000I1041130J-1079837D01*
G01*
X106146870Y-73279837D02*
G75*
G03*
X108228961Y-73280000I1041130J1079837D01*
G01*
X105515665Y-71121392D02*
G75*
G02*
X108748000Y-70964484I1672335J-1078608D01*
G01*
X105515665Y-73278608D02*
G75*
G03*
X108748000Y-73435516I1672335J1078608D01*
G01*
%TO.C,D2*%
X94414000Y-81223000D02*
X94414000Y-81353000D01*
X94414000Y-81353000D02*
X88974000Y-81353000D01*
X88974000Y-81353000D02*
X88974000Y-81223000D01*
X94414000Y-78543000D02*
X94414000Y-78413000D01*
X94414000Y-78413000D02*
X88974000Y-78413000D01*
X88974000Y-78413000D02*
X88974000Y-78543000D01*
X93514000Y-81353000D02*
X93514000Y-78413000D01*
X93394000Y-81353000D02*
X93394000Y-78413000D01*
X93634000Y-81353000D02*
X93634000Y-78413000D01*
%TO.C,i2c2*%
X55860000Y-47324000D02*
X55860000Y-53294000D01*
X55860000Y-53294000D02*
X68480000Y-53294000D01*
X68480000Y-53294000D02*
X68480000Y-47324000D01*
X68480000Y-47324000D02*
X55860000Y-47324000D01*
X59170000Y-47334000D02*
X59170000Y-48084000D01*
X59170000Y-48084000D02*
X65170000Y-48084000D01*
X65170000Y-48084000D02*
X65170000Y-47334000D01*
X65170000Y-47334000D02*
X59170000Y-47334000D01*
X55870000Y-47334000D02*
X55870000Y-48084000D01*
X55870000Y-48084000D02*
X57670000Y-48084000D01*
X57670000Y-48084000D02*
X57670000Y-47334000D01*
X57670000Y-47334000D02*
X55870000Y-47334000D01*
X66670000Y-47334000D02*
X66670000Y-48084000D01*
X66670000Y-48084000D02*
X68470000Y-48084000D01*
X68470000Y-48084000D02*
X68470000Y-47334000D01*
X68470000Y-47334000D02*
X66670000Y-47334000D01*
X55870000Y-49584000D02*
X56620000Y-49584000D01*
X56620000Y-49584000D02*
X56620000Y-50924000D01*
X62170000Y-52534000D02*
X57680000Y-52534000D01*
X68470000Y-49584000D02*
X67720000Y-49584000D01*
X67720000Y-49584000D02*
X67720000Y-52534000D01*
X67720000Y-52534000D02*
X62170000Y-52534000D01*
X56820000Y-47034000D02*
X55570000Y-47034000D01*
X55570000Y-47034000D02*
X55570000Y-48284000D01*
%TO.C,HT1*%
X120860000Y-25815000D02*
X119610000Y-25815000D01*
X120860000Y-27065000D02*
X120860000Y-25815000D01*
X115360000Y-35465000D02*
X115360000Y-31165000D01*
X118310000Y-35465000D02*
X115360000Y-35465000D01*
X118310000Y-36215000D02*
X118310000Y-35465000D01*
X115360000Y-31165000D02*
X115360000Y-27925000D01*
X118310000Y-26865000D02*
X116970000Y-26865000D01*
X118310000Y-26115000D02*
X118310000Y-26865000D01*
X120560000Y-36215000D02*
X120560000Y-34415000D01*
X119810000Y-36215000D02*
X120560000Y-36215000D01*
X119810000Y-34415000D02*
X119810000Y-36215000D01*
X120560000Y-34415000D02*
X119810000Y-34415000D01*
X120560000Y-27915000D02*
X120560000Y-26115000D01*
X119810000Y-27915000D02*
X120560000Y-27915000D01*
X119810000Y-26115000D02*
X119810000Y-27915000D01*
X120560000Y-26115000D02*
X119810000Y-26115000D01*
X120560000Y-32915000D02*
X120560000Y-29415000D01*
X119810000Y-32915000D02*
X120560000Y-32915000D01*
X119810000Y-29415000D02*
X119810000Y-32915000D01*
X120560000Y-29415000D02*
X119810000Y-29415000D01*
X120570000Y-36225000D02*
X120570000Y-26105000D01*
X114600000Y-36225000D02*
X120570000Y-36225000D01*
X114600000Y-26105000D02*
X114600000Y-36225000D01*
X120570000Y-26105000D02*
X114600000Y-26105000D01*
%TO.C,HT2*%
X111335000Y-25815000D02*
X110085000Y-25815000D01*
X111335000Y-27065000D02*
X111335000Y-25815000D01*
X105835000Y-35465000D02*
X105835000Y-31165000D01*
X108785000Y-35465000D02*
X105835000Y-35465000D01*
X108785000Y-36215000D02*
X108785000Y-35465000D01*
X105835000Y-31165000D02*
X105835000Y-27925000D01*
X108785000Y-26865000D02*
X107445000Y-26865000D01*
X108785000Y-26115000D02*
X108785000Y-26865000D01*
X111035000Y-36215000D02*
X111035000Y-34415000D01*
X110285000Y-36215000D02*
X111035000Y-36215000D01*
X110285000Y-34415000D02*
X110285000Y-36215000D01*
X111035000Y-34415000D02*
X110285000Y-34415000D01*
X111035000Y-27915000D02*
X111035000Y-26115000D01*
X110285000Y-27915000D02*
X111035000Y-27915000D01*
X110285000Y-26115000D02*
X110285000Y-27915000D01*
X111035000Y-26115000D02*
X110285000Y-26115000D01*
X111035000Y-32915000D02*
X111035000Y-29415000D01*
X110285000Y-32915000D02*
X111035000Y-32915000D01*
X110285000Y-29415000D02*
X110285000Y-32915000D01*
X111035000Y-29415000D02*
X110285000Y-29415000D01*
X111045000Y-36225000D02*
X111045000Y-26105000D01*
X105075000Y-36225000D02*
X111045000Y-36225000D01*
X105075000Y-26105000D02*
X105075000Y-36225000D01*
X111045000Y-26105000D02*
X105075000Y-26105000D01*
%TO.C,HT6*%
X73235000Y-25815000D02*
X71985000Y-25815000D01*
X73235000Y-27065000D02*
X73235000Y-25815000D01*
X67735000Y-35465000D02*
X67735000Y-31165000D01*
X70685000Y-35465000D02*
X67735000Y-35465000D01*
X70685000Y-36215000D02*
X70685000Y-35465000D01*
X67735000Y-31165000D02*
X67735000Y-27925000D01*
X70685000Y-26865000D02*
X69345000Y-26865000D01*
X70685000Y-26115000D02*
X70685000Y-26865000D01*
X72935000Y-36215000D02*
X72935000Y-34415000D01*
X72185000Y-36215000D02*
X72935000Y-36215000D01*
X72185000Y-34415000D02*
X72185000Y-36215000D01*
X72935000Y-34415000D02*
X72185000Y-34415000D01*
X72935000Y-27915000D02*
X72935000Y-26115000D01*
X72185000Y-27915000D02*
X72935000Y-27915000D01*
X72185000Y-26115000D02*
X72185000Y-27915000D01*
X72935000Y-26115000D02*
X72185000Y-26115000D01*
X72935000Y-32915000D02*
X72935000Y-29415000D01*
X72185000Y-32915000D02*
X72935000Y-32915000D01*
X72185000Y-29415000D02*
X72185000Y-32915000D01*
X72935000Y-29415000D02*
X72185000Y-29415000D01*
X72945000Y-36225000D02*
X72945000Y-26105000D01*
X66975000Y-36225000D02*
X72945000Y-36225000D01*
X66975000Y-26105000D02*
X66975000Y-36225000D01*
X72945000Y-26105000D02*
X66975000Y-26105000D01*
%TO.C,HT5*%
X82760000Y-25815000D02*
X81510000Y-25815000D01*
X82760000Y-27065000D02*
X82760000Y-25815000D01*
X77260000Y-35465000D02*
X77260000Y-31165000D01*
X80210000Y-35465000D02*
X77260000Y-35465000D01*
X80210000Y-36215000D02*
X80210000Y-35465000D01*
X77260000Y-31165000D02*
X77260000Y-27925000D01*
X80210000Y-26865000D02*
X78870000Y-26865000D01*
X80210000Y-26115000D02*
X80210000Y-26865000D01*
X82460000Y-36215000D02*
X82460000Y-34415000D01*
X81710000Y-36215000D02*
X82460000Y-36215000D01*
X81710000Y-34415000D02*
X81710000Y-36215000D01*
X82460000Y-34415000D02*
X81710000Y-34415000D01*
X82460000Y-27915000D02*
X82460000Y-26115000D01*
X81710000Y-27915000D02*
X82460000Y-27915000D01*
X81710000Y-26115000D02*
X81710000Y-27915000D01*
X82460000Y-26115000D02*
X81710000Y-26115000D01*
X82460000Y-32915000D02*
X82460000Y-29415000D01*
X81710000Y-32915000D02*
X82460000Y-32915000D01*
X81710000Y-29415000D02*
X81710000Y-32915000D01*
X82460000Y-29415000D02*
X81710000Y-29415000D01*
X82470000Y-36225000D02*
X82470000Y-26105000D01*
X76500000Y-36225000D02*
X82470000Y-36225000D01*
X76500000Y-26105000D02*
X76500000Y-36225000D01*
X82470000Y-26105000D02*
X76500000Y-26105000D01*
%TO.C,HT4*%
X92285000Y-25815000D02*
X91035000Y-25815000D01*
X92285000Y-27065000D02*
X92285000Y-25815000D01*
X86785000Y-35465000D02*
X86785000Y-31165000D01*
X89735000Y-35465000D02*
X86785000Y-35465000D01*
X89735000Y-36215000D02*
X89735000Y-35465000D01*
X86785000Y-31165000D02*
X86785000Y-27925000D01*
X89735000Y-26865000D02*
X88395000Y-26865000D01*
X89735000Y-26115000D02*
X89735000Y-26865000D01*
X91985000Y-36215000D02*
X91985000Y-34415000D01*
X91235000Y-36215000D02*
X91985000Y-36215000D01*
X91235000Y-34415000D02*
X91235000Y-36215000D01*
X91985000Y-34415000D02*
X91235000Y-34415000D01*
X91985000Y-27915000D02*
X91985000Y-26115000D01*
X91235000Y-27915000D02*
X91985000Y-27915000D01*
X91235000Y-26115000D02*
X91235000Y-27915000D01*
X91985000Y-26115000D02*
X91235000Y-26115000D01*
X91985000Y-32915000D02*
X91985000Y-29415000D01*
X91235000Y-32915000D02*
X91985000Y-32915000D01*
X91235000Y-29415000D02*
X91235000Y-32915000D01*
X91985000Y-29415000D02*
X91235000Y-29415000D01*
X91995000Y-36225000D02*
X91995000Y-26105000D01*
X86025000Y-36225000D02*
X91995000Y-36225000D01*
X86025000Y-26105000D02*
X86025000Y-36225000D01*
X91995000Y-26105000D02*
X86025000Y-26105000D01*
%TO.C,HT3*%
X101810000Y-25815000D02*
X100560000Y-25815000D01*
X101810000Y-27065000D02*
X101810000Y-25815000D01*
X96310000Y-35465000D02*
X96310000Y-31165000D01*
X99260000Y-35465000D02*
X96310000Y-35465000D01*
X99260000Y-36215000D02*
X99260000Y-35465000D01*
X96310000Y-31165000D02*
X96310000Y-27925000D01*
X99260000Y-26865000D02*
X97920000Y-26865000D01*
X99260000Y-26115000D02*
X99260000Y-26865000D01*
X101510000Y-36215000D02*
X101510000Y-34415000D01*
X100760000Y-36215000D02*
X101510000Y-36215000D01*
X100760000Y-34415000D02*
X100760000Y-36215000D01*
X101510000Y-34415000D02*
X100760000Y-34415000D01*
X101510000Y-27915000D02*
X101510000Y-26115000D01*
X100760000Y-27915000D02*
X101510000Y-27915000D01*
X100760000Y-26115000D02*
X100760000Y-27915000D01*
X101510000Y-26115000D02*
X100760000Y-26115000D01*
X101510000Y-32915000D02*
X101510000Y-29415000D01*
X100760000Y-32915000D02*
X101510000Y-32915000D01*
X100760000Y-29415000D02*
X100760000Y-32915000D01*
X101510000Y-29415000D02*
X100760000Y-29415000D01*
X101520000Y-36225000D02*
X101520000Y-26105000D01*
X95550000Y-36225000D02*
X101520000Y-36225000D01*
X95550000Y-26105000D02*
X95550000Y-36225000D01*
X101520000Y-26105000D02*
X95550000Y-26105000D01*
%TO.C,esp32-left1*%
X127020000Y-39564000D02*
X127020000Y-40894000D01*
X125690000Y-39564000D02*
X127020000Y-39564000D01*
X124420000Y-39564000D02*
X124420000Y-42224000D01*
X124420000Y-42224000D02*
X78640000Y-42224000D01*
X124420000Y-39564000D02*
X78640000Y-39564000D01*
X78640000Y-39564000D02*
X78640000Y-42224000D01*
D14*
%TO.C,G\u002A\u002A\u002A*%
G36*
X56419782Y-26384296D02*
G01*
X56542233Y-26495836D01*
X56624247Y-26641497D01*
X56642000Y-26739736D01*
X56622688Y-26925396D01*
X56553216Y-27047486D01*
X56435166Y-27129078D01*
X56282474Y-27191200D01*
X56160405Y-27189076D01*
X56057800Y-27144739D01*
X55901305Y-27007611D01*
X55828594Y-26823809D01*
X55846361Y-26612839D01*
X55860756Y-26570675D01*
X55936961Y-26480707D01*
X56071188Y-26398435D01*
X56221019Y-26346878D01*
X56286186Y-26339800D01*
X56419782Y-26384296D01*
G37*
X56419782Y-26384296D02*
X56542233Y-26495836D01*
X56624247Y-26641497D01*
X56642000Y-26739736D01*
X56622688Y-26925396D01*
X56553216Y-27047486D01*
X56435166Y-27129078D01*
X56282474Y-27191200D01*
X56160405Y-27189076D01*
X56057800Y-27144739D01*
X55901305Y-27007611D01*
X55828594Y-26823809D01*
X55846361Y-26612839D01*
X55860756Y-26570675D01*
X55936961Y-26480707D01*
X56071188Y-26398435D01*
X56221019Y-26346878D01*
X56286186Y-26339800D01*
X56419782Y-26384296D01*
G36*
X56764426Y-23952879D02*
G01*
X58242200Y-23953559D01*
X58657545Y-24098141D01*
X59143231Y-24318428D01*
X59577182Y-24618222D01*
X59949438Y-24986671D01*
X60250040Y-25412925D01*
X60469029Y-25886133D01*
X60550674Y-26160805D01*
X60584685Y-26376477D01*
X60603191Y-26652108D01*
X60605995Y-26949216D01*
X60592902Y-27229316D01*
X60563718Y-27453926D01*
X60557387Y-27482800D01*
X60531349Y-27604010D01*
X60534737Y-27640070D01*
X60569953Y-27603771D01*
X60578065Y-27592962D01*
X60620151Y-27515718D01*
X60663665Y-27389028D01*
X60713128Y-27196966D01*
X60773063Y-26923604D01*
X60786444Y-26859042D01*
X60854843Y-26748407D01*
X60988018Y-26659368D01*
X61149210Y-26609900D01*
X61287520Y-26613988D01*
X61410122Y-26684620D01*
X61520325Y-26813729D01*
X61524825Y-26821205D01*
X61673022Y-26984798D01*
X61804749Y-27053161D01*
X61978671Y-27155797D01*
X62083579Y-27312116D01*
X62107098Y-27497013D01*
X62078304Y-27608098D01*
X62009581Y-27733468D01*
X61912113Y-27812690D01*
X61756585Y-27864866D01*
X61651542Y-27886120D01*
X61536329Y-27920776D01*
X61419822Y-27991127D01*
X61280897Y-28112700D01*
X61123429Y-28274273D01*
X60770478Y-28592535D01*
X60398366Y-28817379D01*
X60013402Y-28945198D01*
X59922443Y-28960669D01*
X59639732Y-29047259D01*
X59445777Y-29168490D01*
X58999737Y-29447689D01*
X58514391Y-29633607D01*
X58004116Y-29725821D01*
X57658000Y-29757989D01*
X57658000Y-32681700D01*
X59956700Y-32701994D01*
X60524087Y-32707122D01*
X61000416Y-32712410D01*
X61396224Y-32719046D01*
X61722048Y-32728216D01*
X61988424Y-32741106D01*
X62205889Y-32758902D01*
X62384980Y-32782791D01*
X62536233Y-32813959D01*
X62670186Y-32853592D01*
X62797375Y-32902876D01*
X62928337Y-32962998D01*
X63073608Y-33035144D01*
X63119000Y-33058022D01*
X63383779Y-33224915D01*
X63664502Y-33457867D01*
X63935139Y-33730410D01*
X64169663Y-34016079D01*
X64342043Y-34288407D01*
X64355600Y-34315400D01*
X64539016Y-34791959D01*
X64640179Y-35289530D01*
X64656228Y-35785184D01*
X64593216Y-36220400D01*
X64554141Y-36386854D01*
X64526763Y-36512276D01*
X64517809Y-36563300D01*
X64564797Y-36577397D01*
X64694764Y-36589253D01*
X64889092Y-36597791D01*
X65129168Y-36601933D01*
X65189100Y-36602150D01*
X65565110Y-36610647D01*
X65891911Y-36634048D01*
X66146016Y-36670533D01*
X66187161Y-36679501D01*
X66662798Y-36842081D01*
X67107481Y-37091759D01*
X67507477Y-37415503D01*
X67849052Y-37800282D01*
X68118471Y-38233064D01*
X68296224Y-38680720D01*
X68351995Y-38965331D01*
X68378025Y-39309355D01*
X68375064Y-39676345D01*
X68343860Y-40029853D01*
X68285162Y-40333429D01*
X68260606Y-40414337D01*
X68045448Y-40898646D01*
X67752193Y-41333235D01*
X67392047Y-41707468D01*
X66976218Y-42010706D01*
X66515913Y-42232311D01*
X66261267Y-42312122D01*
X66217345Y-42321574D01*
X66159186Y-42330258D01*
X66082629Y-42338202D01*
X65983517Y-42345436D01*
X65857690Y-42351990D01*
X65700990Y-42357894D01*
X65509257Y-42363177D01*
X65278334Y-42367869D01*
X65004061Y-42372000D01*
X64682279Y-42375598D01*
X64308830Y-42378694D01*
X63879555Y-42381318D01*
X63390295Y-42383498D01*
X62836891Y-42385264D01*
X62215184Y-42386647D01*
X61521016Y-42387675D01*
X60750228Y-42388379D01*
X59898660Y-42388787D01*
X58962155Y-42388930D01*
X57936553Y-42388837D01*
X56817696Y-42388537D01*
X55601424Y-42388061D01*
X55593267Y-42388057D01*
X54335764Y-42387388D01*
X53176290Y-42386512D01*
X52111275Y-42385406D01*
X51137147Y-42384047D01*
X50250336Y-42382412D01*
X49447270Y-42380477D01*
X48724380Y-42378219D01*
X48078094Y-42375615D01*
X47504841Y-42372641D01*
X47001051Y-42369275D01*
X46563153Y-42365493D01*
X46187576Y-42361272D01*
X45870749Y-42356589D01*
X45609102Y-42351420D01*
X45399064Y-42345742D01*
X45237063Y-42339532D01*
X45119529Y-42332767D01*
X45042892Y-42325423D01*
X45008800Y-42319164D01*
X44521050Y-42132324D01*
X44072037Y-41862960D01*
X43675012Y-41523275D01*
X43343226Y-41125475D01*
X43089932Y-40681765D01*
X43006836Y-40475341D01*
X42932042Y-40193413D01*
X42880460Y-39859445D01*
X42864956Y-39632714D01*
X43712108Y-39632714D01*
X43781355Y-40044780D01*
X43935920Y-40433357D01*
X44167688Y-40785001D01*
X44468548Y-41086268D01*
X44830385Y-41323716D01*
X45076305Y-41431017D01*
X45109503Y-41442068D01*
X45148119Y-41452216D01*
X45196361Y-41461497D01*
X45258438Y-41469942D01*
X45338557Y-41477586D01*
X45440929Y-41484460D01*
X45569760Y-41490599D01*
X45729260Y-41496036D01*
X45923637Y-41500803D01*
X46157099Y-41504933D01*
X46433854Y-41508461D01*
X46758112Y-41511419D01*
X47134081Y-41513840D01*
X47565968Y-41515757D01*
X48057984Y-41517204D01*
X48614335Y-41518213D01*
X49239230Y-41518818D01*
X49936879Y-41519053D01*
X50711488Y-41518949D01*
X51567268Y-41518541D01*
X52508425Y-41517861D01*
X53539170Y-41516942D01*
X54663709Y-41515819D01*
X55702200Y-41514721D01*
X66065400Y-41503600D01*
X66355877Y-41367453D01*
X66731378Y-41138858D01*
X67045463Y-40841122D01*
X67290367Y-40488782D01*
X67458323Y-40096380D01*
X67541568Y-39678453D01*
X67532334Y-39249541D01*
X67522237Y-39183662D01*
X67398179Y-38736230D01*
X67190586Y-38345777D01*
X66902114Y-38015878D01*
X66535417Y-37750109D01*
X66407755Y-37682035D01*
X66242592Y-37602385D01*
X66109629Y-37547931D01*
X65981814Y-37513183D01*
X65832090Y-37492652D01*
X65633405Y-37480850D01*
X65376252Y-37472767D01*
X64732357Y-37455135D01*
X64700381Y-37625167D01*
X64601176Y-37936908D01*
X64427197Y-38264702D01*
X64197057Y-38584583D01*
X63929368Y-38872584D01*
X63642743Y-39104740D01*
X63473170Y-39205367D01*
X62998800Y-39392547D01*
X62509659Y-39485638D01*
X62019092Y-39484652D01*
X61540445Y-39389602D01*
X61092120Y-39203228D01*
X60767527Y-38980370D01*
X60463065Y-38682042D01*
X60199264Y-38334375D01*
X59996659Y-37963498D01*
X59895897Y-37680900D01*
X59863337Y-37558458D01*
X60762596Y-37558458D01*
X60813257Y-37679217D01*
X60900673Y-37832130D01*
X61010525Y-37994397D01*
X61128492Y-38143216D01*
X61240257Y-38255786D01*
X61244437Y-38259246D01*
X61527318Y-38454810D01*
X61814604Y-38570952D01*
X62138141Y-38617926D01*
X62357000Y-38617431D01*
X62638096Y-38592987D01*
X62851991Y-38542834D01*
X62981589Y-38487570D01*
X63309571Y-38269565D01*
X63577208Y-37992031D01*
X63727072Y-37753815D01*
X63858358Y-37490400D01*
X62325268Y-37476943D01*
X61940618Y-37474506D01*
X61589393Y-37474082D01*
X61284288Y-37475542D01*
X61037997Y-37478759D01*
X60863215Y-37483606D01*
X60772638Y-37489954D01*
X60763010Y-37492656D01*
X60762596Y-37558458D01*
X59863337Y-37558458D01*
X59838483Y-37465000D01*
X58076461Y-37465000D01*
X58017331Y-37699825D01*
X57861415Y-38118108D01*
X57618855Y-38505037D01*
X57303048Y-38846997D01*
X56927391Y-39130375D01*
X56505279Y-39341555D01*
X56348213Y-39396149D01*
X55908513Y-39483040D01*
X55443781Y-39487805D01*
X54983378Y-39413342D01*
X54556669Y-39262552D01*
X54450386Y-39208771D01*
X54084070Y-38956799D01*
X53756599Y-38629646D01*
X53487131Y-38251045D01*
X53294824Y-37844733D01*
X53258132Y-37731700D01*
X53188452Y-37492656D01*
X54108210Y-37492656D01*
X54108637Y-37557463D01*
X54158928Y-37677969D01*
X54244880Y-37831017D01*
X54352292Y-37993452D01*
X54466958Y-38142119D01*
X54574678Y-38253861D01*
X54575585Y-38254639D01*
X54863715Y-38455175D01*
X55173940Y-38574012D01*
X55529918Y-38618762D01*
X55702200Y-38617153D01*
X55982364Y-38593065D01*
X56195470Y-38543442D01*
X56326789Y-38487570D01*
X56654771Y-38269565D01*
X56922408Y-37992031D01*
X57072272Y-37753815D01*
X57203558Y-37490400D01*
X55670468Y-37476943D01*
X55285818Y-37474506D01*
X54934593Y-37474082D01*
X54629488Y-37475542D01*
X54383197Y-37478759D01*
X54208415Y-37483606D01*
X54117838Y-37489954D01*
X54108210Y-37492656D01*
X53188452Y-37492656D01*
X53180390Y-37465000D01*
X51430508Y-37465000D01*
X51341329Y-37754610D01*
X51152740Y-38202944D01*
X50885245Y-38598747D01*
X50550506Y-38933335D01*
X50160182Y-39198023D01*
X49725931Y-39384129D01*
X49259415Y-39482967D01*
X49001921Y-39497000D01*
X48491613Y-39449630D01*
X48020614Y-39311251D01*
X47596761Y-39087454D01*
X47227890Y-38783831D01*
X46921838Y-38405976D01*
X46686441Y-37959479D01*
X46627050Y-37802243D01*
X46519665Y-37490400D01*
X47402170Y-37490400D01*
X47527498Y-37744400D01*
X47715728Y-38029720D01*
X47972033Y-38284284D01*
X48264289Y-38478374D01*
X48375989Y-38529262D01*
X48651203Y-38600702D01*
X48967182Y-38624244D01*
X49285483Y-38601125D01*
X49567662Y-38532581D01*
X49671989Y-38487570D01*
X50000002Y-38269538D01*
X50267681Y-37991952D01*
X50417514Y-37753815D01*
X50548843Y-37490400D01*
X49760021Y-37476410D01*
X49395992Y-37472111D01*
X48981312Y-37470639D01*
X48566021Y-37471993D01*
X48200160Y-37476173D01*
X48186685Y-37476410D01*
X47402170Y-37490400D01*
X46519665Y-37490400D01*
X46507400Y-37454783D01*
X45868063Y-37474200D01*
X45595774Y-37484068D01*
X45398503Y-37497692D01*
X45249674Y-37520134D01*
X45122715Y-37556456D01*
X44991050Y-37611720D01*
X44889541Y-37660598D01*
X44495627Y-37908206D01*
X44175083Y-38224319D01*
X43932745Y-38602438D01*
X43773447Y-39036066D01*
X43736290Y-39210602D01*
X43712108Y-39632714D01*
X42864956Y-39632714D01*
X42857344Y-39521399D01*
X42867946Y-39227233D01*
X42869080Y-39217600D01*
X42884866Y-39032505D01*
X42872007Y-38891899D01*
X42821765Y-38745967D01*
X42765136Y-38625098D01*
X42682204Y-38432218D01*
X42593571Y-38188998D01*
X42516770Y-37944006D01*
X42508388Y-37913898D01*
X42475638Y-37788837D01*
X42449704Y-37670988D01*
X42429796Y-37546701D01*
X42415123Y-37402326D01*
X42404894Y-37224212D01*
X42398318Y-36998710D01*
X42394604Y-36712168D01*
X42392962Y-36350937D01*
X42392600Y-35915600D01*
X42392600Y-35190590D01*
X43238779Y-35190590D01*
X43239473Y-35612739D01*
X43246055Y-36095702D01*
X43256156Y-36579249D01*
X43267638Y-36968741D01*
X43281055Y-37271720D01*
X43296961Y-37495727D01*
X43315912Y-37648305D01*
X43338462Y-37736995D01*
X43365167Y-37769338D01*
X43369223Y-37769800D01*
X43414244Y-37736210D01*
X43510499Y-37647386D01*
X43638713Y-37521247D01*
X43663029Y-37496643D01*
X43851622Y-37323709D01*
X44070869Y-37149530D01*
X44241728Y-37032222D01*
X44551599Y-36840958D01*
X44551410Y-35692479D01*
X44550702Y-35317499D01*
X44548006Y-35029939D01*
X44542247Y-34815622D01*
X44532354Y-34660374D01*
X44517254Y-34550019D01*
X44495875Y-34470379D01*
X44467143Y-34407280D01*
X44452235Y-34381660D01*
X44300328Y-34191309D01*
X44121026Y-34090961D01*
X43891438Y-34069120D01*
X43837916Y-34073118D01*
X43585960Y-34136230D01*
X43403526Y-34272516D01*
X43286188Y-34485478D01*
X43275819Y-34517860D01*
X43256972Y-34642105D01*
X43244619Y-34866697D01*
X43238779Y-35190590D01*
X42392600Y-35190590D01*
X42392600Y-34340800D01*
X42535152Y-34050506D01*
X42750502Y-33718499D01*
X43028470Y-33462884D01*
X43359301Y-33289796D01*
X43733238Y-33205371D01*
X43891199Y-33197800D01*
X44277254Y-33246213D01*
X44629654Y-33386349D01*
X44935879Y-33610553D01*
X45183404Y-33911170D01*
X45252126Y-34029733D01*
X45296169Y-34116089D01*
X45329808Y-34195935D01*
X45354689Y-34284400D01*
X45372460Y-34396611D01*
X45384768Y-34547696D01*
X45393259Y-34752783D01*
X45399580Y-35026998D01*
X45405379Y-35385471D01*
X45406280Y-35445700D01*
X45423515Y-36601400D01*
X46747844Y-36601400D01*
X46718057Y-36461700D01*
X46694522Y-36339702D01*
X46662298Y-36158228D01*
X46630867Y-35971653D01*
X46610532Y-35629576D01*
X47463745Y-35629576D01*
X47499921Y-35993984D01*
X47594060Y-36342415D01*
X47621375Y-36410900D01*
X47702563Y-36601400D01*
X63548190Y-36601400D01*
X63618878Y-36461700D01*
X63740454Y-36119109D01*
X63790407Y-35730340D01*
X63768222Y-35321782D01*
X63673384Y-34919824D01*
X63650260Y-34854742D01*
X63498986Y-34563206D01*
X63275730Y-34275980D01*
X63007253Y-34021299D01*
X62720315Y-33827400D01*
X62638194Y-33786894D01*
X62304948Y-33667545D01*
X61939445Y-33585773D01*
X61596778Y-33553767D01*
X61584258Y-33553694D01*
X61479474Y-33563236D01*
X61419485Y-33610529D01*
X61376397Y-33722834D01*
X61363653Y-33769300D01*
X61230719Y-34125753D01*
X61029889Y-34485277D01*
X60785348Y-34808003D01*
X60648353Y-34948585D01*
X60257109Y-35247029D01*
X59833552Y-35456637D01*
X59389637Y-35579555D01*
X58937322Y-35617925D01*
X58488561Y-35573892D01*
X58055309Y-35449600D01*
X57649524Y-35247193D01*
X57283160Y-34968815D01*
X56968172Y-34616611D01*
X56743479Y-34248309D01*
X56657237Y-34055663D01*
X56589046Y-33867073D01*
X56558099Y-33745289D01*
X56527415Y-33553400D01*
X57397153Y-33553400D01*
X57431251Y-33667700D01*
X57578883Y-33994417D01*
X57802739Y-34272047D01*
X58086490Y-34493407D01*
X58413805Y-34651315D01*
X58768354Y-34738589D01*
X59133807Y-34748046D01*
X59493833Y-34672506D01*
X59611358Y-34626513D01*
X59861130Y-34479728D01*
X60101359Y-34275576D01*
X60299401Y-34045008D01*
X60396694Y-33881836D01*
X60458815Y-33739893D01*
X60497010Y-33633763D01*
X60502800Y-33604753D01*
X60452398Y-33588453D01*
X60302706Y-33575164D01*
X60055988Y-33564959D01*
X59714511Y-33557915D01*
X59280541Y-33554105D01*
X58949976Y-33553400D01*
X57397153Y-33553400D01*
X56527415Y-33553400D01*
X56527048Y-33551110D01*
X55634254Y-33564955D01*
X54741461Y-33578800D01*
X54701881Y-33769507D01*
X54576224Y-34144239D01*
X54365099Y-34508988D01*
X54084391Y-34846691D01*
X53749986Y-35140287D01*
X53377769Y-35372714D01*
X53098768Y-35491412D01*
X52750650Y-35574652D01*
X52361109Y-35608761D01*
X51968837Y-35593689D01*
X51612526Y-35529388D01*
X51498564Y-35493476D01*
X51045031Y-35277622D01*
X50648609Y-34983600D01*
X50318960Y-34621462D01*
X50065749Y-34201257D01*
X49936217Y-33868477D01*
X49881410Y-33713957D01*
X49817674Y-33615771D01*
X49799860Y-33606223D01*
X50749200Y-33606223D01*
X50770780Y-33680674D01*
X50825103Y-33805880D01*
X50853000Y-33862512D01*
X51076587Y-34197131D01*
X51361956Y-34459520D01*
X51695206Y-34643378D01*
X52062437Y-34742403D01*
X52449747Y-34750294D01*
X52707343Y-34703127D01*
X52940757Y-34631153D01*
X53120266Y-34545288D01*
X53292541Y-34420170D01*
X53399240Y-34327130D01*
X53520659Y-34195733D01*
X53644410Y-34027389D01*
X53752238Y-33851432D01*
X53825893Y-33697200D01*
X53848000Y-33605888D01*
X53797240Y-33588623D01*
X53645005Y-33574786D01*
X53391363Y-33564382D01*
X53036382Y-33557412D01*
X52580128Y-33553878D01*
X52298600Y-33553400D01*
X51791354Y-33555078D01*
X51385063Y-33560126D01*
X51079138Y-33568564D01*
X50872988Y-33580411D01*
X50766025Y-33595689D01*
X50749200Y-33606223D01*
X49799860Y-33606223D01*
X49724635Y-33565906D01*
X49581919Y-33556347D01*
X49369150Y-33579082D01*
X49247039Y-33597415D01*
X48796178Y-33715851D01*
X48396618Y-33918511D01*
X48056268Y-34197754D01*
X47783033Y-34545940D01*
X47584821Y-34955425D01*
X47490848Y-35294654D01*
X47463745Y-35629576D01*
X46610532Y-35629576D01*
X46602482Y-35494170D01*
X46666821Y-35013839D01*
X46816466Y-34544967D01*
X47043999Y-34101863D01*
X47342002Y-33698833D01*
X47703059Y-33350184D01*
X48119751Y-33070224D01*
X48141080Y-33058730D01*
X48318586Y-32967937D01*
X48483561Y-32895102D01*
X48650410Y-32838009D01*
X48833537Y-32794444D01*
X49047346Y-32762192D01*
X49306243Y-32739040D01*
X49624633Y-32722773D01*
X50016919Y-32711177D01*
X50457100Y-32702703D01*
X51866800Y-32679261D01*
X51866800Y-32614741D01*
X52730400Y-32614741D01*
X52743830Y-32637255D01*
X52791155Y-32655186D01*
X52882931Y-32669210D01*
X53029709Y-32680003D01*
X53242044Y-32688238D01*
X53530490Y-32694592D01*
X53905600Y-32699740D01*
X54089300Y-32701683D01*
X54752719Y-32706558D01*
X55326297Y-32707133D01*
X55808226Y-32703451D01*
X56196701Y-32695557D01*
X56489917Y-32683493D01*
X56686067Y-32667304D01*
X56783346Y-32647034D01*
X56794400Y-32636175D01*
X56746592Y-32616503D01*
X56615068Y-32600987D01*
X56417674Y-32591094D01*
X56210200Y-32588200D01*
X55626000Y-32588200D01*
X55626000Y-31724600D01*
X56794400Y-31724600D01*
X56794400Y-31419800D01*
X55626000Y-31419800D01*
X55626000Y-30556200D01*
X56794400Y-30556200D01*
X56794400Y-30251400D01*
X55626000Y-30251400D01*
X55626000Y-29387800D01*
X56786327Y-29387800D01*
X56818643Y-29240667D01*
X56861090Y-29109049D01*
X56932185Y-29015073D01*
X57048301Y-28951352D01*
X57225815Y-28910497D01*
X57481102Y-28885120D01*
X57625095Y-28876813D01*
X57984865Y-28846896D01*
X58278572Y-28797971D01*
X58497254Y-28732654D01*
X58631952Y-28653562D01*
X58674000Y-28570488D01*
X58718204Y-28371710D01*
X58847462Y-28224283D01*
X59056743Y-28132577D01*
X59207400Y-28107153D01*
X59294272Y-28087248D01*
X59365338Y-28033409D01*
X59439549Y-27925093D01*
X59525623Y-27762200D01*
X59691428Y-27338334D01*
X59758725Y-26918193D01*
X59736216Y-26530792D01*
X59619223Y-26103133D01*
X59413946Y-25710961D01*
X59131671Y-25369545D01*
X58783682Y-25094154D01*
X58597800Y-24990479D01*
X58293000Y-24841200D01*
X56825764Y-24825597D01*
X56396471Y-24821443D01*
X56054908Y-24819615D01*
X55787217Y-24820821D01*
X55579543Y-24825769D01*
X55418028Y-24835169D01*
X55288814Y-24849728D01*
X55178045Y-24870156D01*
X55071864Y-24897161D01*
X54996964Y-24919114D01*
X54552009Y-25082445D01*
X54169187Y-25292097D01*
X53813289Y-25569170D01*
X53644294Y-25729694D01*
X53328033Y-26084703D01*
X53091259Y-26446493D01*
X52915057Y-26847142D01*
X52835597Y-27101140D01*
X52772478Y-27338004D01*
X52740886Y-27495892D01*
X52742680Y-27593004D01*
X52779720Y-27647536D01*
X52853865Y-27677686D01*
X52895500Y-27687242D01*
X53229457Y-27799475D01*
X53573351Y-27988723D01*
X53903093Y-28236266D01*
X54194593Y-28523387D01*
X54423763Y-28831365D01*
X54468628Y-28909674D01*
X54656159Y-29361905D01*
X54749753Y-29833025D01*
X54751427Y-30308974D01*
X54663197Y-30775693D01*
X54487082Y-31219120D01*
X54225097Y-31625197D01*
X54050867Y-31821737D01*
X53752411Y-32077130D01*
X53409758Y-32293713D01*
X53060525Y-32448934D01*
X52946300Y-32483902D01*
X52805378Y-32537182D01*
X52734441Y-32597996D01*
X52730400Y-32614741D01*
X51866800Y-32614741D01*
X51866800Y-30072918D01*
X52730400Y-30072918D01*
X52732077Y-30580279D01*
X52737122Y-30986686D01*
X52745556Y-31292731D01*
X52757398Y-31499003D01*
X52772668Y-31606096D01*
X52783223Y-31623000D01*
X52857686Y-31601419D01*
X52982876Y-31547103D01*
X53039331Y-31519292D01*
X53353489Y-31307689D01*
X53594558Y-31040471D01*
X53763136Y-30731974D01*
X53859817Y-30396535D01*
X53885195Y-30048492D01*
X53839868Y-29702181D01*
X53724430Y-29371940D01*
X53539475Y-29072104D01*
X53285601Y-28817012D01*
X52963401Y-28621001D01*
X52918165Y-28601290D01*
X52730400Y-28522836D01*
X52730400Y-30072918D01*
X51866800Y-30072918D01*
X51866800Y-30071651D01*
X51867178Y-29445019D01*
X51868800Y-28910391D01*
X51872392Y-28458169D01*
X51878680Y-28078759D01*
X51888394Y-27762564D01*
X51902259Y-27499988D01*
X51921003Y-27281437D01*
X51945353Y-27097314D01*
X51976037Y-26938023D01*
X52013782Y-26793968D01*
X52059315Y-26655555D01*
X52113363Y-26513186D01*
X52141873Y-26442278D01*
X52425921Y-25874513D01*
X52789344Y-25365800D01*
X53224443Y-24922839D01*
X53723519Y-24552331D01*
X54278874Y-24260977D01*
X54882808Y-24055479D01*
X54884826Y-24054962D01*
X55012596Y-24024623D01*
X55140440Y-24000855D01*
X55282618Y-23982884D01*
X55453396Y-23969934D01*
X55667035Y-23961232D01*
X55937800Y-23956002D01*
X56279954Y-23953469D01*
X56707759Y-23952860D01*
X56764426Y-23952879D01*
G37*
X56764426Y-23952879D02*
X58242200Y-23953559D01*
X58657545Y-24098141D01*
X59143231Y-24318428D01*
X59577182Y-24618222D01*
X59949438Y-24986671D01*
X60250040Y-25412925D01*
X60469029Y-25886133D01*
X60550674Y-26160805D01*
X60584685Y-26376477D01*
X60603191Y-26652108D01*
X60605995Y-26949216D01*
X60592902Y-27229316D01*
X60563718Y-27453926D01*
X60557387Y-27482800D01*
X60531349Y-27604010D01*
X60534737Y-27640070D01*
X60569953Y-27603771D01*
X60578065Y-27592962D01*
X60620151Y-27515718D01*
X60663665Y-27389028D01*
X60713128Y-27196966D01*
X60773063Y-26923604D01*
X60786444Y-26859042D01*
X60854843Y-26748407D01*
X60988018Y-26659368D01*
X61149210Y-26609900D01*
X61287520Y-26613988D01*
X61410122Y-26684620D01*
X61520325Y-26813729D01*
X61524825Y-26821205D01*
X61673022Y-26984798D01*
X61804749Y-27053161D01*
X61978671Y-27155797D01*
X62083579Y-27312116D01*
X62107098Y-27497013D01*
X62078304Y-27608098D01*
X62009581Y-27733468D01*
X61912113Y-27812690D01*
X61756585Y-27864866D01*
X61651542Y-27886120D01*
X61536329Y-27920776D01*
X61419822Y-27991127D01*
X61280897Y-28112700D01*
X61123429Y-28274273D01*
X60770478Y-28592535D01*
X60398366Y-28817379D01*
X60013402Y-28945198D01*
X59922443Y-28960669D01*
X59639732Y-29047259D01*
X59445777Y-29168490D01*
X58999737Y-29447689D01*
X58514391Y-29633607D01*
X58004116Y-29725821D01*
X57658000Y-29757989D01*
X57658000Y-32681700D01*
X59956700Y-32701994D01*
X60524087Y-32707122D01*
X61000416Y-32712410D01*
X61396224Y-32719046D01*
X61722048Y-32728216D01*
X61988424Y-32741106D01*
X62205889Y-32758902D01*
X62384980Y-32782791D01*
X62536233Y-32813959D01*
X62670186Y-32853592D01*
X62797375Y-32902876D01*
X62928337Y-32962998D01*
X63073608Y-33035144D01*
X63119000Y-33058022D01*
X63383779Y-33224915D01*
X63664502Y-33457867D01*
X63935139Y-33730410D01*
X64169663Y-34016079D01*
X64342043Y-34288407D01*
X64355600Y-34315400D01*
X64539016Y-34791959D01*
X64640179Y-35289530D01*
X64656228Y-35785184D01*
X64593216Y-36220400D01*
X64554141Y-36386854D01*
X64526763Y-36512276D01*
X64517809Y-36563300D01*
X64564797Y-36577397D01*
X64694764Y-36589253D01*
X64889092Y-36597791D01*
X65129168Y-36601933D01*
X65189100Y-36602150D01*
X65565110Y-36610647D01*
X65891911Y-36634048D01*
X66146016Y-36670533D01*
X66187161Y-36679501D01*
X66662798Y-36842081D01*
X67107481Y-37091759D01*
X67507477Y-37415503D01*
X67849052Y-37800282D01*
X68118471Y-38233064D01*
X68296224Y-38680720D01*
X68351995Y-38965331D01*
X68378025Y-39309355D01*
X68375064Y-39676345D01*
X68343860Y-40029853D01*
X68285162Y-40333429D01*
X68260606Y-40414337D01*
X68045448Y-40898646D01*
X67752193Y-41333235D01*
X67392047Y-41707468D01*
X66976218Y-42010706D01*
X66515913Y-42232311D01*
X66261267Y-42312122D01*
X66217345Y-42321574D01*
X66159186Y-42330258D01*
X66082629Y-42338202D01*
X65983517Y-42345436D01*
X65857690Y-42351990D01*
X65700990Y-42357894D01*
X65509257Y-42363177D01*
X65278334Y-42367869D01*
X65004061Y-42372000D01*
X64682279Y-42375598D01*
X64308830Y-42378694D01*
X63879555Y-42381318D01*
X63390295Y-42383498D01*
X62836891Y-42385264D01*
X62215184Y-42386647D01*
X61521016Y-42387675D01*
X60750228Y-42388379D01*
X59898660Y-42388787D01*
X58962155Y-42388930D01*
X57936553Y-42388837D01*
X56817696Y-42388537D01*
X55601424Y-42388061D01*
X55593267Y-42388057D01*
X54335764Y-42387388D01*
X53176290Y-42386512D01*
X52111275Y-42385406D01*
X51137147Y-42384047D01*
X50250336Y-42382412D01*
X49447270Y-42380477D01*
X48724380Y-42378219D01*
X48078094Y-42375615D01*
X47504841Y-42372641D01*
X47001051Y-42369275D01*
X46563153Y-42365493D01*
X46187576Y-42361272D01*
X45870749Y-42356589D01*
X45609102Y-42351420D01*
X45399064Y-42345742D01*
X45237063Y-42339532D01*
X45119529Y-42332767D01*
X45042892Y-42325423D01*
X45008800Y-42319164D01*
X44521050Y-42132324D01*
X44072037Y-41862960D01*
X43675012Y-41523275D01*
X43343226Y-41125475D01*
X43089932Y-40681765D01*
X43006836Y-40475341D01*
X42932042Y-40193413D01*
X42880460Y-39859445D01*
X42864956Y-39632714D01*
X43712108Y-39632714D01*
X43781355Y-40044780D01*
X43935920Y-40433357D01*
X44167688Y-40785001D01*
X44468548Y-41086268D01*
X44830385Y-41323716D01*
X45076305Y-41431017D01*
X45109503Y-41442068D01*
X45148119Y-41452216D01*
X45196361Y-41461497D01*
X45258438Y-41469942D01*
X45338557Y-41477586D01*
X45440929Y-41484460D01*
X45569760Y-41490599D01*
X45729260Y-41496036D01*
X45923637Y-41500803D01*
X46157099Y-41504933D01*
X46433854Y-41508461D01*
X46758112Y-41511419D01*
X47134081Y-41513840D01*
X47565968Y-41515757D01*
X48057984Y-41517204D01*
X48614335Y-41518213D01*
X49239230Y-41518818D01*
X49936879Y-41519053D01*
X50711488Y-41518949D01*
X51567268Y-41518541D01*
X52508425Y-41517861D01*
X53539170Y-41516942D01*
X54663709Y-41515819D01*
X55702200Y-41514721D01*
X66065400Y-41503600D01*
X66355877Y-41367453D01*
X66731378Y-41138858D01*
X67045463Y-40841122D01*
X67290367Y-40488782D01*
X67458323Y-40096380D01*
X67541568Y-39678453D01*
X67532334Y-39249541D01*
X67522237Y-39183662D01*
X67398179Y-38736230D01*
X67190586Y-38345777D01*
X66902114Y-38015878D01*
X66535417Y-37750109D01*
X66407755Y-37682035D01*
X66242592Y-37602385D01*
X66109629Y-37547931D01*
X65981814Y-37513183D01*
X65832090Y-37492652D01*
X65633405Y-37480850D01*
X65376252Y-37472767D01*
X64732357Y-37455135D01*
X64700381Y-37625167D01*
X64601176Y-37936908D01*
X64427197Y-38264702D01*
X64197057Y-38584583D01*
X63929368Y-38872584D01*
X63642743Y-39104740D01*
X63473170Y-39205367D01*
X62998800Y-39392547D01*
X62509659Y-39485638D01*
X62019092Y-39484652D01*
X61540445Y-39389602D01*
X61092120Y-39203228D01*
X60767527Y-38980370D01*
X60463065Y-38682042D01*
X60199264Y-38334375D01*
X59996659Y-37963498D01*
X59895897Y-37680900D01*
X59863337Y-37558458D01*
X60762596Y-37558458D01*
X60813257Y-37679217D01*
X60900673Y-37832130D01*
X61010525Y-37994397D01*
X61128492Y-38143216D01*
X61240257Y-38255786D01*
X61244437Y-38259246D01*
X61527318Y-38454810D01*
X61814604Y-38570952D01*
X62138141Y-38617926D01*
X62357000Y-38617431D01*
X62638096Y-38592987D01*
X62851991Y-38542834D01*
X62981589Y-38487570D01*
X63309571Y-38269565D01*
X63577208Y-37992031D01*
X63727072Y-37753815D01*
X63858358Y-37490400D01*
X62325268Y-37476943D01*
X61940618Y-37474506D01*
X61589393Y-37474082D01*
X61284288Y-37475542D01*
X61037997Y-37478759D01*
X60863215Y-37483606D01*
X60772638Y-37489954D01*
X60763010Y-37492656D01*
X60762596Y-37558458D01*
X59863337Y-37558458D01*
X59838483Y-37465000D01*
X58076461Y-37465000D01*
X58017331Y-37699825D01*
X57861415Y-38118108D01*
X57618855Y-38505037D01*
X57303048Y-38846997D01*
X56927391Y-39130375D01*
X56505279Y-39341555D01*
X56348213Y-39396149D01*
X55908513Y-39483040D01*
X55443781Y-39487805D01*
X54983378Y-39413342D01*
X54556669Y-39262552D01*
X54450386Y-39208771D01*
X54084070Y-38956799D01*
X53756599Y-38629646D01*
X53487131Y-38251045D01*
X53294824Y-37844733D01*
X53258132Y-37731700D01*
X53188452Y-37492656D01*
X54108210Y-37492656D01*
X54108637Y-37557463D01*
X54158928Y-37677969D01*
X54244880Y-37831017D01*
X54352292Y-37993452D01*
X54466958Y-38142119D01*
X54574678Y-38253861D01*
X54575585Y-38254639D01*
X54863715Y-38455175D01*
X55173940Y-38574012D01*
X55529918Y-38618762D01*
X55702200Y-38617153D01*
X55982364Y-38593065D01*
X56195470Y-38543442D01*
X56326789Y-38487570D01*
X56654771Y-38269565D01*
X56922408Y-37992031D01*
X57072272Y-37753815D01*
X57203558Y-37490400D01*
X55670468Y-37476943D01*
X55285818Y-37474506D01*
X54934593Y-37474082D01*
X54629488Y-37475542D01*
X54383197Y-37478759D01*
X54208415Y-37483606D01*
X54117838Y-37489954D01*
X54108210Y-37492656D01*
X53188452Y-37492656D01*
X53180390Y-37465000D01*
X51430508Y-37465000D01*
X51341329Y-37754610D01*
X51152740Y-38202944D01*
X50885245Y-38598747D01*
X50550506Y-38933335D01*
X50160182Y-39198023D01*
X49725931Y-39384129D01*
X49259415Y-39482967D01*
X49001921Y-39497000D01*
X48491613Y-39449630D01*
X48020614Y-39311251D01*
X47596761Y-39087454D01*
X47227890Y-38783831D01*
X46921838Y-38405976D01*
X46686441Y-37959479D01*
X46627050Y-37802243D01*
X46519665Y-37490400D01*
X47402170Y-37490400D01*
X47527498Y-37744400D01*
X47715728Y-38029720D01*
X47972033Y-38284284D01*
X48264289Y-38478374D01*
X48375989Y-38529262D01*
X48651203Y-38600702D01*
X48967182Y-38624244D01*
X49285483Y-38601125D01*
X49567662Y-38532581D01*
X49671989Y-38487570D01*
X50000002Y-38269538D01*
X50267681Y-37991952D01*
X50417514Y-37753815D01*
X50548843Y-37490400D01*
X49760021Y-37476410D01*
X49395992Y-37472111D01*
X48981312Y-37470639D01*
X48566021Y-37471993D01*
X48200160Y-37476173D01*
X48186685Y-37476410D01*
X47402170Y-37490400D01*
X46519665Y-37490400D01*
X46507400Y-37454783D01*
X45868063Y-37474200D01*
X45595774Y-37484068D01*
X45398503Y-37497692D01*
X45249674Y-37520134D01*
X45122715Y-37556456D01*
X44991050Y-37611720D01*
X44889541Y-37660598D01*
X44495627Y-37908206D01*
X44175083Y-38224319D01*
X43932745Y-38602438D01*
X43773447Y-39036066D01*
X43736290Y-39210602D01*
X43712108Y-39632714D01*
X42864956Y-39632714D01*
X42857344Y-39521399D01*
X42867946Y-39227233D01*
X42869080Y-39217600D01*
X42884866Y-39032505D01*
X42872007Y-38891899D01*
X42821765Y-38745967D01*
X42765136Y-38625098D01*
X42682204Y-38432218D01*
X42593571Y-38188998D01*
X42516770Y-37944006D01*
X42508388Y-37913898D01*
X42475638Y-37788837D01*
X42449704Y-37670988D01*
X42429796Y-37546701D01*
X42415123Y-37402326D01*
X42404894Y-37224212D01*
X42398318Y-36998710D01*
X42394604Y-36712168D01*
X42392962Y-36350937D01*
X42392600Y-35915600D01*
X42392600Y-35190590D01*
X43238779Y-35190590D01*
X43239473Y-35612739D01*
X43246055Y-36095702D01*
X43256156Y-36579249D01*
X43267638Y-36968741D01*
X43281055Y-37271720D01*
X43296961Y-37495727D01*
X43315912Y-37648305D01*
X43338462Y-37736995D01*
X43365167Y-37769338D01*
X43369223Y-37769800D01*
X43414244Y-37736210D01*
X43510499Y-37647386D01*
X43638713Y-37521247D01*
X43663029Y-37496643D01*
X43851622Y-37323709D01*
X44070869Y-37149530D01*
X44241728Y-37032222D01*
X44551599Y-36840958D01*
X44551410Y-35692479D01*
X44550702Y-35317499D01*
X44548006Y-35029939D01*
X44542247Y-34815622D01*
X44532354Y-34660374D01*
X44517254Y-34550019D01*
X44495875Y-34470379D01*
X44467143Y-34407280D01*
X44452235Y-34381660D01*
X44300328Y-34191309D01*
X44121026Y-34090961D01*
X43891438Y-34069120D01*
X43837916Y-34073118D01*
X43585960Y-34136230D01*
X43403526Y-34272516D01*
X43286188Y-34485478D01*
X43275819Y-34517860D01*
X43256972Y-34642105D01*
X43244619Y-34866697D01*
X43238779Y-35190590D01*
X42392600Y-35190590D01*
X42392600Y-34340800D01*
X42535152Y-34050506D01*
X42750502Y-33718499D01*
X43028470Y-33462884D01*
X43359301Y-33289796D01*
X43733238Y-33205371D01*
X43891199Y-33197800D01*
X44277254Y-33246213D01*
X44629654Y-33386349D01*
X44935879Y-33610553D01*
X45183404Y-33911170D01*
X45252126Y-34029733D01*
X45296169Y-34116089D01*
X45329808Y-34195935D01*
X45354689Y-34284400D01*
X45372460Y-34396611D01*
X45384768Y-34547696D01*
X45393259Y-34752783D01*
X45399580Y-35026998D01*
X45405379Y-35385471D01*
X45406280Y-35445700D01*
X45423515Y-36601400D01*
X46747844Y-36601400D01*
X46718057Y-36461700D01*
X46694522Y-36339702D01*
X46662298Y-36158228D01*
X46630867Y-35971653D01*
X46610532Y-35629576D01*
X47463745Y-35629576D01*
X47499921Y-35993984D01*
X47594060Y-36342415D01*
X47621375Y-36410900D01*
X47702563Y-36601400D01*
X63548190Y-36601400D01*
X63618878Y-36461700D01*
X63740454Y-36119109D01*
X63790407Y-35730340D01*
X63768222Y-35321782D01*
X63673384Y-34919824D01*
X63650260Y-34854742D01*
X63498986Y-34563206D01*
X63275730Y-34275980D01*
X63007253Y-34021299D01*
X62720315Y-33827400D01*
X62638194Y-33786894D01*
X62304948Y-33667545D01*
X61939445Y-33585773D01*
X61596778Y-33553767D01*
X61584258Y-33553694D01*
X61479474Y-33563236D01*
X61419485Y-33610529D01*
X61376397Y-33722834D01*
X61363653Y-33769300D01*
X61230719Y-34125753D01*
X61029889Y-34485277D01*
X60785348Y-34808003D01*
X60648353Y-34948585D01*
X60257109Y-35247029D01*
X59833552Y-35456637D01*
X59389637Y-35579555D01*
X58937322Y-35617925D01*
X58488561Y-35573892D01*
X58055309Y-35449600D01*
X57649524Y-35247193D01*
X57283160Y-34968815D01*
X56968172Y-34616611D01*
X56743479Y-34248309D01*
X56657237Y-34055663D01*
X56589046Y-33867073D01*
X56558099Y-33745289D01*
X56527415Y-33553400D01*
X57397153Y-33553400D01*
X57431251Y-33667700D01*
X57578883Y-33994417D01*
X57802739Y-34272047D01*
X58086490Y-34493407D01*
X58413805Y-34651315D01*
X58768354Y-34738589D01*
X59133807Y-34748046D01*
X59493833Y-34672506D01*
X59611358Y-34626513D01*
X59861130Y-34479728D01*
X60101359Y-34275576D01*
X60299401Y-34045008D01*
X60396694Y-33881836D01*
X60458815Y-33739893D01*
X60497010Y-33633763D01*
X60502800Y-33604753D01*
X60452398Y-33588453D01*
X60302706Y-33575164D01*
X60055988Y-33564959D01*
X59714511Y-33557915D01*
X59280541Y-33554105D01*
X58949976Y-33553400D01*
X57397153Y-33553400D01*
X56527415Y-33553400D01*
X56527048Y-33551110D01*
X55634254Y-33564955D01*
X54741461Y-33578800D01*
X54701881Y-33769507D01*
X54576224Y-34144239D01*
X54365099Y-34508988D01*
X54084391Y-34846691D01*
X53749986Y-35140287D01*
X53377769Y-35372714D01*
X53098768Y-35491412D01*
X52750650Y-35574652D01*
X52361109Y-35608761D01*
X51968837Y-35593689D01*
X51612526Y-35529388D01*
X51498564Y-35493476D01*
X51045031Y-35277622D01*
X50648609Y-34983600D01*
X50318960Y-34621462D01*
X50065749Y-34201257D01*
X49936217Y-33868477D01*
X49881410Y-33713957D01*
X49817674Y-33615771D01*
X49799860Y-33606223D01*
X50749200Y-33606223D01*
X50770780Y-33680674D01*
X50825103Y-33805880D01*
X50853000Y-33862512D01*
X51076587Y-34197131D01*
X51361956Y-34459520D01*
X51695206Y-34643378D01*
X52062437Y-34742403D01*
X52449747Y-34750294D01*
X52707343Y-34703127D01*
X52940757Y-34631153D01*
X53120266Y-34545288D01*
X53292541Y-34420170D01*
X53399240Y-34327130D01*
X53520659Y-34195733D01*
X53644410Y-34027389D01*
X53752238Y-33851432D01*
X53825893Y-33697200D01*
X53848000Y-33605888D01*
X53797240Y-33588623D01*
X53645005Y-33574786D01*
X53391363Y-33564382D01*
X53036382Y-33557412D01*
X52580128Y-33553878D01*
X52298600Y-33553400D01*
X51791354Y-33555078D01*
X51385063Y-33560126D01*
X51079138Y-33568564D01*
X50872988Y-33580411D01*
X50766025Y-33595689D01*
X50749200Y-33606223D01*
X49799860Y-33606223D01*
X49724635Y-33565906D01*
X49581919Y-33556347D01*
X49369150Y-33579082D01*
X49247039Y-33597415D01*
X48796178Y-33715851D01*
X48396618Y-33918511D01*
X48056268Y-34197754D01*
X47783033Y-34545940D01*
X47584821Y-34955425D01*
X47490848Y-35294654D01*
X47463745Y-35629576D01*
X46610532Y-35629576D01*
X46602482Y-35494170D01*
X46666821Y-35013839D01*
X46816466Y-34544967D01*
X47043999Y-34101863D01*
X47342002Y-33698833D01*
X47703059Y-33350184D01*
X48119751Y-33070224D01*
X48141080Y-33058730D01*
X48318586Y-32967937D01*
X48483561Y-32895102D01*
X48650410Y-32838009D01*
X48833537Y-32794444D01*
X49047346Y-32762192D01*
X49306243Y-32739040D01*
X49624633Y-32722773D01*
X50016919Y-32711177D01*
X50457100Y-32702703D01*
X51866800Y-32679261D01*
X51866800Y-32614741D01*
X52730400Y-32614741D01*
X52743830Y-32637255D01*
X52791155Y-32655186D01*
X52882931Y-32669210D01*
X53029709Y-32680003D01*
X53242044Y-32688238D01*
X53530490Y-32694592D01*
X53905600Y-32699740D01*
X54089300Y-32701683D01*
X54752719Y-32706558D01*
X55326297Y-32707133D01*
X55808226Y-32703451D01*
X56196701Y-32695557D01*
X56489917Y-32683493D01*
X56686067Y-32667304D01*
X56783346Y-32647034D01*
X56794400Y-32636175D01*
X56746592Y-32616503D01*
X56615068Y-32600987D01*
X56417674Y-32591094D01*
X56210200Y-32588200D01*
X55626000Y-32588200D01*
X55626000Y-31724600D01*
X56794400Y-31724600D01*
X56794400Y-31419800D01*
X55626000Y-31419800D01*
X55626000Y-30556200D01*
X56794400Y-30556200D01*
X56794400Y-30251400D01*
X55626000Y-30251400D01*
X55626000Y-29387800D01*
X56786327Y-29387800D01*
X56818643Y-29240667D01*
X56861090Y-29109049D01*
X56932185Y-29015073D01*
X57048301Y-28951352D01*
X57225815Y-28910497D01*
X57481102Y-28885120D01*
X57625095Y-28876813D01*
X57984865Y-28846896D01*
X58278572Y-28797971D01*
X58497254Y-28732654D01*
X58631952Y-28653562D01*
X58674000Y-28570488D01*
X58718204Y-28371710D01*
X58847462Y-28224283D01*
X59056743Y-28132577D01*
X59207400Y-28107153D01*
X59294272Y-28087248D01*
X59365338Y-28033409D01*
X59439549Y-27925093D01*
X59525623Y-27762200D01*
X59691428Y-27338334D01*
X59758725Y-26918193D01*
X59736216Y-26530792D01*
X59619223Y-26103133D01*
X59413946Y-25710961D01*
X59131671Y-25369545D01*
X58783682Y-25094154D01*
X58597800Y-24990479D01*
X58293000Y-24841200D01*
X56825764Y-24825597D01*
X56396471Y-24821443D01*
X56054908Y-24819615D01*
X55787217Y-24820821D01*
X55579543Y-24825769D01*
X55418028Y-24835169D01*
X55288814Y-24849728D01*
X55178045Y-24870156D01*
X55071864Y-24897161D01*
X54996964Y-24919114D01*
X54552009Y-25082445D01*
X54169187Y-25292097D01*
X53813289Y-25569170D01*
X53644294Y-25729694D01*
X53328033Y-26084703D01*
X53091259Y-26446493D01*
X52915057Y-26847142D01*
X52835597Y-27101140D01*
X52772478Y-27338004D01*
X52740886Y-27495892D01*
X52742680Y-27593004D01*
X52779720Y-27647536D01*
X52853865Y-27677686D01*
X52895500Y-27687242D01*
X53229457Y-27799475D01*
X53573351Y-27988723D01*
X53903093Y-28236266D01*
X54194593Y-28523387D01*
X54423763Y-28831365D01*
X54468628Y-28909674D01*
X54656159Y-29361905D01*
X54749753Y-29833025D01*
X54751427Y-30308974D01*
X54663197Y-30775693D01*
X54487082Y-31219120D01*
X54225097Y-31625197D01*
X54050867Y-31821737D01*
X53752411Y-32077130D01*
X53409758Y-32293713D01*
X53060525Y-32448934D01*
X52946300Y-32483902D01*
X52805378Y-32537182D01*
X52734441Y-32597996D01*
X52730400Y-32614741D01*
X51866800Y-32614741D01*
X51866800Y-30072918D01*
X52730400Y-30072918D01*
X52732077Y-30580279D01*
X52737122Y-30986686D01*
X52745556Y-31292731D01*
X52757398Y-31499003D01*
X52772668Y-31606096D01*
X52783223Y-31623000D01*
X52857686Y-31601419D01*
X52982876Y-31547103D01*
X53039331Y-31519292D01*
X53353489Y-31307689D01*
X53594558Y-31040471D01*
X53763136Y-30731974D01*
X53859817Y-30396535D01*
X53885195Y-30048492D01*
X53839868Y-29702181D01*
X53724430Y-29371940D01*
X53539475Y-29072104D01*
X53285601Y-28817012D01*
X52963401Y-28621001D01*
X52918165Y-28601290D01*
X52730400Y-28522836D01*
X52730400Y-30072918D01*
X51866800Y-30072918D01*
X51866800Y-30071651D01*
X51867178Y-29445019D01*
X51868800Y-28910391D01*
X51872392Y-28458169D01*
X51878680Y-28078759D01*
X51888394Y-27762564D01*
X51902259Y-27499988D01*
X51921003Y-27281437D01*
X51945353Y-27097314D01*
X51976037Y-26938023D01*
X52013782Y-26793968D01*
X52059315Y-26655555D01*
X52113363Y-26513186D01*
X52141873Y-26442278D01*
X52425921Y-25874513D01*
X52789344Y-25365800D01*
X53224443Y-24922839D01*
X53723519Y-24552331D01*
X54278874Y-24260977D01*
X54882808Y-24055479D01*
X54884826Y-24054962D01*
X55012596Y-24024623D01*
X55140440Y-24000855D01*
X55282618Y-23982884D01*
X55453396Y-23969934D01*
X55667035Y-23961232D01*
X55937800Y-23956002D01*
X56279954Y-23953469D01*
X56707759Y-23952860D01*
X56764426Y-23952879D01*
D11*
%TO.C,i2c4*%
X57090000Y-60646000D02*
X57090000Y-63306000D01*
X64770000Y-60646000D02*
X57090000Y-60646000D01*
X64770000Y-63306000D02*
X57090000Y-63306000D01*
X64770000Y-60646000D02*
X64770000Y-63306000D01*
X66040000Y-60646000D02*
X67370000Y-60646000D01*
X67370000Y-60646000D02*
X67370000Y-61976000D01*
%TO.C,i2c3*%
X67370000Y-55820000D02*
X67370000Y-57150000D01*
X66040000Y-55820000D02*
X67370000Y-55820000D01*
X64770000Y-55820000D02*
X64770000Y-58480000D01*
X64770000Y-58480000D02*
X57090000Y-58480000D01*
X64770000Y-55820000D02*
X57090000Y-55820000D01*
X57090000Y-55820000D02*
X57090000Y-58480000D01*
%TO.C,ExternalPower1*%
X49590000Y-63560000D02*
X48260000Y-63560000D01*
X49590000Y-62230000D02*
X49590000Y-63560000D01*
X49590000Y-60960000D02*
X46930000Y-60960000D01*
X46930000Y-60960000D02*
X46930000Y-55820000D01*
X49590000Y-60960000D02*
X49590000Y-55820000D01*
X49590000Y-55820000D02*
X46930000Y-55820000D01*
%TO.C,i2c1*%
X61782000Y-65980000D02*
X61782000Y-67310000D01*
X60452000Y-65980000D02*
X61782000Y-65980000D01*
X59182000Y-65980000D02*
X59182000Y-68640000D01*
X59182000Y-68640000D02*
X51502000Y-68640000D01*
X59182000Y-65980000D02*
X51502000Y-65980000D01*
X51502000Y-65980000D02*
X51502000Y-68640000D01*
%TO.C,esp32-right1*%
X127020000Y-64964000D02*
X127020000Y-66294000D01*
X125690000Y-64964000D02*
X127020000Y-64964000D01*
X124420000Y-64964000D02*
X124420000Y-67624000D01*
X124420000Y-67624000D02*
X78640000Y-67624000D01*
X124420000Y-64964000D02*
X78640000Y-64964000D01*
X78640000Y-64964000D02*
X78640000Y-67624000D01*
%TD*%
%TO.C,Q3*%
D10*
X84486761Y-75223619D02*
X84391523Y-75176000D01*
X84296285Y-75080761D01*
X84153428Y-74937904D01*
X84058190Y-74890285D01*
X83962952Y-74890285D01*
X84010571Y-75128380D02*
X83915333Y-75080761D01*
X83820095Y-74985523D01*
X83772476Y-74795047D01*
X83772476Y-74461714D01*
X83820095Y-74271238D01*
X83915333Y-74176000D01*
X84010571Y-74128380D01*
X84201047Y-74128380D01*
X84296285Y-74176000D01*
X84391523Y-74271238D01*
X84439142Y-74461714D01*
X84439142Y-74795047D01*
X84391523Y-74985523D01*
X84296285Y-75080761D01*
X84201047Y-75128380D01*
X84010571Y-75128380D01*
X84772476Y-74128380D02*
X85391523Y-74128380D01*
X85058190Y-74509333D01*
X85201047Y-74509333D01*
X85296285Y-74556952D01*
X85343904Y-74604571D01*
X85391523Y-74699809D01*
X85391523Y-74937904D01*
X85343904Y-75033142D01*
X85296285Y-75080761D01*
X85201047Y-75128380D01*
X84915333Y-75128380D01*
X84820095Y-75080761D01*
X84772476Y-75033142D01*
%TO.C,Q2*%
X102647761Y-75223619D02*
X102552523Y-75176000D01*
X102457285Y-75080761D01*
X102314428Y-74937904D01*
X102219190Y-74890285D01*
X102123952Y-74890285D01*
X102171571Y-75128380D02*
X102076333Y-75080761D01*
X101981095Y-74985523D01*
X101933476Y-74795047D01*
X101933476Y-74461714D01*
X101981095Y-74271238D01*
X102076333Y-74176000D01*
X102171571Y-74128380D01*
X102362047Y-74128380D01*
X102457285Y-74176000D01*
X102552523Y-74271238D01*
X102600142Y-74461714D01*
X102600142Y-74795047D01*
X102552523Y-74985523D01*
X102457285Y-75080761D01*
X102362047Y-75128380D01*
X102171571Y-75128380D01*
X102981095Y-74223619D02*
X103028714Y-74176000D01*
X103123952Y-74128380D01*
X103362047Y-74128380D01*
X103457285Y-74176000D01*
X103504904Y-74223619D01*
X103552523Y-74318857D01*
X103552523Y-74414095D01*
X103504904Y-74556952D01*
X102933476Y-75128380D01*
X103552523Y-75128380D01*
%TO.C,Q1*%
X121189761Y-75477619D02*
X121094523Y-75430000D01*
X120999285Y-75334761D01*
X120856428Y-75191904D01*
X120761190Y-75144285D01*
X120665952Y-75144285D01*
X120713571Y-75382380D02*
X120618333Y-75334761D01*
X120523095Y-75239523D01*
X120475476Y-75049047D01*
X120475476Y-74715714D01*
X120523095Y-74525238D01*
X120618333Y-74430000D01*
X120713571Y-74382380D01*
X120904047Y-74382380D01*
X120999285Y-74430000D01*
X121094523Y-74525238D01*
X121142142Y-74715714D01*
X121142142Y-75049047D01*
X121094523Y-75239523D01*
X120999285Y-75334761D01*
X120904047Y-75382380D01*
X120713571Y-75382380D01*
X122094523Y-75382380D02*
X121523095Y-75382380D01*
X121808809Y-75382380D02*
X121808809Y-74382380D01*
X121713571Y-74525238D01*
X121618333Y-74620476D01*
X121523095Y-74668095D01*
%TO.C,S3*%
X75278095Y-106576761D02*
X75420952Y-106624380D01*
X75659047Y-106624380D01*
X75754285Y-106576761D01*
X75801904Y-106529142D01*
X75849523Y-106433904D01*
X75849523Y-106338666D01*
X75801904Y-106243428D01*
X75754285Y-106195809D01*
X75659047Y-106148190D01*
X75468571Y-106100571D01*
X75373333Y-106052952D01*
X75325714Y-106005333D01*
X75278095Y-105910095D01*
X75278095Y-105814857D01*
X75325714Y-105719619D01*
X75373333Y-105672000D01*
X75468571Y-105624380D01*
X75706666Y-105624380D01*
X75849523Y-105672000D01*
X76182857Y-105624380D02*
X76801904Y-105624380D01*
X76468571Y-106005333D01*
X76611428Y-106005333D01*
X76706666Y-106052952D01*
X76754285Y-106100571D01*
X76801904Y-106195809D01*
X76801904Y-106433904D01*
X76754285Y-106529142D01*
X76706666Y-106576761D01*
X76611428Y-106624380D01*
X76325714Y-106624380D01*
X76230476Y-106576761D01*
X76182857Y-106529142D01*
%TO.C,RE3*%
X70429380Y-92719047D02*
X69953190Y-93052380D01*
X70429380Y-93290476D02*
X69429380Y-93290476D01*
X69429380Y-92909523D01*
X69477000Y-92814285D01*
X69524619Y-92766666D01*
X69619857Y-92719047D01*
X69762714Y-92719047D01*
X69857952Y-92766666D01*
X69905571Y-92814285D01*
X69953190Y-92909523D01*
X69953190Y-93290476D01*
X69905571Y-92290476D02*
X69905571Y-91957142D01*
X70429380Y-91814285D02*
X70429380Y-92290476D01*
X69429380Y-92290476D01*
X69429380Y-91814285D01*
X69429380Y-91480952D02*
X69429380Y-90861904D01*
X69810333Y-91195238D01*
X69810333Y-91052380D01*
X69857952Y-90957142D01*
X69905571Y-90909523D01*
X70000809Y-90861904D01*
X70238904Y-90861904D01*
X70334142Y-90909523D01*
X70381761Y-90957142D01*
X70429380Y-91052380D01*
X70429380Y-91338095D01*
X70381761Y-91433333D01*
X70334142Y-91480952D01*
%TO.C,R7*%
X78700333Y-72588380D02*
X78367000Y-72112190D01*
X78128904Y-72588380D02*
X78128904Y-71588380D01*
X78509857Y-71588380D01*
X78605095Y-71636000D01*
X78652714Y-71683619D01*
X78700333Y-71778857D01*
X78700333Y-71921714D01*
X78652714Y-72016952D01*
X78605095Y-72064571D01*
X78509857Y-72112190D01*
X78128904Y-72112190D01*
X79033666Y-71588380D02*
X79700333Y-71588380D01*
X79271761Y-72588380D01*
%TO.C,R6*%
X73620333Y-76906380D02*
X73287000Y-76430190D01*
X73048904Y-76906380D02*
X73048904Y-75906380D01*
X73429857Y-75906380D01*
X73525095Y-75954000D01*
X73572714Y-76001619D01*
X73620333Y-76096857D01*
X73620333Y-76239714D01*
X73572714Y-76334952D01*
X73525095Y-76382571D01*
X73429857Y-76430190D01*
X73048904Y-76430190D01*
X74477476Y-75906380D02*
X74287000Y-75906380D01*
X74191761Y-75954000D01*
X74144142Y-76001619D01*
X74048904Y-76144476D01*
X74001285Y-76334952D01*
X74001285Y-76715904D01*
X74048904Y-76811142D01*
X74096523Y-76858761D01*
X74191761Y-76906380D01*
X74382238Y-76906380D01*
X74477476Y-76858761D01*
X74525095Y-76811142D01*
X74572714Y-76715904D01*
X74572714Y-76477809D01*
X74525095Y-76382571D01*
X74477476Y-76334952D01*
X74382238Y-76287333D01*
X74191761Y-76287333D01*
X74096523Y-76334952D01*
X74048904Y-76382571D01*
X74001285Y-76477809D01*
%TO.C,LED3*%
X70000952Y-69667380D02*
X69524761Y-69667380D01*
X69524761Y-68667380D01*
X70334285Y-69143571D02*
X70667619Y-69143571D01*
X70810476Y-69667380D02*
X70334285Y-69667380D01*
X70334285Y-68667380D01*
X70810476Y-68667380D01*
X71239047Y-69667380D02*
X71239047Y-68667380D01*
X71477142Y-68667380D01*
X71620000Y-68715000D01*
X71715238Y-68810238D01*
X71762857Y-68905476D01*
X71810476Y-69095952D01*
X71810476Y-69238809D01*
X71762857Y-69429285D01*
X71715238Y-69524523D01*
X71620000Y-69619761D01*
X71477142Y-69667380D01*
X71239047Y-69667380D01*
X72143809Y-68667380D02*
X72762857Y-68667380D01*
X72429523Y-69048333D01*
X72572380Y-69048333D01*
X72667619Y-69095952D01*
X72715238Y-69143571D01*
X72762857Y-69238809D01*
X72762857Y-69476904D01*
X72715238Y-69572142D01*
X72667619Y-69619761D01*
X72572380Y-69667380D01*
X72286666Y-69667380D01*
X72191428Y-69619761D01*
X72143809Y-69572142D01*
%TO.C,D3*%
X72667904Y-80335380D02*
X72667904Y-79335380D01*
X72906000Y-79335380D01*
X73048857Y-79383000D01*
X73144095Y-79478238D01*
X73191714Y-79573476D01*
X73239333Y-79763952D01*
X73239333Y-79906809D01*
X73191714Y-80097285D01*
X73144095Y-80192523D01*
X73048857Y-80287761D01*
X72906000Y-80335380D01*
X72667904Y-80335380D01*
X73572666Y-79335380D02*
X74191714Y-79335380D01*
X73858380Y-79716333D01*
X74001238Y-79716333D01*
X74096476Y-79763952D01*
X74144095Y-79811571D01*
X74191714Y-79906809D01*
X74191714Y-80144904D01*
X74144095Y-80240142D01*
X74096476Y-80287761D01*
X74001238Y-80335380D01*
X73715523Y-80335380D01*
X73620285Y-80287761D01*
X73572666Y-80240142D01*
%TO.C,S2*%
X93405095Y-106576761D02*
X93547952Y-106624380D01*
X93786047Y-106624380D01*
X93881285Y-106576761D01*
X93928904Y-106529142D01*
X93976523Y-106433904D01*
X93976523Y-106338666D01*
X93928904Y-106243428D01*
X93881285Y-106195809D01*
X93786047Y-106148190D01*
X93595571Y-106100571D01*
X93500333Y-106052952D01*
X93452714Y-106005333D01*
X93405095Y-105910095D01*
X93405095Y-105814857D01*
X93452714Y-105719619D01*
X93500333Y-105672000D01*
X93595571Y-105624380D01*
X93833666Y-105624380D01*
X93976523Y-105672000D01*
X94357476Y-105719619D02*
X94405095Y-105672000D01*
X94500333Y-105624380D01*
X94738428Y-105624380D01*
X94833666Y-105672000D01*
X94881285Y-105719619D01*
X94928904Y-105814857D01*
X94928904Y-105910095D01*
X94881285Y-106052952D01*
X94309857Y-106624380D01*
X94928904Y-106624380D01*
%TO.C,S1*%
X111278095Y-106449761D02*
X111420952Y-106497380D01*
X111659047Y-106497380D01*
X111754285Y-106449761D01*
X111801904Y-106402142D01*
X111849523Y-106306904D01*
X111849523Y-106211666D01*
X111801904Y-106116428D01*
X111754285Y-106068809D01*
X111659047Y-106021190D01*
X111468571Y-105973571D01*
X111373333Y-105925952D01*
X111325714Y-105878333D01*
X111278095Y-105783095D01*
X111278095Y-105687857D01*
X111325714Y-105592619D01*
X111373333Y-105545000D01*
X111468571Y-105497380D01*
X111706666Y-105497380D01*
X111849523Y-105545000D01*
X112801904Y-106497380D02*
X112230476Y-106497380D01*
X112516190Y-106497380D02*
X112516190Y-105497380D01*
X112420952Y-105640238D01*
X112325714Y-105735476D01*
X112230476Y-105783095D01*
%TO.C,S0*%
X123825095Y-95654761D02*
X123967952Y-95702380D01*
X124206047Y-95702380D01*
X124301285Y-95654761D01*
X124348904Y-95607142D01*
X124396523Y-95511904D01*
X124396523Y-95416666D01*
X124348904Y-95321428D01*
X124301285Y-95273809D01*
X124206047Y-95226190D01*
X124015571Y-95178571D01*
X123920333Y-95130952D01*
X123872714Y-95083333D01*
X123825095Y-94988095D01*
X123825095Y-94892857D01*
X123872714Y-94797619D01*
X123920333Y-94750000D01*
X124015571Y-94702380D01*
X124253666Y-94702380D01*
X124396523Y-94750000D01*
X125015571Y-94702380D02*
X125110809Y-94702380D01*
X125206047Y-94750000D01*
X125253666Y-94797619D01*
X125301285Y-94892857D01*
X125348904Y-95083333D01*
X125348904Y-95321428D01*
X125301285Y-95511904D01*
X125253666Y-95607142D01*
X125206047Y-95654761D01*
X125110809Y-95702380D01*
X125015571Y-95702380D01*
X124920333Y-95654761D01*
X124872714Y-95607142D01*
X124825095Y-95511904D01*
X124777476Y-95321428D01*
X124777476Y-95083333D01*
X124825095Y-94892857D01*
X124872714Y-94797619D01*
X124920333Y-94750000D01*
X125015571Y-94702380D01*
%TO.C,R5*%
X71461333Y-43759380D02*
X71128000Y-43283190D01*
X70889904Y-43759380D02*
X70889904Y-42759380D01*
X71270857Y-42759380D01*
X71366095Y-42807000D01*
X71413714Y-42854619D01*
X71461333Y-42949857D01*
X71461333Y-43092714D01*
X71413714Y-43187952D01*
X71366095Y-43235571D01*
X71270857Y-43283190D01*
X70889904Y-43283190D01*
X72366095Y-42759380D02*
X71889904Y-42759380D01*
X71842285Y-43235571D01*
X71889904Y-43187952D01*
X71985142Y-43140333D01*
X72223238Y-43140333D01*
X72318476Y-43187952D01*
X72366095Y-43235571D01*
X72413714Y-43330809D01*
X72413714Y-43568904D01*
X72366095Y-43664142D01*
X72318476Y-43711761D01*
X72223238Y-43759380D01*
X71985142Y-43759380D01*
X71889904Y-43711761D01*
X71842285Y-43664142D01*
%TO.C,D1*%
X108735904Y-80335380D02*
X108735904Y-79335380D01*
X108974000Y-79335380D01*
X109116857Y-79383000D01*
X109212095Y-79478238D01*
X109259714Y-79573476D01*
X109307333Y-79763952D01*
X109307333Y-79906809D01*
X109259714Y-80097285D01*
X109212095Y-80192523D01*
X109116857Y-80287761D01*
X108974000Y-80335380D01*
X108735904Y-80335380D01*
X110259714Y-80335380D02*
X109688285Y-80335380D01*
X109974000Y-80335380D02*
X109974000Y-79335380D01*
X109878761Y-79478238D01*
X109783523Y-79573476D01*
X109688285Y-79621095D01*
%TO.C,R4*%
X91527333Y-76906380D02*
X91194000Y-76430190D01*
X90955904Y-76906380D02*
X90955904Y-75906380D01*
X91336857Y-75906380D01*
X91432095Y-75954000D01*
X91479714Y-76001619D01*
X91527333Y-76096857D01*
X91527333Y-76239714D01*
X91479714Y-76334952D01*
X91432095Y-76382571D01*
X91336857Y-76430190D01*
X90955904Y-76430190D01*
X92384476Y-76239714D02*
X92384476Y-76906380D01*
X92146380Y-75858761D02*
X91908285Y-76573047D01*
X92527333Y-76573047D01*
%TO.C,R3*%
X96861333Y-72652380D02*
X96528000Y-72176190D01*
X96289904Y-72652380D02*
X96289904Y-71652380D01*
X96670857Y-71652380D01*
X96766095Y-71700000D01*
X96813714Y-71747619D01*
X96861333Y-71842857D01*
X96861333Y-71985714D01*
X96813714Y-72080952D01*
X96766095Y-72128571D01*
X96670857Y-72176190D01*
X96289904Y-72176190D01*
X97194666Y-71652380D02*
X97813714Y-71652380D01*
X97480380Y-72033333D01*
X97623238Y-72033333D01*
X97718476Y-72080952D01*
X97766095Y-72128571D01*
X97813714Y-72223809D01*
X97813714Y-72461904D01*
X97766095Y-72557142D01*
X97718476Y-72604761D01*
X97623238Y-72652380D01*
X97337523Y-72652380D01*
X97242285Y-72604761D01*
X97194666Y-72557142D01*
%TO.C,R2*%
X109561333Y-77033380D02*
X109228000Y-76557190D01*
X108989904Y-77033380D02*
X108989904Y-76033380D01*
X109370857Y-76033380D01*
X109466095Y-76081000D01*
X109513714Y-76128619D01*
X109561333Y-76223857D01*
X109561333Y-76366714D01*
X109513714Y-76461952D01*
X109466095Y-76509571D01*
X109370857Y-76557190D01*
X108989904Y-76557190D01*
X109942285Y-76128619D02*
X109989904Y-76081000D01*
X110085142Y-76033380D01*
X110323238Y-76033380D01*
X110418476Y-76081000D01*
X110466095Y-76128619D01*
X110513714Y-76223857D01*
X110513714Y-76319095D01*
X110466095Y-76461952D01*
X109894666Y-77033380D01*
X110513714Y-77033380D01*
%TO.C,R1*%
X115022333Y-72588380D02*
X114689000Y-72112190D01*
X114450904Y-72588380D02*
X114450904Y-71588380D01*
X114831857Y-71588380D01*
X114927095Y-71636000D01*
X114974714Y-71683619D01*
X115022333Y-71778857D01*
X115022333Y-71921714D01*
X114974714Y-72016952D01*
X114927095Y-72064571D01*
X114831857Y-72112190D01*
X114450904Y-72112190D01*
X115974714Y-72588380D02*
X115403285Y-72588380D01*
X115689000Y-72588380D02*
X115689000Y-71588380D01*
X115593761Y-71731238D01*
X115498523Y-71826476D01*
X115403285Y-71874095D01*
%TO.C,C1*%
X47534533Y-52427142D02*
X47486914Y-52474761D01*
X47344057Y-52522380D01*
X47248819Y-52522380D01*
X47105961Y-52474761D01*
X47010723Y-52379523D01*
X46963104Y-52284285D01*
X46915485Y-52093809D01*
X46915485Y-51950952D01*
X46963104Y-51760476D01*
X47010723Y-51665238D01*
X47105961Y-51570000D01*
X47248819Y-51522380D01*
X47344057Y-51522380D01*
X47486914Y-51570000D01*
X47534533Y-51617619D01*
X48486914Y-52522380D02*
X47915485Y-52522380D01*
X48201200Y-52522380D02*
X48201200Y-51522380D01*
X48105961Y-51665238D01*
X48010723Y-51760476D01*
X47915485Y-51808095D01*
%TO.C,ALED1*%
X43600666Y-47791428D02*
X43600666Y-47315238D01*
X43886380Y-47886666D02*
X42886380Y-47553333D01*
X43886380Y-47220000D01*
X43886380Y-46410476D02*
X43886380Y-46886666D01*
X42886380Y-46886666D01*
X43362571Y-46077142D02*
X43362571Y-45743809D01*
X43886380Y-45600952D02*
X43886380Y-46077142D01*
X42886380Y-46077142D01*
X42886380Y-45600952D01*
X43886380Y-45172380D02*
X42886380Y-45172380D01*
X42886380Y-44934285D01*
X42934000Y-44791428D01*
X43029238Y-44696190D01*
X43124476Y-44648571D01*
X43314952Y-44600952D01*
X43457809Y-44600952D01*
X43648285Y-44648571D01*
X43743523Y-44696190D01*
X43838761Y-44791428D01*
X43886380Y-44934285D01*
X43886380Y-45172380D01*
X43886380Y-43648571D02*
X43886380Y-44220000D01*
X43886380Y-43934285D02*
X42886380Y-43934285D01*
X43029238Y-44029523D01*
X43124476Y-44124761D01*
X43172095Y-44220000D01*
%TO.C,RE1*%
X106497380Y-92719047D02*
X106021190Y-93052380D01*
X106497380Y-93290476D02*
X105497380Y-93290476D01*
X105497380Y-92909523D01*
X105545000Y-92814285D01*
X105592619Y-92766666D01*
X105687857Y-92719047D01*
X105830714Y-92719047D01*
X105925952Y-92766666D01*
X105973571Y-92814285D01*
X106021190Y-92909523D01*
X106021190Y-93290476D01*
X105973571Y-92290476D02*
X105973571Y-91957142D01*
X106497380Y-91814285D02*
X106497380Y-92290476D01*
X105497380Y-92290476D01*
X105497380Y-91814285D01*
X106497380Y-90861904D02*
X106497380Y-91433333D01*
X106497380Y-91147619D02*
X105497380Y-91147619D01*
X105640238Y-91242857D01*
X105735476Y-91338095D01*
X105783095Y-91433333D01*
%TO.C,RE2*%
X88336380Y-92694047D02*
X87860190Y-93027380D01*
X88336380Y-93265476D02*
X87336380Y-93265476D01*
X87336380Y-92884523D01*
X87384000Y-92789285D01*
X87431619Y-92741666D01*
X87526857Y-92694047D01*
X87669714Y-92694047D01*
X87764952Y-92741666D01*
X87812571Y-92789285D01*
X87860190Y-92884523D01*
X87860190Y-93265476D01*
X87812571Y-92265476D02*
X87812571Y-91932142D01*
X88336380Y-91789285D02*
X88336380Y-92265476D01*
X87336380Y-92265476D01*
X87336380Y-91789285D01*
X87431619Y-91408333D02*
X87384000Y-91360714D01*
X87336380Y-91265476D01*
X87336380Y-91027380D01*
X87384000Y-90932142D01*
X87431619Y-90884523D01*
X87526857Y-90836904D01*
X87622095Y-90836904D01*
X87764952Y-90884523D01*
X88336380Y-91455952D01*
X88336380Y-90836904D01*
%TO.C,LED2*%
X88161952Y-69667380D02*
X87685761Y-69667380D01*
X87685761Y-68667380D01*
X88495285Y-69143571D02*
X88828619Y-69143571D01*
X88971476Y-69667380D02*
X88495285Y-69667380D01*
X88495285Y-68667380D01*
X88971476Y-68667380D01*
X89400047Y-69667380D02*
X89400047Y-68667380D01*
X89638142Y-68667380D01*
X89781000Y-68715000D01*
X89876238Y-68810238D01*
X89923857Y-68905476D01*
X89971476Y-69095952D01*
X89971476Y-69238809D01*
X89923857Y-69429285D01*
X89876238Y-69524523D01*
X89781000Y-69619761D01*
X89638142Y-69667380D01*
X89400047Y-69667380D01*
X90352428Y-68762619D02*
X90400047Y-68715000D01*
X90495285Y-68667380D01*
X90733380Y-68667380D01*
X90828619Y-68715000D01*
X90876238Y-68762619D01*
X90923857Y-68857857D01*
X90923857Y-68953095D01*
X90876238Y-69095952D01*
X90304809Y-69667380D01*
X90923857Y-69667380D01*
%TO.C,LED1*%
X106322952Y-69540380D02*
X105846761Y-69540380D01*
X105846761Y-68540380D01*
X106656285Y-69016571D02*
X106989619Y-69016571D01*
X107132476Y-69540380D02*
X106656285Y-69540380D01*
X106656285Y-68540380D01*
X107132476Y-68540380D01*
X107561047Y-69540380D02*
X107561047Y-68540380D01*
X107799142Y-68540380D01*
X107942000Y-68588000D01*
X108037238Y-68683238D01*
X108084857Y-68778476D01*
X108132476Y-68968952D01*
X108132476Y-69111809D01*
X108084857Y-69302285D01*
X108037238Y-69397523D01*
X107942000Y-69492761D01*
X107799142Y-69540380D01*
X107561047Y-69540380D01*
X109084857Y-69540380D02*
X108513428Y-69540380D01*
X108799142Y-69540380D02*
X108799142Y-68540380D01*
X108703904Y-68683238D01*
X108608666Y-68778476D01*
X108513428Y-68826095D01*
%TO.C,D2*%
X90701904Y-80335380D02*
X90701904Y-79335380D01*
X90940000Y-79335380D01*
X91082857Y-79383000D01*
X91178095Y-79478238D01*
X91225714Y-79573476D01*
X91273333Y-79763952D01*
X91273333Y-79906809D01*
X91225714Y-80097285D01*
X91178095Y-80192523D01*
X91082857Y-80287761D01*
X90940000Y-80335380D01*
X90701904Y-80335380D01*
X91654285Y-79430619D02*
X91701904Y-79383000D01*
X91797142Y-79335380D01*
X92035238Y-79335380D01*
X92130476Y-79383000D01*
X92178095Y-79430619D01*
X92225714Y-79525857D01*
X92225714Y-79621095D01*
X92178095Y-79763952D01*
X91606666Y-80335380D01*
X92225714Y-80335380D01*
%TO.C,HT1*%
X116967142Y-25053380D02*
X116967142Y-24053380D01*
X116967142Y-24529571D02*
X117538571Y-24529571D01*
X117538571Y-25053380D02*
X117538571Y-24053380D01*
X117871904Y-24053380D02*
X118443333Y-24053380D01*
X118157619Y-25053380D02*
X118157619Y-24053380D01*
X119300476Y-25053380D02*
X118729047Y-25053380D01*
X119014761Y-25053380D02*
X119014761Y-24053380D01*
X118919523Y-24196238D01*
X118824285Y-24291476D01*
X118729047Y-24339095D01*
%TO.C,HT2*%
X107442142Y-25053380D02*
X107442142Y-24053380D01*
X107442142Y-24529571D02*
X108013571Y-24529571D01*
X108013571Y-25053380D02*
X108013571Y-24053380D01*
X108346904Y-24053380D02*
X108918333Y-24053380D01*
X108632619Y-25053380D02*
X108632619Y-24053380D01*
X109204047Y-24148619D02*
X109251666Y-24101000D01*
X109346904Y-24053380D01*
X109585000Y-24053380D01*
X109680238Y-24101000D01*
X109727857Y-24148619D01*
X109775476Y-24243857D01*
X109775476Y-24339095D01*
X109727857Y-24481952D01*
X109156428Y-25053380D01*
X109775476Y-25053380D01*
%TO.C,HT6*%
X69342142Y-25053380D02*
X69342142Y-24053380D01*
X69342142Y-24529571D02*
X69913571Y-24529571D01*
X69913571Y-25053380D02*
X69913571Y-24053380D01*
X70246904Y-24053380D02*
X70818333Y-24053380D01*
X70532619Y-25053380D02*
X70532619Y-24053380D01*
X71580238Y-24053380D02*
X71389761Y-24053380D01*
X71294523Y-24101000D01*
X71246904Y-24148619D01*
X71151666Y-24291476D01*
X71104047Y-24481952D01*
X71104047Y-24862904D01*
X71151666Y-24958142D01*
X71199285Y-25005761D01*
X71294523Y-25053380D01*
X71485000Y-25053380D01*
X71580238Y-25005761D01*
X71627857Y-24958142D01*
X71675476Y-24862904D01*
X71675476Y-24624809D01*
X71627857Y-24529571D01*
X71580238Y-24481952D01*
X71485000Y-24434333D01*
X71294523Y-24434333D01*
X71199285Y-24481952D01*
X71151666Y-24529571D01*
X71104047Y-24624809D01*
%TO.C,HT5*%
X78867142Y-25053380D02*
X78867142Y-24053380D01*
X78867142Y-24529571D02*
X79438571Y-24529571D01*
X79438571Y-25053380D02*
X79438571Y-24053380D01*
X79771904Y-24053380D02*
X80343333Y-24053380D01*
X80057619Y-25053380D02*
X80057619Y-24053380D01*
X81152857Y-24053380D02*
X80676666Y-24053380D01*
X80629047Y-24529571D01*
X80676666Y-24481952D01*
X80771904Y-24434333D01*
X81010000Y-24434333D01*
X81105238Y-24481952D01*
X81152857Y-24529571D01*
X81200476Y-24624809D01*
X81200476Y-24862904D01*
X81152857Y-24958142D01*
X81105238Y-25005761D01*
X81010000Y-25053380D01*
X80771904Y-25053380D01*
X80676666Y-25005761D01*
X80629047Y-24958142D01*
%TO.C,HT4*%
X88392142Y-24973380D02*
X88392142Y-23973380D01*
X88392142Y-24449571D02*
X88963571Y-24449571D01*
X88963571Y-24973380D02*
X88963571Y-23973380D01*
X89296904Y-23973380D02*
X89868333Y-23973380D01*
X89582619Y-24973380D02*
X89582619Y-23973380D01*
X90630238Y-24306714D02*
X90630238Y-24973380D01*
X90392142Y-23925761D02*
X90154047Y-24640047D01*
X90773095Y-24640047D01*
%TO.C,HT3*%
X97917142Y-25053380D02*
X97917142Y-24053380D01*
X97917142Y-24529571D02*
X98488571Y-24529571D01*
X98488571Y-25053380D02*
X98488571Y-24053380D01*
X98821904Y-24053380D02*
X99393333Y-24053380D01*
X99107619Y-25053380D02*
X99107619Y-24053380D01*
X99631428Y-24053380D02*
X100250476Y-24053380D01*
X99917142Y-24434333D01*
X100060000Y-24434333D01*
X100155238Y-24481952D01*
X100202857Y-24529571D01*
X100250476Y-24624809D01*
X100250476Y-24862904D01*
X100202857Y-24958142D01*
X100155238Y-25005761D01*
X100060000Y-25053380D01*
X99774285Y-25053380D01*
X99679047Y-25005761D01*
X99631428Y-24958142D01*
%TD*%
M02*
