%TF.GenerationSoftware,KiCad,Pcbnew,(5.1.12-1-10_14)*%
%TF.CreationDate,2021-12-22T18:06:04+01:00*%
%TF.ProjectId,terrarium,74657272-6172-4697-956d-2e6b69636164,rev?*%
%TF.SameCoordinates,Original*%
%TF.FileFunction,Soldermask,Top*%
%TF.FilePolarity,Negative*%
%FSLAX46Y46*%
G04 Gerber Fmt 4.6, Leading zero omitted, Abs format (unit mm)*
G04 Created by KiCad (PCBNEW (5.1.12-1-10_14)) date 2021-12-22 18:06:04*
%MOMM*%
%LPD*%
G01*
G04 APERTURE LIST*
%TA.AperFunction,Profile*%
%ADD10C,0.050000*%
%TD*%
%ADD11R,1.120000X2.160000*%
%ADD12R,0.900000X2.000000*%
%ADD13R,2.000000X0.900000*%
%ADD14R,5.000000X5.000000*%
%ADD15C,0.800000*%
%ADD16C,6.400000*%
%ADD17C,1.200000*%
%ADD18O,1.950000X1.700000*%
%ADD19R,2.000000X1.500000*%
%ADD20R,2.000000X3.800000*%
%ADD21C,3.000000*%
%ADD22R,3.000000X3.000000*%
%ADD23O,1.700000X1.700000*%
%ADD24R,1.700000X1.700000*%
%ADD25R,3.510000X2.540000*%
%ADD26R,1.500000X1.050000*%
%ADD27O,1.500000X1.050000*%
%ADD28C,2.500000*%
%ADD29R,1.000000X1.500000*%
G04 APERTURE END LIST*
D10*
X45000000Y-113000000D02*
G75*
G02*
X41000000Y-109000000I0J4000000D01*
G01*
X131000000Y-109000000D02*
G75*
G02*
X127000000Y-113000000I-4000000J0D01*
G01*
X127000000Y-23000000D02*
G75*
G02*
X131000000Y-27000000I0J-4000000D01*
G01*
X41000000Y-27000000D02*
G75*
G02*
X45000000Y-23000000I4000000J0D01*
G01*
X127000000Y-23000000D02*
X45000000Y-23000000D01*
X131000000Y-109000000D02*
X131000000Y-27000000D01*
X45000000Y-113000000D02*
X127000000Y-113000000D01*
X41000000Y-27000000D02*
X41000000Y-109000000D01*
%TO.C,D2*%
G36*
G01*
X88416700Y-78283399D02*
X88416700Y-81533401D01*
G75*
G02*
X88166701Y-81783400I-249999J0D01*
G01*
X86991699Y-81783400D01*
G75*
G02*
X86741700Y-81533401I0J249999D01*
G01*
X86741700Y-78283399D01*
G75*
G02*
X86991699Y-78033400I249999J0D01*
G01*
X88166701Y-78033400D01*
G75*
G02*
X88416700Y-78283399I0J-249999D01*
G01*
G37*
G36*
G01*
X92791700Y-78283399D02*
X92791700Y-81533401D01*
G75*
G02*
X92541701Y-81783400I-249999J0D01*
G01*
X91366699Y-81783400D01*
G75*
G02*
X91116700Y-81533401I0J249999D01*
G01*
X91116700Y-78283399D01*
G75*
G02*
X91366699Y-78033400I249999J0D01*
G01*
X92541701Y-78033400D01*
G75*
G02*
X92791700Y-78283399I0J-249999D01*
G01*
G37*
%TD*%
%TO.C,D1*%
G36*
G01*
X106450700Y-78283399D02*
X106450700Y-81533401D01*
G75*
G02*
X106200701Y-81783400I-249999J0D01*
G01*
X105025699Y-81783400D01*
G75*
G02*
X104775700Y-81533401I0J249999D01*
G01*
X104775700Y-78283399D01*
G75*
G02*
X105025699Y-78033400I249999J0D01*
G01*
X106200701Y-78033400D01*
G75*
G02*
X106450700Y-78283399I0J-249999D01*
G01*
G37*
G36*
G01*
X110825700Y-78283399D02*
X110825700Y-81533401D01*
G75*
G02*
X110575701Y-81783400I-249999J0D01*
G01*
X109400699Y-81783400D01*
G75*
G02*
X109150700Y-81533401I0J249999D01*
G01*
X109150700Y-78283399D01*
G75*
G02*
X109400699Y-78033400I249999J0D01*
G01*
X110575701Y-78033400D01*
G75*
G02*
X110825700Y-78283399I0J-249999D01*
G01*
G37*
%TD*%
%TO.C,D3*%
G36*
G01*
X70382700Y-78283399D02*
X70382700Y-81533401D01*
G75*
G02*
X70132701Y-81783400I-249999J0D01*
G01*
X68957699Y-81783400D01*
G75*
G02*
X68707700Y-81533401I0J249999D01*
G01*
X68707700Y-78283399D01*
G75*
G02*
X68957699Y-78033400I249999J0D01*
G01*
X70132701Y-78033400D01*
G75*
G02*
X70382700Y-78283399I0J-249999D01*
G01*
G37*
G36*
G01*
X74757700Y-78283399D02*
X74757700Y-81533401D01*
G75*
G02*
X74507701Y-81783400I-249999J0D01*
G01*
X73332699Y-81783400D01*
G75*
G02*
X73082700Y-81533401I0J249999D01*
G01*
X73082700Y-78283399D01*
G75*
G02*
X73332699Y-78033400I249999J0D01*
G01*
X74507701Y-78033400D01*
G75*
G02*
X74757700Y-78283399I0J-249999D01*
G01*
G37*
%TD*%
D11*
%TO.C,SW3*%
X46228000Y-76200000D03*
X46228000Y-69470000D03*
%TD*%
D12*
%TO.C,U1*%
X123070000Y-64745000D03*
X121800000Y-64745000D03*
X120530000Y-64745000D03*
X119260000Y-64745000D03*
X117990000Y-64745000D03*
X116720000Y-64745000D03*
X115450000Y-64745000D03*
X114180000Y-64745000D03*
X112910000Y-64745000D03*
X111640000Y-64745000D03*
X110370000Y-64745000D03*
X109100000Y-64745000D03*
X107830000Y-64745000D03*
X106560000Y-64745000D03*
D13*
X105560000Y-61960000D03*
X105560000Y-60690000D03*
X105560000Y-59420000D03*
X105560000Y-58150000D03*
X105560000Y-56880000D03*
X105560000Y-55610000D03*
X105560000Y-54340000D03*
X105560000Y-53070000D03*
X105560000Y-51800000D03*
X105560000Y-50530000D03*
D12*
X106560000Y-47745000D03*
X107830000Y-47745000D03*
X109100000Y-47745000D03*
X110370000Y-47745000D03*
X111640000Y-47745000D03*
X112910000Y-47745000D03*
X114180000Y-47745000D03*
X115450000Y-47745000D03*
X116720000Y-47745000D03*
X117990000Y-47745000D03*
X119260000Y-47745000D03*
X120530000Y-47745000D03*
X121800000Y-47745000D03*
X123070000Y-47745000D03*
D14*
X115570000Y-55245000D03*
%TD*%
%TO.C,D4*%
G36*
G01*
X53324000Y-69606000D02*
X53324000Y-70856000D01*
G75*
G02*
X53074000Y-71106000I-250000J0D01*
G01*
X52324000Y-71106000D01*
G75*
G02*
X52074000Y-70856000I0J250000D01*
G01*
X52074000Y-69606000D01*
G75*
G02*
X52324000Y-69356000I250000J0D01*
G01*
X53074000Y-69356000D01*
G75*
G02*
X53324000Y-69606000I0J-250000D01*
G01*
G37*
G36*
G01*
X56124000Y-69606000D02*
X56124000Y-70856000D01*
G75*
G02*
X55874000Y-71106000I-250000J0D01*
G01*
X55124000Y-71106000D01*
G75*
G02*
X54874000Y-70856000I0J250000D01*
G01*
X54874000Y-69606000D01*
G75*
G02*
X55124000Y-69356000I250000J0D01*
G01*
X55874000Y-69356000D01*
G75*
G02*
X56124000Y-69606000I0J-250000D01*
G01*
G37*
%TD*%
D15*
%TO.C,H3*%
X46697056Y-107302944D03*
X45000000Y-106600000D03*
X43302944Y-107302944D03*
X42600000Y-109000000D03*
X43302944Y-110697056D03*
X45000000Y-111400000D03*
X46697056Y-110697056D03*
X47400000Y-109000000D03*
D16*
X45000000Y-109000000D03*
%TD*%
D15*
%TO.C,H4*%
X128697056Y-107302944D03*
X127000000Y-106600000D03*
X125302944Y-107302944D03*
X124600000Y-109000000D03*
X125302944Y-110697056D03*
X127000000Y-111400000D03*
X128697056Y-110697056D03*
X129400000Y-109000000D03*
D16*
X127000000Y-109000000D03*
%TD*%
D15*
%TO.C,H1*%
X128697056Y-25302944D03*
X127000000Y-24600000D03*
X125302944Y-25302944D03*
X124600000Y-27000000D03*
X125302944Y-28697056D03*
X127000000Y-29400000D03*
X128697056Y-28697056D03*
X129400000Y-27000000D03*
D16*
X127000000Y-27000000D03*
%TD*%
D15*
%TO.C,H2*%
X46697056Y-25302944D03*
X45000000Y-24600000D03*
X43302944Y-25302944D03*
X42600000Y-27000000D03*
X43302944Y-28697056D03*
X45000000Y-29400000D03*
X46697056Y-28697056D03*
X47400000Y-27000000D03*
D16*
X45000000Y-27000000D03*
%TD*%
D17*
%TO.C,HT3*%
X97060000Y-27065000D03*
D18*
X99060000Y-33665000D03*
X99060000Y-31165000D03*
G36*
G01*
X98335000Y-27815000D02*
X99785000Y-27815000D01*
G75*
G02*
X100035000Y-28065000I0J-250000D01*
G01*
X100035000Y-29265000D01*
G75*
G02*
X99785000Y-29515000I-250000J0D01*
G01*
X98335000Y-29515000D01*
G75*
G02*
X98085000Y-29265000I0J250000D01*
G01*
X98085000Y-28065000D01*
G75*
G02*
X98335000Y-27815000I250000J0D01*
G01*
G37*
%TD*%
%TO.C,LED3*%
G36*
G01*
X70225000Y-72240000D02*
X70225000Y-73490000D01*
G75*
G02*
X69975000Y-73740000I-250000J0D01*
G01*
X69225000Y-73740000D01*
G75*
G02*
X68975000Y-73490000I0J250000D01*
G01*
X68975000Y-72240000D01*
G75*
G02*
X69225000Y-71990000I250000J0D01*
G01*
X69975000Y-71990000D01*
G75*
G02*
X70225000Y-72240000I0J-250000D01*
G01*
G37*
G36*
G01*
X73025000Y-72240000D02*
X73025000Y-73490000D01*
G75*
G02*
X72775000Y-73740000I-250000J0D01*
G01*
X72025000Y-73740000D01*
G75*
G02*
X71775000Y-73490000I0J250000D01*
G01*
X71775000Y-72240000D01*
G75*
G02*
X72025000Y-71990000I250000J0D01*
G01*
X72775000Y-71990000D01*
G75*
G02*
X73025000Y-72240000I0J-250000D01*
G01*
G37*
%TD*%
%TO.C,R10*%
G36*
G01*
X101787799Y-62175500D02*
X103037801Y-62175500D01*
G75*
G02*
X103287800Y-62425499I0J-249999D01*
G01*
X103287800Y-63050501D01*
G75*
G02*
X103037801Y-63300500I-249999J0D01*
G01*
X101787799Y-63300500D01*
G75*
G02*
X101537800Y-63050501I0J249999D01*
G01*
X101537800Y-62425499D01*
G75*
G02*
X101787799Y-62175500I249999J0D01*
G01*
G37*
G36*
G01*
X101787799Y-59250500D02*
X103037801Y-59250500D01*
G75*
G02*
X103287800Y-59500499I0J-249999D01*
G01*
X103287800Y-60125501D01*
G75*
G02*
X103037801Y-60375500I-249999J0D01*
G01*
X101787799Y-60375500D01*
G75*
G02*
X101537800Y-60125501I0J249999D01*
G01*
X101537800Y-59500499D01*
G75*
G02*
X101787799Y-59250500I249999J0D01*
G01*
G37*
%TD*%
%TO.C,R11*%
G36*
G01*
X101736999Y-48510300D02*
X102987001Y-48510300D01*
G75*
G02*
X103237000Y-48760299I0J-249999D01*
G01*
X103237000Y-49385301D01*
G75*
G02*
X102987001Y-49635300I-249999J0D01*
G01*
X101736999Y-49635300D01*
G75*
G02*
X101487000Y-49385301I0J249999D01*
G01*
X101487000Y-48760299D01*
G75*
G02*
X101736999Y-48510300I249999J0D01*
G01*
G37*
G36*
G01*
X101736999Y-45585300D02*
X102987001Y-45585300D01*
G75*
G02*
X103237000Y-45835299I0J-249999D01*
G01*
X103237000Y-46460301D01*
G75*
G02*
X102987001Y-46710300I-249999J0D01*
G01*
X101736999Y-46710300D01*
G75*
G02*
X101487000Y-46460301I0J249999D01*
G01*
X101487000Y-45835299D01*
G75*
G02*
X101736999Y-45585300I249999J0D01*
G01*
G37*
%TD*%
%TO.C,LED1*%
G36*
G01*
X106225000Y-72240000D02*
X106225000Y-73490000D01*
G75*
G02*
X105975000Y-73740000I-250000J0D01*
G01*
X105225000Y-73740000D01*
G75*
G02*
X104975000Y-73490000I0J250000D01*
G01*
X104975000Y-72240000D01*
G75*
G02*
X105225000Y-71990000I250000J0D01*
G01*
X105975000Y-71990000D01*
G75*
G02*
X106225000Y-72240000I0J-250000D01*
G01*
G37*
G36*
G01*
X109025000Y-72240000D02*
X109025000Y-73490000D01*
G75*
G02*
X108775000Y-73740000I-250000J0D01*
G01*
X108025000Y-73740000D01*
G75*
G02*
X107775000Y-73490000I0J250000D01*
G01*
X107775000Y-72240000D01*
G75*
G02*
X108025000Y-71990000I250000J0D01*
G01*
X108775000Y-71990000D01*
G75*
G02*
X109025000Y-72240000I0J-250000D01*
G01*
G37*
%TD*%
%TO.C,LED2*%
G36*
G01*
X88225000Y-72240000D02*
X88225000Y-73490000D01*
G75*
G02*
X87975000Y-73740000I-250000J0D01*
G01*
X87225000Y-73740000D01*
G75*
G02*
X86975000Y-73490000I0J250000D01*
G01*
X86975000Y-72240000D01*
G75*
G02*
X87225000Y-71990000I250000J0D01*
G01*
X87975000Y-71990000D01*
G75*
G02*
X88225000Y-72240000I0J-250000D01*
G01*
G37*
G36*
G01*
X91025000Y-72240000D02*
X91025000Y-73490000D01*
G75*
G02*
X90775000Y-73740000I-250000J0D01*
G01*
X90025000Y-73740000D01*
G75*
G02*
X89775000Y-73490000I0J250000D01*
G01*
X89775000Y-72240000D01*
G75*
G02*
X90025000Y-71990000I250000J0D01*
G01*
X90775000Y-71990000D01*
G75*
G02*
X91025000Y-72240000I0J-250000D01*
G01*
G37*
%TD*%
%TO.C,LED4*%
G36*
G01*
X126526800Y-36560600D02*
X126526800Y-37810600D01*
G75*
G02*
X126276800Y-38060600I-250000J0D01*
G01*
X125526800Y-38060600D01*
G75*
G02*
X125276800Y-37810600I0J250000D01*
G01*
X125276800Y-36560600D01*
G75*
G02*
X125526800Y-36310600I250000J0D01*
G01*
X126276800Y-36310600D01*
G75*
G02*
X126526800Y-36560600I0J-250000D01*
G01*
G37*
G36*
G01*
X129326800Y-36560600D02*
X129326800Y-37810600D01*
G75*
G02*
X129076800Y-38060600I-250000J0D01*
G01*
X128326800Y-38060600D01*
G75*
G02*
X128076800Y-37810600I0J250000D01*
G01*
X128076800Y-36560600D01*
G75*
G02*
X128326800Y-36310600I250000J0D01*
G01*
X129076800Y-36310600D01*
G75*
G02*
X129326800Y-36560600I0J-250000D01*
G01*
G37*
%TD*%
%TO.C,R12*%
G36*
G01*
X128139300Y-34026001D02*
X128139300Y-32775999D01*
G75*
G02*
X128389299Y-32526000I249999J0D01*
G01*
X129014301Y-32526000D01*
G75*
G02*
X129264300Y-32775999I0J-249999D01*
G01*
X129264300Y-34026001D01*
G75*
G02*
X129014301Y-34276000I-249999J0D01*
G01*
X128389299Y-34276000D01*
G75*
G02*
X128139300Y-34026001I0J249999D01*
G01*
G37*
G36*
G01*
X125214300Y-34026001D02*
X125214300Y-32775999D01*
G75*
G02*
X125464299Y-32526000I249999J0D01*
G01*
X126089301Y-32526000D01*
G75*
G02*
X126339300Y-32775999I0J-249999D01*
G01*
X126339300Y-34026001D01*
G75*
G02*
X126089301Y-34276000I-249999J0D01*
G01*
X125464299Y-34276000D01*
G75*
G02*
X125214300Y-34026001I0J249999D01*
G01*
G37*
%TD*%
%TO.C,C2*%
G36*
G01*
X120126999Y-42782800D02*
X121427001Y-42782800D01*
G75*
G02*
X121677000Y-43032799I0J-249999D01*
G01*
X121677000Y-43682801D01*
G75*
G02*
X121427001Y-43932800I-249999J0D01*
G01*
X120126999Y-43932800D01*
G75*
G02*
X119877000Y-43682801I0J249999D01*
G01*
X119877000Y-43032799D01*
G75*
G02*
X120126999Y-42782800I249999J0D01*
G01*
G37*
G36*
G01*
X120126999Y-39832800D02*
X121427001Y-39832800D01*
G75*
G02*
X121677000Y-40082799I0J-249999D01*
G01*
X121677000Y-40732801D01*
G75*
G02*
X121427001Y-40982800I-249999J0D01*
G01*
X120126999Y-40982800D01*
G75*
G02*
X119877000Y-40732801I0J249999D01*
G01*
X119877000Y-40082799D01*
G75*
G02*
X120126999Y-39832800I249999J0D01*
G01*
G37*
%TD*%
%TO.C,C3*%
G36*
G01*
X106360199Y-42810000D02*
X107660201Y-42810000D01*
G75*
G02*
X107910200Y-43059999I0J-249999D01*
G01*
X107910200Y-43710001D01*
G75*
G02*
X107660201Y-43960000I-249999J0D01*
G01*
X106360199Y-43960000D01*
G75*
G02*
X106110200Y-43710001I0J249999D01*
G01*
X106110200Y-43059999D01*
G75*
G02*
X106360199Y-42810000I249999J0D01*
G01*
G37*
G36*
G01*
X106360199Y-39860000D02*
X107660201Y-39860000D01*
G75*
G02*
X107910200Y-40109999I0J-249999D01*
G01*
X107910200Y-40760001D01*
G75*
G02*
X107660201Y-41010000I-249999J0D01*
G01*
X106360199Y-41010000D01*
G75*
G02*
X106110200Y-40760001I0J249999D01*
G01*
X106110200Y-40109999D01*
G75*
G02*
X106360199Y-39860000I249999J0D01*
G01*
G37*
%TD*%
%TO.C,C1*%
G36*
G01*
X57325499Y-28141500D02*
X58625501Y-28141500D01*
G75*
G02*
X58875500Y-28391499I0J-249999D01*
G01*
X58875500Y-29041501D01*
G75*
G02*
X58625501Y-29291500I-249999J0D01*
G01*
X57325499Y-29291500D01*
G75*
G02*
X57075500Y-29041501I0J249999D01*
G01*
X57075500Y-28391499D01*
G75*
G02*
X57325499Y-28141500I249999J0D01*
G01*
G37*
G36*
G01*
X57325499Y-25191500D02*
X58625501Y-25191500D01*
G75*
G02*
X58875500Y-25441499I0J-249999D01*
G01*
X58875500Y-26091501D01*
G75*
G02*
X58625501Y-26341500I-249999J0D01*
G01*
X57325499Y-26341500D01*
G75*
G02*
X57075500Y-26091501I0J249999D01*
G01*
X57075500Y-25441499D01*
G75*
G02*
X57325499Y-25191500I249999J0D01*
G01*
G37*
%TD*%
%TO.C,R9*%
G36*
G01*
X89026700Y-43012199D02*
X89026700Y-44262201D01*
G75*
G02*
X88776701Y-44512200I-249999J0D01*
G01*
X88151699Y-44512200D01*
G75*
G02*
X87901700Y-44262201I0J249999D01*
G01*
X87901700Y-43012199D01*
G75*
G02*
X88151699Y-42762200I249999J0D01*
G01*
X88776701Y-42762200D01*
G75*
G02*
X89026700Y-43012199I0J-249999D01*
G01*
G37*
G36*
G01*
X91951700Y-43012199D02*
X91951700Y-44262201D01*
G75*
G02*
X91701701Y-44512200I-249999J0D01*
G01*
X91076699Y-44512200D01*
G75*
G02*
X90826700Y-44262201I0J249999D01*
G01*
X90826700Y-43012199D01*
G75*
G02*
X91076699Y-42762200I249999J0D01*
G01*
X91701701Y-42762200D01*
G75*
G02*
X91951700Y-43012199I0J-249999D01*
G01*
G37*
%TD*%
%TO.C,R8*%
G36*
G01*
X90928300Y-58333801D02*
X90928300Y-57083799D01*
G75*
G02*
X91178299Y-56833800I249999J0D01*
G01*
X91803301Y-56833800D01*
G75*
G02*
X92053300Y-57083799I0J-249999D01*
G01*
X92053300Y-58333801D01*
G75*
G02*
X91803301Y-58583800I-249999J0D01*
G01*
X91178299Y-58583800D01*
G75*
G02*
X90928300Y-58333801I0J249999D01*
G01*
G37*
G36*
G01*
X88003300Y-58333801D02*
X88003300Y-57083799D01*
G75*
G02*
X88253299Y-56833800I249999J0D01*
G01*
X88878301Y-56833800D01*
G75*
G02*
X89128300Y-57083799I0J-249999D01*
G01*
X89128300Y-58333801D01*
G75*
G02*
X88878301Y-58583800I-249999J0D01*
G01*
X88253299Y-58583800D01*
G75*
G02*
X88003300Y-58333801I0J249999D01*
G01*
G37*
%TD*%
%TO.C,R7*%
G36*
G01*
X79900000Y-73490001D02*
X79900000Y-72239999D01*
G75*
G02*
X80149999Y-71990000I249999J0D01*
G01*
X80775001Y-71990000D01*
G75*
G02*
X81025000Y-72239999I0J-249999D01*
G01*
X81025000Y-73490001D01*
G75*
G02*
X80775001Y-73740000I-249999J0D01*
G01*
X80149999Y-73740000D01*
G75*
G02*
X79900000Y-73490001I0J249999D01*
G01*
G37*
G36*
G01*
X76975000Y-73490001D02*
X76975000Y-72239999D01*
G75*
G02*
X77224999Y-71990000I249999J0D01*
G01*
X77850001Y-71990000D01*
G75*
G02*
X78100000Y-72239999I0J-249999D01*
G01*
X78100000Y-73490001D01*
G75*
G02*
X77850001Y-73740000I-249999J0D01*
G01*
X77224999Y-73740000D01*
G75*
G02*
X76975000Y-73490001I0J249999D01*
G01*
G37*
%TD*%
%TO.C,R6*%
G36*
G01*
X70100000Y-75739999D02*
X70100000Y-76990001D01*
G75*
G02*
X69850001Y-77240000I-249999J0D01*
G01*
X69224999Y-77240000D01*
G75*
G02*
X68975000Y-76990001I0J249999D01*
G01*
X68975000Y-75739999D01*
G75*
G02*
X69224999Y-75490000I249999J0D01*
G01*
X69850001Y-75490000D01*
G75*
G02*
X70100000Y-75739999I0J-249999D01*
G01*
G37*
G36*
G01*
X73025000Y-75739999D02*
X73025000Y-76990001D01*
G75*
G02*
X72775001Y-77240000I-249999J0D01*
G01*
X72149999Y-77240000D01*
G75*
G02*
X71900000Y-76990001I0J249999D01*
G01*
X71900000Y-75739999D01*
G75*
G02*
X72149999Y-75490000I249999J0D01*
G01*
X72775001Y-75490000D01*
G75*
G02*
X73025000Y-75739999I0J-249999D01*
G01*
G37*
%TD*%
%TO.C,R4*%
G36*
G01*
X88100000Y-75739999D02*
X88100000Y-76990001D01*
G75*
G02*
X87850001Y-77240000I-249999J0D01*
G01*
X87224999Y-77240000D01*
G75*
G02*
X86975000Y-76990001I0J249999D01*
G01*
X86975000Y-75739999D01*
G75*
G02*
X87224999Y-75490000I249999J0D01*
G01*
X87850001Y-75490000D01*
G75*
G02*
X88100000Y-75739999I0J-249999D01*
G01*
G37*
G36*
G01*
X91025000Y-75739999D02*
X91025000Y-76990001D01*
G75*
G02*
X90775001Y-77240000I-249999J0D01*
G01*
X90149999Y-77240000D01*
G75*
G02*
X89900000Y-76990001I0J249999D01*
G01*
X89900000Y-75739999D01*
G75*
G02*
X90149999Y-75490000I249999J0D01*
G01*
X90775001Y-75490000D01*
G75*
G02*
X91025000Y-75739999I0J-249999D01*
G01*
G37*
%TD*%
%TO.C,R3*%
G36*
G01*
X97900000Y-73490001D02*
X97900000Y-72239999D01*
G75*
G02*
X98149999Y-71990000I249999J0D01*
G01*
X98775001Y-71990000D01*
G75*
G02*
X99025000Y-72239999I0J-249999D01*
G01*
X99025000Y-73490001D01*
G75*
G02*
X98775001Y-73740000I-249999J0D01*
G01*
X98149999Y-73740000D01*
G75*
G02*
X97900000Y-73490001I0J249999D01*
G01*
G37*
G36*
G01*
X94975000Y-73490001D02*
X94975000Y-72239999D01*
G75*
G02*
X95224999Y-71990000I249999J0D01*
G01*
X95850001Y-71990000D01*
G75*
G02*
X96100000Y-72239999I0J-249999D01*
G01*
X96100000Y-73490001D01*
G75*
G02*
X95850001Y-73740000I-249999J0D01*
G01*
X95224999Y-73740000D01*
G75*
G02*
X94975000Y-73490001I0J249999D01*
G01*
G37*
%TD*%
%TO.C,R2*%
G36*
G01*
X106100000Y-75739999D02*
X106100000Y-76990001D01*
G75*
G02*
X105850001Y-77240000I-249999J0D01*
G01*
X105224999Y-77240000D01*
G75*
G02*
X104975000Y-76990001I0J249999D01*
G01*
X104975000Y-75739999D01*
G75*
G02*
X105224999Y-75490000I249999J0D01*
G01*
X105850001Y-75490000D01*
G75*
G02*
X106100000Y-75739999I0J-249999D01*
G01*
G37*
G36*
G01*
X109025000Y-75739999D02*
X109025000Y-76990001D01*
G75*
G02*
X108775001Y-77240000I-249999J0D01*
G01*
X108149999Y-77240000D01*
G75*
G02*
X107900000Y-76990001I0J249999D01*
G01*
X107900000Y-75739999D01*
G75*
G02*
X108149999Y-75490000I249999J0D01*
G01*
X108775001Y-75490000D01*
G75*
G02*
X109025000Y-75739999I0J-249999D01*
G01*
G37*
%TD*%
%TO.C,R1*%
G36*
G01*
X116400000Y-73490001D02*
X116400000Y-72239999D01*
G75*
G02*
X116649999Y-71990000I249999J0D01*
G01*
X117275001Y-71990000D01*
G75*
G02*
X117525000Y-72239999I0J-249999D01*
G01*
X117525000Y-73490001D01*
G75*
G02*
X117275001Y-73740000I-249999J0D01*
G01*
X116649999Y-73740000D01*
G75*
G02*
X116400000Y-73490001I0J249999D01*
G01*
G37*
G36*
G01*
X113475000Y-73490001D02*
X113475000Y-72239999D01*
G75*
G02*
X113724999Y-71990000I249999J0D01*
G01*
X114350001Y-71990000D01*
G75*
G02*
X114600000Y-72239999I0J-249999D01*
G01*
X114600000Y-73490001D01*
G75*
G02*
X114350001Y-73740000I-249999J0D01*
G01*
X113724999Y-73740000D01*
G75*
G02*
X113475000Y-73490001I0J249999D01*
G01*
G37*
%TD*%
%TO.C,R5*%
G36*
G01*
X51997500Y-33347499D02*
X51997500Y-34597501D01*
G75*
G02*
X51747501Y-34847500I-249999J0D01*
G01*
X51122499Y-34847500D01*
G75*
G02*
X50872500Y-34597501I0J249999D01*
G01*
X50872500Y-33347499D01*
G75*
G02*
X51122499Y-33097500I249999J0D01*
G01*
X51747501Y-33097500D01*
G75*
G02*
X51997500Y-33347499I0J-249999D01*
G01*
G37*
G36*
G01*
X54922500Y-33347499D02*
X54922500Y-34597501D01*
G75*
G02*
X54672501Y-34847500I-249999J0D01*
G01*
X54047499Y-34847500D01*
G75*
G02*
X53797500Y-34597501I0J249999D01*
G01*
X53797500Y-33347499D01*
G75*
G02*
X54047499Y-33097500I249999J0D01*
G01*
X54672501Y-33097500D01*
G75*
G02*
X54922500Y-33347499I0J-249999D01*
G01*
G37*
%TD*%
D19*
%TO.C,U3*%
X116815000Y-44210000D03*
X116815000Y-39610000D03*
X116815000Y-41910000D03*
D20*
X110515000Y-41910000D03*
%TD*%
D11*
%TO.C,SW2*%
X97840800Y-55601600D03*
X97840800Y-62331600D03*
%TD*%
%TO.C,SW1*%
X97790000Y-48641000D03*
X97790000Y-41911000D03*
%TD*%
D21*
%TO.C,S4*%
X127000000Y-78105000D03*
D22*
X127000000Y-83185000D03*
%TD*%
D23*
%TO.C,UART1*%
X111920020Y-69707760D03*
X114460020Y-69707760D03*
X117000020Y-69707760D03*
D24*
X119540020Y-69707760D03*
%TD*%
%TO.C,U2*%
G36*
G01*
X90366000Y-46378000D02*
X90366000Y-46078000D01*
G75*
G02*
X90516000Y-45928000I150000J0D01*
G01*
X92266000Y-45928000D01*
G75*
G02*
X92416000Y-46078000I0J-150000D01*
G01*
X92416000Y-46378000D01*
G75*
G02*
X92266000Y-46528000I-150000J0D01*
G01*
X90516000Y-46528000D01*
G75*
G02*
X90366000Y-46378000I0J150000D01*
G01*
G37*
G36*
G01*
X90366000Y-47648000D02*
X90366000Y-47348000D01*
G75*
G02*
X90516000Y-47198000I150000J0D01*
G01*
X92266000Y-47198000D01*
G75*
G02*
X92416000Y-47348000I0J-150000D01*
G01*
X92416000Y-47648000D01*
G75*
G02*
X92266000Y-47798000I-150000J0D01*
G01*
X90516000Y-47798000D01*
G75*
G02*
X90366000Y-47648000I0J150000D01*
G01*
G37*
G36*
G01*
X90366000Y-48918000D02*
X90366000Y-48618000D01*
G75*
G02*
X90516000Y-48468000I150000J0D01*
G01*
X92266000Y-48468000D01*
G75*
G02*
X92416000Y-48618000I0J-150000D01*
G01*
X92416000Y-48918000D01*
G75*
G02*
X92266000Y-49068000I-150000J0D01*
G01*
X90516000Y-49068000D01*
G75*
G02*
X90366000Y-48918000I0J150000D01*
G01*
G37*
G36*
G01*
X90366000Y-50188000D02*
X90366000Y-49888000D01*
G75*
G02*
X90516000Y-49738000I150000J0D01*
G01*
X92266000Y-49738000D01*
G75*
G02*
X92416000Y-49888000I0J-150000D01*
G01*
X92416000Y-50188000D01*
G75*
G02*
X92266000Y-50338000I-150000J0D01*
G01*
X90516000Y-50338000D01*
G75*
G02*
X90366000Y-50188000I0J150000D01*
G01*
G37*
G36*
G01*
X90366000Y-51458000D02*
X90366000Y-51158000D01*
G75*
G02*
X90516000Y-51008000I150000J0D01*
G01*
X92266000Y-51008000D01*
G75*
G02*
X92416000Y-51158000I0J-150000D01*
G01*
X92416000Y-51458000D01*
G75*
G02*
X92266000Y-51608000I-150000J0D01*
G01*
X90516000Y-51608000D01*
G75*
G02*
X90366000Y-51458000I0J150000D01*
G01*
G37*
G36*
G01*
X90366000Y-52728000D02*
X90366000Y-52428000D01*
G75*
G02*
X90516000Y-52278000I150000J0D01*
G01*
X92266000Y-52278000D01*
G75*
G02*
X92416000Y-52428000I0J-150000D01*
G01*
X92416000Y-52728000D01*
G75*
G02*
X92266000Y-52878000I-150000J0D01*
G01*
X90516000Y-52878000D01*
G75*
G02*
X90366000Y-52728000I0J150000D01*
G01*
G37*
G36*
G01*
X90366000Y-53998000D02*
X90366000Y-53698000D01*
G75*
G02*
X90516000Y-53548000I150000J0D01*
G01*
X92266000Y-53548000D01*
G75*
G02*
X92416000Y-53698000I0J-150000D01*
G01*
X92416000Y-53998000D01*
G75*
G02*
X92266000Y-54148000I-150000J0D01*
G01*
X90516000Y-54148000D01*
G75*
G02*
X90366000Y-53998000I0J150000D01*
G01*
G37*
G36*
G01*
X90366000Y-55268000D02*
X90366000Y-54968000D01*
G75*
G02*
X90516000Y-54818000I150000J0D01*
G01*
X92266000Y-54818000D01*
G75*
G02*
X92416000Y-54968000I0J-150000D01*
G01*
X92416000Y-55268000D01*
G75*
G02*
X92266000Y-55418000I-150000J0D01*
G01*
X90516000Y-55418000D01*
G75*
G02*
X90366000Y-55268000I0J150000D01*
G01*
G37*
G36*
G01*
X81066000Y-55268000D02*
X81066000Y-54968000D01*
G75*
G02*
X81216000Y-54818000I150000J0D01*
G01*
X82966000Y-54818000D01*
G75*
G02*
X83116000Y-54968000I0J-150000D01*
G01*
X83116000Y-55268000D01*
G75*
G02*
X82966000Y-55418000I-150000J0D01*
G01*
X81216000Y-55418000D01*
G75*
G02*
X81066000Y-55268000I0J150000D01*
G01*
G37*
G36*
G01*
X81066000Y-53998000D02*
X81066000Y-53698000D01*
G75*
G02*
X81216000Y-53548000I150000J0D01*
G01*
X82966000Y-53548000D01*
G75*
G02*
X83116000Y-53698000I0J-150000D01*
G01*
X83116000Y-53998000D01*
G75*
G02*
X82966000Y-54148000I-150000J0D01*
G01*
X81216000Y-54148000D01*
G75*
G02*
X81066000Y-53998000I0J150000D01*
G01*
G37*
G36*
G01*
X81066000Y-52728000D02*
X81066000Y-52428000D01*
G75*
G02*
X81216000Y-52278000I150000J0D01*
G01*
X82966000Y-52278000D01*
G75*
G02*
X83116000Y-52428000I0J-150000D01*
G01*
X83116000Y-52728000D01*
G75*
G02*
X82966000Y-52878000I-150000J0D01*
G01*
X81216000Y-52878000D01*
G75*
G02*
X81066000Y-52728000I0J150000D01*
G01*
G37*
G36*
G01*
X81066000Y-51458000D02*
X81066000Y-51158000D01*
G75*
G02*
X81216000Y-51008000I150000J0D01*
G01*
X82966000Y-51008000D01*
G75*
G02*
X83116000Y-51158000I0J-150000D01*
G01*
X83116000Y-51458000D01*
G75*
G02*
X82966000Y-51608000I-150000J0D01*
G01*
X81216000Y-51608000D01*
G75*
G02*
X81066000Y-51458000I0J150000D01*
G01*
G37*
G36*
G01*
X81066000Y-50188000D02*
X81066000Y-49888000D01*
G75*
G02*
X81216000Y-49738000I150000J0D01*
G01*
X82966000Y-49738000D01*
G75*
G02*
X83116000Y-49888000I0J-150000D01*
G01*
X83116000Y-50188000D01*
G75*
G02*
X82966000Y-50338000I-150000J0D01*
G01*
X81216000Y-50338000D01*
G75*
G02*
X81066000Y-50188000I0J150000D01*
G01*
G37*
G36*
G01*
X81066000Y-48918000D02*
X81066000Y-48618000D01*
G75*
G02*
X81216000Y-48468000I150000J0D01*
G01*
X82966000Y-48468000D01*
G75*
G02*
X83116000Y-48618000I0J-150000D01*
G01*
X83116000Y-48918000D01*
G75*
G02*
X82966000Y-49068000I-150000J0D01*
G01*
X81216000Y-49068000D01*
G75*
G02*
X81066000Y-48918000I0J150000D01*
G01*
G37*
G36*
G01*
X81066000Y-47648000D02*
X81066000Y-47348000D01*
G75*
G02*
X81216000Y-47198000I150000J0D01*
G01*
X82966000Y-47198000D01*
G75*
G02*
X83116000Y-47348000I0J-150000D01*
G01*
X83116000Y-47648000D01*
G75*
G02*
X82966000Y-47798000I-150000J0D01*
G01*
X81216000Y-47798000D01*
G75*
G02*
X81066000Y-47648000I0J150000D01*
G01*
G37*
G36*
G01*
X81066000Y-46378000D02*
X81066000Y-46078000D01*
G75*
G02*
X81216000Y-45928000I150000J0D01*
G01*
X82966000Y-45928000D01*
G75*
G02*
X83116000Y-46078000I0J-150000D01*
G01*
X83116000Y-46378000D01*
G75*
G02*
X82966000Y-46528000I-150000J0D01*
G01*
X81216000Y-46528000D01*
G75*
G02*
X81066000Y-46378000I0J150000D01*
G01*
G37*
%TD*%
D25*
%TO.C,BT1*%
X54229000Y-104723000D03*
X54229000Y-75363000D03*
%TD*%
D26*
%TO.C,Q3*%
X78500000Y-75865000D03*
D27*
X78500000Y-78405000D03*
X78500000Y-77135000D03*
%TD*%
D26*
%TO.C,Q2*%
X97000000Y-75865000D03*
D27*
X97000000Y-78405000D03*
X97000000Y-77135000D03*
%TD*%
D26*
%TO.C,Q1*%
X115500000Y-75865000D03*
D27*
X115500000Y-78405000D03*
X115500000Y-77135000D03*
%TD*%
D21*
%TO.C,S3*%
X78580000Y-108712000D03*
D22*
X73500000Y-108712000D03*
%TD*%
D21*
%TO.C,RE3*%
X76000000Y-84000000D03*
D28*
X81950000Y-85950000D03*
D21*
X82000000Y-98200000D03*
X69950000Y-98150000D03*
D28*
X69950000Y-85950000D03*
%TD*%
D21*
%TO.C,S2*%
X96580000Y-108712000D03*
D22*
X91500000Y-108712000D03*
%TD*%
D21*
%TO.C,S1*%
X114580000Y-108712000D03*
D22*
X109500000Y-108712000D03*
%TD*%
D21*
%TO.C,S0*%
X126873000Y-92837000D03*
D22*
X126873000Y-97917000D03*
%TD*%
D29*
%TO.C,ALED1*%
X54483000Y-25834000D03*
X51283000Y-25834000D03*
X54483000Y-30734000D03*
X51283000Y-30734000D03*
%TD*%
D21*
%TO.C,RE1*%
X112000000Y-84000000D03*
D28*
X117950000Y-85950000D03*
D21*
X118000000Y-98200000D03*
X105950000Y-98150000D03*
D28*
X105950000Y-85950000D03*
%TD*%
D21*
%TO.C,RE2*%
X94000000Y-84000000D03*
D28*
X99950000Y-85950000D03*
D21*
X100000000Y-98200000D03*
X87950000Y-98150000D03*
D28*
X87950000Y-85950000D03*
%TD*%
D17*
%TO.C,i2c2*%
X46196500Y-40263000D03*
D18*
X48196500Y-49363000D03*
X48196500Y-46863000D03*
X48196500Y-44363000D03*
G36*
G01*
X47471500Y-41013000D02*
X48921500Y-41013000D01*
G75*
G02*
X49171500Y-41263000I0J-250000D01*
G01*
X49171500Y-42463000D01*
G75*
G02*
X48921500Y-42713000I-250000J0D01*
G01*
X47471500Y-42713000D01*
G75*
G02*
X47221500Y-42463000I0J250000D01*
G01*
X47221500Y-41263000D01*
G75*
G02*
X47471500Y-41013000I250000J0D01*
G01*
G37*
%TD*%
D17*
%TO.C,HT1*%
X116110000Y-27065000D03*
D18*
X118110000Y-33665000D03*
X118110000Y-31165000D03*
G36*
G01*
X117385000Y-27815000D02*
X118835000Y-27815000D01*
G75*
G02*
X119085000Y-28065000I0J-250000D01*
G01*
X119085000Y-29265000D01*
G75*
G02*
X118835000Y-29515000I-250000J0D01*
G01*
X117385000Y-29515000D01*
G75*
G02*
X117135000Y-29265000I0J250000D01*
G01*
X117135000Y-28065000D01*
G75*
G02*
X117385000Y-27815000I250000J0D01*
G01*
G37*
%TD*%
D17*
%TO.C,HT2*%
X106585000Y-27065000D03*
D18*
X108585000Y-33665000D03*
X108585000Y-31165000D03*
G36*
G01*
X107860000Y-27815000D02*
X109310000Y-27815000D01*
G75*
G02*
X109560000Y-28065000I0J-250000D01*
G01*
X109560000Y-29265000D01*
G75*
G02*
X109310000Y-29515000I-250000J0D01*
G01*
X107860000Y-29515000D01*
G75*
G02*
X107610000Y-29265000I0J250000D01*
G01*
X107610000Y-28065000D01*
G75*
G02*
X107860000Y-27815000I250000J0D01*
G01*
G37*
%TD*%
D17*
%TO.C,HT6*%
X68485000Y-27065000D03*
D18*
X70485000Y-33665000D03*
X70485000Y-31165000D03*
G36*
G01*
X69760000Y-27815000D02*
X71210000Y-27815000D01*
G75*
G02*
X71460000Y-28065000I0J-250000D01*
G01*
X71460000Y-29265000D01*
G75*
G02*
X71210000Y-29515000I-250000J0D01*
G01*
X69760000Y-29515000D01*
G75*
G02*
X69510000Y-29265000I0J250000D01*
G01*
X69510000Y-28065000D01*
G75*
G02*
X69760000Y-27815000I250000J0D01*
G01*
G37*
%TD*%
D17*
%TO.C,HT5*%
X78010000Y-27065000D03*
D18*
X80010000Y-33665000D03*
X80010000Y-31165000D03*
G36*
G01*
X79285000Y-27815000D02*
X80735000Y-27815000D01*
G75*
G02*
X80985000Y-28065000I0J-250000D01*
G01*
X80985000Y-29265000D01*
G75*
G02*
X80735000Y-29515000I-250000J0D01*
G01*
X79285000Y-29515000D01*
G75*
G02*
X79035000Y-29265000I0J250000D01*
G01*
X79035000Y-28065000D01*
G75*
G02*
X79285000Y-27815000I250000J0D01*
G01*
G37*
%TD*%
D17*
%TO.C,HT4*%
X87535000Y-27065000D03*
D18*
X89535000Y-33665000D03*
X89535000Y-31165000D03*
G36*
G01*
X88810000Y-27815000D02*
X90260000Y-27815000D01*
G75*
G02*
X90510000Y-28065000I0J-250000D01*
G01*
X90510000Y-29265000D01*
G75*
G02*
X90260000Y-29515000I-250000J0D01*
G01*
X88810000Y-29515000D01*
G75*
G02*
X88560000Y-29265000I0J250000D01*
G01*
X88560000Y-28065000D01*
G75*
G02*
X88810000Y-27815000I250000J0D01*
G01*
G37*
%TD*%
D23*
%TO.C,i2c4*%
X50038000Y-65151000D03*
X50038000Y-62611000D03*
X50038000Y-60071000D03*
D24*
X50038000Y-57531000D03*
%TD*%
D23*
%TO.C,i2c3*%
X46228000Y-65151000D03*
X46228000Y-62611000D03*
X46228000Y-60071000D03*
D24*
X46228000Y-57531000D03*
%TD*%
M02*
