%TF.GenerationSoftware,KiCad,Pcbnew,(5.1.10)-1*%
%TF.CreationDate,2021-12-02T23:37:58+01:00*%
%TF.ProjectId,terrarium,74657272-6172-4697-956d-2e6b69636164,rev?*%
%TF.SameCoordinates,Original*%
%TF.FileFunction,Soldermask,Top*%
%TF.FilePolarity,Negative*%
%FSLAX46Y46*%
G04 Gerber Fmt 4.6, Leading zero omitted, Abs format (unit mm)*
G04 Created by KiCad (PCBNEW (5.1.10)-1) date 2021-12-02 23:37:58*
%MOMM*%
%LPD*%
G01*
G04 APERTURE LIST*
%TA.AperFunction,Profile*%
%ADD10C,0.050000*%
%TD*%
%ADD11R,1.500000X1.500000*%
%ADD12O,1.600000X1.600000*%
%ADD13C,1.600000*%
%ADD14O,2.200000X2.200000*%
%ADD15R,2.200000X2.200000*%
%ADD16R,1.500000X1.000000*%
%ADD17C,5.600000*%
%ADD18C,3.000000*%
%ADD19C,2.500000*%
%ADD20R,1.300000X1.300000*%
%ADD21C,1.300000*%
%ADD22R,3.000000X3.000000*%
%ADD23C,1.800000*%
%ADD24R,1.800000X1.800000*%
%ADD25C,1.200000*%
%ADD26O,1.700000X1.950000*%
%ADD27O,1.700000X1.700000*%
%ADD28R,1.700000X1.700000*%
%ADD29O,1.950000X1.700000*%
G04 APERTURE END LIST*
D10*
X45000000Y-113000000D02*
G75*
G02*
X41000000Y-109000000I0J4000000D01*
G01*
X131000000Y-109000000D02*
G75*
G02*
X127000000Y-113000000I-4000000J0D01*
G01*
X127000000Y-23000000D02*
G75*
G02*
X131000000Y-27000000I0J-4000000D01*
G01*
X41000000Y-27000000D02*
G75*
G02*
X45000000Y-23000000I4000000J0D01*
G01*
X127000000Y-23000000D02*
X45000000Y-23000000D01*
X131000000Y-109000000D02*
X131000000Y-27000000D01*
X45000000Y-113000000D02*
X127000000Y-113000000D01*
X41000000Y-27000000D02*
X41000000Y-109000000D01*
D11*
%TO.C,TP2*%
X63449200Y-40487600D03*
%TD*%
%TO.C,TP1*%
X65989200Y-40487600D03*
%TD*%
D12*
%TO.C,R5*%
X62611000Y-43688000D03*
D13*
X70231000Y-43688000D03*
%TD*%
D14*
%TO.C,D1*%
X115951000Y-80137000D03*
D15*
X123571000Y-80137000D03*
%TD*%
D12*
%TO.C,R4*%
X89281000Y-76581000D03*
D13*
X96901000Y-76581000D03*
%TD*%
D12*
%TO.C,R3*%
X91313000Y-72644000D03*
D13*
X83693000Y-72644000D03*
%TD*%
D12*
%TO.C,R2*%
X115951000Y-76708000D03*
D13*
X123571000Y-76708000D03*
%TD*%
D12*
%TO.C,R1*%
X117983000Y-72898000D03*
D13*
X110363000Y-72898000D03*
%TD*%
%TO.C,C1*%
X50212000Y-52070000D03*
X45212000Y-52070000D03*
%TD*%
D16*
%TO.C,AD1*%
X45302000Y-44120000D03*
X45302000Y-47320000D03*
X50202000Y-44120000D03*
X50202000Y-47320000D03*
%TD*%
D17*
%TO.C,H4*%
X127000000Y-109000000D03*
%TD*%
%TO.C,H2*%
X45000000Y-27000000D03*
%TD*%
%TO.C,H3*%
X45000000Y-109000000D03*
%TD*%
%TO.C,H1*%
X127000000Y-27000000D03*
%TD*%
D18*
%TO.C,RE1*%
X112395000Y-83820000D03*
D19*
X118345000Y-85770000D03*
D18*
X118395000Y-98020000D03*
X106345000Y-97970000D03*
D19*
X106345000Y-85770000D03*
%TD*%
D20*
%TO.C,TR2*%
X94361000Y-72644000D03*
D21*
X96901000Y-72644000D03*
X95631000Y-71374000D03*
%TD*%
D20*
%TO.C,TR1*%
X121031000Y-72898000D03*
D21*
X123571000Y-72898000D03*
X122301000Y-71628000D03*
%TD*%
D18*
%TO.C,S2*%
X80010000Y-108712000D03*
X85090000Y-108712000D03*
D22*
X90170000Y-108712000D03*
%TD*%
D18*
%TO.C,S1*%
X107442000Y-108712000D03*
X112522000Y-108712000D03*
D22*
X117602000Y-108712000D03*
%TD*%
D18*
%TO.C,RE2*%
X85090000Y-83820000D03*
D19*
X91040000Y-85770000D03*
D18*
X91090000Y-98020000D03*
X79040000Y-97970000D03*
D19*
X79040000Y-85770000D03*
%TD*%
D23*
%TO.C,LED2*%
X78486000Y-72644000D03*
D24*
X81026000Y-72644000D03*
%TD*%
D23*
%TO.C,LED1*%
X105156000Y-72898000D03*
D24*
X107696000Y-72898000D03*
%TD*%
D14*
%TO.C,D2*%
X89281000Y-80010000D03*
D15*
X96901000Y-80010000D03*
%TD*%
D25*
%TO.C,i2c2*%
X67640000Y-47784000D03*
D26*
X58540000Y-49784000D03*
X61040000Y-49784000D03*
X63540000Y-49784000D03*
G36*
G01*
X66890000Y-49059000D02*
X66890000Y-50509000D01*
G75*
G02*
X66640000Y-50759000I-250000J0D01*
G01*
X65440000Y-50759000D01*
G75*
G02*
X65190000Y-50509000I0J250000D01*
G01*
X65190000Y-49059000D01*
G75*
G02*
X65440000Y-48809000I250000J0D01*
G01*
X66640000Y-48809000D01*
G75*
G02*
X66890000Y-49059000I0J-250000D01*
G01*
G37*
%TD*%
D27*
%TO.C,relay2*%
X85344000Y-80010000D03*
X82804000Y-80010000D03*
D28*
X80264000Y-80010000D03*
%TD*%
D25*
%TO.C,HT1*%
X120110000Y-35255000D03*
D29*
X118110000Y-28655000D03*
X118110000Y-31155000D03*
G36*
G01*
X118835000Y-34505000D02*
X117385000Y-34505000D01*
G75*
G02*
X117135000Y-34255000I0J250000D01*
G01*
X117135000Y-33055000D01*
G75*
G02*
X117385000Y-32805000I250000J0D01*
G01*
X118835000Y-32805000D01*
G75*
G02*
X119085000Y-33055000I0J-250000D01*
G01*
X119085000Y-34255000D01*
G75*
G02*
X118835000Y-34505000I-250000J0D01*
G01*
G37*
%TD*%
D25*
%TO.C,HT2*%
X110585000Y-35255000D03*
D29*
X108585000Y-28655000D03*
X108585000Y-31155000D03*
G36*
G01*
X109310000Y-34505000D02*
X107860000Y-34505000D01*
G75*
G02*
X107610000Y-34255000I0J250000D01*
G01*
X107610000Y-33055000D01*
G75*
G02*
X107860000Y-32805000I250000J0D01*
G01*
X109310000Y-32805000D01*
G75*
G02*
X109560000Y-33055000I0J-250000D01*
G01*
X109560000Y-34255000D01*
G75*
G02*
X109310000Y-34505000I-250000J0D01*
G01*
G37*
%TD*%
D25*
%TO.C,HT6*%
X72485000Y-35255000D03*
D29*
X70485000Y-28655000D03*
X70485000Y-31155000D03*
G36*
G01*
X71210000Y-34505000D02*
X69760000Y-34505000D01*
G75*
G02*
X69510000Y-34255000I0J250000D01*
G01*
X69510000Y-33055000D01*
G75*
G02*
X69760000Y-32805000I250000J0D01*
G01*
X71210000Y-32805000D01*
G75*
G02*
X71460000Y-33055000I0J-250000D01*
G01*
X71460000Y-34255000D01*
G75*
G02*
X71210000Y-34505000I-250000J0D01*
G01*
G37*
%TD*%
D25*
%TO.C,HT5*%
X82010000Y-35255000D03*
D29*
X80010000Y-28655000D03*
X80010000Y-31155000D03*
G36*
G01*
X80735000Y-34505000D02*
X79285000Y-34505000D01*
G75*
G02*
X79035000Y-34255000I0J250000D01*
G01*
X79035000Y-33055000D01*
G75*
G02*
X79285000Y-32805000I250000J0D01*
G01*
X80735000Y-32805000D01*
G75*
G02*
X80985000Y-33055000I0J-250000D01*
G01*
X80985000Y-34255000D01*
G75*
G02*
X80735000Y-34505000I-250000J0D01*
G01*
G37*
%TD*%
D25*
%TO.C,HT4*%
X91535000Y-35255000D03*
D29*
X89535000Y-28655000D03*
X89535000Y-31155000D03*
G36*
G01*
X90260000Y-34505000D02*
X88810000Y-34505000D01*
G75*
G02*
X88560000Y-34255000I0J250000D01*
G01*
X88560000Y-33055000D01*
G75*
G02*
X88810000Y-32805000I250000J0D01*
G01*
X90260000Y-32805000D01*
G75*
G02*
X90510000Y-33055000I0J-250000D01*
G01*
X90510000Y-34255000D01*
G75*
G02*
X90260000Y-34505000I-250000J0D01*
G01*
G37*
%TD*%
D25*
%TO.C,HT3*%
X101060000Y-35255000D03*
D29*
X99060000Y-28655000D03*
X99060000Y-31155000D03*
G36*
G01*
X99785000Y-34505000D02*
X98335000Y-34505000D01*
G75*
G02*
X98085000Y-34255000I0J250000D01*
G01*
X98085000Y-33055000D01*
G75*
G02*
X98335000Y-32805000I250000J0D01*
G01*
X99785000Y-32805000D01*
G75*
G02*
X100035000Y-33055000I0J-250000D01*
G01*
X100035000Y-34255000D01*
G75*
G02*
X99785000Y-34505000I-250000J0D01*
G01*
G37*
%TD*%
D27*
%TO.C,esp32-left1*%
X77470000Y-40894000D03*
X80010000Y-40894000D03*
X82550000Y-40894000D03*
X85090000Y-40894000D03*
X87630000Y-40894000D03*
X90170000Y-40894000D03*
X92710000Y-40894000D03*
X95250000Y-40894000D03*
X97790000Y-40894000D03*
X100330000Y-40894000D03*
X102870000Y-40894000D03*
X105410000Y-40894000D03*
X107950000Y-40894000D03*
X110490000Y-40894000D03*
X113030000Y-40894000D03*
X115570000Y-40894000D03*
X118110000Y-40894000D03*
X120650000Y-40894000D03*
D28*
X123190000Y-40894000D03*
%TD*%
%TO.C,relay1*%
X106680000Y-80010000D03*
D27*
X109220000Y-80010000D03*
X111760000Y-80010000D03*
%TD*%
%TO.C,i2c4*%
X58420000Y-61976000D03*
X60960000Y-61976000D03*
X63500000Y-61976000D03*
D28*
X66040000Y-61976000D03*
%TD*%
D27*
%TO.C,rxtx1*%
X60325000Y-40386000D03*
D28*
X57785000Y-40386000D03*
%TD*%
D27*
%TO.C,i2c3*%
X58420000Y-57150000D03*
X60960000Y-57150000D03*
X63500000Y-57150000D03*
D28*
X66040000Y-57150000D03*
%TD*%
D27*
%TO.C,ExternalPower1*%
X48260000Y-57150000D03*
X48260000Y-59690000D03*
D28*
X48260000Y-62230000D03*
%TD*%
D27*
%TO.C,i2c1*%
X58420000Y-74930000D03*
X60960000Y-74930000D03*
X63500000Y-74930000D03*
D28*
X66040000Y-74930000D03*
%TD*%
D27*
%TO.C,esp32-right1*%
X77470000Y-66294000D03*
X80010000Y-66294000D03*
X82550000Y-66294000D03*
X85090000Y-66294000D03*
X87630000Y-66294000D03*
X90170000Y-66294000D03*
X92710000Y-66294000D03*
X95250000Y-66294000D03*
X97790000Y-66294000D03*
X100330000Y-66294000D03*
X102870000Y-66294000D03*
X105410000Y-66294000D03*
X107950000Y-66294000D03*
X110490000Y-66294000D03*
X113030000Y-66294000D03*
X115570000Y-66294000D03*
X118110000Y-66294000D03*
X120650000Y-66294000D03*
D28*
X123190000Y-66294000D03*
%TD*%
M02*
