%TF.GenerationSoftware,KiCad,Pcbnew,(5.1.10)-1*%
%TF.CreationDate,2021-12-02T23:37:58+01:00*%
%TF.ProjectId,terrarium,74657272-6172-4697-956d-2e6b69636164,rev?*%
%TF.SameCoordinates,Original*%
%TF.FileFunction,Copper,L2,Bot*%
%TF.FilePolarity,Positive*%
%FSLAX46Y46*%
G04 Gerber Fmt 4.6, Leading zero omitted, Abs format (unit mm)*
G04 Created by KiCad (PCBNEW (5.1.10)-1) date 2021-12-02 23:37:58*
%MOMM*%
%LPD*%
G01*
G04 APERTURE LIST*
%TA.AperFunction,Profile*%
%ADD10C,0.050000*%
%TD*%
%TA.AperFunction,ComponentPad*%
%ADD11O,1.600000X1.600000*%
%TD*%
%TA.AperFunction,ComponentPad*%
%ADD12C,1.600000*%
%TD*%
%TA.AperFunction,ComponentPad*%
%ADD13O,2.200000X2.200000*%
%TD*%
%TA.AperFunction,ComponentPad*%
%ADD14R,2.200000X2.200000*%
%TD*%
%TA.AperFunction,ComponentPad*%
%ADD15C,5.600000*%
%TD*%
%TA.AperFunction,ComponentPad*%
%ADD16C,3.000000*%
%TD*%
%TA.AperFunction,ComponentPad*%
%ADD17C,2.500000*%
%TD*%
%TA.AperFunction,ComponentPad*%
%ADD18R,1.300000X1.300000*%
%TD*%
%TA.AperFunction,ComponentPad*%
%ADD19C,1.300000*%
%TD*%
%TA.AperFunction,ComponentPad*%
%ADD20R,3.000000X3.000000*%
%TD*%
%TA.AperFunction,ComponentPad*%
%ADD21C,1.800000*%
%TD*%
%TA.AperFunction,ComponentPad*%
%ADD22R,1.800000X1.800000*%
%TD*%
%TA.AperFunction,ComponentPad*%
%ADD23O,1.700000X1.950000*%
%TD*%
%TA.AperFunction,ComponentPad*%
%ADD24O,1.700000X1.700000*%
%TD*%
%TA.AperFunction,ComponentPad*%
%ADD25R,1.700000X1.700000*%
%TD*%
%TA.AperFunction,ComponentPad*%
%ADD26O,1.950000X1.700000*%
%TD*%
%TA.AperFunction,ViaPad*%
%ADD27C,0.800000*%
%TD*%
%TA.AperFunction,Conductor*%
%ADD28C,0.800000*%
%TD*%
%TA.AperFunction,Conductor*%
%ADD29C,0.250000*%
%TD*%
%TA.AperFunction,Conductor*%
%ADD30C,2.000000*%
%TD*%
%TA.AperFunction,Conductor*%
%ADD31C,0.400000*%
%TD*%
%TA.AperFunction,Conductor*%
%ADD32C,0.254000*%
%TD*%
%TA.AperFunction,Conductor*%
%ADD33C,0.100000*%
%TD*%
G04 APERTURE END LIST*
D10*
X45000000Y-113000000D02*
G75*
G02*
X41000000Y-109000000I0J4000000D01*
G01*
X131000000Y-109000000D02*
G75*
G02*
X127000000Y-113000000I-4000000J0D01*
G01*
X127000000Y-23000000D02*
G75*
G02*
X131000000Y-27000000I0J-4000000D01*
G01*
X41000000Y-27000000D02*
G75*
G02*
X45000000Y-23000000I4000000J0D01*
G01*
X127000000Y-23000000D02*
X45000000Y-23000000D01*
X131000000Y-109000000D02*
X131000000Y-27000000D01*
X45000000Y-113000000D02*
X127000000Y-113000000D01*
X41000000Y-27000000D02*
X41000000Y-109000000D01*
D11*
%TO.P,R5,2*%
%TO.N,Net-(AD1-Pad4)*%
X62611000Y-43688000D03*
D12*
%TO.P,R5,1*%
%TO.N,G23*%
X70231000Y-43688000D03*
%TD*%
D13*
%TO.P,D1,2*%
%TO.N,Net-(D1-Pad2)*%
X115951000Y-80137000D03*
D14*
%TO.P,D1,1*%
%TO.N,+5V*%
X123571000Y-80137000D03*
%TD*%
D11*
%TO.P,R4,2*%
%TO.N,Net-(D2-Pad2)*%
X89281000Y-76581000D03*
D12*
%TO.P,R4,1*%
%TO.N,Net-(R4-Pad1)*%
X96901000Y-76581000D03*
%TD*%
D11*
%TO.P,R3,2*%
%TO.N,Net-(R3-Pad2)*%
X91313000Y-72644000D03*
D12*
%TO.P,R3,1*%
%TO.N,Net-(LED2-Pad1)*%
X83693000Y-72644000D03*
%TD*%
D11*
%TO.P,R2,2*%
%TO.N,Net-(D1-Pad2)*%
X115951000Y-76708000D03*
D12*
%TO.P,R2,1*%
%TO.N,Net-(R2-Pad1)*%
X123571000Y-76708000D03*
%TD*%
D11*
%TO.P,R1,2*%
%TO.N,Net-(R1-Pad2)*%
X117983000Y-72898000D03*
D12*
%TO.P,R1,1*%
%TO.N,Net-(LED1-Pad1)*%
X110363000Y-72898000D03*
%TD*%
%TO.P,C1,2*%
%TO.N,GND*%
X50212000Y-52070000D03*
%TO.P,C1,1*%
%TO.N,+5V*%
X45212000Y-52070000D03*
%TD*%
D15*
%TO.P,H4,1*%
%TO.N,N/C*%
X127000000Y-109000000D03*
%TD*%
%TO.P,H2,1*%
%TO.N,N/C*%
X45000000Y-27000000D03*
%TD*%
%TO.P,H3,1*%
%TO.N,N/C*%
X45000000Y-109000000D03*
%TD*%
%TO.P,H1,1*%
%TO.N,N/C*%
X127000000Y-27000000D03*
%TD*%
D16*
%TO.P,RE1,1*%
%TO.N,Net-(RE1-Pad1)*%
X112395000Y-83820000D03*
D17*
%TO.P,RE1,5*%
%TO.N,+5V*%
X118345000Y-85770000D03*
D16*
%TO.P,RE1,4*%
%TO.N,Net-(RE1-Pad4)*%
X118395000Y-98020000D03*
%TO.P,RE1,3*%
%TO.N,Net-(RE1-Pad3)*%
X106345000Y-97970000D03*
D17*
%TO.P,RE1,2*%
%TO.N,Net-(D1-Pad2)*%
X106345000Y-85770000D03*
%TD*%
D18*
%TO.P,TR2,1*%
%TO.N,Net-(R3-Pad2)*%
X94361000Y-72644000D03*
D19*
%TO.P,TR2,3*%
%TO.N,Net-(R4-Pad1)*%
X96901000Y-72644000D03*
%TO.P,TR2,2*%
%TO.N,GND*%
X95631000Y-71374000D03*
%TD*%
D18*
%TO.P,TR1,1*%
%TO.N,Net-(R1-Pad2)*%
X121031000Y-72898000D03*
D19*
%TO.P,TR1,3*%
%TO.N,Net-(R2-Pad1)*%
X123571000Y-72898000D03*
%TO.P,TR1,2*%
%TO.N,GND*%
X122301000Y-71628000D03*
%TD*%
D16*
%TO.P,S2,3*%
%TO.N,Net-(RE2-Pad3)*%
X80010000Y-108712000D03*
%TO.P,S2,2*%
%TO.N,Net-(RE2-Pad1)*%
X85090000Y-108712000D03*
D20*
%TO.P,S2,1*%
%TO.N,Net-(RE2-Pad4)*%
X90170000Y-108712000D03*
%TD*%
D16*
%TO.P,S1,3*%
%TO.N,Net-(RE1-Pad3)*%
X107442000Y-108712000D03*
%TO.P,S1,2*%
%TO.N,Net-(RE1-Pad1)*%
X112522000Y-108712000D03*
D20*
%TO.P,S1,1*%
%TO.N,Net-(RE1-Pad4)*%
X117602000Y-108712000D03*
%TD*%
D16*
%TO.P,RE2,1*%
%TO.N,Net-(RE2-Pad1)*%
X85090000Y-83820000D03*
D17*
%TO.P,RE2,5*%
%TO.N,+5V*%
X91040000Y-85770000D03*
D16*
%TO.P,RE2,4*%
%TO.N,Net-(RE2-Pad4)*%
X91090000Y-98020000D03*
%TO.P,RE2,3*%
%TO.N,Net-(RE2-Pad3)*%
X79040000Y-97970000D03*
D17*
%TO.P,RE2,2*%
%TO.N,Net-(D2-Pad2)*%
X79040000Y-85770000D03*
%TD*%
D21*
%TO.P,LED2,2*%
%TO.N,G5*%
X78486000Y-72644000D03*
D22*
%TO.P,LED2,1*%
%TO.N,Net-(LED2-Pad1)*%
X81026000Y-72644000D03*
%TD*%
D21*
%TO.P,LED1,2*%
%TO.N,G4*%
X105156000Y-72898000D03*
D22*
%TO.P,LED1,1*%
%TO.N,Net-(LED1-Pad1)*%
X107696000Y-72898000D03*
%TD*%
D13*
%TO.P,D2,2*%
%TO.N,Net-(D2-Pad2)*%
X89281000Y-80010000D03*
D14*
%TO.P,D2,1*%
%TO.N,+5V*%
X96901000Y-80010000D03*
%TD*%
D23*
%TO.P,i2c2,4*%
%TO.N,SCL*%
X58540000Y-49784000D03*
%TO.P,i2c2,3*%
%TO.N,SDA*%
X61040000Y-49784000D03*
%TO.P,i2c2,2*%
%TO.N,+5V*%
X63540000Y-49784000D03*
%TO.P,i2c2,1*%
%TO.N,GND*%
%TA.AperFunction,ComponentPad*%
G36*
G01*
X66890000Y-49059000D02*
X66890000Y-50509000D01*
G75*
G02*
X66640000Y-50759000I-250000J0D01*
G01*
X65440000Y-50759000D01*
G75*
G02*
X65190000Y-50509000I0J250000D01*
G01*
X65190000Y-49059000D01*
G75*
G02*
X65440000Y-48809000I250000J0D01*
G01*
X66640000Y-48809000D01*
G75*
G02*
X66890000Y-49059000I0J-250000D01*
G01*
G37*
%TD.AperFunction*%
%TD*%
D24*
%TO.P,relay2,3*%
%TO.N,G5*%
X85344000Y-80010000D03*
%TO.P,relay2,2*%
%TO.N,+5V*%
X82804000Y-80010000D03*
D25*
%TO.P,relay2,1*%
%TO.N,GND*%
X80264000Y-80010000D03*
%TD*%
D26*
%TO.P,HT1,3*%
%TO.N,+5V*%
X118110000Y-28655000D03*
%TO.P,HT1,2*%
%TO.N,G15*%
X118110000Y-31155000D03*
%TO.P,HT1,1*%
%TO.N,GND*%
%TA.AperFunction,ComponentPad*%
G36*
G01*
X118835000Y-34505000D02*
X117385000Y-34505000D01*
G75*
G02*
X117135000Y-34255000I0J250000D01*
G01*
X117135000Y-33055000D01*
G75*
G02*
X117385000Y-32805000I250000J0D01*
G01*
X118835000Y-32805000D01*
G75*
G02*
X119085000Y-33055000I0J-250000D01*
G01*
X119085000Y-34255000D01*
G75*
G02*
X118835000Y-34505000I-250000J0D01*
G01*
G37*
%TD.AperFunction*%
%TD*%
%TO.P,HT2,3*%
%TO.N,+5V*%
X108585000Y-28655000D03*
%TO.P,HT2,2*%
%TO.N,G2*%
X108585000Y-31155000D03*
%TO.P,HT2,1*%
%TO.N,GND*%
%TA.AperFunction,ComponentPad*%
G36*
G01*
X109310000Y-34505000D02*
X107860000Y-34505000D01*
G75*
G02*
X107610000Y-34255000I0J250000D01*
G01*
X107610000Y-33055000D01*
G75*
G02*
X107860000Y-32805000I250000J0D01*
G01*
X109310000Y-32805000D01*
G75*
G02*
X109560000Y-33055000I0J-250000D01*
G01*
X109560000Y-34255000D01*
G75*
G02*
X109310000Y-34505000I-250000J0D01*
G01*
G37*
%TD.AperFunction*%
%TD*%
%TO.P,HT6,3*%
%TO.N,+5V*%
X70485000Y-28655000D03*
%TO.P,HT6,2*%
%TO.N,G19*%
X70485000Y-31155000D03*
%TO.P,HT6,1*%
%TO.N,GND*%
%TA.AperFunction,ComponentPad*%
G36*
G01*
X71210000Y-34505000D02*
X69760000Y-34505000D01*
G75*
G02*
X69510000Y-34255000I0J250000D01*
G01*
X69510000Y-33055000D01*
G75*
G02*
X69760000Y-32805000I250000J0D01*
G01*
X71210000Y-32805000D01*
G75*
G02*
X71460000Y-33055000I0J-250000D01*
G01*
X71460000Y-34255000D01*
G75*
G02*
X71210000Y-34505000I-250000J0D01*
G01*
G37*
%TD.AperFunction*%
%TD*%
%TO.P,HT5,3*%
%TO.N,+5V*%
X80010000Y-28655000D03*
%TO.P,HT5,2*%
%TO.N,G18*%
X80010000Y-31155000D03*
%TO.P,HT5,1*%
%TO.N,GND*%
%TA.AperFunction,ComponentPad*%
G36*
G01*
X80735000Y-34505000D02*
X79285000Y-34505000D01*
G75*
G02*
X79035000Y-34255000I0J250000D01*
G01*
X79035000Y-33055000D01*
G75*
G02*
X79285000Y-32805000I250000J0D01*
G01*
X80735000Y-32805000D01*
G75*
G02*
X80985000Y-33055000I0J-250000D01*
G01*
X80985000Y-34255000D01*
G75*
G02*
X80735000Y-34505000I-250000J0D01*
G01*
G37*
%TD.AperFunction*%
%TD*%
%TO.P,HT4,3*%
%TO.N,+5V*%
X89535000Y-28655000D03*
%TO.P,HT4,2*%
%TO.N,G17*%
X89535000Y-31155000D03*
%TO.P,HT4,1*%
%TO.N,GND*%
%TA.AperFunction,ComponentPad*%
G36*
G01*
X90260000Y-34505000D02*
X88810000Y-34505000D01*
G75*
G02*
X88560000Y-34255000I0J250000D01*
G01*
X88560000Y-33055000D01*
G75*
G02*
X88810000Y-32805000I250000J0D01*
G01*
X90260000Y-32805000D01*
G75*
G02*
X90510000Y-33055000I0J-250000D01*
G01*
X90510000Y-34255000D01*
G75*
G02*
X90260000Y-34505000I-250000J0D01*
G01*
G37*
%TD.AperFunction*%
%TD*%
%TO.P,HT3,3*%
%TO.N,+5V*%
X99060000Y-28655000D03*
%TO.P,HT3,2*%
%TO.N,G16*%
X99060000Y-31155000D03*
%TO.P,HT3,1*%
%TO.N,GND*%
%TA.AperFunction,ComponentPad*%
G36*
G01*
X99785000Y-34505000D02*
X98335000Y-34505000D01*
G75*
G02*
X98085000Y-34255000I0J250000D01*
G01*
X98085000Y-33055000D01*
G75*
G02*
X98335000Y-32805000I250000J0D01*
G01*
X99785000Y-32805000D01*
G75*
G02*
X100035000Y-33055000I0J-250000D01*
G01*
X100035000Y-34255000D01*
G75*
G02*
X99785000Y-34505000I-250000J0D01*
G01*
G37*
%TD.AperFunction*%
%TD*%
D24*
%TO.P,esp32-left1,19*%
%TO.N,GND*%
X77470000Y-40894000D03*
%TO.P,esp32-left1,18*%
%TO.N,G23*%
X80010000Y-40894000D03*
%TO.P,esp32-left1,17*%
%TO.N,SCL*%
X82550000Y-40894000D03*
%TO.P,esp32-left1,16*%
%TO.N,TX*%
X85090000Y-40894000D03*
%TO.P,esp32-left1,15*%
%TO.N,RX*%
X87630000Y-40894000D03*
%TO.P,esp32-left1,14*%
%TO.N,SDA*%
X90170000Y-40894000D03*
%TO.P,esp32-left1,13*%
%TO.N,GND*%
X92710000Y-40894000D03*
%TO.P,esp32-left1,12*%
%TO.N,G19*%
X95250000Y-40894000D03*
%TO.P,esp32-left1,11*%
%TO.N,G18*%
X97790000Y-40894000D03*
%TO.P,esp32-left1,10*%
%TO.N,G5*%
X100330000Y-40894000D03*
%TO.P,esp32-left1,9*%
%TO.N,G17*%
X102870000Y-40894000D03*
%TO.P,esp32-left1,8*%
%TO.N,G16*%
X105410000Y-40894000D03*
%TO.P,esp32-left1,7*%
%TO.N,G4*%
X107950000Y-40894000D03*
%TO.P,esp32-left1,6*%
%TO.N,Net-(esp32-left1-Pad6)*%
X110490000Y-40894000D03*
%TO.P,esp32-left1,5*%
%TO.N,G2*%
X113030000Y-40894000D03*
%TO.P,esp32-left1,4*%
%TO.N,G15*%
X115570000Y-40894000D03*
%TO.P,esp32-left1,3*%
%TO.N,Net-(esp32-left1-Pad3)*%
X118110000Y-40894000D03*
%TO.P,esp32-left1,2*%
%TO.N,Net-(esp32-left1-Pad2)*%
X120650000Y-40894000D03*
D25*
%TO.P,esp32-left1,1*%
%TO.N,Net-(esp32-left1-Pad1)*%
X123190000Y-40894000D03*
%TD*%
%TO.P,relay1,1*%
%TO.N,GND*%
X106680000Y-80010000D03*
D24*
%TO.P,relay1,2*%
%TO.N,+5V*%
X109220000Y-80010000D03*
%TO.P,relay1,3*%
%TO.N,G4*%
X111760000Y-80010000D03*
%TD*%
%TO.P,i2c4,4*%
%TO.N,SCL*%
X58420000Y-61976000D03*
%TO.P,i2c4,3*%
%TO.N,SDA*%
X60960000Y-61976000D03*
%TO.P,i2c4,2*%
%TO.N,+3V3*%
X63500000Y-61976000D03*
D25*
%TO.P,i2c4,1*%
%TO.N,GND*%
X66040000Y-61976000D03*
%TD*%
D24*
%TO.P,rxtx1,2*%
%TO.N,TX*%
X60325000Y-40386000D03*
D25*
%TO.P,rxtx1,1*%
%TO.N,RX*%
X57785000Y-40386000D03*
%TD*%
D24*
%TO.P,i2c3,4*%
%TO.N,SCL*%
X58420000Y-57150000D03*
%TO.P,i2c3,3*%
%TO.N,SDA*%
X60960000Y-57150000D03*
%TO.P,i2c3,2*%
%TO.N,+5V*%
X63500000Y-57150000D03*
D25*
%TO.P,i2c3,1*%
%TO.N,GND*%
X66040000Y-57150000D03*
%TD*%
D24*
%TO.P,ExternalPower1,3*%
%TO.N,+5V*%
X48260000Y-57150000D03*
%TO.P,ExternalPower1,2*%
%TO.N,+3V3*%
X48260000Y-59690000D03*
D25*
%TO.P,ExternalPower1,1*%
%TO.N,GND*%
X48260000Y-62230000D03*
%TD*%
D24*
%TO.P,i2c1,4*%
%TO.N,SCL*%
X58420000Y-74930000D03*
%TO.P,i2c1,3*%
%TO.N,SDA*%
X60960000Y-74930000D03*
%TO.P,i2c1,2*%
%TO.N,+3V3*%
X63500000Y-74930000D03*
D25*
%TO.P,i2c1,1*%
%TO.N,GND*%
X66040000Y-74930000D03*
%TD*%
D24*
%TO.P,esp32-right1,19*%
%TO.N,+3V3*%
X77470000Y-66294000D03*
%TO.P,esp32-right1,18*%
%TO.N,Net-(esp32-right1-Pad18)*%
X80010000Y-66294000D03*
%TO.P,esp32-right1,17*%
%TO.N,Net-(esp32-right1-Pad17)*%
X82550000Y-66294000D03*
%TO.P,esp32-right1,16*%
%TO.N,Net-(esp32-right1-Pad16)*%
X85090000Y-66294000D03*
%TO.P,esp32-right1,15*%
%TO.N,Net-(esp32-right1-Pad15)*%
X87630000Y-66294000D03*
%TO.P,esp32-right1,14*%
%TO.N,Net-(esp32-right1-Pad14)*%
X90170000Y-66294000D03*
%TO.P,esp32-right1,13*%
%TO.N,Net-(esp32-right1-Pad13)*%
X92710000Y-66294000D03*
%TO.P,esp32-right1,12*%
%TO.N,Net-(esp32-right1-Pad12)*%
X95250000Y-66294000D03*
%TO.P,esp32-right1,11*%
%TO.N,Net-(esp32-right1-Pad11)*%
X97790000Y-66294000D03*
%TO.P,esp32-right1,10*%
%TO.N,Net-(esp32-right1-Pad10)*%
X100330000Y-66294000D03*
%TO.P,esp32-right1,9*%
%TO.N,Net-(esp32-right1-Pad9)*%
X102870000Y-66294000D03*
%TO.P,esp32-right1,8*%
%TO.N,Net-(esp32-right1-Pad8)*%
X105410000Y-66294000D03*
%TO.P,esp32-right1,7*%
%TO.N,Net-(esp32-right1-Pad7)*%
X107950000Y-66294000D03*
%TO.P,esp32-right1,6*%
%TO.N,Net-(esp32-right1-Pad6)*%
X110490000Y-66294000D03*
%TO.P,esp32-right1,5*%
%TO.N,Net-(esp32-right1-Pad5)*%
X113030000Y-66294000D03*
%TO.P,esp32-right1,4*%
%TO.N,Net-(esp32-right1-Pad4)*%
X115570000Y-66294000D03*
%TO.P,esp32-right1,3*%
%TO.N,Net-(esp32-right1-Pad3)*%
X118110000Y-66294000D03*
%TO.P,esp32-right1,2*%
%TO.N,Net-(esp32-right1-Pad2)*%
X120650000Y-66294000D03*
D25*
%TO.P,esp32-right1,1*%
%TO.N,+5V*%
X123190000Y-66294000D03*
%TD*%
D27*
%TO.N,Net-(AD1-Pad4)*%
X54356000Y-43942000D03*
X52324000Y-43942000D03*
%TD*%
D28*
%TO.N,+3V3*%
X48260000Y-59690000D02*
X48971200Y-59690000D01*
X63500000Y-74218800D02*
X63500000Y-74930000D01*
X48971200Y-59690000D02*
X63500000Y-74218800D01*
%TO.N,+5V*%
X63500000Y-49530000D02*
X63500000Y-57150000D01*
X63500000Y-57150000D02*
X61214000Y-59436000D01*
X50546000Y-59436000D02*
X48260000Y-57150000D01*
X61214000Y-59436000D02*
X50546000Y-59436000D01*
X123190000Y-67564000D02*
X121920000Y-68834000D01*
X123190000Y-66294000D02*
X123190000Y-67564000D01*
X121920000Y-68834000D02*
X117729000Y-68834000D01*
X109220000Y-77343000D02*
X109220000Y-80010000D01*
X117729000Y-68834000D02*
X109220000Y-77343000D01*
D29*
%TO.N,Net-(RE1-Pad1)*%
X111760000Y-109728000D02*
X112268000Y-110236000D01*
D30*
X112395000Y-108585000D02*
X112522000Y-108712000D01*
X112395000Y-83820000D02*
X112395000Y-108585000D01*
%TO.N,Net-(RE1-Pad4)*%
X118395000Y-107919000D02*
X117602000Y-108712000D01*
X118395000Y-98020000D02*
X118395000Y-107919000D01*
%TO.N,Net-(RE1-Pad3)*%
X106345000Y-107615000D02*
X107442000Y-108712000D01*
X106345000Y-97970000D02*
X106345000Y-107615000D01*
%TO.N,Net-(RE2-Pad1)*%
X85090000Y-83820000D02*
X85090000Y-108712000D01*
%TO.N,Net-(RE2-Pad4)*%
X91090000Y-107792000D02*
X90170000Y-108712000D01*
X91090000Y-98020000D02*
X91090000Y-107792000D01*
%TO.N,Net-(RE2-Pad3)*%
X79040000Y-107742000D02*
X80010000Y-108712000D01*
X79040000Y-97970000D02*
X79040000Y-107742000D01*
D31*
%TO.N,Net-(AD1-Pad4)*%
X54356000Y-43942000D02*
X52324000Y-43942000D01*
%TD*%
D32*
%TO.N,GND*%
X124810315Y-24331862D02*
X124331862Y-24810315D01*
X123955943Y-25372918D01*
X123697006Y-25998048D01*
X123565000Y-26661682D01*
X123565000Y-27338318D01*
X123697006Y-28001952D01*
X123955943Y-28627082D01*
X124331862Y-29189685D01*
X124810315Y-29668138D01*
X125372918Y-30044057D01*
X125998048Y-30302994D01*
X126661682Y-30435000D01*
X127338318Y-30435000D01*
X128001952Y-30302994D01*
X128627082Y-30044057D01*
X129189685Y-29668138D01*
X129413000Y-29444823D01*
X129413000Y-82169000D01*
X113763346Y-82169000D01*
X113755983Y-82161637D01*
X113406302Y-81927988D01*
X113017756Y-81767047D01*
X112605279Y-81685000D01*
X112184721Y-81685000D01*
X111772244Y-81767047D01*
X111383698Y-81927988D01*
X111034017Y-82161637D01*
X111026654Y-82169000D01*
X86458346Y-82169000D01*
X86450983Y-82161637D01*
X86101302Y-81927988D01*
X85712756Y-81767047D01*
X85300279Y-81685000D01*
X84879721Y-81685000D01*
X84467244Y-81767047D01*
X84078698Y-81927988D01*
X83729017Y-82161637D01*
X83721654Y-82169000D01*
X42291000Y-82169000D01*
X42291000Y-80860000D01*
X78775928Y-80860000D01*
X78788188Y-80984482D01*
X78824498Y-81104180D01*
X78883463Y-81214494D01*
X78962815Y-81311185D01*
X79059506Y-81390537D01*
X79169820Y-81449502D01*
X79289518Y-81485812D01*
X79414000Y-81498072D01*
X79978250Y-81495000D01*
X80137000Y-81336250D01*
X80137000Y-80137000D01*
X78937750Y-80137000D01*
X78779000Y-80295750D01*
X78775928Y-80860000D01*
X42291000Y-80860000D01*
X42291000Y-79160000D01*
X78775928Y-79160000D01*
X78779000Y-79724250D01*
X78937750Y-79883000D01*
X80137000Y-79883000D01*
X80137000Y-78683750D01*
X80391000Y-78683750D01*
X80391000Y-79883000D01*
X80411000Y-79883000D01*
X80411000Y-80137000D01*
X80391000Y-80137000D01*
X80391000Y-81336250D01*
X80549750Y-81495000D01*
X81114000Y-81498072D01*
X81238482Y-81485812D01*
X81358180Y-81449502D01*
X81468494Y-81390537D01*
X81565185Y-81311185D01*
X81644537Y-81214494D01*
X81703502Y-81104180D01*
X81725513Y-81031620D01*
X81857368Y-81163475D01*
X82100589Y-81325990D01*
X82370842Y-81437932D01*
X82657740Y-81495000D01*
X82950260Y-81495000D01*
X83237158Y-81437932D01*
X83507411Y-81325990D01*
X83750632Y-81163475D01*
X83957475Y-80956632D01*
X84074000Y-80782240D01*
X84190525Y-80956632D01*
X84397368Y-81163475D01*
X84640589Y-81325990D01*
X84910842Y-81437932D01*
X85197740Y-81495000D01*
X85490260Y-81495000D01*
X85777158Y-81437932D01*
X86047411Y-81325990D01*
X86290632Y-81163475D01*
X86497475Y-80956632D01*
X86659990Y-80713411D01*
X86771932Y-80443158D01*
X86829000Y-80156260D01*
X86829000Y-79863740D01*
X86824103Y-79839117D01*
X87546000Y-79839117D01*
X87546000Y-80180883D01*
X87612675Y-80516081D01*
X87743463Y-80831831D01*
X87933337Y-81115998D01*
X88175002Y-81357663D01*
X88459169Y-81547537D01*
X88774919Y-81678325D01*
X89110117Y-81745000D01*
X89451883Y-81745000D01*
X89787081Y-81678325D01*
X90102831Y-81547537D01*
X90386998Y-81357663D01*
X90628663Y-81115998D01*
X90818537Y-80831831D01*
X90949325Y-80516081D01*
X91016000Y-80180883D01*
X91016000Y-79839117D01*
X90949325Y-79503919D01*
X90818537Y-79188169D01*
X90632671Y-78910000D01*
X95162928Y-78910000D01*
X95162928Y-81110000D01*
X95175188Y-81234482D01*
X95211498Y-81354180D01*
X95270463Y-81464494D01*
X95349815Y-81561185D01*
X95446506Y-81640537D01*
X95556820Y-81699502D01*
X95676518Y-81735812D01*
X95801000Y-81748072D01*
X98001000Y-81748072D01*
X98125482Y-81735812D01*
X98245180Y-81699502D01*
X98355494Y-81640537D01*
X98452185Y-81561185D01*
X98531537Y-81464494D01*
X98590502Y-81354180D01*
X98626812Y-81234482D01*
X98639072Y-81110000D01*
X98639072Y-80860000D01*
X105191928Y-80860000D01*
X105204188Y-80984482D01*
X105240498Y-81104180D01*
X105299463Y-81214494D01*
X105378815Y-81311185D01*
X105475506Y-81390537D01*
X105585820Y-81449502D01*
X105705518Y-81485812D01*
X105830000Y-81498072D01*
X106394250Y-81495000D01*
X106553000Y-81336250D01*
X106553000Y-80137000D01*
X105353750Y-80137000D01*
X105195000Y-80295750D01*
X105191928Y-80860000D01*
X98639072Y-80860000D01*
X98639072Y-79160000D01*
X105191928Y-79160000D01*
X105195000Y-79724250D01*
X105353750Y-79883000D01*
X106553000Y-79883000D01*
X106553000Y-78683750D01*
X106394250Y-78525000D01*
X105830000Y-78521928D01*
X105705518Y-78534188D01*
X105585820Y-78570498D01*
X105475506Y-78629463D01*
X105378815Y-78708815D01*
X105299463Y-78805506D01*
X105240498Y-78915820D01*
X105204188Y-79035518D01*
X105191928Y-79160000D01*
X98639072Y-79160000D01*
X98639072Y-78910000D01*
X98626812Y-78785518D01*
X98590502Y-78665820D01*
X98531537Y-78555506D01*
X98452185Y-78458815D01*
X98355494Y-78379463D01*
X98245180Y-78320498D01*
X98125482Y-78284188D01*
X98001000Y-78271928D01*
X95801000Y-78271928D01*
X95676518Y-78284188D01*
X95556820Y-78320498D01*
X95446506Y-78379463D01*
X95349815Y-78458815D01*
X95270463Y-78555506D01*
X95211498Y-78665820D01*
X95175188Y-78785518D01*
X95162928Y-78910000D01*
X90632671Y-78910000D01*
X90628663Y-78904002D01*
X90386998Y-78662337D01*
X90102831Y-78472463D01*
X89787081Y-78341675D01*
X89451883Y-78275000D01*
X89110117Y-78275000D01*
X88774919Y-78341675D01*
X88459169Y-78472463D01*
X88175002Y-78662337D01*
X87933337Y-78904002D01*
X87743463Y-79188169D01*
X87612675Y-79503919D01*
X87546000Y-79839117D01*
X86824103Y-79839117D01*
X86771932Y-79576842D01*
X86659990Y-79306589D01*
X86497475Y-79063368D01*
X86290632Y-78856525D01*
X86047411Y-78694010D01*
X85777158Y-78582068D01*
X85490260Y-78525000D01*
X85197740Y-78525000D01*
X84910842Y-78582068D01*
X84640589Y-78694010D01*
X84397368Y-78856525D01*
X84190525Y-79063368D01*
X84074000Y-79237760D01*
X83957475Y-79063368D01*
X83750632Y-78856525D01*
X83507411Y-78694010D01*
X83237158Y-78582068D01*
X82950260Y-78525000D01*
X82657740Y-78525000D01*
X82370842Y-78582068D01*
X82100589Y-78694010D01*
X81857368Y-78856525D01*
X81725513Y-78988380D01*
X81703502Y-78915820D01*
X81644537Y-78805506D01*
X81565185Y-78708815D01*
X81468494Y-78629463D01*
X81358180Y-78570498D01*
X81238482Y-78534188D01*
X81114000Y-78521928D01*
X80549750Y-78525000D01*
X80391000Y-78683750D01*
X80137000Y-78683750D01*
X79978250Y-78525000D01*
X79414000Y-78521928D01*
X79289518Y-78534188D01*
X79169820Y-78570498D01*
X79059506Y-78629463D01*
X78962815Y-78708815D01*
X78883463Y-78805506D01*
X78824498Y-78915820D01*
X78788188Y-79035518D01*
X78775928Y-79160000D01*
X42291000Y-79160000D01*
X42291000Y-76439665D01*
X87846000Y-76439665D01*
X87846000Y-76722335D01*
X87901147Y-76999574D01*
X88009320Y-77260727D01*
X88166363Y-77495759D01*
X88366241Y-77695637D01*
X88601273Y-77852680D01*
X88862426Y-77960853D01*
X89139665Y-78016000D01*
X89422335Y-78016000D01*
X89699574Y-77960853D01*
X89960727Y-77852680D01*
X90195759Y-77695637D01*
X90395637Y-77495759D01*
X90552680Y-77260727D01*
X90660853Y-76999574D01*
X90716000Y-76722335D01*
X90716000Y-76439665D01*
X95466000Y-76439665D01*
X95466000Y-76722335D01*
X95521147Y-76999574D01*
X95629320Y-77260727D01*
X95786363Y-77495759D01*
X95986241Y-77695637D01*
X96221273Y-77852680D01*
X96482426Y-77960853D01*
X96759665Y-78016000D01*
X97042335Y-78016000D01*
X97319574Y-77960853D01*
X97580727Y-77852680D01*
X97815759Y-77695637D01*
X98015637Y-77495759D01*
X98172680Y-77260727D01*
X98280853Y-76999574D01*
X98336000Y-76722335D01*
X98336000Y-76439665D01*
X98280853Y-76162426D01*
X98172680Y-75901273D01*
X98015637Y-75666241D01*
X97815759Y-75466363D01*
X97580727Y-75309320D01*
X97319574Y-75201147D01*
X97042335Y-75146000D01*
X96759665Y-75146000D01*
X96482426Y-75201147D01*
X96221273Y-75309320D01*
X95986241Y-75466363D01*
X95786363Y-75666241D01*
X95629320Y-75901273D01*
X95521147Y-76162426D01*
X95466000Y-76439665D01*
X90716000Y-76439665D01*
X90660853Y-76162426D01*
X90552680Y-75901273D01*
X90395637Y-75666241D01*
X90195759Y-75466363D01*
X89960727Y-75309320D01*
X89699574Y-75201147D01*
X89422335Y-75146000D01*
X89139665Y-75146000D01*
X88862426Y-75201147D01*
X88601273Y-75309320D01*
X88366241Y-75466363D01*
X88166363Y-75666241D01*
X88009320Y-75901273D01*
X87901147Y-76162426D01*
X87846000Y-76439665D01*
X42291000Y-76439665D01*
X42291000Y-63080000D01*
X46771928Y-63080000D01*
X46784188Y-63204482D01*
X46820498Y-63324180D01*
X46879463Y-63434494D01*
X46958815Y-63531185D01*
X47055506Y-63610537D01*
X47165820Y-63669502D01*
X47285518Y-63705812D01*
X47410000Y-63718072D01*
X47974250Y-63715000D01*
X48133000Y-63556250D01*
X48133000Y-62357000D01*
X48387000Y-62357000D01*
X48387000Y-63556250D01*
X48545750Y-63715000D01*
X49110000Y-63718072D01*
X49234482Y-63705812D01*
X49354180Y-63669502D01*
X49464494Y-63610537D01*
X49561185Y-63531185D01*
X49640537Y-63434494D01*
X49699502Y-63324180D01*
X49735812Y-63204482D01*
X49748072Y-63080000D01*
X49745000Y-62515750D01*
X49586250Y-62357000D01*
X48387000Y-62357000D01*
X48133000Y-62357000D01*
X46933750Y-62357000D01*
X46775000Y-62515750D01*
X46771928Y-63080000D01*
X42291000Y-63080000D01*
X42291000Y-61380000D01*
X46771928Y-61380000D01*
X46775000Y-61944250D01*
X46933750Y-62103000D01*
X48133000Y-62103000D01*
X48133000Y-62083000D01*
X48387000Y-62083000D01*
X48387000Y-62103000D01*
X49586250Y-62103000D01*
X49745000Y-61944250D01*
X49745091Y-61927601D01*
X61301282Y-73483793D01*
X61106260Y-73445000D01*
X60813740Y-73445000D01*
X60526842Y-73502068D01*
X60256589Y-73614010D01*
X60013368Y-73776525D01*
X59806525Y-73983368D01*
X59690000Y-74157760D01*
X59573475Y-73983368D01*
X59366632Y-73776525D01*
X59123411Y-73614010D01*
X58853158Y-73502068D01*
X58566260Y-73445000D01*
X58273740Y-73445000D01*
X57986842Y-73502068D01*
X57716589Y-73614010D01*
X57473368Y-73776525D01*
X57266525Y-73983368D01*
X57104010Y-74226589D01*
X56992068Y-74496842D01*
X56935000Y-74783740D01*
X56935000Y-75076260D01*
X56992068Y-75363158D01*
X57104010Y-75633411D01*
X57266525Y-75876632D01*
X57473368Y-76083475D01*
X57716589Y-76245990D01*
X57986842Y-76357932D01*
X58273740Y-76415000D01*
X58566260Y-76415000D01*
X58853158Y-76357932D01*
X59123411Y-76245990D01*
X59366632Y-76083475D01*
X59573475Y-75876632D01*
X59690000Y-75702240D01*
X59806525Y-75876632D01*
X60013368Y-76083475D01*
X60256589Y-76245990D01*
X60526842Y-76357932D01*
X60813740Y-76415000D01*
X61106260Y-76415000D01*
X61393158Y-76357932D01*
X61663411Y-76245990D01*
X61906632Y-76083475D01*
X62113475Y-75876632D01*
X62230000Y-75702240D01*
X62346525Y-75876632D01*
X62553368Y-76083475D01*
X62796589Y-76245990D01*
X63066842Y-76357932D01*
X63353740Y-76415000D01*
X63646260Y-76415000D01*
X63933158Y-76357932D01*
X64203411Y-76245990D01*
X64446632Y-76083475D01*
X64578487Y-75951620D01*
X64600498Y-76024180D01*
X64659463Y-76134494D01*
X64738815Y-76231185D01*
X64835506Y-76310537D01*
X64945820Y-76369502D01*
X65065518Y-76405812D01*
X65190000Y-76418072D01*
X65754250Y-76415000D01*
X65913000Y-76256250D01*
X65913000Y-75057000D01*
X66167000Y-75057000D01*
X66167000Y-76256250D01*
X66325750Y-76415000D01*
X66890000Y-76418072D01*
X67014482Y-76405812D01*
X67134180Y-76369502D01*
X67244494Y-76310537D01*
X67341185Y-76231185D01*
X67420537Y-76134494D01*
X67479502Y-76024180D01*
X67515812Y-75904482D01*
X67528072Y-75780000D01*
X67525000Y-75215750D01*
X67366250Y-75057000D01*
X66167000Y-75057000D01*
X65913000Y-75057000D01*
X65893000Y-75057000D01*
X65893000Y-74803000D01*
X65913000Y-74803000D01*
X65913000Y-73603750D01*
X66167000Y-73603750D01*
X66167000Y-74803000D01*
X67366250Y-74803000D01*
X67525000Y-74644250D01*
X67528072Y-74080000D01*
X67515812Y-73955518D01*
X67479502Y-73835820D01*
X67420537Y-73725506D01*
X67341185Y-73628815D01*
X67244494Y-73549463D01*
X67134180Y-73490498D01*
X67014482Y-73454188D01*
X66890000Y-73441928D01*
X66325750Y-73445000D01*
X66167000Y-73603750D01*
X65913000Y-73603750D01*
X65754250Y-73445000D01*
X65190000Y-73441928D01*
X65065518Y-73454188D01*
X64945820Y-73490498D01*
X64835506Y-73549463D01*
X64738815Y-73628815D01*
X64659463Y-73725506D01*
X64600498Y-73835820D01*
X64578487Y-73908380D01*
X64446632Y-73776525D01*
X64431916Y-73766692D01*
X64379422Y-73668482D01*
X64364734Y-73641002D01*
X64267803Y-73522892D01*
X64235396Y-73483404D01*
X64195908Y-73450997D01*
X63237727Y-72492816D01*
X76951000Y-72492816D01*
X76951000Y-72795184D01*
X77009989Y-73091743D01*
X77125701Y-73371095D01*
X77293688Y-73622505D01*
X77507495Y-73836312D01*
X77758905Y-74004299D01*
X78038257Y-74120011D01*
X78334816Y-74179000D01*
X78637184Y-74179000D01*
X78933743Y-74120011D01*
X79213095Y-74004299D01*
X79464505Y-73836312D01*
X79530944Y-73769873D01*
X79536498Y-73788180D01*
X79595463Y-73898494D01*
X79674815Y-73995185D01*
X79771506Y-74074537D01*
X79881820Y-74133502D01*
X80001518Y-74169812D01*
X80126000Y-74182072D01*
X81926000Y-74182072D01*
X82050482Y-74169812D01*
X82170180Y-74133502D01*
X82280494Y-74074537D01*
X82377185Y-73995185D01*
X82456537Y-73898494D01*
X82515502Y-73788180D01*
X82551812Y-73668482D01*
X82564072Y-73544000D01*
X82564072Y-73537371D01*
X82578363Y-73558759D01*
X82778241Y-73758637D01*
X83013273Y-73915680D01*
X83274426Y-74023853D01*
X83551665Y-74079000D01*
X83834335Y-74079000D01*
X84111574Y-74023853D01*
X84372727Y-73915680D01*
X84607759Y-73758637D01*
X84807637Y-73558759D01*
X84964680Y-73323727D01*
X85072853Y-73062574D01*
X85128000Y-72785335D01*
X85128000Y-72502665D01*
X89878000Y-72502665D01*
X89878000Y-72785335D01*
X89933147Y-73062574D01*
X90041320Y-73323727D01*
X90198363Y-73558759D01*
X90398241Y-73758637D01*
X90633273Y-73915680D01*
X90894426Y-74023853D01*
X91171665Y-74079000D01*
X91454335Y-74079000D01*
X91731574Y-74023853D01*
X91992727Y-73915680D01*
X92227759Y-73758637D01*
X92427637Y-73558759D01*
X92584680Y-73323727D01*
X92692853Y-73062574D01*
X92748000Y-72785335D01*
X92748000Y-72502665D01*
X92692853Y-72225426D01*
X92596994Y-71994000D01*
X93072928Y-71994000D01*
X93072928Y-73294000D01*
X93085188Y-73418482D01*
X93121498Y-73538180D01*
X93180463Y-73648494D01*
X93259815Y-73745185D01*
X93356506Y-73824537D01*
X93466820Y-73883502D01*
X93586518Y-73919812D01*
X93711000Y-73932072D01*
X95011000Y-73932072D01*
X95135482Y-73919812D01*
X95255180Y-73883502D01*
X95365494Y-73824537D01*
X95462185Y-73745185D01*
X95541537Y-73648494D01*
X95600502Y-73538180D01*
X95636812Y-73418482D01*
X95649072Y-73294000D01*
X95649072Y-72936828D01*
X95665381Y-73018821D01*
X95762247Y-73252676D01*
X95902875Y-73463140D01*
X96081860Y-73642125D01*
X96292324Y-73782753D01*
X96526179Y-73879619D01*
X96774439Y-73929000D01*
X97027561Y-73929000D01*
X97275821Y-73879619D01*
X97509676Y-73782753D01*
X97720140Y-73642125D01*
X97899125Y-73463140D01*
X98039753Y-73252676D01*
X98136619Y-73018821D01*
X98186000Y-72770561D01*
X98186000Y-72517439D01*
X98136619Y-72269179D01*
X98039753Y-72035324D01*
X97899125Y-71824860D01*
X97720140Y-71645875D01*
X97509676Y-71505247D01*
X97275821Y-71408381D01*
X97027561Y-71359000D01*
X96917559Y-71359000D01*
X96919952Y-71297545D01*
X96880270Y-71047551D01*
X96792578Y-70810104D01*
X96745201Y-70721466D01*
X96516527Y-70668078D01*
X95810605Y-71374000D01*
X95824748Y-71388143D01*
X95645143Y-71567748D01*
X95631000Y-71553605D01*
X95616858Y-71567748D01*
X95437253Y-71388143D01*
X95451395Y-71374000D01*
X94745473Y-70668078D01*
X94516799Y-70721466D01*
X94410905Y-70951374D01*
X94351898Y-71197524D01*
X94345729Y-71355928D01*
X93711000Y-71355928D01*
X93586518Y-71368188D01*
X93466820Y-71404498D01*
X93356506Y-71463463D01*
X93259815Y-71542815D01*
X93180463Y-71639506D01*
X93121498Y-71749820D01*
X93085188Y-71869518D01*
X93072928Y-71994000D01*
X92596994Y-71994000D01*
X92584680Y-71964273D01*
X92427637Y-71729241D01*
X92227759Y-71529363D01*
X91992727Y-71372320D01*
X91731574Y-71264147D01*
X91454335Y-71209000D01*
X91171665Y-71209000D01*
X90894426Y-71264147D01*
X90633273Y-71372320D01*
X90398241Y-71529363D01*
X90198363Y-71729241D01*
X90041320Y-71964273D01*
X89933147Y-72225426D01*
X89878000Y-72502665D01*
X85128000Y-72502665D01*
X85072853Y-72225426D01*
X84964680Y-71964273D01*
X84807637Y-71729241D01*
X84607759Y-71529363D01*
X84372727Y-71372320D01*
X84111574Y-71264147D01*
X83834335Y-71209000D01*
X83551665Y-71209000D01*
X83274426Y-71264147D01*
X83013273Y-71372320D01*
X82778241Y-71529363D01*
X82578363Y-71729241D01*
X82564072Y-71750629D01*
X82564072Y-71744000D01*
X82551812Y-71619518D01*
X82515502Y-71499820D01*
X82456537Y-71389506D01*
X82377185Y-71292815D01*
X82280494Y-71213463D01*
X82170180Y-71154498D01*
X82050482Y-71118188D01*
X81926000Y-71105928D01*
X80126000Y-71105928D01*
X80001518Y-71118188D01*
X79881820Y-71154498D01*
X79771506Y-71213463D01*
X79674815Y-71292815D01*
X79595463Y-71389506D01*
X79536498Y-71499820D01*
X79530944Y-71518127D01*
X79464505Y-71451688D01*
X79213095Y-71283701D01*
X78933743Y-71167989D01*
X78637184Y-71109000D01*
X78334816Y-71109000D01*
X78038257Y-71167989D01*
X77758905Y-71283701D01*
X77507495Y-71451688D01*
X77293688Y-71665495D01*
X77125701Y-71916905D01*
X77009989Y-72196257D01*
X76951000Y-72492816D01*
X63237727Y-72492816D01*
X61233384Y-70488473D01*
X94925078Y-70488473D01*
X95631000Y-71194395D01*
X96336922Y-70488473D01*
X96283534Y-70259799D01*
X96053626Y-70153905D01*
X95807476Y-70094898D01*
X95554545Y-70085048D01*
X95304551Y-70124730D01*
X95067104Y-70212422D01*
X94978466Y-70259799D01*
X94925078Y-70488473D01*
X61233384Y-70488473D01*
X56892651Y-66147740D01*
X75985000Y-66147740D01*
X75985000Y-66440260D01*
X76042068Y-66727158D01*
X76154010Y-66997411D01*
X76316525Y-67240632D01*
X76523368Y-67447475D01*
X76766589Y-67609990D01*
X77036842Y-67721932D01*
X77323740Y-67779000D01*
X77616260Y-67779000D01*
X77903158Y-67721932D01*
X78173411Y-67609990D01*
X78416632Y-67447475D01*
X78623475Y-67240632D01*
X78740000Y-67066240D01*
X78856525Y-67240632D01*
X79063368Y-67447475D01*
X79306589Y-67609990D01*
X79576842Y-67721932D01*
X79863740Y-67779000D01*
X80156260Y-67779000D01*
X80443158Y-67721932D01*
X80713411Y-67609990D01*
X80956632Y-67447475D01*
X81163475Y-67240632D01*
X81280000Y-67066240D01*
X81396525Y-67240632D01*
X81603368Y-67447475D01*
X81846589Y-67609990D01*
X82116842Y-67721932D01*
X82403740Y-67779000D01*
X82696260Y-67779000D01*
X82983158Y-67721932D01*
X83253411Y-67609990D01*
X83496632Y-67447475D01*
X83703475Y-67240632D01*
X83820000Y-67066240D01*
X83936525Y-67240632D01*
X84143368Y-67447475D01*
X84386589Y-67609990D01*
X84656842Y-67721932D01*
X84943740Y-67779000D01*
X85236260Y-67779000D01*
X85523158Y-67721932D01*
X85793411Y-67609990D01*
X86036632Y-67447475D01*
X86243475Y-67240632D01*
X86360000Y-67066240D01*
X86476525Y-67240632D01*
X86683368Y-67447475D01*
X86926589Y-67609990D01*
X87196842Y-67721932D01*
X87483740Y-67779000D01*
X87776260Y-67779000D01*
X88063158Y-67721932D01*
X88333411Y-67609990D01*
X88576632Y-67447475D01*
X88783475Y-67240632D01*
X88900000Y-67066240D01*
X89016525Y-67240632D01*
X89223368Y-67447475D01*
X89466589Y-67609990D01*
X89736842Y-67721932D01*
X90023740Y-67779000D01*
X90316260Y-67779000D01*
X90603158Y-67721932D01*
X90873411Y-67609990D01*
X91116632Y-67447475D01*
X91323475Y-67240632D01*
X91440000Y-67066240D01*
X91556525Y-67240632D01*
X91763368Y-67447475D01*
X92006589Y-67609990D01*
X92276842Y-67721932D01*
X92563740Y-67779000D01*
X92856260Y-67779000D01*
X93143158Y-67721932D01*
X93413411Y-67609990D01*
X93656632Y-67447475D01*
X93863475Y-67240632D01*
X93980000Y-67066240D01*
X94096525Y-67240632D01*
X94303368Y-67447475D01*
X94546589Y-67609990D01*
X94816842Y-67721932D01*
X95103740Y-67779000D01*
X95396260Y-67779000D01*
X95683158Y-67721932D01*
X95953411Y-67609990D01*
X96196632Y-67447475D01*
X96403475Y-67240632D01*
X96520000Y-67066240D01*
X96636525Y-67240632D01*
X96843368Y-67447475D01*
X97086589Y-67609990D01*
X97356842Y-67721932D01*
X97643740Y-67779000D01*
X97936260Y-67779000D01*
X98223158Y-67721932D01*
X98493411Y-67609990D01*
X98736632Y-67447475D01*
X98943475Y-67240632D01*
X99060000Y-67066240D01*
X99176525Y-67240632D01*
X99383368Y-67447475D01*
X99626589Y-67609990D01*
X99896842Y-67721932D01*
X100183740Y-67779000D01*
X100476260Y-67779000D01*
X100763158Y-67721932D01*
X101033411Y-67609990D01*
X101276632Y-67447475D01*
X101483475Y-67240632D01*
X101600000Y-67066240D01*
X101716525Y-67240632D01*
X101923368Y-67447475D01*
X102166589Y-67609990D01*
X102436842Y-67721932D01*
X102723740Y-67779000D01*
X103016260Y-67779000D01*
X103303158Y-67721932D01*
X103573411Y-67609990D01*
X103816632Y-67447475D01*
X104023475Y-67240632D01*
X104140000Y-67066240D01*
X104256525Y-67240632D01*
X104463368Y-67447475D01*
X104706589Y-67609990D01*
X104976842Y-67721932D01*
X105263740Y-67779000D01*
X105556260Y-67779000D01*
X105843158Y-67721932D01*
X106113411Y-67609990D01*
X106356632Y-67447475D01*
X106563475Y-67240632D01*
X106680000Y-67066240D01*
X106796525Y-67240632D01*
X107003368Y-67447475D01*
X107246589Y-67609990D01*
X107516842Y-67721932D01*
X107803740Y-67779000D01*
X108096260Y-67779000D01*
X108383158Y-67721932D01*
X108653411Y-67609990D01*
X108896632Y-67447475D01*
X109103475Y-67240632D01*
X109220000Y-67066240D01*
X109336525Y-67240632D01*
X109543368Y-67447475D01*
X109786589Y-67609990D01*
X110056842Y-67721932D01*
X110343740Y-67779000D01*
X110636260Y-67779000D01*
X110923158Y-67721932D01*
X111193411Y-67609990D01*
X111436632Y-67447475D01*
X111643475Y-67240632D01*
X111760000Y-67066240D01*
X111876525Y-67240632D01*
X112083368Y-67447475D01*
X112326589Y-67609990D01*
X112596842Y-67721932D01*
X112883740Y-67779000D01*
X113176260Y-67779000D01*
X113463158Y-67721932D01*
X113733411Y-67609990D01*
X113976632Y-67447475D01*
X114183475Y-67240632D01*
X114300000Y-67066240D01*
X114416525Y-67240632D01*
X114623368Y-67447475D01*
X114866589Y-67609990D01*
X115136842Y-67721932D01*
X115423740Y-67779000D01*
X115716260Y-67779000D01*
X116003158Y-67721932D01*
X116273411Y-67609990D01*
X116516632Y-67447475D01*
X116723475Y-67240632D01*
X116840000Y-67066240D01*
X116956525Y-67240632D01*
X117163368Y-67447475D01*
X117406589Y-67609990D01*
X117676842Y-67721932D01*
X117963740Y-67779000D01*
X118256260Y-67779000D01*
X118543158Y-67721932D01*
X118813411Y-67609990D01*
X119056632Y-67447475D01*
X119263475Y-67240632D01*
X119380000Y-67066240D01*
X119496525Y-67240632D01*
X119703368Y-67447475D01*
X119946589Y-67609990D01*
X120216842Y-67721932D01*
X120503740Y-67779000D01*
X120796260Y-67779000D01*
X121083158Y-67721932D01*
X121353411Y-67609990D01*
X121596632Y-67447475D01*
X121728487Y-67315620D01*
X121750498Y-67388180D01*
X121803309Y-67486981D01*
X121491290Y-67799000D01*
X117779827Y-67799000D01*
X117728999Y-67793994D01*
X117678171Y-67799000D01*
X117678162Y-67799000D01*
X117526105Y-67813976D01*
X117331007Y-67873159D01*
X117247309Y-67917896D01*
X117151202Y-67969266D01*
X117033092Y-68066197D01*
X116993604Y-68098604D01*
X116961197Y-68138092D01*
X111714666Y-73384624D01*
X111742853Y-73316574D01*
X111798000Y-73039335D01*
X111798000Y-72756665D01*
X111742853Y-72479426D01*
X111634680Y-72218273D01*
X111477637Y-71983241D01*
X111277759Y-71783363D01*
X111042727Y-71626320D01*
X110781574Y-71518147D01*
X110504335Y-71463000D01*
X110221665Y-71463000D01*
X109944426Y-71518147D01*
X109683273Y-71626320D01*
X109448241Y-71783363D01*
X109248363Y-71983241D01*
X109234072Y-72004629D01*
X109234072Y-71998000D01*
X109221812Y-71873518D01*
X109185502Y-71753820D01*
X109126537Y-71643506D01*
X109047185Y-71546815D01*
X108950494Y-71467463D01*
X108840180Y-71408498D01*
X108720482Y-71372188D01*
X108596000Y-71359928D01*
X106796000Y-71359928D01*
X106671518Y-71372188D01*
X106551820Y-71408498D01*
X106441506Y-71467463D01*
X106344815Y-71546815D01*
X106265463Y-71643506D01*
X106206498Y-71753820D01*
X106200944Y-71772127D01*
X106134505Y-71705688D01*
X105883095Y-71537701D01*
X105603743Y-71421989D01*
X105307184Y-71363000D01*
X105004816Y-71363000D01*
X104708257Y-71421989D01*
X104428905Y-71537701D01*
X104177495Y-71705688D01*
X103963688Y-71919495D01*
X103795701Y-72170905D01*
X103679989Y-72450257D01*
X103621000Y-72746816D01*
X103621000Y-73049184D01*
X103679989Y-73345743D01*
X103795701Y-73625095D01*
X103963688Y-73876505D01*
X104177495Y-74090312D01*
X104428905Y-74258299D01*
X104708257Y-74374011D01*
X105004816Y-74433000D01*
X105307184Y-74433000D01*
X105603743Y-74374011D01*
X105883095Y-74258299D01*
X106134505Y-74090312D01*
X106200944Y-74023873D01*
X106206498Y-74042180D01*
X106265463Y-74152494D01*
X106344815Y-74249185D01*
X106441506Y-74328537D01*
X106551820Y-74387502D01*
X106671518Y-74423812D01*
X106796000Y-74436072D01*
X108596000Y-74436072D01*
X108720482Y-74423812D01*
X108840180Y-74387502D01*
X108950494Y-74328537D01*
X109047185Y-74249185D01*
X109126537Y-74152494D01*
X109185502Y-74042180D01*
X109221812Y-73922482D01*
X109234072Y-73798000D01*
X109234072Y-73791371D01*
X109248363Y-73812759D01*
X109448241Y-74012637D01*
X109683273Y-74169680D01*
X109944426Y-74277853D01*
X110221665Y-74333000D01*
X110504335Y-74333000D01*
X110781574Y-74277853D01*
X110849624Y-74249666D01*
X108524097Y-76575193D01*
X108484604Y-76607604D01*
X108355266Y-76765203D01*
X108259159Y-76945008D01*
X108199976Y-77140106D01*
X108185000Y-77292163D01*
X108185000Y-77292172D01*
X108179994Y-77343000D01*
X108185000Y-77393828D01*
X108185001Y-78944892D01*
X108141513Y-78988380D01*
X108119502Y-78915820D01*
X108060537Y-78805506D01*
X107981185Y-78708815D01*
X107884494Y-78629463D01*
X107774180Y-78570498D01*
X107654482Y-78534188D01*
X107530000Y-78521928D01*
X106965750Y-78525000D01*
X106807000Y-78683750D01*
X106807000Y-79883000D01*
X106827000Y-79883000D01*
X106827000Y-80137000D01*
X106807000Y-80137000D01*
X106807000Y-81336250D01*
X106965750Y-81495000D01*
X107530000Y-81498072D01*
X107654482Y-81485812D01*
X107774180Y-81449502D01*
X107884494Y-81390537D01*
X107981185Y-81311185D01*
X108060537Y-81214494D01*
X108119502Y-81104180D01*
X108141513Y-81031620D01*
X108273368Y-81163475D01*
X108516589Y-81325990D01*
X108786842Y-81437932D01*
X109073740Y-81495000D01*
X109366260Y-81495000D01*
X109653158Y-81437932D01*
X109923411Y-81325990D01*
X110166632Y-81163475D01*
X110373475Y-80956632D01*
X110490000Y-80782240D01*
X110606525Y-80956632D01*
X110813368Y-81163475D01*
X111056589Y-81325990D01*
X111326842Y-81437932D01*
X111613740Y-81495000D01*
X111906260Y-81495000D01*
X112193158Y-81437932D01*
X112463411Y-81325990D01*
X112706632Y-81163475D01*
X112913475Y-80956632D01*
X113075990Y-80713411D01*
X113187932Y-80443158D01*
X113245000Y-80156260D01*
X113245000Y-79966117D01*
X114216000Y-79966117D01*
X114216000Y-80307883D01*
X114282675Y-80643081D01*
X114413463Y-80958831D01*
X114603337Y-81242998D01*
X114845002Y-81484663D01*
X115129169Y-81674537D01*
X115444919Y-81805325D01*
X115780117Y-81872000D01*
X116121883Y-81872000D01*
X116457081Y-81805325D01*
X116772831Y-81674537D01*
X117056998Y-81484663D01*
X117298663Y-81242998D01*
X117488537Y-80958831D01*
X117619325Y-80643081D01*
X117686000Y-80307883D01*
X117686000Y-79966117D01*
X117619325Y-79630919D01*
X117488537Y-79315169D01*
X117302671Y-79037000D01*
X121832928Y-79037000D01*
X121832928Y-81237000D01*
X121845188Y-81361482D01*
X121881498Y-81481180D01*
X121940463Y-81591494D01*
X122019815Y-81688185D01*
X122116506Y-81767537D01*
X122226820Y-81826502D01*
X122346518Y-81862812D01*
X122471000Y-81875072D01*
X124671000Y-81875072D01*
X124795482Y-81862812D01*
X124915180Y-81826502D01*
X125025494Y-81767537D01*
X125122185Y-81688185D01*
X125201537Y-81591494D01*
X125260502Y-81481180D01*
X125296812Y-81361482D01*
X125309072Y-81237000D01*
X125309072Y-79037000D01*
X125296812Y-78912518D01*
X125260502Y-78792820D01*
X125201537Y-78682506D01*
X125122185Y-78585815D01*
X125025494Y-78506463D01*
X124915180Y-78447498D01*
X124795482Y-78411188D01*
X124671000Y-78398928D01*
X122471000Y-78398928D01*
X122346518Y-78411188D01*
X122226820Y-78447498D01*
X122116506Y-78506463D01*
X122019815Y-78585815D01*
X121940463Y-78682506D01*
X121881498Y-78792820D01*
X121845188Y-78912518D01*
X121832928Y-79037000D01*
X117302671Y-79037000D01*
X117298663Y-79031002D01*
X117056998Y-78789337D01*
X116772831Y-78599463D01*
X116457081Y-78468675D01*
X116121883Y-78402000D01*
X115780117Y-78402000D01*
X115444919Y-78468675D01*
X115129169Y-78599463D01*
X114845002Y-78789337D01*
X114603337Y-79031002D01*
X114413463Y-79315169D01*
X114282675Y-79630919D01*
X114216000Y-79966117D01*
X113245000Y-79966117D01*
X113245000Y-79863740D01*
X113187932Y-79576842D01*
X113075990Y-79306589D01*
X112913475Y-79063368D01*
X112706632Y-78856525D01*
X112463411Y-78694010D01*
X112193158Y-78582068D01*
X111906260Y-78525000D01*
X111613740Y-78525000D01*
X111326842Y-78582068D01*
X111056589Y-78694010D01*
X110813368Y-78856525D01*
X110606525Y-79063368D01*
X110490000Y-79237760D01*
X110373475Y-79063368D01*
X110255000Y-78944893D01*
X110255000Y-77771710D01*
X111460045Y-76566665D01*
X114516000Y-76566665D01*
X114516000Y-76849335D01*
X114571147Y-77126574D01*
X114679320Y-77387727D01*
X114836363Y-77622759D01*
X115036241Y-77822637D01*
X115271273Y-77979680D01*
X115532426Y-78087853D01*
X115809665Y-78143000D01*
X116092335Y-78143000D01*
X116369574Y-78087853D01*
X116630727Y-77979680D01*
X116865759Y-77822637D01*
X117065637Y-77622759D01*
X117222680Y-77387727D01*
X117330853Y-77126574D01*
X117386000Y-76849335D01*
X117386000Y-76566665D01*
X122136000Y-76566665D01*
X122136000Y-76849335D01*
X122191147Y-77126574D01*
X122299320Y-77387727D01*
X122456363Y-77622759D01*
X122656241Y-77822637D01*
X122891273Y-77979680D01*
X123152426Y-78087853D01*
X123429665Y-78143000D01*
X123712335Y-78143000D01*
X123989574Y-78087853D01*
X124250727Y-77979680D01*
X124485759Y-77822637D01*
X124685637Y-77622759D01*
X124842680Y-77387727D01*
X124950853Y-77126574D01*
X125006000Y-76849335D01*
X125006000Y-76566665D01*
X124950853Y-76289426D01*
X124842680Y-76028273D01*
X124685637Y-75793241D01*
X124485759Y-75593363D01*
X124250727Y-75436320D01*
X123989574Y-75328147D01*
X123712335Y-75273000D01*
X123429665Y-75273000D01*
X123152426Y-75328147D01*
X122891273Y-75436320D01*
X122656241Y-75593363D01*
X122456363Y-75793241D01*
X122299320Y-76028273D01*
X122191147Y-76289426D01*
X122136000Y-76566665D01*
X117386000Y-76566665D01*
X117330853Y-76289426D01*
X117222680Y-76028273D01*
X117065637Y-75793241D01*
X116865759Y-75593363D01*
X116630727Y-75436320D01*
X116369574Y-75328147D01*
X116092335Y-75273000D01*
X115809665Y-75273000D01*
X115532426Y-75328147D01*
X115271273Y-75436320D01*
X115036241Y-75593363D01*
X114836363Y-75793241D01*
X114679320Y-76028273D01*
X114571147Y-76289426D01*
X114516000Y-76566665D01*
X111460045Y-76566665D01*
X115270045Y-72756665D01*
X116548000Y-72756665D01*
X116548000Y-73039335D01*
X116603147Y-73316574D01*
X116711320Y-73577727D01*
X116868363Y-73812759D01*
X117068241Y-74012637D01*
X117303273Y-74169680D01*
X117564426Y-74277853D01*
X117841665Y-74333000D01*
X118124335Y-74333000D01*
X118401574Y-74277853D01*
X118662727Y-74169680D01*
X118897759Y-74012637D01*
X119097637Y-73812759D01*
X119254680Y-73577727D01*
X119362853Y-73316574D01*
X119418000Y-73039335D01*
X119418000Y-72756665D01*
X119362853Y-72479426D01*
X119266994Y-72248000D01*
X119742928Y-72248000D01*
X119742928Y-73548000D01*
X119755188Y-73672482D01*
X119791498Y-73792180D01*
X119850463Y-73902494D01*
X119929815Y-73999185D01*
X120026506Y-74078537D01*
X120136820Y-74137502D01*
X120256518Y-74173812D01*
X120381000Y-74186072D01*
X121681000Y-74186072D01*
X121805482Y-74173812D01*
X121925180Y-74137502D01*
X122035494Y-74078537D01*
X122132185Y-73999185D01*
X122211537Y-73902494D01*
X122270502Y-73792180D01*
X122306812Y-73672482D01*
X122319072Y-73548000D01*
X122319072Y-73190828D01*
X122335381Y-73272821D01*
X122432247Y-73506676D01*
X122572875Y-73717140D01*
X122751860Y-73896125D01*
X122962324Y-74036753D01*
X123196179Y-74133619D01*
X123444439Y-74183000D01*
X123697561Y-74183000D01*
X123945821Y-74133619D01*
X124179676Y-74036753D01*
X124390140Y-73896125D01*
X124569125Y-73717140D01*
X124709753Y-73506676D01*
X124806619Y-73272821D01*
X124856000Y-73024561D01*
X124856000Y-72771439D01*
X124806619Y-72523179D01*
X124709753Y-72289324D01*
X124569125Y-72078860D01*
X124390140Y-71899875D01*
X124179676Y-71759247D01*
X123945821Y-71662381D01*
X123697561Y-71613000D01*
X123587559Y-71613000D01*
X123589952Y-71551545D01*
X123550270Y-71301551D01*
X123462578Y-71064104D01*
X123415201Y-70975466D01*
X123186527Y-70922078D01*
X122480605Y-71628000D01*
X122494748Y-71642143D01*
X122315143Y-71821748D01*
X122301000Y-71807605D01*
X122286858Y-71821748D01*
X122107253Y-71642143D01*
X122121395Y-71628000D01*
X121415473Y-70922078D01*
X121186799Y-70975466D01*
X121080905Y-71205374D01*
X121021898Y-71451524D01*
X121015729Y-71609928D01*
X120381000Y-71609928D01*
X120256518Y-71622188D01*
X120136820Y-71658498D01*
X120026506Y-71717463D01*
X119929815Y-71796815D01*
X119850463Y-71893506D01*
X119791498Y-72003820D01*
X119755188Y-72123518D01*
X119742928Y-72248000D01*
X119266994Y-72248000D01*
X119254680Y-72218273D01*
X119097637Y-71983241D01*
X118897759Y-71783363D01*
X118662727Y-71626320D01*
X118401574Y-71518147D01*
X118124335Y-71463000D01*
X117841665Y-71463000D01*
X117564426Y-71518147D01*
X117303273Y-71626320D01*
X117068241Y-71783363D01*
X116868363Y-71983241D01*
X116711320Y-72218273D01*
X116603147Y-72479426D01*
X116548000Y-72756665D01*
X115270045Y-72756665D01*
X117284237Y-70742473D01*
X121595078Y-70742473D01*
X122301000Y-71448395D01*
X123006922Y-70742473D01*
X122953534Y-70513799D01*
X122723626Y-70407905D01*
X122477476Y-70348898D01*
X122224545Y-70339048D01*
X121974551Y-70378730D01*
X121737104Y-70466422D01*
X121648466Y-70513799D01*
X121595078Y-70742473D01*
X117284237Y-70742473D01*
X118157711Y-69869000D01*
X121869172Y-69869000D01*
X121920000Y-69874006D01*
X121970828Y-69869000D01*
X121970838Y-69869000D01*
X122122895Y-69854024D01*
X122317993Y-69794841D01*
X122497797Y-69698734D01*
X122655396Y-69569396D01*
X122687807Y-69529903D01*
X123885908Y-68331803D01*
X123925396Y-68299396D01*
X123960844Y-68256203D01*
X124054734Y-68141798D01*
X124106104Y-68045691D01*
X124150841Y-67961993D01*
X124210024Y-67766895D01*
X124211130Y-67755661D01*
X124284180Y-67733502D01*
X124394494Y-67674537D01*
X124491185Y-67595185D01*
X124570537Y-67498494D01*
X124629502Y-67388180D01*
X124665812Y-67268482D01*
X124678072Y-67144000D01*
X124678072Y-65444000D01*
X124665812Y-65319518D01*
X124629502Y-65199820D01*
X124570537Y-65089506D01*
X124491185Y-64992815D01*
X124394494Y-64913463D01*
X124284180Y-64854498D01*
X124164482Y-64818188D01*
X124040000Y-64805928D01*
X122340000Y-64805928D01*
X122215518Y-64818188D01*
X122095820Y-64854498D01*
X121985506Y-64913463D01*
X121888815Y-64992815D01*
X121809463Y-65089506D01*
X121750498Y-65199820D01*
X121728487Y-65272380D01*
X121596632Y-65140525D01*
X121353411Y-64978010D01*
X121083158Y-64866068D01*
X120796260Y-64809000D01*
X120503740Y-64809000D01*
X120216842Y-64866068D01*
X119946589Y-64978010D01*
X119703368Y-65140525D01*
X119496525Y-65347368D01*
X119380000Y-65521760D01*
X119263475Y-65347368D01*
X119056632Y-65140525D01*
X118813411Y-64978010D01*
X118543158Y-64866068D01*
X118256260Y-64809000D01*
X117963740Y-64809000D01*
X117676842Y-64866068D01*
X117406589Y-64978010D01*
X117163368Y-65140525D01*
X116956525Y-65347368D01*
X116840000Y-65521760D01*
X116723475Y-65347368D01*
X116516632Y-65140525D01*
X116273411Y-64978010D01*
X116003158Y-64866068D01*
X115716260Y-64809000D01*
X115423740Y-64809000D01*
X115136842Y-64866068D01*
X114866589Y-64978010D01*
X114623368Y-65140525D01*
X114416525Y-65347368D01*
X114300000Y-65521760D01*
X114183475Y-65347368D01*
X113976632Y-65140525D01*
X113733411Y-64978010D01*
X113463158Y-64866068D01*
X113176260Y-64809000D01*
X112883740Y-64809000D01*
X112596842Y-64866068D01*
X112326589Y-64978010D01*
X112083368Y-65140525D01*
X111876525Y-65347368D01*
X111760000Y-65521760D01*
X111643475Y-65347368D01*
X111436632Y-65140525D01*
X111193411Y-64978010D01*
X110923158Y-64866068D01*
X110636260Y-64809000D01*
X110343740Y-64809000D01*
X110056842Y-64866068D01*
X109786589Y-64978010D01*
X109543368Y-65140525D01*
X109336525Y-65347368D01*
X109220000Y-65521760D01*
X109103475Y-65347368D01*
X108896632Y-65140525D01*
X108653411Y-64978010D01*
X108383158Y-64866068D01*
X108096260Y-64809000D01*
X107803740Y-64809000D01*
X107516842Y-64866068D01*
X107246589Y-64978010D01*
X107003368Y-65140525D01*
X106796525Y-65347368D01*
X106680000Y-65521760D01*
X106563475Y-65347368D01*
X106356632Y-65140525D01*
X106113411Y-64978010D01*
X105843158Y-64866068D01*
X105556260Y-64809000D01*
X105263740Y-64809000D01*
X104976842Y-64866068D01*
X104706589Y-64978010D01*
X104463368Y-65140525D01*
X104256525Y-65347368D01*
X104140000Y-65521760D01*
X104023475Y-65347368D01*
X103816632Y-65140525D01*
X103573411Y-64978010D01*
X103303158Y-64866068D01*
X103016260Y-64809000D01*
X102723740Y-64809000D01*
X102436842Y-64866068D01*
X102166589Y-64978010D01*
X101923368Y-65140525D01*
X101716525Y-65347368D01*
X101600000Y-65521760D01*
X101483475Y-65347368D01*
X101276632Y-65140525D01*
X101033411Y-64978010D01*
X100763158Y-64866068D01*
X100476260Y-64809000D01*
X100183740Y-64809000D01*
X99896842Y-64866068D01*
X99626589Y-64978010D01*
X99383368Y-65140525D01*
X99176525Y-65347368D01*
X99060000Y-65521760D01*
X98943475Y-65347368D01*
X98736632Y-65140525D01*
X98493411Y-64978010D01*
X98223158Y-64866068D01*
X97936260Y-64809000D01*
X97643740Y-64809000D01*
X97356842Y-64866068D01*
X97086589Y-64978010D01*
X96843368Y-65140525D01*
X96636525Y-65347368D01*
X96520000Y-65521760D01*
X96403475Y-65347368D01*
X96196632Y-65140525D01*
X95953411Y-64978010D01*
X95683158Y-64866068D01*
X95396260Y-64809000D01*
X95103740Y-64809000D01*
X94816842Y-64866068D01*
X94546589Y-64978010D01*
X94303368Y-65140525D01*
X94096525Y-65347368D01*
X93980000Y-65521760D01*
X93863475Y-65347368D01*
X93656632Y-65140525D01*
X93413411Y-64978010D01*
X93143158Y-64866068D01*
X92856260Y-64809000D01*
X92563740Y-64809000D01*
X92276842Y-64866068D01*
X92006589Y-64978010D01*
X91763368Y-65140525D01*
X91556525Y-65347368D01*
X91440000Y-65521760D01*
X91323475Y-65347368D01*
X91116632Y-65140525D01*
X90873411Y-64978010D01*
X90603158Y-64866068D01*
X90316260Y-64809000D01*
X90023740Y-64809000D01*
X89736842Y-64866068D01*
X89466589Y-64978010D01*
X89223368Y-65140525D01*
X89016525Y-65347368D01*
X88900000Y-65521760D01*
X88783475Y-65347368D01*
X88576632Y-65140525D01*
X88333411Y-64978010D01*
X88063158Y-64866068D01*
X87776260Y-64809000D01*
X87483740Y-64809000D01*
X87196842Y-64866068D01*
X86926589Y-64978010D01*
X86683368Y-65140525D01*
X86476525Y-65347368D01*
X86360000Y-65521760D01*
X86243475Y-65347368D01*
X86036632Y-65140525D01*
X85793411Y-64978010D01*
X85523158Y-64866068D01*
X85236260Y-64809000D01*
X84943740Y-64809000D01*
X84656842Y-64866068D01*
X84386589Y-64978010D01*
X84143368Y-65140525D01*
X83936525Y-65347368D01*
X83820000Y-65521760D01*
X83703475Y-65347368D01*
X83496632Y-65140525D01*
X83253411Y-64978010D01*
X82983158Y-64866068D01*
X82696260Y-64809000D01*
X82403740Y-64809000D01*
X82116842Y-64866068D01*
X81846589Y-64978010D01*
X81603368Y-65140525D01*
X81396525Y-65347368D01*
X81280000Y-65521760D01*
X81163475Y-65347368D01*
X80956632Y-65140525D01*
X80713411Y-64978010D01*
X80443158Y-64866068D01*
X80156260Y-64809000D01*
X79863740Y-64809000D01*
X79576842Y-64866068D01*
X79306589Y-64978010D01*
X79063368Y-65140525D01*
X78856525Y-65347368D01*
X78740000Y-65521760D01*
X78623475Y-65347368D01*
X78416632Y-65140525D01*
X78173411Y-64978010D01*
X77903158Y-64866068D01*
X77616260Y-64809000D01*
X77323740Y-64809000D01*
X77036842Y-64866068D01*
X76766589Y-64978010D01*
X76523368Y-65140525D01*
X76316525Y-65347368D01*
X76154010Y-65590589D01*
X76042068Y-65860842D01*
X75985000Y-66147740D01*
X56892651Y-66147740D01*
X52574651Y-61829740D01*
X56935000Y-61829740D01*
X56935000Y-62122260D01*
X56992068Y-62409158D01*
X57104010Y-62679411D01*
X57266525Y-62922632D01*
X57473368Y-63129475D01*
X57716589Y-63291990D01*
X57986842Y-63403932D01*
X58273740Y-63461000D01*
X58566260Y-63461000D01*
X58853158Y-63403932D01*
X59123411Y-63291990D01*
X59366632Y-63129475D01*
X59573475Y-62922632D01*
X59690000Y-62748240D01*
X59806525Y-62922632D01*
X60013368Y-63129475D01*
X60256589Y-63291990D01*
X60526842Y-63403932D01*
X60813740Y-63461000D01*
X61106260Y-63461000D01*
X61393158Y-63403932D01*
X61663411Y-63291990D01*
X61906632Y-63129475D01*
X62113475Y-62922632D01*
X62230000Y-62748240D01*
X62346525Y-62922632D01*
X62553368Y-63129475D01*
X62796589Y-63291990D01*
X63066842Y-63403932D01*
X63353740Y-63461000D01*
X63646260Y-63461000D01*
X63933158Y-63403932D01*
X64203411Y-63291990D01*
X64446632Y-63129475D01*
X64578487Y-62997620D01*
X64600498Y-63070180D01*
X64659463Y-63180494D01*
X64738815Y-63277185D01*
X64835506Y-63356537D01*
X64945820Y-63415502D01*
X65065518Y-63451812D01*
X65190000Y-63464072D01*
X65754250Y-63461000D01*
X65913000Y-63302250D01*
X65913000Y-62103000D01*
X66167000Y-62103000D01*
X66167000Y-63302250D01*
X66325750Y-63461000D01*
X66890000Y-63464072D01*
X67014482Y-63451812D01*
X67134180Y-63415502D01*
X67244494Y-63356537D01*
X67341185Y-63277185D01*
X67420537Y-63180494D01*
X67479502Y-63070180D01*
X67515812Y-62950482D01*
X67528072Y-62826000D01*
X67525000Y-62261750D01*
X67366250Y-62103000D01*
X66167000Y-62103000D01*
X65913000Y-62103000D01*
X65893000Y-62103000D01*
X65893000Y-61849000D01*
X65913000Y-61849000D01*
X65913000Y-60649750D01*
X66167000Y-60649750D01*
X66167000Y-61849000D01*
X67366250Y-61849000D01*
X67525000Y-61690250D01*
X67528072Y-61126000D01*
X67515812Y-61001518D01*
X67479502Y-60881820D01*
X67420537Y-60771506D01*
X67341185Y-60674815D01*
X67244494Y-60595463D01*
X67134180Y-60536498D01*
X67014482Y-60500188D01*
X66890000Y-60487928D01*
X66325750Y-60491000D01*
X66167000Y-60649750D01*
X65913000Y-60649750D01*
X65754250Y-60491000D01*
X65190000Y-60487928D01*
X65065518Y-60500188D01*
X64945820Y-60536498D01*
X64835506Y-60595463D01*
X64738815Y-60674815D01*
X64659463Y-60771506D01*
X64600498Y-60881820D01*
X64578487Y-60954380D01*
X64446632Y-60822525D01*
X64203411Y-60660010D01*
X63933158Y-60548068D01*
X63646260Y-60491000D01*
X63353740Y-60491000D01*
X63066842Y-60548068D01*
X62796589Y-60660010D01*
X62553368Y-60822525D01*
X62346525Y-61029368D01*
X62230000Y-61203760D01*
X62113475Y-61029368D01*
X61906632Y-60822525D01*
X61663411Y-60660010D01*
X61393158Y-60548068D01*
X61106260Y-60491000D01*
X60813740Y-60491000D01*
X60526842Y-60548068D01*
X60256589Y-60660010D01*
X60013368Y-60822525D01*
X59806525Y-61029368D01*
X59690000Y-61203760D01*
X59573475Y-61029368D01*
X59366632Y-60822525D01*
X59123411Y-60660010D01*
X58853158Y-60548068D01*
X58566260Y-60491000D01*
X58273740Y-60491000D01*
X57986842Y-60548068D01*
X57716589Y-60660010D01*
X57473368Y-60822525D01*
X57266525Y-61029368D01*
X57104010Y-61272589D01*
X56992068Y-61542842D01*
X56935000Y-61829740D01*
X52574651Y-61829740D01*
X51215910Y-60471000D01*
X61163172Y-60471000D01*
X61214000Y-60476006D01*
X61264828Y-60471000D01*
X61264838Y-60471000D01*
X61416895Y-60456024D01*
X61611993Y-60396841D01*
X61791797Y-60300734D01*
X61949396Y-60171396D01*
X61981807Y-60131903D01*
X63478711Y-58635000D01*
X63646260Y-58635000D01*
X63933158Y-58577932D01*
X64203411Y-58465990D01*
X64446632Y-58303475D01*
X64578487Y-58171620D01*
X64600498Y-58244180D01*
X64659463Y-58354494D01*
X64738815Y-58451185D01*
X64835506Y-58530537D01*
X64945820Y-58589502D01*
X65065518Y-58625812D01*
X65190000Y-58638072D01*
X65754250Y-58635000D01*
X65913000Y-58476250D01*
X65913000Y-57277000D01*
X66167000Y-57277000D01*
X66167000Y-58476250D01*
X66325750Y-58635000D01*
X66890000Y-58638072D01*
X67014482Y-58625812D01*
X67134180Y-58589502D01*
X67244494Y-58530537D01*
X67341185Y-58451185D01*
X67420537Y-58354494D01*
X67479502Y-58244180D01*
X67515812Y-58124482D01*
X67528072Y-58000000D01*
X67525000Y-57435750D01*
X67366250Y-57277000D01*
X66167000Y-57277000D01*
X65913000Y-57277000D01*
X65893000Y-57277000D01*
X65893000Y-57023000D01*
X65913000Y-57023000D01*
X65913000Y-55823750D01*
X66167000Y-55823750D01*
X66167000Y-57023000D01*
X67366250Y-57023000D01*
X67525000Y-56864250D01*
X67528072Y-56300000D01*
X67515812Y-56175518D01*
X67479502Y-56055820D01*
X67420537Y-55945506D01*
X67341185Y-55848815D01*
X67244494Y-55769463D01*
X67134180Y-55710498D01*
X67014482Y-55674188D01*
X66890000Y-55661928D01*
X66325750Y-55665000D01*
X66167000Y-55823750D01*
X65913000Y-55823750D01*
X65754250Y-55665000D01*
X65190000Y-55661928D01*
X65065518Y-55674188D01*
X64945820Y-55710498D01*
X64835506Y-55769463D01*
X64738815Y-55848815D01*
X64659463Y-55945506D01*
X64600498Y-56055820D01*
X64578487Y-56128380D01*
X64535000Y-56084893D01*
X64535000Y-51013485D01*
X64589945Y-50968392D01*
X64600498Y-51003180D01*
X64659463Y-51113494D01*
X64738815Y-51210185D01*
X64835506Y-51289537D01*
X64945820Y-51348502D01*
X65065518Y-51384812D01*
X65190000Y-51397072D01*
X65754250Y-51394000D01*
X65913000Y-51235250D01*
X65913000Y-49911000D01*
X66167000Y-49911000D01*
X66167000Y-51235250D01*
X66325750Y-51394000D01*
X66890000Y-51397072D01*
X67014482Y-51384812D01*
X67134180Y-51348502D01*
X67244494Y-51289537D01*
X67341185Y-51210185D01*
X67420537Y-51113494D01*
X67479502Y-51003180D01*
X67515812Y-50883482D01*
X67528072Y-50759000D01*
X67525000Y-50069750D01*
X67366250Y-49911000D01*
X66167000Y-49911000D01*
X65913000Y-49911000D01*
X65893000Y-49911000D01*
X65893000Y-49657000D01*
X65913000Y-49657000D01*
X65913000Y-48332750D01*
X66167000Y-48332750D01*
X66167000Y-49657000D01*
X67366250Y-49657000D01*
X67525000Y-49498250D01*
X67527136Y-49019000D01*
X67761637Y-49019000D01*
X68000236Y-48971540D01*
X68224992Y-48878443D01*
X68427267Y-48743287D01*
X68599287Y-48571267D01*
X68734443Y-48368992D01*
X68827540Y-48144236D01*
X68875000Y-47905637D01*
X68875000Y-47662363D01*
X68827540Y-47423764D01*
X68734443Y-47199008D01*
X68599287Y-46996733D01*
X68427267Y-46824713D01*
X68224992Y-46689557D01*
X68000236Y-46596460D01*
X67761637Y-46549000D01*
X67518363Y-46549000D01*
X67279764Y-46596460D01*
X67055008Y-46689557D01*
X66852733Y-46824713D01*
X66680713Y-46996733D01*
X66545557Y-47199008D01*
X66452460Y-47423764D01*
X66405000Y-47662363D01*
X66405000Y-47905637D01*
X66452460Y-48144236D01*
X66464476Y-48173245D01*
X66325750Y-48174000D01*
X66167000Y-48332750D01*
X65913000Y-48332750D01*
X65754250Y-48174000D01*
X65190000Y-48170928D01*
X65065518Y-48183188D01*
X64945820Y-48219498D01*
X64835506Y-48278463D01*
X64738815Y-48357815D01*
X64659463Y-48454506D01*
X64600498Y-48564820D01*
X64589945Y-48599608D01*
X64369014Y-48418294D01*
X64111034Y-48280401D01*
X63831111Y-48195487D01*
X63540000Y-48166815D01*
X63248890Y-48195487D01*
X62968967Y-48280401D01*
X62710987Y-48418294D01*
X62484866Y-48603866D01*
X62299294Y-48829986D01*
X62290000Y-48847374D01*
X62280706Y-48829986D01*
X62095134Y-48603866D01*
X61869014Y-48418294D01*
X61611034Y-48280401D01*
X61331111Y-48195487D01*
X61040000Y-48166815D01*
X60748890Y-48195487D01*
X60468967Y-48280401D01*
X60210987Y-48418294D01*
X59984866Y-48603866D01*
X59799294Y-48829986D01*
X59790000Y-48847374D01*
X59780706Y-48829986D01*
X59595134Y-48603866D01*
X59369014Y-48418294D01*
X59111034Y-48280401D01*
X58831111Y-48195487D01*
X58540000Y-48166815D01*
X58248890Y-48195487D01*
X57968967Y-48280401D01*
X57710987Y-48418294D01*
X57484866Y-48603866D01*
X57299294Y-48829986D01*
X57161401Y-49087966D01*
X57076487Y-49367889D01*
X57055000Y-49586050D01*
X57055000Y-49981949D01*
X57076487Y-50200110D01*
X57161401Y-50480033D01*
X57299294Y-50738013D01*
X57484866Y-50964134D01*
X57710986Y-51149706D01*
X57968966Y-51287599D01*
X58248889Y-51372513D01*
X58540000Y-51401185D01*
X58831110Y-51372513D01*
X59111033Y-51287599D01*
X59369013Y-51149706D01*
X59595134Y-50964134D01*
X59780706Y-50738014D01*
X59790000Y-50720626D01*
X59799294Y-50738013D01*
X59984866Y-50964134D01*
X60210986Y-51149706D01*
X60468966Y-51287599D01*
X60748889Y-51372513D01*
X61040000Y-51401185D01*
X61331110Y-51372513D01*
X61611033Y-51287599D01*
X61869013Y-51149706D01*
X62095134Y-50964134D01*
X62280706Y-50738014D01*
X62290000Y-50720626D01*
X62299294Y-50738013D01*
X62465000Y-50939927D01*
X62465001Y-56084892D01*
X62346525Y-56203368D01*
X62230000Y-56377760D01*
X62113475Y-56203368D01*
X61906632Y-55996525D01*
X61663411Y-55834010D01*
X61393158Y-55722068D01*
X61106260Y-55665000D01*
X60813740Y-55665000D01*
X60526842Y-55722068D01*
X60256589Y-55834010D01*
X60013368Y-55996525D01*
X59806525Y-56203368D01*
X59690000Y-56377760D01*
X59573475Y-56203368D01*
X59366632Y-55996525D01*
X59123411Y-55834010D01*
X58853158Y-55722068D01*
X58566260Y-55665000D01*
X58273740Y-55665000D01*
X57986842Y-55722068D01*
X57716589Y-55834010D01*
X57473368Y-55996525D01*
X57266525Y-56203368D01*
X57104010Y-56446589D01*
X56992068Y-56716842D01*
X56935000Y-57003740D01*
X56935000Y-57296260D01*
X56992068Y-57583158D01*
X57104010Y-57853411D01*
X57266525Y-58096632D01*
X57473368Y-58303475D01*
X57619325Y-58401000D01*
X50974711Y-58401000D01*
X49745000Y-57171290D01*
X49745000Y-57003740D01*
X49687932Y-56716842D01*
X49575990Y-56446589D01*
X49413475Y-56203368D01*
X49206632Y-55996525D01*
X48963411Y-55834010D01*
X48693158Y-55722068D01*
X48406260Y-55665000D01*
X48113740Y-55665000D01*
X47826842Y-55722068D01*
X47556589Y-55834010D01*
X47313368Y-55996525D01*
X47106525Y-56203368D01*
X46944010Y-56446589D01*
X46832068Y-56716842D01*
X46775000Y-57003740D01*
X46775000Y-57296260D01*
X46832068Y-57583158D01*
X46944010Y-57853411D01*
X47106525Y-58096632D01*
X47313368Y-58303475D01*
X47487760Y-58420000D01*
X47313368Y-58536525D01*
X47106525Y-58743368D01*
X46944010Y-58986589D01*
X46832068Y-59256842D01*
X46775000Y-59543740D01*
X46775000Y-59836260D01*
X46832068Y-60123158D01*
X46944010Y-60393411D01*
X47106525Y-60636632D01*
X47238380Y-60768487D01*
X47165820Y-60790498D01*
X47055506Y-60849463D01*
X46958815Y-60928815D01*
X46879463Y-61025506D01*
X46820498Y-61135820D01*
X46784188Y-61255518D01*
X46771928Y-61380000D01*
X42291000Y-61380000D01*
X42291000Y-51928665D01*
X43777000Y-51928665D01*
X43777000Y-52211335D01*
X43832147Y-52488574D01*
X43940320Y-52749727D01*
X44097363Y-52984759D01*
X44297241Y-53184637D01*
X44532273Y-53341680D01*
X44793426Y-53449853D01*
X45070665Y-53505000D01*
X45353335Y-53505000D01*
X45630574Y-53449853D01*
X45891727Y-53341680D01*
X46126759Y-53184637D01*
X46248694Y-53062702D01*
X49398903Y-53062702D01*
X49470486Y-53306671D01*
X49725996Y-53427571D01*
X50000184Y-53496300D01*
X50282512Y-53510217D01*
X50562130Y-53468787D01*
X50828292Y-53373603D01*
X50953514Y-53306671D01*
X51025097Y-53062702D01*
X50212000Y-52249605D01*
X49398903Y-53062702D01*
X46248694Y-53062702D01*
X46326637Y-52984759D01*
X46483680Y-52749727D01*
X46591853Y-52488574D01*
X46647000Y-52211335D01*
X46647000Y-52140512D01*
X48771783Y-52140512D01*
X48813213Y-52420130D01*
X48908397Y-52686292D01*
X48975329Y-52811514D01*
X49219298Y-52883097D01*
X50032395Y-52070000D01*
X50391605Y-52070000D01*
X51204702Y-52883097D01*
X51448671Y-52811514D01*
X51569571Y-52556004D01*
X51638300Y-52281816D01*
X51652217Y-51999488D01*
X51610787Y-51719870D01*
X51515603Y-51453708D01*
X51448671Y-51328486D01*
X51204702Y-51256903D01*
X50391605Y-52070000D01*
X50032395Y-52070000D01*
X49219298Y-51256903D01*
X48975329Y-51328486D01*
X48854429Y-51583996D01*
X48785700Y-51858184D01*
X48771783Y-52140512D01*
X46647000Y-52140512D01*
X46647000Y-51928665D01*
X46591853Y-51651426D01*
X46483680Y-51390273D01*
X46326637Y-51155241D01*
X46248694Y-51077298D01*
X49398903Y-51077298D01*
X50212000Y-51890395D01*
X51025097Y-51077298D01*
X50953514Y-50833329D01*
X50698004Y-50712429D01*
X50423816Y-50643700D01*
X50141488Y-50629783D01*
X49861870Y-50671213D01*
X49595708Y-50766397D01*
X49470486Y-50833329D01*
X49398903Y-51077298D01*
X46248694Y-51077298D01*
X46126759Y-50955363D01*
X45891727Y-50798320D01*
X45630574Y-50690147D01*
X45353335Y-50635000D01*
X45070665Y-50635000D01*
X44793426Y-50690147D01*
X44532273Y-50798320D01*
X44297241Y-50955363D01*
X44097363Y-51155241D01*
X43940320Y-51390273D01*
X43832147Y-51651426D01*
X43777000Y-51928665D01*
X42291000Y-51928665D01*
X42291000Y-43840061D01*
X51289000Y-43840061D01*
X51289000Y-44043939D01*
X51328774Y-44243898D01*
X51406795Y-44432256D01*
X51520063Y-44601774D01*
X51664226Y-44745937D01*
X51833744Y-44859205D01*
X52022102Y-44937226D01*
X52222061Y-44977000D01*
X52425939Y-44977000D01*
X52625898Y-44937226D01*
X52814256Y-44859205D01*
X52937285Y-44777000D01*
X53742715Y-44777000D01*
X53865744Y-44859205D01*
X54054102Y-44937226D01*
X54254061Y-44977000D01*
X54457939Y-44977000D01*
X54657898Y-44937226D01*
X54846256Y-44859205D01*
X55015774Y-44745937D01*
X55159937Y-44601774D01*
X55273205Y-44432256D01*
X55351226Y-44243898D01*
X55391000Y-44043939D01*
X55391000Y-43840061D01*
X55351226Y-43640102D01*
X55312523Y-43546665D01*
X61176000Y-43546665D01*
X61176000Y-43829335D01*
X61231147Y-44106574D01*
X61339320Y-44367727D01*
X61496363Y-44602759D01*
X61696241Y-44802637D01*
X61931273Y-44959680D01*
X62192426Y-45067853D01*
X62469665Y-45123000D01*
X62752335Y-45123000D01*
X63029574Y-45067853D01*
X63290727Y-44959680D01*
X63525759Y-44802637D01*
X63725637Y-44602759D01*
X63882680Y-44367727D01*
X63990853Y-44106574D01*
X64046000Y-43829335D01*
X64046000Y-43546665D01*
X68796000Y-43546665D01*
X68796000Y-43829335D01*
X68851147Y-44106574D01*
X68959320Y-44367727D01*
X69116363Y-44602759D01*
X69316241Y-44802637D01*
X69551273Y-44959680D01*
X69812426Y-45067853D01*
X70089665Y-45123000D01*
X70372335Y-45123000D01*
X70649574Y-45067853D01*
X70910727Y-44959680D01*
X71145759Y-44802637D01*
X71345637Y-44602759D01*
X71502680Y-44367727D01*
X71610853Y-44106574D01*
X71666000Y-43829335D01*
X71666000Y-43546665D01*
X71610853Y-43269426D01*
X71502680Y-43008273D01*
X71345637Y-42773241D01*
X71145759Y-42573363D01*
X70910727Y-42416320D01*
X70649574Y-42308147D01*
X70372335Y-42253000D01*
X70089665Y-42253000D01*
X69812426Y-42308147D01*
X69551273Y-42416320D01*
X69316241Y-42573363D01*
X69116363Y-42773241D01*
X68959320Y-43008273D01*
X68851147Y-43269426D01*
X68796000Y-43546665D01*
X64046000Y-43546665D01*
X63990853Y-43269426D01*
X63882680Y-43008273D01*
X63725637Y-42773241D01*
X63525759Y-42573363D01*
X63290727Y-42416320D01*
X63029574Y-42308147D01*
X62752335Y-42253000D01*
X62469665Y-42253000D01*
X62192426Y-42308147D01*
X61931273Y-42416320D01*
X61696241Y-42573363D01*
X61496363Y-42773241D01*
X61339320Y-43008273D01*
X61231147Y-43269426D01*
X61176000Y-43546665D01*
X55312523Y-43546665D01*
X55273205Y-43451744D01*
X55159937Y-43282226D01*
X55015774Y-43138063D01*
X54846256Y-43024795D01*
X54657898Y-42946774D01*
X54457939Y-42907000D01*
X54254061Y-42907000D01*
X54054102Y-42946774D01*
X53865744Y-43024795D01*
X53742715Y-43107000D01*
X52937285Y-43107000D01*
X52814256Y-43024795D01*
X52625898Y-42946774D01*
X52425939Y-42907000D01*
X52222061Y-42907000D01*
X52022102Y-42946774D01*
X51833744Y-43024795D01*
X51664226Y-43138063D01*
X51520063Y-43282226D01*
X51406795Y-43451744D01*
X51328774Y-43640102D01*
X51289000Y-43840061D01*
X42291000Y-43840061D01*
X42291000Y-39536000D01*
X56296928Y-39536000D01*
X56296928Y-41236000D01*
X56309188Y-41360482D01*
X56345498Y-41480180D01*
X56404463Y-41590494D01*
X56483815Y-41687185D01*
X56580506Y-41766537D01*
X56690820Y-41825502D01*
X56810518Y-41861812D01*
X56935000Y-41874072D01*
X58635000Y-41874072D01*
X58759482Y-41861812D01*
X58879180Y-41825502D01*
X58989494Y-41766537D01*
X59086185Y-41687185D01*
X59165537Y-41590494D01*
X59224502Y-41480180D01*
X59246513Y-41407620D01*
X59378368Y-41539475D01*
X59621589Y-41701990D01*
X59891842Y-41813932D01*
X60178740Y-41871000D01*
X60471260Y-41871000D01*
X60758158Y-41813932D01*
X61028411Y-41701990D01*
X61271632Y-41539475D01*
X61478475Y-41332632D01*
X61533092Y-41250891D01*
X76028519Y-41250891D01*
X76125843Y-41525252D01*
X76274822Y-41775355D01*
X76469731Y-41991588D01*
X76703080Y-42165641D01*
X76965901Y-42290825D01*
X77113110Y-42335476D01*
X77343000Y-42214155D01*
X77343000Y-41021000D01*
X76149186Y-41021000D01*
X76028519Y-41250891D01*
X61533092Y-41250891D01*
X61640990Y-41089411D01*
X61752932Y-40819158D01*
X61809035Y-40537109D01*
X76028519Y-40537109D01*
X76149186Y-40767000D01*
X77343000Y-40767000D01*
X77343000Y-39573845D01*
X77597000Y-39573845D01*
X77597000Y-40767000D01*
X77617000Y-40767000D01*
X77617000Y-41021000D01*
X77597000Y-41021000D01*
X77597000Y-42214155D01*
X77826890Y-42335476D01*
X77974099Y-42290825D01*
X78236920Y-42165641D01*
X78470269Y-41991588D01*
X78665178Y-41775355D01*
X78734805Y-41658466D01*
X78856525Y-41840632D01*
X79063368Y-42047475D01*
X79306589Y-42209990D01*
X79576842Y-42321932D01*
X79863740Y-42379000D01*
X80156260Y-42379000D01*
X80443158Y-42321932D01*
X80713411Y-42209990D01*
X80956632Y-42047475D01*
X81163475Y-41840632D01*
X81280000Y-41666240D01*
X81396525Y-41840632D01*
X81603368Y-42047475D01*
X81846589Y-42209990D01*
X82116842Y-42321932D01*
X82403740Y-42379000D01*
X82696260Y-42379000D01*
X82983158Y-42321932D01*
X83253411Y-42209990D01*
X83496632Y-42047475D01*
X83703475Y-41840632D01*
X83820000Y-41666240D01*
X83936525Y-41840632D01*
X84143368Y-42047475D01*
X84386589Y-42209990D01*
X84656842Y-42321932D01*
X84943740Y-42379000D01*
X85236260Y-42379000D01*
X85523158Y-42321932D01*
X85793411Y-42209990D01*
X86036632Y-42047475D01*
X86243475Y-41840632D01*
X86360000Y-41666240D01*
X86476525Y-41840632D01*
X86683368Y-42047475D01*
X86926589Y-42209990D01*
X87196842Y-42321932D01*
X87483740Y-42379000D01*
X87776260Y-42379000D01*
X88063158Y-42321932D01*
X88333411Y-42209990D01*
X88576632Y-42047475D01*
X88783475Y-41840632D01*
X88900000Y-41666240D01*
X89016525Y-41840632D01*
X89223368Y-42047475D01*
X89466589Y-42209990D01*
X89736842Y-42321932D01*
X90023740Y-42379000D01*
X90316260Y-42379000D01*
X90603158Y-42321932D01*
X90873411Y-42209990D01*
X91116632Y-42047475D01*
X91323475Y-41840632D01*
X91445195Y-41658466D01*
X91514822Y-41775355D01*
X91709731Y-41991588D01*
X91943080Y-42165641D01*
X92205901Y-42290825D01*
X92353110Y-42335476D01*
X92583000Y-42214155D01*
X92583000Y-41021000D01*
X92563000Y-41021000D01*
X92563000Y-40767000D01*
X92583000Y-40767000D01*
X92583000Y-39573845D01*
X92837000Y-39573845D01*
X92837000Y-40767000D01*
X92857000Y-40767000D01*
X92857000Y-41021000D01*
X92837000Y-41021000D01*
X92837000Y-42214155D01*
X93066890Y-42335476D01*
X93214099Y-42290825D01*
X93476920Y-42165641D01*
X93710269Y-41991588D01*
X93905178Y-41775355D01*
X93974805Y-41658466D01*
X94096525Y-41840632D01*
X94303368Y-42047475D01*
X94546589Y-42209990D01*
X94816842Y-42321932D01*
X95103740Y-42379000D01*
X95396260Y-42379000D01*
X95683158Y-42321932D01*
X95953411Y-42209990D01*
X96196632Y-42047475D01*
X96403475Y-41840632D01*
X96520000Y-41666240D01*
X96636525Y-41840632D01*
X96843368Y-42047475D01*
X97086589Y-42209990D01*
X97356842Y-42321932D01*
X97643740Y-42379000D01*
X97936260Y-42379000D01*
X98223158Y-42321932D01*
X98493411Y-42209990D01*
X98736632Y-42047475D01*
X98943475Y-41840632D01*
X99060000Y-41666240D01*
X99176525Y-41840632D01*
X99383368Y-42047475D01*
X99626589Y-42209990D01*
X99896842Y-42321932D01*
X100183740Y-42379000D01*
X100476260Y-42379000D01*
X100763158Y-42321932D01*
X101033411Y-42209990D01*
X101276632Y-42047475D01*
X101483475Y-41840632D01*
X101600000Y-41666240D01*
X101716525Y-41840632D01*
X101923368Y-42047475D01*
X102166589Y-42209990D01*
X102436842Y-42321932D01*
X102723740Y-42379000D01*
X103016260Y-42379000D01*
X103303158Y-42321932D01*
X103573411Y-42209990D01*
X103816632Y-42047475D01*
X104023475Y-41840632D01*
X104140000Y-41666240D01*
X104256525Y-41840632D01*
X104463368Y-42047475D01*
X104706589Y-42209990D01*
X104976842Y-42321932D01*
X105263740Y-42379000D01*
X105556260Y-42379000D01*
X105843158Y-42321932D01*
X106113411Y-42209990D01*
X106356632Y-42047475D01*
X106563475Y-41840632D01*
X106680000Y-41666240D01*
X106796525Y-41840632D01*
X107003368Y-42047475D01*
X107246589Y-42209990D01*
X107516842Y-42321932D01*
X107803740Y-42379000D01*
X108096260Y-42379000D01*
X108383158Y-42321932D01*
X108653411Y-42209990D01*
X108896632Y-42047475D01*
X109103475Y-41840632D01*
X109220000Y-41666240D01*
X109336525Y-41840632D01*
X109543368Y-42047475D01*
X109786589Y-42209990D01*
X110056842Y-42321932D01*
X110343740Y-42379000D01*
X110636260Y-42379000D01*
X110923158Y-42321932D01*
X111193411Y-42209990D01*
X111436632Y-42047475D01*
X111643475Y-41840632D01*
X111760000Y-41666240D01*
X111876525Y-41840632D01*
X112083368Y-42047475D01*
X112326589Y-42209990D01*
X112596842Y-42321932D01*
X112883740Y-42379000D01*
X113176260Y-42379000D01*
X113463158Y-42321932D01*
X113733411Y-42209990D01*
X113976632Y-42047475D01*
X114183475Y-41840632D01*
X114300000Y-41666240D01*
X114416525Y-41840632D01*
X114623368Y-42047475D01*
X114866589Y-42209990D01*
X115136842Y-42321932D01*
X115423740Y-42379000D01*
X115716260Y-42379000D01*
X116003158Y-42321932D01*
X116273411Y-42209990D01*
X116516632Y-42047475D01*
X116723475Y-41840632D01*
X116840000Y-41666240D01*
X116956525Y-41840632D01*
X117163368Y-42047475D01*
X117406589Y-42209990D01*
X117676842Y-42321932D01*
X117963740Y-42379000D01*
X118256260Y-42379000D01*
X118543158Y-42321932D01*
X118813411Y-42209990D01*
X119056632Y-42047475D01*
X119263475Y-41840632D01*
X119380000Y-41666240D01*
X119496525Y-41840632D01*
X119703368Y-42047475D01*
X119946589Y-42209990D01*
X120216842Y-42321932D01*
X120503740Y-42379000D01*
X120796260Y-42379000D01*
X121083158Y-42321932D01*
X121353411Y-42209990D01*
X121596632Y-42047475D01*
X121728487Y-41915620D01*
X121750498Y-41988180D01*
X121809463Y-42098494D01*
X121888815Y-42195185D01*
X121985506Y-42274537D01*
X122095820Y-42333502D01*
X122215518Y-42369812D01*
X122340000Y-42382072D01*
X124040000Y-42382072D01*
X124164482Y-42369812D01*
X124284180Y-42333502D01*
X124394494Y-42274537D01*
X124491185Y-42195185D01*
X124570537Y-42098494D01*
X124629502Y-41988180D01*
X124665812Y-41868482D01*
X124678072Y-41744000D01*
X124678072Y-40044000D01*
X124665812Y-39919518D01*
X124629502Y-39799820D01*
X124570537Y-39689506D01*
X124491185Y-39592815D01*
X124394494Y-39513463D01*
X124284180Y-39454498D01*
X124164482Y-39418188D01*
X124040000Y-39405928D01*
X122340000Y-39405928D01*
X122215518Y-39418188D01*
X122095820Y-39454498D01*
X121985506Y-39513463D01*
X121888815Y-39592815D01*
X121809463Y-39689506D01*
X121750498Y-39799820D01*
X121728487Y-39872380D01*
X121596632Y-39740525D01*
X121353411Y-39578010D01*
X121083158Y-39466068D01*
X120796260Y-39409000D01*
X120503740Y-39409000D01*
X120216842Y-39466068D01*
X119946589Y-39578010D01*
X119703368Y-39740525D01*
X119496525Y-39947368D01*
X119380000Y-40121760D01*
X119263475Y-39947368D01*
X119056632Y-39740525D01*
X118813411Y-39578010D01*
X118543158Y-39466068D01*
X118256260Y-39409000D01*
X117963740Y-39409000D01*
X117676842Y-39466068D01*
X117406589Y-39578010D01*
X117163368Y-39740525D01*
X116956525Y-39947368D01*
X116840000Y-40121760D01*
X116723475Y-39947368D01*
X116516632Y-39740525D01*
X116273411Y-39578010D01*
X116003158Y-39466068D01*
X115716260Y-39409000D01*
X115423740Y-39409000D01*
X115136842Y-39466068D01*
X114866589Y-39578010D01*
X114623368Y-39740525D01*
X114416525Y-39947368D01*
X114300000Y-40121760D01*
X114183475Y-39947368D01*
X113976632Y-39740525D01*
X113733411Y-39578010D01*
X113463158Y-39466068D01*
X113176260Y-39409000D01*
X112883740Y-39409000D01*
X112596842Y-39466068D01*
X112326589Y-39578010D01*
X112083368Y-39740525D01*
X111876525Y-39947368D01*
X111760000Y-40121760D01*
X111643475Y-39947368D01*
X111436632Y-39740525D01*
X111193411Y-39578010D01*
X110923158Y-39466068D01*
X110636260Y-39409000D01*
X110343740Y-39409000D01*
X110056842Y-39466068D01*
X109786589Y-39578010D01*
X109543368Y-39740525D01*
X109336525Y-39947368D01*
X109220000Y-40121760D01*
X109103475Y-39947368D01*
X108896632Y-39740525D01*
X108653411Y-39578010D01*
X108383158Y-39466068D01*
X108096260Y-39409000D01*
X107803740Y-39409000D01*
X107516842Y-39466068D01*
X107246589Y-39578010D01*
X107003368Y-39740525D01*
X106796525Y-39947368D01*
X106680000Y-40121760D01*
X106563475Y-39947368D01*
X106356632Y-39740525D01*
X106113411Y-39578010D01*
X105843158Y-39466068D01*
X105556260Y-39409000D01*
X105263740Y-39409000D01*
X104976842Y-39466068D01*
X104706589Y-39578010D01*
X104463368Y-39740525D01*
X104256525Y-39947368D01*
X104140000Y-40121760D01*
X104023475Y-39947368D01*
X103816632Y-39740525D01*
X103573411Y-39578010D01*
X103303158Y-39466068D01*
X103016260Y-39409000D01*
X102723740Y-39409000D01*
X102436842Y-39466068D01*
X102166589Y-39578010D01*
X101923368Y-39740525D01*
X101716525Y-39947368D01*
X101600000Y-40121760D01*
X101483475Y-39947368D01*
X101276632Y-39740525D01*
X101033411Y-39578010D01*
X100763158Y-39466068D01*
X100476260Y-39409000D01*
X100183740Y-39409000D01*
X99896842Y-39466068D01*
X99626589Y-39578010D01*
X99383368Y-39740525D01*
X99176525Y-39947368D01*
X99060000Y-40121760D01*
X98943475Y-39947368D01*
X98736632Y-39740525D01*
X98493411Y-39578010D01*
X98223158Y-39466068D01*
X97936260Y-39409000D01*
X97643740Y-39409000D01*
X97356842Y-39466068D01*
X97086589Y-39578010D01*
X96843368Y-39740525D01*
X96636525Y-39947368D01*
X96520000Y-40121760D01*
X96403475Y-39947368D01*
X96196632Y-39740525D01*
X95953411Y-39578010D01*
X95683158Y-39466068D01*
X95396260Y-39409000D01*
X95103740Y-39409000D01*
X94816842Y-39466068D01*
X94546589Y-39578010D01*
X94303368Y-39740525D01*
X94096525Y-39947368D01*
X93974805Y-40129534D01*
X93905178Y-40012645D01*
X93710269Y-39796412D01*
X93476920Y-39622359D01*
X93214099Y-39497175D01*
X93066890Y-39452524D01*
X92837000Y-39573845D01*
X92583000Y-39573845D01*
X92353110Y-39452524D01*
X92205901Y-39497175D01*
X91943080Y-39622359D01*
X91709731Y-39796412D01*
X91514822Y-40012645D01*
X91445195Y-40129534D01*
X91323475Y-39947368D01*
X91116632Y-39740525D01*
X90873411Y-39578010D01*
X90603158Y-39466068D01*
X90316260Y-39409000D01*
X90023740Y-39409000D01*
X89736842Y-39466068D01*
X89466589Y-39578010D01*
X89223368Y-39740525D01*
X89016525Y-39947368D01*
X88900000Y-40121760D01*
X88783475Y-39947368D01*
X88576632Y-39740525D01*
X88333411Y-39578010D01*
X88063158Y-39466068D01*
X87776260Y-39409000D01*
X87483740Y-39409000D01*
X87196842Y-39466068D01*
X86926589Y-39578010D01*
X86683368Y-39740525D01*
X86476525Y-39947368D01*
X86360000Y-40121760D01*
X86243475Y-39947368D01*
X86036632Y-39740525D01*
X85793411Y-39578010D01*
X85523158Y-39466068D01*
X85236260Y-39409000D01*
X84943740Y-39409000D01*
X84656842Y-39466068D01*
X84386589Y-39578010D01*
X84143368Y-39740525D01*
X83936525Y-39947368D01*
X83820000Y-40121760D01*
X83703475Y-39947368D01*
X83496632Y-39740525D01*
X83253411Y-39578010D01*
X82983158Y-39466068D01*
X82696260Y-39409000D01*
X82403740Y-39409000D01*
X82116842Y-39466068D01*
X81846589Y-39578010D01*
X81603368Y-39740525D01*
X81396525Y-39947368D01*
X81280000Y-40121760D01*
X81163475Y-39947368D01*
X80956632Y-39740525D01*
X80713411Y-39578010D01*
X80443158Y-39466068D01*
X80156260Y-39409000D01*
X79863740Y-39409000D01*
X79576842Y-39466068D01*
X79306589Y-39578010D01*
X79063368Y-39740525D01*
X78856525Y-39947368D01*
X78734805Y-40129534D01*
X78665178Y-40012645D01*
X78470269Y-39796412D01*
X78236920Y-39622359D01*
X77974099Y-39497175D01*
X77826890Y-39452524D01*
X77597000Y-39573845D01*
X77343000Y-39573845D01*
X77113110Y-39452524D01*
X76965901Y-39497175D01*
X76703080Y-39622359D01*
X76469731Y-39796412D01*
X76274822Y-40012645D01*
X76125843Y-40262748D01*
X76028519Y-40537109D01*
X61809035Y-40537109D01*
X61810000Y-40532260D01*
X61810000Y-40239740D01*
X61752932Y-39952842D01*
X61640990Y-39682589D01*
X61478475Y-39439368D01*
X61271632Y-39232525D01*
X61028411Y-39070010D01*
X60758158Y-38958068D01*
X60471260Y-38901000D01*
X60178740Y-38901000D01*
X59891842Y-38958068D01*
X59621589Y-39070010D01*
X59378368Y-39232525D01*
X59246513Y-39364380D01*
X59224502Y-39291820D01*
X59165537Y-39181506D01*
X59086185Y-39084815D01*
X58989494Y-39005463D01*
X58879180Y-38946498D01*
X58759482Y-38910188D01*
X58635000Y-38897928D01*
X56935000Y-38897928D01*
X56810518Y-38910188D01*
X56690820Y-38946498D01*
X56580506Y-39005463D01*
X56483815Y-39084815D01*
X56404463Y-39181506D01*
X56345498Y-39291820D01*
X56309188Y-39411518D01*
X56296928Y-39536000D01*
X42291000Y-39536000D01*
X42291000Y-34505000D01*
X68871928Y-34505000D01*
X68884188Y-34629482D01*
X68920498Y-34749180D01*
X68979463Y-34859494D01*
X69058815Y-34956185D01*
X69155506Y-35035537D01*
X69265820Y-35094502D01*
X69385518Y-35130812D01*
X69510000Y-35143072D01*
X70199250Y-35140000D01*
X70358000Y-34981250D01*
X70358000Y-33782000D01*
X70612000Y-33782000D01*
X70612000Y-34981250D01*
X70770750Y-35140000D01*
X71250000Y-35142136D01*
X71250000Y-35376637D01*
X71297460Y-35615236D01*
X71390557Y-35839992D01*
X71525713Y-36042267D01*
X71697733Y-36214287D01*
X71900008Y-36349443D01*
X72124764Y-36442540D01*
X72363363Y-36490000D01*
X72606637Y-36490000D01*
X72845236Y-36442540D01*
X73069992Y-36349443D01*
X73272267Y-36214287D01*
X73444287Y-36042267D01*
X73579443Y-35839992D01*
X73672540Y-35615236D01*
X73720000Y-35376637D01*
X73720000Y-35133363D01*
X73672540Y-34894764D01*
X73579443Y-34670008D01*
X73469189Y-34505000D01*
X78396928Y-34505000D01*
X78409188Y-34629482D01*
X78445498Y-34749180D01*
X78504463Y-34859494D01*
X78583815Y-34956185D01*
X78680506Y-35035537D01*
X78790820Y-35094502D01*
X78910518Y-35130812D01*
X79035000Y-35143072D01*
X79724250Y-35140000D01*
X79883000Y-34981250D01*
X79883000Y-33782000D01*
X80137000Y-33782000D01*
X80137000Y-34981250D01*
X80295750Y-35140000D01*
X80775000Y-35142136D01*
X80775000Y-35376637D01*
X80822460Y-35615236D01*
X80915557Y-35839992D01*
X81050713Y-36042267D01*
X81222733Y-36214287D01*
X81425008Y-36349443D01*
X81649764Y-36442540D01*
X81888363Y-36490000D01*
X82131637Y-36490000D01*
X82370236Y-36442540D01*
X82594992Y-36349443D01*
X82797267Y-36214287D01*
X82969287Y-36042267D01*
X83104443Y-35839992D01*
X83197540Y-35615236D01*
X83245000Y-35376637D01*
X83245000Y-35133363D01*
X83197540Y-34894764D01*
X83104443Y-34670008D01*
X82994189Y-34505000D01*
X87921928Y-34505000D01*
X87934188Y-34629482D01*
X87970498Y-34749180D01*
X88029463Y-34859494D01*
X88108815Y-34956185D01*
X88205506Y-35035537D01*
X88315820Y-35094502D01*
X88435518Y-35130812D01*
X88560000Y-35143072D01*
X89249250Y-35140000D01*
X89408000Y-34981250D01*
X89408000Y-33782000D01*
X89662000Y-33782000D01*
X89662000Y-34981250D01*
X89820750Y-35140000D01*
X90300000Y-35142136D01*
X90300000Y-35376637D01*
X90347460Y-35615236D01*
X90440557Y-35839992D01*
X90575713Y-36042267D01*
X90747733Y-36214287D01*
X90950008Y-36349443D01*
X91174764Y-36442540D01*
X91413363Y-36490000D01*
X91656637Y-36490000D01*
X91895236Y-36442540D01*
X92119992Y-36349443D01*
X92322267Y-36214287D01*
X92494287Y-36042267D01*
X92629443Y-35839992D01*
X92722540Y-35615236D01*
X92770000Y-35376637D01*
X92770000Y-35133363D01*
X92722540Y-34894764D01*
X92629443Y-34670008D01*
X92519189Y-34505000D01*
X97446928Y-34505000D01*
X97459188Y-34629482D01*
X97495498Y-34749180D01*
X97554463Y-34859494D01*
X97633815Y-34956185D01*
X97730506Y-35035537D01*
X97840820Y-35094502D01*
X97960518Y-35130812D01*
X98085000Y-35143072D01*
X98774250Y-35140000D01*
X98933000Y-34981250D01*
X98933000Y-33782000D01*
X99187000Y-33782000D01*
X99187000Y-34981250D01*
X99345750Y-35140000D01*
X99825000Y-35142136D01*
X99825000Y-35376637D01*
X99872460Y-35615236D01*
X99965557Y-35839992D01*
X100100713Y-36042267D01*
X100272733Y-36214287D01*
X100475008Y-36349443D01*
X100699764Y-36442540D01*
X100938363Y-36490000D01*
X101181637Y-36490000D01*
X101420236Y-36442540D01*
X101644992Y-36349443D01*
X101847267Y-36214287D01*
X102019287Y-36042267D01*
X102154443Y-35839992D01*
X102247540Y-35615236D01*
X102295000Y-35376637D01*
X102295000Y-35133363D01*
X102247540Y-34894764D01*
X102154443Y-34670008D01*
X102044189Y-34505000D01*
X106971928Y-34505000D01*
X106984188Y-34629482D01*
X107020498Y-34749180D01*
X107079463Y-34859494D01*
X107158815Y-34956185D01*
X107255506Y-35035537D01*
X107365820Y-35094502D01*
X107485518Y-35130812D01*
X107610000Y-35143072D01*
X108299250Y-35140000D01*
X108458000Y-34981250D01*
X108458000Y-33782000D01*
X108712000Y-33782000D01*
X108712000Y-34981250D01*
X108870750Y-35140000D01*
X109350000Y-35142136D01*
X109350000Y-35376637D01*
X109397460Y-35615236D01*
X109490557Y-35839992D01*
X109625713Y-36042267D01*
X109797733Y-36214287D01*
X110000008Y-36349443D01*
X110224764Y-36442540D01*
X110463363Y-36490000D01*
X110706637Y-36490000D01*
X110945236Y-36442540D01*
X111169992Y-36349443D01*
X111372267Y-36214287D01*
X111544287Y-36042267D01*
X111679443Y-35839992D01*
X111772540Y-35615236D01*
X111820000Y-35376637D01*
X111820000Y-35133363D01*
X111772540Y-34894764D01*
X111679443Y-34670008D01*
X111569189Y-34505000D01*
X116496928Y-34505000D01*
X116509188Y-34629482D01*
X116545498Y-34749180D01*
X116604463Y-34859494D01*
X116683815Y-34956185D01*
X116780506Y-35035537D01*
X116890820Y-35094502D01*
X117010518Y-35130812D01*
X117135000Y-35143072D01*
X117824250Y-35140000D01*
X117983000Y-34981250D01*
X117983000Y-33782000D01*
X118237000Y-33782000D01*
X118237000Y-34981250D01*
X118395750Y-35140000D01*
X118875000Y-35142136D01*
X118875000Y-35376637D01*
X118922460Y-35615236D01*
X119015557Y-35839992D01*
X119150713Y-36042267D01*
X119322733Y-36214287D01*
X119525008Y-36349443D01*
X119749764Y-36442540D01*
X119988363Y-36490000D01*
X120231637Y-36490000D01*
X120470236Y-36442540D01*
X120694992Y-36349443D01*
X120897267Y-36214287D01*
X121069287Y-36042267D01*
X121204443Y-35839992D01*
X121297540Y-35615236D01*
X121345000Y-35376637D01*
X121345000Y-35133363D01*
X121297540Y-34894764D01*
X121204443Y-34670008D01*
X121069287Y-34467733D01*
X120897267Y-34295713D01*
X120694992Y-34160557D01*
X120470236Y-34067460D01*
X120231637Y-34020000D01*
X119988363Y-34020000D01*
X119749764Y-34067460D01*
X119720755Y-34079476D01*
X119720000Y-33940750D01*
X119561250Y-33782000D01*
X118237000Y-33782000D01*
X117983000Y-33782000D01*
X116658750Y-33782000D01*
X116500000Y-33940750D01*
X116496928Y-34505000D01*
X111569189Y-34505000D01*
X111544287Y-34467733D01*
X111372267Y-34295713D01*
X111169992Y-34160557D01*
X110945236Y-34067460D01*
X110706637Y-34020000D01*
X110463363Y-34020000D01*
X110224764Y-34067460D01*
X110195755Y-34079476D01*
X110195000Y-33940750D01*
X110036250Y-33782000D01*
X108712000Y-33782000D01*
X108458000Y-33782000D01*
X107133750Y-33782000D01*
X106975000Y-33940750D01*
X106971928Y-34505000D01*
X102044189Y-34505000D01*
X102019287Y-34467733D01*
X101847267Y-34295713D01*
X101644992Y-34160557D01*
X101420236Y-34067460D01*
X101181637Y-34020000D01*
X100938363Y-34020000D01*
X100699764Y-34067460D01*
X100670755Y-34079476D01*
X100670000Y-33940750D01*
X100511250Y-33782000D01*
X99187000Y-33782000D01*
X98933000Y-33782000D01*
X97608750Y-33782000D01*
X97450000Y-33940750D01*
X97446928Y-34505000D01*
X92519189Y-34505000D01*
X92494287Y-34467733D01*
X92322267Y-34295713D01*
X92119992Y-34160557D01*
X91895236Y-34067460D01*
X91656637Y-34020000D01*
X91413363Y-34020000D01*
X91174764Y-34067460D01*
X91145755Y-34079476D01*
X91145000Y-33940750D01*
X90986250Y-33782000D01*
X89662000Y-33782000D01*
X89408000Y-33782000D01*
X88083750Y-33782000D01*
X87925000Y-33940750D01*
X87921928Y-34505000D01*
X82994189Y-34505000D01*
X82969287Y-34467733D01*
X82797267Y-34295713D01*
X82594992Y-34160557D01*
X82370236Y-34067460D01*
X82131637Y-34020000D01*
X81888363Y-34020000D01*
X81649764Y-34067460D01*
X81620755Y-34079476D01*
X81620000Y-33940750D01*
X81461250Y-33782000D01*
X80137000Y-33782000D01*
X79883000Y-33782000D01*
X78558750Y-33782000D01*
X78400000Y-33940750D01*
X78396928Y-34505000D01*
X73469189Y-34505000D01*
X73444287Y-34467733D01*
X73272267Y-34295713D01*
X73069992Y-34160557D01*
X72845236Y-34067460D01*
X72606637Y-34020000D01*
X72363363Y-34020000D01*
X72124764Y-34067460D01*
X72095755Y-34079476D01*
X72095000Y-33940750D01*
X71936250Y-33782000D01*
X70612000Y-33782000D01*
X70358000Y-33782000D01*
X69033750Y-33782000D01*
X68875000Y-33940750D01*
X68871928Y-34505000D01*
X42291000Y-34505000D01*
X42291000Y-29128531D01*
X42331862Y-29189685D01*
X42810315Y-29668138D01*
X43372918Y-30044057D01*
X43998048Y-30302994D01*
X44661682Y-30435000D01*
X45338318Y-30435000D01*
X46001952Y-30302994D01*
X46627082Y-30044057D01*
X47189685Y-29668138D01*
X47668138Y-29189685D01*
X48025402Y-28655000D01*
X68867815Y-28655000D01*
X68896487Y-28946111D01*
X68981401Y-29226034D01*
X69119294Y-29484014D01*
X69304866Y-29710134D01*
X69530986Y-29895706D01*
X69548374Y-29905000D01*
X69530986Y-29914294D01*
X69304866Y-30099866D01*
X69119294Y-30325986D01*
X68981401Y-30583966D01*
X68896487Y-30863889D01*
X68867815Y-31155000D01*
X68896487Y-31446111D01*
X68981401Y-31726034D01*
X69119294Y-31984014D01*
X69300608Y-32204945D01*
X69265820Y-32215498D01*
X69155506Y-32274463D01*
X69058815Y-32353815D01*
X68979463Y-32450506D01*
X68920498Y-32560820D01*
X68884188Y-32680518D01*
X68871928Y-32805000D01*
X68875000Y-33369250D01*
X69033750Y-33528000D01*
X70358000Y-33528000D01*
X70358000Y-33508000D01*
X70612000Y-33508000D01*
X70612000Y-33528000D01*
X71936250Y-33528000D01*
X72095000Y-33369250D01*
X72098072Y-32805000D01*
X72085812Y-32680518D01*
X72049502Y-32560820D01*
X71990537Y-32450506D01*
X71911185Y-32353815D01*
X71814494Y-32274463D01*
X71704180Y-32215498D01*
X71669392Y-32204945D01*
X71850706Y-31984014D01*
X71988599Y-31726034D01*
X72073513Y-31446111D01*
X72102185Y-31155000D01*
X72073513Y-30863889D01*
X71988599Y-30583966D01*
X71850706Y-30325986D01*
X71665134Y-30099866D01*
X71439014Y-29914294D01*
X71421626Y-29905000D01*
X71439014Y-29895706D01*
X71665134Y-29710134D01*
X71850706Y-29484014D01*
X71988599Y-29226034D01*
X72073513Y-28946111D01*
X72102185Y-28655000D01*
X78392815Y-28655000D01*
X78421487Y-28946111D01*
X78506401Y-29226034D01*
X78644294Y-29484014D01*
X78829866Y-29710134D01*
X79055986Y-29895706D01*
X79073374Y-29905000D01*
X79055986Y-29914294D01*
X78829866Y-30099866D01*
X78644294Y-30325986D01*
X78506401Y-30583966D01*
X78421487Y-30863889D01*
X78392815Y-31155000D01*
X78421487Y-31446111D01*
X78506401Y-31726034D01*
X78644294Y-31984014D01*
X78825608Y-32204945D01*
X78790820Y-32215498D01*
X78680506Y-32274463D01*
X78583815Y-32353815D01*
X78504463Y-32450506D01*
X78445498Y-32560820D01*
X78409188Y-32680518D01*
X78396928Y-32805000D01*
X78400000Y-33369250D01*
X78558750Y-33528000D01*
X79883000Y-33528000D01*
X79883000Y-33508000D01*
X80137000Y-33508000D01*
X80137000Y-33528000D01*
X81461250Y-33528000D01*
X81620000Y-33369250D01*
X81623072Y-32805000D01*
X81610812Y-32680518D01*
X81574502Y-32560820D01*
X81515537Y-32450506D01*
X81436185Y-32353815D01*
X81339494Y-32274463D01*
X81229180Y-32215498D01*
X81194392Y-32204945D01*
X81375706Y-31984014D01*
X81513599Y-31726034D01*
X81598513Y-31446111D01*
X81627185Y-31155000D01*
X81598513Y-30863889D01*
X81513599Y-30583966D01*
X81375706Y-30325986D01*
X81190134Y-30099866D01*
X80964014Y-29914294D01*
X80946626Y-29905000D01*
X80964014Y-29895706D01*
X81190134Y-29710134D01*
X81375706Y-29484014D01*
X81513599Y-29226034D01*
X81598513Y-28946111D01*
X81627185Y-28655000D01*
X87917815Y-28655000D01*
X87946487Y-28946111D01*
X88031401Y-29226034D01*
X88169294Y-29484014D01*
X88354866Y-29710134D01*
X88580986Y-29895706D01*
X88598374Y-29905000D01*
X88580986Y-29914294D01*
X88354866Y-30099866D01*
X88169294Y-30325986D01*
X88031401Y-30583966D01*
X87946487Y-30863889D01*
X87917815Y-31155000D01*
X87946487Y-31446111D01*
X88031401Y-31726034D01*
X88169294Y-31984014D01*
X88350608Y-32204945D01*
X88315820Y-32215498D01*
X88205506Y-32274463D01*
X88108815Y-32353815D01*
X88029463Y-32450506D01*
X87970498Y-32560820D01*
X87934188Y-32680518D01*
X87921928Y-32805000D01*
X87925000Y-33369250D01*
X88083750Y-33528000D01*
X89408000Y-33528000D01*
X89408000Y-33508000D01*
X89662000Y-33508000D01*
X89662000Y-33528000D01*
X90986250Y-33528000D01*
X91145000Y-33369250D01*
X91148072Y-32805000D01*
X91135812Y-32680518D01*
X91099502Y-32560820D01*
X91040537Y-32450506D01*
X90961185Y-32353815D01*
X90864494Y-32274463D01*
X90754180Y-32215498D01*
X90719392Y-32204945D01*
X90900706Y-31984014D01*
X91038599Y-31726034D01*
X91123513Y-31446111D01*
X91152185Y-31155000D01*
X91123513Y-30863889D01*
X91038599Y-30583966D01*
X90900706Y-30325986D01*
X90715134Y-30099866D01*
X90489014Y-29914294D01*
X90471626Y-29905000D01*
X90489014Y-29895706D01*
X90715134Y-29710134D01*
X90900706Y-29484014D01*
X91038599Y-29226034D01*
X91123513Y-28946111D01*
X91152185Y-28655000D01*
X97442815Y-28655000D01*
X97471487Y-28946111D01*
X97556401Y-29226034D01*
X97694294Y-29484014D01*
X97879866Y-29710134D01*
X98105986Y-29895706D01*
X98123374Y-29905000D01*
X98105986Y-29914294D01*
X97879866Y-30099866D01*
X97694294Y-30325986D01*
X97556401Y-30583966D01*
X97471487Y-30863889D01*
X97442815Y-31155000D01*
X97471487Y-31446111D01*
X97556401Y-31726034D01*
X97694294Y-31984014D01*
X97875608Y-32204945D01*
X97840820Y-32215498D01*
X97730506Y-32274463D01*
X97633815Y-32353815D01*
X97554463Y-32450506D01*
X97495498Y-32560820D01*
X97459188Y-32680518D01*
X97446928Y-32805000D01*
X97450000Y-33369250D01*
X97608750Y-33528000D01*
X98933000Y-33528000D01*
X98933000Y-33508000D01*
X99187000Y-33508000D01*
X99187000Y-33528000D01*
X100511250Y-33528000D01*
X100670000Y-33369250D01*
X100673072Y-32805000D01*
X100660812Y-32680518D01*
X100624502Y-32560820D01*
X100565537Y-32450506D01*
X100486185Y-32353815D01*
X100389494Y-32274463D01*
X100279180Y-32215498D01*
X100244392Y-32204945D01*
X100425706Y-31984014D01*
X100563599Y-31726034D01*
X100648513Y-31446111D01*
X100677185Y-31155000D01*
X100648513Y-30863889D01*
X100563599Y-30583966D01*
X100425706Y-30325986D01*
X100240134Y-30099866D01*
X100014014Y-29914294D01*
X99996626Y-29905000D01*
X100014014Y-29895706D01*
X100240134Y-29710134D01*
X100425706Y-29484014D01*
X100563599Y-29226034D01*
X100648513Y-28946111D01*
X100677185Y-28655000D01*
X106967815Y-28655000D01*
X106996487Y-28946111D01*
X107081401Y-29226034D01*
X107219294Y-29484014D01*
X107404866Y-29710134D01*
X107630986Y-29895706D01*
X107648374Y-29905000D01*
X107630986Y-29914294D01*
X107404866Y-30099866D01*
X107219294Y-30325986D01*
X107081401Y-30583966D01*
X106996487Y-30863889D01*
X106967815Y-31155000D01*
X106996487Y-31446111D01*
X107081401Y-31726034D01*
X107219294Y-31984014D01*
X107400608Y-32204945D01*
X107365820Y-32215498D01*
X107255506Y-32274463D01*
X107158815Y-32353815D01*
X107079463Y-32450506D01*
X107020498Y-32560820D01*
X106984188Y-32680518D01*
X106971928Y-32805000D01*
X106975000Y-33369250D01*
X107133750Y-33528000D01*
X108458000Y-33528000D01*
X108458000Y-33508000D01*
X108712000Y-33508000D01*
X108712000Y-33528000D01*
X110036250Y-33528000D01*
X110195000Y-33369250D01*
X110198072Y-32805000D01*
X110185812Y-32680518D01*
X110149502Y-32560820D01*
X110090537Y-32450506D01*
X110011185Y-32353815D01*
X109914494Y-32274463D01*
X109804180Y-32215498D01*
X109769392Y-32204945D01*
X109950706Y-31984014D01*
X110088599Y-31726034D01*
X110173513Y-31446111D01*
X110202185Y-31155000D01*
X110173513Y-30863889D01*
X110088599Y-30583966D01*
X109950706Y-30325986D01*
X109765134Y-30099866D01*
X109539014Y-29914294D01*
X109521626Y-29905000D01*
X109539014Y-29895706D01*
X109765134Y-29710134D01*
X109950706Y-29484014D01*
X110088599Y-29226034D01*
X110173513Y-28946111D01*
X110202185Y-28655000D01*
X116492815Y-28655000D01*
X116521487Y-28946111D01*
X116606401Y-29226034D01*
X116744294Y-29484014D01*
X116929866Y-29710134D01*
X117155986Y-29895706D01*
X117173374Y-29905000D01*
X117155986Y-29914294D01*
X116929866Y-30099866D01*
X116744294Y-30325986D01*
X116606401Y-30583966D01*
X116521487Y-30863889D01*
X116492815Y-31155000D01*
X116521487Y-31446111D01*
X116606401Y-31726034D01*
X116744294Y-31984014D01*
X116925608Y-32204945D01*
X116890820Y-32215498D01*
X116780506Y-32274463D01*
X116683815Y-32353815D01*
X116604463Y-32450506D01*
X116545498Y-32560820D01*
X116509188Y-32680518D01*
X116496928Y-32805000D01*
X116500000Y-33369250D01*
X116658750Y-33528000D01*
X117983000Y-33528000D01*
X117983000Y-33508000D01*
X118237000Y-33508000D01*
X118237000Y-33528000D01*
X119561250Y-33528000D01*
X119720000Y-33369250D01*
X119723072Y-32805000D01*
X119710812Y-32680518D01*
X119674502Y-32560820D01*
X119615537Y-32450506D01*
X119536185Y-32353815D01*
X119439494Y-32274463D01*
X119329180Y-32215498D01*
X119294392Y-32204945D01*
X119475706Y-31984014D01*
X119613599Y-31726034D01*
X119698513Y-31446111D01*
X119727185Y-31155000D01*
X119698513Y-30863889D01*
X119613599Y-30583966D01*
X119475706Y-30325986D01*
X119290134Y-30099866D01*
X119064014Y-29914294D01*
X119046626Y-29905000D01*
X119064014Y-29895706D01*
X119290134Y-29710134D01*
X119475706Y-29484014D01*
X119613599Y-29226034D01*
X119698513Y-28946111D01*
X119727185Y-28655000D01*
X119698513Y-28363889D01*
X119613599Y-28083966D01*
X119475706Y-27825986D01*
X119290134Y-27599866D01*
X119064014Y-27414294D01*
X118806034Y-27276401D01*
X118526111Y-27191487D01*
X118307950Y-27170000D01*
X117912050Y-27170000D01*
X117693889Y-27191487D01*
X117413966Y-27276401D01*
X117155986Y-27414294D01*
X116929866Y-27599866D01*
X116744294Y-27825986D01*
X116606401Y-28083966D01*
X116521487Y-28363889D01*
X116492815Y-28655000D01*
X110202185Y-28655000D01*
X110173513Y-28363889D01*
X110088599Y-28083966D01*
X109950706Y-27825986D01*
X109765134Y-27599866D01*
X109539014Y-27414294D01*
X109281034Y-27276401D01*
X109001111Y-27191487D01*
X108782950Y-27170000D01*
X108387050Y-27170000D01*
X108168889Y-27191487D01*
X107888966Y-27276401D01*
X107630986Y-27414294D01*
X107404866Y-27599866D01*
X107219294Y-27825986D01*
X107081401Y-28083966D01*
X106996487Y-28363889D01*
X106967815Y-28655000D01*
X100677185Y-28655000D01*
X100648513Y-28363889D01*
X100563599Y-28083966D01*
X100425706Y-27825986D01*
X100240134Y-27599866D01*
X100014014Y-27414294D01*
X99756034Y-27276401D01*
X99476111Y-27191487D01*
X99257950Y-27170000D01*
X98862050Y-27170000D01*
X98643889Y-27191487D01*
X98363966Y-27276401D01*
X98105986Y-27414294D01*
X97879866Y-27599866D01*
X97694294Y-27825986D01*
X97556401Y-28083966D01*
X97471487Y-28363889D01*
X97442815Y-28655000D01*
X91152185Y-28655000D01*
X91123513Y-28363889D01*
X91038599Y-28083966D01*
X90900706Y-27825986D01*
X90715134Y-27599866D01*
X90489014Y-27414294D01*
X90231034Y-27276401D01*
X89951111Y-27191487D01*
X89732950Y-27170000D01*
X89337050Y-27170000D01*
X89118889Y-27191487D01*
X88838966Y-27276401D01*
X88580986Y-27414294D01*
X88354866Y-27599866D01*
X88169294Y-27825986D01*
X88031401Y-28083966D01*
X87946487Y-28363889D01*
X87917815Y-28655000D01*
X81627185Y-28655000D01*
X81598513Y-28363889D01*
X81513599Y-28083966D01*
X81375706Y-27825986D01*
X81190134Y-27599866D01*
X80964014Y-27414294D01*
X80706034Y-27276401D01*
X80426111Y-27191487D01*
X80207950Y-27170000D01*
X79812050Y-27170000D01*
X79593889Y-27191487D01*
X79313966Y-27276401D01*
X79055986Y-27414294D01*
X78829866Y-27599866D01*
X78644294Y-27825986D01*
X78506401Y-28083966D01*
X78421487Y-28363889D01*
X78392815Y-28655000D01*
X72102185Y-28655000D01*
X72073513Y-28363889D01*
X71988599Y-28083966D01*
X71850706Y-27825986D01*
X71665134Y-27599866D01*
X71439014Y-27414294D01*
X71181034Y-27276401D01*
X70901111Y-27191487D01*
X70682950Y-27170000D01*
X70287050Y-27170000D01*
X70068889Y-27191487D01*
X69788966Y-27276401D01*
X69530986Y-27414294D01*
X69304866Y-27599866D01*
X69119294Y-27825986D01*
X68981401Y-28083966D01*
X68896487Y-28363889D01*
X68867815Y-28655000D01*
X48025402Y-28655000D01*
X48044057Y-28627082D01*
X48302994Y-28001952D01*
X48435000Y-27338318D01*
X48435000Y-26661682D01*
X48302994Y-25998048D01*
X48044057Y-25372918D01*
X47668138Y-24810315D01*
X47189685Y-24331862D01*
X46697508Y-24003000D01*
X125302492Y-24003000D01*
X124810315Y-24331862D01*
%TA.AperFunction,Conductor*%
D33*
G36*
X124810315Y-24331862D02*
G01*
X124331862Y-24810315D01*
X123955943Y-25372918D01*
X123697006Y-25998048D01*
X123565000Y-26661682D01*
X123565000Y-27338318D01*
X123697006Y-28001952D01*
X123955943Y-28627082D01*
X124331862Y-29189685D01*
X124810315Y-29668138D01*
X125372918Y-30044057D01*
X125998048Y-30302994D01*
X126661682Y-30435000D01*
X127338318Y-30435000D01*
X128001952Y-30302994D01*
X128627082Y-30044057D01*
X129189685Y-29668138D01*
X129413000Y-29444823D01*
X129413000Y-82169000D01*
X113763346Y-82169000D01*
X113755983Y-82161637D01*
X113406302Y-81927988D01*
X113017756Y-81767047D01*
X112605279Y-81685000D01*
X112184721Y-81685000D01*
X111772244Y-81767047D01*
X111383698Y-81927988D01*
X111034017Y-82161637D01*
X111026654Y-82169000D01*
X86458346Y-82169000D01*
X86450983Y-82161637D01*
X86101302Y-81927988D01*
X85712756Y-81767047D01*
X85300279Y-81685000D01*
X84879721Y-81685000D01*
X84467244Y-81767047D01*
X84078698Y-81927988D01*
X83729017Y-82161637D01*
X83721654Y-82169000D01*
X42291000Y-82169000D01*
X42291000Y-80860000D01*
X78775928Y-80860000D01*
X78788188Y-80984482D01*
X78824498Y-81104180D01*
X78883463Y-81214494D01*
X78962815Y-81311185D01*
X79059506Y-81390537D01*
X79169820Y-81449502D01*
X79289518Y-81485812D01*
X79414000Y-81498072D01*
X79978250Y-81495000D01*
X80137000Y-81336250D01*
X80137000Y-80137000D01*
X78937750Y-80137000D01*
X78779000Y-80295750D01*
X78775928Y-80860000D01*
X42291000Y-80860000D01*
X42291000Y-79160000D01*
X78775928Y-79160000D01*
X78779000Y-79724250D01*
X78937750Y-79883000D01*
X80137000Y-79883000D01*
X80137000Y-78683750D01*
X80391000Y-78683750D01*
X80391000Y-79883000D01*
X80411000Y-79883000D01*
X80411000Y-80137000D01*
X80391000Y-80137000D01*
X80391000Y-81336250D01*
X80549750Y-81495000D01*
X81114000Y-81498072D01*
X81238482Y-81485812D01*
X81358180Y-81449502D01*
X81468494Y-81390537D01*
X81565185Y-81311185D01*
X81644537Y-81214494D01*
X81703502Y-81104180D01*
X81725513Y-81031620D01*
X81857368Y-81163475D01*
X82100589Y-81325990D01*
X82370842Y-81437932D01*
X82657740Y-81495000D01*
X82950260Y-81495000D01*
X83237158Y-81437932D01*
X83507411Y-81325990D01*
X83750632Y-81163475D01*
X83957475Y-80956632D01*
X84074000Y-80782240D01*
X84190525Y-80956632D01*
X84397368Y-81163475D01*
X84640589Y-81325990D01*
X84910842Y-81437932D01*
X85197740Y-81495000D01*
X85490260Y-81495000D01*
X85777158Y-81437932D01*
X86047411Y-81325990D01*
X86290632Y-81163475D01*
X86497475Y-80956632D01*
X86659990Y-80713411D01*
X86771932Y-80443158D01*
X86829000Y-80156260D01*
X86829000Y-79863740D01*
X86824103Y-79839117D01*
X87546000Y-79839117D01*
X87546000Y-80180883D01*
X87612675Y-80516081D01*
X87743463Y-80831831D01*
X87933337Y-81115998D01*
X88175002Y-81357663D01*
X88459169Y-81547537D01*
X88774919Y-81678325D01*
X89110117Y-81745000D01*
X89451883Y-81745000D01*
X89787081Y-81678325D01*
X90102831Y-81547537D01*
X90386998Y-81357663D01*
X90628663Y-81115998D01*
X90818537Y-80831831D01*
X90949325Y-80516081D01*
X91016000Y-80180883D01*
X91016000Y-79839117D01*
X90949325Y-79503919D01*
X90818537Y-79188169D01*
X90632671Y-78910000D01*
X95162928Y-78910000D01*
X95162928Y-81110000D01*
X95175188Y-81234482D01*
X95211498Y-81354180D01*
X95270463Y-81464494D01*
X95349815Y-81561185D01*
X95446506Y-81640537D01*
X95556820Y-81699502D01*
X95676518Y-81735812D01*
X95801000Y-81748072D01*
X98001000Y-81748072D01*
X98125482Y-81735812D01*
X98245180Y-81699502D01*
X98355494Y-81640537D01*
X98452185Y-81561185D01*
X98531537Y-81464494D01*
X98590502Y-81354180D01*
X98626812Y-81234482D01*
X98639072Y-81110000D01*
X98639072Y-80860000D01*
X105191928Y-80860000D01*
X105204188Y-80984482D01*
X105240498Y-81104180D01*
X105299463Y-81214494D01*
X105378815Y-81311185D01*
X105475506Y-81390537D01*
X105585820Y-81449502D01*
X105705518Y-81485812D01*
X105830000Y-81498072D01*
X106394250Y-81495000D01*
X106553000Y-81336250D01*
X106553000Y-80137000D01*
X105353750Y-80137000D01*
X105195000Y-80295750D01*
X105191928Y-80860000D01*
X98639072Y-80860000D01*
X98639072Y-79160000D01*
X105191928Y-79160000D01*
X105195000Y-79724250D01*
X105353750Y-79883000D01*
X106553000Y-79883000D01*
X106553000Y-78683750D01*
X106394250Y-78525000D01*
X105830000Y-78521928D01*
X105705518Y-78534188D01*
X105585820Y-78570498D01*
X105475506Y-78629463D01*
X105378815Y-78708815D01*
X105299463Y-78805506D01*
X105240498Y-78915820D01*
X105204188Y-79035518D01*
X105191928Y-79160000D01*
X98639072Y-79160000D01*
X98639072Y-78910000D01*
X98626812Y-78785518D01*
X98590502Y-78665820D01*
X98531537Y-78555506D01*
X98452185Y-78458815D01*
X98355494Y-78379463D01*
X98245180Y-78320498D01*
X98125482Y-78284188D01*
X98001000Y-78271928D01*
X95801000Y-78271928D01*
X95676518Y-78284188D01*
X95556820Y-78320498D01*
X95446506Y-78379463D01*
X95349815Y-78458815D01*
X95270463Y-78555506D01*
X95211498Y-78665820D01*
X95175188Y-78785518D01*
X95162928Y-78910000D01*
X90632671Y-78910000D01*
X90628663Y-78904002D01*
X90386998Y-78662337D01*
X90102831Y-78472463D01*
X89787081Y-78341675D01*
X89451883Y-78275000D01*
X89110117Y-78275000D01*
X88774919Y-78341675D01*
X88459169Y-78472463D01*
X88175002Y-78662337D01*
X87933337Y-78904002D01*
X87743463Y-79188169D01*
X87612675Y-79503919D01*
X87546000Y-79839117D01*
X86824103Y-79839117D01*
X86771932Y-79576842D01*
X86659990Y-79306589D01*
X86497475Y-79063368D01*
X86290632Y-78856525D01*
X86047411Y-78694010D01*
X85777158Y-78582068D01*
X85490260Y-78525000D01*
X85197740Y-78525000D01*
X84910842Y-78582068D01*
X84640589Y-78694010D01*
X84397368Y-78856525D01*
X84190525Y-79063368D01*
X84074000Y-79237760D01*
X83957475Y-79063368D01*
X83750632Y-78856525D01*
X83507411Y-78694010D01*
X83237158Y-78582068D01*
X82950260Y-78525000D01*
X82657740Y-78525000D01*
X82370842Y-78582068D01*
X82100589Y-78694010D01*
X81857368Y-78856525D01*
X81725513Y-78988380D01*
X81703502Y-78915820D01*
X81644537Y-78805506D01*
X81565185Y-78708815D01*
X81468494Y-78629463D01*
X81358180Y-78570498D01*
X81238482Y-78534188D01*
X81114000Y-78521928D01*
X80549750Y-78525000D01*
X80391000Y-78683750D01*
X80137000Y-78683750D01*
X79978250Y-78525000D01*
X79414000Y-78521928D01*
X79289518Y-78534188D01*
X79169820Y-78570498D01*
X79059506Y-78629463D01*
X78962815Y-78708815D01*
X78883463Y-78805506D01*
X78824498Y-78915820D01*
X78788188Y-79035518D01*
X78775928Y-79160000D01*
X42291000Y-79160000D01*
X42291000Y-76439665D01*
X87846000Y-76439665D01*
X87846000Y-76722335D01*
X87901147Y-76999574D01*
X88009320Y-77260727D01*
X88166363Y-77495759D01*
X88366241Y-77695637D01*
X88601273Y-77852680D01*
X88862426Y-77960853D01*
X89139665Y-78016000D01*
X89422335Y-78016000D01*
X89699574Y-77960853D01*
X89960727Y-77852680D01*
X90195759Y-77695637D01*
X90395637Y-77495759D01*
X90552680Y-77260727D01*
X90660853Y-76999574D01*
X90716000Y-76722335D01*
X90716000Y-76439665D01*
X95466000Y-76439665D01*
X95466000Y-76722335D01*
X95521147Y-76999574D01*
X95629320Y-77260727D01*
X95786363Y-77495759D01*
X95986241Y-77695637D01*
X96221273Y-77852680D01*
X96482426Y-77960853D01*
X96759665Y-78016000D01*
X97042335Y-78016000D01*
X97319574Y-77960853D01*
X97580727Y-77852680D01*
X97815759Y-77695637D01*
X98015637Y-77495759D01*
X98172680Y-77260727D01*
X98280853Y-76999574D01*
X98336000Y-76722335D01*
X98336000Y-76439665D01*
X98280853Y-76162426D01*
X98172680Y-75901273D01*
X98015637Y-75666241D01*
X97815759Y-75466363D01*
X97580727Y-75309320D01*
X97319574Y-75201147D01*
X97042335Y-75146000D01*
X96759665Y-75146000D01*
X96482426Y-75201147D01*
X96221273Y-75309320D01*
X95986241Y-75466363D01*
X95786363Y-75666241D01*
X95629320Y-75901273D01*
X95521147Y-76162426D01*
X95466000Y-76439665D01*
X90716000Y-76439665D01*
X90660853Y-76162426D01*
X90552680Y-75901273D01*
X90395637Y-75666241D01*
X90195759Y-75466363D01*
X89960727Y-75309320D01*
X89699574Y-75201147D01*
X89422335Y-75146000D01*
X89139665Y-75146000D01*
X88862426Y-75201147D01*
X88601273Y-75309320D01*
X88366241Y-75466363D01*
X88166363Y-75666241D01*
X88009320Y-75901273D01*
X87901147Y-76162426D01*
X87846000Y-76439665D01*
X42291000Y-76439665D01*
X42291000Y-63080000D01*
X46771928Y-63080000D01*
X46784188Y-63204482D01*
X46820498Y-63324180D01*
X46879463Y-63434494D01*
X46958815Y-63531185D01*
X47055506Y-63610537D01*
X47165820Y-63669502D01*
X47285518Y-63705812D01*
X47410000Y-63718072D01*
X47974250Y-63715000D01*
X48133000Y-63556250D01*
X48133000Y-62357000D01*
X48387000Y-62357000D01*
X48387000Y-63556250D01*
X48545750Y-63715000D01*
X49110000Y-63718072D01*
X49234482Y-63705812D01*
X49354180Y-63669502D01*
X49464494Y-63610537D01*
X49561185Y-63531185D01*
X49640537Y-63434494D01*
X49699502Y-63324180D01*
X49735812Y-63204482D01*
X49748072Y-63080000D01*
X49745000Y-62515750D01*
X49586250Y-62357000D01*
X48387000Y-62357000D01*
X48133000Y-62357000D01*
X46933750Y-62357000D01*
X46775000Y-62515750D01*
X46771928Y-63080000D01*
X42291000Y-63080000D01*
X42291000Y-61380000D01*
X46771928Y-61380000D01*
X46775000Y-61944250D01*
X46933750Y-62103000D01*
X48133000Y-62103000D01*
X48133000Y-62083000D01*
X48387000Y-62083000D01*
X48387000Y-62103000D01*
X49586250Y-62103000D01*
X49745000Y-61944250D01*
X49745091Y-61927601D01*
X61301282Y-73483793D01*
X61106260Y-73445000D01*
X60813740Y-73445000D01*
X60526842Y-73502068D01*
X60256589Y-73614010D01*
X60013368Y-73776525D01*
X59806525Y-73983368D01*
X59690000Y-74157760D01*
X59573475Y-73983368D01*
X59366632Y-73776525D01*
X59123411Y-73614010D01*
X58853158Y-73502068D01*
X58566260Y-73445000D01*
X58273740Y-73445000D01*
X57986842Y-73502068D01*
X57716589Y-73614010D01*
X57473368Y-73776525D01*
X57266525Y-73983368D01*
X57104010Y-74226589D01*
X56992068Y-74496842D01*
X56935000Y-74783740D01*
X56935000Y-75076260D01*
X56992068Y-75363158D01*
X57104010Y-75633411D01*
X57266525Y-75876632D01*
X57473368Y-76083475D01*
X57716589Y-76245990D01*
X57986842Y-76357932D01*
X58273740Y-76415000D01*
X58566260Y-76415000D01*
X58853158Y-76357932D01*
X59123411Y-76245990D01*
X59366632Y-76083475D01*
X59573475Y-75876632D01*
X59690000Y-75702240D01*
X59806525Y-75876632D01*
X60013368Y-76083475D01*
X60256589Y-76245990D01*
X60526842Y-76357932D01*
X60813740Y-76415000D01*
X61106260Y-76415000D01*
X61393158Y-76357932D01*
X61663411Y-76245990D01*
X61906632Y-76083475D01*
X62113475Y-75876632D01*
X62230000Y-75702240D01*
X62346525Y-75876632D01*
X62553368Y-76083475D01*
X62796589Y-76245990D01*
X63066842Y-76357932D01*
X63353740Y-76415000D01*
X63646260Y-76415000D01*
X63933158Y-76357932D01*
X64203411Y-76245990D01*
X64446632Y-76083475D01*
X64578487Y-75951620D01*
X64600498Y-76024180D01*
X64659463Y-76134494D01*
X64738815Y-76231185D01*
X64835506Y-76310537D01*
X64945820Y-76369502D01*
X65065518Y-76405812D01*
X65190000Y-76418072D01*
X65754250Y-76415000D01*
X65913000Y-76256250D01*
X65913000Y-75057000D01*
X66167000Y-75057000D01*
X66167000Y-76256250D01*
X66325750Y-76415000D01*
X66890000Y-76418072D01*
X67014482Y-76405812D01*
X67134180Y-76369502D01*
X67244494Y-76310537D01*
X67341185Y-76231185D01*
X67420537Y-76134494D01*
X67479502Y-76024180D01*
X67515812Y-75904482D01*
X67528072Y-75780000D01*
X67525000Y-75215750D01*
X67366250Y-75057000D01*
X66167000Y-75057000D01*
X65913000Y-75057000D01*
X65893000Y-75057000D01*
X65893000Y-74803000D01*
X65913000Y-74803000D01*
X65913000Y-73603750D01*
X66167000Y-73603750D01*
X66167000Y-74803000D01*
X67366250Y-74803000D01*
X67525000Y-74644250D01*
X67528072Y-74080000D01*
X67515812Y-73955518D01*
X67479502Y-73835820D01*
X67420537Y-73725506D01*
X67341185Y-73628815D01*
X67244494Y-73549463D01*
X67134180Y-73490498D01*
X67014482Y-73454188D01*
X66890000Y-73441928D01*
X66325750Y-73445000D01*
X66167000Y-73603750D01*
X65913000Y-73603750D01*
X65754250Y-73445000D01*
X65190000Y-73441928D01*
X65065518Y-73454188D01*
X64945820Y-73490498D01*
X64835506Y-73549463D01*
X64738815Y-73628815D01*
X64659463Y-73725506D01*
X64600498Y-73835820D01*
X64578487Y-73908380D01*
X64446632Y-73776525D01*
X64431916Y-73766692D01*
X64379422Y-73668482D01*
X64364734Y-73641002D01*
X64267803Y-73522892D01*
X64235396Y-73483404D01*
X64195908Y-73450997D01*
X63237727Y-72492816D01*
X76951000Y-72492816D01*
X76951000Y-72795184D01*
X77009989Y-73091743D01*
X77125701Y-73371095D01*
X77293688Y-73622505D01*
X77507495Y-73836312D01*
X77758905Y-74004299D01*
X78038257Y-74120011D01*
X78334816Y-74179000D01*
X78637184Y-74179000D01*
X78933743Y-74120011D01*
X79213095Y-74004299D01*
X79464505Y-73836312D01*
X79530944Y-73769873D01*
X79536498Y-73788180D01*
X79595463Y-73898494D01*
X79674815Y-73995185D01*
X79771506Y-74074537D01*
X79881820Y-74133502D01*
X80001518Y-74169812D01*
X80126000Y-74182072D01*
X81926000Y-74182072D01*
X82050482Y-74169812D01*
X82170180Y-74133502D01*
X82280494Y-74074537D01*
X82377185Y-73995185D01*
X82456537Y-73898494D01*
X82515502Y-73788180D01*
X82551812Y-73668482D01*
X82564072Y-73544000D01*
X82564072Y-73537371D01*
X82578363Y-73558759D01*
X82778241Y-73758637D01*
X83013273Y-73915680D01*
X83274426Y-74023853D01*
X83551665Y-74079000D01*
X83834335Y-74079000D01*
X84111574Y-74023853D01*
X84372727Y-73915680D01*
X84607759Y-73758637D01*
X84807637Y-73558759D01*
X84964680Y-73323727D01*
X85072853Y-73062574D01*
X85128000Y-72785335D01*
X85128000Y-72502665D01*
X89878000Y-72502665D01*
X89878000Y-72785335D01*
X89933147Y-73062574D01*
X90041320Y-73323727D01*
X90198363Y-73558759D01*
X90398241Y-73758637D01*
X90633273Y-73915680D01*
X90894426Y-74023853D01*
X91171665Y-74079000D01*
X91454335Y-74079000D01*
X91731574Y-74023853D01*
X91992727Y-73915680D01*
X92227759Y-73758637D01*
X92427637Y-73558759D01*
X92584680Y-73323727D01*
X92692853Y-73062574D01*
X92748000Y-72785335D01*
X92748000Y-72502665D01*
X92692853Y-72225426D01*
X92596994Y-71994000D01*
X93072928Y-71994000D01*
X93072928Y-73294000D01*
X93085188Y-73418482D01*
X93121498Y-73538180D01*
X93180463Y-73648494D01*
X93259815Y-73745185D01*
X93356506Y-73824537D01*
X93466820Y-73883502D01*
X93586518Y-73919812D01*
X93711000Y-73932072D01*
X95011000Y-73932072D01*
X95135482Y-73919812D01*
X95255180Y-73883502D01*
X95365494Y-73824537D01*
X95462185Y-73745185D01*
X95541537Y-73648494D01*
X95600502Y-73538180D01*
X95636812Y-73418482D01*
X95649072Y-73294000D01*
X95649072Y-72936828D01*
X95665381Y-73018821D01*
X95762247Y-73252676D01*
X95902875Y-73463140D01*
X96081860Y-73642125D01*
X96292324Y-73782753D01*
X96526179Y-73879619D01*
X96774439Y-73929000D01*
X97027561Y-73929000D01*
X97275821Y-73879619D01*
X97509676Y-73782753D01*
X97720140Y-73642125D01*
X97899125Y-73463140D01*
X98039753Y-73252676D01*
X98136619Y-73018821D01*
X98186000Y-72770561D01*
X98186000Y-72517439D01*
X98136619Y-72269179D01*
X98039753Y-72035324D01*
X97899125Y-71824860D01*
X97720140Y-71645875D01*
X97509676Y-71505247D01*
X97275821Y-71408381D01*
X97027561Y-71359000D01*
X96917559Y-71359000D01*
X96919952Y-71297545D01*
X96880270Y-71047551D01*
X96792578Y-70810104D01*
X96745201Y-70721466D01*
X96516527Y-70668078D01*
X95810605Y-71374000D01*
X95824748Y-71388143D01*
X95645143Y-71567748D01*
X95631000Y-71553605D01*
X95616858Y-71567748D01*
X95437253Y-71388143D01*
X95451395Y-71374000D01*
X94745473Y-70668078D01*
X94516799Y-70721466D01*
X94410905Y-70951374D01*
X94351898Y-71197524D01*
X94345729Y-71355928D01*
X93711000Y-71355928D01*
X93586518Y-71368188D01*
X93466820Y-71404498D01*
X93356506Y-71463463D01*
X93259815Y-71542815D01*
X93180463Y-71639506D01*
X93121498Y-71749820D01*
X93085188Y-71869518D01*
X93072928Y-71994000D01*
X92596994Y-71994000D01*
X92584680Y-71964273D01*
X92427637Y-71729241D01*
X92227759Y-71529363D01*
X91992727Y-71372320D01*
X91731574Y-71264147D01*
X91454335Y-71209000D01*
X91171665Y-71209000D01*
X90894426Y-71264147D01*
X90633273Y-71372320D01*
X90398241Y-71529363D01*
X90198363Y-71729241D01*
X90041320Y-71964273D01*
X89933147Y-72225426D01*
X89878000Y-72502665D01*
X85128000Y-72502665D01*
X85072853Y-72225426D01*
X84964680Y-71964273D01*
X84807637Y-71729241D01*
X84607759Y-71529363D01*
X84372727Y-71372320D01*
X84111574Y-71264147D01*
X83834335Y-71209000D01*
X83551665Y-71209000D01*
X83274426Y-71264147D01*
X83013273Y-71372320D01*
X82778241Y-71529363D01*
X82578363Y-71729241D01*
X82564072Y-71750629D01*
X82564072Y-71744000D01*
X82551812Y-71619518D01*
X82515502Y-71499820D01*
X82456537Y-71389506D01*
X82377185Y-71292815D01*
X82280494Y-71213463D01*
X82170180Y-71154498D01*
X82050482Y-71118188D01*
X81926000Y-71105928D01*
X80126000Y-71105928D01*
X80001518Y-71118188D01*
X79881820Y-71154498D01*
X79771506Y-71213463D01*
X79674815Y-71292815D01*
X79595463Y-71389506D01*
X79536498Y-71499820D01*
X79530944Y-71518127D01*
X79464505Y-71451688D01*
X79213095Y-71283701D01*
X78933743Y-71167989D01*
X78637184Y-71109000D01*
X78334816Y-71109000D01*
X78038257Y-71167989D01*
X77758905Y-71283701D01*
X77507495Y-71451688D01*
X77293688Y-71665495D01*
X77125701Y-71916905D01*
X77009989Y-72196257D01*
X76951000Y-72492816D01*
X63237727Y-72492816D01*
X61233384Y-70488473D01*
X94925078Y-70488473D01*
X95631000Y-71194395D01*
X96336922Y-70488473D01*
X96283534Y-70259799D01*
X96053626Y-70153905D01*
X95807476Y-70094898D01*
X95554545Y-70085048D01*
X95304551Y-70124730D01*
X95067104Y-70212422D01*
X94978466Y-70259799D01*
X94925078Y-70488473D01*
X61233384Y-70488473D01*
X56892651Y-66147740D01*
X75985000Y-66147740D01*
X75985000Y-66440260D01*
X76042068Y-66727158D01*
X76154010Y-66997411D01*
X76316525Y-67240632D01*
X76523368Y-67447475D01*
X76766589Y-67609990D01*
X77036842Y-67721932D01*
X77323740Y-67779000D01*
X77616260Y-67779000D01*
X77903158Y-67721932D01*
X78173411Y-67609990D01*
X78416632Y-67447475D01*
X78623475Y-67240632D01*
X78740000Y-67066240D01*
X78856525Y-67240632D01*
X79063368Y-67447475D01*
X79306589Y-67609990D01*
X79576842Y-67721932D01*
X79863740Y-67779000D01*
X80156260Y-67779000D01*
X80443158Y-67721932D01*
X80713411Y-67609990D01*
X80956632Y-67447475D01*
X81163475Y-67240632D01*
X81280000Y-67066240D01*
X81396525Y-67240632D01*
X81603368Y-67447475D01*
X81846589Y-67609990D01*
X82116842Y-67721932D01*
X82403740Y-67779000D01*
X82696260Y-67779000D01*
X82983158Y-67721932D01*
X83253411Y-67609990D01*
X83496632Y-67447475D01*
X83703475Y-67240632D01*
X83820000Y-67066240D01*
X83936525Y-67240632D01*
X84143368Y-67447475D01*
X84386589Y-67609990D01*
X84656842Y-67721932D01*
X84943740Y-67779000D01*
X85236260Y-67779000D01*
X85523158Y-67721932D01*
X85793411Y-67609990D01*
X86036632Y-67447475D01*
X86243475Y-67240632D01*
X86360000Y-67066240D01*
X86476525Y-67240632D01*
X86683368Y-67447475D01*
X86926589Y-67609990D01*
X87196842Y-67721932D01*
X87483740Y-67779000D01*
X87776260Y-67779000D01*
X88063158Y-67721932D01*
X88333411Y-67609990D01*
X88576632Y-67447475D01*
X88783475Y-67240632D01*
X88900000Y-67066240D01*
X89016525Y-67240632D01*
X89223368Y-67447475D01*
X89466589Y-67609990D01*
X89736842Y-67721932D01*
X90023740Y-67779000D01*
X90316260Y-67779000D01*
X90603158Y-67721932D01*
X90873411Y-67609990D01*
X91116632Y-67447475D01*
X91323475Y-67240632D01*
X91440000Y-67066240D01*
X91556525Y-67240632D01*
X91763368Y-67447475D01*
X92006589Y-67609990D01*
X92276842Y-67721932D01*
X92563740Y-67779000D01*
X92856260Y-67779000D01*
X93143158Y-67721932D01*
X93413411Y-67609990D01*
X93656632Y-67447475D01*
X93863475Y-67240632D01*
X93980000Y-67066240D01*
X94096525Y-67240632D01*
X94303368Y-67447475D01*
X94546589Y-67609990D01*
X94816842Y-67721932D01*
X95103740Y-67779000D01*
X95396260Y-67779000D01*
X95683158Y-67721932D01*
X95953411Y-67609990D01*
X96196632Y-67447475D01*
X96403475Y-67240632D01*
X96520000Y-67066240D01*
X96636525Y-67240632D01*
X96843368Y-67447475D01*
X97086589Y-67609990D01*
X97356842Y-67721932D01*
X97643740Y-67779000D01*
X97936260Y-67779000D01*
X98223158Y-67721932D01*
X98493411Y-67609990D01*
X98736632Y-67447475D01*
X98943475Y-67240632D01*
X99060000Y-67066240D01*
X99176525Y-67240632D01*
X99383368Y-67447475D01*
X99626589Y-67609990D01*
X99896842Y-67721932D01*
X100183740Y-67779000D01*
X100476260Y-67779000D01*
X100763158Y-67721932D01*
X101033411Y-67609990D01*
X101276632Y-67447475D01*
X101483475Y-67240632D01*
X101600000Y-67066240D01*
X101716525Y-67240632D01*
X101923368Y-67447475D01*
X102166589Y-67609990D01*
X102436842Y-67721932D01*
X102723740Y-67779000D01*
X103016260Y-67779000D01*
X103303158Y-67721932D01*
X103573411Y-67609990D01*
X103816632Y-67447475D01*
X104023475Y-67240632D01*
X104140000Y-67066240D01*
X104256525Y-67240632D01*
X104463368Y-67447475D01*
X104706589Y-67609990D01*
X104976842Y-67721932D01*
X105263740Y-67779000D01*
X105556260Y-67779000D01*
X105843158Y-67721932D01*
X106113411Y-67609990D01*
X106356632Y-67447475D01*
X106563475Y-67240632D01*
X106680000Y-67066240D01*
X106796525Y-67240632D01*
X107003368Y-67447475D01*
X107246589Y-67609990D01*
X107516842Y-67721932D01*
X107803740Y-67779000D01*
X108096260Y-67779000D01*
X108383158Y-67721932D01*
X108653411Y-67609990D01*
X108896632Y-67447475D01*
X109103475Y-67240632D01*
X109220000Y-67066240D01*
X109336525Y-67240632D01*
X109543368Y-67447475D01*
X109786589Y-67609990D01*
X110056842Y-67721932D01*
X110343740Y-67779000D01*
X110636260Y-67779000D01*
X110923158Y-67721932D01*
X111193411Y-67609990D01*
X111436632Y-67447475D01*
X111643475Y-67240632D01*
X111760000Y-67066240D01*
X111876525Y-67240632D01*
X112083368Y-67447475D01*
X112326589Y-67609990D01*
X112596842Y-67721932D01*
X112883740Y-67779000D01*
X113176260Y-67779000D01*
X113463158Y-67721932D01*
X113733411Y-67609990D01*
X113976632Y-67447475D01*
X114183475Y-67240632D01*
X114300000Y-67066240D01*
X114416525Y-67240632D01*
X114623368Y-67447475D01*
X114866589Y-67609990D01*
X115136842Y-67721932D01*
X115423740Y-67779000D01*
X115716260Y-67779000D01*
X116003158Y-67721932D01*
X116273411Y-67609990D01*
X116516632Y-67447475D01*
X116723475Y-67240632D01*
X116840000Y-67066240D01*
X116956525Y-67240632D01*
X117163368Y-67447475D01*
X117406589Y-67609990D01*
X117676842Y-67721932D01*
X117963740Y-67779000D01*
X118256260Y-67779000D01*
X118543158Y-67721932D01*
X118813411Y-67609990D01*
X119056632Y-67447475D01*
X119263475Y-67240632D01*
X119380000Y-67066240D01*
X119496525Y-67240632D01*
X119703368Y-67447475D01*
X119946589Y-67609990D01*
X120216842Y-67721932D01*
X120503740Y-67779000D01*
X120796260Y-67779000D01*
X121083158Y-67721932D01*
X121353411Y-67609990D01*
X121596632Y-67447475D01*
X121728487Y-67315620D01*
X121750498Y-67388180D01*
X121803309Y-67486981D01*
X121491290Y-67799000D01*
X117779827Y-67799000D01*
X117728999Y-67793994D01*
X117678171Y-67799000D01*
X117678162Y-67799000D01*
X117526105Y-67813976D01*
X117331007Y-67873159D01*
X117247309Y-67917896D01*
X117151202Y-67969266D01*
X117033092Y-68066197D01*
X116993604Y-68098604D01*
X116961197Y-68138092D01*
X111714666Y-73384624D01*
X111742853Y-73316574D01*
X111798000Y-73039335D01*
X111798000Y-72756665D01*
X111742853Y-72479426D01*
X111634680Y-72218273D01*
X111477637Y-71983241D01*
X111277759Y-71783363D01*
X111042727Y-71626320D01*
X110781574Y-71518147D01*
X110504335Y-71463000D01*
X110221665Y-71463000D01*
X109944426Y-71518147D01*
X109683273Y-71626320D01*
X109448241Y-71783363D01*
X109248363Y-71983241D01*
X109234072Y-72004629D01*
X109234072Y-71998000D01*
X109221812Y-71873518D01*
X109185502Y-71753820D01*
X109126537Y-71643506D01*
X109047185Y-71546815D01*
X108950494Y-71467463D01*
X108840180Y-71408498D01*
X108720482Y-71372188D01*
X108596000Y-71359928D01*
X106796000Y-71359928D01*
X106671518Y-71372188D01*
X106551820Y-71408498D01*
X106441506Y-71467463D01*
X106344815Y-71546815D01*
X106265463Y-71643506D01*
X106206498Y-71753820D01*
X106200944Y-71772127D01*
X106134505Y-71705688D01*
X105883095Y-71537701D01*
X105603743Y-71421989D01*
X105307184Y-71363000D01*
X105004816Y-71363000D01*
X104708257Y-71421989D01*
X104428905Y-71537701D01*
X104177495Y-71705688D01*
X103963688Y-71919495D01*
X103795701Y-72170905D01*
X103679989Y-72450257D01*
X103621000Y-72746816D01*
X103621000Y-73049184D01*
X103679989Y-73345743D01*
X103795701Y-73625095D01*
X103963688Y-73876505D01*
X104177495Y-74090312D01*
X104428905Y-74258299D01*
X104708257Y-74374011D01*
X105004816Y-74433000D01*
X105307184Y-74433000D01*
X105603743Y-74374011D01*
X105883095Y-74258299D01*
X106134505Y-74090312D01*
X106200944Y-74023873D01*
X106206498Y-74042180D01*
X106265463Y-74152494D01*
X106344815Y-74249185D01*
X106441506Y-74328537D01*
X106551820Y-74387502D01*
X106671518Y-74423812D01*
X106796000Y-74436072D01*
X108596000Y-74436072D01*
X108720482Y-74423812D01*
X108840180Y-74387502D01*
X108950494Y-74328537D01*
X109047185Y-74249185D01*
X109126537Y-74152494D01*
X109185502Y-74042180D01*
X109221812Y-73922482D01*
X109234072Y-73798000D01*
X109234072Y-73791371D01*
X109248363Y-73812759D01*
X109448241Y-74012637D01*
X109683273Y-74169680D01*
X109944426Y-74277853D01*
X110221665Y-74333000D01*
X110504335Y-74333000D01*
X110781574Y-74277853D01*
X110849624Y-74249666D01*
X108524097Y-76575193D01*
X108484604Y-76607604D01*
X108355266Y-76765203D01*
X108259159Y-76945008D01*
X108199976Y-77140106D01*
X108185000Y-77292163D01*
X108185000Y-77292172D01*
X108179994Y-77343000D01*
X108185000Y-77393828D01*
X108185001Y-78944892D01*
X108141513Y-78988380D01*
X108119502Y-78915820D01*
X108060537Y-78805506D01*
X107981185Y-78708815D01*
X107884494Y-78629463D01*
X107774180Y-78570498D01*
X107654482Y-78534188D01*
X107530000Y-78521928D01*
X106965750Y-78525000D01*
X106807000Y-78683750D01*
X106807000Y-79883000D01*
X106827000Y-79883000D01*
X106827000Y-80137000D01*
X106807000Y-80137000D01*
X106807000Y-81336250D01*
X106965750Y-81495000D01*
X107530000Y-81498072D01*
X107654482Y-81485812D01*
X107774180Y-81449502D01*
X107884494Y-81390537D01*
X107981185Y-81311185D01*
X108060537Y-81214494D01*
X108119502Y-81104180D01*
X108141513Y-81031620D01*
X108273368Y-81163475D01*
X108516589Y-81325990D01*
X108786842Y-81437932D01*
X109073740Y-81495000D01*
X109366260Y-81495000D01*
X109653158Y-81437932D01*
X109923411Y-81325990D01*
X110166632Y-81163475D01*
X110373475Y-80956632D01*
X110490000Y-80782240D01*
X110606525Y-80956632D01*
X110813368Y-81163475D01*
X111056589Y-81325990D01*
X111326842Y-81437932D01*
X111613740Y-81495000D01*
X111906260Y-81495000D01*
X112193158Y-81437932D01*
X112463411Y-81325990D01*
X112706632Y-81163475D01*
X112913475Y-80956632D01*
X113075990Y-80713411D01*
X113187932Y-80443158D01*
X113245000Y-80156260D01*
X113245000Y-79966117D01*
X114216000Y-79966117D01*
X114216000Y-80307883D01*
X114282675Y-80643081D01*
X114413463Y-80958831D01*
X114603337Y-81242998D01*
X114845002Y-81484663D01*
X115129169Y-81674537D01*
X115444919Y-81805325D01*
X115780117Y-81872000D01*
X116121883Y-81872000D01*
X116457081Y-81805325D01*
X116772831Y-81674537D01*
X117056998Y-81484663D01*
X117298663Y-81242998D01*
X117488537Y-80958831D01*
X117619325Y-80643081D01*
X117686000Y-80307883D01*
X117686000Y-79966117D01*
X117619325Y-79630919D01*
X117488537Y-79315169D01*
X117302671Y-79037000D01*
X121832928Y-79037000D01*
X121832928Y-81237000D01*
X121845188Y-81361482D01*
X121881498Y-81481180D01*
X121940463Y-81591494D01*
X122019815Y-81688185D01*
X122116506Y-81767537D01*
X122226820Y-81826502D01*
X122346518Y-81862812D01*
X122471000Y-81875072D01*
X124671000Y-81875072D01*
X124795482Y-81862812D01*
X124915180Y-81826502D01*
X125025494Y-81767537D01*
X125122185Y-81688185D01*
X125201537Y-81591494D01*
X125260502Y-81481180D01*
X125296812Y-81361482D01*
X125309072Y-81237000D01*
X125309072Y-79037000D01*
X125296812Y-78912518D01*
X125260502Y-78792820D01*
X125201537Y-78682506D01*
X125122185Y-78585815D01*
X125025494Y-78506463D01*
X124915180Y-78447498D01*
X124795482Y-78411188D01*
X124671000Y-78398928D01*
X122471000Y-78398928D01*
X122346518Y-78411188D01*
X122226820Y-78447498D01*
X122116506Y-78506463D01*
X122019815Y-78585815D01*
X121940463Y-78682506D01*
X121881498Y-78792820D01*
X121845188Y-78912518D01*
X121832928Y-79037000D01*
X117302671Y-79037000D01*
X117298663Y-79031002D01*
X117056998Y-78789337D01*
X116772831Y-78599463D01*
X116457081Y-78468675D01*
X116121883Y-78402000D01*
X115780117Y-78402000D01*
X115444919Y-78468675D01*
X115129169Y-78599463D01*
X114845002Y-78789337D01*
X114603337Y-79031002D01*
X114413463Y-79315169D01*
X114282675Y-79630919D01*
X114216000Y-79966117D01*
X113245000Y-79966117D01*
X113245000Y-79863740D01*
X113187932Y-79576842D01*
X113075990Y-79306589D01*
X112913475Y-79063368D01*
X112706632Y-78856525D01*
X112463411Y-78694010D01*
X112193158Y-78582068D01*
X111906260Y-78525000D01*
X111613740Y-78525000D01*
X111326842Y-78582068D01*
X111056589Y-78694010D01*
X110813368Y-78856525D01*
X110606525Y-79063368D01*
X110490000Y-79237760D01*
X110373475Y-79063368D01*
X110255000Y-78944893D01*
X110255000Y-77771710D01*
X111460045Y-76566665D01*
X114516000Y-76566665D01*
X114516000Y-76849335D01*
X114571147Y-77126574D01*
X114679320Y-77387727D01*
X114836363Y-77622759D01*
X115036241Y-77822637D01*
X115271273Y-77979680D01*
X115532426Y-78087853D01*
X115809665Y-78143000D01*
X116092335Y-78143000D01*
X116369574Y-78087853D01*
X116630727Y-77979680D01*
X116865759Y-77822637D01*
X117065637Y-77622759D01*
X117222680Y-77387727D01*
X117330853Y-77126574D01*
X117386000Y-76849335D01*
X117386000Y-76566665D01*
X122136000Y-76566665D01*
X122136000Y-76849335D01*
X122191147Y-77126574D01*
X122299320Y-77387727D01*
X122456363Y-77622759D01*
X122656241Y-77822637D01*
X122891273Y-77979680D01*
X123152426Y-78087853D01*
X123429665Y-78143000D01*
X123712335Y-78143000D01*
X123989574Y-78087853D01*
X124250727Y-77979680D01*
X124485759Y-77822637D01*
X124685637Y-77622759D01*
X124842680Y-77387727D01*
X124950853Y-77126574D01*
X125006000Y-76849335D01*
X125006000Y-76566665D01*
X124950853Y-76289426D01*
X124842680Y-76028273D01*
X124685637Y-75793241D01*
X124485759Y-75593363D01*
X124250727Y-75436320D01*
X123989574Y-75328147D01*
X123712335Y-75273000D01*
X123429665Y-75273000D01*
X123152426Y-75328147D01*
X122891273Y-75436320D01*
X122656241Y-75593363D01*
X122456363Y-75793241D01*
X122299320Y-76028273D01*
X122191147Y-76289426D01*
X122136000Y-76566665D01*
X117386000Y-76566665D01*
X117330853Y-76289426D01*
X117222680Y-76028273D01*
X117065637Y-75793241D01*
X116865759Y-75593363D01*
X116630727Y-75436320D01*
X116369574Y-75328147D01*
X116092335Y-75273000D01*
X115809665Y-75273000D01*
X115532426Y-75328147D01*
X115271273Y-75436320D01*
X115036241Y-75593363D01*
X114836363Y-75793241D01*
X114679320Y-76028273D01*
X114571147Y-76289426D01*
X114516000Y-76566665D01*
X111460045Y-76566665D01*
X115270045Y-72756665D01*
X116548000Y-72756665D01*
X116548000Y-73039335D01*
X116603147Y-73316574D01*
X116711320Y-73577727D01*
X116868363Y-73812759D01*
X117068241Y-74012637D01*
X117303273Y-74169680D01*
X117564426Y-74277853D01*
X117841665Y-74333000D01*
X118124335Y-74333000D01*
X118401574Y-74277853D01*
X118662727Y-74169680D01*
X118897759Y-74012637D01*
X119097637Y-73812759D01*
X119254680Y-73577727D01*
X119362853Y-73316574D01*
X119418000Y-73039335D01*
X119418000Y-72756665D01*
X119362853Y-72479426D01*
X119266994Y-72248000D01*
X119742928Y-72248000D01*
X119742928Y-73548000D01*
X119755188Y-73672482D01*
X119791498Y-73792180D01*
X119850463Y-73902494D01*
X119929815Y-73999185D01*
X120026506Y-74078537D01*
X120136820Y-74137502D01*
X120256518Y-74173812D01*
X120381000Y-74186072D01*
X121681000Y-74186072D01*
X121805482Y-74173812D01*
X121925180Y-74137502D01*
X122035494Y-74078537D01*
X122132185Y-73999185D01*
X122211537Y-73902494D01*
X122270502Y-73792180D01*
X122306812Y-73672482D01*
X122319072Y-73548000D01*
X122319072Y-73190828D01*
X122335381Y-73272821D01*
X122432247Y-73506676D01*
X122572875Y-73717140D01*
X122751860Y-73896125D01*
X122962324Y-74036753D01*
X123196179Y-74133619D01*
X123444439Y-74183000D01*
X123697561Y-74183000D01*
X123945821Y-74133619D01*
X124179676Y-74036753D01*
X124390140Y-73896125D01*
X124569125Y-73717140D01*
X124709753Y-73506676D01*
X124806619Y-73272821D01*
X124856000Y-73024561D01*
X124856000Y-72771439D01*
X124806619Y-72523179D01*
X124709753Y-72289324D01*
X124569125Y-72078860D01*
X124390140Y-71899875D01*
X124179676Y-71759247D01*
X123945821Y-71662381D01*
X123697561Y-71613000D01*
X123587559Y-71613000D01*
X123589952Y-71551545D01*
X123550270Y-71301551D01*
X123462578Y-71064104D01*
X123415201Y-70975466D01*
X123186527Y-70922078D01*
X122480605Y-71628000D01*
X122494748Y-71642143D01*
X122315143Y-71821748D01*
X122301000Y-71807605D01*
X122286858Y-71821748D01*
X122107253Y-71642143D01*
X122121395Y-71628000D01*
X121415473Y-70922078D01*
X121186799Y-70975466D01*
X121080905Y-71205374D01*
X121021898Y-71451524D01*
X121015729Y-71609928D01*
X120381000Y-71609928D01*
X120256518Y-71622188D01*
X120136820Y-71658498D01*
X120026506Y-71717463D01*
X119929815Y-71796815D01*
X119850463Y-71893506D01*
X119791498Y-72003820D01*
X119755188Y-72123518D01*
X119742928Y-72248000D01*
X119266994Y-72248000D01*
X119254680Y-72218273D01*
X119097637Y-71983241D01*
X118897759Y-71783363D01*
X118662727Y-71626320D01*
X118401574Y-71518147D01*
X118124335Y-71463000D01*
X117841665Y-71463000D01*
X117564426Y-71518147D01*
X117303273Y-71626320D01*
X117068241Y-71783363D01*
X116868363Y-71983241D01*
X116711320Y-72218273D01*
X116603147Y-72479426D01*
X116548000Y-72756665D01*
X115270045Y-72756665D01*
X117284237Y-70742473D01*
X121595078Y-70742473D01*
X122301000Y-71448395D01*
X123006922Y-70742473D01*
X122953534Y-70513799D01*
X122723626Y-70407905D01*
X122477476Y-70348898D01*
X122224545Y-70339048D01*
X121974551Y-70378730D01*
X121737104Y-70466422D01*
X121648466Y-70513799D01*
X121595078Y-70742473D01*
X117284237Y-70742473D01*
X118157711Y-69869000D01*
X121869172Y-69869000D01*
X121920000Y-69874006D01*
X121970828Y-69869000D01*
X121970838Y-69869000D01*
X122122895Y-69854024D01*
X122317993Y-69794841D01*
X122497797Y-69698734D01*
X122655396Y-69569396D01*
X122687807Y-69529903D01*
X123885908Y-68331803D01*
X123925396Y-68299396D01*
X123960844Y-68256203D01*
X124054734Y-68141798D01*
X124106104Y-68045691D01*
X124150841Y-67961993D01*
X124210024Y-67766895D01*
X124211130Y-67755661D01*
X124284180Y-67733502D01*
X124394494Y-67674537D01*
X124491185Y-67595185D01*
X124570537Y-67498494D01*
X124629502Y-67388180D01*
X124665812Y-67268482D01*
X124678072Y-67144000D01*
X124678072Y-65444000D01*
X124665812Y-65319518D01*
X124629502Y-65199820D01*
X124570537Y-65089506D01*
X124491185Y-64992815D01*
X124394494Y-64913463D01*
X124284180Y-64854498D01*
X124164482Y-64818188D01*
X124040000Y-64805928D01*
X122340000Y-64805928D01*
X122215518Y-64818188D01*
X122095820Y-64854498D01*
X121985506Y-64913463D01*
X121888815Y-64992815D01*
X121809463Y-65089506D01*
X121750498Y-65199820D01*
X121728487Y-65272380D01*
X121596632Y-65140525D01*
X121353411Y-64978010D01*
X121083158Y-64866068D01*
X120796260Y-64809000D01*
X120503740Y-64809000D01*
X120216842Y-64866068D01*
X119946589Y-64978010D01*
X119703368Y-65140525D01*
X119496525Y-65347368D01*
X119380000Y-65521760D01*
X119263475Y-65347368D01*
X119056632Y-65140525D01*
X118813411Y-64978010D01*
X118543158Y-64866068D01*
X118256260Y-64809000D01*
X117963740Y-64809000D01*
X117676842Y-64866068D01*
X117406589Y-64978010D01*
X117163368Y-65140525D01*
X116956525Y-65347368D01*
X116840000Y-65521760D01*
X116723475Y-65347368D01*
X116516632Y-65140525D01*
X116273411Y-64978010D01*
X116003158Y-64866068D01*
X115716260Y-64809000D01*
X115423740Y-64809000D01*
X115136842Y-64866068D01*
X114866589Y-64978010D01*
X114623368Y-65140525D01*
X114416525Y-65347368D01*
X114300000Y-65521760D01*
X114183475Y-65347368D01*
X113976632Y-65140525D01*
X113733411Y-64978010D01*
X113463158Y-64866068D01*
X113176260Y-64809000D01*
X112883740Y-64809000D01*
X112596842Y-64866068D01*
X112326589Y-64978010D01*
X112083368Y-65140525D01*
X111876525Y-65347368D01*
X111760000Y-65521760D01*
X111643475Y-65347368D01*
X111436632Y-65140525D01*
X111193411Y-64978010D01*
X110923158Y-64866068D01*
X110636260Y-64809000D01*
X110343740Y-64809000D01*
X110056842Y-64866068D01*
X109786589Y-64978010D01*
X109543368Y-65140525D01*
X109336525Y-65347368D01*
X109220000Y-65521760D01*
X109103475Y-65347368D01*
X108896632Y-65140525D01*
X108653411Y-64978010D01*
X108383158Y-64866068D01*
X108096260Y-64809000D01*
X107803740Y-64809000D01*
X107516842Y-64866068D01*
X107246589Y-64978010D01*
X107003368Y-65140525D01*
X106796525Y-65347368D01*
X106680000Y-65521760D01*
X106563475Y-65347368D01*
X106356632Y-65140525D01*
X106113411Y-64978010D01*
X105843158Y-64866068D01*
X105556260Y-64809000D01*
X105263740Y-64809000D01*
X104976842Y-64866068D01*
X104706589Y-64978010D01*
X104463368Y-65140525D01*
X104256525Y-65347368D01*
X104140000Y-65521760D01*
X104023475Y-65347368D01*
X103816632Y-65140525D01*
X103573411Y-64978010D01*
X103303158Y-64866068D01*
X103016260Y-64809000D01*
X102723740Y-64809000D01*
X102436842Y-64866068D01*
X102166589Y-64978010D01*
X101923368Y-65140525D01*
X101716525Y-65347368D01*
X101600000Y-65521760D01*
X101483475Y-65347368D01*
X101276632Y-65140525D01*
X101033411Y-64978010D01*
X100763158Y-64866068D01*
X100476260Y-64809000D01*
X100183740Y-64809000D01*
X99896842Y-64866068D01*
X99626589Y-64978010D01*
X99383368Y-65140525D01*
X99176525Y-65347368D01*
X99060000Y-65521760D01*
X98943475Y-65347368D01*
X98736632Y-65140525D01*
X98493411Y-64978010D01*
X98223158Y-64866068D01*
X97936260Y-64809000D01*
X97643740Y-64809000D01*
X97356842Y-64866068D01*
X97086589Y-64978010D01*
X96843368Y-65140525D01*
X96636525Y-65347368D01*
X96520000Y-65521760D01*
X96403475Y-65347368D01*
X96196632Y-65140525D01*
X95953411Y-64978010D01*
X95683158Y-64866068D01*
X95396260Y-64809000D01*
X95103740Y-64809000D01*
X94816842Y-64866068D01*
X94546589Y-64978010D01*
X94303368Y-65140525D01*
X94096525Y-65347368D01*
X93980000Y-65521760D01*
X93863475Y-65347368D01*
X93656632Y-65140525D01*
X93413411Y-64978010D01*
X93143158Y-64866068D01*
X92856260Y-64809000D01*
X92563740Y-64809000D01*
X92276842Y-64866068D01*
X92006589Y-64978010D01*
X91763368Y-65140525D01*
X91556525Y-65347368D01*
X91440000Y-65521760D01*
X91323475Y-65347368D01*
X91116632Y-65140525D01*
X90873411Y-64978010D01*
X90603158Y-64866068D01*
X90316260Y-64809000D01*
X90023740Y-64809000D01*
X89736842Y-64866068D01*
X89466589Y-64978010D01*
X89223368Y-65140525D01*
X89016525Y-65347368D01*
X88900000Y-65521760D01*
X88783475Y-65347368D01*
X88576632Y-65140525D01*
X88333411Y-64978010D01*
X88063158Y-64866068D01*
X87776260Y-64809000D01*
X87483740Y-64809000D01*
X87196842Y-64866068D01*
X86926589Y-64978010D01*
X86683368Y-65140525D01*
X86476525Y-65347368D01*
X86360000Y-65521760D01*
X86243475Y-65347368D01*
X86036632Y-65140525D01*
X85793411Y-64978010D01*
X85523158Y-64866068D01*
X85236260Y-64809000D01*
X84943740Y-64809000D01*
X84656842Y-64866068D01*
X84386589Y-64978010D01*
X84143368Y-65140525D01*
X83936525Y-65347368D01*
X83820000Y-65521760D01*
X83703475Y-65347368D01*
X83496632Y-65140525D01*
X83253411Y-64978010D01*
X82983158Y-64866068D01*
X82696260Y-64809000D01*
X82403740Y-64809000D01*
X82116842Y-64866068D01*
X81846589Y-64978010D01*
X81603368Y-65140525D01*
X81396525Y-65347368D01*
X81280000Y-65521760D01*
X81163475Y-65347368D01*
X80956632Y-65140525D01*
X80713411Y-64978010D01*
X80443158Y-64866068D01*
X80156260Y-64809000D01*
X79863740Y-64809000D01*
X79576842Y-64866068D01*
X79306589Y-64978010D01*
X79063368Y-65140525D01*
X78856525Y-65347368D01*
X78740000Y-65521760D01*
X78623475Y-65347368D01*
X78416632Y-65140525D01*
X78173411Y-64978010D01*
X77903158Y-64866068D01*
X77616260Y-64809000D01*
X77323740Y-64809000D01*
X77036842Y-64866068D01*
X76766589Y-64978010D01*
X76523368Y-65140525D01*
X76316525Y-65347368D01*
X76154010Y-65590589D01*
X76042068Y-65860842D01*
X75985000Y-66147740D01*
X56892651Y-66147740D01*
X52574651Y-61829740D01*
X56935000Y-61829740D01*
X56935000Y-62122260D01*
X56992068Y-62409158D01*
X57104010Y-62679411D01*
X57266525Y-62922632D01*
X57473368Y-63129475D01*
X57716589Y-63291990D01*
X57986842Y-63403932D01*
X58273740Y-63461000D01*
X58566260Y-63461000D01*
X58853158Y-63403932D01*
X59123411Y-63291990D01*
X59366632Y-63129475D01*
X59573475Y-62922632D01*
X59690000Y-62748240D01*
X59806525Y-62922632D01*
X60013368Y-63129475D01*
X60256589Y-63291990D01*
X60526842Y-63403932D01*
X60813740Y-63461000D01*
X61106260Y-63461000D01*
X61393158Y-63403932D01*
X61663411Y-63291990D01*
X61906632Y-63129475D01*
X62113475Y-62922632D01*
X62230000Y-62748240D01*
X62346525Y-62922632D01*
X62553368Y-63129475D01*
X62796589Y-63291990D01*
X63066842Y-63403932D01*
X63353740Y-63461000D01*
X63646260Y-63461000D01*
X63933158Y-63403932D01*
X64203411Y-63291990D01*
X64446632Y-63129475D01*
X64578487Y-62997620D01*
X64600498Y-63070180D01*
X64659463Y-63180494D01*
X64738815Y-63277185D01*
X64835506Y-63356537D01*
X64945820Y-63415502D01*
X65065518Y-63451812D01*
X65190000Y-63464072D01*
X65754250Y-63461000D01*
X65913000Y-63302250D01*
X65913000Y-62103000D01*
X66167000Y-62103000D01*
X66167000Y-63302250D01*
X66325750Y-63461000D01*
X66890000Y-63464072D01*
X67014482Y-63451812D01*
X67134180Y-63415502D01*
X67244494Y-63356537D01*
X67341185Y-63277185D01*
X67420537Y-63180494D01*
X67479502Y-63070180D01*
X67515812Y-62950482D01*
X67528072Y-62826000D01*
X67525000Y-62261750D01*
X67366250Y-62103000D01*
X66167000Y-62103000D01*
X65913000Y-62103000D01*
X65893000Y-62103000D01*
X65893000Y-61849000D01*
X65913000Y-61849000D01*
X65913000Y-60649750D01*
X66167000Y-60649750D01*
X66167000Y-61849000D01*
X67366250Y-61849000D01*
X67525000Y-61690250D01*
X67528072Y-61126000D01*
X67515812Y-61001518D01*
X67479502Y-60881820D01*
X67420537Y-60771506D01*
X67341185Y-60674815D01*
X67244494Y-60595463D01*
X67134180Y-60536498D01*
X67014482Y-60500188D01*
X66890000Y-60487928D01*
X66325750Y-60491000D01*
X66167000Y-60649750D01*
X65913000Y-60649750D01*
X65754250Y-60491000D01*
X65190000Y-60487928D01*
X65065518Y-60500188D01*
X64945820Y-60536498D01*
X64835506Y-60595463D01*
X64738815Y-60674815D01*
X64659463Y-60771506D01*
X64600498Y-60881820D01*
X64578487Y-60954380D01*
X64446632Y-60822525D01*
X64203411Y-60660010D01*
X63933158Y-60548068D01*
X63646260Y-60491000D01*
X63353740Y-60491000D01*
X63066842Y-60548068D01*
X62796589Y-60660010D01*
X62553368Y-60822525D01*
X62346525Y-61029368D01*
X62230000Y-61203760D01*
X62113475Y-61029368D01*
X61906632Y-60822525D01*
X61663411Y-60660010D01*
X61393158Y-60548068D01*
X61106260Y-60491000D01*
X60813740Y-60491000D01*
X60526842Y-60548068D01*
X60256589Y-60660010D01*
X60013368Y-60822525D01*
X59806525Y-61029368D01*
X59690000Y-61203760D01*
X59573475Y-61029368D01*
X59366632Y-60822525D01*
X59123411Y-60660010D01*
X58853158Y-60548068D01*
X58566260Y-60491000D01*
X58273740Y-60491000D01*
X57986842Y-60548068D01*
X57716589Y-60660010D01*
X57473368Y-60822525D01*
X57266525Y-61029368D01*
X57104010Y-61272589D01*
X56992068Y-61542842D01*
X56935000Y-61829740D01*
X52574651Y-61829740D01*
X51215910Y-60471000D01*
X61163172Y-60471000D01*
X61214000Y-60476006D01*
X61264828Y-60471000D01*
X61264838Y-60471000D01*
X61416895Y-60456024D01*
X61611993Y-60396841D01*
X61791797Y-60300734D01*
X61949396Y-60171396D01*
X61981807Y-60131903D01*
X63478711Y-58635000D01*
X63646260Y-58635000D01*
X63933158Y-58577932D01*
X64203411Y-58465990D01*
X64446632Y-58303475D01*
X64578487Y-58171620D01*
X64600498Y-58244180D01*
X64659463Y-58354494D01*
X64738815Y-58451185D01*
X64835506Y-58530537D01*
X64945820Y-58589502D01*
X65065518Y-58625812D01*
X65190000Y-58638072D01*
X65754250Y-58635000D01*
X65913000Y-58476250D01*
X65913000Y-57277000D01*
X66167000Y-57277000D01*
X66167000Y-58476250D01*
X66325750Y-58635000D01*
X66890000Y-58638072D01*
X67014482Y-58625812D01*
X67134180Y-58589502D01*
X67244494Y-58530537D01*
X67341185Y-58451185D01*
X67420537Y-58354494D01*
X67479502Y-58244180D01*
X67515812Y-58124482D01*
X67528072Y-58000000D01*
X67525000Y-57435750D01*
X67366250Y-57277000D01*
X66167000Y-57277000D01*
X65913000Y-57277000D01*
X65893000Y-57277000D01*
X65893000Y-57023000D01*
X65913000Y-57023000D01*
X65913000Y-55823750D01*
X66167000Y-55823750D01*
X66167000Y-57023000D01*
X67366250Y-57023000D01*
X67525000Y-56864250D01*
X67528072Y-56300000D01*
X67515812Y-56175518D01*
X67479502Y-56055820D01*
X67420537Y-55945506D01*
X67341185Y-55848815D01*
X67244494Y-55769463D01*
X67134180Y-55710498D01*
X67014482Y-55674188D01*
X66890000Y-55661928D01*
X66325750Y-55665000D01*
X66167000Y-55823750D01*
X65913000Y-55823750D01*
X65754250Y-55665000D01*
X65190000Y-55661928D01*
X65065518Y-55674188D01*
X64945820Y-55710498D01*
X64835506Y-55769463D01*
X64738815Y-55848815D01*
X64659463Y-55945506D01*
X64600498Y-56055820D01*
X64578487Y-56128380D01*
X64535000Y-56084893D01*
X64535000Y-51013485D01*
X64589945Y-50968392D01*
X64600498Y-51003180D01*
X64659463Y-51113494D01*
X64738815Y-51210185D01*
X64835506Y-51289537D01*
X64945820Y-51348502D01*
X65065518Y-51384812D01*
X65190000Y-51397072D01*
X65754250Y-51394000D01*
X65913000Y-51235250D01*
X65913000Y-49911000D01*
X66167000Y-49911000D01*
X66167000Y-51235250D01*
X66325750Y-51394000D01*
X66890000Y-51397072D01*
X67014482Y-51384812D01*
X67134180Y-51348502D01*
X67244494Y-51289537D01*
X67341185Y-51210185D01*
X67420537Y-51113494D01*
X67479502Y-51003180D01*
X67515812Y-50883482D01*
X67528072Y-50759000D01*
X67525000Y-50069750D01*
X67366250Y-49911000D01*
X66167000Y-49911000D01*
X65913000Y-49911000D01*
X65893000Y-49911000D01*
X65893000Y-49657000D01*
X65913000Y-49657000D01*
X65913000Y-48332750D01*
X66167000Y-48332750D01*
X66167000Y-49657000D01*
X67366250Y-49657000D01*
X67525000Y-49498250D01*
X67527136Y-49019000D01*
X67761637Y-49019000D01*
X68000236Y-48971540D01*
X68224992Y-48878443D01*
X68427267Y-48743287D01*
X68599287Y-48571267D01*
X68734443Y-48368992D01*
X68827540Y-48144236D01*
X68875000Y-47905637D01*
X68875000Y-47662363D01*
X68827540Y-47423764D01*
X68734443Y-47199008D01*
X68599287Y-46996733D01*
X68427267Y-46824713D01*
X68224992Y-46689557D01*
X68000236Y-46596460D01*
X67761637Y-46549000D01*
X67518363Y-46549000D01*
X67279764Y-46596460D01*
X67055008Y-46689557D01*
X66852733Y-46824713D01*
X66680713Y-46996733D01*
X66545557Y-47199008D01*
X66452460Y-47423764D01*
X66405000Y-47662363D01*
X66405000Y-47905637D01*
X66452460Y-48144236D01*
X66464476Y-48173245D01*
X66325750Y-48174000D01*
X66167000Y-48332750D01*
X65913000Y-48332750D01*
X65754250Y-48174000D01*
X65190000Y-48170928D01*
X65065518Y-48183188D01*
X64945820Y-48219498D01*
X64835506Y-48278463D01*
X64738815Y-48357815D01*
X64659463Y-48454506D01*
X64600498Y-48564820D01*
X64589945Y-48599608D01*
X64369014Y-48418294D01*
X64111034Y-48280401D01*
X63831111Y-48195487D01*
X63540000Y-48166815D01*
X63248890Y-48195487D01*
X62968967Y-48280401D01*
X62710987Y-48418294D01*
X62484866Y-48603866D01*
X62299294Y-48829986D01*
X62290000Y-48847374D01*
X62280706Y-48829986D01*
X62095134Y-48603866D01*
X61869014Y-48418294D01*
X61611034Y-48280401D01*
X61331111Y-48195487D01*
X61040000Y-48166815D01*
X60748890Y-48195487D01*
X60468967Y-48280401D01*
X60210987Y-48418294D01*
X59984866Y-48603866D01*
X59799294Y-48829986D01*
X59790000Y-48847374D01*
X59780706Y-48829986D01*
X59595134Y-48603866D01*
X59369014Y-48418294D01*
X59111034Y-48280401D01*
X58831111Y-48195487D01*
X58540000Y-48166815D01*
X58248890Y-48195487D01*
X57968967Y-48280401D01*
X57710987Y-48418294D01*
X57484866Y-48603866D01*
X57299294Y-48829986D01*
X57161401Y-49087966D01*
X57076487Y-49367889D01*
X57055000Y-49586050D01*
X57055000Y-49981949D01*
X57076487Y-50200110D01*
X57161401Y-50480033D01*
X57299294Y-50738013D01*
X57484866Y-50964134D01*
X57710986Y-51149706D01*
X57968966Y-51287599D01*
X58248889Y-51372513D01*
X58540000Y-51401185D01*
X58831110Y-51372513D01*
X59111033Y-51287599D01*
X59369013Y-51149706D01*
X59595134Y-50964134D01*
X59780706Y-50738014D01*
X59790000Y-50720626D01*
X59799294Y-50738013D01*
X59984866Y-50964134D01*
X60210986Y-51149706D01*
X60468966Y-51287599D01*
X60748889Y-51372513D01*
X61040000Y-51401185D01*
X61331110Y-51372513D01*
X61611033Y-51287599D01*
X61869013Y-51149706D01*
X62095134Y-50964134D01*
X62280706Y-50738014D01*
X62290000Y-50720626D01*
X62299294Y-50738013D01*
X62465000Y-50939927D01*
X62465001Y-56084892D01*
X62346525Y-56203368D01*
X62230000Y-56377760D01*
X62113475Y-56203368D01*
X61906632Y-55996525D01*
X61663411Y-55834010D01*
X61393158Y-55722068D01*
X61106260Y-55665000D01*
X60813740Y-55665000D01*
X60526842Y-55722068D01*
X60256589Y-55834010D01*
X60013368Y-55996525D01*
X59806525Y-56203368D01*
X59690000Y-56377760D01*
X59573475Y-56203368D01*
X59366632Y-55996525D01*
X59123411Y-55834010D01*
X58853158Y-55722068D01*
X58566260Y-55665000D01*
X58273740Y-55665000D01*
X57986842Y-55722068D01*
X57716589Y-55834010D01*
X57473368Y-55996525D01*
X57266525Y-56203368D01*
X57104010Y-56446589D01*
X56992068Y-56716842D01*
X56935000Y-57003740D01*
X56935000Y-57296260D01*
X56992068Y-57583158D01*
X57104010Y-57853411D01*
X57266525Y-58096632D01*
X57473368Y-58303475D01*
X57619325Y-58401000D01*
X50974711Y-58401000D01*
X49745000Y-57171290D01*
X49745000Y-57003740D01*
X49687932Y-56716842D01*
X49575990Y-56446589D01*
X49413475Y-56203368D01*
X49206632Y-55996525D01*
X48963411Y-55834010D01*
X48693158Y-55722068D01*
X48406260Y-55665000D01*
X48113740Y-55665000D01*
X47826842Y-55722068D01*
X47556589Y-55834010D01*
X47313368Y-55996525D01*
X47106525Y-56203368D01*
X46944010Y-56446589D01*
X46832068Y-56716842D01*
X46775000Y-57003740D01*
X46775000Y-57296260D01*
X46832068Y-57583158D01*
X46944010Y-57853411D01*
X47106525Y-58096632D01*
X47313368Y-58303475D01*
X47487760Y-58420000D01*
X47313368Y-58536525D01*
X47106525Y-58743368D01*
X46944010Y-58986589D01*
X46832068Y-59256842D01*
X46775000Y-59543740D01*
X46775000Y-59836260D01*
X46832068Y-60123158D01*
X46944010Y-60393411D01*
X47106525Y-60636632D01*
X47238380Y-60768487D01*
X47165820Y-60790498D01*
X47055506Y-60849463D01*
X46958815Y-60928815D01*
X46879463Y-61025506D01*
X46820498Y-61135820D01*
X46784188Y-61255518D01*
X46771928Y-61380000D01*
X42291000Y-61380000D01*
X42291000Y-51928665D01*
X43777000Y-51928665D01*
X43777000Y-52211335D01*
X43832147Y-52488574D01*
X43940320Y-52749727D01*
X44097363Y-52984759D01*
X44297241Y-53184637D01*
X44532273Y-53341680D01*
X44793426Y-53449853D01*
X45070665Y-53505000D01*
X45353335Y-53505000D01*
X45630574Y-53449853D01*
X45891727Y-53341680D01*
X46126759Y-53184637D01*
X46248694Y-53062702D01*
X49398903Y-53062702D01*
X49470486Y-53306671D01*
X49725996Y-53427571D01*
X50000184Y-53496300D01*
X50282512Y-53510217D01*
X50562130Y-53468787D01*
X50828292Y-53373603D01*
X50953514Y-53306671D01*
X51025097Y-53062702D01*
X50212000Y-52249605D01*
X49398903Y-53062702D01*
X46248694Y-53062702D01*
X46326637Y-52984759D01*
X46483680Y-52749727D01*
X46591853Y-52488574D01*
X46647000Y-52211335D01*
X46647000Y-52140512D01*
X48771783Y-52140512D01*
X48813213Y-52420130D01*
X48908397Y-52686292D01*
X48975329Y-52811514D01*
X49219298Y-52883097D01*
X50032395Y-52070000D01*
X50391605Y-52070000D01*
X51204702Y-52883097D01*
X51448671Y-52811514D01*
X51569571Y-52556004D01*
X51638300Y-52281816D01*
X51652217Y-51999488D01*
X51610787Y-51719870D01*
X51515603Y-51453708D01*
X51448671Y-51328486D01*
X51204702Y-51256903D01*
X50391605Y-52070000D01*
X50032395Y-52070000D01*
X49219298Y-51256903D01*
X48975329Y-51328486D01*
X48854429Y-51583996D01*
X48785700Y-51858184D01*
X48771783Y-52140512D01*
X46647000Y-52140512D01*
X46647000Y-51928665D01*
X46591853Y-51651426D01*
X46483680Y-51390273D01*
X46326637Y-51155241D01*
X46248694Y-51077298D01*
X49398903Y-51077298D01*
X50212000Y-51890395D01*
X51025097Y-51077298D01*
X50953514Y-50833329D01*
X50698004Y-50712429D01*
X50423816Y-50643700D01*
X50141488Y-50629783D01*
X49861870Y-50671213D01*
X49595708Y-50766397D01*
X49470486Y-50833329D01*
X49398903Y-51077298D01*
X46248694Y-51077298D01*
X46126759Y-50955363D01*
X45891727Y-50798320D01*
X45630574Y-50690147D01*
X45353335Y-50635000D01*
X45070665Y-50635000D01*
X44793426Y-50690147D01*
X44532273Y-50798320D01*
X44297241Y-50955363D01*
X44097363Y-51155241D01*
X43940320Y-51390273D01*
X43832147Y-51651426D01*
X43777000Y-51928665D01*
X42291000Y-51928665D01*
X42291000Y-43840061D01*
X51289000Y-43840061D01*
X51289000Y-44043939D01*
X51328774Y-44243898D01*
X51406795Y-44432256D01*
X51520063Y-44601774D01*
X51664226Y-44745937D01*
X51833744Y-44859205D01*
X52022102Y-44937226D01*
X52222061Y-44977000D01*
X52425939Y-44977000D01*
X52625898Y-44937226D01*
X52814256Y-44859205D01*
X52937285Y-44777000D01*
X53742715Y-44777000D01*
X53865744Y-44859205D01*
X54054102Y-44937226D01*
X54254061Y-44977000D01*
X54457939Y-44977000D01*
X54657898Y-44937226D01*
X54846256Y-44859205D01*
X55015774Y-44745937D01*
X55159937Y-44601774D01*
X55273205Y-44432256D01*
X55351226Y-44243898D01*
X55391000Y-44043939D01*
X55391000Y-43840061D01*
X55351226Y-43640102D01*
X55312523Y-43546665D01*
X61176000Y-43546665D01*
X61176000Y-43829335D01*
X61231147Y-44106574D01*
X61339320Y-44367727D01*
X61496363Y-44602759D01*
X61696241Y-44802637D01*
X61931273Y-44959680D01*
X62192426Y-45067853D01*
X62469665Y-45123000D01*
X62752335Y-45123000D01*
X63029574Y-45067853D01*
X63290727Y-44959680D01*
X63525759Y-44802637D01*
X63725637Y-44602759D01*
X63882680Y-44367727D01*
X63990853Y-44106574D01*
X64046000Y-43829335D01*
X64046000Y-43546665D01*
X68796000Y-43546665D01*
X68796000Y-43829335D01*
X68851147Y-44106574D01*
X68959320Y-44367727D01*
X69116363Y-44602759D01*
X69316241Y-44802637D01*
X69551273Y-44959680D01*
X69812426Y-45067853D01*
X70089665Y-45123000D01*
X70372335Y-45123000D01*
X70649574Y-45067853D01*
X70910727Y-44959680D01*
X71145759Y-44802637D01*
X71345637Y-44602759D01*
X71502680Y-44367727D01*
X71610853Y-44106574D01*
X71666000Y-43829335D01*
X71666000Y-43546665D01*
X71610853Y-43269426D01*
X71502680Y-43008273D01*
X71345637Y-42773241D01*
X71145759Y-42573363D01*
X70910727Y-42416320D01*
X70649574Y-42308147D01*
X70372335Y-42253000D01*
X70089665Y-42253000D01*
X69812426Y-42308147D01*
X69551273Y-42416320D01*
X69316241Y-42573363D01*
X69116363Y-42773241D01*
X68959320Y-43008273D01*
X68851147Y-43269426D01*
X68796000Y-43546665D01*
X64046000Y-43546665D01*
X63990853Y-43269426D01*
X63882680Y-43008273D01*
X63725637Y-42773241D01*
X63525759Y-42573363D01*
X63290727Y-42416320D01*
X63029574Y-42308147D01*
X62752335Y-42253000D01*
X62469665Y-42253000D01*
X62192426Y-42308147D01*
X61931273Y-42416320D01*
X61696241Y-42573363D01*
X61496363Y-42773241D01*
X61339320Y-43008273D01*
X61231147Y-43269426D01*
X61176000Y-43546665D01*
X55312523Y-43546665D01*
X55273205Y-43451744D01*
X55159937Y-43282226D01*
X55015774Y-43138063D01*
X54846256Y-43024795D01*
X54657898Y-42946774D01*
X54457939Y-42907000D01*
X54254061Y-42907000D01*
X54054102Y-42946774D01*
X53865744Y-43024795D01*
X53742715Y-43107000D01*
X52937285Y-43107000D01*
X52814256Y-43024795D01*
X52625898Y-42946774D01*
X52425939Y-42907000D01*
X52222061Y-42907000D01*
X52022102Y-42946774D01*
X51833744Y-43024795D01*
X51664226Y-43138063D01*
X51520063Y-43282226D01*
X51406795Y-43451744D01*
X51328774Y-43640102D01*
X51289000Y-43840061D01*
X42291000Y-43840061D01*
X42291000Y-39536000D01*
X56296928Y-39536000D01*
X56296928Y-41236000D01*
X56309188Y-41360482D01*
X56345498Y-41480180D01*
X56404463Y-41590494D01*
X56483815Y-41687185D01*
X56580506Y-41766537D01*
X56690820Y-41825502D01*
X56810518Y-41861812D01*
X56935000Y-41874072D01*
X58635000Y-41874072D01*
X58759482Y-41861812D01*
X58879180Y-41825502D01*
X58989494Y-41766537D01*
X59086185Y-41687185D01*
X59165537Y-41590494D01*
X59224502Y-41480180D01*
X59246513Y-41407620D01*
X59378368Y-41539475D01*
X59621589Y-41701990D01*
X59891842Y-41813932D01*
X60178740Y-41871000D01*
X60471260Y-41871000D01*
X60758158Y-41813932D01*
X61028411Y-41701990D01*
X61271632Y-41539475D01*
X61478475Y-41332632D01*
X61533092Y-41250891D01*
X76028519Y-41250891D01*
X76125843Y-41525252D01*
X76274822Y-41775355D01*
X76469731Y-41991588D01*
X76703080Y-42165641D01*
X76965901Y-42290825D01*
X77113110Y-42335476D01*
X77343000Y-42214155D01*
X77343000Y-41021000D01*
X76149186Y-41021000D01*
X76028519Y-41250891D01*
X61533092Y-41250891D01*
X61640990Y-41089411D01*
X61752932Y-40819158D01*
X61809035Y-40537109D01*
X76028519Y-40537109D01*
X76149186Y-40767000D01*
X77343000Y-40767000D01*
X77343000Y-39573845D01*
X77597000Y-39573845D01*
X77597000Y-40767000D01*
X77617000Y-40767000D01*
X77617000Y-41021000D01*
X77597000Y-41021000D01*
X77597000Y-42214155D01*
X77826890Y-42335476D01*
X77974099Y-42290825D01*
X78236920Y-42165641D01*
X78470269Y-41991588D01*
X78665178Y-41775355D01*
X78734805Y-41658466D01*
X78856525Y-41840632D01*
X79063368Y-42047475D01*
X79306589Y-42209990D01*
X79576842Y-42321932D01*
X79863740Y-42379000D01*
X80156260Y-42379000D01*
X80443158Y-42321932D01*
X80713411Y-42209990D01*
X80956632Y-42047475D01*
X81163475Y-41840632D01*
X81280000Y-41666240D01*
X81396525Y-41840632D01*
X81603368Y-42047475D01*
X81846589Y-42209990D01*
X82116842Y-42321932D01*
X82403740Y-42379000D01*
X82696260Y-42379000D01*
X82983158Y-42321932D01*
X83253411Y-42209990D01*
X83496632Y-42047475D01*
X83703475Y-41840632D01*
X83820000Y-41666240D01*
X83936525Y-41840632D01*
X84143368Y-42047475D01*
X84386589Y-42209990D01*
X84656842Y-42321932D01*
X84943740Y-42379000D01*
X85236260Y-42379000D01*
X85523158Y-42321932D01*
X85793411Y-42209990D01*
X86036632Y-42047475D01*
X86243475Y-41840632D01*
X86360000Y-41666240D01*
X86476525Y-41840632D01*
X86683368Y-42047475D01*
X86926589Y-42209990D01*
X87196842Y-42321932D01*
X87483740Y-42379000D01*
X87776260Y-42379000D01*
X88063158Y-42321932D01*
X88333411Y-42209990D01*
X88576632Y-42047475D01*
X88783475Y-41840632D01*
X88900000Y-41666240D01*
X89016525Y-41840632D01*
X89223368Y-42047475D01*
X89466589Y-42209990D01*
X89736842Y-42321932D01*
X90023740Y-42379000D01*
X90316260Y-42379000D01*
X90603158Y-42321932D01*
X90873411Y-42209990D01*
X91116632Y-42047475D01*
X91323475Y-41840632D01*
X91445195Y-41658466D01*
X91514822Y-41775355D01*
X91709731Y-41991588D01*
X91943080Y-42165641D01*
X92205901Y-42290825D01*
X92353110Y-42335476D01*
X92583000Y-42214155D01*
X92583000Y-41021000D01*
X92563000Y-41021000D01*
X92563000Y-40767000D01*
X92583000Y-40767000D01*
X92583000Y-39573845D01*
X92837000Y-39573845D01*
X92837000Y-40767000D01*
X92857000Y-40767000D01*
X92857000Y-41021000D01*
X92837000Y-41021000D01*
X92837000Y-42214155D01*
X93066890Y-42335476D01*
X93214099Y-42290825D01*
X93476920Y-42165641D01*
X93710269Y-41991588D01*
X93905178Y-41775355D01*
X93974805Y-41658466D01*
X94096525Y-41840632D01*
X94303368Y-42047475D01*
X94546589Y-42209990D01*
X94816842Y-42321932D01*
X95103740Y-42379000D01*
X95396260Y-42379000D01*
X95683158Y-42321932D01*
X95953411Y-42209990D01*
X96196632Y-42047475D01*
X96403475Y-41840632D01*
X96520000Y-41666240D01*
X96636525Y-41840632D01*
X96843368Y-42047475D01*
X97086589Y-42209990D01*
X97356842Y-42321932D01*
X97643740Y-42379000D01*
X97936260Y-42379000D01*
X98223158Y-42321932D01*
X98493411Y-42209990D01*
X98736632Y-42047475D01*
X98943475Y-41840632D01*
X99060000Y-41666240D01*
X99176525Y-41840632D01*
X99383368Y-42047475D01*
X99626589Y-42209990D01*
X99896842Y-42321932D01*
X100183740Y-42379000D01*
X100476260Y-42379000D01*
X100763158Y-42321932D01*
X101033411Y-42209990D01*
X101276632Y-42047475D01*
X101483475Y-41840632D01*
X101600000Y-41666240D01*
X101716525Y-41840632D01*
X101923368Y-42047475D01*
X102166589Y-42209990D01*
X102436842Y-42321932D01*
X102723740Y-42379000D01*
X103016260Y-42379000D01*
X103303158Y-42321932D01*
X103573411Y-42209990D01*
X103816632Y-42047475D01*
X104023475Y-41840632D01*
X104140000Y-41666240D01*
X104256525Y-41840632D01*
X104463368Y-42047475D01*
X104706589Y-42209990D01*
X104976842Y-42321932D01*
X105263740Y-42379000D01*
X105556260Y-42379000D01*
X105843158Y-42321932D01*
X106113411Y-42209990D01*
X106356632Y-42047475D01*
X106563475Y-41840632D01*
X106680000Y-41666240D01*
X106796525Y-41840632D01*
X107003368Y-42047475D01*
X107246589Y-42209990D01*
X107516842Y-42321932D01*
X107803740Y-42379000D01*
X108096260Y-42379000D01*
X108383158Y-42321932D01*
X108653411Y-42209990D01*
X108896632Y-42047475D01*
X109103475Y-41840632D01*
X109220000Y-41666240D01*
X109336525Y-41840632D01*
X109543368Y-42047475D01*
X109786589Y-42209990D01*
X110056842Y-42321932D01*
X110343740Y-42379000D01*
X110636260Y-42379000D01*
X110923158Y-42321932D01*
X111193411Y-42209990D01*
X111436632Y-42047475D01*
X111643475Y-41840632D01*
X111760000Y-41666240D01*
X111876525Y-41840632D01*
X112083368Y-42047475D01*
X112326589Y-42209990D01*
X112596842Y-42321932D01*
X112883740Y-42379000D01*
X113176260Y-42379000D01*
X113463158Y-42321932D01*
X113733411Y-42209990D01*
X113976632Y-42047475D01*
X114183475Y-41840632D01*
X114300000Y-41666240D01*
X114416525Y-41840632D01*
X114623368Y-42047475D01*
X114866589Y-42209990D01*
X115136842Y-42321932D01*
X115423740Y-42379000D01*
X115716260Y-42379000D01*
X116003158Y-42321932D01*
X116273411Y-42209990D01*
X116516632Y-42047475D01*
X116723475Y-41840632D01*
X116840000Y-41666240D01*
X116956525Y-41840632D01*
X117163368Y-42047475D01*
X117406589Y-42209990D01*
X117676842Y-42321932D01*
X117963740Y-42379000D01*
X118256260Y-42379000D01*
X118543158Y-42321932D01*
X118813411Y-42209990D01*
X119056632Y-42047475D01*
X119263475Y-41840632D01*
X119380000Y-41666240D01*
X119496525Y-41840632D01*
X119703368Y-42047475D01*
X119946589Y-42209990D01*
X120216842Y-42321932D01*
X120503740Y-42379000D01*
X120796260Y-42379000D01*
X121083158Y-42321932D01*
X121353411Y-42209990D01*
X121596632Y-42047475D01*
X121728487Y-41915620D01*
X121750498Y-41988180D01*
X121809463Y-42098494D01*
X121888815Y-42195185D01*
X121985506Y-42274537D01*
X122095820Y-42333502D01*
X122215518Y-42369812D01*
X122340000Y-42382072D01*
X124040000Y-42382072D01*
X124164482Y-42369812D01*
X124284180Y-42333502D01*
X124394494Y-42274537D01*
X124491185Y-42195185D01*
X124570537Y-42098494D01*
X124629502Y-41988180D01*
X124665812Y-41868482D01*
X124678072Y-41744000D01*
X124678072Y-40044000D01*
X124665812Y-39919518D01*
X124629502Y-39799820D01*
X124570537Y-39689506D01*
X124491185Y-39592815D01*
X124394494Y-39513463D01*
X124284180Y-39454498D01*
X124164482Y-39418188D01*
X124040000Y-39405928D01*
X122340000Y-39405928D01*
X122215518Y-39418188D01*
X122095820Y-39454498D01*
X121985506Y-39513463D01*
X121888815Y-39592815D01*
X121809463Y-39689506D01*
X121750498Y-39799820D01*
X121728487Y-39872380D01*
X121596632Y-39740525D01*
X121353411Y-39578010D01*
X121083158Y-39466068D01*
X120796260Y-39409000D01*
X120503740Y-39409000D01*
X120216842Y-39466068D01*
X119946589Y-39578010D01*
X119703368Y-39740525D01*
X119496525Y-39947368D01*
X119380000Y-40121760D01*
X119263475Y-39947368D01*
X119056632Y-39740525D01*
X118813411Y-39578010D01*
X118543158Y-39466068D01*
X118256260Y-39409000D01*
X117963740Y-39409000D01*
X117676842Y-39466068D01*
X117406589Y-39578010D01*
X117163368Y-39740525D01*
X116956525Y-39947368D01*
X116840000Y-40121760D01*
X116723475Y-39947368D01*
X116516632Y-39740525D01*
X116273411Y-39578010D01*
X116003158Y-39466068D01*
X115716260Y-39409000D01*
X115423740Y-39409000D01*
X115136842Y-39466068D01*
X114866589Y-39578010D01*
X114623368Y-39740525D01*
X114416525Y-39947368D01*
X114300000Y-40121760D01*
X114183475Y-39947368D01*
X113976632Y-39740525D01*
X113733411Y-39578010D01*
X113463158Y-39466068D01*
X113176260Y-39409000D01*
X112883740Y-39409000D01*
X112596842Y-39466068D01*
X112326589Y-39578010D01*
X112083368Y-39740525D01*
X111876525Y-39947368D01*
X111760000Y-40121760D01*
X111643475Y-39947368D01*
X111436632Y-39740525D01*
X111193411Y-39578010D01*
X110923158Y-39466068D01*
X110636260Y-39409000D01*
X110343740Y-39409000D01*
X110056842Y-39466068D01*
X109786589Y-39578010D01*
X109543368Y-39740525D01*
X109336525Y-39947368D01*
X109220000Y-40121760D01*
X109103475Y-39947368D01*
X108896632Y-39740525D01*
X108653411Y-39578010D01*
X108383158Y-39466068D01*
X108096260Y-39409000D01*
X107803740Y-39409000D01*
X107516842Y-39466068D01*
X107246589Y-39578010D01*
X107003368Y-39740525D01*
X106796525Y-39947368D01*
X106680000Y-40121760D01*
X106563475Y-39947368D01*
X106356632Y-39740525D01*
X106113411Y-39578010D01*
X105843158Y-39466068D01*
X105556260Y-39409000D01*
X105263740Y-39409000D01*
X104976842Y-39466068D01*
X104706589Y-39578010D01*
X104463368Y-39740525D01*
X104256525Y-39947368D01*
X104140000Y-40121760D01*
X104023475Y-39947368D01*
X103816632Y-39740525D01*
X103573411Y-39578010D01*
X103303158Y-39466068D01*
X103016260Y-39409000D01*
X102723740Y-39409000D01*
X102436842Y-39466068D01*
X102166589Y-39578010D01*
X101923368Y-39740525D01*
X101716525Y-39947368D01*
X101600000Y-40121760D01*
X101483475Y-39947368D01*
X101276632Y-39740525D01*
X101033411Y-39578010D01*
X100763158Y-39466068D01*
X100476260Y-39409000D01*
X100183740Y-39409000D01*
X99896842Y-39466068D01*
X99626589Y-39578010D01*
X99383368Y-39740525D01*
X99176525Y-39947368D01*
X99060000Y-40121760D01*
X98943475Y-39947368D01*
X98736632Y-39740525D01*
X98493411Y-39578010D01*
X98223158Y-39466068D01*
X97936260Y-39409000D01*
X97643740Y-39409000D01*
X97356842Y-39466068D01*
X97086589Y-39578010D01*
X96843368Y-39740525D01*
X96636525Y-39947368D01*
X96520000Y-40121760D01*
X96403475Y-39947368D01*
X96196632Y-39740525D01*
X95953411Y-39578010D01*
X95683158Y-39466068D01*
X95396260Y-39409000D01*
X95103740Y-39409000D01*
X94816842Y-39466068D01*
X94546589Y-39578010D01*
X94303368Y-39740525D01*
X94096525Y-39947368D01*
X93974805Y-40129534D01*
X93905178Y-40012645D01*
X93710269Y-39796412D01*
X93476920Y-39622359D01*
X93214099Y-39497175D01*
X93066890Y-39452524D01*
X92837000Y-39573845D01*
X92583000Y-39573845D01*
X92353110Y-39452524D01*
X92205901Y-39497175D01*
X91943080Y-39622359D01*
X91709731Y-39796412D01*
X91514822Y-40012645D01*
X91445195Y-40129534D01*
X91323475Y-39947368D01*
X91116632Y-39740525D01*
X90873411Y-39578010D01*
X90603158Y-39466068D01*
X90316260Y-39409000D01*
X90023740Y-39409000D01*
X89736842Y-39466068D01*
X89466589Y-39578010D01*
X89223368Y-39740525D01*
X89016525Y-39947368D01*
X88900000Y-40121760D01*
X88783475Y-39947368D01*
X88576632Y-39740525D01*
X88333411Y-39578010D01*
X88063158Y-39466068D01*
X87776260Y-39409000D01*
X87483740Y-39409000D01*
X87196842Y-39466068D01*
X86926589Y-39578010D01*
X86683368Y-39740525D01*
X86476525Y-39947368D01*
X86360000Y-40121760D01*
X86243475Y-39947368D01*
X86036632Y-39740525D01*
X85793411Y-39578010D01*
X85523158Y-39466068D01*
X85236260Y-39409000D01*
X84943740Y-39409000D01*
X84656842Y-39466068D01*
X84386589Y-39578010D01*
X84143368Y-39740525D01*
X83936525Y-39947368D01*
X83820000Y-40121760D01*
X83703475Y-39947368D01*
X83496632Y-39740525D01*
X83253411Y-39578010D01*
X82983158Y-39466068D01*
X82696260Y-39409000D01*
X82403740Y-39409000D01*
X82116842Y-39466068D01*
X81846589Y-39578010D01*
X81603368Y-39740525D01*
X81396525Y-39947368D01*
X81280000Y-40121760D01*
X81163475Y-39947368D01*
X80956632Y-39740525D01*
X80713411Y-39578010D01*
X80443158Y-39466068D01*
X80156260Y-39409000D01*
X79863740Y-39409000D01*
X79576842Y-39466068D01*
X79306589Y-39578010D01*
X79063368Y-39740525D01*
X78856525Y-39947368D01*
X78734805Y-40129534D01*
X78665178Y-40012645D01*
X78470269Y-39796412D01*
X78236920Y-39622359D01*
X77974099Y-39497175D01*
X77826890Y-39452524D01*
X77597000Y-39573845D01*
X77343000Y-39573845D01*
X77113110Y-39452524D01*
X76965901Y-39497175D01*
X76703080Y-39622359D01*
X76469731Y-39796412D01*
X76274822Y-40012645D01*
X76125843Y-40262748D01*
X76028519Y-40537109D01*
X61809035Y-40537109D01*
X61810000Y-40532260D01*
X61810000Y-40239740D01*
X61752932Y-39952842D01*
X61640990Y-39682589D01*
X61478475Y-39439368D01*
X61271632Y-39232525D01*
X61028411Y-39070010D01*
X60758158Y-38958068D01*
X60471260Y-38901000D01*
X60178740Y-38901000D01*
X59891842Y-38958068D01*
X59621589Y-39070010D01*
X59378368Y-39232525D01*
X59246513Y-39364380D01*
X59224502Y-39291820D01*
X59165537Y-39181506D01*
X59086185Y-39084815D01*
X58989494Y-39005463D01*
X58879180Y-38946498D01*
X58759482Y-38910188D01*
X58635000Y-38897928D01*
X56935000Y-38897928D01*
X56810518Y-38910188D01*
X56690820Y-38946498D01*
X56580506Y-39005463D01*
X56483815Y-39084815D01*
X56404463Y-39181506D01*
X56345498Y-39291820D01*
X56309188Y-39411518D01*
X56296928Y-39536000D01*
X42291000Y-39536000D01*
X42291000Y-34505000D01*
X68871928Y-34505000D01*
X68884188Y-34629482D01*
X68920498Y-34749180D01*
X68979463Y-34859494D01*
X69058815Y-34956185D01*
X69155506Y-35035537D01*
X69265820Y-35094502D01*
X69385518Y-35130812D01*
X69510000Y-35143072D01*
X70199250Y-35140000D01*
X70358000Y-34981250D01*
X70358000Y-33782000D01*
X70612000Y-33782000D01*
X70612000Y-34981250D01*
X70770750Y-35140000D01*
X71250000Y-35142136D01*
X71250000Y-35376637D01*
X71297460Y-35615236D01*
X71390557Y-35839992D01*
X71525713Y-36042267D01*
X71697733Y-36214287D01*
X71900008Y-36349443D01*
X72124764Y-36442540D01*
X72363363Y-36490000D01*
X72606637Y-36490000D01*
X72845236Y-36442540D01*
X73069992Y-36349443D01*
X73272267Y-36214287D01*
X73444287Y-36042267D01*
X73579443Y-35839992D01*
X73672540Y-35615236D01*
X73720000Y-35376637D01*
X73720000Y-35133363D01*
X73672540Y-34894764D01*
X73579443Y-34670008D01*
X73469189Y-34505000D01*
X78396928Y-34505000D01*
X78409188Y-34629482D01*
X78445498Y-34749180D01*
X78504463Y-34859494D01*
X78583815Y-34956185D01*
X78680506Y-35035537D01*
X78790820Y-35094502D01*
X78910518Y-35130812D01*
X79035000Y-35143072D01*
X79724250Y-35140000D01*
X79883000Y-34981250D01*
X79883000Y-33782000D01*
X80137000Y-33782000D01*
X80137000Y-34981250D01*
X80295750Y-35140000D01*
X80775000Y-35142136D01*
X80775000Y-35376637D01*
X80822460Y-35615236D01*
X80915557Y-35839992D01*
X81050713Y-36042267D01*
X81222733Y-36214287D01*
X81425008Y-36349443D01*
X81649764Y-36442540D01*
X81888363Y-36490000D01*
X82131637Y-36490000D01*
X82370236Y-36442540D01*
X82594992Y-36349443D01*
X82797267Y-36214287D01*
X82969287Y-36042267D01*
X83104443Y-35839992D01*
X83197540Y-35615236D01*
X83245000Y-35376637D01*
X83245000Y-35133363D01*
X83197540Y-34894764D01*
X83104443Y-34670008D01*
X82994189Y-34505000D01*
X87921928Y-34505000D01*
X87934188Y-34629482D01*
X87970498Y-34749180D01*
X88029463Y-34859494D01*
X88108815Y-34956185D01*
X88205506Y-35035537D01*
X88315820Y-35094502D01*
X88435518Y-35130812D01*
X88560000Y-35143072D01*
X89249250Y-35140000D01*
X89408000Y-34981250D01*
X89408000Y-33782000D01*
X89662000Y-33782000D01*
X89662000Y-34981250D01*
X89820750Y-35140000D01*
X90300000Y-35142136D01*
X90300000Y-35376637D01*
X90347460Y-35615236D01*
X90440557Y-35839992D01*
X90575713Y-36042267D01*
X90747733Y-36214287D01*
X90950008Y-36349443D01*
X91174764Y-36442540D01*
X91413363Y-36490000D01*
X91656637Y-36490000D01*
X91895236Y-36442540D01*
X92119992Y-36349443D01*
X92322267Y-36214287D01*
X92494287Y-36042267D01*
X92629443Y-35839992D01*
X92722540Y-35615236D01*
X92770000Y-35376637D01*
X92770000Y-35133363D01*
X92722540Y-34894764D01*
X92629443Y-34670008D01*
X92519189Y-34505000D01*
X97446928Y-34505000D01*
X97459188Y-34629482D01*
X97495498Y-34749180D01*
X97554463Y-34859494D01*
X97633815Y-34956185D01*
X97730506Y-35035537D01*
X97840820Y-35094502D01*
X97960518Y-35130812D01*
X98085000Y-35143072D01*
X98774250Y-35140000D01*
X98933000Y-34981250D01*
X98933000Y-33782000D01*
X99187000Y-33782000D01*
X99187000Y-34981250D01*
X99345750Y-35140000D01*
X99825000Y-35142136D01*
X99825000Y-35376637D01*
X99872460Y-35615236D01*
X99965557Y-35839992D01*
X100100713Y-36042267D01*
X100272733Y-36214287D01*
X100475008Y-36349443D01*
X100699764Y-36442540D01*
X100938363Y-36490000D01*
X101181637Y-36490000D01*
X101420236Y-36442540D01*
X101644992Y-36349443D01*
X101847267Y-36214287D01*
X102019287Y-36042267D01*
X102154443Y-35839992D01*
X102247540Y-35615236D01*
X102295000Y-35376637D01*
X102295000Y-35133363D01*
X102247540Y-34894764D01*
X102154443Y-34670008D01*
X102044189Y-34505000D01*
X106971928Y-34505000D01*
X106984188Y-34629482D01*
X107020498Y-34749180D01*
X107079463Y-34859494D01*
X107158815Y-34956185D01*
X107255506Y-35035537D01*
X107365820Y-35094502D01*
X107485518Y-35130812D01*
X107610000Y-35143072D01*
X108299250Y-35140000D01*
X108458000Y-34981250D01*
X108458000Y-33782000D01*
X108712000Y-33782000D01*
X108712000Y-34981250D01*
X108870750Y-35140000D01*
X109350000Y-35142136D01*
X109350000Y-35376637D01*
X109397460Y-35615236D01*
X109490557Y-35839992D01*
X109625713Y-36042267D01*
X109797733Y-36214287D01*
X110000008Y-36349443D01*
X110224764Y-36442540D01*
X110463363Y-36490000D01*
X110706637Y-36490000D01*
X110945236Y-36442540D01*
X111169992Y-36349443D01*
X111372267Y-36214287D01*
X111544287Y-36042267D01*
X111679443Y-35839992D01*
X111772540Y-35615236D01*
X111820000Y-35376637D01*
X111820000Y-35133363D01*
X111772540Y-34894764D01*
X111679443Y-34670008D01*
X111569189Y-34505000D01*
X116496928Y-34505000D01*
X116509188Y-34629482D01*
X116545498Y-34749180D01*
X116604463Y-34859494D01*
X116683815Y-34956185D01*
X116780506Y-35035537D01*
X116890820Y-35094502D01*
X117010518Y-35130812D01*
X117135000Y-35143072D01*
X117824250Y-35140000D01*
X117983000Y-34981250D01*
X117983000Y-33782000D01*
X118237000Y-33782000D01*
X118237000Y-34981250D01*
X118395750Y-35140000D01*
X118875000Y-35142136D01*
X118875000Y-35376637D01*
X118922460Y-35615236D01*
X119015557Y-35839992D01*
X119150713Y-36042267D01*
X119322733Y-36214287D01*
X119525008Y-36349443D01*
X119749764Y-36442540D01*
X119988363Y-36490000D01*
X120231637Y-36490000D01*
X120470236Y-36442540D01*
X120694992Y-36349443D01*
X120897267Y-36214287D01*
X121069287Y-36042267D01*
X121204443Y-35839992D01*
X121297540Y-35615236D01*
X121345000Y-35376637D01*
X121345000Y-35133363D01*
X121297540Y-34894764D01*
X121204443Y-34670008D01*
X121069287Y-34467733D01*
X120897267Y-34295713D01*
X120694992Y-34160557D01*
X120470236Y-34067460D01*
X120231637Y-34020000D01*
X119988363Y-34020000D01*
X119749764Y-34067460D01*
X119720755Y-34079476D01*
X119720000Y-33940750D01*
X119561250Y-33782000D01*
X118237000Y-33782000D01*
X117983000Y-33782000D01*
X116658750Y-33782000D01*
X116500000Y-33940750D01*
X116496928Y-34505000D01*
X111569189Y-34505000D01*
X111544287Y-34467733D01*
X111372267Y-34295713D01*
X111169992Y-34160557D01*
X110945236Y-34067460D01*
X110706637Y-34020000D01*
X110463363Y-34020000D01*
X110224764Y-34067460D01*
X110195755Y-34079476D01*
X110195000Y-33940750D01*
X110036250Y-33782000D01*
X108712000Y-33782000D01*
X108458000Y-33782000D01*
X107133750Y-33782000D01*
X106975000Y-33940750D01*
X106971928Y-34505000D01*
X102044189Y-34505000D01*
X102019287Y-34467733D01*
X101847267Y-34295713D01*
X101644992Y-34160557D01*
X101420236Y-34067460D01*
X101181637Y-34020000D01*
X100938363Y-34020000D01*
X100699764Y-34067460D01*
X100670755Y-34079476D01*
X100670000Y-33940750D01*
X100511250Y-33782000D01*
X99187000Y-33782000D01*
X98933000Y-33782000D01*
X97608750Y-33782000D01*
X97450000Y-33940750D01*
X97446928Y-34505000D01*
X92519189Y-34505000D01*
X92494287Y-34467733D01*
X92322267Y-34295713D01*
X92119992Y-34160557D01*
X91895236Y-34067460D01*
X91656637Y-34020000D01*
X91413363Y-34020000D01*
X91174764Y-34067460D01*
X91145755Y-34079476D01*
X91145000Y-33940750D01*
X90986250Y-33782000D01*
X89662000Y-33782000D01*
X89408000Y-33782000D01*
X88083750Y-33782000D01*
X87925000Y-33940750D01*
X87921928Y-34505000D01*
X82994189Y-34505000D01*
X82969287Y-34467733D01*
X82797267Y-34295713D01*
X82594992Y-34160557D01*
X82370236Y-34067460D01*
X82131637Y-34020000D01*
X81888363Y-34020000D01*
X81649764Y-34067460D01*
X81620755Y-34079476D01*
X81620000Y-33940750D01*
X81461250Y-33782000D01*
X80137000Y-33782000D01*
X79883000Y-33782000D01*
X78558750Y-33782000D01*
X78400000Y-33940750D01*
X78396928Y-34505000D01*
X73469189Y-34505000D01*
X73444287Y-34467733D01*
X73272267Y-34295713D01*
X73069992Y-34160557D01*
X72845236Y-34067460D01*
X72606637Y-34020000D01*
X72363363Y-34020000D01*
X72124764Y-34067460D01*
X72095755Y-34079476D01*
X72095000Y-33940750D01*
X71936250Y-33782000D01*
X70612000Y-33782000D01*
X70358000Y-33782000D01*
X69033750Y-33782000D01*
X68875000Y-33940750D01*
X68871928Y-34505000D01*
X42291000Y-34505000D01*
X42291000Y-29128531D01*
X42331862Y-29189685D01*
X42810315Y-29668138D01*
X43372918Y-30044057D01*
X43998048Y-30302994D01*
X44661682Y-30435000D01*
X45338318Y-30435000D01*
X46001952Y-30302994D01*
X46627082Y-30044057D01*
X47189685Y-29668138D01*
X47668138Y-29189685D01*
X48025402Y-28655000D01*
X68867815Y-28655000D01*
X68896487Y-28946111D01*
X68981401Y-29226034D01*
X69119294Y-29484014D01*
X69304866Y-29710134D01*
X69530986Y-29895706D01*
X69548374Y-29905000D01*
X69530986Y-29914294D01*
X69304866Y-30099866D01*
X69119294Y-30325986D01*
X68981401Y-30583966D01*
X68896487Y-30863889D01*
X68867815Y-31155000D01*
X68896487Y-31446111D01*
X68981401Y-31726034D01*
X69119294Y-31984014D01*
X69300608Y-32204945D01*
X69265820Y-32215498D01*
X69155506Y-32274463D01*
X69058815Y-32353815D01*
X68979463Y-32450506D01*
X68920498Y-32560820D01*
X68884188Y-32680518D01*
X68871928Y-32805000D01*
X68875000Y-33369250D01*
X69033750Y-33528000D01*
X70358000Y-33528000D01*
X70358000Y-33508000D01*
X70612000Y-33508000D01*
X70612000Y-33528000D01*
X71936250Y-33528000D01*
X72095000Y-33369250D01*
X72098072Y-32805000D01*
X72085812Y-32680518D01*
X72049502Y-32560820D01*
X71990537Y-32450506D01*
X71911185Y-32353815D01*
X71814494Y-32274463D01*
X71704180Y-32215498D01*
X71669392Y-32204945D01*
X71850706Y-31984014D01*
X71988599Y-31726034D01*
X72073513Y-31446111D01*
X72102185Y-31155000D01*
X72073513Y-30863889D01*
X71988599Y-30583966D01*
X71850706Y-30325986D01*
X71665134Y-30099866D01*
X71439014Y-29914294D01*
X71421626Y-29905000D01*
X71439014Y-29895706D01*
X71665134Y-29710134D01*
X71850706Y-29484014D01*
X71988599Y-29226034D01*
X72073513Y-28946111D01*
X72102185Y-28655000D01*
X78392815Y-28655000D01*
X78421487Y-28946111D01*
X78506401Y-29226034D01*
X78644294Y-29484014D01*
X78829866Y-29710134D01*
X79055986Y-29895706D01*
X79073374Y-29905000D01*
X79055986Y-29914294D01*
X78829866Y-30099866D01*
X78644294Y-30325986D01*
X78506401Y-30583966D01*
X78421487Y-30863889D01*
X78392815Y-31155000D01*
X78421487Y-31446111D01*
X78506401Y-31726034D01*
X78644294Y-31984014D01*
X78825608Y-32204945D01*
X78790820Y-32215498D01*
X78680506Y-32274463D01*
X78583815Y-32353815D01*
X78504463Y-32450506D01*
X78445498Y-32560820D01*
X78409188Y-32680518D01*
X78396928Y-32805000D01*
X78400000Y-33369250D01*
X78558750Y-33528000D01*
X79883000Y-33528000D01*
X79883000Y-33508000D01*
X80137000Y-33508000D01*
X80137000Y-33528000D01*
X81461250Y-33528000D01*
X81620000Y-33369250D01*
X81623072Y-32805000D01*
X81610812Y-32680518D01*
X81574502Y-32560820D01*
X81515537Y-32450506D01*
X81436185Y-32353815D01*
X81339494Y-32274463D01*
X81229180Y-32215498D01*
X81194392Y-32204945D01*
X81375706Y-31984014D01*
X81513599Y-31726034D01*
X81598513Y-31446111D01*
X81627185Y-31155000D01*
X81598513Y-30863889D01*
X81513599Y-30583966D01*
X81375706Y-30325986D01*
X81190134Y-30099866D01*
X80964014Y-29914294D01*
X80946626Y-29905000D01*
X80964014Y-29895706D01*
X81190134Y-29710134D01*
X81375706Y-29484014D01*
X81513599Y-29226034D01*
X81598513Y-28946111D01*
X81627185Y-28655000D01*
X87917815Y-28655000D01*
X87946487Y-28946111D01*
X88031401Y-29226034D01*
X88169294Y-29484014D01*
X88354866Y-29710134D01*
X88580986Y-29895706D01*
X88598374Y-29905000D01*
X88580986Y-29914294D01*
X88354866Y-30099866D01*
X88169294Y-30325986D01*
X88031401Y-30583966D01*
X87946487Y-30863889D01*
X87917815Y-31155000D01*
X87946487Y-31446111D01*
X88031401Y-31726034D01*
X88169294Y-31984014D01*
X88350608Y-32204945D01*
X88315820Y-32215498D01*
X88205506Y-32274463D01*
X88108815Y-32353815D01*
X88029463Y-32450506D01*
X87970498Y-32560820D01*
X87934188Y-32680518D01*
X87921928Y-32805000D01*
X87925000Y-33369250D01*
X88083750Y-33528000D01*
X89408000Y-33528000D01*
X89408000Y-33508000D01*
X89662000Y-33508000D01*
X89662000Y-33528000D01*
X90986250Y-33528000D01*
X91145000Y-33369250D01*
X91148072Y-32805000D01*
X91135812Y-32680518D01*
X91099502Y-32560820D01*
X91040537Y-32450506D01*
X90961185Y-32353815D01*
X90864494Y-32274463D01*
X90754180Y-32215498D01*
X90719392Y-32204945D01*
X90900706Y-31984014D01*
X91038599Y-31726034D01*
X91123513Y-31446111D01*
X91152185Y-31155000D01*
X91123513Y-30863889D01*
X91038599Y-30583966D01*
X90900706Y-30325986D01*
X90715134Y-30099866D01*
X90489014Y-29914294D01*
X90471626Y-29905000D01*
X90489014Y-29895706D01*
X90715134Y-29710134D01*
X90900706Y-29484014D01*
X91038599Y-29226034D01*
X91123513Y-28946111D01*
X91152185Y-28655000D01*
X97442815Y-28655000D01*
X97471487Y-28946111D01*
X97556401Y-29226034D01*
X97694294Y-29484014D01*
X97879866Y-29710134D01*
X98105986Y-29895706D01*
X98123374Y-29905000D01*
X98105986Y-29914294D01*
X97879866Y-30099866D01*
X97694294Y-30325986D01*
X97556401Y-30583966D01*
X97471487Y-30863889D01*
X97442815Y-31155000D01*
X97471487Y-31446111D01*
X97556401Y-31726034D01*
X97694294Y-31984014D01*
X97875608Y-32204945D01*
X97840820Y-32215498D01*
X97730506Y-32274463D01*
X97633815Y-32353815D01*
X97554463Y-32450506D01*
X97495498Y-32560820D01*
X97459188Y-32680518D01*
X97446928Y-32805000D01*
X97450000Y-33369250D01*
X97608750Y-33528000D01*
X98933000Y-33528000D01*
X98933000Y-33508000D01*
X99187000Y-33508000D01*
X99187000Y-33528000D01*
X100511250Y-33528000D01*
X100670000Y-33369250D01*
X100673072Y-32805000D01*
X100660812Y-32680518D01*
X100624502Y-32560820D01*
X100565537Y-32450506D01*
X100486185Y-32353815D01*
X100389494Y-32274463D01*
X100279180Y-32215498D01*
X100244392Y-32204945D01*
X100425706Y-31984014D01*
X100563599Y-31726034D01*
X100648513Y-31446111D01*
X100677185Y-31155000D01*
X100648513Y-30863889D01*
X100563599Y-30583966D01*
X100425706Y-30325986D01*
X100240134Y-30099866D01*
X100014014Y-29914294D01*
X99996626Y-29905000D01*
X100014014Y-29895706D01*
X100240134Y-29710134D01*
X100425706Y-29484014D01*
X100563599Y-29226034D01*
X100648513Y-28946111D01*
X100677185Y-28655000D01*
X106967815Y-28655000D01*
X106996487Y-28946111D01*
X107081401Y-29226034D01*
X107219294Y-29484014D01*
X107404866Y-29710134D01*
X107630986Y-29895706D01*
X107648374Y-29905000D01*
X107630986Y-29914294D01*
X107404866Y-30099866D01*
X107219294Y-30325986D01*
X107081401Y-30583966D01*
X106996487Y-30863889D01*
X106967815Y-31155000D01*
X106996487Y-31446111D01*
X107081401Y-31726034D01*
X107219294Y-31984014D01*
X107400608Y-32204945D01*
X107365820Y-32215498D01*
X107255506Y-32274463D01*
X107158815Y-32353815D01*
X107079463Y-32450506D01*
X107020498Y-32560820D01*
X106984188Y-32680518D01*
X106971928Y-32805000D01*
X106975000Y-33369250D01*
X107133750Y-33528000D01*
X108458000Y-33528000D01*
X108458000Y-33508000D01*
X108712000Y-33508000D01*
X108712000Y-33528000D01*
X110036250Y-33528000D01*
X110195000Y-33369250D01*
X110198072Y-32805000D01*
X110185812Y-32680518D01*
X110149502Y-32560820D01*
X110090537Y-32450506D01*
X110011185Y-32353815D01*
X109914494Y-32274463D01*
X109804180Y-32215498D01*
X109769392Y-32204945D01*
X109950706Y-31984014D01*
X110088599Y-31726034D01*
X110173513Y-31446111D01*
X110202185Y-31155000D01*
X110173513Y-30863889D01*
X110088599Y-30583966D01*
X109950706Y-30325986D01*
X109765134Y-30099866D01*
X109539014Y-29914294D01*
X109521626Y-29905000D01*
X109539014Y-29895706D01*
X109765134Y-29710134D01*
X109950706Y-29484014D01*
X110088599Y-29226034D01*
X110173513Y-28946111D01*
X110202185Y-28655000D01*
X116492815Y-28655000D01*
X116521487Y-28946111D01*
X116606401Y-29226034D01*
X116744294Y-29484014D01*
X116929866Y-29710134D01*
X117155986Y-29895706D01*
X117173374Y-29905000D01*
X117155986Y-29914294D01*
X116929866Y-30099866D01*
X116744294Y-30325986D01*
X116606401Y-30583966D01*
X116521487Y-30863889D01*
X116492815Y-31155000D01*
X116521487Y-31446111D01*
X116606401Y-31726034D01*
X116744294Y-31984014D01*
X116925608Y-32204945D01*
X116890820Y-32215498D01*
X116780506Y-32274463D01*
X116683815Y-32353815D01*
X116604463Y-32450506D01*
X116545498Y-32560820D01*
X116509188Y-32680518D01*
X116496928Y-32805000D01*
X116500000Y-33369250D01*
X116658750Y-33528000D01*
X117983000Y-33528000D01*
X117983000Y-33508000D01*
X118237000Y-33508000D01*
X118237000Y-33528000D01*
X119561250Y-33528000D01*
X119720000Y-33369250D01*
X119723072Y-32805000D01*
X119710812Y-32680518D01*
X119674502Y-32560820D01*
X119615537Y-32450506D01*
X119536185Y-32353815D01*
X119439494Y-32274463D01*
X119329180Y-32215498D01*
X119294392Y-32204945D01*
X119475706Y-31984014D01*
X119613599Y-31726034D01*
X119698513Y-31446111D01*
X119727185Y-31155000D01*
X119698513Y-30863889D01*
X119613599Y-30583966D01*
X119475706Y-30325986D01*
X119290134Y-30099866D01*
X119064014Y-29914294D01*
X119046626Y-29905000D01*
X119064014Y-29895706D01*
X119290134Y-29710134D01*
X119475706Y-29484014D01*
X119613599Y-29226034D01*
X119698513Y-28946111D01*
X119727185Y-28655000D01*
X119698513Y-28363889D01*
X119613599Y-28083966D01*
X119475706Y-27825986D01*
X119290134Y-27599866D01*
X119064014Y-27414294D01*
X118806034Y-27276401D01*
X118526111Y-27191487D01*
X118307950Y-27170000D01*
X117912050Y-27170000D01*
X117693889Y-27191487D01*
X117413966Y-27276401D01*
X117155986Y-27414294D01*
X116929866Y-27599866D01*
X116744294Y-27825986D01*
X116606401Y-28083966D01*
X116521487Y-28363889D01*
X116492815Y-28655000D01*
X110202185Y-28655000D01*
X110173513Y-28363889D01*
X110088599Y-28083966D01*
X109950706Y-27825986D01*
X109765134Y-27599866D01*
X109539014Y-27414294D01*
X109281034Y-27276401D01*
X109001111Y-27191487D01*
X108782950Y-27170000D01*
X108387050Y-27170000D01*
X108168889Y-27191487D01*
X107888966Y-27276401D01*
X107630986Y-27414294D01*
X107404866Y-27599866D01*
X107219294Y-27825986D01*
X107081401Y-28083966D01*
X106996487Y-28363889D01*
X106967815Y-28655000D01*
X100677185Y-28655000D01*
X100648513Y-28363889D01*
X100563599Y-28083966D01*
X100425706Y-27825986D01*
X100240134Y-27599866D01*
X100014014Y-27414294D01*
X99756034Y-27276401D01*
X99476111Y-27191487D01*
X99257950Y-27170000D01*
X98862050Y-27170000D01*
X98643889Y-27191487D01*
X98363966Y-27276401D01*
X98105986Y-27414294D01*
X97879866Y-27599866D01*
X97694294Y-27825986D01*
X97556401Y-28083966D01*
X97471487Y-28363889D01*
X97442815Y-28655000D01*
X91152185Y-28655000D01*
X91123513Y-28363889D01*
X91038599Y-28083966D01*
X90900706Y-27825986D01*
X90715134Y-27599866D01*
X90489014Y-27414294D01*
X90231034Y-27276401D01*
X89951111Y-27191487D01*
X89732950Y-27170000D01*
X89337050Y-27170000D01*
X89118889Y-27191487D01*
X88838966Y-27276401D01*
X88580986Y-27414294D01*
X88354866Y-27599866D01*
X88169294Y-27825986D01*
X88031401Y-28083966D01*
X87946487Y-28363889D01*
X87917815Y-28655000D01*
X81627185Y-28655000D01*
X81598513Y-28363889D01*
X81513599Y-28083966D01*
X81375706Y-27825986D01*
X81190134Y-27599866D01*
X80964014Y-27414294D01*
X80706034Y-27276401D01*
X80426111Y-27191487D01*
X80207950Y-27170000D01*
X79812050Y-27170000D01*
X79593889Y-27191487D01*
X79313966Y-27276401D01*
X79055986Y-27414294D01*
X78829866Y-27599866D01*
X78644294Y-27825986D01*
X78506401Y-28083966D01*
X78421487Y-28363889D01*
X78392815Y-28655000D01*
X72102185Y-28655000D01*
X72073513Y-28363889D01*
X71988599Y-28083966D01*
X71850706Y-27825986D01*
X71665134Y-27599866D01*
X71439014Y-27414294D01*
X71181034Y-27276401D01*
X70901111Y-27191487D01*
X70682950Y-27170000D01*
X70287050Y-27170000D01*
X70068889Y-27191487D01*
X69788966Y-27276401D01*
X69530986Y-27414294D01*
X69304866Y-27599866D01*
X69119294Y-27825986D01*
X68981401Y-28083966D01*
X68896487Y-28363889D01*
X68867815Y-28655000D01*
X48025402Y-28655000D01*
X48044057Y-28627082D01*
X48302994Y-28001952D01*
X48435000Y-27338318D01*
X48435000Y-26661682D01*
X48302994Y-25998048D01*
X48044057Y-25372918D01*
X47668138Y-24810315D01*
X47189685Y-24331862D01*
X46697508Y-24003000D01*
X125302492Y-24003000D01*
X124810315Y-24331862D01*
G37*
%TD.AperFunction*%
%TD*%
M02*
