M48
; DRILL file {KiCad (5.1.12-1-10_14)} date Wednesday, December 22, 2021 at 06:05:57 PM
; FORMAT={-:-/ absolute / inch / decimal}
; #@! TF.CreationDate,2021-12-22T18:05:57+01:00
; #@! TF.GenerationSoftware,Kicad,Pcbnew,(5.1.12-1-10_14)
FMAT,2
INCH
T1C0.0157
T2C0.0197
T3C0.0295
T4C0.0374
T5C0.0394
T6C0.0512
T7C0.0598
T8C0.1260
T9C0.0472
%
G90
G05
T1
X2.135Y-4.245
X2.283Y-1.21
X2.4775Y-1.5975
X2.478Y-1.458
X3.31Y-2.07
X3.445Y-1.55
X3.445Y-1.64
X3.508Y-2.17
X3.602Y-2.565
X3.6269Y-2.6048
X3.7211Y-2.5648
X3.7786Y-2.6048
X3.8039Y-2.5298
X3.85Y-1.787
X3.852Y-2.288
X3.965Y-1.505
X3.994Y-2.096
X4.005Y-1.505
X4.032Y-2.006
X4.045Y-1.505
X4.068Y-2.096
X4.08Y-2.565
X4.08Y-2.605
X4.085Y-1.505
X4.09Y-1.874
X4.1336Y-2.5323
X4.235Y-1.99
X4.238Y-2.448
X4.2953Y-2.4803
X4.3453Y-2.4803
X4.395Y-2.015
X4.395Y-2.095
X4.438Y-1.788
X4.4453Y-2.4803
X4.4953Y-2.4803
X4.528Y-1.806
X4.595Y-2.48
X4.654Y-1.805
X4.695Y-2.48
X4.722Y-2.174
X4.74Y-1.755
T2
X1.6772Y-1.063
X1.6772Y-4.2913
X1.7048Y-0.9962
X1.7048Y-1.1298
X1.7048Y-4.2245
X1.7048Y-4.3582
X1.7717Y-0.9685
X1.7717Y-1.1575
X1.7717Y-4.1969
X1.7717Y-4.3858
X1.8385Y-0.9962
X1.8385Y-1.1298
X1.8385Y-4.2245
X1.8385Y-4.3582
X1.8661Y-1.063
X1.8661Y-4.2913
X4.9055Y-1.063
X4.9055Y-4.2913
X4.9332Y-0.9962
X4.9332Y-1.1298
X4.9332Y-4.2245
X4.9332Y-4.3582
X5.0Y-0.9685
X5.0Y-1.1575
X5.0Y-4.1969
X5.0Y-4.3858
X5.0668Y-0.9962
X5.0668Y-1.1298
X5.0668Y-4.2245
X5.0668Y-4.3582
X5.0945Y-1.063
X5.0945Y-4.2913
T3
X3.0906Y-2.9868
X3.0906Y-3.0368
X3.0906Y-3.0868
X3.8189Y-2.9868
X3.8189Y-3.0368
X3.8189Y-3.0868
X4.5472Y-2.9868
X4.5472Y-3.0368
X4.5472Y-3.0868
T4
X1.8975Y-1.6481
X1.8975Y-1.7466
X1.8975Y-1.845
X1.8975Y-1.9434
X2.775Y-1.1285
X2.775Y-1.227
X2.775Y-1.3254
X3.15Y-1.1285
X3.15Y-1.227
X3.15Y-1.3254
X3.525Y-1.1285
X3.525Y-1.227
X3.525Y-1.3254
X3.9Y-1.1285
X3.9Y-1.227
X3.9Y-1.3254
X4.275Y-1.1285
X4.275Y-1.227
X4.275Y-1.3254
X4.65Y-1.1285
X4.65Y-1.227
X4.65Y-1.3254
T5
X1.82Y-2.265
X1.82Y-2.365
X1.82Y-2.465
X1.82Y-2.565
X1.97Y-2.265
X1.97Y-2.365
X1.97Y-2.465
X1.97Y-2.565
X2.7539Y-3.3839
X3.2264Y-3.3839
X3.4626Y-3.3839
X3.935Y-3.3839
X4.1713Y-3.3839
X4.4063Y-2.7444
X4.5063Y-2.7444
X4.6063Y-2.7444
X4.6437Y-3.3839
X4.7063Y-2.7444
T6
X2.7539Y-3.8642
X2.9921Y-3.3071
X3.2283Y-3.8661
X3.4626Y-3.8642
X3.7008Y-3.3071
X3.937Y-3.8661
X4.1713Y-3.8642
X4.4094Y-3.3071
X4.6457Y-3.8661
T7
X2.8937Y-4.28
X3.0937Y-4.28
X3.6024Y-4.28
X3.8024Y-4.28
X4.311Y-4.28
X4.511Y-4.28
X4.995Y-3.655
X4.995Y-3.855
X5.0Y-3.075
X5.0Y-3.275
T8
X1.7717Y-1.063
X1.7717Y-4.2913
X5.0Y-1.063
X5.0Y-4.2913
T9
X1.8188Y-1.5852
X2.6963Y-1.0656
X3.0713Y-1.0656
X3.4463Y-1.0656
X3.8213Y-1.0656
X4.1963Y-1.0656
X4.5713Y-1.0656
T0
M30
