%TF.GenerationSoftware,KiCad,Pcbnew,(5.1.12-1-10_14)*%
%TF.CreationDate,2021-12-22T18:06:04+01:00*%
%TF.ProjectId,terrarium,74657272-6172-4697-956d-2e6b69636164,rev?*%
%TF.SameCoordinates,Original*%
%TF.FileFunction,Soldermask,Bot*%
%TF.FilePolarity,Negative*%
%FSLAX46Y46*%
G04 Gerber Fmt 4.6, Leading zero omitted, Abs format (unit mm)*
G04 Created by KiCad (PCBNEW (5.1.12-1-10_14)) date 2021-12-22 18:06:04*
%MOMM*%
%LPD*%
G01*
G04 APERTURE LIST*
%TA.AperFunction,Profile*%
%ADD10C,0.050000*%
%TD*%
%ADD11C,0.800000*%
%ADD12C,6.400000*%
%ADD13C,1.200000*%
%ADD14O,1.950000X1.700000*%
%ADD15C,3.000000*%
%ADD16R,3.000000X3.000000*%
%ADD17O,1.700000X1.700000*%
%ADD18R,1.700000X1.700000*%
%ADD19R,1.500000X1.050000*%
%ADD20O,1.500000X1.050000*%
%ADD21C,2.500000*%
G04 APERTURE END LIST*
D10*
X45000000Y-113000000D02*
G75*
G02*
X41000000Y-109000000I0J4000000D01*
G01*
X131000000Y-109000000D02*
G75*
G02*
X127000000Y-113000000I-4000000J0D01*
G01*
X127000000Y-23000000D02*
G75*
G02*
X131000000Y-27000000I0J-4000000D01*
G01*
X41000000Y-27000000D02*
G75*
G02*
X45000000Y-23000000I4000000J0D01*
G01*
X127000000Y-23000000D02*
X45000000Y-23000000D01*
X131000000Y-109000000D02*
X131000000Y-27000000D01*
X45000000Y-113000000D02*
X127000000Y-113000000D01*
X41000000Y-27000000D02*
X41000000Y-109000000D01*
D11*
%TO.C,H3*%
X46697056Y-107302944D03*
X45000000Y-106600000D03*
X43302944Y-107302944D03*
X42600000Y-109000000D03*
X43302944Y-110697056D03*
X45000000Y-111400000D03*
X46697056Y-110697056D03*
X47400000Y-109000000D03*
D12*
X45000000Y-109000000D03*
%TD*%
D11*
%TO.C,H4*%
X128697056Y-107302944D03*
X127000000Y-106600000D03*
X125302944Y-107302944D03*
X124600000Y-109000000D03*
X125302944Y-110697056D03*
X127000000Y-111400000D03*
X128697056Y-110697056D03*
X129400000Y-109000000D03*
D12*
X127000000Y-109000000D03*
%TD*%
D11*
%TO.C,H1*%
X128697056Y-25302944D03*
X127000000Y-24600000D03*
X125302944Y-25302944D03*
X124600000Y-27000000D03*
X125302944Y-28697056D03*
X127000000Y-29400000D03*
X128697056Y-28697056D03*
X129400000Y-27000000D03*
D12*
X127000000Y-27000000D03*
%TD*%
D11*
%TO.C,H2*%
X46697056Y-25302944D03*
X45000000Y-24600000D03*
X43302944Y-25302944D03*
X42600000Y-27000000D03*
X43302944Y-28697056D03*
X45000000Y-29400000D03*
X46697056Y-28697056D03*
X47400000Y-27000000D03*
D12*
X45000000Y-27000000D03*
%TD*%
D13*
%TO.C,HT3*%
X97060000Y-27065000D03*
D14*
X99060000Y-33665000D03*
X99060000Y-31165000D03*
G36*
G01*
X98335000Y-27815000D02*
X99785000Y-27815000D01*
G75*
G02*
X100035000Y-28065000I0J-250000D01*
G01*
X100035000Y-29265000D01*
G75*
G02*
X99785000Y-29515000I-250000J0D01*
G01*
X98335000Y-29515000D01*
G75*
G02*
X98085000Y-29265000I0J250000D01*
G01*
X98085000Y-28065000D01*
G75*
G02*
X98335000Y-27815000I250000J0D01*
G01*
G37*
%TD*%
D15*
%TO.C,S4*%
X127000000Y-78105000D03*
D16*
X127000000Y-83185000D03*
%TD*%
D17*
%TO.C,UART1*%
X111920020Y-69707760D03*
X114460020Y-69707760D03*
X117000020Y-69707760D03*
D18*
X119540020Y-69707760D03*
%TD*%
D19*
%TO.C,Q3*%
X78500000Y-75865000D03*
D20*
X78500000Y-78405000D03*
X78500000Y-77135000D03*
%TD*%
D19*
%TO.C,Q2*%
X97000000Y-75865000D03*
D20*
X97000000Y-78405000D03*
X97000000Y-77135000D03*
%TD*%
D19*
%TO.C,Q1*%
X115500000Y-75865000D03*
D20*
X115500000Y-78405000D03*
X115500000Y-77135000D03*
%TD*%
D15*
%TO.C,S3*%
X78580000Y-108712000D03*
D16*
X73500000Y-108712000D03*
%TD*%
D15*
%TO.C,RE3*%
X76000000Y-84000000D03*
D21*
X81950000Y-85950000D03*
D15*
X82000000Y-98200000D03*
X69950000Y-98150000D03*
D21*
X69950000Y-85950000D03*
%TD*%
D15*
%TO.C,S2*%
X96580000Y-108712000D03*
D16*
X91500000Y-108712000D03*
%TD*%
D15*
%TO.C,S1*%
X114580000Y-108712000D03*
D16*
X109500000Y-108712000D03*
%TD*%
D15*
%TO.C,S0*%
X126873000Y-92837000D03*
D16*
X126873000Y-97917000D03*
%TD*%
D15*
%TO.C,RE1*%
X112000000Y-84000000D03*
D21*
X117950000Y-85950000D03*
D15*
X118000000Y-98200000D03*
X105950000Y-98150000D03*
D21*
X105950000Y-85950000D03*
%TD*%
D15*
%TO.C,RE2*%
X94000000Y-84000000D03*
D21*
X99950000Y-85950000D03*
D15*
X100000000Y-98200000D03*
X87950000Y-98150000D03*
D21*
X87950000Y-85950000D03*
%TD*%
D13*
%TO.C,i2c2*%
X46196500Y-40263000D03*
D14*
X48196500Y-49363000D03*
X48196500Y-46863000D03*
X48196500Y-44363000D03*
G36*
G01*
X47471500Y-41013000D02*
X48921500Y-41013000D01*
G75*
G02*
X49171500Y-41263000I0J-250000D01*
G01*
X49171500Y-42463000D01*
G75*
G02*
X48921500Y-42713000I-250000J0D01*
G01*
X47471500Y-42713000D01*
G75*
G02*
X47221500Y-42463000I0J250000D01*
G01*
X47221500Y-41263000D01*
G75*
G02*
X47471500Y-41013000I250000J0D01*
G01*
G37*
%TD*%
D13*
%TO.C,HT1*%
X116110000Y-27065000D03*
D14*
X118110000Y-33665000D03*
X118110000Y-31165000D03*
G36*
G01*
X117385000Y-27815000D02*
X118835000Y-27815000D01*
G75*
G02*
X119085000Y-28065000I0J-250000D01*
G01*
X119085000Y-29265000D01*
G75*
G02*
X118835000Y-29515000I-250000J0D01*
G01*
X117385000Y-29515000D01*
G75*
G02*
X117135000Y-29265000I0J250000D01*
G01*
X117135000Y-28065000D01*
G75*
G02*
X117385000Y-27815000I250000J0D01*
G01*
G37*
%TD*%
D13*
%TO.C,HT2*%
X106585000Y-27065000D03*
D14*
X108585000Y-33665000D03*
X108585000Y-31165000D03*
G36*
G01*
X107860000Y-27815000D02*
X109310000Y-27815000D01*
G75*
G02*
X109560000Y-28065000I0J-250000D01*
G01*
X109560000Y-29265000D01*
G75*
G02*
X109310000Y-29515000I-250000J0D01*
G01*
X107860000Y-29515000D01*
G75*
G02*
X107610000Y-29265000I0J250000D01*
G01*
X107610000Y-28065000D01*
G75*
G02*
X107860000Y-27815000I250000J0D01*
G01*
G37*
%TD*%
D13*
%TO.C,HT6*%
X68485000Y-27065000D03*
D14*
X70485000Y-33665000D03*
X70485000Y-31165000D03*
G36*
G01*
X69760000Y-27815000D02*
X71210000Y-27815000D01*
G75*
G02*
X71460000Y-28065000I0J-250000D01*
G01*
X71460000Y-29265000D01*
G75*
G02*
X71210000Y-29515000I-250000J0D01*
G01*
X69760000Y-29515000D01*
G75*
G02*
X69510000Y-29265000I0J250000D01*
G01*
X69510000Y-28065000D01*
G75*
G02*
X69760000Y-27815000I250000J0D01*
G01*
G37*
%TD*%
D13*
%TO.C,HT5*%
X78010000Y-27065000D03*
D14*
X80010000Y-33665000D03*
X80010000Y-31165000D03*
G36*
G01*
X79285000Y-27815000D02*
X80735000Y-27815000D01*
G75*
G02*
X80985000Y-28065000I0J-250000D01*
G01*
X80985000Y-29265000D01*
G75*
G02*
X80735000Y-29515000I-250000J0D01*
G01*
X79285000Y-29515000D01*
G75*
G02*
X79035000Y-29265000I0J250000D01*
G01*
X79035000Y-28065000D01*
G75*
G02*
X79285000Y-27815000I250000J0D01*
G01*
G37*
%TD*%
D13*
%TO.C,HT4*%
X87535000Y-27065000D03*
D14*
X89535000Y-33665000D03*
X89535000Y-31165000D03*
G36*
G01*
X88810000Y-27815000D02*
X90260000Y-27815000D01*
G75*
G02*
X90510000Y-28065000I0J-250000D01*
G01*
X90510000Y-29265000D01*
G75*
G02*
X90260000Y-29515000I-250000J0D01*
G01*
X88810000Y-29515000D01*
G75*
G02*
X88560000Y-29265000I0J250000D01*
G01*
X88560000Y-28065000D01*
G75*
G02*
X88810000Y-27815000I250000J0D01*
G01*
G37*
%TD*%
D17*
%TO.C,i2c4*%
X50038000Y-65151000D03*
X50038000Y-62611000D03*
X50038000Y-60071000D03*
D18*
X50038000Y-57531000D03*
%TD*%
D17*
%TO.C,i2c3*%
X46228000Y-65151000D03*
X46228000Y-62611000D03*
X46228000Y-60071000D03*
D18*
X46228000Y-57531000D03*
%TD*%
M02*
