%TF.GenerationSoftware,KiCad,Pcbnew,5.1.10-88a1d61d58~90~ubuntu21.04.1*%
%TF.CreationDate,2021-12-13T13:58:26+01:00*%
%TF.ProjectId,terrarium,74657272-6172-4697-956d-2e6b69636164,rev?*%
%TF.SameCoordinates,Original*%
%TF.FileFunction,Copper,L2,Bot*%
%TF.FilePolarity,Positive*%
%FSLAX46Y46*%
G04 Gerber Fmt 4.6, Leading zero omitted, Abs format (unit mm)*
G04 Created by KiCad (PCBNEW 5.1.10-88a1d61d58~90~ubuntu21.04.1) date 2021-12-13 13:58:26*
%MOMM*%
%LPD*%
G01*
G04 APERTURE LIST*
%TA.AperFunction,Profile*%
%ADD10C,0.050000*%
%TD*%
%TA.AperFunction,ComponentPad*%
%ADD11R,1.500000X1.050000*%
%TD*%
%TA.AperFunction,ComponentPad*%
%ADD12O,1.500000X1.050000*%
%TD*%
%TA.AperFunction,ComponentPad*%
%ADD13C,3.000000*%
%TD*%
%TA.AperFunction,ComponentPad*%
%ADD14R,3.000000X3.000000*%
%TD*%
%TA.AperFunction,ComponentPad*%
%ADD15C,2.500000*%
%TD*%
%TA.AperFunction,ComponentPad*%
%ADD16O,1.600000X1.600000*%
%TD*%
%TA.AperFunction,ComponentPad*%
%ADD17C,1.600000*%
%TD*%
%TA.AperFunction,ComponentPad*%
%ADD18C,1.800000*%
%TD*%
%TA.AperFunction,ComponentPad*%
%ADD19R,1.800000X1.800000*%
%TD*%
%TA.AperFunction,ComponentPad*%
%ADD20O,2.200000X2.200000*%
%TD*%
%TA.AperFunction,ComponentPad*%
%ADD21R,2.200000X2.200000*%
%TD*%
%TA.AperFunction,ComponentPad*%
%ADD22C,5.600000*%
%TD*%
%TA.AperFunction,ComponentPad*%
%ADD23O,1.700000X1.950000*%
%TD*%
%TA.AperFunction,ComponentPad*%
%ADD24O,1.950000X1.700000*%
%TD*%
%TA.AperFunction,ComponentPad*%
%ADD25O,1.700000X1.700000*%
%TD*%
%TA.AperFunction,ComponentPad*%
%ADD26R,1.700000X1.700000*%
%TD*%
%TA.AperFunction,ViaPad*%
%ADD27C,0.800000*%
%TD*%
%TA.AperFunction,Conductor*%
%ADD28C,0.800000*%
%TD*%
%TA.AperFunction,Conductor*%
%ADD29C,3.000000*%
%TD*%
%TA.AperFunction,Conductor*%
%ADD30C,0.400000*%
%TD*%
%TA.AperFunction,Conductor*%
%ADD31C,0.254000*%
%TD*%
%TA.AperFunction,Conductor*%
%ADD32C,0.100000*%
%TD*%
G04 APERTURE END LIST*
D10*
X45000000Y-113000000D02*
G75*
G02*
X41000000Y-109000000I0J4000000D01*
G01*
X131000000Y-109000000D02*
G75*
G02*
X127000000Y-113000000I-4000000J0D01*
G01*
X127000000Y-23000000D02*
G75*
G02*
X131000000Y-27000000I0J-4000000D01*
G01*
X41000000Y-27000000D02*
G75*
G02*
X45000000Y-23000000I4000000J0D01*
G01*
X127000000Y-23000000D02*
X45000000Y-23000000D01*
X131000000Y-109000000D02*
X131000000Y-27000000D01*
X45000000Y-113000000D02*
X127000000Y-113000000D01*
X41000000Y-27000000D02*
X41000000Y-109000000D01*
D11*
%TO.P,Q3,1*%
%TO.N,GND*%
X82677000Y-76454000D03*
D12*
%TO.P,Q3,3*%
%TO.N,Net-(Q3-Pad3)*%
X82677000Y-78994000D03*
%TO.P,Q3,2*%
%TO.N,Net-(Q3-Pad2)*%
X82677000Y-77724000D03*
%TD*%
D11*
%TO.P,Q2,1*%
%TO.N,GND*%
X100838000Y-76454000D03*
D12*
%TO.P,Q2,3*%
%TO.N,Net-(Q2-Pad3)*%
X100838000Y-78994000D03*
%TO.P,Q2,2*%
%TO.N,Net-(Q2-Pad2)*%
X100838000Y-77724000D03*
%TD*%
D11*
%TO.P,Q1,1*%
%TO.N,GND*%
X118999000Y-76454000D03*
D12*
%TO.P,Q1,3*%
%TO.N,Net-(Q1-Pad3)*%
X118999000Y-78994000D03*
%TO.P,Q1,2*%
%TO.N,Net-(Q1-Pad2)*%
X118999000Y-77724000D03*
%TD*%
D13*
%TO.P,S3,2*%
%TO.N,220N*%
X78580000Y-108712000D03*
D14*
%TO.P,S3,1*%
%TO.N,Net-(RE3-Pad3)*%
X73500000Y-108712000D03*
%TD*%
D13*
%TO.P,RE3,1*%
%TO.N,220L*%
X76000000Y-84000000D03*
D15*
%TO.P,RE3,5*%
%TO.N,+5V*%
X81950000Y-85950000D03*
D13*
%TO.P,RE3,4*%
%TO.N,Net-(RE3-Pad4)*%
X82000000Y-98200000D03*
%TO.P,RE3,3*%
%TO.N,Net-(RE3-Pad3)*%
X69950000Y-98150000D03*
D15*
%TO.P,RE3,2*%
%TO.N,Net-(D3-Pad2)*%
X69950000Y-85950000D03*
%TD*%
D16*
%TO.P,R7,2*%
%TO.N,Net-(Q3-Pad2)*%
X82677000Y-72200000D03*
D17*
%TO.P,R7,1*%
%TO.N,Net-(LED3-Pad1)*%
X75057000Y-72200000D03*
%TD*%
D16*
%TO.P,R6,2*%
%TO.N,Net-(D3-Pad2)*%
X69977000Y-76454000D03*
D17*
%TO.P,R6,1*%
%TO.N,Net-(Q3-Pad3)*%
X77597000Y-76454000D03*
%TD*%
D18*
%TO.P,LED3,2*%
%TO.N,G5*%
X69850000Y-72200000D03*
D19*
%TO.P,LED3,1*%
%TO.N,Net-(LED3-Pad1)*%
X72390000Y-72200000D03*
%TD*%
D20*
%TO.P,D3,2*%
%TO.N,Net-(D3-Pad2)*%
X69977000Y-79883000D03*
D21*
%TO.P,D3,1*%
%TO.N,+5V*%
X77597000Y-79883000D03*
%TD*%
D13*
%TO.P,S2,2*%
%TO.N,220N*%
X96580000Y-108712000D03*
D14*
%TO.P,S2,1*%
%TO.N,Net-(RE2-Pad3)*%
X91500000Y-108712000D03*
%TD*%
D13*
%TO.P,S1,2*%
%TO.N,220N*%
X114580000Y-108712000D03*
D14*
%TO.P,S1,1*%
%TO.N,Net-(RE1-Pad3)*%
X109500000Y-108712000D03*
%TD*%
D13*
%TO.P,S0,2*%
%TO.N,220L*%
X126873000Y-92837000D03*
D14*
%TO.P,S0,1*%
%TO.N,220N*%
X126873000Y-97917000D03*
%TD*%
D16*
%TO.P,R5,2*%
%TO.N,Net-(ALED1-Pad4)*%
X67818000Y-43307000D03*
D17*
%TO.P,R5,1*%
%TO.N,G23*%
X75438000Y-43307000D03*
%TD*%
D20*
%TO.P,D1,2*%
%TO.N,Net-(D1-Pad2)*%
X105918000Y-79883000D03*
D21*
%TO.P,D1,1*%
%TO.N,+5V*%
X113538000Y-79883000D03*
%TD*%
D16*
%TO.P,R4,2*%
%TO.N,Net-(D2-Pad2)*%
X87884000Y-76454000D03*
D17*
%TO.P,R4,1*%
%TO.N,Net-(Q2-Pad3)*%
X95504000Y-76454000D03*
%TD*%
D16*
%TO.P,R3,2*%
%TO.N,Net-(Q2-Pad2)*%
X100838000Y-72200000D03*
D17*
%TO.P,R3,1*%
%TO.N,Net-(LED2-Pad1)*%
X93218000Y-72200000D03*
%TD*%
D16*
%TO.P,R2,2*%
%TO.N,Net-(D1-Pad2)*%
X105918000Y-76454000D03*
D17*
%TO.P,R2,1*%
%TO.N,Net-(Q1-Pad3)*%
X113538000Y-76454000D03*
%TD*%
D16*
%TO.P,R1,2*%
%TO.N,Net-(Q1-Pad2)*%
X118999000Y-72200000D03*
D17*
%TO.P,R1,1*%
%TO.N,Net-(LED1-Pad1)*%
X111379000Y-72200000D03*
%TD*%
%TO.P,C1,2*%
%TO.N,GND*%
X50212000Y-52070000D03*
%TO.P,C1,1*%
%TO.N,+5V*%
X45212000Y-52070000D03*
%TD*%
D22*
%TO.P,H4,1*%
%TO.N,N/C*%
X127000000Y-109000000D03*
%TD*%
%TO.P,H2,1*%
%TO.N,N/C*%
X45000000Y-27000000D03*
%TD*%
%TO.P,H3,1*%
%TO.N,N/C*%
X45000000Y-109000000D03*
%TD*%
%TO.P,H1,1*%
%TO.N,N/C*%
X127000000Y-27000000D03*
%TD*%
D13*
%TO.P,RE1,1*%
%TO.N,220L*%
X112000000Y-84000000D03*
D15*
%TO.P,RE1,5*%
%TO.N,+5V*%
X117950000Y-85950000D03*
D13*
%TO.P,RE1,4*%
%TO.N,Net-(RE1-Pad4)*%
X118000000Y-98200000D03*
%TO.P,RE1,3*%
%TO.N,Net-(RE1-Pad3)*%
X105950000Y-98150000D03*
D15*
%TO.P,RE1,2*%
%TO.N,Net-(D1-Pad2)*%
X105950000Y-85950000D03*
%TD*%
D13*
%TO.P,RE2,1*%
%TO.N,220L*%
X94000000Y-84000000D03*
D15*
%TO.P,RE2,5*%
%TO.N,+5V*%
X99950000Y-85950000D03*
D13*
%TO.P,RE2,4*%
%TO.N,Net-(RE2-Pad4)*%
X100000000Y-98200000D03*
%TO.P,RE2,3*%
%TO.N,Net-(RE2-Pad3)*%
X87950000Y-98150000D03*
D15*
%TO.P,RE2,2*%
%TO.N,Net-(D2-Pad2)*%
X87950000Y-85950000D03*
%TD*%
D18*
%TO.P,LED2,2*%
%TO.N,G4*%
X88011000Y-72200000D03*
D19*
%TO.P,LED2,1*%
%TO.N,Net-(LED2-Pad1)*%
X90551000Y-72200000D03*
%TD*%
D18*
%TO.P,LED1,2*%
%TO.N,G25*%
X105918000Y-72200000D03*
D19*
%TO.P,LED1,1*%
%TO.N,Net-(LED1-Pad1)*%
X108458000Y-72200000D03*
%TD*%
D20*
%TO.P,D2,2*%
%TO.N,Net-(D2-Pad2)*%
X87884000Y-79883000D03*
D21*
%TO.P,D2,1*%
%TO.N,+5V*%
X95504000Y-79883000D03*
%TD*%
D23*
%TO.P,i2c2,4*%
%TO.N,GND*%
X65920000Y-49784000D03*
%TO.P,i2c2,3*%
%TO.N,+5V*%
X63420000Y-49784000D03*
%TO.P,i2c2,2*%
%TO.N,SDA*%
X60920000Y-49784000D03*
%TO.P,i2c2,1*%
%TO.N,SCL*%
%TA.AperFunction,ComponentPad*%
G36*
G01*
X57570000Y-50509000D02*
X57570000Y-49059000D01*
G75*
G02*
X57820000Y-48809000I250000J0D01*
G01*
X59020000Y-48809000D01*
G75*
G02*
X59270000Y-49059000I0J-250000D01*
G01*
X59270000Y-50509000D01*
G75*
G02*
X59020000Y-50759000I-250000J0D01*
G01*
X57820000Y-50759000D01*
G75*
G02*
X57570000Y-50509000I0J250000D01*
G01*
G37*
%TD.AperFunction*%
%TD*%
D24*
%TO.P,HT1,3*%
%TO.N,GND*%
X118110000Y-33665000D03*
%TO.P,HT1,2*%
%TO.N,G27*%
X118110000Y-31165000D03*
%TO.P,HT1,1*%
%TO.N,+5V*%
%TA.AperFunction,ComponentPad*%
G36*
G01*
X117385000Y-27815000D02*
X118835000Y-27815000D01*
G75*
G02*
X119085000Y-28065000I0J-250000D01*
G01*
X119085000Y-29265000D01*
G75*
G02*
X118835000Y-29515000I-250000J0D01*
G01*
X117385000Y-29515000D01*
G75*
G02*
X117135000Y-29265000I0J250000D01*
G01*
X117135000Y-28065000D01*
G75*
G02*
X117385000Y-27815000I250000J0D01*
G01*
G37*
%TD.AperFunction*%
%TD*%
%TO.P,HT2,3*%
%TO.N,GND*%
X108585000Y-33665000D03*
%TO.P,HT2,2*%
%TO.N,G26*%
X108585000Y-31165000D03*
%TO.P,HT2,1*%
%TO.N,+5V*%
%TA.AperFunction,ComponentPad*%
G36*
G01*
X107860000Y-27815000D02*
X109310000Y-27815000D01*
G75*
G02*
X109560000Y-28065000I0J-250000D01*
G01*
X109560000Y-29265000D01*
G75*
G02*
X109310000Y-29515000I-250000J0D01*
G01*
X107860000Y-29515000D01*
G75*
G02*
X107610000Y-29265000I0J250000D01*
G01*
X107610000Y-28065000D01*
G75*
G02*
X107860000Y-27815000I250000J0D01*
G01*
G37*
%TD.AperFunction*%
%TD*%
%TO.P,HT6,3*%
%TO.N,GND*%
X70485000Y-33665000D03*
%TO.P,HT6,2*%
%TO.N,G19*%
X70485000Y-31165000D03*
%TO.P,HT6,1*%
%TO.N,+5V*%
%TA.AperFunction,ComponentPad*%
G36*
G01*
X69760000Y-27815000D02*
X71210000Y-27815000D01*
G75*
G02*
X71460000Y-28065000I0J-250000D01*
G01*
X71460000Y-29265000D01*
G75*
G02*
X71210000Y-29515000I-250000J0D01*
G01*
X69760000Y-29515000D01*
G75*
G02*
X69510000Y-29265000I0J250000D01*
G01*
X69510000Y-28065000D01*
G75*
G02*
X69760000Y-27815000I250000J0D01*
G01*
G37*
%TD.AperFunction*%
%TD*%
%TO.P,HT5,3*%
%TO.N,GND*%
X80010000Y-33665000D03*
%TO.P,HT5,2*%
%TO.N,G18*%
X80010000Y-31165000D03*
%TO.P,HT5,1*%
%TO.N,+5V*%
%TA.AperFunction,ComponentPad*%
G36*
G01*
X79285000Y-27815000D02*
X80735000Y-27815000D01*
G75*
G02*
X80985000Y-28065000I0J-250000D01*
G01*
X80985000Y-29265000D01*
G75*
G02*
X80735000Y-29515000I-250000J0D01*
G01*
X79285000Y-29515000D01*
G75*
G02*
X79035000Y-29265000I0J250000D01*
G01*
X79035000Y-28065000D01*
G75*
G02*
X79285000Y-27815000I250000J0D01*
G01*
G37*
%TD.AperFunction*%
%TD*%
%TO.P,HT4,3*%
%TO.N,GND*%
X89535000Y-33665000D03*
%TO.P,HT4,2*%
%TO.N,G17*%
X89535000Y-31165000D03*
%TO.P,HT4,1*%
%TO.N,+5V*%
%TA.AperFunction,ComponentPad*%
G36*
G01*
X88810000Y-27815000D02*
X90260000Y-27815000D01*
G75*
G02*
X90510000Y-28065000I0J-250000D01*
G01*
X90510000Y-29265000D01*
G75*
G02*
X90260000Y-29515000I-250000J0D01*
G01*
X88810000Y-29515000D01*
G75*
G02*
X88560000Y-29265000I0J250000D01*
G01*
X88560000Y-28065000D01*
G75*
G02*
X88810000Y-27815000I250000J0D01*
G01*
G37*
%TD.AperFunction*%
%TD*%
%TO.P,HT3,3*%
%TO.N,GND*%
X99060000Y-33665000D03*
%TO.P,HT3,2*%
%TO.N,G16*%
X99060000Y-31165000D03*
%TO.P,HT3,1*%
%TO.N,+5V*%
%TA.AperFunction,ComponentPad*%
G36*
G01*
X98335000Y-27815000D02*
X99785000Y-27815000D01*
G75*
G02*
X100035000Y-28065000I0J-250000D01*
G01*
X100035000Y-29265000D01*
G75*
G02*
X99785000Y-29515000I-250000J0D01*
G01*
X98335000Y-29515000D01*
G75*
G02*
X98085000Y-29265000I0J250000D01*
G01*
X98085000Y-28065000D01*
G75*
G02*
X98335000Y-27815000I250000J0D01*
G01*
G37*
%TD.AperFunction*%
%TD*%
D25*
%TO.P,esp32-left1,19*%
%TO.N,GND*%
X79970000Y-40894000D03*
%TO.P,esp32-left1,18*%
%TO.N,G23*%
X82510000Y-40894000D03*
%TO.P,esp32-left1,17*%
%TO.N,SCL*%
X85050000Y-40894000D03*
%TO.P,esp32-left1,16*%
%TO.N,TX*%
X87590000Y-40894000D03*
%TO.P,esp32-left1,15*%
%TO.N,RX*%
X90130000Y-40894000D03*
%TO.P,esp32-left1,14*%
%TO.N,SDA*%
X92670000Y-40894000D03*
%TO.P,esp32-left1,13*%
%TO.N,GND*%
X95210000Y-40894000D03*
%TO.P,esp32-left1,12*%
%TO.N,G19*%
X97750000Y-40894000D03*
%TO.P,esp32-left1,11*%
%TO.N,G18*%
X100290000Y-40894000D03*
%TO.P,esp32-left1,10*%
%TO.N,G5*%
X102830000Y-40894000D03*
%TO.P,esp32-left1,9*%
%TO.N,G17*%
X105370000Y-40894000D03*
%TO.P,esp32-left1,8*%
%TO.N,G16*%
X107910000Y-40894000D03*
%TO.P,esp32-left1,7*%
%TO.N,G4*%
X110450000Y-40894000D03*
%TO.P,esp32-left1,6*%
%TO.N,Net-(esp32-left1-Pad6)*%
X112990000Y-40894000D03*
%TO.P,esp32-left1,5*%
%TO.N,Net-(esp32-left1-Pad5)*%
X115530000Y-40894000D03*
%TO.P,esp32-left1,4*%
%TO.N,Net-(esp32-left1-Pad4)*%
X118070000Y-40894000D03*
%TO.P,esp32-left1,3*%
%TO.N,Net-(esp32-left1-Pad3)*%
X120610000Y-40894000D03*
%TO.P,esp32-left1,2*%
%TO.N,Net-(esp32-left1-Pad2)*%
X123150000Y-40894000D03*
D26*
%TO.P,esp32-left1,1*%
%TO.N,Net-(esp32-left1-Pad1)*%
X125690000Y-40894000D03*
%TD*%
D25*
%TO.P,i2c4,4*%
%TO.N,SCL*%
X58420000Y-61976000D03*
%TO.P,i2c4,3*%
%TO.N,SDA*%
X60960000Y-61976000D03*
%TO.P,i2c4,2*%
%TO.N,+3V3*%
X63500000Y-61976000D03*
D26*
%TO.P,i2c4,1*%
%TO.N,GND*%
X66040000Y-61976000D03*
%TD*%
D25*
%TO.P,i2c3,4*%
%TO.N,SCL*%
X58420000Y-57150000D03*
%TO.P,i2c3,3*%
%TO.N,SDA*%
X60960000Y-57150000D03*
%TO.P,i2c3,2*%
%TO.N,+5V*%
X63500000Y-57150000D03*
D26*
%TO.P,i2c3,1*%
%TO.N,GND*%
X66040000Y-57150000D03*
%TD*%
D25*
%TO.P,ExternalPower1,3*%
%TO.N,+5V*%
X48260000Y-57150000D03*
%TO.P,ExternalPower1,2*%
%TO.N,+3V3*%
X48260000Y-59690000D03*
D26*
%TO.P,ExternalPower1,1*%
%TO.N,GND*%
X48260000Y-62230000D03*
%TD*%
D25*
%TO.P,i2c1,4*%
%TO.N,SCL*%
X52832000Y-67310000D03*
%TO.P,i2c1,3*%
%TO.N,SDA*%
X55372000Y-67310000D03*
%TO.P,i2c1,2*%
%TO.N,+3V3*%
X57912000Y-67310000D03*
D26*
%TO.P,i2c1,1*%
%TO.N,GND*%
X60452000Y-67310000D03*
%TD*%
D25*
%TO.P,esp32-right1,19*%
%TO.N,+3V3*%
X79970000Y-66294000D03*
%TO.P,esp32-right1,18*%
%TO.N,Net-(esp32-right1-Pad18)*%
X82510000Y-66294000D03*
%TO.P,esp32-right1,17*%
%TO.N,Net-(esp32-right1-Pad17)*%
X85050000Y-66294000D03*
%TO.P,esp32-right1,16*%
%TO.N,Net-(esp32-right1-Pad16)*%
X87590000Y-66294000D03*
%TO.P,esp32-right1,15*%
%TO.N,Net-(esp32-right1-Pad15)*%
X90130000Y-66294000D03*
%TO.P,esp32-right1,14*%
%TO.N,Net-(esp32-right1-Pad14)*%
X92670000Y-66294000D03*
%TO.P,esp32-right1,13*%
%TO.N,Net-(esp32-right1-Pad13)*%
X95210000Y-66294000D03*
%TO.P,esp32-right1,12*%
%TO.N,Net-(esp32-right1-Pad12)*%
X97750000Y-66294000D03*
%TO.P,esp32-right1,11*%
%TO.N,G25*%
X100290000Y-66294000D03*
%TO.P,esp32-right1,10*%
%TO.N,G26*%
X102830000Y-66294000D03*
%TO.P,esp32-right1,9*%
%TO.N,G27*%
X105370000Y-66294000D03*
%TO.P,esp32-right1,8*%
%TO.N,Net-(esp32-right1-Pad8)*%
X107910000Y-66294000D03*
%TO.P,esp32-right1,7*%
%TO.N,Net-(esp32-right1-Pad7)*%
X110450000Y-66294000D03*
%TO.P,esp32-right1,6*%
%TO.N,Net-(esp32-right1-Pad6)*%
X112990000Y-66294000D03*
%TO.P,esp32-right1,5*%
%TO.N,Net-(esp32-right1-Pad5)*%
X115530000Y-66294000D03*
%TO.P,esp32-right1,4*%
%TO.N,Net-(esp32-right1-Pad4)*%
X118070000Y-66294000D03*
%TO.P,esp32-right1,3*%
%TO.N,Net-(esp32-right1-Pad3)*%
X120610000Y-66294000D03*
%TO.P,esp32-right1,2*%
%TO.N,Net-(esp32-right1-Pad2)*%
X123150000Y-66294000D03*
D26*
%TO.P,esp32-right1,1*%
%TO.N,+5V*%
X125690000Y-66294000D03*
%TD*%
D27*
%TO.N,Net-(ALED1-Pad4)*%
X54356000Y-43942000D03*
X52324000Y-43942000D03*
%TD*%
D28*
%TO.N,+3V3*%
X48260000Y-59690000D02*
X52705000Y-59690000D01*
X57912000Y-64897000D02*
X57912000Y-67310000D01*
X52705000Y-59690000D02*
X57912000Y-64897000D01*
%TO.N,+5V*%
X48260000Y-57150000D02*
X50419000Y-54991000D01*
X61341000Y-54991000D02*
X63500000Y-57150000D01*
X50419000Y-54991000D02*
X61341000Y-54991000D01*
D29*
%TO.N,220L*%
X76000000Y-86121320D02*
X76000000Y-84000000D01*
X82715680Y-92837000D02*
X76000000Y-86121320D01*
X94000000Y-84000000D02*
X94000000Y-85999000D01*
X100838000Y-92837000D02*
X82715680Y-92837000D01*
X94000000Y-85999000D02*
X100838000Y-92837000D01*
X112000000Y-84000000D02*
X112000000Y-86092000D01*
X112000000Y-86092000D02*
X118745000Y-92837000D01*
X118745000Y-92837000D02*
X100838000Y-92837000D01*
X126873000Y-92837000D02*
X118745000Y-92837000D01*
%TO.N,220N*%
X126873000Y-97917000D02*
X121285000Y-103505000D01*
X83787000Y-103505000D02*
X78580000Y-108712000D01*
X101787000Y-103505000D02*
X103378000Y-103505000D01*
X96580000Y-108712000D02*
X101787000Y-103505000D01*
X103378000Y-103505000D02*
X83787000Y-103505000D01*
X121285000Y-103505000D02*
X103378000Y-103505000D01*
X119787000Y-103505000D02*
X121285000Y-103505000D01*
X114580000Y-108712000D02*
X119787000Y-103505000D01*
D30*
%TO.N,Net-(ALED1-Pad4)*%
X54356000Y-43942000D02*
X52324000Y-43942000D01*
%TD*%
D31*
%TO.N,GND*%
X124810315Y-24331862D02*
X124331862Y-24810315D01*
X123955943Y-25372918D01*
X123697006Y-25998048D01*
X123565000Y-26661682D01*
X123565000Y-27338318D01*
X123697006Y-28001952D01*
X123955943Y-28627082D01*
X124331862Y-29189685D01*
X124810315Y-29668138D01*
X125372918Y-30044057D01*
X125998048Y-30302994D01*
X126661682Y-30435000D01*
X127338318Y-30435000D01*
X128001952Y-30302994D01*
X128627082Y-30044057D01*
X129189685Y-29668138D01*
X129413000Y-29444823D01*
X129413000Y-80518000D01*
X115276072Y-80518000D01*
X115276072Y-78783000D01*
X115263812Y-78658518D01*
X115227502Y-78538820D01*
X115168537Y-78428506D01*
X115089185Y-78331815D01*
X114992494Y-78252463D01*
X114882180Y-78193498D01*
X114762482Y-78157188D01*
X114638000Y-78144928D01*
X112438000Y-78144928D01*
X112313518Y-78157188D01*
X112193820Y-78193498D01*
X112083506Y-78252463D01*
X111986815Y-78331815D01*
X111907463Y-78428506D01*
X111848498Y-78538820D01*
X111812188Y-78658518D01*
X111799928Y-78783000D01*
X111799928Y-80518000D01*
X107532925Y-80518000D01*
X107586325Y-80389081D01*
X107653000Y-80053883D01*
X107653000Y-79712117D01*
X107586325Y-79376919D01*
X107455537Y-79061169D01*
X107265663Y-78777002D01*
X107023998Y-78535337D01*
X106739831Y-78345463D01*
X106424081Y-78214675D01*
X106088883Y-78148000D01*
X105747117Y-78148000D01*
X105411919Y-78214675D01*
X105096169Y-78345463D01*
X104812002Y-78535337D01*
X104570337Y-78777002D01*
X104380463Y-79061169D01*
X104249675Y-79376919D01*
X104183000Y-79712117D01*
X104183000Y-80053883D01*
X104249675Y-80389081D01*
X104303075Y-80518000D01*
X97242072Y-80518000D01*
X97242072Y-78783000D01*
X97229812Y-78658518D01*
X97193502Y-78538820D01*
X97134537Y-78428506D01*
X97055185Y-78331815D01*
X96958494Y-78252463D01*
X96848180Y-78193498D01*
X96728482Y-78157188D01*
X96604000Y-78144928D01*
X94404000Y-78144928D01*
X94279518Y-78157188D01*
X94159820Y-78193498D01*
X94049506Y-78252463D01*
X93952815Y-78331815D01*
X93873463Y-78428506D01*
X93814498Y-78538820D01*
X93778188Y-78658518D01*
X93765928Y-78783000D01*
X93765928Y-80518000D01*
X89498925Y-80518000D01*
X89552325Y-80389081D01*
X89619000Y-80053883D01*
X89619000Y-79712117D01*
X89552325Y-79376919D01*
X89421537Y-79061169D01*
X89231663Y-78777002D01*
X88989998Y-78535337D01*
X88705831Y-78345463D01*
X88390081Y-78214675D01*
X88054883Y-78148000D01*
X87713117Y-78148000D01*
X87377919Y-78214675D01*
X87062169Y-78345463D01*
X86778002Y-78535337D01*
X86536337Y-78777002D01*
X86346463Y-79061169D01*
X86215675Y-79376919D01*
X86149000Y-79712117D01*
X86149000Y-80053883D01*
X86215675Y-80389081D01*
X86269075Y-80518000D01*
X79335072Y-80518000D01*
X79335072Y-78783000D01*
X79322812Y-78658518D01*
X79286502Y-78538820D01*
X79227537Y-78428506D01*
X79148185Y-78331815D01*
X79051494Y-78252463D01*
X78941180Y-78193498D01*
X78821482Y-78157188D01*
X78697000Y-78144928D01*
X76497000Y-78144928D01*
X76372518Y-78157188D01*
X76252820Y-78193498D01*
X76142506Y-78252463D01*
X76045815Y-78331815D01*
X75966463Y-78428506D01*
X75907498Y-78538820D01*
X75871188Y-78658518D01*
X75858928Y-78783000D01*
X75858928Y-80518000D01*
X71591925Y-80518000D01*
X71645325Y-80389081D01*
X71712000Y-80053883D01*
X71712000Y-79712117D01*
X71645325Y-79376919D01*
X71514537Y-79061169D01*
X71324663Y-78777002D01*
X71082998Y-78535337D01*
X70798831Y-78345463D01*
X70483081Y-78214675D01*
X70147883Y-78148000D01*
X69806117Y-78148000D01*
X69470919Y-78214675D01*
X69155169Y-78345463D01*
X68871002Y-78535337D01*
X68629337Y-78777002D01*
X68439463Y-79061169D01*
X68308675Y-79376919D01*
X68242000Y-79712117D01*
X68242000Y-80053883D01*
X68308675Y-80389081D01*
X68362075Y-80518000D01*
X42291000Y-80518000D01*
X42291000Y-76312665D01*
X68542000Y-76312665D01*
X68542000Y-76595335D01*
X68597147Y-76872574D01*
X68705320Y-77133727D01*
X68862363Y-77368759D01*
X69062241Y-77568637D01*
X69297273Y-77725680D01*
X69558426Y-77833853D01*
X69835665Y-77889000D01*
X70118335Y-77889000D01*
X70395574Y-77833853D01*
X70656727Y-77725680D01*
X70891759Y-77568637D01*
X71091637Y-77368759D01*
X71248680Y-77133727D01*
X71356853Y-76872574D01*
X71412000Y-76595335D01*
X71412000Y-76312665D01*
X76162000Y-76312665D01*
X76162000Y-76595335D01*
X76217147Y-76872574D01*
X76325320Y-77133727D01*
X76482363Y-77368759D01*
X76682241Y-77568637D01*
X76917273Y-77725680D01*
X77178426Y-77833853D01*
X77455665Y-77889000D01*
X77738335Y-77889000D01*
X78015574Y-77833853D01*
X78276727Y-77725680D01*
X78279241Y-77724000D01*
X81286388Y-77724000D01*
X81308785Y-77951400D01*
X81375115Y-78170060D01*
X81476105Y-78359000D01*
X81375115Y-78547940D01*
X81308785Y-78766600D01*
X81286388Y-78994000D01*
X81308785Y-79221400D01*
X81375115Y-79440060D01*
X81482829Y-79641579D01*
X81627788Y-79818212D01*
X81804421Y-79963171D01*
X82005940Y-80070885D01*
X82224600Y-80137215D01*
X82395021Y-80154000D01*
X82958979Y-80154000D01*
X83129400Y-80137215D01*
X83348060Y-80070885D01*
X83549579Y-79963171D01*
X83726212Y-79818212D01*
X83871171Y-79641579D01*
X83978885Y-79440060D01*
X84045215Y-79221400D01*
X84067612Y-78994000D01*
X84045215Y-78766600D01*
X83978885Y-78547940D01*
X83877895Y-78359000D01*
X83978885Y-78170060D01*
X84045215Y-77951400D01*
X84067612Y-77724000D01*
X84045215Y-77496600D01*
X83981907Y-77287902D01*
X84016502Y-77223180D01*
X84052812Y-77103482D01*
X84065072Y-76979000D01*
X84062000Y-76739750D01*
X83903250Y-76581000D01*
X83130109Y-76581000D01*
X83129400Y-76580785D01*
X82958979Y-76564000D01*
X82395021Y-76564000D01*
X82224600Y-76580785D01*
X82223891Y-76581000D01*
X81450750Y-76581000D01*
X81292000Y-76739750D01*
X81288928Y-76979000D01*
X81301188Y-77103482D01*
X81337498Y-77223180D01*
X81372093Y-77287902D01*
X81308785Y-77496600D01*
X81286388Y-77724000D01*
X78279241Y-77724000D01*
X78511759Y-77568637D01*
X78711637Y-77368759D01*
X78868680Y-77133727D01*
X78976853Y-76872574D01*
X79032000Y-76595335D01*
X79032000Y-76312665D01*
X78976853Y-76035426D01*
X78932770Y-75929000D01*
X81288928Y-75929000D01*
X81292000Y-76168250D01*
X81450750Y-76327000D01*
X82550000Y-76327000D01*
X82550000Y-75452750D01*
X82804000Y-75452750D01*
X82804000Y-76327000D01*
X83903250Y-76327000D01*
X83917585Y-76312665D01*
X86449000Y-76312665D01*
X86449000Y-76595335D01*
X86504147Y-76872574D01*
X86612320Y-77133727D01*
X86769363Y-77368759D01*
X86969241Y-77568637D01*
X87204273Y-77725680D01*
X87465426Y-77833853D01*
X87742665Y-77889000D01*
X88025335Y-77889000D01*
X88302574Y-77833853D01*
X88563727Y-77725680D01*
X88798759Y-77568637D01*
X88998637Y-77368759D01*
X89155680Y-77133727D01*
X89263853Y-76872574D01*
X89319000Y-76595335D01*
X89319000Y-76312665D01*
X94069000Y-76312665D01*
X94069000Y-76595335D01*
X94124147Y-76872574D01*
X94232320Y-77133727D01*
X94389363Y-77368759D01*
X94589241Y-77568637D01*
X94824273Y-77725680D01*
X95085426Y-77833853D01*
X95362665Y-77889000D01*
X95645335Y-77889000D01*
X95922574Y-77833853D01*
X96183727Y-77725680D01*
X96186241Y-77724000D01*
X99447388Y-77724000D01*
X99469785Y-77951400D01*
X99536115Y-78170060D01*
X99637105Y-78359000D01*
X99536115Y-78547940D01*
X99469785Y-78766600D01*
X99447388Y-78994000D01*
X99469785Y-79221400D01*
X99536115Y-79440060D01*
X99643829Y-79641579D01*
X99788788Y-79818212D01*
X99965421Y-79963171D01*
X100166940Y-80070885D01*
X100385600Y-80137215D01*
X100556021Y-80154000D01*
X101119979Y-80154000D01*
X101290400Y-80137215D01*
X101509060Y-80070885D01*
X101710579Y-79963171D01*
X101887212Y-79818212D01*
X102032171Y-79641579D01*
X102139885Y-79440060D01*
X102206215Y-79221400D01*
X102228612Y-78994000D01*
X102206215Y-78766600D01*
X102139885Y-78547940D01*
X102038895Y-78359000D01*
X102139885Y-78170060D01*
X102206215Y-77951400D01*
X102228612Y-77724000D01*
X102206215Y-77496600D01*
X102142907Y-77287902D01*
X102177502Y-77223180D01*
X102213812Y-77103482D01*
X102226072Y-76979000D01*
X102223000Y-76739750D01*
X102064250Y-76581000D01*
X101291109Y-76581000D01*
X101290400Y-76580785D01*
X101119979Y-76564000D01*
X100556021Y-76564000D01*
X100385600Y-76580785D01*
X100384891Y-76581000D01*
X99611750Y-76581000D01*
X99453000Y-76739750D01*
X99449928Y-76979000D01*
X99462188Y-77103482D01*
X99498498Y-77223180D01*
X99533093Y-77287902D01*
X99469785Y-77496600D01*
X99447388Y-77724000D01*
X96186241Y-77724000D01*
X96418759Y-77568637D01*
X96618637Y-77368759D01*
X96775680Y-77133727D01*
X96883853Y-76872574D01*
X96939000Y-76595335D01*
X96939000Y-76312665D01*
X96883853Y-76035426D01*
X96839770Y-75929000D01*
X99449928Y-75929000D01*
X99453000Y-76168250D01*
X99611750Y-76327000D01*
X100711000Y-76327000D01*
X100711000Y-75452750D01*
X100965000Y-75452750D01*
X100965000Y-76327000D01*
X102064250Y-76327000D01*
X102078585Y-76312665D01*
X104483000Y-76312665D01*
X104483000Y-76595335D01*
X104538147Y-76872574D01*
X104646320Y-77133727D01*
X104803363Y-77368759D01*
X105003241Y-77568637D01*
X105238273Y-77725680D01*
X105499426Y-77833853D01*
X105776665Y-77889000D01*
X106059335Y-77889000D01*
X106336574Y-77833853D01*
X106597727Y-77725680D01*
X106832759Y-77568637D01*
X107032637Y-77368759D01*
X107189680Y-77133727D01*
X107297853Y-76872574D01*
X107353000Y-76595335D01*
X107353000Y-76312665D01*
X112103000Y-76312665D01*
X112103000Y-76595335D01*
X112158147Y-76872574D01*
X112266320Y-77133727D01*
X112423363Y-77368759D01*
X112623241Y-77568637D01*
X112858273Y-77725680D01*
X113119426Y-77833853D01*
X113396665Y-77889000D01*
X113679335Y-77889000D01*
X113956574Y-77833853D01*
X114217727Y-77725680D01*
X114220241Y-77724000D01*
X117608388Y-77724000D01*
X117630785Y-77951400D01*
X117697115Y-78170060D01*
X117798105Y-78359000D01*
X117697115Y-78547940D01*
X117630785Y-78766600D01*
X117608388Y-78994000D01*
X117630785Y-79221400D01*
X117697115Y-79440060D01*
X117804829Y-79641579D01*
X117949788Y-79818212D01*
X118126421Y-79963171D01*
X118327940Y-80070885D01*
X118546600Y-80137215D01*
X118717021Y-80154000D01*
X119280979Y-80154000D01*
X119451400Y-80137215D01*
X119670060Y-80070885D01*
X119871579Y-79963171D01*
X120048212Y-79818212D01*
X120193171Y-79641579D01*
X120300885Y-79440060D01*
X120367215Y-79221400D01*
X120389612Y-78994000D01*
X120367215Y-78766600D01*
X120300885Y-78547940D01*
X120199895Y-78359000D01*
X120300885Y-78170060D01*
X120367215Y-77951400D01*
X120389612Y-77724000D01*
X120367215Y-77496600D01*
X120303907Y-77287902D01*
X120338502Y-77223180D01*
X120374812Y-77103482D01*
X120387072Y-76979000D01*
X120384000Y-76739750D01*
X120225250Y-76581000D01*
X119452109Y-76581000D01*
X119451400Y-76580785D01*
X119280979Y-76564000D01*
X118717021Y-76564000D01*
X118546600Y-76580785D01*
X118545891Y-76581000D01*
X117772750Y-76581000D01*
X117614000Y-76739750D01*
X117610928Y-76979000D01*
X117623188Y-77103482D01*
X117659498Y-77223180D01*
X117694093Y-77287902D01*
X117630785Y-77496600D01*
X117608388Y-77724000D01*
X114220241Y-77724000D01*
X114452759Y-77568637D01*
X114652637Y-77368759D01*
X114809680Y-77133727D01*
X114917853Y-76872574D01*
X114973000Y-76595335D01*
X114973000Y-76312665D01*
X114917853Y-76035426D01*
X114873770Y-75929000D01*
X117610928Y-75929000D01*
X117614000Y-76168250D01*
X117772750Y-76327000D01*
X118872000Y-76327000D01*
X118872000Y-75452750D01*
X119126000Y-75452750D01*
X119126000Y-76327000D01*
X120225250Y-76327000D01*
X120384000Y-76168250D01*
X120387072Y-75929000D01*
X120374812Y-75804518D01*
X120338502Y-75684820D01*
X120279537Y-75574506D01*
X120200185Y-75477815D01*
X120103494Y-75398463D01*
X119993180Y-75339498D01*
X119873482Y-75303188D01*
X119749000Y-75290928D01*
X119284750Y-75294000D01*
X119126000Y-75452750D01*
X118872000Y-75452750D01*
X118713250Y-75294000D01*
X118249000Y-75290928D01*
X118124518Y-75303188D01*
X118004820Y-75339498D01*
X117894506Y-75398463D01*
X117797815Y-75477815D01*
X117718463Y-75574506D01*
X117659498Y-75684820D01*
X117623188Y-75804518D01*
X117610928Y-75929000D01*
X114873770Y-75929000D01*
X114809680Y-75774273D01*
X114652637Y-75539241D01*
X114452759Y-75339363D01*
X114217727Y-75182320D01*
X113956574Y-75074147D01*
X113679335Y-75019000D01*
X113396665Y-75019000D01*
X113119426Y-75074147D01*
X112858273Y-75182320D01*
X112623241Y-75339363D01*
X112423363Y-75539241D01*
X112266320Y-75774273D01*
X112158147Y-76035426D01*
X112103000Y-76312665D01*
X107353000Y-76312665D01*
X107297853Y-76035426D01*
X107189680Y-75774273D01*
X107032637Y-75539241D01*
X106832759Y-75339363D01*
X106597727Y-75182320D01*
X106336574Y-75074147D01*
X106059335Y-75019000D01*
X105776665Y-75019000D01*
X105499426Y-75074147D01*
X105238273Y-75182320D01*
X105003241Y-75339363D01*
X104803363Y-75539241D01*
X104646320Y-75774273D01*
X104538147Y-76035426D01*
X104483000Y-76312665D01*
X102078585Y-76312665D01*
X102223000Y-76168250D01*
X102226072Y-75929000D01*
X102213812Y-75804518D01*
X102177502Y-75684820D01*
X102118537Y-75574506D01*
X102039185Y-75477815D01*
X101942494Y-75398463D01*
X101832180Y-75339498D01*
X101712482Y-75303188D01*
X101588000Y-75290928D01*
X101123750Y-75294000D01*
X100965000Y-75452750D01*
X100711000Y-75452750D01*
X100552250Y-75294000D01*
X100088000Y-75290928D01*
X99963518Y-75303188D01*
X99843820Y-75339498D01*
X99733506Y-75398463D01*
X99636815Y-75477815D01*
X99557463Y-75574506D01*
X99498498Y-75684820D01*
X99462188Y-75804518D01*
X99449928Y-75929000D01*
X96839770Y-75929000D01*
X96775680Y-75774273D01*
X96618637Y-75539241D01*
X96418759Y-75339363D01*
X96183727Y-75182320D01*
X95922574Y-75074147D01*
X95645335Y-75019000D01*
X95362665Y-75019000D01*
X95085426Y-75074147D01*
X94824273Y-75182320D01*
X94589241Y-75339363D01*
X94389363Y-75539241D01*
X94232320Y-75774273D01*
X94124147Y-76035426D01*
X94069000Y-76312665D01*
X89319000Y-76312665D01*
X89263853Y-76035426D01*
X89155680Y-75774273D01*
X88998637Y-75539241D01*
X88798759Y-75339363D01*
X88563727Y-75182320D01*
X88302574Y-75074147D01*
X88025335Y-75019000D01*
X87742665Y-75019000D01*
X87465426Y-75074147D01*
X87204273Y-75182320D01*
X86969241Y-75339363D01*
X86769363Y-75539241D01*
X86612320Y-75774273D01*
X86504147Y-76035426D01*
X86449000Y-76312665D01*
X83917585Y-76312665D01*
X84062000Y-76168250D01*
X84065072Y-75929000D01*
X84052812Y-75804518D01*
X84016502Y-75684820D01*
X83957537Y-75574506D01*
X83878185Y-75477815D01*
X83781494Y-75398463D01*
X83671180Y-75339498D01*
X83551482Y-75303188D01*
X83427000Y-75290928D01*
X82962750Y-75294000D01*
X82804000Y-75452750D01*
X82550000Y-75452750D01*
X82391250Y-75294000D01*
X81927000Y-75290928D01*
X81802518Y-75303188D01*
X81682820Y-75339498D01*
X81572506Y-75398463D01*
X81475815Y-75477815D01*
X81396463Y-75574506D01*
X81337498Y-75684820D01*
X81301188Y-75804518D01*
X81288928Y-75929000D01*
X78932770Y-75929000D01*
X78868680Y-75774273D01*
X78711637Y-75539241D01*
X78511759Y-75339363D01*
X78276727Y-75182320D01*
X78015574Y-75074147D01*
X77738335Y-75019000D01*
X77455665Y-75019000D01*
X77178426Y-75074147D01*
X76917273Y-75182320D01*
X76682241Y-75339363D01*
X76482363Y-75539241D01*
X76325320Y-75774273D01*
X76217147Y-76035426D01*
X76162000Y-76312665D01*
X71412000Y-76312665D01*
X71356853Y-76035426D01*
X71248680Y-75774273D01*
X71091637Y-75539241D01*
X70891759Y-75339363D01*
X70656727Y-75182320D01*
X70395574Y-75074147D01*
X70118335Y-75019000D01*
X69835665Y-75019000D01*
X69558426Y-75074147D01*
X69297273Y-75182320D01*
X69062241Y-75339363D01*
X68862363Y-75539241D01*
X68705320Y-75774273D01*
X68597147Y-76035426D01*
X68542000Y-76312665D01*
X42291000Y-76312665D01*
X42291000Y-72048816D01*
X68315000Y-72048816D01*
X68315000Y-72351184D01*
X68373989Y-72647743D01*
X68489701Y-72927095D01*
X68657688Y-73178505D01*
X68871495Y-73392312D01*
X69122905Y-73560299D01*
X69402257Y-73676011D01*
X69698816Y-73735000D01*
X70001184Y-73735000D01*
X70297743Y-73676011D01*
X70577095Y-73560299D01*
X70828505Y-73392312D01*
X70894944Y-73325873D01*
X70900498Y-73344180D01*
X70959463Y-73454494D01*
X71038815Y-73551185D01*
X71135506Y-73630537D01*
X71245820Y-73689502D01*
X71365518Y-73725812D01*
X71490000Y-73738072D01*
X73290000Y-73738072D01*
X73414482Y-73725812D01*
X73534180Y-73689502D01*
X73644494Y-73630537D01*
X73741185Y-73551185D01*
X73820537Y-73454494D01*
X73879502Y-73344180D01*
X73915812Y-73224482D01*
X73928072Y-73100000D01*
X73928072Y-73093371D01*
X73942363Y-73114759D01*
X74142241Y-73314637D01*
X74377273Y-73471680D01*
X74638426Y-73579853D01*
X74915665Y-73635000D01*
X75198335Y-73635000D01*
X75475574Y-73579853D01*
X75736727Y-73471680D01*
X75971759Y-73314637D01*
X76171637Y-73114759D01*
X76328680Y-72879727D01*
X76436853Y-72618574D01*
X76492000Y-72341335D01*
X76492000Y-72058665D01*
X81242000Y-72058665D01*
X81242000Y-72341335D01*
X81297147Y-72618574D01*
X81405320Y-72879727D01*
X81562363Y-73114759D01*
X81762241Y-73314637D01*
X81997273Y-73471680D01*
X82258426Y-73579853D01*
X82535665Y-73635000D01*
X82818335Y-73635000D01*
X83095574Y-73579853D01*
X83356727Y-73471680D01*
X83591759Y-73314637D01*
X83791637Y-73114759D01*
X83948680Y-72879727D01*
X84056853Y-72618574D01*
X84112000Y-72341335D01*
X84112000Y-72058665D01*
X84110041Y-72048816D01*
X86476000Y-72048816D01*
X86476000Y-72351184D01*
X86534989Y-72647743D01*
X86650701Y-72927095D01*
X86818688Y-73178505D01*
X87032495Y-73392312D01*
X87283905Y-73560299D01*
X87563257Y-73676011D01*
X87859816Y-73735000D01*
X88162184Y-73735000D01*
X88458743Y-73676011D01*
X88738095Y-73560299D01*
X88989505Y-73392312D01*
X89055944Y-73325873D01*
X89061498Y-73344180D01*
X89120463Y-73454494D01*
X89199815Y-73551185D01*
X89296506Y-73630537D01*
X89406820Y-73689502D01*
X89526518Y-73725812D01*
X89651000Y-73738072D01*
X91451000Y-73738072D01*
X91575482Y-73725812D01*
X91695180Y-73689502D01*
X91805494Y-73630537D01*
X91902185Y-73551185D01*
X91981537Y-73454494D01*
X92040502Y-73344180D01*
X92076812Y-73224482D01*
X92089072Y-73100000D01*
X92089072Y-73093371D01*
X92103363Y-73114759D01*
X92303241Y-73314637D01*
X92538273Y-73471680D01*
X92799426Y-73579853D01*
X93076665Y-73635000D01*
X93359335Y-73635000D01*
X93636574Y-73579853D01*
X93897727Y-73471680D01*
X94132759Y-73314637D01*
X94332637Y-73114759D01*
X94489680Y-72879727D01*
X94597853Y-72618574D01*
X94653000Y-72341335D01*
X94653000Y-72058665D01*
X99403000Y-72058665D01*
X99403000Y-72341335D01*
X99458147Y-72618574D01*
X99566320Y-72879727D01*
X99723363Y-73114759D01*
X99923241Y-73314637D01*
X100158273Y-73471680D01*
X100419426Y-73579853D01*
X100696665Y-73635000D01*
X100979335Y-73635000D01*
X101256574Y-73579853D01*
X101517727Y-73471680D01*
X101752759Y-73314637D01*
X101952637Y-73114759D01*
X102109680Y-72879727D01*
X102217853Y-72618574D01*
X102273000Y-72341335D01*
X102273000Y-72058665D01*
X102271041Y-72048816D01*
X104383000Y-72048816D01*
X104383000Y-72351184D01*
X104441989Y-72647743D01*
X104557701Y-72927095D01*
X104725688Y-73178505D01*
X104939495Y-73392312D01*
X105190905Y-73560299D01*
X105470257Y-73676011D01*
X105766816Y-73735000D01*
X106069184Y-73735000D01*
X106365743Y-73676011D01*
X106645095Y-73560299D01*
X106896505Y-73392312D01*
X106962944Y-73325873D01*
X106968498Y-73344180D01*
X107027463Y-73454494D01*
X107106815Y-73551185D01*
X107203506Y-73630537D01*
X107313820Y-73689502D01*
X107433518Y-73725812D01*
X107558000Y-73738072D01*
X109358000Y-73738072D01*
X109482482Y-73725812D01*
X109602180Y-73689502D01*
X109712494Y-73630537D01*
X109809185Y-73551185D01*
X109888537Y-73454494D01*
X109947502Y-73344180D01*
X109983812Y-73224482D01*
X109996072Y-73100000D01*
X109996072Y-72603115D01*
X109999147Y-72618574D01*
X110107320Y-72879727D01*
X110264363Y-73114759D01*
X110464241Y-73314637D01*
X110699273Y-73471680D01*
X110960426Y-73579853D01*
X111237665Y-73635000D01*
X111520335Y-73635000D01*
X111797574Y-73579853D01*
X112058727Y-73471680D01*
X112293759Y-73314637D01*
X112493637Y-73114759D01*
X112650680Y-72879727D01*
X112758853Y-72618574D01*
X112814000Y-72341335D01*
X112814000Y-72058665D01*
X117564000Y-72058665D01*
X117564000Y-72341335D01*
X117619147Y-72618574D01*
X117727320Y-72879727D01*
X117884363Y-73114759D01*
X118084241Y-73314637D01*
X118319273Y-73471680D01*
X118580426Y-73579853D01*
X118857665Y-73635000D01*
X119140335Y-73635000D01*
X119417574Y-73579853D01*
X119678727Y-73471680D01*
X119913759Y-73314637D01*
X120113637Y-73114759D01*
X120270680Y-72879727D01*
X120378853Y-72618574D01*
X120434000Y-72341335D01*
X120434000Y-72058665D01*
X120378853Y-71781426D01*
X120270680Y-71520273D01*
X120113637Y-71285241D01*
X119913759Y-71085363D01*
X119678727Y-70928320D01*
X119417574Y-70820147D01*
X119140335Y-70765000D01*
X118857665Y-70765000D01*
X118580426Y-70820147D01*
X118319273Y-70928320D01*
X118084241Y-71085363D01*
X117884363Y-71285241D01*
X117727320Y-71520273D01*
X117619147Y-71781426D01*
X117564000Y-72058665D01*
X112814000Y-72058665D01*
X112758853Y-71781426D01*
X112650680Y-71520273D01*
X112493637Y-71285241D01*
X112293759Y-71085363D01*
X112058727Y-70928320D01*
X111797574Y-70820147D01*
X111520335Y-70765000D01*
X111237665Y-70765000D01*
X110960426Y-70820147D01*
X110699273Y-70928320D01*
X110464241Y-71085363D01*
X110264363Y-71285241D01*
X110107320Y-71520273D01*
X109999147Y-71781426D01*
X109996072Y-71796885D01*
X109996072Y-71300000D01*
X109983812Y-71175518D01*
X109947502Y-71055820D01*
X109888537Y-70945506D01*
X109809185Y-70848815D01*
X109712494Y-70769463D01*
X109602180Y-70710498D01*
X109482482Y-70674188D01*
X109358000Y-70661928D01*
X107558000Y-70661928D01*
X107433518Y-70674188D01*
X107313820Y-70710498D01*
X107203506Y-70769463D01*
X107106815Y-70848815D01*
X107027463Y-70945506D01*
X106968498Y-71055820D01*
X106962944Y-71074127D01*
X106896505Y-71007688D01*
X106645095Y-70839701D01*
X106365743Y-70723989D01*
X106069184Y-70665000D01*
X105766816Y-70665000D01*
X105470257Y-70723989D01*
X105190905Y-70839701D01*
X104939495Y-71007688D01*
X104725688Y-71221495D01*
X104557701Y-71472905D01*
X104441989Y-71752257D01*
X104383000Y-72048816D01*
X102271041Y-72048816D01*
X102217853Y-71781426D01*
X102109680Y-71520273D01*
X101952637Y-71285241D01*
X101752759Y-71085363D01*
X101517727Y-70928320D01*
X101256574Y-70820147D01*
X100979335Y-70765000D01*
X100696665Y-70765000D01*
X100419426Y-70820147D01*
X100158273Y-70928320D01*
X99923241Y-71085363D01*
X99723363Y-71285241D01*
X99566320Y-71520273D01*
X99458147Y-71781426D01*
X99403000Y-72058665D01*
X94653000Y-72058665D01*
X94597853Y-71781426D01*
X94489680Y-71520273D01*
X94332637Y-71285241D01*
X94132759Y-71085363D01*
X93897727Y-70928320D01*
X93636574Y-70820147D01*
X93359335Y-70765000D01*
X93076665Y-70765000D01*
X92799426Y-70820147D01*
X92538273Y-70928320D01*
X92303241Y-71085363D01*
X92103363Y-71285241D01*
X92089072Y-71306629D01*
X92089072Y-71300000D01*
X92076812Y-71175518D01*
X92040502Y-71055820D01*
X91981537Y-70945506D01*
X91902185Y-70848815D01*
X91805494Y-70769463D01*
X91695180Y-70710498D01*
X91575482Y-70674188D01*
X91451000Y-70661928D01*
X89651000Y-70661928D01*
X89526518Y-70674188D01*
X89406820Y-70710498D01*
X89296506Y-70769463D01*
X89199815Y-70848815D01*
X89120463Y-70945506D01*
X89061498Y-71055820D01*
X89055944Y-71074127D01*
X88989505Y-71007688D01*
X88738095Y-70839701D01*
X88458743Y-70723989D01*
X88162184Y-70665000D01*
X87859816Y-70665000D01*
X87563257Y-70723989D01*
X87283905Y-70839701D01*
X87032495Y-71007688D01*
X86818688Y-71221495D01*
X86650701Y-71472905D01*
X86534989Y-71752257D01*
X86476000Y-72048816D01*
X84110041Y-72048816D01*
X84056853Y-71781426D01*
X83948680Y-71520273D01*
X83791637Y-71285241D01*
X83591759Y-71085363D01*
X83356727Y-70928320D01*
X83095574Y-70820147D01*
X82818335Y-70765000D01*
X82535665Y-70765000D01*
X82258426Y-70820147D01*
X81997273Y-70928320D01*
X81762241Y-71085363D01*
X81562363Y-71285241D01*
X81405320Y-71520273D01*
X81297147Y-71781426D01*
X81242000Y-72058665D01*
X76492000Y-72058665D01*
X76436853Y-71781426D01*
X76328680Y-71520273D01*
X76171637Y-71285241D01*
X75971759Y-71085363D01*
X75736727Y-70928320D01*
X75475574Y-70820147D01*
X75198335Y-70765000D01*
X74915665Y-70765000D01*
X74638426Y-70820147D01*
X74377273Y-70928320D01*
X74142241Y-71085363D01*
X73942363Y-71285241D01*
X73928072Y-71306629D01*
X73928072Y-71300000D01*
X73915812Y-71175518D01*
X73879502Y-71055820D01*
X73820537Y-70945506D01*
X73741185Y-70848815D01*
X73644494Y-70769463D01*
X73534180Y-70710498D01*
X73414482Y-70674188D01*
X73290000Y-70661928D01*
X71490000Y-70661928D01*
X71365518Y-70674188D01*
X71245820Y-70710498D01*
X71135506Y-70769463D01*
X71038815Y-70848815D01*
X70959463Y-70945506D01*
X70900498Y-71055820D01*
X70894944Y-71074127D01*
X70828505Y-71007688D01*
X70577095Y-70839701D01*
X70297743Y-70723989D01*
X70001184Y-70665000D01*
X69698816Y-70665000D01*
X69402257Y-70723989D01*
X69122905Y-70839701D01*
X68871495Y-71007688D01*
X68657688Y-71221495D01*
X68489701Y-71472905D01*
X68373989Y-71752257D01*
X68315000Y-72048816D01*
X42291000Y-72048816D01*
X42291000Y-63080000D01*
X46771928Y-63080000D01*
X46784188Y-63204482D01*
X46820498Y-63324180D01*
X46879463Y-63434494D01*
X46958815Y-63531185D01*
X47055506Y-63610537D01*
X47165820Y-63669502D01*
X47285518Y-63705812D01*
X47410000Y-63718072D01*
X47974250Y-63715000D01*
X48133000Y-63556250D01*
X48133000Y-62357000D01*
X48387000Y-62357000D01*
X48387000Y-63556250D01*
X48545750Y-63715000D01*
X49110000Y-63718072D01*
X49234482Y-63705812D01*
X49354180Y-63669502D01*
X49464494Y-63610537D01*
X49561185Y-63531185D01*
X49640537Y-63434494D01*
X49699502Y-63324180D01*
X49735812Y-63204482D01*
X49748072Y-63080000D01*
X49745000Y-62515750D01*
X49586250Y-62357000D01*
X48387000Y-62357000D01*
X48133000Y-62357000D01*
X46933750Y-62357000D01*
X46775000Y-62515750D01*
X46771928Y-63080000D01*
X42291000Y-63080000D01*
X42291000Y-61380000D01*
X46771928Y-61380000D01*
X46775000Y-61944250D01*
X46933750Y-62103000D01*
X48133000Y-62103000D01*
X48133000Y-62083000D01*
X48387000Y-62083000D01*
X48387000Y-62103000D01*
X49586250Y-62103000D01*
X49745000Y-61944250D01*
X49748072Y-61380000D01*
X49735812Y-61255518D01*
X49699502Y-61135820D01*
X49640537Y-61025506D01*
X49561185Y-60928815D01*
X49464494Y-60849463D01*
X49354180Y-60790498D01*
X49281620Y-60768487D01*
X49325107Y-60725000D01*
X52276290Y-60725000D01*
X56877000Y-65325711D01*
X56877001Y-66244892D01*
X56758525Y-66363368D01*
X56642000Y-66537760D01*
X56525475Y-66363368D01*
X56318632Y-66156525D01*
X56075411Y-65994010D01*
X55805158Y-65882068D01*
X55518260Y-65825000D01*
X55225740Y-65825000D01*
X54938842Y-65882068D01*
X54668589Y-65994010D01*
X54425368Y-66156525D01*
X54218525Y-66363368D01*
X54102000Y-66537760D01*
X53985475Y-66363368D01*
X53778632Y-66156525D01*
X53535411Y-65994010D01*
X53265158Y-65882068D01*
X52978260Y-65825000D01*
X52685740Y-65825000D01*
X52398842Y-65882068D01*
X52128589Y-65994010D01*
X51885368Y-66156525D01*
X51678525Y-66363368D01*
X51516010Y-66606589D01*
X51404068Y-66876842D01*
X51347000Y-67163740D01*
X51347000Y-67456260D01*
X51404068Y-67743158D01*
X51516010Y-68013411D01*
X51678525Y-68256632D01*
X51885368Y-68463475D01*
X52128589Y-68625990D01*
X52398842Y-68737932D01*
X52685740Y-68795000D01*
X52978260Y-68795000D01*
X53265158Y-68737932D01*
X53535411Y-68625990D01*
X53778632Y-68463475D01*
X53985475Y-68256632D01*
X54102000Y-68082240D01*
X54218525Y-68256632D01*
X54425368Y-68463475D01*
X54668589Y-68625990D01*
X54938842Y-68737932D01*
X55225740Y-68795000D01*
X55518260Y-68795000D01*
X55805158Y-68737932D01*
X56075411Y-68625990D01*
X56318632Y-68463475D01*
X56525475Y-68256632D01*
X56642000Y-68082240D01*
X56758525Y-68256632D01*
X56965368Y-68463475D01*
X57208589Y-68625990D01*
X57478842Y-68737932D01*
X57765740Y-68795000D01*
X58058260Y-68795000D01*
X58345158Y-68737932D01*
X58615411Y-68625990D01*
X58858632Y-68463475D01*
X58990487Y-68331620D01*
X59012498Y-68404180D01*
X59071463Y-68514494D01*
X59150815Y-68611185D01*
X59247506Y-68690537D01*
X59357820Y-68749502D01*
X59477518Y-68785812D01*
X59602000Y-68798072D01*
X60166250Y-68795000D01*
X60325000Y-68636250D01*
X60325000Y-67437000D01*
X60579000Y-67437000D01*
X60579000Y-68636250D01*
X60737750Y-68795000D01*
X61302000Y-68798072D01*
X61426482Y-68785812D01*
X61546180Y-68749502D01*
X61656494Y-68690537D01*
X61753185Y-68611185D01*
X61832537Y-68514494D01*
X61891502Y-68404180D01*
X61927812Y-68284482D01*
X61940072Y-68160000D01*
X61937000Y-67595750D01*
X61778250Y-67437000D01*
X60579000Y-67437000D01*
X60325000Y-67437000D01*
X60305000Y-67437000D01*
X60305000Y-67183000D01*
X60325000Y-67183000D01*
X60325000Y-65983750D01*
X60579000Y-65983750D01*
X60579000Y-67183000D01*
X61778250Y-67183000D01*
X61937000Y-67024250D01*
X61940072Y-66460000D01*
X61927812Y-66335518D01*
X61891502Y-66215820D01*
X61855112Y-66147740D01*
X78485000Y-66147740D01*
X78485000Y-66440260D01*
X78542068Y-66727158D01*
X78654010Y-66997411D01*
X78816525Y-67240632D01*
X79023368Y-67447475D01*
X79266589Y-67609990D01*
X79536842Y-67721932D01*
X79823740Y-67779000D01*
X80116260Y-67779000D01*
X80403158Y-67721932D01*
X80673411Y-67609990D01*
X80916632Y-67447475D01*
X81123475Y-67240632D01*
X81240000Y-67066240D01*
X81356525Y-67240632D01*
X81563368Y-67447475D01*
X81806589Y-67609990D01*
X82076842Y-67721932D01*
X82363740Y-67779000D01*
X82656260Y-67779000D01*
X82943158Y-67721932D01*
X83213411Y-67609990D01*
X83456632Y-67447475D01*
X83663475Y-67240632D01*
X83780000Y-67066240D01*
X83896525Y-67240632D01*
X84103368Y-67447475D01*
X84346589Y-67609990D01*
X84616842Y-67721932D01*
X84903740Y-67779000D01*
X85196260Y-67779000D01*
X85483158Y-67721932D01*
X85753411Y-67609990D01*
X85996632Y-67447475D01*
X86203475Y-67240632D01*
X86320000Y-67066240D01*
X86436525Y-67240632D01*
X86643368Y-67447475D01*
X86886589Y-67609990D01*
X87156842Y-67721932D01*
X87443740Y-67779000D01*
X87736260Y-67779000D01*
X88023158Y-67721932D01*
X88293411Y-67609990D01*
X88536632Y-67447475D01*
X88743475Y-67240632D01*
X88860000Y-67066240D01*
X88976525Y-67240632D01*
X89183368Y-67447475D01*
X89426589Y-67609990D01*
X89696842Y-67721932D01*
X89983740Y-67779000D01*
X90276260Y-67779000D01*
X90563158Y-67721932D01*
X90833411Y-67609990D01*
X91076632Y-67447475D01*
X91283475Y-67240632D01*
X91400000Y-67066240D01*
X91516525Y-67240632D01*
X91723368Y-67447475D01*
X91966589Y-67609990D01*
X92236842Y-67721932D01*
X92523740Y-67779000D01*
X92816260Y-67779000D01*
X93103158Y-67721932D01*
X93373411Y-67609990D01*
X93616632Y-67447475D01*
X93823475Y-67240632D01*
X93940000Y-67066240D01*
X94056525Y-67240632D01*
X94263368Y-67447475D01*
X94506589Y-67609990D01*
X94776842Y-67721932D01*
X95063740Y-67779000D01*
X95356260Y-67779000D01*
X95643158Y-67721932D01*
X95913411Y-67609990D01*
X96156632Y-67447475D01*
X96363475Y-67240632D01*
X96480000Y-67066240D01*
X96596525Y-67240632D01*
X96803368Y-67447475D01*
X97046589Y-67609990D01*
X97316842Y-67721932D01*
X97603740Y-67779000D01*
X97896260Y-67779000D01*
X98183158Y-67721932D01*
X98453411Y-67609990D01*
X98696632Y-67447475D01*
X98903475Y-67240632D01*
X99020000Y-67066240D01*
X99136525Y-67240632D01*
X99343368Y-67447475D01*
X99586589Y-67609990D01*
X99856842Y-67721932D01*
X100143740Y-67779000D01*
X100436260Y-67779000D01*
X100723158Y-67721932D01*
X100993411Y-67609990D01*
X101236632Y-67447475D01*
X101443475Y-67240632D01*
X101560000Y-67066240D01*
X101676525Y-67240632D01*
X101883368Y-67447475D01*
X102126589Y-67609990D01*
X102396842Y-67721932D01*
X102683740Y-67779000D01*
X102976260Y-67779000D01*
X103263158Y-67721932D01*
X103533411Y-67609990D01*
X103776632Y-67447475D01*
X103983475Y-67240632D01*
X104100000Y-67066240D01*
X104216525Y-67240632D01*
X104423368Y-67447475D01*
X104666589Y-67609990D01*
X104936842Y-67721932D01*
X105223740Y-67779000D01*
X105516260Y-67779000D01*
X105803158Y-67721932D01*
X106073411Y-67609990D01*
X106316632Y-67447475D01*
X106523475Y-67240632D01*
X106640000Y-67066240D01*
X106756525Y-67240632D01*
X106963368Y-67447475D01*
X107206589Y-67609990D01*
X107476842Y-67721932D01*
X107763740Y-67779000D01*
X108056260Y-67779000D01*
X108343158Y-67721932D01*
X108613411Y-67609990D01*
X108856632Y-67447475D01*
X109063475Y-67240632D01*
X109180000Y-67066240D01*
X109296525Y-67240632D01*
X109503368Y-67447475D01*
X109746589Y-67609990D01*
X110016842Y-67721932D01*
X110303740Y-67779000D01*
X110596260Y-67779000D01*
X110883158Y-67721932D01*
X111153411Y-67609990D01*
X111396632Y-67447475D01*
X111603475Y-67240632D01*
X111720000Y-67066240D01*
X111836525Y-67240632D01*
X112043368Y-67447475D01*
X112286589Y-67609990D01*
X112556842Y-67721932D01*
X112843740Y-67779000D01*
X113136260Y-67779000D01*
X113423158Y-67721932D01*
X113693411Y-67609990D01*
X113936632Y-67447475D01*
X114143475Y-67240632D01*
X114260000Y-67066240D01*
X114376525Y-67240632D01*
X114583368Y-67447475D01*
X114826589Y-67609990D01*
X115096842Y-67721932D01*
X115383740Y-67779000D01*
X115676260Y-67779000D01*
X115963158Y-67721932D01*
X116233411Y-67609990D01*
X116476632Y-67447475D01*
X116683475Y-67240632D01*
X116800000Y-67066240D01*
X116916525Y-67240632D01*
X117123368Y-67447475D01*
X117366589Y-67609990D01*
X117636842Y-67721932D01*
X117923740Y-67779000D01*
X118216260Y-67779000D01*
X118503158Y-67721932D01*
X118773411Y-67609990D01*
X119016632Y-67447475D01*
X119223475Y-67240632D01*
X119340000Y-67066240D01*
X119456525Y-67240632D01*
X119663368Y-67447475D01*
X119906589Y-67609990D01*
X120176842Y-67721932D01*
X120463740Y-67779000D01*
X120756260Y-67779000D01*
X121043158Y-67721932D01*
X121313411Y-67609990D01*
X121556632Y-67447475D01*
X121763475Y-67240632D01*
X121880000Y-67066240D01*
X121996525Y-67240632D01*
X122203368Y-67447475D01*
X122446589Y-67609990D01*
X122716842Y-67721932D01*
X123003740Y-67779000D01*
X123296260Y-67779000D01*
X123583158Y-67721932D01*
X123853411Y-67609990D01*
X124096632Y-67447475D01*
X124228487Y-67315620D01*
X124250498Y-67388180D01*
X124309463Y-67498494D01*
X124388815Y-67595185D01*
X124485506Y-67674537D01*
X124595820Y-67733502D01*
X124715518Y-67769812D01*
X124840000Y-67782072D01*
X126540000Y-67782072D01*
X126664482Y-67769812D01*
X126784180Y-67733502D01*
X126894494Y-67674537D01*
X126991185Y-67595185D01*
X127070537Y-67498494D01*
X127129502Y-67388180D01*
X127165812Y-67268482D01*
X127178072Y-67144000D01*
X127178072Y-65444000D01*
X127165812Y-65319518D01*
X127129502Y-65199820D01*
X127070537Y-65089506D01*
X126991185Y-64992815D01*
X126894494Y-64913463D01*
X126784180Y-64854498D01*
X126664482Y-64818188D01*
X126540000Y-64805928D01*
X124840000Y-64805928D01*
X124715518Y-64818188D01*
X124595820Y-64854498D01*
X124485506Y-64913463D01*
X124388815Y-64992815D01*
X124309463Y-65089506D01*
X124250498Y-65199820D01*
X124228487Y-65272380D01*
X124096632Y-65140525D01*
X123853411Y-64978010D01*
X123583158Y-64866068D01*
X123296260Y-64809000D01*
X123003740Y-64809000D01*
X122716842Y-64866068D01*
X122446589Y-64978010D01*
X122203368Y-65140525D01*
X121996525Y-65347368D01*
X121880000Y-65521760D01*
X121763475Y-65347368D01*
X121556632Y-65140525D01*
X121313411Y-64978010D01*
X121043158Y-64866068D01*
X120756260Y-64809000D01*
X120463740Y-64809000D01*
X120176842Y-64866068D01*
X119906589Y-64978010D01*
X119663368Y-65140525D01*
X119456525Y-65347368D01*
X119340000Y-65521760D01*
X119223475Y-65347368D01*
X119016632Y-65140525D01*
X118773411Y-64978010D01*
X118503158Y-64866068D01*
X118216260Y-64809000D01*
X117923740Y-64809000D01*
X117636842Y-64866068D01*
X117366589Y-64978010D01*
X117123368Y-65140525D01*
X116916525Y-65347368D01*
X116800000Y-65521760D01*
X116683475Y-65347368D01*
X116476632Y-65140525D01*
X116233411Y-64978010D01*
X115963158Y-64866068D01*
X115676260Y-64809000D01*
X115383740Y-64809000D01*
X115096842Y-64866068D01*
X114826589Y-64978010D01*
X114583368Y-65140525D01*
X114376525Y-65347368D01*
X114260000Y-65521760D01*
X114143475Y-65347368D01*
X113936632Y-65140525D01*
X113693411Y-64978010D01*
X113423158Y-64866068D01*
X113136260Y-64809000D01*
X112843740Y-64809000D01*
X112556842Y-64866068D01*
X112286589Y-64978010D01*
X112043368Y-65140525D01*
X111836525Y-65347368D01*
X111720000Y-65521760D01*
X111603475Y-65347368D01*
X111396632Y-65140525D01*
X111153411Y-64978010D01*
X110883158Y-64866068D01*
X110596260Y-64809000D01*
X110303740Y-64809000D01*
X110016842Y-64866068D01*
X109746589Y-64978010D01*
X109503368Y-65140525D01*
X109296525Y-65347368D01*
X109180000Y-65521760D01*
X109063475Y-65347368D01*
X108856632Y-65140525D01*
X108613411Y-64978010D01*
X108343158Y-64866068D01*
X108056260Y-64809000D01*
X107763740Y-64809000D01*
X107476842Y-64866068D01*
X107206589Y-64978010D01*
X106963368Y-65140525D01*
X106756525Y-65347368D01*
X106640000Y-65521760D01*
X106523475Y-65347368D01*
X106316632Y-65140525D01*
X106073411Y-64978010D01*
X105803158Y-64866068D01*
X105516260Y-64809000D01*
X105223740Y-64809000D01*
X104936842Y-64866068D01*
X104666589Y-64978010D01*
X104423368Y-65140525D01*
X104216525Y-65347368D01*
X104100000Y-65521760D01*
X103983475Y-65347368D01*
X103776632Y-65140525D01*
X103533411Y-64978010D01*
X103263158Y-64866068D01*
X102976260Y-64809000D01*
X102683740Y-64809000D01*
X102396842Y-64866068D01*
X102126589Y-64978010D01*
X101883368Y-65140525D01*
X101676525Y-65347368D01*
X101560000Y-65521760D01*
X101443475Y-65347368D01*
X101236632Y-65140525D01*
X100993411Y-64978010D01*
X100723158Y-64866068D01*
X100436260Y-64809000D01*
X100143740Y-64809000D01*
X99856842Y-64866068D01*
X99586589Y-64978010D01*
X99343368Y-65140525D01*
X99136525Y-65347368D01*
X99020000Y-65521760D01*
X98903475Y-65347368D01*
X98696632Y-65140525D01*
X98453411Y-64978010D01*
X98183158Y-64866068D01*
X97896260Y-64809000D01*
X97603740Y-64809000D01*
X97316842Y-64866068D01*
X97046589Y-64978010D01*
X96803368Y-65140525D01*
X96596525Y-65347368D01*
X96480000Y-65521760D01*
X96363475Y-65347368D01*
X96156632Y-65140525D01*
X95913411Y-64978010D01*
X95643158Y-64866068D01*
X95356260Y-64809000D01*
X95063740Y-64809000D01*
X94776842Y-64866068D01*
X94506589Y-64978010D01*
X94263368Y-65140525D01*
X94056525Y-65347368D01*
X93940000Y-65521760D01*
X93823475Y-65347368D01*
X93616632Y-65140525D01*
X93373411Y-64978010D01*
X93103158Y-64866068D01*
X92816260Y-64809000D01*
X92523740Y-64809000D01*
X92236842Y-64866068D01*
X91966589Y-64978010D01*
X91723368Y-65140525D01*
X91516525Y-65347368D01*
X91400000Y-65521760D01*
X91283475Y-65347368D01*
X91076632Y-65140525D01*
X90833411Y-64978010D01*
X90563158Y-64866068D01*
X90276260Y-64809000D01*
X89983740Y-64809000D01*
X89696842Y-64866068D01*
X89426589Y-64978010D01*
X89183368Y-65140525D01*
X88976525Y-65347368D01*
X88860000Y-65521760D01*
X88743475Y-65347368D01*
X88536632Y-65140525D01*
X88293411Y-64978010D01*
X88023158Y-64866068D01*
X87736260Y-64809000D01*
X87443740Y-64809000D01*
X87156842Y-64866068D01*
X86886589Y-64978010D01*
X86643368Y-65140525D01*
X86436525Y-65347368D01*
X86320000Y-65521760D01*
X86203475Y-65347368D01*
X85996632Y-65140525D01*
X85753411Y-64978010D01*
X85483158Y-64866068D01*
X85196260Y-64809000D01*
X84903740Y-64809000D01*
X84616842Y-64866068D01*
X84346589Y-64978010D01*
X84103368Y-65140525D01*
X83896525Y-65347368D01*
X83780000Y-65521760D01*
X83663475Y-65347368D01*
X83456632Y-65140525D01*
X83213411Y-64978010D01*
X82943158Y-64866068D01*
X82656260Y-64809000D01*
X82363740Y-64809000D01*
X82076842Y-64866068D01*
X81806589Y-64978010D01*
X81563368Y-65140525D01*
X81356525Y-65347368D01*
X81240000Y-65521760D01*
X81123475Y-65347368D01*
X80916632Y-65140525D01*
X80673411Y-64978010D01*
X80403158Y-64866068D01*
X80116260Y-64809000D01*
X79823740Y-64809000D01*
X79536842Y-64866068D01*
X79266589Y-64978010D01*
X79023368Y-65140525D01*
X78816525Y-65347368D01*
X78654010Y-65590589D01*
X78542068Y-65860842D01*
X78485000Y-66147740D01*
X61855112Y-66147740D01*
X61832537Y-66105506D01*
X61753185Y-66008815D01*
X61656494Y-65929463D01*
X61546180Y-65870498D01*
X61426482Y-65834188D01*
X61302000Y-65821928D01*
X60737750Y-65825000D01*
X60579000Y-65983750D01*
X60325000Y-65983750D01*
X60166250Y-65825000D01*
X59602000Y-65821928D01*
X59477518Y-65834188D01*
X59357820Y-65870498D01*
X59247506Y-65929463D01*
X59150815Y-66008815D01*
X59071463Y-66105506D01*
X59012498Y-66215820D01*
X58990487Y-66288380D01*
X58947000Y-66244893D01*
X58947000Y-64947827D01*
X58952006Y-64896999D01*
X58947000Y-64846171D01*
X58947000Y-64846162D01*
X58932024Y-64694105D01*
X58872841Y-64499007D01*
X58828104Y-64415309D01*
X58776734Y-64319202D01*
X58679803Y-64201092D01*
X58647396Y-64161604D01*
X58607908Y-64129197D01*
X57808963Y-63330253D01*
X57986842Y-63403932D01*
X58273740Y-63461000D01*
X58566260Y-63461000D01*
X58853158Y-63403932D01*
X59123411Y-63291990D01*
X59366632Y-63129475D01*
X59573475Y-62922632D01*
X59690000Y-62748240D01*
X59806525Y-62922632D01*
X60013368Y-63129475D01*
X60256589Y-63291990D01*
X60526842Y-63403932D01*
X60813740Y-63461000D01*
X61106260Y-63461000D01*
X61393158Y-63403932D01*
X61663411Y-63291990D01*
X61906632Y-63129475D01*
X62113475Y-62922632D01*
X62230000Y-62748240D01*
X62346525Y-62922632D01*
X62553368Y-63129475D01*
X62796589Y-63291990D01*
X63066842Y-63403932D01*
X63353740Y-63461000D01*
X63646260Y-63461000D01*
X63933158Y-63403932D01*
X64203411Y-63291990D01*
X64446632Y-63129475D01*
X64578487Y-62997620D01*
X64600498Y-63070180D01*
X64659463Y-63180494D01*
X64738815Y-63277185D01*
X64835506Y-63356537D01*
X64945820Y-63415502D01*
X65065518Y-63451812D01*
X65190000Y-63464072D01*
X65754250Y-63461000D01*
X65913000Y-63302250D01*
X65913000Y-62103000D01*
X66167000Y-62103000D01*
X66167000Y-63302250D01*
X66325750Y-63461000D01*
X66890000Y-63464072D01*
X67014482Y-63451812D01*
X67134180Y-63415502D01*
X67244494Y-63356537D01*
X67341185Y-63277185D01*
X67420537Y-63180494D01*
X67479502Y-63070180D01*
X67515812Y-62950482D01*
X67528072Y-62826000D01*
X67525000Y-62261750D01*
X67366250Y-62103000D01*
X66167000Y-62103000D01*
X65913000Y-62103000D01*
X65893000Y-62103000D01*
X65893000Y-61849000D01*
X65913000Y-61849000D01*
X65913000Y-60649750D01*
X66167000Y-60649750D01*
X66167000Y-61849000D01*
X67366250Y-61849000D01*
X67525000Y-61690250D01*
X67528072Y-61126000D01*
X67515812Y-61001518D01*
X67479502Y-60881820D01*
X67420537Y-60771506D01*
X67341185Y-60674815D01*
X67244494Y-60595463D01*
X67134180Y-60536498D01*
X67014482Y-60500188D01*
X66890000Y-60487928D01*
X66325750Y-60491000D01*
X66167000Y-60649750D01*
X65913000Y-60649750D01*
X65754250Y-60491000D01*
X65190000Y-60487928D01*
X65065518Y-60500188D01*
X64945820Y-60536498D01*
X64835506Y-60595463D01*
X64738815Y-60674815D01*
X64659463Y-60771506D01*
X64600498Y-60881820D01*
X64578487Y-60954380D01*
X64446632Y-60822525D01*
X64203411Y-60660010D01*
X63933158Y-60548068D01*
X63646260Y-60491000D01*
X63353740Y-60491000D01*
X63066842Y-60548068D01*
X62796589Y-60660010D01*
X62553368Y-60822525D01*
X62346525Y-61029368D01*
X62230000Y-61203760D01*
X62113475Y-61029368D01*
X61906632Y-60822525D01*
X61663411Y-60660010D01*
X61393158Y-60548068D01*
X61106260Y-60491000D01*
X60813740Y-60491000D01*
X60526842Y-60548068D01*
X60256589Y-60660010D01*
X60013368Y-60822525D01*
X59806525Y-61029368D01*
X59690000Y-61203760D01*
X59573475Y-61029368D01*
X59366632Y-60822525D01*
X59123411Y-60660010D01*
X58853158Y-60548068D01*
X58566260Y-60491000D01*
X58273740Y-60491000D01*
X57986842Y-60548068D01*
X57716589Y-60660010D01*
X57473368Y-60822525D01*
X57266525Y-61029368D01*
X57104010Y-61272589D01*
X56992068Y-61542842D01*
X56935000Y-61829740D01*
X56935000Y-62122260D01*
X56992068Y-62409158D01*
X57065748Y-62587037D01*
X53472807Y-58994097D01*
X53440396Y-58954604D01*
X53282797Y-58825266D01*
X53102993Y-58729159D01*
X52907895Y-58669976D01*
X52755838Y-58655000D01*
X52755828Y-58655000D01*
X52705000Y-58649994D01*
X52654172Y-58655000D01*
X49325107Y-58655000D01*
X49206632Y-58536525D01*
X49032240Y-58420000D01*
X49206632Y-58303475D01*
X49413475Y-58096632D01*
X49575990Y-57853411D01*
X49687932Y-57583158D01*
X49745000Y-57296260D01*
X49745000Y-57128710D01*
X50847711Y-56026000D01*
X57443893Y-56026000D01*
X57266525Y-56203368D01*
X57104010Y-56446589D01*
X56992068Y-56716842D01*
X56935000Y-57003740D01*
X56935000Y-57296260D01*
X56992068Y-57583158D01*
X57104010Y-57853411D01*
X57266525Y-58096632D01*
X57473368Y-58303475D01*
X57716589Y-58465990D01*
X57986842Y-58577932D01*
X58273740Y-58635000D01*
X58566260Y-58635000D01*
X58853158Y-58577932D01*
X59123411Y-58465990D01*
X59366632Y-58303475D01*
X59573475Y-58096632D01*
X59690000Y-57922240D01*
X59806525Y-58096632D01*
X60013368Y-58303475D01*
X60256589Y-58465990D01*
X60526842Y-58577932D01*
X60813740Y-58635000D01*
X61106260Y-58635000D01*
X61393158Y-58577932D01*
X61663411Y-58465990D01*
X61906632Y-58303475D01*
X62113475Y-58096632D01*
X62230000Y-57922240D01*
X62346525Y-58096632D01*
X62553368Y-58303475D01*
X62796589Y-58465990D01*
X63066842Y-58577932D01*
X63353740Y-58635000D01*
X63646260Y-58635000D01*
X63933158Y-58577932D01*
X64203411Y-58465990D01*
X64446632Y-58303475D01*
X64578487Y-58171620D01*
X64600498Y-58244180D01*
X64659463Y-58354494D01*
X64738815Y-58451185D01*
X64835506Y-58530537D01*
X64945820Y-58589502D01*
X65065518Y-58625812D01*
X65190000Y-58638072D01*
X65754250Y-58635000D01*
X65913000Y-58476250D01*
X65913000Y-57277000D01*
X66167000Y-57277000D01*
X66167000Y-58476250D01*
X66325750Y-58635000D01*
X66890000Y-58638072D01*
X67014482Y-58625812D01*
X67134180Y-58589502D01*
X67244494Y-58530537D01*
X67341185Y-58451185D01*
X67420537Y-58354494D01*
X67479502Y-58244180D01*
X67515812Y-58124482D01*
X67528072Y-58000000D01*
X67525000Y-57435750D01*
X67366250Y-57277000D01*
X66167000Y-57277000D01*
X65913000Y-57277000D01*
X65893000Y-57277000D01*
X65893000Y-57023000D01*
X65913000Y-57023000D01*
X65913000Y-55823750D01*
X66167000Y-55823750D01*
X66167000Y-57023000D01*
X67366250Y-57023000D01*
X67525000Y-56864250D01*
X67528072Y-56300000D01*
X67515812Y-56175518D01*
X67479502Y-56055820D01*
X67420537Y-55945506D01*
X67341185Y-55848815D01*
X67244494Y-55769463D01*
X67134180Y-55710498D01*
X67014482Y-55674188D01*
X66890000Y-55661928D01*
X66325750Y-55665000D01*
X66167000Y-55823750D01*
X65913000Y-55823750D01*
X65754250Y-55665000D01*
X65190000Y-55661928D01*
X65065518Y-55674188D01*
X64945820Y-55710498D01*
X64835506Y-55769463D01*
X64738815Y-55848815D01*
X64659463Y-55945506D01*
X64600498Y-56055820D01*
X64578487Y-56128380D01*
X64446632Y-55996525D01*
X64203411Y-55834010D01*
X63933158Y-55722068D01*
X63646260Y-55665000D01*
X63478711Y-55665000D01*
X62108807Y-54295097D01*
X62076396Y-54255604D01*
X61918797Y-54126266D01*
X61738993Y-54030159D01*
X61543895Y-53970976D01*
X61391838Y-53956000D01*
X61391828Y-53956000D01*
X61341000Y-53950994D01*
X61290172Y-53956000D01*
X50469827Y-53956000D01*
X50418999Y-53950994D01*
X50368171Y-53956000D01*
X50368162Y-53956000D01*
X50216105Y-53970976D01*
X50021007Y-54030159D01*
X49937309Y-54074896D01*
X49841202Y-54126266D01*
X49723092Y-54223197D01*
X49683604Y-54255604D01*
X49651197Y-54295092D01*
X48281290Y-55665000D01*
X48113740Y-55665000D01*
X47826842Y-55722068D01*
X47556589Y-55834010D01*
X47313368Y-55996525D01*
X47106525Y-56203368D01*
X46944010Y-56446589D01*
X46832068Y-56716842D01*
X46775000Y-57003740D01*
X46775000Y-57296260D01*
X46832068Y-57583158D01*
X46944010Y-57853411D01*
X47106525Y-58096632D01*
X47313368Y-58303475D01*
X47487760Y-58420000D01*
X47313368Y-58536525D01*
X47106525Y-58743368D01*
X46944010Y-58986589D01*
X46832068Y-59256842D01*
X46775000Y-59543740D01*
X46775000Y-59836260D01*
X46832068Y-60123158D01*
X46944010Y-60393411D01*
X47106525Y-60636632D01*
X47238380Y-60768487D01*
X47165820Y-60790498D01*
X47055506Y-60849463D01*
X46958815Y-60928815D01*
X46879463Y-61025506D01*
X46820498Y-61135820D01*
X46784188Y-61255518D01*
X46771928Y-61380000D01*
X42291000Y-61380000D01*
X42291000Y-51928665D01*
X43777000Y-51928665D01*
X43777000Y-52211335D01*
X43832147Y-52488574D01*
X43940320Y-52749727D01*
X44097363Y-52984759D01*
X44297241Y-53184637D01*
X44532273Y-53341680D01*
X44793426Y-53449853D01*
X45070665Y-53505000D01*
X45353335Y-53505000D01*
X45630574Y-53449853D01*
X45891727Y-53341680D01*
X46126759Y-53184637D01*
X46248694Y-53062702D01*
X49398903Y-53062702D01*
X49470486Y-53306671D01*
X49725996Y-53427571D01*
X50000184Y-53496300D01*
X50282512Y-53510217D01*
X50562130Y-53468787D01*
X50828292Y-53373603D01*
X50953514Y-53306671D01*
X51025097Y-53062702D01*
X50212000Y-52249605D01*
X49398903Y-53062702D01*
X46248694Y-53062702D01*
X46326637Y-52984759D01*
X46483680Y-52749727D01*
X46591853Y-52488574D01*
X46647000Y-52211335D01*
X46647000Y-52140512D01*
X48771783Y-52140512D01*
X48813213Y-52420130D01*
X48908397Y-52686292D01*
X48975329Y-52811514D01*
X49219298Y-52883097D01*
X50032395Y-52070000D01*
X50391605Y-52070000D01*
X51204702Y-52883097D01*
X51448671Y-52811514D01*
X51569571Y-52556004D01*
X51638300Y-52281816D01*
X51652217Y-51999488D01*
X51610787Y-51719870D01*
X51590222Y-51662363D01*
X55585000Y-51662363D01*
X55585000Y-51905637D01*
X55632460Y-52144236D01*
X55725557Y-52368992D01*
X55860713Y-52571267D01*
X56032733Y-52743287D01*
X56235008Y-52878443D01*
X56459764Y-52971540D01*
X56698363Y-53019000D01*
X56941637Y-53019000D01*
X57180236Y-52971540D01*
X57404992Y-52878443D01*
X57607267Y-52743287D01*
X57779287Y-52571267D01*
X57914443Y-52368992D01*
X58007540Y-52144236D01*
X58055000Y-51905637D01*
X58055000Y-51662363D01*
X58007540Y-51423764D01*
X57996484Y-51397072D01*
X59020000Y-51397072D01*
X59193254Y-51380008D01*
X59359850Y-51329472D01*
X59513386Y-51247405D01*
X59647962Y-51136962D01*
X59758405Y-51002386D01*
X59812777Y-50900663D01*
X59864866Y-50964134D01*
X60090987Y-51149706D01*
X60348967Y-51287599D01*
X60628890Y-51372513D01*
X60920000Y-51401185D01*
X61211111Y-51372513D01*
X61491034Y-51287599D01*
X61749014Y-51149706D01*
X61975134Y-50964134D01*
X62160706Y-50738014D01*
X62170000Y-50720626D01*
X62179294Y-50738014D01*
X62364866Y-50964134D01*
X62590987Y-51149706D01*
X62848967Y-51287599D01*
X63128890Y-51372513D01*
X63420000Y-51401185D01*
X63711111Y-51372513D01*
X63991034Y-51287599D01*
X64249014Y-51149706D01*
X64475134Y-50964134D01*
X64660706Y-50738014D01*
X64674462Y-50712278D01*
X64830951Y-50918429D01*
X65048807Y-51111496D01*
X65300142Y-51258352D01*
X65563110Y-51350476D01*
X65793000Y-51229155D01*
X65793000Y-49911000D01*
X66047000Y-49911000D01*
X66047000Y-51229155D01*
X66276890Y-51350476D01*
X66539858Y-51258352D01*
X66791193Y-51111496D01*
X67009049Y-50918429D01*
X67185053Y-50686570D01*
X67312442Y-50424830D01*
X67386320Y-50143267D01*
X67246165Y-49911000D01*
X66047000Y-49911000D01*
X65793000Y-49911000D01*
X65773000Y-49911000D01*
X65773000Y-49657000D01*
X65793000Y-49657000D01*
X65793000Y-48338845D01*
X66047000Y-48338845D01*
X66047000Y-49657000D01*
X67246165Y-49657000D01*
X67386320Y-49424733D01*
X67312442Y-49143170D01*
X67185053Y-48881430D01*
X67009049Y-48649571D01*
X66791193Y-48456504D01*
X66539858Y-48309648D01*
X66276890Y-48217524D01*
X66047000Y-48338845D01*
X65793000Y-48338845D01*
X65563110Y-48217524D01*
X65300142Y-48309648D01*
X65048807Y-48456504D01*
X64830951Y-48649571D01*
X64674462Y-48855722D01*
X64660706Y-48829986D01*
X64475134Y-48603866D01*
X64249013Y-48418294D01*
X63991033Y-48280401D01*
X63711110Y-48195487D01*
X63420000Y-48166815D01*
X63128889Y-48195487D01*
X62848966Y-48280401D01*
X62590986Y-48418294D01*
X62364866Y-48603866D01*
X62179294Y-48829987D01*
X62170000Y-48847374D01*
X62160706Y-48829986D01*
X61975134Y-48603866D01*
X61749013Y-48418294D01*
X61491033Y-48280401D01*
X61211110Y-48195487D01*
X60920000Y-48166815D01*
X60628889Y-48195487D01*
X60348966Y-48280401D01*
X60090986Y-48418294D01*
X59864866Y-48603866D01*
X59812777Y-48667337D01*
X59758405Y-48565614D01*
X59647962Y-48431038D01*
X59513386Y-48320595D01*
X59359850Y-48238528D01*
X59193254Y-48187992D01*
X59020000Y-48170928D01*
X57820000Y-48170928D01*
X57646746Y-48187992D01*
X57480150Y-48238528D01*
X57326614Y-48320595D01*
X57192038Y-48431038D01*
X57081595Y-48565614D01*
X56999528Y-48719150D01*
X56948992Y-48885746D01*
X56931928Y-49059000D01*
X56931928Y-50509000D01*
X56935868Y-50549000D01*
X56698363Y-50549000D01*
X56459764Y-50596460D01*
X56235008Y-50689557D01*
X56032733Y-50824713D01*
X55860713Y-50996733D01*
X55725557Y-51199008D01*
X55632460Y-51423764D01*
X55585000Y-51662363D01*
X51590222Y-51662363D01*
X51515603Y-51453708D01*
X51448671Y-51328486D01*
X51204702Y-51256903D01*
X50391605Y-52070000D01*
X50032395Y-52070000D01*
X49219298Y-51256903D01*
X48975329Y-51328486D01*
X48854429Y-51583996D01*
X48785700Y-51858184D01*
X48771783Y-52140512D01*
X46647000Y-52140512D01*
X46647000Y-51928665D01*
X46591853Y-51651426D01*
X46483680Y-51390273D01*
X46326637Y-51155241D01*
X46248694Y-51077298D01*
X49398903Y-51077298D01*
X50212000Y-51890395D01*
X51025097Y-51077298D01*
X50953514Y-50833329D01*
X50698004Y-50712429D01*
X50423816Y-50643700D01*
X50141488Y-50629783D01*
X49861870Y-50671213D01*
X49595708Y-50766397D01*
X49470486Y-50833329D01*
X49398903Y-51077298D01*
X46248694Y-51077298D01*
X46126759Y-50955363D01*
X45891727Y-50798320D01*
X45630574Y-50690147D01*
X45353335Y-50635000D01*
X45070665Y-50635000D01*
X44793426Y-50690147D01*
X44532273Y-50798320D01*
X44297241Y-50955363D01*
X44097363Y-51155241D01*
X43940320Y-51390273D01*
X43832147Y-51651426D01*
X43777000Y-51928665D01*
X42291000Y-51928665D01*
X42291000Y-43840061D01*
X51289000Y-43840061D01*
X51289000Y-44043939D01*
X51328774Y-44243898D01*
X51406795Y-44432256D01*
X51520063Y-44601774D01*
X51664226Y-44745937D01*
X51833744Y-44859205D01*
X52022102Y-44937226D01*
X52222061Y-44977000D01*
X52425939Y-44977000D01*
X52625898Y-44937226D01*
X52814256Y-44859205D01*
X52937285Y-44777000D01*
X53742715Y-44777000D01*
X53865744Y-44859205D01*
X54054102Y-44937226D01*
X54254061Y-44977000D01*
X54457939Y-44977000D01*
X54657898Y-44937226D01*
X54846256Y-44859205D01*
X55015774Y-44745937D01*
X55159937Y-44601774D01*
X55273205Y-44432256D01*
X55351226Y-44243898D01*
X55391000Y-44043939D01*
X55391000Y-43840061D01*
X55351226Y-43640102D01*
X55273205Y-43451744D01*
X55159937Y-43282226D01*
X55043376Y-43165665D01*
X66383000Y-43165665D01*
X66383000Y-43448335D01*
X66438147Y-43725574D01*
X66546320Y-43986727D01*
X66703363Y-44221759D01*
X66903241Y-44421637D01*
X67138273Y-44578680D01*
X67399426Y-44686853D01*
X67676665Y-44742000D01*
X67959335Y-44742000D01*
X68236574Y-44686853D01*
X68497727Y-44578680D01*
X68732759Y-44421637D01*
X68932637Y-44221759D01*
X69089680Y-43986727D01*
X69197853Y-43725574D01*
X69253000Y-43448335D01*
X69253000Y-43165665D01*
X74003000Y-43165665D01*
X74003000Y-43448335D01*
X74058147Y-43725574D01*
X74166320Y-43986727D01*
X74323363Y-44221759D01*
X74523241Y-44421637D01*
X74758273Y-44578680D01*
X75019426Y-44686853D01*
X75296665Y-44742000D01*
X75579335Y-44742000D01*
X75856574Y-44686853D01*
X76117727Y-44578680D01*
X76352759Y-44421637D01*
X76552637Y-44221759D01*
X76709680Y-43986727D01*
X76817853Y-43725574D01*
X76873000Y-43448335D01*
X76873000Y-43165665D01*
X76817853Y-42888426D01*
X76709680Y-42627273D01*
X76552637Y-42392241D01*
X76352759Y-42192363D01*
X76117727Y-42035320D01*
X75856574Y-41927147D01*
X75579335Y-41872000D01*
X75296665Y-41872000D01*
X75019426Y-41927147D01*
X74758273Y-42035320D01*
X74523241Y-42192363D01*
X74323363Y-42392241D01*
X74166320Y-42627273D01*
X74058147Y-42888426D01*
X74003000Y-43165665D01*
X69253000Y-43165665D01*
X69197853Y-42888426D01*
X69089680Y-42627273D01*
X68932637Y-42392241D01*
X68732759Y-42192363D01*
X68497727Y-42035320D01*
X68236574Y-41927147D01*
X67959335Y-41872000D01*
X67676665Y-41872000D01*
X67399426Y-41927147D01*
X67138273Y-42035320D01*
X66903241Y-42192363D01*
X66703363Y-42392241D01*
X66546320Y-42627273D01*
X66438147Y-42888426D01*
X66383000Y-43165665D01*
X55043376Y-43165665D01*
X55015774Y-43138063D01*
X54846256Y-43024795D01*
X54657898Y-42946774D01*
X54457939Y-42907000D01*
X54254061Y-42907000D01*
X54054102Y-42946774D01*
X53865744Y-43024795D01*
X53742715Y-43107000D01*
X52937285Y-43107000D01*
X52814256Y-43024795D01*
X52625898Y-42946774D01*
X52425939Y-42907000D01*
X52222061Y-42907000D01*
X52022102Y-42946774D01*
X51833744Y-43024795D01*
X51664226Y-43138063D01*
X51520063Y-43282226D01*
X51406795Y-43451744D01*
X51328774Y-43640102D01*
X51289000Y-43840061D01*
X42291000Y-43840061D01*
X42291000Y-41250891D01*
X78528519Y-41250891D01*
X78625843Y-41525252D01*
X78774822Y-41775355D01*
X78969731Y-41991588D01*
X79203080Y-42165641D01*
X79465901Y-42290825D01*
X79613110Y-42335476D01*
X79843000Y-42214155D01*
X79843000Y-41021000D01*
X78649186Y-41021000D01*
X78528519Y-41250891D01*
X42291000Y-41250891D01*
X42291000Y-40537109D01*
X78528519Y-40537109D01*
X78649186Y-40767000D01*
X79843000Y-40767000D01*
X79843000Y-39573845D01*
X80097000Y-39573845D01*
X80097000Y-40767000D01*
X80117000Y-40767000D01*
X80117000Y-41021000D01*
X80097000Y-41021000D01*
X80097000Y-42214155D01*
X80326890Y-42335476D01*
X80474099Y-42290825D01*
X80736920Y-42165641D01*
X80970269Y-41991588D01*
X81165178Y-41775355D01*
X81234805Y-41658466D01*
X81356525Y-41840632D01*
X81563368Y-42047475D01*
X81806589Y-42209990D01*
X82076842Y-42321932D01*
X82363740Y-42379000D01*
X82656260Y-42379000D01*
X82943158Y-42321932D01*
X83213411Y-42209990D01*
X83456632Y-42047475D01*
X83663475Y-41840632D01*
X83780000Y-41666240D01*
X83896525Y-41840632D01*
X84103368Y-42047475D01*
X84346589Y-42209990D01*
X84616842Y-42321932D01*
X84903740Y-42379000D01*
X85196260Y-42379000D01*
X85483158Y-42321932D01*
X85753411Y-42209990D01*
X85996632Y-42047475D01*
X86203475Y-41840632D01*
X86320000Y-41666240D01*
X86436525Y-41840632D01*
X86643368Y-42047475D01*
X86886589Y-42209990D01*
X87156842Y-42321932D01*
X87443740Y-42379000D01*
X87736260Y-42379000D01*
X88023158Y-42321932D01*
X88293411Y-42209990D01*
X88536632Y-42047475D01*
X88743475Y-41840632D01*
X88860000Y-41666240D01*
X88976525Y-41840632D01*
X89183368Y-42047475D01*
X89426589Y-42209990D01*
X89696842Y-42321932D01*
X89983740Y-42379000D01*
X90276260Y-42379000D01*
X90563158Y-42321932D01*
X90833411Y-42209990D01*
X91076632Y-42047475D01*
X91283475Y-41840632D01*
X91400000Y-41666240D01*
X91516525Y-41840632D01*
X91723368Y-42047475D01*
X91966589Y-42209990D01*
X92236842Y-42321932D01*
X92523740Y-42379000D01*
X92816260Y-42379000D01*
X93103158Y-42321932D01*
X93373411Y-42209990D01*
X93616632Y-42047475D01*
X93823475Y-41840632D01*
X93945195Y-41658466D01*
X94014822Y-41775355D01*
X94209731Y-41991588D01*
X94443080Y-42165641D01*
X94705901Y-42290825D01*
X94853110Y-42335476D01*
X95083000Y-42214155D01*
X95083000Y-41021000D01*
X95063000Y-41021000D01*
X95063000Y-40767000D01*
X95083000Y-40767000D01*
X95083000Y-39573845D01*
X95337000Y-39573845D01*
X95337000Y-40767000D01*
X95357000Y-40767000D01*
X95357000Y-41021000D01*
X95337000Y-41021000D01*
X95337000Y-42214155D01*
X95566890Y-42335476D01*
X95714099Y-42290825D01*
X95976920Y-42165641D01*
X96210269Y-41991588D01*
X96405178Y-41775355D01*
X96474805Y-41658466D01*
X96596525Y-41840632D01*
X96803368Y-42047475D01*
X97046589Y-42209990D01*
X97316842Y-42321932D01*
X97603740Y-42379000D01*
X97896260Y-42379000D01*
X98183158Y-42321932D01*
X98453411Y-42209990D01*
X98696632Y-42047475D01*
X98903475Y-41840632D01*
X99020000Y-41666240D01*
X99136525Y-41840632D01*
X99343368Y-42047475D01*
X99586589Y-42209990D01*
X99856842Y-42321932D01*
X100143740Y-42379000D01*
X100436260Y-42379000D01*
X100723158Y-42321932D01*
X100993411Y-42209990D01*
X101236632Y-42047475D01*
X101443475Y-41840632D01*
X101560000Y-41666240D01*
X101676525Y-41840632D01*
X101883368Y-42047475D01*
X102126589Y-42209990D01*
X102396842Y-42321932D01*
X102683740Y-42379000D01*
X102976260Y-42379000D01*
X103263158Y-42321932D01*
X103533411Y-42209990D01*
X103776632Y-42047475D01*
X103983475Y-41840632D01*
X104100000Y-41666240D01*
X104216525Y-41840632D01*
X104423368Y-42047475D01*
X104666589Y-42209990D01*
X104936842Y-42321932D01*
X105223740Y-42379000D01*
X105516260Y-42379000D01*
X105803158Y-42321932D01*
X106073411Y-42209990D01*
X106316632Y-42047475D01*
X106523475Y-41840632D01*
X106640000Y-41666240D01*
X106756525Y-41840632D01*
X106963368Y-42047475D01*
X107206589Y-42209990D01*
X107476842Y-42321932D01*
X107763740Y-42379000D01*
X108056260Y-42379000D01*
X108343158Y-42321932D01*
X108613411Y-42209990D01*
X108856632Y-42047475D01*
X109063475Y-41840632D01*
X109180000Y-41666240D01*
X109296525Y-41840632D01*
X109503368Y-42047475D01*
X109746589Y-42209990D01*
X110016842Y-42321932D01*
X110303740Y-42379000D01*
X110596260Y-42379000D01*
X110883158Y-42321932D01*
X111153411Y-42209990D01*
X111396632Y-42047475D01*
X111603475Y-41840632D01*
X111720000Y-41666240D01*
X111836525Y-41840632D01*
X112043368Y-42047475D01*
X112286589Y-42209990D01*
X112556842Y-42321932D01*
X112843740Y-42379000D01*
X113136260Y-42379000D01*
X113423158Y-42321932D01*
X113693411Y-42209990D01*
X113936632Y-42047475D01*
X114143475Y-41840632D01*
X114260000Y-41666240D01*
X114376525Y-41840632D01*
X114583368Y-42047475D01*
X114826589Y-42209990D01*
X115096842Y-42321932D01*
X115383740Y-42379000D01*
X115676260Y-42379000D01*
X115963158Y-42321932D01*
X116233411Y-42209990D01*
X116476632Y-42047475D01*
X116683475Y-41840632D01*
X116800000Y-41666240D01*
X116916525Y-41840632D01*
X117123368Y-42047475D01*
X117366589Y-42209990D01*
X117636842Y-42321932D01*
X117923740Y-42379000D01*
X118216260Y-42379000D01*
X118503158Y-42321932D01*
X118773411Y-42209990D01*
X119016632Y-42047475D01*
X119223475Y-41840632D01*
X119340000Y-41666240D01*
X119456525Y-41840632D01*
X119663368Y-42047475D01*
X119906589Y-42209990D01*
X120176842Y-42321932D01*
X120463740Y-42379000D01*
X120756260Y-42379000D01*
X121043158Y-42321932D01*
X121313411Y-42209990D01*
X121556632Y-42047475D01*
X121763475Y-41840632D01*
X121880000Y-41666240D01*
X121996525Y-41840632D01*
X122203368Y-42047475D01*
X122446589Y-42209990D01*
X122716842Y-42321932D01*
X123003740Y-42379000D01*
X123296260Y-42379000D01*
X123583158Y-42321932D01*
X123853411Y-42209990D01*
X124096632Y-42047475D01*
X124228487Y-41915620D01*
X124250498Y-41988180D01*
X124309463Y-42098494D01*
X124388815Y-42195185D01*
X124485506Y-42274537D01*
X124595820Y-42333502D01*
X124715518Y-42369812D01*
X124840000Y-42382072D01*
X126540000Y-42382072D01*
X126664482Y-42369812D01*
X126784180Y-42333502D01*
X126894494Y-42274537D01*
X126991185Y-42195185D01*
X127070537Y-42098494D01*
X127129502Y-41988180D01*
X127165812Y-41868482D01*
X127178072Y-41744000D01*
X127178072Y-40044000D01*
X127165812Y-39919518D01*
X127129502Y-39799820D01*
X127070537Y-39689506D01*
X126991185Y-39592815D01*
X126894494Y-39513463D01*
X126784180Y-39454498D01*
X126664482Y-39418188D01*
X126540000Y-39405928D01*
X124840000Y-39405928D01*
X124715518Y-39418188D01*
X124595820Y-39454498D01*
X124485506Y-39513463D01*
X124388815Y-39592815D01*
X124309463Y-39689506D01*
X124250498Y-39799820D01*
X124228487Y-39872380D01*
X124096632Y-39740525D01*
X123853411Y-39578010D01*
X123583158Y-39466068D01*
X123296260Y-39409000D01*
X123003740Y-39409000D01*
X122716842Y-39466068D01*
X122446589Y-39578010D01*
X122203368Y-39740525D01*
X121996525Y-39947368D01*
X121880000Y-40121760D01*
X121763475Y-39947368D01*
X121556632Y-39740525D01*
X121313411Y-39578010D01*
X121043158Y-39466068D01*
X120756260Y-39409000D01*
X120463740Y-39409000D01*
X120176842Y-39466068D01*
X119906589Y-39578010D01*
X119663368Y-39740525D01*
X119456525Y-39947368D01*
X119340000Y-40121760D01*
X119223475Y-39947368D01*
X119016632Y-39740525D01*
X118773411Y-39578010D01*
X118503158Y-39466068D01*
X118216260Y-39409000D01*
X117923740Y-39409000D01*
X117636842Y-39466068D01*
X117366589Y-39578010D01*
X117123368Y-39740525D01*
X116916525Y-39947368D01*
X116800000Y-40121760D01*
X116683475Y-39947368D01*
X116476632Y-39740525D01*
X116233411Y-39578010D01*
X115963158Y-39466068D01*
X115676260Y-39409000D01*
X115383740Y-39409000D01*
X115096842Y-39466068D01*
X114826589Y-39578010D01*
X114583368Y-39740525D01*
X114376525Y-39947368D01*
X114260000Y-40121760D01*
X114143475Y-39947368D01*
X113936632Y-39740525D01*
X113693411Y-39578010D01*
X113423158Y-39466068D01*
X113136260Y-39409000D01*
X112843740Y-39409000D01*
X112556842Y-39466068D01*
X112286589Y-39578010D01*
X112043368Y-39740525D01*
X111836525Y-39947368D01*
X111720000Y-40121760D01*
X111603475Y-39947368D01*
X111396632Y-39740525D01*
X111153411Y-39578010D01*
X110883158Y-39466068D01*
X110596260Y-39409000D01*
X110303740Y-39409000D01*
X110016842Y-39466068D01*
X109746589Y-39578010D01*
X109503368Y-39740525D01*
X109296525Y-39947368D01*
X109180000Y-40121760D01*
X109063475Y-39947368D01*
X108856632Y-39740525D01*
X108613411Y-39578010D01*
X108343158Y-39466068D01*
X108056260Y-39409000D01*
X107763740Y-39409000D01*
X107476842Y-39466068D01*
X107206589Y-39578010D01*
X106963368Y-39740525D01*
X106756525Y-39947368D01*
X106640000Y-40121760D01*
X106523475Y-39947368D01*
X106316632Y-39740525D01*
X106073411Y-39578010D01*
X105803158Y-39466068D01*
X105516260Y-39409000D01*
X105223740Y-39409000D01*
X104936842Y-39466068D01*
X104666589Y-39578010D01*
X104423368Y-39740525D01*
X104216525Y-39947368D01*
X104100000Y-40121760D01*
X103983475Y-39947368D01*
X103776632Y-39740525D01*
X103533411Y-39578010D01*
X103263158Y-39466068D01*
X102976260Y-39409000D01*
X102683740Y-39409000D01*
X102396842Y-39466068D01*
X102126589Y-39578010D01*
X101883368Y-39740525D01*
X101676525Y-39947368D01*
X101560000Y-40121760D01*
X101443475Y-39947368D01*
X101236632Y-39740525D01*
X100993411Y-39578010D01*
X100723158Y-39466068D01*
X100436260Y-39409000D01*
X100143740Y-39409000D01*
X99856842Y-39466068D01*
X99586589Y-39578010D01*
X99343368Y-39740525D01*
X99136525Y-39947368D01*
X99020000Y-40121760D01*
X98903475Y-39947368D01*
X98696632Y-39740525D01*
X98453411Y-39578010D01*
X98183158Y-39466068D01*
X97896260Y-39409000D01*
X97603740Y-39409000D01*
X97316842Y-39466068D01*
X97046589Y-39578010D01*
X96803368Y-39740525D01*
X96596525Y-39947368D01*
X96474805Y-40129534D01*
X96405178Y-40012645D01*
X96210269Y-39796412D01*
X95976920Y-39622359D01*
X95714099Y-39497175D01*
X95566890Y-39452524D01*
X95337000Y-39573845D01*
X95083000Y-39573845D01*
X94853110Y-39452524D01*
X94705901Y-39497175D01*
X94443080Y-39622359D01*
X94209731Y-39796412D01*
X94014822Y-40012645D01*
X93945195Y-40129534D01*
X93823475Y-39947368D01*
X93616632Y-39740525D01*
X93373411Y-39578010D01*
X93103158Y-39466068D01*
X92816260Y-39409000D01*
X92523740Y-39409000D01*
X92236842Y-39466068D01*
X91966589Y-39578010D01*
X91723368Y-39740525D01*
X91516525Y-39947368D01*
X91400000Y-40121760D01*
X91283475Y-39947368D01*
X91076632Y-39740525D01*
X90833411Y-39578010D01*
X90563158Y-39466068D01*
X90276260Y-39409000D01*
X89983740Y-39409000D01*
X89696842Y-39466068D01*
X89426589Y-39578010D01*
X89183368Y-39740525D01*
X88976525Y-39947368D01*
X88860000Y-40121760D01*
X88743475Y-39947368D01*
X88536632Y-39740525D01*
X88293411Y-39578010D01*
X88023158Y-39466068D01*
X87736260Y-39409000D01*
X87443740Y-39409000D01*
X87156842Y-39466068D01*
X86886589Y-39578010D01*
X86643368Y-39740525D01*
X86436525Y-39947368D01*
X86320000Y-40121760D01*
X86203475Y-39947368D01*
X85996632Y-39740525D01*
X85753411Y-39578010D01*
X85483158Y-39466068D01*
X85196260Y-39409000D01*
X84903740Y-39409000D01*
X84616842Y-39466068D01*
X84346589Y-39578010D01*
X84103368Y-39740525D01*
X83896525Y-39947368D01*
X83780000Y-40121760D01*
X83663475Y-39947368D01*
X83456632Y-39740525D01*
X83213411Y-39578010D01*
X82943158Y-39466068D01*
X82656260Y-39409000D01*
X82363740Y-39409000D01*
X82076842Y-39466068D01*
X81806589Y-39578010D01*
X81563368Y-39740525D01*
X81356525Y-39947368D01*
X81234805Y-40129534D01*
X81165178Y-40012645D01*
X80970269Y-39796412D01*
X80736920Y-39622359D01*
X80474099Y-39497175D01*
X80326890Y-39452524D01*
X80097000Y-39573845D01*
X79843000Y-39573845D01*
X79613110Y-39452524D01*
X79465901Y-39497175D01*
X79203080Y-39622359D01*
X78969731Y-39796412D01*
X78774822Y-40012645D01*
X78625843Y-40262748D01*
X78528519Y-40537109D01*
X42291000Y-40537109D01*
X42291000Y-34021890D01*
X68918524Y-34021890D01*
X69010648Y-34284858D01*
X69157504Y-34536193D01*
X69350571Y-34754049D01*
X69582430Y-34930053D01*
X69844170Y-35057442D01*
X70125733Y-35131320D01*
X70358000Y-34991165D01*
X70358000Y-33792000D01*
X70612000Y-33792000D01*
X70612000Y-34991165D01*
X70844267Y-35131320D01*
X71125830Y-35057442D01*
X71387570Y-34930053D01*
X71619429Y-34754049D01*
X71812496Y-34536193D01*
X71959352Y-34284858D01*
X72051476Y-34021890D01*
X78443524Y-34021890D01*
X78535648Y-34284858D01*
X78682504Y-34536193D01*
X78875571Y-34754049D01*
X79107430Y-34930053D01*
X79369170Y-35057442D01*
X79650733Y-35131320D01*
X79883000Y-34991165D01*
X79883000Y-33792000D01*
X80137000Y-33792000D01*
X80137000Y-34991165D01*
X80369267Y-35131320D01*
X80650830Y-35057442D01*
X80912570Y-34930053D01*
X81144429Y-34754049D01*
X81337496Y-34536193D01*
X81484352Y-34284858D01*
X81576476Y-34021890D01*
X87968524Y-34021890D01*
X88060648Y-34284858D01*
X88207504Y-34536193D01*
X88400571Y-34754049D01*
X88632430Y-34930053D01*
X88894170Y-35057442D01*
X89175733Y-35131320D01*
X89408000Y-34991165D01*
X89408000Y-33792000D01*
X89662000Y-33792000D01*
X89662000Y-34991165D01*
X89894267Y-35131320D01*
X90175830Y-35057442D01*
X90437570Y-34930053D01*
X90669429Y-34754049D01*
X90862496Y-34536193D01*
X91009352Y-34284858D01*
X91101476Y-34021890D01*
X97493524Y-34021890D01*
X97585648Y-34284858D01*
X97732504Y-34536193D01*
X97925571Y-34754049D01*
X98157430Y-34930053D01*
X98419170Y-35057442D01*
X98700733Y-35131320D01*
X98933000Y-34991165D01*
X98933000Y-33792000D01*
X99187000Y-33792000D01*
X99187000Y-34991165D01*
X99419267Y-35131320D01*
X99700830Y-35057442D01*
X99962570Y-34930053D01*
X100194429Y-34754049D01*
X100387496Y-34536193D01*
X100534352Y-34284858D01*
X100626476Y-34021890D01*
X107018524Y-34021890D01*
X107110648Y-34284858D01*
X107257504Y-34536193D01*
X107450571Y-34754049D01*
X107682430Y-34930053D01*
X107944170Y-35057442D01*
X108225733Y-35131320D01*
X108458000Y-34991165D01*
X108458000Y-33792000D01*
X108712000Y-33792000D01*
X108712000Y-34991165D01*
X108944267Y-35131320D01*
X109225830Y-35057442D01*
X109487570Y-34930053D01*
X109719429Y-34754049D01*
X109912496Y-34536193D01*
X110059352Y-34284858D01*
X110151476Y-34021890D01*
X116543524Y-34021890D01*
X116635648Y-34284858D01*
X116782504Y-34536193D01*
X116975571Y-34754049D01*
X117207430Y-34930053D01*
X117469170Y-35057442D01*
X117750733Y-35131320D01*
X117983000Y-34991165D01*
X117983000Y-33792000D01*
X118237000Y-33792000D01*
X118237000Y-34991165D01*
X118469267Y-35131320D01*
X118750830Y-35057442D01*
X119012570Y-34930053D01*
X119244429Y-34754049D01*
X119437496Y-34536193D01*
X119584352Y-34284858D01*
X119676476Y-34021890D01*
X119555155Y-33792000D01*
X118237000Y-33792000D01*
X117983000Y-33792000D01*
X116664845Y-33792000D01*
X116543524Y-34021890D01*
X110151476Y-34021890D01*
X110030155Y-33792000D01*
X108712000Y-33792000D01*
X108458000Y-33792000D01*
X107139845Y-33792000D01*
X107018524Y-34021890D01*
X100626476Y-34021890D01*
X100505155Y-33792000D01*
X99187000Y-33792000D01*
X98933000Y-33792000D01*
X97614845Y-33792000D01*
X97493524Y-34021890D01*
X91101476Y-34021890D01*
X90980155Y-33792000D01*
X89662000Y-33792000D01*
X89408000Y-33792000D01*
X88089845Y-33792000D01*
X87968524Y-34021890D01*
X81576476Y-34021890D01*
X81455155Y-33792000D01*
X80137000Y-33792000D01*
X79883000Y-33792000D01*
X78564845Y-33792000D01*
X78443524Y-34021890D01*
X72051476Y-34021890D01*
X71930155Y-33792000D01*
X70612000Y-33792000D01*
X70358000Y-33792000D01*
X69039845Y-33792000D01*
X68918524Y-34021890D01*
X42291000Y-34021890D01*
X42291000Y-29128531D01*
X42331862Y-29189685D01*
X42810315Y-29668138D01*
X43372918Y-30044057D01*
X43998048Y-30302994D01*
X44661682Y-30435000D01*
X45338318Y-30435000D01*
X46001952Y-30302994D01*
X46627082Y-30044057D01*
X47189685Y-29668138D01*
X47668138Y-29189685D01*
X48044057Y-28627082D01*
X48302994Y-28001952D01*
X48435000Y-27338318D01*
X48435000Y-26943363D01*
X67250000Y-26943363D01*
X67250000Y-27186637D01*
X67297460Y-27425236D01*
X67390557Y-27649992D01*
X67525713Y-27852267D01*
X67697733Y-28024287D01*
X67900008Y-28159443D01*
X68124764Y-28252540D01*
X68363363Y-28300000D01*
X68606637Y-28300000D01*
X68845236Y-28252540D01*
X68871928Y-28241484D01*
X68871928Y-29265000D01*
X68888992Y-29438254D01*
X68939528Y-29604850D01*
X69021595Y-29758386D01*
X69132038Y-29892962D01*
X69266614Y-30003405D01*
X69368337Y-30057777D01*
X69304866Y-30109866D01*
X69119294Y-30335986D01*
X68981401Y-30593966D01*
X68896487Y-30873889D01*
X68867815Y-31165000D01*
X68896487Y-31456111D01*
X68981401Y-31736034D01*
X69119294Y-31994014D01*
X69304866Y-32220134D01*
X69530986Y-32405706D01*
X69556722Y-32419462D01*
X69350571Y-32575951D01*
X69157504Y-32793807D01*
X69010648Y-33045142D01*
X68918524Y-33308110D01*
X69039845Y-33538000D01*
X70358000Y-33538000D01*
X70358000Y-33518000D01*
X70612000Y-33518000D01*
X70612000Y-33538000D01*
X71930155Y-33538000D01*
X72051476Y-33308110D01*
X71959352Y-33045142D01*
X71812496Y-32793807D01*
X71619429Y-32575951D01*
X71413278Y-32419462D01*
X71439014Y-32405706D01*
X71665134Y-32220134D01*
X71850706Y-31994014D01*
X71988599Y-31736034D01*
X72073513Y-31456111D01*
X72102185Y-31165000D01*
X72073513Y-30873889D01*
X71988599Y-30593966D01*
X71850706Y-30335986D01*
X71665134Y-30109866D01*
X71601663Y-30057777D01*
X71703386Y-30003405D01*
X71837962Y-29892962D01*
X71948405Y-29758386D01*
X72030472Y-29604850D01*
X72081008Y-29438254D01*
X72098072Y-29265000D01*
X72098072Y-28065000D01*
X72081008Y-27891746D01*
X72030472Y-27725150D01*
X71948405Y-27571614D01*
X71837962Y-27437038D01*
X71703386Y-27326595D01*
X71549850Y-27244528D01*
X71383254Y-27193992D01*
X71210000Y-27176928D01*
X69760000Y-27176928D01*
X69720000Y-27180868D01*
X69720000Y-26943363D01*
X76775000Y-26943363D01*
X76775000Y-27186637D01*
X76822460Y-27425236D01*
X76915557Y-27649992D01*
X77050713Y-27852267D01*
X77222733Y-28024287D01*
X77425008Y-28159443D01*
X77649764Y-28252540D01*
X77888363Y-28300000D01*
X78131637Y-28300000D01*
X78370236Y-28252540D01*
X78396928Y-28241484D01*
X78396928Y-29265000D01*
X78413992Y-29438254D01*
X78464528Y-29604850D01*
X78546595Y-29758386D01*
X78657038Y-29892962D01*
X78791614Y-30003405D01*
X78893337Y-30057777D01*
X78829866Y-30109866D01*
X78644294Y-30335986D01*
X78506401Y-30593966D01*
X78421487Y-30873889D01*
X78392815Y-31165000D01*
X78421487Y-31456111D01*
X78506401Y-31736034D01*
X78644294Y-31994014D01*
X78829866Y-32220134D01*
X79055986Y-32405706D01*
X79081722Y-32419462D01*
X78875571Y-32575951D01*
X78682504Y-32793807D01*
X78535648Y-33045142D01*
X78443524Y-33308110D01*
X78564845Y-33538000D01*
X79883000Y-33538000D01*
X79883000Y-33518000D01*
X80137000Y-33518000D01*
X80137000Y-33538000D01*
X81455155Y-33538000D01*
X81576476Y-33308110D01*
X81484352Y-33045142D01*
X81337496Y-32793807D01*
X81144429Y-32575951D01*
X80938278Y-32419462D01*
X80964014Y-32405706D01*
X81190134Y-32220134D01*
X81375706Y-31994014D01*
X81513599Y-31736034D01*
X81598513Y-31456111D01*
X81627185Y-31165000D01*
X81598513Y-30873889D01*
X81513599Y-30593966D01*
X81375706Y-30335986D01*
X81190134Y-30109866D01*
X81126663Y-30057777D01*
X81228386Y-30003405D01*
X81362962Y-29892962D01*
X81473405Y-29758386D01*
X81555472Y-29604850D01*
X81606008Y-29438254D01*
X81623072Y-29265000D01*
X81623072Y-28065000D01*
X81606008Y-27891746D01*
X81555472Y-27725150D01*
X81473405Y-27571614D01*
X81362962Y-27437038D01*
X81228386Y-27326595D01*
X81074850Y-27244528D01*
X80908254Y-27193992D01*
X80735000Y-27176928D01*
X79285000Y-27176928D01*
X79245000Y-27180868D01*
X79245000Y-26943363D01*
X86300000Y-26943363D01*
X86300000Y-27186637D01*
X86347460Y-27425236D01*
X86440557Y-27649992D01*
X86575713Y-27852267D01*
X86747733Y-28024287D01*
X86950008Y-28159443D01*
X87174764Y-28252540D01*
X87413363Y-28300000D01*
X87656637Y-28300000D01*
X87895236Y-28252540D01*
X87921928Y-28241484D01*
X87921928Y-29265000D01*
X87938992Y-29438254D01*
X87989528Y-29604850D01*
X88071595Y-29758386D01*
X88182038Y-29892962D01*
X88316614Y-30003405D01*
X88418337Y-30057777D01*
X88354866Y-30109866D01*
X88169294Y-30335986D01*
X88031401Y-30593966D01*
X87946487Y-30873889D01*
X87917815Y-31165000D01*
X87946487Y-31456111D01*
X88031401Y-31736034D01*
X88169294Y-31994014D01*
X88354866Y-32220134D01*
X88580986Y-32405706D01*
X88606722Y-32419462D01*
X88400571Y-32575951D01*
X88207504Y-32793807D01*
X88060648Y-33045142D01*
X87968524Y-33308110D01*
X88089845Y-33538000D01*
X89408000Y-33538000D01*
X89408000Y-33518000D01*
X89662000Y-33518000D01*
X89662000Y-33538000D01*
X90980155Y-33538000D01*
X91101476Y-33308110D01*
X91009352Y-33045142D01*
X90862496Y-32793807D01*
X90669429Y-32575951D01*
X90463278Y-32419462D01*
X90489014Y-32405706D01*
X90715134Y-32220134D01*
X90900706Y-31994014D01*
X91038599Y-31736034D01*
X91123513Y-31456111D01*
X91152185Y-31165000D01*
X91123513Y-30873889D01*
X91038599Y-30593966D01*
X90900706Y-30335986D01*
X90715134Y-30109866D01*
X90651663Y-30057777D01*
X90753386Y-30003405D01*
X90887962Y-29892962D01*
X90998405Y-29758386D01*
X91080472Y-29604850D01*
X91131008Y-29438254D01*
X91148072Y-29265000D01*
X91148072Y-28065000D01*
X91131008Y-27891746D01*
X91080472Y-27725150D01*
X90998405Y-27571614D01*
X90887962Y-27437038D01*
X90753386Y-27326595D01*
X90599850Y-27244528D01*
X90433254Y-27193992D01*
X90260000Y-27176928D01*
X88810000Y-27176928D01*
X88770000Y-27180868D01*
X88770000Y-26943363D01*
X95825000Y-26943363D01*
X95825000Y-27186637D01*
X95872460Y-27425236D01*
X95965557Y-27649992D01*
X96100713Y-27852267D01*
X96272733Y-28024287D01*
X96475008Y-28159443D01*
X96699764Y-28252540D01*
X96938363Y-28300000D01*
X97181637Y-28300000D01*
X97420236Y-28252540D01*
X97446928Y-28241484D01*
X97446928Y-29265000D01*
X97463992Y-29438254D01*
X97514528Y-29604850D01*
X97596595Y-29758386D01*
X97707038Y-29892962D01*
X97841614Y-30003405D01*
X97943337Y-30057777D01*
X97879866Y-30109866D01*
X97694294Y-30335986D01*
X97556401Y-30593966D01*
X97471487Y-30873889D01*
X97442815Y-31165000D01*
X97471487Y-31456111D01*
X97556401Y-31736034D01*
X97694294Y-31994014D01*
X97879866Y-32220134D01*
X98105986Y-32405706D01*
X98131722Y-32419462D01*
X97925571Y-32575951D01*
X97732504Y-32793807D01*
X97585648Y-33045142D01*
X97493524Y-33308110D01*
X97614845Y-33538000D01*
X98933000Y-33538000D01*
X98933000Y-33518000D01*
X99187000Y-33518000D01*
X99187000Y-33538000D01*
X100505155Y-33538000D01*
X100626476Y-33308110D01*
X100534352Y-33045142D01*
X100387496Y-32793807D01*
X100194429Y-32575951D01*
X99988278Y-32419462D01*
X100014014Y-32405706D01*
X100240134Y-32220134D01*
X100425706Y-31994014D01*
X100563599Y-31736034D01*
X100648513Y-31456111D01*
X100677185Y-31165000D01*
X100648513Y-30873889D01*
X100563599Y-30593966D01*
X100425706Y-30335986D01*
X100240134Y-30109866D01*
X100176663Y-30057777D01*
X100278386Y-30003405D01*
X100412962Y-29892962D01*
X100523405Y-29758386D01*
X100605472Y-29604850D01*
X100656008Y-29438254D01*
X100673072Y-29265000D01*
X100673072Y-28065000D01*
X100656008Y-27891746D01*
X100605472Y-27725150D01*
X100523405Y-27571614D01*
X100412962Y-27437038D01*
X100278386Y-27326595D01*
X100124850Y-27244528D01*
X99958254Y-27193992D01*
X99785000Y-27176928D01*
X98335000Y-27176928D01*
X98295000Y-27180868D01*
X98295000Y-26943363D01*
X105350000Y-26943363D01*
X105350000Y-27186637D01*
X105397460Y-27425236D01*
X105490557Y-27649992D01*
X105625713Y-27852267D01*
X105797733Y-28024287D01*
X106000008Y-28159443D01*
X106224764Y-28252540D01*
X106463363Y-28300000D01*
X106706637Y-28300000D01*
X106945236Y-28252540D01*
X106971928Y-28241484D01*
X106971928Y-29265000D01*
X106988992Y-29438254D01*
X107039528Y-29604850D01*
X107121595Y-29758386D01*
X107232038Y-29892962D01*
X107366614Y-30003405D01*
X107468337Y-30057777D01*
X107404866Y-30109866D01*
X107219294Y-30335986D01*
X107081401Y-30593966D01*
X106996487Y-30873889D01*
X106967815Y-31165000D01*
X106996487Y-31456111D01*
X107081401Y-31736034D01*
X107219294Y-31994014D01*
X107404866Y-32220134D01*
X107630986Y-32405706D01*
X107656722Y-32419462D01*
X107450571Y-32575951D01*
X107257504Y-32793807D01*
X107110648Y-33045142D01*
X107018524Y-33308110D01*
X107139845Y-33538000D01*
X108458000Y-33538000D01*
X108458000Y-33518000D01*
X108712000Y-33518000D01*
X108712000Y-33538000D01*
X110030155Y-33538000D01*
X110151476Y-33308110D01*
X110059352Y-33045142D01*
X109912496Y-32793807D01*
X109719429Y-32575951D01*
X109513278Y-32419462D01*
X109539014Y-32405706D01*
X109765134Y-32220134D01*
X109950706Y-31994014D01*
X110088599Y-31736034D01*
X110173513Y-31456111D01*
X110202185Y-31165000D01*
X110173513Y-30873889D01*
X110088599Y-30593966D01*
X109950706Y-30335986D01*
X109765134Y-30109866D01*
X109701663Y-30057777D01*
X109803386Y-30003405D01*
X109937962Y-29892962D01*
X110048405Y-29758386D01*
X110130472Y-29604850D01*
X110181008Y-29438254D01*
X110198072Y-29265000D01*
X110198072Y-28065000D01*
X110181008Y-27891746D01*
X110130472Y-27725150D01*
X110048405Y-27571614D01*
X109937962Y-27437038D01*
X109803386Y-27326595D01*
X109649850Y-27244528D01*
X109483254Y-27193992D01*
X109310000Y-27176928D01*
X107860000Y-27176928D01*
X107820000Y-27180868D01*
X107820000Y-26943363D01*
X114875000Y-26943363D01*
X114875000Y-27186637D01*
X114922460Y-27425236D01*
X115015557Y-27649992D01*
X115150713Y-27852267D01*
X115322733Y-28024287D01*
X115525008Y-28159443D01*
X115749764Y-28252540D01*
X115988363Y-28300000D01*
X116231637Y-28300000D01*
X116470236Y-28252540D01*
X116496928Y-28241484D01*
X116496928Y-29265000D01*
X116513992Y-29438254D01*
X116564528Y-29604850D01*
X116646595Y-29758386D01*
X116757038Y-29892962D01*
X116891614Y-30003405D01*
X116993337Y-30057777D01*
X116929866Y-30109866D01*
X116744294Y-30335986D01*
X116606401Y-30593966D01*
X116521487Y-30873889D01*
X116492815Y-31165000D01*
X116521487Y-31456111D01*
X116606401Y-31736034D01*
X116744294Y-31994014D01*
X116929866Y-32220134D01*
X117155986Y-32405706D01*
X117181722Y-32419462D01*
X116975571Y-32575951D01*
X116782504Y-32793807D01*
X116635648Y-33045142D01*
X116543524Y-33308110D01*
X116664845Y-33538000D01*
X117983000Y-33538000D01*
X117983000Y-33518000D01*
X118237000Y-33518000D01*
X118237000Y-33538000D01*
X119555155Y-33538000D01*
X119676476Y-33308110D01*
X119584352Y-33045142D01*
X119437496Y-32793807D01*
X119244429Y-32575951D01*
X119038278Y-32419462D01*
X119064014Y-32405706D01*
X119290134Y-32220134D01*
X119475706Y-31994014D01*
X119613599Y-31736034D01*
X119698513Y-31456111D01*
X119727185Y-31165000D01*
X119698513Y-30873889D01*
X119613599Y-30593966D01*
X119475706Y-30335986D01*
X119290134Y-30109866D01*
X119226663Y-30057777D01*
X119328386Y-30003405D01*
X119462962Y-29892962D01*
X119573405Y-29758386D01*
X119655472Y-29604850D01*
X119706008Y-29438254D01*
X119723072Y-29265000D01*
X119723072Y-28065000D01*
X119706008Y-27891746D01*
X119655472Y-27725150D01*
X119573405Y-27571614D01*
X119462962Y-27437038D01*
X119328386Y-27326595D01*
X119174850Y-27244528D01*
X119008254Y-27193992D01*
X118835000Y-27176928D01*
X117385000Y-27176928D01*
X117345000Y-27180868D01*
X117345000Y-26943363D01*
X117297540Y-26704764D01*
X117204443Y-26480008D01*
X117069287Y-26277733D01*
X116897267Y-26105713D01*
X116694992Y-25970557D01*
X116470236Y-25877460D01*
X116231637Y-25830000D01*
X115988363Y-25830000D01*
X115749764Y-25877460D01*
X115525008Y-25970557D01*
X115322733Y-26105713D01*
X115150713Y-26277733D01*
X115015557Y-26480008D01*
X114922460Y-26704764D01*
X114875000Y-26943363D01*
X107820000Y-26943363D01*
X107772540Y-26704764D01*
X107679443Y-26480008D01*
X107544287Y-26277733D01*
X107372267Y-26105713D01*
X107169992Y-25970557D01*
X106945236Y-25877460D01*
X106706637Y-25830000D01*
X106463363Y-25830000D01*
X106224764Y-25877460D01*
X106000008Y-25970557D01*
X105797733Y-26105713D01*
X105625713Y-26277733D01*
X105490557Y-26480008D01*
X105397460Y-26704764D01*
X105350000Y-26943363D01*
X98295000Y-26943363D01*
X98247540Y-26704764D01*
X98154443Y-26480008D01*
X98019287Y-26277733D01*
X97847267Y-26105713D01*
X97644992Y-25970557D01*
X97420236Y-25877460D01*
X97181637Y-25830000D01*
X96938363Y-25830000D01*
X96699764Y-25877460D01*
X96475008Y-25970557D01*
X96272733Y-26105713D01*
X96100713Y-26277733D01*
X95965557Y-26480008D01*
X95872460Y-26704764D01*
X95825000Y-26943363D01*
X88770000Y-26943363D01*
X88722540Y-26704764D01*
X88629443Y-26480008D01*
X88494287Y-26277733D01*
X88322267Y-26105713D01*
X88119992Y-25970557D01*
X87895236Y-25877460D01*
X87656637Y-25830000D01*
X87413363Y-25830000D01*
X87174764Y-25877460D01*
X86950008Y-25970557D01*
X86747733Y-26105713D01*
X86575713Y-26277733D01*
X86440557Y-26480008D01*
X86347460Y-26704764D01*
X86300000Y-26943363D01*
X79245000Y-26943363D01*
X79197540Y-26704764D01*
X79104443Y-26480008D01*
X78969287Y-26277733D01*
X78797267Y-26105713D01*
X78594992Y-25970557D01*
X78370236Y-25877460D01*
X78131637Y-25830000D01*
X77888363Y-25830000D01*
X77649764Y-25877460D01*
X77425008Y-25970557D01*
X77222733Y-26105713D01*
X77050713Y-26277733D01*
X76915557Y-26480008D01*
X76822460Y-26704764D01*
X76775000Y-26943363D01*
X69720000Y-26943363D01*
X69672540Y-26704764D01*
X69579443Y-26480008D01*
X69444287Y-26277733D01*
X69272267Y-26105713D01*
X69069992Y-25970557D01*
X68845236Y-25877460D01*
X68606637Y-25830000D01*
X68363363Y-25830000D01*
X68124764Y-25877460D01*
X67900008Y-25970557D01*
X67697733Y-26105713D01*
X67525713Y-26277733D01*
X67390557Y-26480008D01*
X67297460Y-26704764D01*
X67250000Y-26943363D01*
X48435000Y-26943363D01*
X48435000Y-26661682D01*
X48302994Y-25998048D01*
X48044057Y-25372918D01*
X47668138Y-24810315D01*
X47189685Y-24331862D01*
X46697508Y-24003000D01*
X125302492Y-24003000D01*
X124810315Y-24331862D01*
%TA.AperFunction,Conductor*%
D32*
G36*
X124810315Y-24331862D02*
G01*
X124331862Y-24810315D01*
X123955943Y-25372918D01*
X123697006Y-25998048D01*
X123565000Y-26661682D01*
X123565000Y-27338318D01*
X123697006Y-28001952D01*
X123955943Y-28627082D01*
X124331862Y-29189685D01*
X124810315Y-29668138D01*
X125372918Y-30044057D01*
X125998048Y-30302994D01*
X126661682Y-30435000D01*
X127338318Y-30435000D01*
X128001952Y-30302994D01*
X128627082Y-30044057D01*
X129189685Y-29668138D01*
X129413000Y-29444823D01*
X129413000Y-80518000D01*
X115276072Y-80518000D01*
X115276072Y-78783000D01*
X115263812Y-78658518D01*
X115227502Y-78538820D01*
X115168537Y-78428506D01*
X115089185Y-78331815D01*
X114992494Y-78252463D01*
X114882180Y-78193498D01*
X114762482Y-78157188D01*
X114638000Y-78144928D01*
X112438000Y-78144928D01*
X112313518Y-78157188D01*
X112193820Y-78193498D01*
X112083506Y-78252463D01*
X111986815Y-78331815D01*
X111907463Y-78428506D01*
X111848498Y-78538820D01*
X111812188Y-78658518D01*
X111799928Y-78783000D01*
X111799928Y-80518000D01*
X107532925Y-80518000D01*
X107586325Y-80389081D01*
X107653000Y-80053883D01*
X107653000Y-79712117D01*
X107586325Y-79376919D01*
X107455537Y-79061169D01*
X107265663Y-78777002D01*
X107023998Y-78535337D01*
X106739831Y-78345463D01*
X106424081Y-78214675D01*
X106088883Y-78148000D01*
X105747117Y-78148000D01*
X105411919Y-78214675D01*
X105096169Y-78345463D01*
X104812002Y-78535337D01*
X104570337Y-78777002D01*
X104380463Y-79061169D01*
X104249675Y-79376919D01*
X104183000Y-79712117D01*
X104183000Y-80053883D01*
X104249675Y-80389081D01*
X104303075Y-80518000D01*
X97242072Y-80518000D01*
X97242072Y-78783000D01*
X97229812Y-78658518D01*
X97193502Y-78538820D01*
X97134537Y-78428506D01*
X97055185Y-78331815D01*
X96958494Y-78252463D01*
X96848180Y-78193498D01*
X96728482Y-78157188D01*
X96604000Y-78144928D01*
X94404000Y-78144928D01*
X94279518Y-78157188D01*
X94159820Y-78193498D01*
X94049506Y-78252463D01*
X93952815Y-78331815D01*
X93873463Y-78428506D01*
X93814498Y-78538820D01*
X93778188Y-78658518D01*
X93765928Y-78783000D01*
X93765928Y-80518000D01*
X89498925Y-80518000D01*
X89552325Y-80389081D01*
X89619000Y-80053883D01*
X89619000Y-79712117D01*
X89552325Y-79376919D01*
X89421537Y-79061169D01*
X89231663Y-78777002D01*
X88989998Y-78535337D01*
X88705831Y-78345463D01*
X88390081Y-78214675D01*
X88054883Y-78148000D01*
X87713117Y-78148000D01*
X87377919Y-78214675D01*
X87062169Y-78345463D01*
X86778002Y-78535337D01*
X86536337Y-78777002D01*
X86346463Y-79061169D01*
X86215675Y-79376919D01*
X86149000Y-79712117D01*
X86149000Y-80053883D01*
X86215675Y-80389081D01*
X86269075Y-80518000D01*
X79335072Y-80518000D01*
X79335072Y-78783000D01*
X79322812Y-78658518D01*
X79286502Y-78538820D01*
X79227537Y-78428506D01*
X79148185Y-78331815D01*
X79051494Y-78252463D01*
X78941180Y-78193498D01*
X78821482Y-78157188D01*
X78697000Y-78144928D01*
X76497000Y-78144928D01*
X76372518Y-78157188D01*
X76252820Y-78193498D01*
X76142506Y-78252463D01*
X76045815Y-78331815D01*
X75966463Y-78428506D01*
X75907498Y-78538820D01*
X75871188Y-78658518D01*
X75858928Y-78783000D01*
X75858928Y-80518000D01*
X71591925Y-80518000D01*
X71645325Y-80389081D01*
X71712000Y-80053883D01*
X71712000Y-79712117D01*
X71645325Y-79376919D01*
X71514537Y-79061169D01*
X71324663Y-78777002D01*
X71082998Y-78535337D01*
X70798831Y-78345463D01*
X70483081Y-78214675D01*
X70147883Y-78148000D01*
X69806117Y-78148000D01*
X69470919Y-78214675D01*
X69155169Y-78345463D01*
X68871002Y-78535337D01*
X68629337Y-78777002D01*
X68439463Y-79061169D01*
X68308675Y-79376919D01*
X68242000Y-79712117D01*
X68242000Y-80053883D01*
X68308675Y-80389081D01*
X68362075Y-80518000D01*
X42291000Y-80518000D01*
X42291000Y-76312665D01*
X68542000Y-76312665D01*
X68542000Y-76595335D01*
X68597147Y-76872574D01*
X68705320Y-77133727D01*
X68862363Y-77368759D01*
X69062241Y-77568637D01*
X69297273Y-77725680D01*
X69558426Y-77833853D01*
X69835665Y-77889000D01*
X70118335Y-77889000D01*
X70395574Y-77833853D01*
X70656727Y-77725680D01*
X70891759Y-77568637D01*
X71091637Y-77368759D01*
X71248680Y-77133727D01*
X71356853Y-76872574D01*
X71412000Y-76595335D01*
X71412000Y-76312665D01*
X76162000Y-76312665D01*
X76162000Y-76595335D01*
X76217147Y-76872574D01*
X76325320Y-77133727D01*
X76482363Y-77368759D01*
X76682241Y-77568637D01*
X76917273Y-77725680D01*
X77178426Y-77833853D01*
X77455665Y-77889000D01*
X77738335Y-77889000D01*
X78015574Y-77833853D01*
X78276727Y-77725680D01*
X78279241Y-77724000D01*
X81286388Y-77724000D01*
X81308785Y-77951400D01*
X81375115Y-78170060D01*
X81476105Y-78359000D01*
X81375115Y-78547940D01*
X81308785Y-78766600D01*
X81286388Y-78994000D01*
X81308785Y-79221400D01*
X81375115Y-79440060D01*
X81482829Y-79641579D01*
X81627788Y-79818212D01*
X81804421Y-79963171D01*
X82005940Y-80070885D01*
X82224600Y-80137215D01*
X82395021Y-80154000D01*
X82958979Y-80154000D01*
X83129400Y-80137215D01*
X83348060Y-80070885D01*
X83549579Y-79963171D01*
X83726212Y-79818212D01*
X83871171Y-79641579D01*
X83978885Y-79440060D01*
X84045215Y-79221400D01*
X84067612Y-78994000D01*
X84045215Y-78766600D01*
X83978885Y-78547940D01*
X83877895Y-78359000D01*
X83978885Y-78170060D01*
X84045215Y-77951400D01*
X84067612Y-77724000D01*
X84045215Y-77496600D01*
X83981907Y-77287902D01*
X84016502Y-77223180D01*
X84052812Y-77103482D01*
X84065072Y-76979000D01*
X84062000Y-76739750D01*
X83903250Y-76581000D01*
X83130109Y-76581000D01*
X83129400Y-76580785D01*
X82958979Y-76564000D01*
X82395021Y-76564000D01*
X82224600Y-76580785D01*
X82223891Y-76581000D01*
X81450750Y-76581000D01*
X81292000Y-76739750D01*
X81288928Y-76979000D01*
X81301188Y-77103482D01*
X81337498Y-77223180D01*
X81372093Y-77287902D01*
X81308785Y-77496600D01*
X81286388Y-77724000D01*
X78279241Y-77724000D01*
X78511759Y-77568637D01*
X78711637Y-77368759D01*
X78868680Y-77133727D01*
X78976853Y-76872574D01*
X79032000Y-76595335D01*
X79032000Y-76312665D01*
X78976853Y-76035426D01*
X78932770Y-75929000D01*
X81288928Y-75929000D01*
X81292000Y-76168250D01*
X81450750Y-76327000D01*
X82550000Y-76327000D01*
X82550000Y-75452750D01*
X82804000Y-75452750D01*
X82804000Y-76327000D01*
X83903250Y-76327000D01*
X83917585Y-76312665D01*
X86449000Y-76312665D01*
X86449000Y-76595335D01*
X86504147Y-76872574D01*
X86612320Y-77133727D01*
X86769363Y-77368759D01*
X86969241Y-77568637D01*
X87204273Y-77725680D01*
X87465426Y-77833853D01*
X87742665Y-77889000D01*
X88025335Y-77889000D01*
X88302574Y-77833853D01*
X88563727Y-77725680D01*
X88798759Y-77568637D01*
X88998637Y-77368759D01*
X89155680Y-77133727D01*
X89263853Y-76872574D01*
X89319000Y-76595335D01*
X89319000Y-76312665D01*
X94069000Y-76312665D01*
X94069000Y-76595335D01*
X94124147Y-76872574D01*
X94232320Y-77133727D01*
X94389363Y-77368759D01*
X94589241Y-77568637D01*
X94824273Y-77725680D01*
X95085426Y-77833853D01*
X95362665Y-77889000D01*
X95645335Y-77889000D01*
X95922574Y-77833853D01*
X96183727Y-77725680D01*
X96186241Y-77724000D01*
X99447388Y-77724000D01*
X99469785Y-77951400D01*
X99536115Y-78170060D01*
X99637105Y-78359000D01*
X99536115Y-78547940D01*
X99469785Y-78766600D01*
X99447388Y-78994000D01*
X99469785Y-79221400D01*
X99536115Y-79440060D01*
X99643829Y-79641579D01*
X99788788Y-79818212D01*
X99965421Y-79963171D01*
X100166940Y-80070885D01*
X100385600Y-80137215D01*
X100556021Y-80154000D01*
X101119979Y-80154000D01*
X101290400Y-80137215D01*
X101509060Y-80070885D01*
X101710579Y-79963171D01*
X101887212Y-79818212D01*
X102032171Y-79641579D01*
X102139885Y-79440060D01*
X102206215Y-79221400D01*
X102228612Y-78994000D01*
X102206215Y-78766600D01*
X102139885Y-78547940D01*
X102038895Y-78359000D01*
X102139885Y-78170060D01*
X102206215Y-77951400D01*
X102228612Y-77724000D01*
X102206215Y-77496600D01*
X102142907Y-77287902D01*
X102177502Y-77223180D01*
X102213812Y-77103482D01*
X102226072Y-76979000D01*
X102223000Y-76739750D01*
X102064250Y-76581000D01*
X101291109Y-76581000D01*
X101290400Y-76580785D01*
X101119979Y-76564000D01*
X100556021Y-76564000D01*
X100385600Y-76580785D01*
X100384891Y-76581000D01*
X99611750Y-76581000D01*
X99453000Y-76739750D01*
X99449928Y-76979000D01*
X99462188Y-77103482D01*
X99498498Y-77223180D01*
X99533093Y-77287902D01*
X99469785Y-77496600D01*
X99447388Y-77724000D01*
X96186241Y-77724000D01*
X96418759Y-77568637D01*
X96618637Y-77368759D01*
X96775680Y-77133727D01*
X96883853Y-76872574D01*
X96939000Y-76595335D01*
X96939000Y-76312665D01*
X96883853Y-76035426D01*
X96839770Y-75929000D01*
X99449928Y-75929000D01*
X99453000Y-76168250D01*
X99611750Y-76327000D01*
X100711000Y-76327000D01*
X100711000Y-75452750D01*
X100965000Y-75452750D01*
X100965000Y-76327000D01*
X102064250Y-76327000D01*
X102078585Y-76312665D01*
X104483000Y-76312665D01*
X104483000Y-76595335D01*
X104538147Y-76872574D01*
X104646320Y-77133727D01*
X104803363Y-77368759D01*
X105003241Y-77568637D01*
X105238273Y-77725680D01*
X105499426Y-77833853D01*
X105776665Y-77889000D01*
X106059335Y-77889000D01*
X106336574Y-77833853D01*
X106597727Y-77725680D01*
X106832759Y-77568637D01*
X107032637Y-77368759D01*
X107189680Y-77133727D01*
X107297853Y-76872574D01*
X107353000Y-76595335D01*
X107353000Y-76312665D01*
X112103000Y-76312665D01*
X112103000Y-76595335D01*
X112158147Y-76872574D01*
X112266320Y-77133727D01*
X112423363Y-77368759D01*
X112623241Y-77568637D01*
X112858273Y-77725680D01*
X113119426Y-77833853D01*
X113396665Y-77889000D01*
X113679335Y-77889000D01*
X113956574Y-77833853D01*
X114217727Y-77725680D01*
X114220241Y-77724000D01*
X117608388Y-77724000D01*
X117630785Y-77951400D01*
X117697115Y-78170060D01*
X117798105Y-78359000D01*
X117697115Y-78547940D01*
X117630785Y-78766600D01*
X117608388Y-78994000D01*
X117630785Y-79221400D01*
X117697115Y-79440060D01*
X117804829Y-79641579D01*
X117949788Y-79818212D01*
X118126421Y-79963171D01*
X118327940Y-80070885D01*
X118546600Y-80137215D01*
X118717021Y-80154000D01*
X119280979Y-80154000D01*
X119451400Y-80137215D01*
X119670060Y-80070885D01*
X119871579Y-79963171D01*
X120048212Y-79818212D01*
X120193171Y-79641579D01*
X120300885Y-79440060D01*
X120367215Y-79221400D01*
X120389612Y-78994000D01*
X120367215Y-78766600D01*
X120300885Y-78547940D01*
X120199895Y-78359000D01*
X120300885Y-78170060D01*
X120367215Y-77951400D01*
X120389612Y-77724000D01*
X120367215Y-77496600D01*
X120303907Y-77287902D01*
X120338502Y-77223180D01*
X120374812Y-77103482D01*
X120387072Y-76979000D01*
X120384000Y-76739750D01*
X120225250Y-76581000D01*
X119452109Y-76581000D01*
X119451400Y-76580785D01*
X119280979Y-76564000D01*
X118717021Y-76564000D01*
X118546600Y-76580785D01*
X118545891Y-76581000D01*
X117772750Y-76581000D01*
X117614000Y-76739750D01*
X117610928Y-76979000D01*
X117623188Y-77103482D01*
X117659498Y-77223180D01*
X117694093Y-77287902D01*
X117630785Y-77496600D01*
X117608388Y-77724000D01*
X114220241Y-77724000D01*
X114452759Y-77568637D01*
X114652637Y-77368759D01*
X114809680Y-77133727D01*
X114917853Y-76872574D01*
X114973000Y-76595335D01*
X114973000Y-76312665D01*
X114917853Y-76035426D01*
X114873770Y-75929000D01*
X117610928Y-75929000D01*
X117614000Y-76168250D01*
X117772750Y-76327000D01*
X118872000Y-76327000D01*
X118872000Y-75452750D01*
X119126000Y-75452750D01*
X119126000Y-76327000D01*
X120225250Y-76327000D01*
X120384000Y-76168250D01*
X120387072Y-75929000D01*
X120374812Y-75804518D01*
X120338502Y-75684820D01*
X120279537Y-75574506D01*
X120200185Y-75477815D01*
X120103494Y-75398463D01*
X119993180Y-75339498D01*
X119873482Y-75303188D01*
X119749000Y-75290928D01*
X119284750Y-75294000D01*
X119126000Y-75452750D01*
X118872000Y-75452750D01*
X118713250Y-75294000D01*
X118249000Y-75290928D01*
X118124518Y-75303188D01*
X118004820Y-75339498D01*
X117894506Y-75398463D01*
X117797815Y-75477815D01*
X117718463Y-75574506D01*
X117659498Y-75684820D01*
X117623188Y-75804518D01*
X117610928Y-75929000D01*
X114873770Y-75929000D01*
X114809680Y-75774273D01*
X114652637Y-75539241D01*
X114452759Y-75339363D01*
X114217727Y-75182320D01*
X113956574Y-75074147D01*
X113679335Y-75019000D01*
X113396665Y-75019000D01*
X113119426Y-75074147D01*
X112858273Y-75182320D01*
X112623241Y-75339363D01*
X112423363Y-75539241D01*
X112266320Y-75774273D01*
X112158147Y-76035426D01*
X112103000Y-76312665D01*
X107353000Y-76312665D01*
X107297853Y-76035426D01*
X107189680Y-75774273D01*
X107032637Y-75539241D01*
X106832759Y-75339363D01*
X106597727Y-75182320D01*
X106336574Y-75074147D01*
X106059335Y-75019000D01*
X105776665Y-75019000D01*
X105499426Y-75074147D01*
X105238273Y-75182320D01*
X105003241Y-75339363D01*
X104803363Y-75539241D01*
X104646320Y-75774273D01*
X104538147Y-76035426D01*
X104483000Y-76312665D01*
X102078585Y-76312665D01*
X102223000Y-76168250D01*
X102226072Y-75929000D01*
X102213812Y-75804518D01*
X102177502Y-75684820D01*
X102118537Y-75574506D01*
X102039185Y-75477815D01*
X101942494Y-75398463D01*
X101832180Y-75339498D01*
X101712482Y-75303188D01*
X101588000Y-75290928D01*
X101123750Y-75294000D01*
X100965000Y-75452750D01*
X100711000Y-75452750D01*
X100552250Y-75294000D01*
X100088000Y-75290928D01*
X99963518Y-75303188D01*
X99843820Y-75339498D01*
X99733506Y-75398463D01*
X99636815Y-75477815D01*
X99557463Y-75574506D01*
X99498498Y-75684820D01*
X99462188Y-75804518D01*
X99449928Y-75929000D01*
X96839770Y-75929000D01*
X96775680Y-75774273D01*
X96618637Y-75539241D01*
X96418759Y-75339363D01*
X96183727Y-75182320D01*
X95922574Y-75074147D01*
X95645335Y-75019000D01*
X95362665Y-75019000D01*
X95085426Y-75074147D01*
X94824273Y-75182320D01*
X94589241Y-75339363D01*
X94389363Y-75539241D01*
X94232320Y-75774273D01*
X94124147Y-76035426D01*
X94069000Y-76312665D01*
X89319000Y-76312665D01*
X89263853Y-76035426D01*
X89155680Y-75774273D01*
X88998637Y-75539241D01*
X88798759Y-75339363D01*
X88563727Y-75182320D01*
X88302574Y-75074147D01*
X88025335Y-75019000D01*
X87742665Y-75019000D01*
X87465426Y-75074147D01*
X87204273Y-75182320D01*
X86969241Y-75339363D01*
X86769363Y-75539241D01*
X86612320Y-75774273D01*
X86504147Y-76035426D01*
X86449000Y-76312665D01*
X83917585Y-76312665D01*
X84062000Y-76168250D01*
X84065072Y-75929000D01*
X84052812Y-75804518D01*
X84016502Y-75684820D01*
X83957537Y-75574506D01*
X83878185Y-75477815D01*
X83781494Y-75398463D01*
X83671180Y-75339498D01*
X83551482Y-75303188D01*
X83427000Y-75290928D01*
X82962750Y-75294000D01*
X82804000Y-75452750D01*
X82550000Y-75452750D01*
X82391250Y-75294000D01*
X81927000Y-75290928D01*
X81802518Y-75303188D01*
X81682820Y-75339498D01*
X81572506Y-75398463D01*
X81475815Y-75477815D01*
X81396463Y-75574506D01*
X81337498Y-75684820D01*
X81301188Y-75804518D01*
X81288928Y-75929000D01*
X78932770Y-75929000D01*
X78868680Y-75774273D01*
X78711637Y-75539241D01*
X78511759Y-75339363D01*
X78276727Y-75182320D01*
X78015574Y-75074147D01*
X77738335Y-75019000D01*
X77455665Y-75019000D01*
X77178426Y-75074147D01*
X76917273Y-75182320D01*
X76682241Y-75339363D01*
X76482363Y-75539241D01*
X76325320Y-75774273D01*
X76217147Y-76035426D01*
X76162000Y-76312665D01*
X71412000Y-76312665D01*
X71356853Y-76035426D01*
X71248680Y-75774273D01*
X71091637Y-75539241D01*
X70891759Y-75339363D01*
X70656727Y-75182320D01*
X70395574Y-75074147D01*
X70118335Y-75019000D01*
X69835665Y-75019000D01*
X69558426Y-75074147D01*
X69297273Y-75182320D01*
X69062241Y-75339363D01*
X68862363Y-75539241D01*
X68705320Y-75774273D01*
X68597147Y-76035426D01*
X68542000Y-76312665D01*
X42291000Y-76312665D01*
X42291000Y-72048816D01*
X68315000Y-72048816D01*
X68315000Y-72351184D01*
X68373989Y-72647743D01*
X68489701Y-72927095D01*
X68657688Y-73178505D01*
X68871495Y-73392312D01*
X69122905Y-73560299D01*
X69402257Y-73676011D01*
X69698816Y-73735000D01*
X70001184Y-73735000D01*
X70297743Y-73676011D01*
X70577095Y-73560299D01*
X70828505Y-73392312D01*
X70894944Y-73325873D01*
X70900498Y-73344180D01*
X70959463Y-73454494D01*
X71038815Y-73551185D01*
X71135506Y-73630537D01*
X71245820Y-73689502D01*
X71365518Y-73725812D01*
X71490000Y-73738072D01*
X73290000Y-73738072D01*
X73414482Y-73725812D01*
X73534180Y-73689502D01*
X73644494Y-73630537D01*
X73741185Y-73551185D01*
X73820537Y-73454494D01*
X73879502Y-73344180D01*
X73915812Y-73224482D01*
X73928072Y-73100000D01*
X73928072Y-73093371D01*
X73942363Y-73114759D01*
X74142241Y-73314637D01*
X74377273Y-73471680D01*
X74638426Y-73579853D01*
X74915665Y-73635000D01*
X75198335Y-73635000D01*
X75475574Y-73579853D01*
X75736727Y-73471680D01*
X75971759Y-73314637D01*
X76171637Y-73114759D01*
X76328680Y-72879727D01*
X76436853Y-72618574D01*
X76492000Y-72341335D01*
X76492000Y-72058665D01*
X81242000Y-72058665D01*
X81242000Y-72341335D01*
X81297147Y-72618574D01*
X81405320Y-72879727D01*
X81562363Y-73114759D01*
X81762241Y-73314637D01*
X81997273Y-73471680D01*
X82258426Y-73579853D01*
X82535665Y-73635000D01*
X82818335Y-73635000D01*
X83095574Y-73579853D01*
X83356727Y-73471680D01*
X83591759Y-73314637D01*
X83791637Y-73114759D01*
X83948680Y-72879727D01*
X84056853Y-72618574D01*
X84112000Y-72341335D01*
X84112000Y-72058665D01*
X84110041Y-72048816D01*
X86476000Y-72048816D01*
X86476000Y-72351184D01*
X86534989Y-72647743D01*
X86650701Y-72927095D01*
X86818688Y-73178505D01*
X87032495Y-73392312D01*
X87283905Y-73560299D01*
X87563257Y-73676011D01*
X87859816Y-73735000D01*
X88162184Y-73735000D01*
X88458743Y-73676011D01*
X88738095Y-73560299D01*
X88989505Y-73392312D01*
X89055944Y-73325873D01*
X89061498Y-73344180D01*
X89120463Y-73454494D01*
X89199815Y-73551185D01*
X89296506Y-73630537D01*
X89406820Y-73689502D01*
X89526518Y-73725812D01*
X89651000Y-73738072D01*
X91451000Y-73738072D01*
X91575482Y-73725812D01*
X91695180Y-73689502D01*
X91805494Y-73630537D01*
X91902185Y-73551185D01*
X91981537Y-73454494D01*
X92040502Y-73344180D01*
X92076812Y-73224482D01*
X92089072Y-73100000D01*
X92089072Y-73093371D01*
X92103363Y-73114759D01*
X92303241Y-73314637D01*
X92538273Y-73471680D01*
X92799426Y-73579853D01*
X93076665Y-73635000D01*
X93359335Y-73635000D01*
X93636574Y-73579853D01*
X93897727Y-73471680D01*
X94132759Y-73314637D01*
X94332637Y-73114759D01*
X94489680Y-72879727D01*
X94597853Y-72618574D01*
X94653000Y-72341335D01*
X94653000Y-72058665D01*
X99403000Y-72058665D01*
X99403000Y-72341335D01*
X99458147Y-72618574D01*
X99566320Y-72879727D01*
X99723363Y-73114759D01*
X99923241Y-73314637D01*
X100158273Y-73471680D01*
X100419426Y-73579853D01*
X100696665Y-73635000D01*
X100979335Y-73635000D01*
X101256574Y-73579853D01*
X101517727Y-73471680D01*
X101752759Y-73314637D01*
X101952637Y-73114759D01*
X102109680Y-72879727D01*
X102217853Y-72618574D01*
X102273000Y-72341335D01*
X102273000Y-72058665D01*
X102271041Y-72048816D01*
X104383000Y-72048816D01*
X104383000Y-72351184D01*
X104441989Y-72647743D01*
X104557701Y-72927095D01*
X104725688Y-73178505D01*
X104939495Y-73392312D01*
X105190905Y-73560299D01*
X105470257Y-73676011D01*
X105766816Y-73735000D01*
X106069184Y-73735000D01*
X106365743Y-73676011D01*
X106645095Y-73560299D01*
X106896505Y-73392312D01*
X106962944Y-73325873D01*
X106968498Y-73344180D01*
X107027463Y-73454494D01*
X107106815Y-73551185D01*
X107203506Y-73630537D01*
X107313820Y-73689502D01*
X107433518Y-73725812D01*
X107558000Y-73738072D01*
X109358000Y-73738072D01*
X109482482Y-73725812D01*
X109602180Y-73689502D01*
X109712494Y-73630537D01*
X109809185Y-73551185D01*
X109888537Y-73454494D01*
X109947502Y-73344180D01*
X109983812Y-73224482D01*
X109996072Y-73100000D01*
X109996072Y-72603115D01*
X109999147Y-72618574D01*
X110107320Y-72879727D01*
X110264363Y-73114759D01*
X110464241Y-73314637D01*
X110699273Y-73471680D01*
X110960426Y-73579853D01*
X111237665Y-73635000D01*
X111520335Y-73635000D01*
X111797574Y-73579853D01*
X112058727Y-73471680D01*
X112293759Y-73314637D01*
X112493637Y-73114759D01*
X112650680Y-72879727D01*
X112758853Y-72618574D01*
X112814000Y-72341335D01*
X112814000Y-72058665D01*
X117564000Y-72058665D01*
X117564000Y-72341335D01*
X117619147Y-72618574D01*
X117727320Y-72879727D01*
X117884363Y-73114759D01*
X118084241Y-73314637D01*
X118319273Y-73471680D01*
X118580426Y-73579853D01*
X118857665Y-73635000D01*
X119140335Y-73635000D01*
X119417574Y-73579853D01*
X119678727Y-73471680D01*
X119913759Y-73314637D01*
X120113637Y-73114759D01*
X120270680Y-72879727D01*
X120378853Y-72618574D01*
X120434000Y-72341335D01*
X120434000Y-72058665D01*
X120378853Y-71781426D01*
X120270680Y-71520273D01*
X120113637Y-71285241D01*
X119913759Y-71085363D01*
X119678727Y-70928320D01*
X119417574Y-70820147D01*
X119140335Y-70765000D01*
X118857665Y-70765000D01*
X118580426Y-70820147D01*
X118319273Y-70928320D01*
X118084241Y-71085363D01*
X117884363Y-71285241D01*
X117727320Y-71520273D01*
X117619147Y-71781426D01*
X117564000Y-72058665D01*
X112814000Y-72058665D01*
X112758853Y-71781426D01*
X112650680Y-71520273D01*
X112493637Y-71285241D01*
X112293759Y-71085363D01*
X112058727Y-70928320D01*
X111797574Y-70820147D01*
X111520335Y-70765000D01*
X111237665Y-70765000D01*
X110960426Y-70820147D01*
X110699273Y-70928320D01*
X110464241Y-71085363D01*
X110264363Y-71285241D01*
X110107320Y-71520273D01*
X109999147Y-71781426D01*
X109996072Y-71796885D01*
X109996072Y-71300000D01*
X109983812Y-71175518D01*
X109947502Y-71055820D01*
X109888537Y-70945506D01*
X109809185Y-70848815D01*
X109712494Y-70769463D01*
X109602180Y-70710498D01*
X109482482Y-70674188D01*
X109358000Y-70661928D01*
X107558000Y-70661928D01*
X107433518Y-70674188D01*
X107313820Y-70710498D01*
X107203506Y-70769463D01*
X107106815Y-70848815D01*
X107027463Y-70945506D01*
X106968498Y-71055820D01*
X106962944Y-71074127D01*
X106896505Y-71007688D01*
X106645095Y-70839701D01*
X106365743Y-70723989D01*
X106069184Y-70665000D01*
X105766816Y-70665000D01*
X105470257Y-70723989D01*
X105190905Y-70839701D01*
X104939495Y-71007688D01*
X104725688Y-71221495D01*
X104557701Y-71472905D01*
X104441989Y-71752257D01*
X104383000Y-72048816D01*
X102271041Y-72048816D01*
X102217853Y-71781426D01*
X102109680Y-71520273D01*
X101952637Y-71285241D01*
X101752759Y-71085363D01*
X101517727Y-70928320D01*
X101256574Y-70820147D01*
X100979335Y-70765000D01*
X100696665Y-70765000D01*
X100419426Y-70820147D01*
X100158273Y-70928320D01*
X99923241Y-71085363D01*
X99723363Y-71285241D01*
X99566320Y-71520273D01*
X99458147Y-71781426D01*
X99403000Y-72058665D01*
X94653000Y-72058665D01*
X94597853Y-71781426D01*
X94489680Y-71520273D01*
X94332637Y-71285241D01*
X94132759Y-71085363D01*
X93897727Y-70928320D01*
X93636574Y-70820147D01*
X93359335Y-70765000D01*
X93076665Y-70765000D01*
X92799426Y-70820147D01*
X92538273Y-70928320D01*
X92303241Y-71085363D01*
X92103363Y-71285241D01*
X92089072Y-71306629D01*
X92089072Y-71300000D01*
X92076812Y-71175518D01*
X92040502Y-71055820D01*
X91981537Y-70945506D01*
X91902185Y-70848815D01*
X91805494Y-70769463D01*
X91695180Y-70710498D01*
X91575482Y-70674188D01*
X91451000Y-70661928D01*
X89651000Y-70661928D01*
X89526518Y-70674188D01*
X89406820Y-70710498D01*
X89296506Y-70769463D01*
X89199815Y-70848815D01*
X89120463Y-70945506D01*
X89061498Y-71055820D01*
X89055944Y-71074127D01*
X88989505Y-71007688D01*
X88738095Y-70839701D01*
X88458743Y-70723989D01*
X88162184Y-70665000D01*
X87859816Y-70665000D01*
X87563257Y-70723989D01*
X87283905Y-70839701D01*
X87032495Y-71007688D01*
X86818688Y-71221495D01*
X86650701Y-71472905D01*
X86534989Y-71752257D01*
X86476000Y-72048816D01*
X84110041Y-72048816D01*
X84056853Y-71781426D01*
X83948680Y-71520273D01*
X83791637Y-71285241D01*
X83591759Y-71085363D01*
X83356727Y-70928320D01*
X83095574Y-70820147D01*
X82818335Y-70765000D01*
X82535665Y-70765000D01*
X82258426Y-70820147D01*
X81997273Y-70928320D01*
X81762241Y-71085363D01*
X81562363Y-71285241D01*
X81405320Y-71520273D01*
X81297147Y-71781426D01*
X81242000Y-72058665D01*
X76492000Y-72058665D01*
X76436853Y-71781426D01*
X76328680Y-71520273D01*
X76171637Y-71285241D01*
X75971759Y-71085363D01*
X75736727Y-70928320D01*
X75475574Y-70820147D01*
X75198335Y-70765000D01*
X74915665Y-70765000D01*
X74638426Y-70820147D01*
X74377273Y-70928320D01*
X74142241Y-71085363D01*
X73942363Y-71285241D01*
X73928072Y-71306629D01*
X73928072Y-71300000D01*
X73915812Y-71175518D01*
X73879502Y-71055820D01*
X73820537Y-70945506D01*
X73741185Y-70848815D01*
X73644494Y-70769463D01*
X73534180Y-70710498D01*
X73414482Y-70674188D01*
X73290000Y-70661928D01*
X71490000Y-70661928D01*
X71365518Y-70674188D01*
X71245820Y-70710498D01*
X71135506Y-70769463D01*
X71038815Y-70848815D01*
X70959463Y-70945506D01*
X70900498Y-71055820D01*
X70894944Y-71074127D01*
X70828505Y-71007688D01*
X70577095Y-70839701D01*
X70297743Y-70723989D01*
X70001184Y-70665000D01*
X69698816Y-70665000D01*
X69402257Y-70723989D01*
X69122905Y-70839701D01*
X68871495Y-71007688D01*
X68657688Y-71221495D01*
X68489701Y-71472905D01*
X68373989Y-71752257D01*
X68315000Y-72048816D01*
X42291000Y-72048816D01*
X42291000Y-63080000D01*
X46771928Y-63080000D01*
X46784188Y-63204482D01*
X46820498Y-63324180D01*
X46879463Y-63434494D01*
X46958815Y-63531185D01*
X47055506Y-63610537D01*
X47165820Y-63669502D01*
X47285518Y-63705812D01*
X47410000Y-63718072D01*
X47974250Y-63715000D01*
X48133000Y-63556250D01*
X48133000Y-62357000D01*
X48387000Y-62357000D01*
X48387000Y-63556250D01*
X48545750Y-63715000D01*
X49110000Y-63718072D01*
X49234482Y-63705812D01*
X49354180Y-63669502D01*
X49464494Y-63610537D01*
X49561185Y-63531185D01*
X49640537Y-63434494D01*
X49699502Y-63324180D01*
X49735812Y-63204482D01*
X49748072Y-63080000D01*
X49745000Y-62515750D01*
X49586250Y-62357000D01*
X48387000Y-62357000D01*
X48133000Y-62357000D01*
X46933750Y-62357000D01*
X46775000Y-62515750D01*
X46771928Y-63080000D01*
X42291000Y-63080000D01*
X42291000Y-61380000D01*
X46771928Y-61380000D01*
X46775000Y-61944250D01*
X46933750Y-62103000D01*
X48133000Y-62103000D01*
X48133000Y-62083000D01*
X48387000Y-62083000D01*
X48387000Y-62103000D01*
X49586250Y-62103000D01*
X49745000Y-61944250D01*
X49748072Y-61380000D01*
X49735812Y-61255518D01*
X49699502Y-61135820D01*
X49640537Y-61025506D01*
X49561185Y-60928815D01*
X49464494Y-60849463D01*
X49354180Y-60790498D01*
X49281620Y-60768487D01*
X49325107Y-60725000D01*
X52276290Y-60725000D01*
X56877000Y-65325711D01*
X56877001Y-66244892D01*
X56758525Y-66363368D01*
X56642000Y-66537760D01*
X56525475Y-66363368D01*
X56318632Y-66156525D01*
X56075411Y-65994010D01*
X55805158Y-65882068D01*
X55518260Y-65825000D01*
X55225740Y-65825000D01*
X54938842Y-65882068D01*
X54668589Y-65994010D01*
X54425368Y-66156525D01*
X54218525Y-66363368D01*
X54102000Y-66537760D01*
X53985475Y-66363368D01*
X53778632Y-66156525D01*
X53535411Y-65994010D01*
X53265158Y-65882068D01*
X52978260Y-65825000D01*
X52685740Y-65825000D01*
X52398842Y-65882068D01*
X52128589Y-65994010D01*
X51885368Y-66156525D01*
X51678525Y-66363368D01*
X51516010Y-66606589D01*
X51404068Y-66876842D01*
X51347000Y-67163740D01*
X51347000Y-67456260D01*
X51404068Y-67743158D01*
X51516010Y-68013411D01*
X51678525Y-68256632D01*
X51885368Y-68463475D01*
X52128589Y-68625990D01*
X52398842Y-68737932D01*
X52685740Y-68795000D01*
X52978260Y-68795000D01*
X53265158Y-68737932D01*
X53535411Y-68625990D01*
X53778632Y-68463475D01*
X53985475Y-68256632D01*
X54102000Y-68082240D01*
X54218525Y-68256632D01*
X54425368Y-68463475D01*
X54668589Y-68625990D01*
X54938842Y-68737932D01*
X55225740Y-68795000D01*
X55518260Y-68795000D01*
X55805158Y-68737932D01*
X56075411Y-68625990D01*
X56318632Y-68463475D01*
X56525475Y-68256632D01*
X56642000Y-68082240D01*
X56758525Y-68256632D01*
X56965368Y-68463475D01*
X57208589Y-68625990D01*
X57478842Y-68737932D01*
X57765740Y-68795000D01*
X58058260Y-68795000D01*
X58345158Y-68737932D01*
X58615411Y-68625990D01*
X58858632Y-68463475D01*
X58990487Y-68331620D01*
X59012498Y-68404180D01*
X59071463Y-68514494D01*
X59150815Y-68611185D01*
X59247506Y-68690537D01*
X59357820Y-68749502D01*
X59477518Y-68785812D01*
X59602000Y-68798072D01*
X60166250Y-68795000D01*
X60325000Y-68636250D01*
X60325000Y-67437000D01*
X60579000Y-67437000D01*
X60579000Y-68636250D01*
X60737750Y-68795000D01*
X61302000Y-68798072D01*
X61426482Y-68785812D01*
X61546180Y-68749502D01*
X61656494Y-68690537D01*
X61753185Y-68611185D01*
X61832537Y-68514494D01*
X61891502Y-68404180D01*
X61927812Y-68284482D01*
X61940072Y-68160000D01*
X61937000Y-67595750D01*
X61778250Y-67437000D01*
X60579000Y-67437000D01*
X60325000Y-67437000D01*
X60305000Y-67437000D01*
X60305000Y-67183000D01*
X60325000Y-67183000D01*
X60325000Y-65983750D01*
X60579000Y-65983750D01*
X60579000Y-67183000D01*
X61778250Y-67183000D01*
X61937000Y-67024250D01*
X61940072Y-66460000D01*
X61927812Y-66335518D01*
X61891502Y-66215820D01*
X61855112Y-66147740D01*
X78485000Y-66147740D01*
X78485000Y-66440260D01*
X78542068Y-66727158D01*
X78654010Y-66997411D01*
X78816525Y-67240632D01*
X79023368Y-67447475D01*
X79266589Y-67609990D01*
X79536842Y-67721932D01*
X79823740Y-67779000D01*
X80116260Y-67779000D01*
X80403158Y-67721932D01*
X80673411Y-67609990D01*
X80916632Y-67447475D01*
X81123475Y-67240632D01*
X81240000Y-67066240D01*
X81356525Y-67240632D01*
X81563368Y-67447475D01*
X81806589Y-67609990D01*
X82076842Y-67721932D01*
X82363740Y-67779000D01*
X82656260Y-67779000D01*
X82943158Y-67721932D01*
X83213411Y-67609990D01*
X83456632Y-67447475D01*
X83663475Y-67240632D01*
X83780000Y-67066240D01*
X83896525Y-67240632D01*
X84103368Y-67447475D01*
X84346589Y-67609990D01*
X84616842Y-67721932D01*
X84903740Y-67779000D01*
X85196260Y-67779000D01*
X85483158Y-67721932D01*
X85753411Y-67609990D01*
X85996632Y-67447475D01*
X86203475Y-67240632D01*
X86320000Y-67066240D01*
X86436525Y-67240632D01*
X86643368Y-67447475D01*
X86886589Y-67609990D01*
X87156842Y-67721932D01*
X87443740Y-67779000D01*
X87736260Y-67779000D01*
X88023158Y-67721932D01*
X88293411Y-67609990D01*
X88536632Y-67447475D01*
X88743475Y-67240632D01*
X88860000Y-67066240D01*
X88976525Y-67240632D01*
X89183368Y-67447475D01*
X89426589Y-67609990D01*
X89696842Y-67721932D01*
X89983740Y-67779000D01*
X90276260Y-67779000D01*
X90563158Y-67721932D01*
X90833411Y-67609990D01*
X91076632Y-67447475D01*
X91283475Y-67240632D01*
X91400000Y-67066240D01*
X91516525Y-67240632D01*
X91723368Y-67447475D01*
X91966589Y-67609990D01*
X92236842Y-67721932D01*
X92523740Y-67779000D01*
X92816260Y-67779000D01*
X93103158Y-67721932D01*
X93373411Y-67609990D01*
X93616632Y-67447475D01*
X93823475Y-67240632D01*
X93940000Y-67066240D01*
X94056525Y-67240632D01*
X94263368Y-67447475D01*
X94506589Y-67609990D01*
X94776842Y-67721932D01*
X95063740Y-67779000D01*
X95356260Y-67779000D01*
X95643158Y-67721932D01*
X95913411Y-67609990D01*
X96156632Y-67447475D01*
X96363475Y-67240632D01*
X96480000Y-67066240D01*
X96596525Y-67240632D01*
X96803368Y-67447475D01*
X97046589Y-67609990D01*
X97316842Y-67721932D01*
X97603740Y-67779000D01*
X97896260Y-67779000D01*
X98183158Y-67721932D01*
X98453411Y-67609990D01*
X98696632Y-67447475D01*
X98903475Y-67240632D01*
X99020000Y-67066240D01*
X99136525Y-67240632D01*
X99343368Y-67447475D01*
X99586589Y-67609990D01*
X99856842Y-67721932D01*
X100143740Y-67779000D01*
X100436260Y-67779000D01*
X100723158Y-67721932D01*
X100993411Y-67609990D01*
X101236632Y-67447475D01*
X101443475Y-67240632D01*
X101560000Y-67066240D01*
X101676525Y-67240632D01*
X101883368Y-67447475D01*
X102126589Y-67609990D01*
X102396842Y-67721932D01*
X102683740Y-67779000D01*
X102976260Y-67779000D01*
X103263158Y-67721932D01*
X103533411Y-67609990D01*
X103776632Y-67447475D01*
X103983475Y-67240632D01*
X104100000Y-67066240D01*
X104216525Y-67240632D01*
X104423368Y-67447475D01*
X104666589Y-67609990D01*
X104936842Y-67721932D01*
X105223740Y-67779000D01*
X105516260Y-67779000D01*
X105803158Y-67721932D01*
X106073411Y-67609990D01*
X106316632Y-67447475D01*
X106523475Y-67240632D01*
X106640000Y-67066240D01*
X106756525Y-67240632D01*
X106963368Y-67447475D01*
X107206589Y-67609990D01*
X107476842Y-67721932D01*
X107763740Y-67779000D01*
X108056260Y-67779000D01*
X108343158Y-67721932D01*
X108613411Y-67609990D01*
X108856632Y-67447475D01*
X109063475Y-67240632D01*
X109180000Y-67066240D01*
X109296525Y-67240632D01*
X109503368Y-67447475D01*
X109746589Y-67609990D01*
X110016842Y-67721932D01*
X110303740Y-67779000D01*
X110596260Y-67779000D01*
X110883158Y-67721932D01*
X111153411Y-67609990D01*
X111396632Y-67447475D01*
X111603475Y-67240632D01*
X111720000Y-67066240D01*
X111836525Y-67240632D01*
X112043368Y-67447475D01*
X112286589Y-67609990D01*
X112556842Y-67721932D01*
X112843740Y-67779000D01*
X113136260Y-67779000D01*
X113423158Y-67721932D01*
X113693411Y-67609990D01*
X113936632Y-67447475D01*
X114143475Y-67240632D01*
X114260000Y-67066240D01*
X114376525Y-67240632D01*
X114583368Y-67447475D01*
X114826589Y-67609990D01*
X115096842Y-67721932D01*
X115383740Y-67779000D01*
X115676260Y-67779000D01*
X115963158Y-67721932D01*
X116233411Y-67609990D01*
X116476632Y-67447475D01*
X116683475Y-67240632D01*
X116800000Y-67066240D01*
X116916525Y-67240632D01*
X117123368Y-67447475D01*
X117366589Y-67609990D01*
X117636842Y-67721932D01*
X117923740Y-67779000D01*
X118216260Y-67779000D01*
X118503158Y-67721932D01*
X118773411Y-67609990D01*
X119016632Y-67447475D01*
X119223475Y-67240632D01*
X119340000Y-67066240D01*
X119456525Y-67240632D01*
X119663368Y-67447475D01*
X119906589Y-67609990D01*
X120176842Y-67721932D01*
X120463740Y-67779000D01*
X120756260Y-67779000D01*
X121043158Y-67721932D01*
X121313411Y-67609990D01*
X121556632Y-67447475D01*
X121763475Y-67240632D01*
X121880000Y-67066240D01*
X121996525Y-67240632D01*
X122203368Y-67447475D01*
X122446589Y-67609990D01*
X122716842Y-67721932D01*
X123003740Y-67779000D01*
X123296260Y-67779000D01*
X123583158Y-67721932D01*
X123853411Y-67609990D01*
X124096632Y-67447475D01*
X124228487Y-67315620D01*
X124250498Y-67388180D01*
X124309463Y-67498494D01*
X124388815Y-67595185D01*
X124485506Y-67674537D01*
X124595820Y-67733502D01*
X124715518Y-67769812D01*
X124840000Y-67782072D01*
X126540000Y-67782072D01*
X126664482Y-67769812D01*
X126784180Y-67733502D01*
X126894494Y-67674537D01*
X126991185Y-67595185D01*
X127070537Y-67498494D01*
X127129502Y-67388180D01*
X127165812Y-67268482D01*
X127178072Y-67144000D01*
X127178072Y-65444000D01*
X127165812Y-65319518D01*
X127129502Y-65199820D01*
X127070537Y-65089506D01*
X126991185Y-64992815D01*
X126894494Y-64913463D01*
X126784180Y-64854498D01*
X126664482Y-64818188D01*
X126540000Y-64805928D01*
X124840000Y-64805928D01*
X124715518Y-64818188D01*
X124595820Y-64854498D01*
X124485506Y-64913463D01*
X124388815Y-64992815D01*
X124309463Y-65089506D01*
X124250498Y-65199820D01*
X124228487Y-65272380D01*
X124096632Y-65140525D01*
X123853411Y-64978010D01*
X123583158Y-64866068D01*
X123296260Y-64809000D01*
X123003740Y-64809000D01*
X122716842Y-64866068D01*
X122446589Y-64978010D01*
X122203368Y-65140525D01*
X121996525Y-65347368D01*
X121880000Y-65521760D01*
X121763475Y-65347368D01*
X121556632Y-65140525D01*
X121313411Y-64978010D01*
X121043158Y-64866068D01*
X120756260Y-64809000D01*
X120463740Y-64809000D01*
X120176842Y-64866068D01*
X119906589Y-64978010D01*
X119663368Y-65140525D01*
X119456525Y-65347368D01*
X119340000Y-65521760D01*
X119223475Y-65347368D01*
X119016632Y-65140525D01*
X118773411Y-64978010D01*
X118503158Y-64866068D01*
X118216260Y-64809000D01*
X117923740Y-64809000D01*
X117636842Y-64866068D01*
X117366589Y-64978010D01*
X117123368Y-65140525D01*
X116916525Y-65347368D01*
X116800000Y-65521760D01*
X116683475Y-65347368D01*
X116476632Y-65140525D01*
X116233411Y-64978010D01*
X115963158Y-64866068D01*
X115676260Y-64809000D01*
X115383740Y-64809000D01*
X115096842Y-64866068D01*
X114826589Y-64978010D01*
X114583368Y-65140525D01*
X114376525Y-65347368D01*
X114260000Y-65521760D01*
X114143475Y-65347368D01*
X113936632Y-65140525D01*
X113693411Y-64978010D01*
X113423158Y-64866068D01*
X113136260Y-64809000D01*
X112843740Y-64809000D01*
X112556842Y-64866068D01*
X112286589Y-64978010D01*
X112043368Y-65140525D01*
X111836525Y-65347368D01*
X111720000Y-65521760D01*
X111603475Y-65347368D01*
X111396632Y-65140525D01*
X111153411Y-64978010D01*
X110883158Y-64866068D01*
X110596260Y-64809000D01*
X110303740Y-64809000D01*
X110016842Y-64866068D01*
X109746589Y-64978010D01*
X109503368Y-65140525D01*
X109296525Y-65347368D01*
X109180000Y-65521760D01*
X109063475Y-65347368D01*
X108856632Y-65140525D01*
X108613411Y-64978010D01*
X108343158Y-64866068D01*
X108056260Y-64809000D01*
X107763740Y-64809000D01*
X107476842Y-64866068D01*
X107206589Y-64978010D01*
X106963368Y-65140525D01*
X106756525Y-65347368D01*
X106640000Y-65521760D01*
X106523475Y-65347368D01*
X106316632Y-65140525D01*
X106073411Y-64978010D01*
X105803158Y-64866068D01*
X105516260Y-64809000D01*
X105223740Y-64809000D01*
X104936842Y-64866068D01*
X104666589Y-64978010D01*
X104423368Y-65140525D01*
X104216525Y-65347368D01*
X104100000Y-65521760D01*
X103983475Y-65347368D01*
X103776632Y-65140525D01*
X103533411Y-64978010D01*
X103263158Y-64866068D01*
X102976260Y-64809000D01*
X102683740Y-64809000D01*
X102396842Y-64866068D01*
X102126589Y-64978010D01*
X101883368Y-65140525D01*
X101676525Y-65347368D01*
X101560000Y-65521760D01*
X101443475Y-65347368D01*
X101236632Y-65140525D01*
X100993411Y-64978010D01*
X100723158Y-64866068D01*
X100436260Y-64809000D01*
X100143740Y-64809000D01*
X99856842Y-64866068D01*
X99586589Y-64978010D01*
X99343368Y-65140525D01*
X99136525Y-65347368D01*
X99020000Y-65521760D01*
X98903475Y-65347368D01*
X98696632Y-65140525D01*
X98453411Y-64978010D01*
X98183158Y-64866068D01*
X97896260Y-64809000D01*
X97603740Y-64809000D01*
X97316842Y-64866068D01*
X97046589Y-64978010D01*
X96803368Y-65140525D01*
X96596525Y-65347368D01*
X96480000Y-65521760D01*
X96363475Y-65347368D01*
X96156632Y-65140525D01*
X95913411Y-64978010D01*
X95643158Y-64866068D01*
X95356260Y-64809000D01*
X95063740Y-64809000D01*
X94776842Y-64866068D01*
X94506589Y-64978010D01*
X94263368Y-65140525D01*
X94056525Y-65347368D01*
X93940000Y-65521760D01*
X93823475Y-65347368D01*
X93616632Y-65140525D01*
X93373411Y-64978010D01*
X93103158Y-64866068D01*
X92816260Y-64809000D01*
X92523740Y-64809000D01*
X92236842Y-64866068D01*
X91966589Y-64978010D01*
X91723368Y-65140525D01*
X91516525Y-65347368D01*
X91400000Y-65521760D01*
X91283475Y-65347368D01*
X91076632Y-65140525D01*
X90833411Y-64978010D01*
X90563158Y-64866068D01*
X90276260Y-64809000D01*
X89983740Y-64809000D01*
X89696842Y-64866068D01*
X89426589Y-64978010D01*
X89183368Y-65140525D01*
X88976525Y-65347368D01*
X88860000Y-65521760D01*
X88743475Y-65347368D01*
X88536632Y-65140525D01*
X88293411Y-64978010D01*
X88023158Y-64866068D01*
X87736260Y-64809000D01*
X87443740Y-64809000D01*
X87156842Y-64866068D01*
X86886589Y-64978010D01*
X86643368Y-65140525D01*
X86436525Y-65347368D01*
X86320000Y-65521760D01*
X86203475Y-65347368D01*
X85996632Y-65140525D01*
X85753411Y-64978010D01*
X85483158Y-64866068D01*
X85196260Y-64809000D01*
X84903740Y-64809000D01*
X84616842Y-64866068D01*
X84346589Y-64978010D01*
X84103368Y-65140525D01*
X83896525Y-65347368D01*
X83780000Y-65521760D01*
X83663475Y-65347368D01*
X83456632Y-65140525D01*
X83213411Y-64978010D01*
X82943158Y-64866068D01*
X82656260Y-64809000D01*
X82363740Y-64809000D01*
X82076842Y-64866068D01*
X81806589Y-64978010D01*
X81563368Y-65140525D01*
X81356525Y-65347368D01*
X81240000Y-65521760D01*
X81123475Y-65347368D01*
X80916632Y-65140525D01*
X80673411Y-64978010D01*
X80403158Y-64866068D01*
X80116260Y-64809000D01*
X79823740Y-64809000D01*
X79536842Y-64866068D01*
X79266589Y-64978010D01*
X79023368Y-65140525D01*
X78816525Y-65347368D01*
X78654010Y-65590589D01*
X78542068Y-65860842D01*
X78485000Y-66147740D01*
X61855112Y-66147740D01*
X61832537Y-66105506D01*
X61753185Y-66008815D01*
X61656494Y-65929463D01*
X61546180Y-65870498D01*
X61426482Y-65834188D01*
X61302000Y-65821928D01*
X60737750Y-65825000D01*
X60579000Y-65983750D01*
X60325000Y-65983750D01*
X60166250Y-65825000D01*
X59602000Y-65821928D01*
X59477518Y-65834188D01*
X59357820Y-65870498D01*
X59247506Y-65929463D01*
X59150815Y-66008815D01*
X59071463Y-66105506D01*
X59012498Y-66215820D01*
X58990487Y-66288380D01*
X58947000Y-66244893D01*
X58947000Y-64947827D01*
X58952006Y-64896999D01*
X58947000Y-64846171D01*
X58947000Y-64846162D01*
X58932024Y-64694105D01*
X58872841Y-64499007D01*
X58828104Y-64415309D01*
X58776734Y-64319202D01*
X58679803Y-64201092D01*
X58647396Y-64161604D01*
X58607908Y-64129197D01*
X57808963Y-63330253D01*
X57986842Y-63403932D01*
X58273740Y-63461000D01*
X58566260Y-63461000D01*
X58853158Y-63403932D01*
X59123411Y-63291990D01*
X59366632Y-63129475D01*
X59573475Y-62922632D01*
X59690000Y-62748240D01*
X59806525Y-62922632D01*
X60013368Y-63129475D01*
X60256589Y-63291990D01*
X60526842Y-63403932D01*
X60813740Y-63461000D01*
X61106260Y-63461000D01*
X61393158Y-63403932D01*
X61663411Y-63291990D01*
X61906632Y-63129475D01*
X62113475Y-62922632D01*
X62230000Y-62748240D01*
X62346525Y-62922632D01*
X62553368Y-63129475D01*
X62796589Y-63291990D01*
X63066842Y-63403932D01*
X63353740Y-63461000D01*
X63646260Y-63461000D01*
X63933158Y-63403932D01*
X64203411Y-63291990D01*
X64446632Y-63129475D01*
X64578487Y-62997620D01*
X64600498Y-63070180D01*
X64659463Y-63180494D01*
X64738815Y-63277185D01*
X64835506Y-63356537D01*
X64945820Y-63415502D01*
X65065518Y-63451812D01*
X65190000Y-63464072D01*
X65754250Y-63461000D01*
X65913000Y-63302250D01*
X65913000Y-62103000D01*
X66167000Y-62103000D01*
X66167000Y-63302250D01*
X66325750Y-63461000D01*
X66890000Y-63464072D01*
X67014482Y-63451812D01*
X67134180Y-63415502D01*
X67244494Y-63356537D01*
X67341185Y-63277185D01*
X67420537Y-63180494D01*
X67479502Y-63070180D01*
X67515812Y-62950482D01*
X67528072Y-62826000D01*
X67525000Y-62261750D01*
X67366250Y-62103000D01*
X66167000Y-62103000D01*
X65913000Y-62103000D01*
X65893000Y-62103000D01*
X65893000Y-61849000D01*
X65913000Y-61849000D01*
X65913000Y-60649750D01*
X66167000Y-60649750D01*
X66167000Y-61849000D01*
X67366250Y-61849000D01*
X67525000Y-61690250D01*
X67528072Y-61126000D01*
X67515812Y-61001518D01*
X67479502Y-60881820D01*
X67420537Y-60771506D01*
X67341185Y-60674815D01*
X67244494Y-60595463D01*
X67134180Y-60536498D01*
X67014482Y-60500188D01*
X66890000Y-60487928D01*
X66325750Y-60491000D01*
X66167000Y-60649750D01*
X65913000Y-60649750D01*
X65754250Y-60491000D01*
X65190000Y-60487928D01*
X65065518Y-60500188D01*
X64945820Y-60536498D01*
X64835506Y-60595463D01*
X64738815Y-60674815D01*
X64659463Y-60771506D01*
X64600498Y-60881820D01*
X64578487Y-60954380D01*
X64446632Y-60822525D01*
X64203411Y-60660010D01*
X63933158Y-60548068D01*
X63646260Y-60491000D01*
X63353740Y-60491000D01*
X63066842Y-60548068D01*
X62796589Y-60660010D01*
X62553368Y-60822525D01*
X62346525Y-61029368D01*
X62230000Y-61203760D01*
X62113475Y-61029368D01*
X61906632Y-60822525D01*
X61663411Y-60660010D01*
X61393158Y-60548068D01*
X61106260Y-60491000D01*
X60813740Y-60491000D01*
X60526842Y-60548068D01*
X60256589Y-60660010D01*
X60013368Y-60822525D01*
X59806525Y-61029368D01*
X59690000Y-61203760D01*
X59573475Y-61029368D01*
X59366632Y-60822525D01*
X59123411Y-60660010D01*
X58853158Y-60548068D01*
X58566260Y-60491000D01*
X58273740Y-60491000D01*
X57986842Y-60548068D01*
X57716589Y-60660010D01*
X57473368Y-60822525D01*
X57266525Y-61029368D01*
X57104010Y-61272589D01*
X56992068Y-61542842D01*
X56935000Y-61829740D01*
X56935000Y-62122260D01*
X56992068Y-62409158D01*
X57065748Y-62587037D01*
X53472807Y-58994097D01*
X53440396Y-58954604D01*
X53282797Y-58825266D01*
X53102993Y-58729159D01*
X52907895Y-58669976D01*
X52755838Y-58655000D01*
X52755828Y-58655000D01*
X52705000Y-58649994D01*
X52654172Y-58655000D01*
X49325107Y-58655000D01*
X49206632Y-58536525D01*
X49032240Y-58420000D01*
X49206632Y-58303475D01*
X49413475Y-58096632D01*
X49575990Y-57853411D01*
X49687932Y-57583158D01*
X49745000Y-57296260D01*
X49745000Y-57128710D01*
X50847711Y-56026000D01*
X57443893Y-56026000D01*
X57266525Y-56203368D01*
X57104010Y-56446589D01*
X56992068Y-56716842D01*
X56935000Y-57003740D01*
X56935000Y-57296260D01*
X56992068Y-57583158D01*
X57104010Y-57853411D01*
X57266525Y-58096632D01*
X57473368Y-58303475D01*
X57716589Y-58465990D01*
X57986842Y-58577932D01*
X58273740Y-58635000D01*
X58566260Y-58635000D01*
X58853158Y-58577932D01*
X59123411Y-58465990D01*
X59366632Y-58303475D01*
X59573475Y-58096632D01*
X59690000Y-57922240D01*
X59806525Y-58096632D01*
X60013368Y-58303475D01*
X60256589Y-58465990D01*
X60526842Y-58577932D01*
X60813740Y-58635000D01*
X61106260Y-58635000D01*
X61393158Y-58577932D01*
X61663411Y-58465990D01*
X61906632Y-58303475D01*
X62113475Y-58096632D01*
X62230000Y-57922240D01*
X62346525Y-58096632D01*
X62553368Y-58303475D01*
X62796589Y-58465990D01*
X63066842Y-58577932D01*
X63353740Y-58635000D01*
X63646260Y-58635000D01*
X63933158Y-58577932D01*
X64203411Y-58465990D01*
X64446632Y-58303475D01*
X64578487Y-58171620D01*
X64600498Y-58244180D01*
X64659463Y-58354494D01*
X64738815Y-58451185D01*
X64835506Y-58530537D01*
X64945820Y-58589502D01*
X65065518Y-58625812D01*
X65190000Y-58638072D01*
X65754250Y-58635000D01*
X65913000Y-58476250D01*
X65913000Y-57277000D01*
X66167000Y-57277000D01*
X66167000Y-58476250D01*
X66325750Y-58635000D01*
X66890000Y-58638072D01*
X67014482Y-58625812D01*
X67134180Y-58589502D01*
X67244494Y-58530537D01*
X67341185Y-58451185D01*
X67420537Y-58354494D01*
X67479502Y-58244180D01*
X67515812Y-58124482D01*
X67528072Y-58000000D01*
X67525000Y-57435750D01*
X67366250Y-57277000D01*
X66167000Y-57277000D01*
X65913000Y-57277000D01*
X65893000Y-57277000D01*
X65893000Y-57023000D01*
X65913000Y-57023000D01*
X65913000Y-55823750D01*
X66167000Y-55823750D01*
X66167000Y-57023000D01*
X67366250Y-57023000D01*
X67525000Y-56864250D01*
X67528072Y-56300000D01*
X67515812Y-56175518D01*
X67479502Y-56055820D01*
X67420537Y-55945506D01*
X67341185Y-55848815D01*
X67244494Y-55769463D01*
X67134180Y-55710498D01*
X67014482Y-55674188D01*
X66890000Y-55661928D01*
X66325750Y-55665000D01*
X66167000Y-55823750D01*
X65913000Y-55823750D01*
X65754250Y-55665000D01*
X65190000Y-55661928D01*
X65065518Y-55674188D01*
X64945820Y-55710498D01*
X64835506Y-55769463D01*
X64738815Y-55848815D01*
X64659463Y-55945506D01*
X64600498Y-56055820D01*
X64578487Y-56128380D01*
X64446632Y-55996525D01*
X64203411Y-55834010D01*
X63933158Y-55722068D01*
X63646260Y-55665000D01*
X63478711Y-55665000D01*
X62108807Y-54295097D01*
X62076396Y-54255604D01*
X61918797Y-54126266D01*
X61738993Y-54030159D01*
X61543895Y-53970976D01*
X61391838Y-53956000D01*
X61391828Y-53956000D01*
X61341000Y-53950994D01*
X61290172Y-53956000D01*
X50469827Y-53956000D01*
X50418999Y-53950994D01*
X50368171Y-53956000D01*
X50368162Y-53956000D01*
X50216105Y-53970976D01*
X50021007Y-54030159D01*
X49937309Y-54074896D01*
X49841202Y-54126266D01*
X49723092Y-54223197D01*
X49683604Y-54255604D01*
X49651197Y-54295092D01*
X48281290Y-55665000D01*
X48113740Y-55665000D01*
X47826842Y-55722068D01*
X47556589Y-55834010D01*
X47313368Y-55996525D01*
X47106525Y-56203368D01*
X46944010Y-56446589D01*
X46832068Y-56716842D01*
X46775000Y-57003740D01*
X46775000Y-57296260D01*
X46832068Y-57583158D01*
X46944010Y-57853411D01*
X47106525Y-58096632D01*
X47313368Y-58303475D01*
X47487760Y-58420000D01*
X47313368Y-58536525D01*
X47106525Y-58743368D01*
X46944010Y-58986589D01*
X46832068Y-59256842D01*
X46775000Y-59543740D01*
X46775000Y-59836260D01*
X46832068Y-60123158D01*
X46944010Y-60393411D01*
X47106525Y-60636632D01*
X47238380Y-60768487D01*
X47165820Y-60790498D01*
X47055506Y-60849463D01*
X46958815Y-60928815D01*
X46879463Y-61025506D01*
X46820498Y-61135820D01*
X46784188Y-61255518D01*
X46771928Y-61380000D01*
X42291000Y-61380000D01*
X42291000Y-51928665D01*
X43777000Y-51928665D01*
X43777000Y-52211335D01*
X43832147Y-52488574D01*
X43940320Y-52749727D01*
X44097363Y-52984759D01*
X44297241Y-53184637D01*
X44532273Y-53341680D01*
X44793426Y-53449853D01*
X45070665Y-53505000D01*
X45353335Y-53505000D01*
X45630574Y-53449853D01*
X45891727Y-53341680D01*
X46126759Y-53184637D01*
X46248694Y-53062702D01*
X49398903Y-53062702D01*
X49470486Y-53306671D01*
X49725996Y-53427571D01*
X50000184Y-53496300D01*
X50282512Y-53510217D01*
X50562130Y-53468787D01*
X50828292Y-53373603D01*
X50953514Y-53306671D01*
X51025097Y-53062702D01*
X50212000Y-52249605D01*
X49398903Y-53062702D01*
X46248694Y-53062702D01*
X46326637Y-52984759D01*
X46483680Y-52749727D01*
X46591853Y-52488574D01*
X46647000Y-52211335D01*
X46647000Y-52140512D01*
X48771783Y-52140512D01*
X48813213Y-52420130D01*
X48908397Y-52686292D01*
X48975329Y-52811514D01*
X49219298Y-52883097D01*
X50032395Y-52070000D01*
X50391605Y-52070000D01*
X51204702Y-52883097D01*
X51448671Y-52811514D01*
X51569571Y-52556004D01*
X51638300Y-52281816D01*
X51652217Y-51999488D01*
X51610787Y-51719870D01*
X51590222Y-51662363D01*
X55585000Y-51662363D01*
X55585000Y-51905637D01*
X55632460Y-52144236D01*
X55725557Y-52368992D01*
X55860713Y-52571267D01*
X56032733Y-52743287D01*
X56235008Y-52878443D01*
X56459764Y-52971540D01*
X56698363Y-53019000D01*
X56941637Y-53019000D01*
X57180236Y-52971540D01*
X57404992Y-52878443D01*
X57607267Y-52743287D01*
X57779287Y-52571267D01*
X57914443Y-52368992D01*
X58007540Y-52144236D01*
X58055000Y-51905637D01*
X58055000Y-51662363D01*
X58007540Y-51423764D01*
X57996484Y-51397072D01*
X59020000Y-51397072D01*
X59193254Y-51380008D01*
X59359850Y-51329472D01*
X59513386Y-51247405D01*
X59647962Y-51136962D01*
X59758405Y-51002386D01*
X59812777Y-50900663D01*
X59864866Y-50964134D01*
X60090987Y-51149706D01*
X60348967Y-51287599D01*
X60628890Y-51372513D01*
X60920000Y-51401185D01*
X61211111Y-51372513D01*
X61491034Y-51287599D01*
X61749014Y-51149706D01*
X61975134Y-50964134D01*
X62160706Y-50738014D01*
X62170000Y-50720626D01*
X62179294Y-50738014D01*
X62364866Y-50964134D01*
X62590987Y-51149706D01*
X62848967Y-51287599D01*
X63128890Y-51372513D01*
X63420000Y-51401185D01*
X63711111Y-51372513D01*
X63991034Y-51287599D01*
X64249014Y-51149706D01*
X64475134Y-50964134D01*
X64660706Y-50738014D01*
X64674462Y-50712278D01*
X64830951Y-50918429D01*
X65048807Y-51111496D01*
X65300142Y-51258352D01*
X65563110Y-51350476D01*
X65793000Y-51229155D01*
X65793000Y-49911000D01*
X66047000Y-49911000D01*
X66047000Y-51229155D01*
X66276890Y-51350476D01*
X66539858Y-51258352D01*
X66791193Y-51111496D01*
X67009049Y-50918429D01*
X67185053Y-50686570D01*
X67312442Y-50424830D01*
X67386320Y-50143267D01*
X67246165Y-49911000D01*
X66047000Y-49911000D01*
X65793000Y-49911000D01*
X65773000Y-49911000D01*
X65773000Y-49657000D01*
X65793000Y-49657000D01*
X65793000Y-48338845D01*
X66047000Y-48338845D01*
X66047000Y-49657000D01*
X67246165Y-49657000D01*
X67386320Y-49424733D01*
X67312442Y-49143170D01*
X67185053Y-48881430D01*
X67009049Y-48649571D01*
X66791193Y-48456504D01*
X66539858Y-48309648D01*
X66276890Y-48217524D01*
X66047000Y-48338845D01*
X65793000Y-48338845D01*
X65563110Y-48217524D01*
X65300142Y-48309648D01*
X65048807Y-48456504D01*
X64830951Y-48649571D01*
X64674462Y-48855722D01*
X64660706Y-48829986D01*
X64475134Y-48603866D01*
X64249013Y-48418294D01*
X63991033Y-48280401D01*
X63711110Y-48195487D01*
X63420000Y-48166815D01*
X63128889Y-48195487D01*
X62848966Y-48280401D01*
X62590986Y-48418294D01*
X62364866Y-48603866D01*
X62179294Y-48829987D01*
X62170000Y-48847374D01*
X62160706Y-48829986D01*
X61975134Y-48603866D01*
X61749013Y-48418294D01*
X61491033Y-48280401D01*
X61211110Y-48195487D01*
X60920000Y-48166815D01*
X60628889Y-48195487D01*
X60348966Y-48280401D01*
X60090986Y-48418294D01*
X59864866Y-48603866D01*
X59812777Y-48667337D01*
X59758405Y-48565614D01*
X59647962Y-48431038D01*
X59513386Y-48320595D01*
X59359850Y-48238528D01*
X59193254Y-48187992D01*
X59020000Y-48170928D01*
X57820000Y-48170928D01*
X57646746Y-48187992D01*
X57480150Y-48238528D01*
X57326614Y-48320595D01*
X57192038Y-48431038D01*
X57081595Y-48565614D01*
X56999528Y-48719150D01*
X56948992Y-48885746D01*
X56931928Y-49059000D01*
X56931928Y-50509000D01*
X56935868Y-50549000D01*
X56698363Y-50549000D01*
X56459764Y-50596460D01*
X56235008Y-50689557D01*
X56032733Y-50824713D01*
X55860713Y-50996733D01*
X55725557Y-51199008D01*
X55632460Y-51423764D01*
X55585000Y-51662363D01*
X51590222Y-51662363D01*
X51515603Y-51453708D01*
X51448671Y-51328486D01*
X51204702Y-51256903D01*
X50391605Y-52070000D01*
X50032395Y-52070000D01*
X49219298Y-51256903D01*
X48975329Y-51328486D01*
X48854429Y-51583996D01*
X48785700Y-51858184D01*
X48771783Y-52140512D01*
X46647000Y-52140512D01*
X46647000Y-51928665D01*
X46591853Y-51651426D01*
X46483680Y-51390273D01*
X46326637Y-51155241D01*
X46248694Y-51077298D01*
X49398903Y-51077298D01*
X50212000Y-51890395D01*
X51025097Y-51077298D01*
X50953514Y-50833329D01*
X50698004Y-50712429D01*
X50423816Y-50643700D01*
X50141488Y-50629783D01*
X49861870Y-50671213D01*
X49595708Y-50766397D01*
X49470486Y-50833329D01*
X49398903Y-51077298D01*
X46248694Y-51077298D01*
X46126759Y-50955363D01*
X45891727Y-50798320D01*
X45630574Y-50690147D01*
X45353335Y-50635000D01*
X45070665Y-50635000D01*
X44793426Y-50690147D01*
X44532273Y-50798320D01*
X44297241Y-50955363D01*
X44097363Y-51155241D01*
X43940320Y-51390273D01*
X43832147Y-51651426D01*
X43777000Y-51928665D01*
X42291000Y-51928665D01*
X42291000Y-43840061D01*
X51289000Y-43840061D01*
X51289000Y-44043939D01*
X51328774Y-44243898D01*
X51406795Y-44432256D01*
X51520063Y-44601774D01*
X51664226Y-44745937D01*
X51833744Y-44859205D01*
X52022102Y-44937226D01*
X52222061Y-44977000D01*
X52425939Y-44977000D01*
X52625898Y-44937226D01*
X52814256Y-44859205D01*
X52937285Y-44777000D01*
X53742715Y-44777000D01*
X53865744Y-44859205D01*
X54054102Y-44937226D01*
X54254061Y-44977000D01*
X54457939Y-44977000D01*
X54657898Y-44937226D01*
X54846256Y-44859205D01*
X55015774Y-44745937D01*
X55159937Y-44601774D01*
X55273205Y-44432256D01*
X55351226Y-44243898D01*
X55391000Y-44043939D01*
X55391000Y-43840061D01*
X55351226Y-43640102D01*
X55273205Y-43451744D01*
X55159937Y-43282226D01*
X55043376Y-43165665D01*
X66383000Y-43165665D01*
X66383000Y-43448335D01*
X66438147Y-43725574D01*
X66546320Y-43986727D01*
X66703363Y-44221759D01*
X66903241Y-44421637D01*
X67138273Y-44578680D01*
X67399426Y-44686853D01*
X67676665Y-44742000D01*
X67959335Y-44742000D01*
X68236574Y-44686853D01*
X68497727Y-44578680D01*
X68732759Y-44421637D01*
X68932637Y-44221759D01*
X69089680Y-43986727D01*
X69197853Y-43725574D01*
X69253000Y-43448335D01*
X69253000Y-43165665D01*
X74003000Y-43165665D01*
X74003000Y-43448335D01*
X74058147Y-43725574D01*
X74166320Y-43986727D01*
X74323363Y-44221759D01*
X74523241Y-44421637D01*
X74758273Y-44578680D01*
X75019426Y-44686853D01*
X75296665Y-44742000D01*
X75579335Y-44742000D01*
X75856574Y-44686853D01*
X76117727Y-44578680D01*
X76352759Y-44421637D01*
X76552637Y-44221759D01*
X76709680Y-43986727D01*
X76817853Y-43725574D01*
X76873000Y-43448335D01*
X76873000Y-43165665D01*
X76817853Y-42888426D01*
X76709680Y-42627273D01*
X76552637Y-42392241D01*
X76352759Y-42192363D01*
X76117727Y-42035320D01*
X75856574Y-41927147D01*
X75579335Y-41872000D01*
X75296665Y-41872000D01*
X75019426Y-41927147D01*
X74758273Y-42035320D01*
X74523241Y-42192363D01*
X74323363Y-42392241D01*
X74166320Y-42627273D01*
X74058147Y-42888426D01*
X74003000Y-43165665D01*
X69253000Y-43165665D01*
X69197853Y-42888426D01*
X69089680Y-42627273D01*
X68932637Y-42392241D01*
X68732759Y-42192363D01*
X68497727Y-42035320D01*
X68236574Y-41927147D01*
X67959335Y-41872000D01*
X67676665Y-41872000D01*
X67399426Y-41927147D01*
X67138273Y-42035320D01*
X66903241Y-42192363D01*
X66703363Y-42392241D01*
X66546320Y-42627273D01*
X66438147Y-42888426D01*
X66383000Y-43165665D01*
X55043376Y-43165665D01*
X55015774Y-43138063D01*
X54846256Y-43024795D01*
X54657898Y-42946774D01*
X54457939Y-42907000D01*
X54254061Y-42907000D01*
X54054102Y-42946774D01*
X53865744Y-43024795D01*
X53742715Y-43107000D01*
X52937285Y-43107000D01*
X52814256Y-43024795D01*
X52625898Y-42946774D01*
X52425939Y-42907000D01*
X52222061Y-42907000D01*
X52022102Y-42946774D01*
X51833744Y-43024795D01*
X51664226Y-43138063D01*
X51520063Y-43282226D01*
X51406795Y-43451744D01*
X51328774Y-43640102D01*
X51289000Y-43840061D01*
X42291000Y-43840061D01*
X42291000Y-41250891D01*
X78528519Y-41250891D01*
X78625843Y-41525252D01*
X78774822Y-41775355D01*
X78969731Y-41991588D01*
X79203080Y-42165641D01*
X79465901Y-42290825D01*
X79613110Y-42335476D01*
X79843000Y-42214155D01*
X79843000Y-41021000D01*
X78649186Y-41021000D01*
X78528519Y-41250891D01*
X42291000Y-41250891D01*
X42291000Y-40537109D01*
X78528519Y-40537109D01*
X78649186Y-40767000D01*
X79843000Y-40767000D01*
X79843000Y-39573845D01*
X80097000Y-39573845D01*
X80097000Y-40767000D01*
X80117000Y-40767000D01*
X80117000Y-41021000D01*
X80097000Y-41021000D01*
X80097000Y-42214155D01*
X80326890Y-42335476D01*
X80474099Y-42290825D01*
X80736920Y-42165641D01*
X80970269Y-41991588D01*
X81165178Y-41775355D01*
X81234805Y-41658466D01*
X81356525Y-41840632D01*
X81563368Y-42047475D01*
X81806589Y-42209990D01*
X82076842Y-42321932D01*
X82363740Y-42379000D01*
X82656260Y-42379000D01*
X82943158Y-42321932D01*
X83213411Y-42209990D01*
X83456632Y-42047475D01*
X83663475Y-41840632D01*
X83780000Y-41666240D01*
X83896525Y-41840632D01*
X84103368Y-42047475D01*
X84346589Y-42209990D01*
X84616842Y-42321932D01*
X84903740Y-42379000D01*
X85196260Y-42379000D01*
X85483158Y-42321932D01*
X85753411Y-42209990D01*
X85996632Y-42047475D01*
X86203475Y-41840632D01*
X86320000Y-41666240D01*
X86436525Y-41840632D01*
X86643368Y-42047475D01*
X86886589Y-42209990D01*
X87156842Y-42321932D01*
X87443740Y-42379000D01*
X87736260Y-42379000D01*
X88023158Y-42321932D01*
X88293411Y-42209990D01*
X88536632Y-42047475D01*
X88743475Y-41840632D01*
X88860000Y-41666240D01*
X88976525Y-41840632D01*
X89183368Y-42047475D01*
X89426589Y-42209990D01*
X89696842Y-42321932D01*
X89983740Y-42379000D01*
X90276260Y-42379000D01*
X90563158Y-42321932D01*
X90833411Y-42209990D01*
X91076632Y-42047475D01*
X91283475Y-41840632D01*
X91400000Y-41666240D01*
X91516525Y-41840632D01*
X91723368Y-42047475D01*
X91966589Y-42209990D01*
X92236842Y-42321932D01*
X92523740Y-42379000D01*
X92816260Y-42379000D01*
X93103158Y-42321932D01*
X93373411Y-42209990D01*
X93616632Y-42047475D01*
X93823475Y-41840632D01*
X93945195Y-41658466D01*
X94014822Y-41775355D01*
X94209731Y-41991588D01*
X94443080Y-42165641D01*
X94705901Y-42290825D01*
X94853110Y-42335476D01*
X95083000Y-42214155D01*
X95083000Y-41021000D01*
X95063000Y-41021000D01*
X95063000Y-40767000D01*
X95083000Y-40767000D01*
X95083000Y-39573845D01*
X95337000Y-39573845D01*
X95337000Y-40767000D01*
X95357000Y-40767000D01*
X95357000Y-41021000D01*
X95337000Y-41021000D01*
X95337000Y-42214155D01*
X95566890Y-42335476D01*
X95714099Y-42290825D01*
X95976920Y-42165641D01*
X96210269Y-41991588D01*
X96405178Y-41775355D01*
X96474805Y-41658466D01*
X96596525Y-41840632D01*
X96803368Y-42047475D01*
X97046589Y-42209990D01*
X97316842Y-42321932D01*
X97603740Y-42379000D01*
X97896260Y-42379000D01*
X98183158Y-42321932D01*
X98453411Y-42209990D01*
X98696632Y-42047475D01*
X98903475Y-41840632D01*
X99020000Y-41666240D01*
X99136525Y-41840632D01*
X99343368Y-42047475D01*
X99586589Y-42209990D01*
X99856842Y-42321932D01*
X100143740Y-42379000D01*
X100436260Y-42379000D01*
X100723158Y-42321932D01*
X100993411Y-42209990D01*
X101236632Y-42047475D01*
X101443475Y-41840632D01*
X101560000Y-41666240D01*
X101676525Y-41840632D01*
X101883368Y-42047475D01*
X102126589Y-42209990D01*
X102396842Y-42321932D01*
X102683740Y-42379000D01*
X102976260Y-42379000D01*
X103263158Y-42321932D01*
X103533411Y-42209990D01*
X103776632Y-42047475D01*
X103983475Y-41840632D01*
X104100000Y-41666240D01*
X104216525Y-41840632D01*
X104423368Y-42047475D01*
X104666589Y-42209990D01*
X104936842Y-42321932D01*
X105223740Y-42379000D01*
X105516260Y-42379000D01*
X105803158Y-42321932D01*
X106073411Y-42209990D01*
X106316632Y-42047475D01*
X106523475Y-41840632D01*
X106640000Y-41666240D01*
X106756525Y-41840632D01*
X106963368Y-42047475D01*
X107206589Y-42209990D01*
X107476842Y-42321932D01*
X107763740Y-42379000D01*
X108056260Y-42379000D01*
X108343158Y-42321932D01*
X108613411Y-42209990D01*
X108856632Y-42047475D01*
X109063475Y-41840632D01*
X109180000Y-41666240D01*
X109296525Y-41840632D01*
X109503368Y-42047475D01*
X109746589Y-42209990D01*
X110016842Y-42321932D01*
X110303740Y-42379000D01*
X110596260Y-42379000D01*
X110883158Y-42321932D01*
X111153411Y-42209990D01*
X111396632Y-42047475D01*
X111603475Y-41840632D01*
X111720000Y-41666240D01*
X111836525Y-41840632D01*
X112043368Y-42047475D01*
X112286589Y-42209990D01*
X112556842Y-42321932D01*
X112843740Y-42379000D01*
X113136260Y-42379000D01*
X113423158Y-42321932D01*
X113693411Y-42209990D01*
X113936632Y-42047475D01*
X114143475Y-41840632D01*
X114260000Y-41666240D01*
X114376525Y-41840632D01*
X114583368Y-42047475D01*
X114826589Y-42209990D01*
X115096842Y-42321932D01*
X115383740Y-42379000D01*
X115676260Y-42379000D01*
X115963158Y-42321932D01*
X116233411Y-42209990D01*
X116476632Y-42047475D01*
X116683475Y-41840632D01*
X116800000Y-41666240D01*
X116916525Y-41840632D01*
X117123368Y-42047475D01*
X117366589Y-42209990D01*
X117636842Y-42321932D01*
X117923740Y-42379000D01*
X118216260Y-42379000D01*
X118503158Y-42321932D01*
X118773411Y-42209990D01*
X119016632Y-42047475D01*
X119223475Y-41840632D01*
X119340000Y-41666240D01*
X119456525Y-41840632D01*
X119663368Y-42047475D01*
X119906589Y-42209990D01*
X120176842Y-42321932D01*
X120463740Y-42379000D01*
X120756260Y-42379000D01*
X121043158Y-42321932D01*
X121313411Y-42209990D01*
X121556632Y-42047475D01*
X121763475Y-41840632D01*
X121880000Y-41666240D01*
X121996525Y-41840632D01*
X122203368Y-42047475D01*
X122446589Y-42209990D01*
X122716842Y-42321932D01*
X123003740Y-42379000D01*
X123296260Y-42379000D01*
X123583158Y-42321932D01*
X123853411Y-42209990D01*
X124096632Y-42047475D01*
X124228487Y-41915620D01*
X124250498Y-41988180D01*
X124309463Y-42098494D01*
X124388815Y-42195185D01*
X124485506Y-42274537D01*
X124595820Y-42333502D01*
X124715518Y-42369812D01*
X124840000Y-42382072D01*
X126540000Y-42382072D01*
X126664482Y-42369812D01*
X126784180Y-42333502D01*
X126894494Y-42274537D01*
X126991185Y-42195185D01*
X127070537Y-42098494D01*
X127129502Y-41988180D01*
X127165812Y-41868482D01*
X127178072Y-41744000D01*
X127178072Y-40044000D01*
X127165812Y-39919518D01*
X127129502Y-39799820D01*
X127070537Y-39689506D01*
X126991185Y-39592815D01*
X126894494Y-39513463D01*
X126784180Y-39454498D01*
X126664482Y-39418188D01*
X126540000Y-39405928D01*
X124840000Y-39405928D01*
X124715518Y-39418188D01*
X124595820Y-39454498D01*
X124485506Y-39513463D01*
X124388815Y-39592815D01*
X124309463Y-39689506D01*
X124250498Y-39799820D01*
X124228487Y-39872380D01*
X124096632Y-39740525D01*
X123853411Y-39578010D01*
X123583158Y-39466068D01*
X123296260Y-39409000D01*
X123003740Y-39409000D01*
X122716842Y-39466068D01*
X122446589Y-39578010D01*
X122203368Y-39740525D01*
X121996525Y-39947368D01*
X121880000Y-40121760D01*
X121763475Y-39947368D01*
X121556632Y-39740525D01*
X121313411Y-39578010D01*
X121043158Y-39466068D01*
X120756260Y-39409000D01*
X120463740Y-39409000D01*
X120176842Y-39466068D01*
X119906589Y-39578010D01*
X119663368Y-39740525D01*
X119456525Y-39947368D01*
X119340000Y-40121760D01*
X119223475Y-39947368D01*
X119016632Y-39740525D01*
X118773411Y-39578010D01*
X118503158Y-39466068D01*
X118216260Y-39409000D01*
X117923740Y-39409000D01*
X117636842Y-39466068D01*
X117366589Y-39578010D01*
X117123368Y-39740525D01*
X116916525Y-39947368D01*
X116800000Y-40121760D01*
X116683475Y-39947368D01*
X116476632Y-39740525D01*
X116233411Y-39578010D01*
X115963158Y-39466068D01*
X115676260Y-39409000D01*
X115383740Y-39409000D01*
X115096842Y-39466068D01*
X114826589Y-39578010D01*
X114583368Y-39740525D01*
X114376525Y-39947368D01*
X114260000Y-40121760D01*
X114143475Y-39947368D01*
X113936632Y-39740525D01*
X113693411Y-39578010D01*
X113423158Y-39466068D01*
X113136260Y-39409000D01*
X112843740Y-39409000D01*
X112556842Y-39466068D01*
X112286589Y-39578010D01*
X112043368Y-39740525D01*
X111836525Y-39947368D01*
X111720000Y-40121760D01*
X111603475Y-39947368D01*
X111396632Y-39740525D01*
X111153411Y-39578010D01*
X110883158Y-39466068D01*
X110596260Y-39409000D01*
X110303740Y-39409000D01*
X110016842Y-39466068D01*
X109746589Y-39578010D01*
X109503368Y-39740525D01*
X109296525Y-39947368D01*
X109180000Y-40121760D01*
X109063475Y-39947368D01*
X108856632Y-39740525D01*
X108613411Y-39578010D01*
X108343158Y-39466068D01*
X108056260Y-39409000D01*
X107763740Y-39409000D01*
X107476842Y-39466068D01*
X107206589Y-39578010D01*
X106963368Y-39740525D01*
X106756525Y-39947368D01*
X106640000Y-40121760D01*
X106523475Y-39947368D01*
X106316632Y-39740525D01*
X106073411Y-39578010D01*
X105803158Y-39466068D01*
X105516260Y-39409000D01*
X105223740Y-39409000D01*
X104936842Y-39466068D01*
X104666589Y-39578010D01*
X104423368Y-39740525D01*
X104216525Y-39947368D01*
X104100000Y-40121760D01*
X103983475Y-39947368D01*
X103776632Y-39740525D01*
X103533411Y-39578010D01*
X103263158Y-39466068D01*
X102976260Y-39409000D01*
X102683740Y-39409000D01*
X102396842Y-39466068D01*
X102126589Y-39578010D01*
X101883368Y-39740525D01*
X101676525Y-39947368D01*
X101560000Y-40121760D01*
X101443475Y-39947368D01*
X101236632Y-39740525D01*
X100993411Y-39578010D01*
X100723158Y-39466068D01*
X100436260Y-39409000D01*
X100143740Y-39409000D01*
X99856842Y-39466068D01*
X99586589Y-39578010D01*
X99343368Y-39740525D01*
X99136525Y-39947368D01*
X99020000Y-40121760D01*
X98903475Y-39947368D01*
X98696632Y-39740525D01*
X98453411Y-39578010D01*
X98183158Y-39466068D01*
X97896260Y-39409000D01*
X97603740Y-39409000D01*
X97316842Y-39466068D01*
X97046589Y-39578010D01*
X96803368Y-39740525D01*
X96596525Y-39947368D01*
X96474805Y-40129534D01*
X96405178Y-40012645D01*
X96210269Y-39796412D01*
X95976920Y-39622359D01*
X95714099Y-39497175D01*
X95566890Y-39452524D01*
X95337000Y-39573845D01*
X95083000Y-39573845D01*
X94853110Y-39452524D01*
X94705901Y-39497175D01*
X94443080Y-39622359D01*
X94209731Y-39796412D01*
X94014822Y-40012645D01*
X93945195Y-40129534D01*
X93823475Y-39947368D01*
X93616632Y-39740525D01*
X93373411Y-39578010D01*
X93103158Y-39466068D01*
X92816260Y-39409000D01*
X92523740Y-39409000D01*
X92236842Y-39466068D01*
X91966589Y-39578010D01*
X91723368Y-39740525D01*
X91516525Y-39947368D01*
X91400000Y-40121760D01*
X91283475Y-39947368D01*
X91076632Y-39740525D01*
X90833411Y-39578010D01*
X90563158Y-39466068D01*
X90276260Y-39409000D01*
X89983740Y-39409000D01*
X89696842Y-39466068D01*
X89426589Y-39578010D01*
X89183368Y-39740525D01*
X88976525Y-39947368D01*
X88860000Y-40121760D01*
X88743475Y-39947368D01*
X88536632Y-39740525D01*
X88293411Y-39578010D01*
X88023158Y-39466068D01*
X87736260Y-39409000D01*
X87443740Y-39409000D01*
X87156842Y-39466068D01*
X86886589Y-39578010D01*
X86643368Y-39740525D01*
X86436525Y-39947368D01*
X86320000Y-40121760D01*
X86203475Y-39947368D01*
X85996632Y-39740525D01*
X85753411Y-39578010D01*
X85483158Y-39466068D01*
X85196260Y-39409000D01*
X84903740Y-39409000D01*
X84616842Y-39466068D01*
X84346589Y-39578010D01*
X84103368Y-39740525D01*
X83896525Y-39947368D01*
X83780000Y-40121760D01*
X83663475Y-39947368D01*
X83456632Y-39740525D01*
X83213411Y-39578010D01*
X82943158Y-39466068D01*
X82656260Y-39409000D01*
X82363740Y-39409000D01*
X82076842Y-39466068D01*
X81806589Y-39578010D01*
X81563368Y-39740525D01*
X81356525Y-39947368D01*
X81234805Y-40129534D01*
X81165178Y-40012645D01*
X80970269Y-39796412D01*
X80736920Y-39622359D01*
X80474099Y-39497175D01*
X80326890Y-39452524D01*
X80097000Y-39573845D01*
X79843000Y-39573845D01*
X79613110Y-39452524D01*
X79465901Y-39497175D01*
X79203080Y-39622359D01*
X78969731Y-39796412D01*
X78774822Y-40012645D01*
X78625843Y-40262748D01*
X78528519Y-40537109D01*
X42291000Y-40537109D01*
X42291000Y-34021890D01*
X68918524Y-34021890D01*
X69010648Y-34284858D01*
X69157504Y-34536193D01*
X69350571Y-34754049D01*
X69582430Y-34930053D01*
X69844170Y-35057442D01*
X70125733Y-35131320D01*
X70358000Y-34991165D01*
X70358000Y-33792000D01*
X70612000Y-33792000D01*
X70612000Y-34991165D01*
X70844267Y-35131320D01*
X71125830Y-35057442D01*
X71387570Y-34930053D01*
X71619429Y-34754049D01*
X71812496Y-34536193D01*
X71959352Y-34284858D01*
X72051476Y-34021890D01*
X78443524Y-34021890D01*
X78535648Y-34284858D01*
X78682504Y-34536193D01*
X78875571Y-34754049D01*
X79107430Y-34930053D01*
X79369170Y-35057442D01*
X79650733Y-35131320D01*
X79883000Y-34991165D01*
X79883000Y-33792000D01*
X80137000Y-33792000D01*
X80137000Y-34991165D01*
X80369267Y-35131320D01*
X80650830Y-35057442D01*
X80912570Y-34930053D01*
X81144429Y-34754049D01*
X81337496Y-34536193D01*
X81484352Y-34284858D01*
X81576476Y-34021890D01*
X87968524Y-34021890D01*
X88060648Y-34284858D01*
X88207504Y-34536193D01*
X88400571Y-34754049D01*
X88632430Y-34930053D01*
X88894170Y-35057442D01*
X89175733Y-35131320D01*
X89408000Y-34991165D01*
X89408000Y-33792000D01*
X89662000Y-33792000D01*
X89662000Y-34991165D01*
X89894267Y-35131320D01*
X90175830Y-35057442D01*
X90437570Y-34930053D01*
X90669429Y-34754049D01*
X90862496Y-34536193D01*
X91009352Y-34284858D01*
X91101476Y-34021890D01*
X97493524Y-34021890D01*
X97585648Y-34284858D01*
X97732504Y-34536193D01*
X97925571Y-34754049D01*
X98157430Y-34930053D01*
X98419170Y-35057442D01*
X98700733Y-35131320D01*
X98933000Y-34991165D01*
X98933000Y-33792000D01*
X99187000Y-33792000D01*
X99187000Y-34991165D01*
X99419267Y-35131320D01*
X99700830Y-35057442D01*
X99962570Y-34930053D01*
X100194429Y-34754049D01*
X100387496Y-34536193D01*
X100534352Y-34284858D01*
X100626476Y-34021890D01*
X107018524Y-34021890D01*
X107110648Y-34284858D01*
X107257504Y-34536193D01*
X107450571Y-34754049D01*
X107682430Y-34930053D01*
X107944170Y-35057442D01*
X108225733Y-35131320D01*
X108458000Y-34991165D01*
X108458000Y-33792000D01*
X108712000Y-33792000D01*
X108712000Y-34991165D01*
X108944267Y-35131320D01*
X109225830Y-35057442D01*
X109487570Y-34930053D01*
X109719429Y-34754049D01*
X109912496Y-34536193D01*
X110059352Y-34284858D01*
X110151476Y-34021890D01*
X116543524Y-34021890D01*
X116635648Y-34284858D01*
X116782504Y-34536193D01*
X116975571Y-34754049D01*
X117207430Y-34930053D01*
X117469170Y-35057442D01*
X117750733Y-35131320D01*
X117983000Y-34991165D01*
X117983000Y-33792000D01*
X118237000Y-33792000D01*
X118237000Y-34991165D01*
X118469267Y-35131320D01*
X118750830Y-35057442D01*
X119012570Y-34930053D01*
X119244429Y-34754049D01*
X119437496Y-34536193D01*
X119584352Y-34284858D01*
X119676476Y-34021890D01*
X119555155Y-33792000D01*
X118237000Y-33792000D01*
X117983000Y-33792000D01*
X116664845Y-33792000D01*
X116543524Y-34021890D01*
X110151476Y-34021890D01*
X110030155Y-33792000D01*
X108712000Y-33792000D01*
X108458000Y-33792000D01*
X107139845Y-33792000D01*
X107018524Y-34021890D01*
X100626476Y-34021890D01*
X100505155Y-33792000D01*
X99187000Y-33792000D01*
X98933000Y-33792000D01*
X97614845Y-33792000D01*
X97493524Y-34021890D01*
X91101476Y-34021890D01*
X90980155Y-33792000D01*
X89662000Y-33792000D01*
X89408000Y-33792000D01*
X88089845Y-33792000D01*
X87968524Y-34021890D01*
X81576476Y-34021890D01*
X81455155Y-33792000D01*
X80137000Y-33792000D01*
X79883000Y-33792000D01*
X78564845Y-33792000D01*
X78443524Y-34021890D01*
X72051476Y-34021890D01*
X71930155Y-33792000D01*
X70612000Y-33792000D01*
X70358000Y-33792000D01*
X69039845Y-33792000D01*
X68918524Y-34021890D01*
X42291000Y-34021890D01*
X42291000Y-29128531D01*
X42331862Y-29189685D01*
X42810315Y-29668138D01*
X43372918Y-30044057D01*
X43998048Y-30302994D01*
X44661682Y-30435000D01*
X45338318Y-30435000D01*
X46001952Y-30302994D01*
X46627082Y-30044057D01*
X47189685Y-29668138D01*
X47668138Y-29189685D01*
X48044057Y-28627082D01*
X48302994Y-28001952D01*
X48435000Y-27338318D01*
X48435000Y-26943363D01*
X67250000Y-26943363D01*
X67250000Y-27186637D01*
X67297460Y-27425236D01*
X67390557Y-27649992D01*
X67525713Y-27852267D01*
X67697733Y-28024287D01*
X67900008Y-28159443D01*
X68124764Y-28252540D01*
X68363363Y-28300000D01*
X68606637Y-28300000D01*
X68845236Y-28252540D01*
X68871928Y-28241484D01*
X68871928Y-29265000D01*
X68888992Y-29438254D01*
X68939528Y-29604850D01*
X69021595Y-29758386D01*
X69132038Y-29892962D01*
X69266614Y-30003405D01*
X69368337Y-30057777D01*
X69304866Y-30109866D01*
X69119294Y-30335986D01*
X68981401Y-30593966D01*
X68896487Y-30873889D01*
X68867815Y-31165000D01*
X68896487Y-31456111D01*
X68981401Y-31736034D01*
X69119294Y-31994014D01*
X69304866Y-32220134D01*
X69530986Y-32405706D01*
X69556722Y-32419462D01*
X69350571Y-32575951D01*
X69157504Y-32793807D01*
X69010648Y-33045142D01*
X68918524Y-33308110D01*
X69039845Y-33538000D01*
X70358000Y-33538000D01*
X70358000Y-33518000D01*
X70612000Y-33518000D01*
X70612000Y-33538000D01*
X71930155Y-33538000D01*
X72051476Y-33308110D01*
X71959352Y-33045142D01*
X71812496Y-32793807D01*
X71619429Y-32575951D01*
X71413278Y-32419462D01*
X71439014Y-32405706D01*
X71665134Y-32220134D01*
X71850706Y-31994014D01*
X71988599Y-31736034D01*
X72073513Y-31456111D01*
X72102185Y-31165000D01*
X72073513Y-30873889D01*
X71988599Y-30593966D01*
X71850706Y-30335986D01*
X71665134Y-30109866D01*
X71601663Y-30057777D01*
X71703386Y-30003405D01*
X71837962Y-29892962D01*
X71948405Y-29758386D01*
X72030472Y-29604850D01*
X72081008Y-29438254D01*
X72098072Y-29265000D01*
X72098072Y-28065000D01*
X72081008Y-27891746D01*
X72030472Y-27725150D01*
X71948405Y-27571614D01*
X71837962Y-27437038D01*
X71703386Y-27326595D01*
X71549850Y-27244528D01*
X71383254Y-27193992D01*
X71210000Y-27176928D01*
X69760000Y-27176928D01*
X69720000Y-27180868D01*
X69720000Y-26943363D01*
X76775000Y-26943363D01*
X76775000Y-27186637D01*
X76822460Y-27425236D01*
X76915557Y-27649992D01*
X77050713Y-27852267D01*
X77222733Y-28024287D01*
X77425008Y-28159443D01*
X77649764Y-28252540D01*
X77888363Y-28300000D01*
X78131637Y-28300000D01*
X78370236Y-28252540D01*
X78396928Y-28241484D01*
X78396928Y-29265000D01*
X78413992Y-29438254D01*
X78464528Y-29604850D01*
X78546595Y-29758386D01*
X78657038Y-29892962D01*
X78791614Y-30003405D01*
X78893337Y-30057777D01*
X78829866Y-30109866D01*
X78644294Y-30335986D01*
X78506401Y-30593966D01*
X78421487Y-30873889D01*
X78392815Y-31165000D01*
X78421487Y-31456111D01*
X78506401Y-31736034D01*
X78644294Y-31994014D01*
X78829866Y-32220134D01*
X79055986Y-32405706D01*
X79081722Y-32419462D01*
X78875571Y-32575951D01*
X78682504Y-32793807D01*
X78535648Y-33045142D01*
X78443524Y-33308110D01*
X78564845Y-33538000D01*
X79883000Y-33538000D01*
X79883000Y-33518000D01*
X80137000Y-33518000D01*
X80137000Y-33538000D01*
X81455155Y-33538000D01*
X81576476Y-33308110D01*
X81484352Y-33045142D01*
X81337496Y-32793807D01*
X81144429Y-32575951D01*
X80938278Y-32419462D01*
X80964014Y-32405706D01*
X81190134Y-32220134D01*
X81375706Y-31994014D01*
X81513599Y-31736034D01*
X81598513Y-31456111D01*
X81627185Y-31165000D01*
X81598513Y-30873889D01*
X81513599Y-30593966D01*
X81375706Y-30335986D01*
X81190134Y-30109866D01*
X81126663Y-30057777D01*
X81228386Y-30003405D01*
X81362962Y-29892962D01*
X81473405Y-29758386D01*
X81555472Y-29604850D01*
X81606008Y-29438254D01*
X81623072Y-29265000D01*
X81623072Y-28065000D01*
X81606008Y-27891746D01*
X81555472Y-27725150D01*
X81473405Y-27571614D01*
X81362962Y-27437038D01*
X81228386Y-27326595D01*
X81074850Y-27244528D01*
X80908254Y-27193992D01*
X80735000Y-27176928D01*
X79285000Y-27176928D01*
X79245000Y-27180868D01*
X79245000Y-26943363D01*
X86300000Y-26943363D01*
X86300000Y-27186637D01*
X86347460Y-27425236D01*
X86440557Y-27649992D01*
X86575713Y-27852267D01*
X86747733Y-28024287D01*
X86950008Y-28159443D01*
X87174764Y-28252540D01*
X87413363Y-28300000D01*
X87656637Y-28300000D01*
X87895236Y-28252540D01*
X87921928Y-28241484D01*
X87921928Y-29265000D01*
X87938992Y-29438254D01*
X87989528Y-29604850D01*
X88071595Y-29758386D01*
X88182038Y-29892962D01*
X88316614Y-30003405D01*
X88418337Y-30057777D01*
X88354866Y-30109866D01*
X88169294Y-30335986D01*
X88031401Y-30593966D01*
X87946487Y-30873889D01*
X87917815Y-31165000D01*
X87946487Y-31456111D01*
X88031401Y-31736034D01*
X88169294Y-31994014D01*
X88354866Y-32220134D01*
X88580986Y-32405706D01*
X88606722Y-32419462D01*
X88400571Y-32575951D01*
X88207504Y-32793807D01*
X88060648Y-33045142D01*
X87968524Y-33308110D01*
X88089845Y-33538000D01*
X89408000Y-33538000D01*
X89408000Y-33518000D01*
X89662000Y-33518000D01*
X89662000Y-33538000D01*
X90980155Y-33538000D01*
X91101476Y-33308110D01*
X91009352Y-33045142D01*
X90862496Y-32793807D01*
X90669429Y-32575951D01*
X90463278Y-32419462D01*
X90489014Y-32405706D01*
X90715134Y-32220134D01*
X90900706Y-31994014D01*
X91038599Y-31736034D01*
X91123513Y-31456111D01*
X91152185Y-31165000D01*
X91123513Y-30873889D01*
X91038599Y-30593966D01*
X90900706Y-30335986D01*
X90715134Y-30109866D01*
X90651663Y-30057777D01*
X90753386Y-30003405D01*
X90887962Y-29892962D01*
X90998405Y-29758386D01*
X91080472Y-29604850D01*
X91131008Y-29438254D01*
X91148072Y-29265000D01*
X91148072Y-28065000D01*
X91131008Y-27891746D01*
X91080472Y-27725150D01*
X90998405Y-27571614D01*
X90887962Y-27437038D01*
X90753386Y-27326595D01*
X90599850Y-27244528D01*
X90433254Y-27193992D01*
X90260000Y-27176928D01*
X88810000Y-27176928D01*
X88770000Y-27180868D01*
X88770000Y-26943363D01*
X95825000Y-26943363D01*
X95825000Y-27186637D01*
X95872460Y-27425236D01*
X95965557Y-27649992D01*
X96100713Y-27852267D01*
X96272733Y-28024287D01*
X96475008Y-28159443D01*
X96699764Y-28252540D01*
X96938363Y-28300000D01*
X97181637Y-28300000D01*
X97420236Y-28252540D01*
X97446928Y-28241484D01*
X97446928Y-29265000D01*
X97463992Y-29438254D01*
X97514528Y-29604850D01*
X97596595Y-29758386D01*
X97707038Y-29892962D01*
X97841614Y-30003405D01*
X97943337Y-30057777D01*
X97879866Y-30109866D01*
X97694294Y-30335986D01*
X97556401Y-30593966D01*
X97471487Y-30873889D01*
X97442815Y-31165000D01*
X97471487Y-31456111D01*
X97556401Y-31736034D01*
X97694294Y-31994014D01*
X97879866Y-32220134D01*
X98105986Y-32405706D01*
X98131722Y-32419462D01*
X97925571Y-32575951D01*
X97732504Y-32793807D01*
X97585648Y-33045142D01*
X97493524Y-33308110D01*
X97614845Y-33538000D01*
X98933000Y-33538000D01*
X98933000Y-33518000D01*
X99187000Y-33518000D01*
X99187000Y-33538000D01*
X100505155Y-33538000D01*
X100626476Y-33308110D01*
X100534352Y-33045142D01*
X100387496Y-32793807D01*
X100194429Y-32575951D01*
X99988278Y-32419462D01*
X100014014Y-32405706D01*
X100240134Y-32220134D01*
X100425706Y-31994014D01*
X100563599Y-31736034D01*
X100648513Y-31456111D01*
X100677185Y-31165000D01*
X100648513Y-30873889D01*
X100563599Y-30593966D01*
X100425706Y-30335986D01*
X100240134Y-30109866D01*
X100176663Y-30057777D01*
X100278386Y-30003405D01*
X100412962Y-29892962D01*
X100523405Y-29758386D01*
X100605472Y-29604850D01*
X100656008Y-29438254D01*
X100673072Y-29265000D01*
X100673072Y-28065000D01*
X100656008Y-27891746D01*
X100605472Y-27725150D01*
X100523405Y-27571614D01*
X100412962Y-27437038D01*
X100278386Y-27326595D01*
X100124850Y-27244528D01*
X99958254Y-27193992D01*
X99785000Y-27176928D01*
X98335000Y-27176928D01*
X98295000Y-27180868D01*
X98295000Y-26943363D01*
X105350000Y-26943363D01*
X105350000Y-27186637D01*
X105397460Y-27425236D01*
X105490557Y-27649992D01*
X105625713Y-27852267D01*
X105797733Y-28024287D01*
X106000008Y-28159443D01*
X106224764Y-28252540D01*
X106463363Y-28300000D01*
X106706637Y-28300000D01*
X106945236Y-28252540D01*
X106971928Y-28241484D01*
X106971928Y-29265000D01*
X106988992Y-29438254D01*
X107039528Y-29604850D01*
X107121595Y-29758386D01*
X107232038Y-29892962D01*
X107366614Y-30003405D01*
X107468337Y-30057777D01*
X107404866Y-30109866D01*
X107219294Y-30335986D01*
X107081401Y-30593966D01*
X106996487Y-30873889D01*
X106967815Y-31165000D01*
X106996487Y-31456111D01*
X107081401Y-31736034D01*
X107219294Y-31994014D01*
X107404866Y-32220134D01*
X107630986Y-32405706D01*
X107656722Y-32419462D01*
X107450571Y-32575951D01*
X107257504Y-32793807D01*
X107110648Y-33045142D01*
X107018524Y-33308110D01*
X107139845Y-33538000D01*
X108458000Y-33538000D01*
X108458000Y-33518000D01*
X108712000Y-33518000D01*
X108712000Y-33538000D01*
X110030155Y-33538000D01*
X110151476Y-33308110D01*
X110059352Y-33045142D01*
X109912496Y-32793807D01*
X109719429Y-32575951D01*
X109513278Y-32419462D01*
X109539014Y-32405706D01*
X109765134Y-32220134D01*
X109950706Y-31994014D01*
X110088599Y-31736034D01*
X110173513Y-31456111D01*
X110202185Y-31165000D01*
X110173513Y-30873889D01*
X110088599Y-30593966D01*
X109950706Y-30335986D01*
X109765134Y-30109866D01*
X109701663Y-30057777D01*
X109803386Y-30003405D01*
X109937962Y-29892962D01*
X110048405Y-29758386D01*
X110130472Y-29604850D01*
X110181008Y-29438254D01*
X110198072Y-29265000D01*
X110198072Y-28065000D01*
X110181008Y-27891746D01*
X110130472Y-27725150D01*
X110048405Y-27571614D01*
X109937962Y-27437038D01*
X109803386Y-27326595D01*
X109649850Y-27244528D01*
X109483254Y-27193992D01*
X109310000Y-27176928D01*
X107860000Y-27176928D01*
X107820000Y-27180868D01*
X107820000Y-26943363D01*
X114875000Y-26943363D01*
X114875000Y-27186637D01*
X114922460Y-27425236D01*
X115015557Y-27649992D01*
X115150713Y-27852267D01*
X115322733Y-28024287D01*
X115525008Y-28159443D01*
X115749764Y-28252540D01*
X115988363Y-28300000D01*
X116231637Y-28300000D01*
X116470236Y-28252540D01*
X116496928Y-28241484D01*
X116496928Y-29265000D01*
X116513992Y-29438254D01*
X116564528Y-29604850D01*
X116646595Y-29758386D01*
X116757038Y-29892962D01*
X116891614Y-30003405D01*
X116993337Y-30057777D01*
X116929866Y-30109866D01*
X116744294Y-30335986D01*
X116606401Y-30593966D01*
X116521487Y-30873889D01*
X116492815Y-31165000D01*
X116521487Y-31456111D01*
X116606401Y-31736034D01*
X116744294Y-31994014D01*
X116929866Y-32220134D01*
X117155986Y-32405706D01*
X117181722Y-32419462D01*
X116975571Y-32575951D01*
X116782504Y-32793807D01*
X116635648Y-33045142D01*
X116543524Y-33308110D01*
X116664845Y-33538000D01*
X117983000Y-33538000D01*
X117983000Y-33518000D01*
X118237000Y-33518000D01*
X118237000Y-33538000D01*
X119555155Y-33538000D01*
X119676476Y-33308110D01*
X119584352Y-33045142D01*
X119437496Y-32793807D01*
X119244429Y-32575951D01*
X119038278Y-32419462D01*
X119064014Y-32405706D01*
X119290134Y-32220134D01*
X119475706Y-31994014D01*
X119613599Y-31736034D01*
X119698513Y-31456111D01*
X119727185Y-31165000D01*
X119698513Y-30873889D01*
X119613599Y-30593966D01*
X119475706Y-30335986D01*
X119290134Y-30109866D01*
X119226663Y-30057777D01*
X119328386Y-30003405D01*
X119462962Y-29892962D01*
X119573405Y-29758386D01*
X119655472Y-29604850D01*
X119706008Y-29438254D01*
X119723072Y-29265000D01*
X119723072Y-28065000D01*
X119706008Y-27891746D01*
X119655472Y-27725150D01*
X119573405Y-27571614D01*
X119462962Y-27437038D01*
X119328386Y-27326595D01*
X119174850Y-27244528D01*
X119008254Y-27193992D01*
X118835000Y-27176928D01*
X117385000Y-27176928D01*
X117345000Y-27180868D01*
X117345000Y-26943363D01*
X117297540Y-26704764D01*
X117204443Y-26480008D01*
X117069287Y-26277733D01*
X116897267Y-26105713D01*
X116694992Y-25970557D01*
X116470236Y-25877460D01*
X116231637Y-25830000D01*
X115988363Y-25830000D01*
X115749764Y-25877460D01*
X115525008Y-25970557D01*
X115322733Y-26105713D01*
X115150713Y-26277733D01*
X115015557Y-26480008D01*
X114922460Y-26704764D01*
X114875000Y-26943363D01*
X107820000Y-26943363D01*
X107772540Y-26704764D01*
X107679443Y-26480008D01*
X107544287Y-26277733D01*
X107372267Y-26105713D01*
X107169992Y-25970557D01*
X106945236Y-25877460D01*
X106706637Y-25830000D01*
X106463363Y-25830000D01*
X106224764Y-25877460D01*
X106000008Y-25970557D01*
X105797733Y-26105713D01*
X105625713Y-26277733D01*
X105490557Y-26480008D01*
X105397460Y-26704764D01*
X105350000Y-26943363D01*
X98295000Y-26943363D01*
X98247540Y-26704764D01*
X98154443Y-26480008D01*
X98019287Y-26277733D01*
X97847267Y-26105713D01*
X97644992Y-25970557D01*
X97420236Y-25877460D01*
X97181637Y-25830000D01*
X96938363Y-25830000D01*
X96699764Y-25877460D01*
X96475008Y-25970557D01*
X96272733Y-26105713D01*
X96100713Y-26277733D01*
X95965557Y-26480008D01*
X95872460Y-26704764D01*
X95825000Y-26943363D01*
X88770000Y-26943363D01*
X88722540Y-26704764D01*
X88629443Y-26480008D01*
X88494287Y-26277733D01*
X88322267Y-26105713D01*
X88119992Y-25970557D01*
X87895236Y-25877460D01*
X87656637Y-25830000D01*
X87413363Y-25830000D01*
X87174764Y-25877460D01*
X86950008Y-25970557D01*
X86747733Y-26105713D01*
X86575713Y-26277733D01*
X86440557Y-26480008D01*
X86347460Y-26704764D01*
X86300000Y-26943363D01*
X79245000Y-26943363D01*
X79197540Y-26704764D01*
X79104443Y-26480008D01*
X78969287Y-26277733D01*
X78797267Y-26105713D01*
X78594992Y-25970557D01*
X78370236Y-25877460D01*
X78131637Y-25830000D01*
X77888363Y-25830000D01*
X77649764Y-25877460D01*
X77425008Y-25970557D01*
X77222733Y-26105713D01*
X77050713Y-26277733D01*
X76915557Y-26480008D01*
X76822460Y-26704764D01*
X76775000Y-26943363D01*
X69720000Y-26943363D01*
X69672540Y-26704764D01*
X69579443Y-26480008D01*
X69444287Y-26277733D01*
X69272267Y-26105713D01*
X69069992Y-25970557D01*
X68845236Y-25877460D01*
X68606637Y-25830000D01*
X68363363Y-25830000D01*
X68124764Y-25877460D01*
X67900008Y-25970557D01*
X67697733Y-26105713D01*
X67525713Y-26277733D01*
X67390557Y-26480008D01*
X67297460Y-26704764D01*
X67250000Y-26943363D01*
X48435000Y-26943363D01*
X48435000Y-26661682D01*
X48302994Y-25998048D01*
X48044057Y-25372918D01*
X47668138Y-24810315D01*
X47189685Y-24331862D01*
X46697508Y-24003000D01*
X125302492Y-24003000D01*
X124810315Y-24331862D01*
G37*
%TD.AperFunction*%
%TD*%
M02*
