%TF.GenerationSoftware,KiCad,Pcbnew,(5.1.12-1-10_14)*%
%TF.CreationDate,2021-12-22T18:06:04+01:00*%
%TF.ProjectId,terrarium,74657272-6172-4697-956d-2e6b69636164,rev?*%
%TF.SameCoordinates,Original*%
%TF.FileFunction,Legend,Top*%
%TF.FilePolarity,Positive*%
%FSLAX46Y46*%
G04 Gerber Fmt 4.6, Leading zero omitted, Abs format (unit mm)*
G04 Created by KiCad (PCBNEW (5.1.12-1-10_14)) date 2021-12-22 18:06:04*
%MOMM*%
%LPD*%
G01*
G04 APERTURE LIST*
%ADD10C,0.120000*%
%ADD11C,0.150000*%
%ADD12C,0.500000*%
%ADD13C,0.300000*%
%TA.AperFunction,Profile*%
%ADD14C,0.050000*%
%TD*%
%ADD15C,0.010000*%
G04 APERTURE END LIST*
D10*
X48708000Y-57531000D02*
X48708000Y-58801000D01*
X44898000Y-57531000D02*
X44898000Y-58801000D01*
X47561500Y-56197500D02*
X47558000Y-58801000D01*
X46228000Y-56201000D02*
X47561500Y-56197500D01*
X51358800Y-56197500D02*
X51368000Y-58801000D01*
X50038000Y-56201000D02*
X51358800Y-56197500D01*
X120865900Y-71056500D02*
X118270020Y-71037760D01*
X120870020Y-69707760D02*
X120865900Y-71056500D01*
X120870020Y-68377760D02*
X110617000Y-68389500D01*
D11*
X118473190Y-66825880D02*
X119092238Y-66825880D01*
X118758904Y-67206833D01*
X118901761Y-67206833D01*
X118997000Y-67254452D01*
X119044619Y-67302071D01*
X119092238Y-67397309D01*
X119092238Y-67635404D01*
X119044619Y-67730642D01*
X118997000Y-67778261D01*
X118901761Y-67825880D01*
X118616047Y-67825880D01*
X118520809Y-67778261D01*
X118473190Y-67730642D01*
X119425571Y-67159214D02*
X119663666Y-67825880D01*
X119901761Y-67159214D01*
X120187476Y-66825880D02*
X120806523Y-66825880D01*
X120473190Y-67206833D01*
X120616047Y-67206833D01*
X120711285Y-67254452D01*
X120758904Y-67302071D01*
X120806523Y-67397309D01*
X120806523Y-67635404D01*
X120758904Y-67730642D01*
X120711285Y-67778261D01*
X120616047Y-67825880D01*
X120330333Y-67825880D01*
X120235095Y-67778261D01*
X120187476Y-67730642D01*
X116155309Y-66889380D02*
X116726738Y-66889380D01*
X116441023Y-67889380D02*
X116441023Y-66889380D01*
X116964833Y-67889380D02*
X117488642Y-67222714D01*
X116964833Y-67222714D02*
X117488642Y-67889380D01*
X114345500Y-67889380D02*
X114012166Y-67413190D01*
X113774071Y-67889380D02*
X113774071Y-66889380D01*
X114155023Y-66889380D01*
X114250261Y-66937000D01*
X114297880Y-66984619D01*
X114345500Y-67079857D01*
X114345500Y-67222714D01*
X114297880Y-67317952D01*
X114250261Y-67365571D01*
X114155023Y-67413190D01*
X113774071Y-67413190D01*
X114678833Y-67889380D02*
X115202642Y-67222714D01*
X114678833Y-67222714D02*
X115202642Y-67889380D01*
X112122904Y-66937000D02*
X112027666Y-66889380D01*
X111884809Y-66889380D01*
X111741952Y-66937000D01*
X111646714Y-67032238D01*
X111599095Y-67127476D01*
X111551476Y-67317952D01*
X111551476Y-67460809D01*
X111599095Y-67651285D01*
X111646714Y-67746523D01*
X111741952Y-67841761D01*
X111884809Y-67889380D01*
X111980047Y-67889380D01*
X112122904Y-67841761D01*
X112170523Y-67794142D01*
X112170523Y-67460809D01*
X111980047Y-67460809D01*
D12*
X130750000Y-42000000D02*
X130750000Y-70500000D01*
X124500000Y-42000000D02*
X130750000Y-42000000D01*
X124500000Y-70500000D02*
X124500000Y-42000000D01*
X130750000Y-70500000D02*
X124500000Y-70500000D01*
D13*
X125242071Y-72711571D02*
X124527785Y-72711571D01*
X124456357Y-73425857D01*
X124527785Y-73354428D01*
X124670642Y-73283000D01*
X125027785Y-73283000D01*
X125170642Y-73354428D01*
X125242071Y-73425857D01*
X125313500Y-73568714D01*
X125313500Y-73925857D01*
X125242071Y-74068714D01*
X125170642Y-74140142D01*
X125027785Y-74211571D01*
X124670642Y-74211571D01*
X124527785Y-74140142D01*
X124456357Y-74068714D01*
X125813500Y-73211571D02*
X126170642Y-74211571D01*
X126527785Y-73211571D01*
X128242071Y-74211571D02*
X128242071Y-73211571D01*
X128242071Y-72711571D02*
X128170642Y-72783000D01*
X128242071Y-72854428D01*
X128313500Y-72783000D01*
X128242071Y-72711571D01*
X128242071Y-72854428D01*
X128956357Y-73211571D02*
X128956357Y-74211571D01*
X128956357Y-73354428D02*
X129027785Y-73283000D01*
X129170642Y-73211571D01*
X129384928Y-73211571D01*
X129527785Y-73283000D01*
X129599214Y-73425857D01*
X129599214Y-74211571D01*
D10*
X50164800Y-30855900D02*
X51308000Y-31940500D01*
D13*
X71374571Y-104310571D02*
X71374571Y-102810571D01*
X71374571Y-103524857D02*
X72231714Y-103524857D01*
X72231714Y-104310571D02*
X72231714Y-102810571D01*
X73517428Y-104239142D02*
X73374571Y-104310571D01*
X73088857Y-104310571D01*
X72946000Y-104239142D01*
X72874571Y-104096285D01*
X72874571Y-103524857D01*
X72946000Y-103382000D01*
X73088857Y-103310571D01*
X73374571Y-103310571D01*
X73517428Y-103382000D01*
X73588857Y-103524857D01*
X73588857Y-103667714D01*
X72874571Y-103810571D01*
X74874571Y-104310571D02*
X74874571Y-103524857D01*
X74803142Y-103382000D01*
X74660285Y-103310571D01*
X74374571Y-103310571D01*
X74231714Y-103382000D01*
X74874571Y-104239142D02*
X74731714Y-104310571D01*
X74374571Y-104310571D01*
X74231714Y-104239142D01*
X74160285Y-104096285D01*
X74160285Y-103953428D01*
X74231714Y-103810571D01*
X74374571Y-103739142D01*
X74731714Y-103739142D01*
X74874571Y-103667714D01*
X75374571Y-103310571D02*
X75946000Y-103310571D01*
X75588857Y-102810571D02*
X75588857Y-104096285D01*
X75660285Y-104239142D01*
X75803142Y-104310571D01*
X75946000Y-104310571D01*
X77017428Y-104239142D02*
X76874571Y-104310571D01*
X76588857Y-104310571D01*
X76446000Y-104239142D01*
X76374571Y-104096285D01*
X76374571Y-103524857D01*
X76446000Y-103382000D01*
X76588857Y-103310571D01*
X76874571Y-103310571D01*
X77017428Y-103382000D01*
X77088857Y-103524857D01*
X77088857Y-103667714D01*
X76374571Y-103810571D01*
X77731714Y-104310571D02*
X77731714Y-103310571D01*
X77731714Y-103596285D02*
X77803142Y-103453428D01*
X77874571Y-103382000D01*
X78017428Y-103310571D01*
X78160285Y-103310571D01*
X79731714Y-102953428D02*
X79803142Y-102882000D01*
X79946000Y-102810571D01*
X80303142Y-102810571D01*
X80446000Y-102882000D01*
X80517428Y-102953428D01*
X80588857Y-103096285D01*
X80588857Y-103239142D01*
X80517428Y-103453428D01*
X79660285Y-104310571D01*
X80588857Y-104310571D01*
X122075285Y-87459428D02*
X122146714Y-87388000D01*
X122289571Y-87316571D01*
X122646714Y-87316571D01*
X122789571Y-87388000D01*
X122861000Y-87459428D01*
X122932428Y-87602285D01*
X122932428Y-87745142D01*
X122861000Y-87959428D01*
X122003857Y-88816571D01*
X122932428Y-88816571D01*
X123503857Y-87459428D02*
X123575285Y-87388000D01*
X123718142Y-87316571D01*
X124075285Y-87316571D01*
X124218142Y-87388000D01*
X124289571Y-87459428D01*
X124361000Y-87602285D01*
X124361000Y-87745142D01*
X124289571Y-87959428D01*
X123432428Y-88816571D01*
X124361000Y-88816571D01*
X125289571Y-87316571D02*
X125432428Y-87316571D01*
X125575285Y-87388000D01*
X125646714Y-87459428D01*
X125718142Y-87602285D01*
X125789571Y-87888000D01*
X125789571Y-88245142D01*
X125718142Y-88530857D01*
X125646714Y-88673714D01*
X125575285Y-88745142D01*
X125432428Y-88816571D01*
X125289571Y-88816571D01*
X125146714Y-88745142D01*
X125075285Y-88673714D01*
X125003857Y-88530857D01*
X124932428Y-88245142D01*
X124932428Y-87888000D01*
X125003857Y-87602285D01*
X125075285Y-87459428D01*
X125146714Y-87388000D01*
X125289571Y-87316571D01*
X126289571Y-87816571D02*
X126646714Y-88816571D01*
X127003857Y-87816571D01*
X128718142Y-88816571D02*
X128718142Y-87816571D01*
X128718142Y-87316571D02*
X128646714Y-87388000D01*
X128718142Y-87459428D01*
X128789571Y-87388000D01*
X128718142Y-87316571D01*
X128718142Y-87459428D01*
X129432428Y-87816571D02*
X129432428Y-88816571D01*
X129432428Y-87959428D02*
X129503857Y-87888000D01*
X129646714Y-87816571D01*
X129861000Y-87816571D01*
X130003857Y-87888000D01*
X130075285Y-88030857D01*
X130075285Y-88816571D01*
X89408571Y-104183571D02*
X89408571Y-102683571D01*
X89408571Y-103397857D02*
X90265714Y-103397857D01*
X90265714Y-104183571D02*
X90265714Y-102683571D01*
X91551428Y-104112142D02*
X91408571Y-104183571D01*
X91122857Y-104183571D01*
X90980000Y-104112142D01*
X90908571Y-103969285D01*
X90908571Y-103397857D01*
X90980000Y-103255000D01*
X91122857Y-103183571D01*
X91408571Y-103183571D01*
X91551428Y-103255000D01*
X91622857Y-103397857D01*
X91622857Y-103540714D01*
X90908571Y-103683571D01*
X92908571Y-104183571D02*
X92908571Y-103397857D01*
X92837142Y-103255000D01*
X92694285Y-103183571D01*
X92408571Y-103183571D01*
X92265714Y-103255000D01*
X92908571Y-104112142D02*
X92765714Y-104183571D01*
X92408571Y-104183571D01*
X92265714Y-104112142D01*
X92194285Y-103969285D01*
X92194285Y-103826428D01*
X92265714Y-103683571D01*
X92408571Y-103612142D01*
X92765714Y-103612142D01*
X92908571Y-103540714D01*
X93408571Y-103183571D02*
X93980000Y-103183571D01*
X93622857Y-102683571D02*
X93622857Y-103969285D01*
X93694285Y-104112142D01*
X93837142Y-104183571D01*
X93980000Y-104183571D01*
X95051428Y-104112142D02*
X94908571Y-104183571D01*
X94622857Y-104183571D01*
X94480000Y-104112142D01*
X94408571Y-103969285D01*
X94408571Y-103397857D01*
X94480000Y-103255000D01*
X94622857Y-103183571D01*
X94908571Y-103183571D01*
X95051428Y-103255000D01*
X95122857Y-103397857D01*
X95122857Y-103540714D01*
X94408571Y-103683571D01*
X95765714Y-104183571D02*
X95765714Y-103183571D01*
X95765714Y-103469285D02*
X95837142Y-103326428D01*
X95908571Y-103255000D01*
X96051428Y-103183571D01*
X96194285Y-103183571D01*
X98622857Y-104183571D02*
X97765714Y-104183571D01*
X98194285Y-104183571D02*
X98194285Y-102683571D01*
X98051428Y-102897857D01*
X97908571Y-103040714D01*
X97765714Y-103112142D01*
X108835428Y-104183571D02*
X108121142Y-104183571D01*
X108121142Y-102683571D01*
X109978285Y-104183571D02*
X109978285Y-103397857D01*
X109906857Y-103255000D01*
X109764000Y-103183571D01*
X109478285Y-103183571D01*
X109335428Y-103255000D01*
X109978285Y-104112142D02*
X109835428Y-104183571D01*
X109478285Y-104183571D01*
X109335428Y-104112142D01*
X109264000Y-103969285D01*
X109264000Y-103826428D01*
X109335428Y-103683571D01*
X109478285Y-103612142D01*
X109835428Y-103612142D01*
X109978285Y-103540714D01*
X110692571Y-104183571D02*
X110692571Y-103183571D01*
X110692571Y-103326428D02*
X110764000Y-103255000D01*
X110906857Y-103183571D01*
X111121142Y-103183571D01*
X111264000Y-103255000D01*
X111335428Y-103397857D01*
X111335428Y-104183571D01*
X111335428Y-103397857D02*
X111406857Y-103255000D01*
X111549714Y-103183571D01*
X111764000Y-103183571D01*
X111906857Y-103255000D01*
X111978285Y-103397857D01*
X111978285Y-104183571D01*
X112692571Y-103183571D02*
X112692571Y-104683571D01*
X112692571Y-103255000D02*
X112835428Y-103183571D01*
X113121142Y-103183571D01*
X113264000Y-103255000D01*
X113335428Y-103326428D01*
X113406857Y-103469285D01*
X113406857Y-103897857D01*
X113335428Y-104040714D01*
X113264000Y-104112142D01*
X113121142Y-104183571D01*
X112835428Y-104183571D01*
X112692571Y-104112142D01*
X115978285Y-104183571D02*
X115121142Y-104183571D01*
X115549714Y-104183571D02*
X115549714Y-102683571D01*
X115406857Y-102897857D01*
X115264000Y-103040714D01*
X115121142Y-103112142D01*
D11*
X75788204Y-33231200D02*
X75692966Y-33183580D01*
X75550109Y-33183580D01*
X75407252Y-33231200D01*
X75312014Y-33326438D01*
X75264395Y-33421676D01*
X75216776Y-33612152D01*
X75216776Y-33755009D01*
X75264395Y-33945485D01*
X75312014Y-34040723D01*
X75407252Y-34135961D01*
X75550109Y-34183580D01*
X75645347Y-34183580D01*
X75788204Y-34135961D01*
X75835823Y-34088342D01*
X75835823Y-33755009D01*
X75645347Y-33755009D01*
D14*
X45000000Y-113000000D02*
G75*
G02*
X41000000Y-109000000I0J4000000D01*
G01*
X131000000Y-109000000D02*
G75*
G02*
X127000000Y-113000000I-4000000J0D01*
G01*
X127000000Y-23000000D02*
G75*
G02*
X131000000Y-27000000I0J-4000000D01*
G01*
X41000000Y-27000000D02*
G75*
G02*
X45000000Y-23000000I4000000J0D01*
G01*
D13*
X114236428Y-26523761D02*
X113093571Y-26523761D01*
X113665000Y-26523761D02*
X113665000Y-24523761D01*
X113474523Y-24809476D01*
X113284047Y-24999952D01*
X113093571Y-25095190D01*
X103568571Y-24714238D02*
X103663809Y-24619000D01*
X103854285Y-24523761D01*
X104330476Y-24523761D01*
X104520952Y-24619000D01*
X104616190Y-24714238D01*
X104711428Y-24904714D01*
X104711428Y-25095190D01*
X104616190Y-25380904D01*
X103473333Y-26523761D01*
X104711428Y-26523761D01*
X93948333Y-24523761D02*
X95186428Y-24523761D01*
X94519761Y-25285666D01*
X94805476Y-25285666D01*
X94995952Y-25380904D01*
X95091190Y-25476142D01*
X95186428Y-25666619D01*
X95186428Y-26142809D01*
X95091190Y-26333285D01*
X94995952Y-26428523D01*
X94805476Y-26523761D01*
X94234047Y-26523761D01*
X94043571Y-26428523D01*
X93948333Y-26333285D01*
X85343952Y-25190428D02*
X85343952Y-26523761D01*
X84867761Y-24428523D02*
X84391571Y-25857095D01*
X85629666Y-25857095D01*
X76041190Y-24523761D02*
X75088809Y-24523761D01*
X74993571Y-25476142D01*
X75088809Y-25380904D01*
X75279285Y-25285666D01*
X75755476Y-25285666D01*
X75945952Y-25380904D01*
X76041190Y-25476142D01*
X76136428Y-25666619D01*
X76136428Y-26142809D01*
X76041190Y-26333285D01*
X75945952Y-26428523D01*
X75755476Y-26523761D01*
X75279285Y-26523761D01*
X75088809Y-26428523D01*
X74993571Y-26333285D01*
X66420952Y-24523761D02*
X66040000Y-24523761D01*
X65849523Y-24619000D01*
X65754285Y-24714238D01*
X65563809Y-24999952D01*
X65468571Y-25380904D01*
X65468571Y-26142809D01*
X65563809Y-26333285D01*
X65659047Y-26428523D01*
X65849523Y-26523761D01*
X66230476Y-26523761D01*
X66420952Y-26428523D01*
X66516190Y-26333285D01*
X66611428Y-26142809D01*
X66611428Y-25666619D01*
X66516190Y-25476142D01*
X66420952Y-25380904D01*
X66230476Y-25285666D01*
X65849523Y-25285666D01*
X65659047Y-25380904D01*
X65563809Y-25476142D01*
X65468571Y-25666619D01*
D11*
X66263204Y-33104200D02*
X66167966Y-33056580D01*
X66025109Y-33056580D01*
X65882252Y-33104200D01*
X65787014Y-33199438D01*
X65739395Y-33294676D01*
X65691776Y-33485152D01*
X65691776Y-33628009D01*
X65739395Y-33818485D01*
X65787014Y-33913723D01*
X65882252Y-34008961D01*
X66025109Y-34056580D01*
X66120347Y-34056580D01*
X66263204Y-34008961D01*
X66310823Y-33961342D01*
X66310823Y-33628009D01*
X66120347Y-33628009D01*
X65501300Y-28103580D02*
X65025109Y-28103580D01*
X64977490Y-28579771D01*
X65025109Y-28532152D01*
X65120347Y-28484533D01*
X65358442Y-28484533D01*
X65453680Y-28532152D01*
X65501300Y-28579771D01*
X65548919Y-28675009D01*
X65548919Y-28913104D01*
X65501300Y-29008342D01*
X65453680Y-29055961D01*
X65358442Y-29103580D01*
X65120347Y-29103580D01*
X65025109Y-29055961D01*
X64977490Y-29008342D01*
X65882252Y-28436914D02*
X66120347Y-29103580D01*
X66358442Y-28436914D01*
X65739395Y-31595961D02*
X65882252Y-31643580D01*
X66120347Y-31643580D01*
X66215585Y-31595961D01*
X66263204Y-31548342D01*
X66310823Y-31453104D01*
X66310823Y-31357866D01*
X66263204Y-31262628D01*
X66215585Y-31215009D01*
X66120347Y-31167390D01*
X65929871Y-31119771D01*
X65834633Y-31072152D01*
X65787014Y-31024533D01*
X65739395Y-30929295D01*
X65739395Y-30834057D01*
X65787014Y-30738819D01*
X65834633Y-30691200D01*
X65929871Y-30643580D01*
X66167966Y-30643580D01*
X66310823Y-30691200D01*
X75051700Y-28078180D02*
X74575509Y-28078180D01*
X74527890Y-28554371D01*
X74575509Y-28506752D01*
X74670747Y-28459133D01*
X74908842Y-28459133D01*
X75004080Y-28506752D01*
X75051700Y-28554371D01*
X75099319Y-28649609D01*
X75099319Y-28887704D01*
X75051700Y-28982942D01*
X75004080Y-29030561D01*
X74908842Y-29078180D01*
X74670747Y-29078180D01*
X74575509Y-29030561D01*
X74527890Y-28982942D01*
X75432652Y-28411514D02*
X75670747Y-29078180D01*
X75908842Y-28411514D01*
X75289795Y-31570561D02*
X75432652Y-31618180D01*
X75670747Y-31618180D01*
X75765985Y-31570561D01*
X75813604Y-31522942D01*
X75861223Y-31427704D01*
X75861223Y-31332466D01*
X75813604Y-31237228D01*
X75765985Y-31189609D01*
X75670747Y-31141990D01*
X75480271Y-31094371D01*
X75385033Y-31046752D01*
X75337414Y-30999133D01*
X75289795Y-30903895D01*
X75289795Y-30808657D01*
X75337414Y-30713419D01*
X75385033Y-30665800D01*
X75480271Y-30618180D01*
X75718366Y-30618180D01*
X75861223Y-30665800D01*
X85338604Y-33078800D02*
X85243366Y-33031180D01*
X85100509Y-33031180D01*
X84957652Y-33078800D01*
X84862414Y-33174038D01*
X84814795Y-33269276D01*
X84767176Y-33459752D01*
X84767176Y-33602609D01*
X84814795Y-33793085D01*
X84862414Y-33888323D01*
X84957652Y-33983561D01*
X85100509Y-34031180D01*
X85195747Y-34031180D01*
X85338604Y-33983561D01*
X85386223Y-33935942D01*
X85386223Y-33602609D01*
X85195747Y-33602609D01*
X84576700Y-28078180D02*
X84100509Y-28078180D01*
X84052890Y-28554371D01*
X84100509Y-28506752D01*
X84195747Y-28459133D01*
X84433842Y-28459133D01*
X84529080Y-28506752D01*
X84576700Y-28554371D01*
X84624319Y-28649609D01*
X84624319Y-28887704D01*
X84576700Y-28982942D01*
X84529080Y-29030561D01*
X84433842Y-29078180D01*
X84195747Y-29078180D01*
X84100509Y-29030561D01*
X84052890Y-28982942D01*
X84957652Y-28411514D02*
X85195747Y-29078180D01*
X85433842Y-28411514D01*
X84814795Y-31570561D02*
X84957652Y-31618180D01*
X85195747Y-31618180D01*
X85290985Y-31570561D01*
X85338604Y-31522942D01*
X85386223Y-31427704D01*
X85386223Y-31332466D01*
X85338604Y-31237228D01*
X85290985Y-31189609D01*
X85195747Y-31141990D01*
X85005271Y-31094371D01*
X84910033Y-31046752D01*
X84862414Y-30999133D01*
X84814795Y-30903895D01*
X84814795Y-30808657D01*
X84862414Y-30713419D01*
X84910033Y-30665800D01*
X85005271Y-30618180D01*
X85243366Y-30618180D01*
X85386223Y-30665800D01*
D13*
X57345617Y-62632551D02*
X57917045Y-62632551D01*
X57559902Y-62132551D02*
X57559902Y-63418265D01*
X57631331Y-63561122D01*
X57774188Y-63632551D01*
X57917045Y-63632551D01*
X58988474Y-63561122D02*
X58845617Y-63632551D01*
X58559902Y-63632551D01*
X58417045Y-63561122D01*
X58345617Y-63418265D01*
X58345617Y-62846837D01*
X58417045Y-62703980D01*
X58559902Y-62632551D01*
X58845617Y-62632551D01*
X58988474Y-62703980D01*
X59059902Y-62846837D01*
X59059902Y-62989694D01*
X58345617Y-63132551D01*
X59702760Y-63632551D02*
X59702760Y-62632551D01*
X59702760Y-62918265D02*
X59774188Y-62775408D01*
X59845617Y-62703980D01*
X59988474Y-62632551D01*
X60131331Y-62632551D01*
X60631331Y-63632551D02*
X60631331Y-62632551D01*
X60631331Y-62918265D02*
X60702760Y-62775408D01*
X60774188Y-62703980D01*
X60917045Y-62632551D01*
X61059902Y-62632551D01*
X62202760Y-63632551D02*
X62202760Y-62846837D01*
X62131331Y-62703980D01*
X61988474Y-62632551D01*
X61702760Y-62632551D01*
X61559902Y-62703980D01*
X62202760Y-63561122D02*
X62059902Y-63632551D01*
X61702760Y-63632551D01*
X61559902Y-63561122D01*
X61488474Y-63418265D01*
X61488474Y-63275408D01*
X61559902Y-63132551D01*
X61702760Y-63061122D01*
X62059902Y-63061122D01*
X62202760Y-62989694D01*
X62917045Y-63632551D02*
X62917045Y-62632551D01*
X62917045Y-62918265D02*
X62988474Y-62775408D01*
X63059902Y-62703980D01*
X63202760Y-62632551D01*
X63345617Y-62632551D01*
X63845617Y-63632551D02*
X63845617Y-62632551D01*
X63845617Y-62132551D02*
X63774188Y-62203980D01*
X63845617Y-62275408D01*
X63917045Y-62203980D01*
X63845617Y-62132551D01*
X63845617Y-62275408D01*
X65202760Y-62632551D02*
X65202760Y-63632551D01*
X64559902Y-62632551D02*
X64559902Y-63418265D01*
X64631331Y-63561122D01*
X64774188Y-63632551D01*
X64988474Y-63632551D01*
X65131331Y-63561122D01*
X65202760Y-63489694D01*
X65917045Y-63632551D02*
X65917045Y-62632551D01*
X65917045Y-62775408D02*
X65988474Y-62703980D01*
X66131331Y-62632551D01*
X66345617Y-62632551D01*
X66488474Y-62703980D01*
X66559902Y-62846837D01*
X66559902Y-63632551D01*
X66559902Y-62846837D02*
X66631331Y-62703980D01*
X66774188Y-62632551D01*
X66988474Y-62632551D01*
X67131331Y-62703980D01*
X67202760Y-62846837D01*
X67202760Y-63632551D01*
X69702760Y-63561122D02*
X69559902Y-63632551D01*
X69274188Y-63632551D01*
X69131331Y-63561122D01*
X69059902Y-63489694D01*
X68988474Y-63346837D01*
X68988474Y-62918265D01*
X69059902Y-62775408D01*
X69131331Y-62703980D01*
X69274188Y-62632551D01*
X69559902Y-62632551D01*
X69702760Y-62703980D01*
X70559902Y-63632551D02*
X70417045Y-63561122D01*
X70345617Y-63489694D01*
X70274188Y-63346837D01*
X70274188Y-62918265D01*
X70345617Y-62775408D01*
X70417045Y-62703980D01*
X70559902Y-62632551D01*
X70774188Y-62632551D01*
X70917045Y-62703980D01*
X70988474Y-62775408D01*
X71059902Y-62918265D01*
X71059902Y-63346837D01*
X70988474Y-63489694D01*
X70917045Y-63561122D01*
X70774188Y-63632551D01*
X70559902Y-63632551D01*
X71702760Y-62632551D02*
X71702760Y-63632551D01*
X71702760Y-62775408D02*
X71774188Y-62703980D01*
X71917045Y-62632551D01*
X72131331Y-62632551D01*
X72274188Y-62703980D01*
X72345617Y-62846837D01*
X72345617Y-63632551D01*
X72845617Y-62632551D02*
X73417045Y-62632551D01*
X73059902Y-62132551D02*
X73059902Y-63418265D01*
X73131331Y-63561122D01*
X73274188Y-63632551D01*
X73417045Y-63632551D01*
X73917045Y-63632551D02*
X73917045Y-62632551D01*
X73917045Y-62918265D02*
X73988474Y-62775408D01*
X74059902Y-62703980D01*
X74202760Y-62632551D01*
X74345617Y-62632551D01*
X75059902Y-63632551D02*
X74917045Y-63561122D01*
X74845617Y-63489694D01*
X74774188Y-63346837D01*
X74774188Y-62918265D01*
X74845617Y-62775408D01*
X74917045Y-62703980D01*
X75059902Y-62632551D01*
X75274188Y-62632551D01*
X75417045Y-62703980D01*
X75488474Y-62775408D01*
X75559902Y-62918265D01*
X75559902Y-63346837D01*
X75488474Y-63489694D01*
X75417045Y-63561122D01*
X75274188Y-63632551D01*
X75059902Y-63632551D01*
X76417045Y-63632551D02*
X76274188Y-63561122D01*
X76202760Y-63418265D01*
X76202760Y-62132551D01*
X77202760Y-63632551D02*
X77059902Y-63561122D01*
X76988474Y-63418265D01*
X76988474Y-62132551D01*
X78345617Y-63561122D02*
X78202760Y-63632551D01*
X77917045Y-63632551D01*
X77774188Y-63561122D01*
X77702760Y-63418265D01*
X77702760Y-62846837D01*
X77774188Y-62703980D01*
X77917045Y-62632551D01*
X78202760Y-62632551D01*
X78345617Y-62703980D01*
X78417045Y-62846837D01*
X78417045Y-62989694D01*
X77702760Y-63132551D01*
X79059902Y-63632551D02*
X79059902Y-62632551D01*
X79059902Y-62918265D02*
X79131331Y-62775408D01*
X79202760Y-62703980D01*
X79345617Y-62632551D01*
X79488474Y-62632551D01*
X57417045Y-65182551D02*
X57774188Y-66182551D01*
X58131331Y-65182551D01*
X59488474Y-66182551D02*
X58631331Y-66182551D01*
X59059902Y-66182551D02*
X59059902Y-64682551D01*
X58917045Y-64896837D01*
X58774188Y-65039694D01*
X58631331Y-65111122D01*
X60131331Y-66039694D02*
X60202760Y-66111122D01*
X60131331Y-66182551D01*
X60059902Y-66111122D01*
X60131331Y-66039694D01*
X60131331Y-66182551D01*
X60702760Y-64682551D02*
X61631331Y-64682551D01*
X61131331Y-65253980D01*
X61345617Y-65253980D01*
X61488474Y-65325408D01*
X61559902Y-65396837D01*
X61631331Y-65539694D01*
X61631331Y-65896837D01*
X61559902Y-66039694D01*
X61488474Y-66111122D01*
X61345617Y-66182551D01*
X60917045Y-66182551D01*
X60774188Y-66111122D01*
X60702760Y-66039694D01*
D11*
X94390595Y-31595961D02*
X94533452Y-31643580D01*
X94771547Y-31643580D01*
X94866785Y-31595961D01*
X94914404Y-31548342D01*
X94962023Y-31453104D01*
X94962023Y-31357866D01*
X94914404Y-31262628D01*
X94866785Y-31215009D01*
X94771547Y-31167390D01*
X94581071Y-31119771D01*
X94485833Y-31072152D01*
X94438214Y-31024533D01*
X94390595Y-30929295D01*
X94390595Y-30834057D01*
X94438214Y-30738819D01*
X94485833Y-30691200D01*
X94581071Y-30643580D01*
X94819166Y-30643580D01*
X94962023Y-30691200D01*
X113227900Y-28128980D02*
X112751709Y-28128980D01*
X112704090Y-28605171D01*
X112751709Y-28557552D01*
X112846947Y-28509933D01*
X113085042Y-28509933D01*
X113180280Y-28557552D01*
X113227900Y-28605171D01*
X113275519Y-28700409D01*
X113275519Y-28938504D01*
X113227900Y-29033742D01*
X113180280Y-29081361D01*
X113085042Y-29128980D01*
X112846947Y-29128980D01*
X112751709Y-29081361D01*
X112704090Y-29033742D01*
X113608852Y-28462314D02*
X113846947Y-29128980D01*
X114085042Y-28462314D01*
X113465995Y-31748361D02*
X113608852Y-31795980D01*
X113846947Y-31795980D01*
X113942185Y-31748361D01*
X113989804Y-31700742D01*
X114037423Y-31605504D01*
X114037423Y-31510266D01*
X113989804Y-31415028D01*
X113942185Y-31367409D01*
X113846947Y-31319790D01*
X113656471Y-31272171D01*
X113561233Y-31224552D01*
X113513614Y-31176933D01*
X113465995Y-31081695D01*
X113465995Y-30986457D01*
X113513614Y-30891219D01*
X113561233Y-30843600D01*
X113656471Y-30795980D01*
X113894566Y-30795980D01*
X114037423Y-30843600D01*
X103677500Y-28154380D02*
X103201309Y-28154380D01*
X103153690Y-28630571D01*
X103201309Y-28582952D01*
X103296547Y-28535333D01*
X103534642Y-28535333D01*
X103629880Y-28582952D01*
X103677500Y-28630571D01*
X103725119Y-28725809D01*
X103725119Y-28963904D01*
X103677500Y-29059142D01*
X103629880Y-29106761D01*
X103534642Y-29154380D01*
X103296547Y-29154380D01*
X103201309Y-29106761D01*
X103153690Y-29059142D01*
X104058452Y-28487714D02*
X104296547Y-29154380D01*
X104534642Y-28487714D01*
X103915595Y-31773761D02*
X104058452Y-31821380D01*
X104296547Y-31821380D01*
X104391785Y-31773761D01*
X104439404Y-31726142D01*
X104487023Y-31630904D01*
X104487023Y-31535666D01*
X104439404Y-31440428D01*
X104391785Y-31392809D01*
X104296547Y-31345190D01*
X104106071Y-31297571D01*
X104010833Y-31249952D01*
X103963214Y-31202333D01*
X103915595Y-31107095D01*
X103915595Y-31011857D01*
X103963214Y-30916619D01*
X104010833Y-30869000D01*
X104106071Y-30821380D01*
X104344166Y-30821380D01*
X104487023Y-30869000D01*
X94152500Y-28103580D02*
X93676309Y-28103580D01*
X93628690Y-28579771D01*
X93676309Y-28532152D01*
X93771547Y-28484533D01*
X94009642Y-28484533D01*
X94104880Y-28532152D01*
X94152500Y-28579771D01*
X94200119Y-28675009D01*
X94200119Y-28913104D01*
X94152500Y-29008342D01*
X94104880Y-29055961D01*
X94009642Y-29103580D01*
X93771547Y-29103580D01*
X93676309Y-29055961D01*
X93628690Y-29008342D01*
X94533452Y-28436914D02*
X94771547Y-29103580D01*
X95009642Y-28436914D01*
X113989804Y-33256600D02*
X113894566Y-33208980D01*
X113751709Y-33208980D01*
X113608852Y-33256600D01*
X113513614Y-33351838D01*
X113465995Y-33447076D01*
X113418376Y-33637552D01*
X113418376Y-33780409D01*
X113465995Y-33970885D01*
X113513614Y-34066123D01*
X113608852Y-34161361D01*
X113751709Y-34208980D01*
X113846947Y-34208980D01*
X113989804Y-34161361D01*
X114037423Y-34113742D01*
X114037423Y-33780409D01*
X113846947Y-33780409D01*
X104439404Y-33282000D02*
X104344166Y-33234380D01*
X104201309Y-33234380D01*
X104058452Y-33282000D01*
X103963214Y-33377238D01*
X103915595Y-33472476D01*
X103867976Y-33662952D01*
X103867976Y-33805809D01*
X103915595Y-33996285D01*
X103963214Y-34091523D01*
X104058452Y-34186761D01*
X104201309Y-34234380D01*
X104296547Y-34234380D01*
X104439404Y-34186761D01*
X104487023Y-34139142D01*
X104487023Y-33805809D01*
X104296547Y-33805809D01*
X94914404Y-33104200D02*
X94819166Y-33056580D01*
X94676309Y-33056580D01*
X94533452Y-33104200D01*
X94438214Y-33199438D01*
X94390595Y-33294676D01*
X94342976Y-33485152D01*
X94342976Y-33628009D01*
X94390595Y-33818485D01*
X94438214Y-33913723D01*
X94533452Y-34008961D01*
X94676309Y-34056580D01*
X94771547Y-34056580D01*
X94914404Y-34008961D01*
X94962023Y-33961342D01*
X94962023Y-33628009D01*
X94771547Y-33628009D01*
X51959452Y-110259880D02*
X51959452Y-110974166D01*
X51911833Y-111117023D01*
X51816595Y-111212261D01*
X51673738Y-111259880D01*
X51578500Y-111259880D01*
X52911833Y-111259880D02*
X52435642Y-111259880D01*
X52435642Y-110259880D01*
X53816595Y-111164642D02*
X53768976Y-111212261D01*
X53626119Y-111259880D01*
X53530880Y-111259880D01*
X53388023Y-111212261D01*
X53292785Y-111117023D01*
X53245166Y-111021785D01*
X53197547Y-110831309D01*
X53197547Y-110688452D01*
X53245166Y-110497976D01*
X53292785Y-110402738D01*
X53388023Y-110307500D01*
X53530880Y-110259880D01*
X53626119Y-110259880D01*
X53768976Y-110307500D01*
X53816595Y-110355119D01*
X54530880Y-110259880D02*
X54530880Y-110974166D01*
X54483261Y-111117023D01*
X54388023Y-111212261D01*
X54245166Y-111259880D01*
X54149928Y-111259880D01*
X55483261Y-111259880D02*
X55007071Y-111259880D01*
X55007071Y-110259880D01*
X56388023Y-111164642D02*
X56340404Y-111212261D01*
X56197547Y-111259880D01*
X56102309Y-111259880D01*
X55959452Y-111212261D01*
X55864214Y-111117023D01*
X55816595Y-111021785D01*
X55768976Y-110831309D01*
X55768976Y-110688452D01*
X55816595Y-110497976D01*
X55864214Y-110402738D01*
X55959452Y-110307500D01*
X56102309Y-110259880D01*
X56197547Y-110259880D01*
X56340404Y-110307500D01*
X56388023Y-110355119D01*
X57102309Y-110259880D02*
X57102309Y-110974166D01*
X57054690Y-111117023D01*
X56959452Y-111212261D01*
X56816595Y-111259880D01*
X56721357Y-111259880D01*
X58054690Y-111259880D02*
X57578500Y-111259880D01*
X57578500Y-110259880D01*
X58959452Y-111164642D02*
X58911833Y-111212261D01*
X58768976Y-111259880D01*
X58673738Y-111259880D01*
X58530880Y-111212261D01*
X58435642Y-111117023D01*
X58388023Y-111021785D01*
X58340404Y-110831309D01*
X58340404Y-110688452D01*
X58388023Y-110497976D01*
X58435642Y-110402738D01*
X58530880Y-110307500D01*
X58673738Y-110259880D01*
X58768976Y-110259880D01*
X58911833Y-110307500D01*
X58959452Y-110355119D01*
X59673738Y-110259880D02*
X59673738Y-110974166D01*
X59626119Y-111117023D01*
X59530880Y-111212261D01*
X59388023Y-111259880D01*
X59292785Y-111259880D01*
X60626119Y-111259880D02*
X60149928Y-111259880D01*
X60149928Y-110259880D01*
X61530880Y-111164642D02*
X61483261Y-111212261D01*
X61340404Y-111259880D01*
X61245166Y-111259880D01*
X61102309Y-111212261D01*
X61007071Y-111117023D01*
X60959452Y-111021785D01*
X60911833Y-110831309D01*
X60911833Y-110688452D01*
X60959452Y-110497976D01*
X61007071Y-110402738D01*
X61102309Y-110307500D01*
X61245166Y-110259880D01*
X61340404Y-110259880D01*
X61483261Y-110307500D01*
X61530880Y-110355119D01*
D14*
X127000000Y-23000000D02*
X45000000Y-23000000D01*
X131000000Y-109000000D02*
X131000000Y-27000000D01*
X45000000Y-113000000D02*
X127000000Y-113000000D01*
X41000000Y-27000000D02*
X41000000Y-109000000D01*
D13*
X44036371Y-65798971D02*
X43036371Y-65798971D01*
X42536371Y-65798971D02*
X42607800Y-65870400D01*
X42679228Y-65798971D01*
X42607800Y-65727542D01*
X42536371Y-65798971D01*
X42679228Y-65798971D01*
X42679228Y-65156114D02*
X42607800Y-65084685D01*
X42536371Y-64941828D01*
X42536371Y-64584685D01*
X42607800Y-64441828D01*
X42679228Y-64370400D01*
X42822085Y-64298971D01*
X42964942Y-64298971D01*
X43179228Y-64370400D01*
X44036371Y-65227542D01*
X44036371Y-64298971D01*
X43964942Y-63013257D02*
X44036371Y-63156114D01*
X44036371Y-63441828D01*
X43964942Y-63584685D01*
X43893514Y-63656114D01*
X43750657Y-63727542D01*
X43322085Y-63727542D01*
X43179228Y-63656114D01*
X43107800Y-63584685D01*
X43036371Y-63441828D01*
X43036371Y-63156114D01*
X43107800Y-63013257D01*
X43250657Y-60727542D02*
X43322085Y-60513257D01*
X43393514Y-60441828D01*
X43536371Y-60370400D01*
X43750657Y-60370400D01*
X43893514Y-60441828D01*
X43964942Y-60513257D01*
X44036371Y-60656114D01*
X44036371Y-61227542D01*
X42536371Y-61227542D01*
X42536371Y-60727542D01*
X42607800Y-60584685D01*
X42679228Y-60513257D01*
X42822085Y-60441828D01*
X42964942Y-60441828D01*
X43107800Y-60513257D01*
X43179228Y-60584685D01*
X43250657Y-60727542D01*
X43250657Y-61227542D01*
X42536371Y-59727542D02*
X43750657Y-59727542D01*
X43893514Y-59656114D01*
X43964942Y-59584685D01*
X44036371Y-59441828D01*
X44036371Y-59156114D01*
X43964942Y-59013257D01*
X43893514Y-58941828D01*
X43750657Y-58870400D01*
X42536371Y-58870400D01*
X43964942Y-58227542D02*
X44036371Y-58013257D01*
X44036371Y-57656114D01*
X43964942Y-57513257D01*
X43893514Y-57441828D01*
X43750657Y-57370400D01*
X43607800Y-57370400D01*
X43464942Y-57441828D01*
X43393514Y-57513257D01*
X43322085Y-57656114D01*
X43250657Y-57941828D01*
X43179228Y-58084685D01*
X43107800Y-58156114D01*
X42964942Y-58227542D01*
X42822085Y-58227542D01*
X42679228Y-58156114D01*
X42607800Y-58084685D01*
X42536371Y-57941828D01*
X42536371Y-57584685D01*
X42607800Y-57370400D01*
D11*
X51512452Y-44981761D02*
X51655309Y-45029380D01*
X51893404Y-45029380D01*
X51988642Y-44981761D01*
X52036261Y-44934142D01*
X52083880Y-44838904D01*
X52083880Y-44743666D01*
X52036261Y-44648428D01*
X51988642Y-44600809D01*
X51893404Y-44553190D01*
X51702928Y-44505571D01*
X51607690Y-44457952D01*
X51560071Y-44410333D01*
X51512452Y-44315095D01*
X51512452Y-44219857D01*
X51560071Y-44124619D01*
X51607690Y-44077000D01*
X51702928Y-44029380D01*
X51941023Y-44029380D01*
X52083880Y-44077000D01*
X52512452Y-45029380D02*
X52512452Y-44029380D01*
X52750547Y-44029380D01*
X52893404Y-44077000D01*
X52988642Y-44172238D01*
X53036261Y-44267476D01*
X53083880Y-44457952D01*
X53083880Y-44600809D01*
X53036261Y-44791285D01*
X52988642Y-44886523D01*
X52893404Y-44981761D01*
X52750547Y-45029380D01*
X52512452Y-45029380D01*
X53464833Y-44743666D02*
X53941023Y-44743666D01*
X53369595Y-45029380D02*
X53702928Y-44029380D01*
X54036261Y-45029380D01*
X51560071Y-42441761D02*
X51702928Y-42489380D01*
X51941023Y-42489380D01*
X52036261Y-42441761D01*
X52083880Y-42394142D01*
X52131500Y-42298904D01*
X52131500Y-42203666D01*
X52083880Y-42108428D01*
X52036261Y-42060809D01*
X51941023Y-42013190D01*
X51750547Y-41965571D01*
X51655309Y-41917952D01*
X51607690Y-41870333D01*
X51560071Y-41775095D01*
X51560071Y-41679857D01*
X51607690Y-41584619D01*
X51655309Y-41537000D01*
X51750547Y-41489380D01*
X51988642Y-41489380D01*
X52131500Y-41537000D01*
X53131500Y-42394142D02*
X53083880Y-42441761D01*
X52941023Y-42489380D01*
X52845785Y-42489380D01*
X52702928Y-42441761D01*
X52607690Y-42346523D01*
X52560071Y-42251285D01*
X52512452Y-42060809D01*
X52512452Y-41917952D01*
X52560071Y-41727476D01*
X52607690Y-41632238D01*
X52702928Y-41537000D01*
X52845785Y-41489380D01*
X52941023Y-41489380D01*
X53083880Y-41537000D01*
X53131500Y-41584619D01*
X54036261Y-42489380D02*
X53560071Y-42489380D01*
X53560071Y-41489380D01*
X51972785Y-49030000D02*
X51877547Y-48982380D01*
X51734690Y-48982380D01*
X51591833Y-49030000D01*
X51496595Y-49125238D01*
X51448976Y-49220476D01*
X51401357Y-49410952D01*
X51401357Y-49553809D01*
X51448976Y-49744285D01*
X51496595Y-49839523D01*
X51591833Y-49934761D01*
X51734690Y-49982380D01*
X51829928Y-49982380D01*
X51972785Y-49934761D01*
X52020404Y-49887142D01*
X52020404Y-49553809D01*
X51829928Y-49553809D01*
X52448976Y-49982380D02*
X52448976Y-48982380D01*
X53020404Y-49982380D01*
X53020404Y-48982380D01*
X53496595Y-49982380D02*
X53496595Y-48982380D01*
X53734690Y-48982380D01*
X53877547Y-49030000D01*
X53972785Y-49125238D01*
X54020404Y-49220476D01*
X54068023Y-49410952D01*
X54068023Y-49553809D01*
X54020404Y-49744285D01*
X53972785Y-49839523D01*
X53877547Y-49934761D01*
X53734690Y-49982380D01*
X53496595Y-49982380D01*
X51988500Y-46569380D02*
X51512309Y-46569380D01*
X51464690Y-47045571D01*
X51512309Y-46997952D01*
X51607547Y-46950333D01*
X51845642Y-46950333D01*
X51940880Y-46997952D01*
X51988500Y-47045571D01*
X52036119Y-47140809D01*
X52036119Y-47378904D01*
X51988500Y-47474142D01*
X51940880Y-47521761D01*
X51845642Y-47569380D01*
X51607547Y-47569380D01*
X51512309Y-47521761D01*
X51464690Y-47474142D01*
X52369452Y-46902714D02*
X52607547Y-47569380D01*
X52845642Y-46902714D01*
D13*
X43858571Y-46882714D02*
X43858571Y-47597000D01*
X42358571Y-47597000D01*
X43715714Y-45525571D02*
X43787142Y-45597000D01*
X43858571Y-45811285D01*
X43858571Y-45954142D01*
X43787142Y-46168428D01*
X43644285Y-46311285D01*
X43501428Y-46382714D01*
X43215714Y-46454142D01*
X43001428Y-46454142D01*
X42715714Y-46382714D01*
X42572857Y-46311285D01*
X42430000Y-46168428D01*
X42358571Y-45954142D01*
X42358571Y-45811285D01*
X42430000Y-45597000D01*
X42501428Y-45525571D01*
X43858571Y-44882714D02*
X42358571Y-44882714D01*
X42358571Y-44525571D01*
X42430000Y-44311285D01*
X42572857Y-44168428D01*
X42715714Y-44097000D01*
X43001428Y-44025571D01*
X43215714Y-44025571D01*
X43501428Y-44097000D01*
X43644285Y-44168428D01*
X43787142Y-44311285D01*
X43858571Y-44525571D01*
X43858571Y-44882714D01*
D10*
%TO.C,D2*%
X87166700Y-82043400D02*
X93051700Y-82043400D01*
X93051700Y-82043400D02*
X93051700Y-77773400D01*
X93051700Y-77773400D02*
X87166700Y-77773400D01*
%TO.C,D1*%
X105200700Y-82043400D02*
X111085700Y-82043400D01*
X111085700Y-82043400D02*
X111085700Y-77773400D01*
X111085700Y-77773400D02*
X105200700Y-77773400D01*
%TO.C,D3*%
X69132700Y-82043400D02*
X75017700Y-82043400D01*
X75017700Y-82043400D02*
X75017700Y-77773400D01*
X75017700Y-77773400D02*
X69132700Y-77773400D01*
%TO.C,SW3*%
X46863000Y-72231667D02*
X45593000Y-72231667D01*
X45663000Y-71025000D02*
X45663000Y-72231667D01*
X45783000Y-71025000D02*
X45783000Y-72231667D01*
X45903000Y-71025000D02*
X45903000Y-72231667D01*
X46023000Y-71025000D02*
X46023000Y-72231667D01*
X46143000Y-71025000D02*
X46143000Y-72231667D01*
X46263000Y-71025000D02*
X46263000Y-72231667D01*
X46383000Y-71025000D02*
X46383000Y-72231667D01*
X46503000Y-71025000D02*
X46503000Y-72231667D01*
X46623000Y-71025000D02*
X46623000Y-72231667D01*
X46743000Y-71025000D02*
X46743000Y-72231667D01*
X46863000Y-74645000D02*
X46863000Y-71025000D01*
X45593000Y-74645000D02*
X46863000Y-74645000D01*
X45593000Y-71025000D02*
X45593000Y-74645000D01*
X46863000Y-71025000D02*
X45593000Y-71025000D01*
X48578000Y-69185000D02*
X47195000Y-69185000D01*
X48578000Y-69185000D02*
X48578000Y-70568000D01*
X45428000Y-76245000D02*
X44118000Y-76245000D01*
X48338000Y-76245000D02*
X47028000Y-76245000D01*
X45428000Y-69425000D02*
X44118000Y-69425000D01*
X48338000Y-69425000D02*
X47028000Y-69425000D01*
X44118000Y-69425000D02*
X44118000Y-76245000D01*
X48338000Y-69425000D02*
X48338000Y-76245000D01*
%TO.C,U1*%
X105715000Y-47125000D02*
X104935000Y-47125000D01*
X104935000Y-47125000D02*
X104935000Y-48125000D01*
X105715000Y-65365000D02*
X104935000Y-65365000D01*
X104935000Y-65365000D02*
X104935000Y-64365000D01*
X130680000Y-47125000D02*
X130680000Y-65365000D01*
X130680000Y-65365000D02*
X124260000Y-65365000D01*
X130680000Y-47125000D02*
X124260000Y-47125000D01*
X124260000Y-47125000D02*
X124260000Y-46745000D01*
%TO.C,D4*%
X56384000Y-69096000D02*
X52499000Y-69096000D01*
X56384000Y-71366000D02*
X56384000Y-69096000D01*
X52499000Y-71366000D02*
X56384000Y-71366000D01*
%TO.C,HT3*%
X101520000Y-26105000D02*
X95550000Y-26105000D01*
X95550000Y-26105000D02*
X95550000Y-36225000D01*
X95550000Y-36225000D02*
X101520000Y-36225000D01*
X101520000Y-36225000D02*
X101520000Y-26105000D01*
X101510000Y-29415000D02*
X100760000Y-29415000D01*
X100760000Y-29415000D02*
X100760000Y-32915000D01*
X100760000Y-32915000D02*
X101510000Y-32915000D01*
X101510000Y-32915000D02*
X101510000Y-29415000D01*
X101510000Y-26115000D02*
X100760000Y-26115000D01*
X100760000Y-26115000D02*
X100760000Y-27915000D01*
X100760000Y-27915000D02*
X101510000Y-27915000D01*
X101510000Y-27915000D02*
X101510000Y-26115000D01*
X101510000Y-34415000D02*
X100760000Y-34415000D01*
X100760000Y-34415000D02*
X100760000Y-36215000D01*
X100760000Y-36215000D02*
X101510000Y-36215000D01*
X101510000Y-36215000D02*
X101510000Y-34415000D01*
X99260000Y-26115000D02*
X99260000Y-26865000D01*
X99260000Y-26865000D02*
X97920000Y-26865000D01*
X96310000Y-31165000D02*
X96310000Y-27925000D01*
X99260000Y-36215000D02*
X99260000Y-35465000D01*
X99260000Y-35465000D02*
X96310000Y-35465000D01*
X96310000Y-35465000D02*
X96310000Y-31165000D01*
X101810000Y-27065000D02*
X101810000Y-25815000D01*
X101810000Y-25815000D02*
X100560000Y-25815000D01*
%TO.C,LED3*%
X69400000Y-74000000D02*
X73285000Y-74000000D01*
X73285000Y-74000000D02*
X73285000Y-71730000D01*
X73285000Y-71730000D02*
X69400000Y-71730000D01*
%TO.C,R10*%
X103322800Y-60548436D02*
X103322800Y-62002564D01*
X101502800Y-60548436D02*
X101502800Y-62002564D01*
%TO.C,R11*%
X103272000Y-46883236D02*
X103272000Y-48337364D01*
X101452000Y-46883236D02*
X101452000Y-48337364D01*
%TO.C,LED1*%
X105400000Y-74000000D02*
X109285000Y-74000000D01*
X109285000Y-74000000D02*
X109285000Y-71730000D01*
X109285000Y-71730000D02*
X105400000Y-71730000D01*
%TO.C,LED2*%
X87400000Y-74000000D02*
X91285000Y-74000000D01*
X91285000Y-74000000D02*
X91285000Y-71730000D01*
X91285000Y-71730000D02*
X87400000Y-71730000D01*
%TO.C,LED4*%
X125701800Y-38320600D02*
X129586800Y-38320600D01*
X129586800Y-38320600D02*
X129586800Y-36050600D01*
X129586800Y-36050600D02*
X125701800Y-36050600D01*
%TO.C,R12*%
X126512236Y-32491000D02*
X127966364Y-32491000D01*
X126512236Y-34311000D02*
X127966364Y-34311000D01*
%TO.C,C2*%
X121687000Y-41171548D02*
X121687000Y-42594052D01*
X119867000Y-41171548D02*
X119867000Y-42594052D01*
%TO.C,C3*%
X107920200Y-41198748D02*
X107920200Y-42621252D01*
X106100200Y-41198748D02*
X106100200Y-42621252D01*
%TO.C,C1*%
X58885500Y-26530248D02*
X58885500Y-27952752D01*
X57065500Y-26530248D02*
X57065500Y-27952752D01*
%TO.C,R9*%
X90653764Y-44547200D02*
X89199636Y-44547200D01*
X90653764Y-42727200D02*
X89199636Y-42727200D01*
%TO.C,R8*%
X89301236Y-56798800D02*
X90755364Y-56798800D01*
X89301236Y-58618800D02*
X90755364Y-58618800D01*
%TO.C,R7*%
X78272936Y-71955000D02*
X79727064Y-71955000D01*
X78272936Y-73775000D02*
X79727064Y-73775000D01*
%TO.C,R6*%
X71727064Y-77275000D02*
X70272936Y-77275000D01*
X71727064Y-75455000D02*
X70272936Y-75455000D01*
%TO.C,R4*%
X89727064Y-77275000D02*
X88272936Y-77275000D01*
X89727064Y-75455000D02*
X88272936Y-75455000D01*
%TO.C,R3*%
X96272936Y-71955000D02*
X97727064Y-71955000D01*
X96272936Y-73775000D02*
X97727064Y-73775000D01*
%TO.C,R2*%
X107727064Y-77275000D02*
X106272936Y-77275000D01*
X107727064Y-75455000D02*
X106272936Y-75455000D01*
%TO.C,R1*%
X114772936Y-71955000D02*
X116227064Y-71955000D01*
X114772936Y-73775000D02*
X116227064Y-73775000D01*
%TO.C,R5*%
X53624564Y-34882500D02*
X52170436Y-34882500D01*
X53624564Y-33062500D02*
X52170436Y-33062500D01*
%TO.C,U3*%
X111755000Y-38500000D02*
X111755000Y-39760000D01*
X111755000Y-45320000D02*
X111755000Y-44060000D01*
X115515000Y-38500000D02*
X111755000Y-38500000D01*
X117765000Y-45320000D02*
X111755000Y-45320000D01*
%TO.C,SW2*%
X95730800Y-62376600D02*
X95730800Y-55556600D01*
X99950800Y-62376600D02*
X99950800Y-55556600D01*
X95730800Y-62376600D02*
X97040800Y-62376600D01*
X98640800Y-62376600D02*
X99950800Y-62376600D01*
X95730800Y-55556600D02*
X97040800Y-55556600D01*
X98640800Y-55556600D02*
X99950800Y-55556600D01*
X95490800Y-62616600D02*
X95490800Y-61233600D01*
X95490800Y-62616600D02*
X96873800Y-62616600D01*
X97205800Y-60776600D02*
X98475800Y-60776600D01*
X98475800Y-60776600D02*
X98475800Y-57156600D01*
X98475800Y-57156600D02*
X97205800Y-57156600D01*
X97205800Y-57156600D02*
X97205800Y-60776600D01*
X97325800Y-60776600D02*
X97325800Y-59569933D01*
X97445800Y-60776600D02*
X97445800Y-59569933D01*
X97565800Y-60776600D02*
X97565800Y-59569933D01*
X97685800Y-60776600D02*
X97685800Y-59569933D01*
X97805800Y-60776600D02*
X97805800Y-59569933D01*
X97925800Y-60776600D02*
X97925800Y-59569933D01*
X98045800Y-60776600D02*
X98045800Y-59569933D01*
X98165800Y-60776600D02*
X98165800Y-59569933D01*
X98285800Y-60776600D02*
X98285800Y-59569933D01*
X98405800Y-60776600D02*
X98405800Y-59569933D01*
X97205800Y-59569933D02*
X98475800Y-59569933D01*
%TO.C,SW1*%
X99900000Y-41866000D02*
X99900000Y-48686000D01*
X95680000Y-41866000D02*
X95680000Y-48686000D01*
X99900000Y-41866000D02*
X98590000Y-41866000D01*
X96990000Y-41866000D02*
X95680000Y-41866000D01*
X99900000Y-48686000D02*
X98590000Y-48686000D01*
X96990000Y-48686000D02*
X95680000Y-48686000D01*
X100140000Y-41626000D02*
X100140000Y-43009000D01*
X100140000Y-41626000D02*
X98757000Y-41626000D01*
X98425000Y-43466000D02*
X97155000Y-43466000D01*
X97155000Y-43466000D02*
X97155000Y-47086000D01*
X97155000Y-47086000D02*
X98425000Y-47086000D01*
X98425000Y-47086000D02*
X98425000Y-43466000D01*
X98305000Y-43466000D02*
X98305000Y-44672667D01*
X98185000Y-43466000D02*
X98185000Y-44672667D01*
X98065000Y-43466000D02*
X98065000Y-44672667D01*
X97945000Y-43466000D02*
X97945000Y-44672667D01*
X97825000Y-43466000D02*
X97825000Y-44672667D01*
X97705000Y-43466000D02*
X97705000Y-44672667D01*
X97585000Y-43466000D02*
X97585000Y-44672667D01*
X97465000Y-43466000D02*
X97465000Y-44672667D01*
X97345000Y-43466000D02*
X97345000Y-44672667D01*
X97225000Y-43466000D02*
X97225000Y-44672667D01*
X98425000Y-44672667D02*
X97155000Y-44672667D01*
%TO.C,S4*%
X129540000Y-75565000D02*
X129540000Y-85725000D01*
X130810000Y-75565000D02*
X123190000Y-75565000D01*
X123190000Y-75565000D02*
X123190000Y-85725000D01*
X123190000Y-85725000D02*
X130810000Y-85725000D01*
X130810000Y-85725000D02*
X130810000Y-75565000D01*
%TO.C,UART1*%
X110590020Y-68377760D02*
X110590020Y-71037760D01*
X118270020Y-68377760D02*
X110590020Y-68377760D01*
X118270020Y-71037760D02*
X110590020Y-71037760D01*
X118270020Y-68377760D02*
X118270020Y-71037760D01*
X119540020Y-68377760D02*
X120870020Y-68377760D01*
X120870020Y-68377760D02*
X120870020Y-69707760D01*
%TO.C,U2*%
X82881000Y-45668000D02*
X81066000Y-45668000D01*
X82881000Y-45413000D02*
X82881000Y-45668000D01*
X86741000Y-45413000D02*
X82881000Y-45413000D01*
X90601000Y-45413000D02*
X90601000Y-45668000D01*
X86741000Y-45413000D02*
X90601000Y-45413000D01*
X82881000Y-55933000D02*
X82881000Y-55678000D01*
X86741000Y-55933000D02*
X82881000Y-55933000D01*
X90601000Y-55933000D02*
X90601000Y-55678000D01*
X86741000Y-55933000D02*
X90601000Y-55933000D01*
%TO.C,BT1*%
X57839000Y-75733000D02*
X57839000Y-79351000D01*
X56129000Y-75733000D02*
X57839000Y-75733000D01*
X62339000Y-82195700D02*
X62339000Y-97890300D01*
X56129000Y-104353000D02*
X57839000Y-104353000D01*
X57839000Y-100735000D02*
X57839000Y-104353000D01*
X50619000Y-104353000D02*
X50619000Y-100735000D01*
X52329000Y-104353000D02*
X50619000Y-104353000D01*
X46119000Y-97890300D02*
X46119000Y-93903000D01*
X48319000Y-91703000D02*
X46119000Y-93903000D01*
X48319000Y-91703000D02*
X48319000Y-88383000D01*
X48319000Y-88383000D02*
X46119000Y-86183000D01*
X46119000Y-86183000D02*
X46119000Y-82195700D01*
X50619000Y-79351000D02*
X50619000Y-75733000D01*
X52329000Y-75733000D02*
X50619000Y-75733000D01*
X62340789Y-82197630D02*
G75*
G03*
X57839000Y-79351000I-8111789J-7845370D01*
G01*
X46117211Y-97888370D02*
G75*
G03*
X50619000Y-100735000I8111789J7845370D01*
G01*
X62340789Y-97888370D02*
G75*
G02*
X57839000Y-100735000I-8111789J7845370D01*
G01*
X46117211Y-82197630D02*
G75*
G02*
X50619000Y-79351000I8111789J-7845370D01*
G01*
%TO.C,Q3*%
X76650000Y-75335000D02*
X76650000Y-78935000D01*
X76661522Y-78973478D02*
G75*
G03*
X81100000Y-77135000I1838478J1838478D01*
G01*
X76661522Y-75296522D02*
G75*
G02*
X81100000Y-77135000I1838478J-1838478D01*
G01*
%TO.C,Q2*%
X95150000Y-75335000D02*
X95150000Y-78935000D01*
X95161522Y-78973478D02*
G75*
G03*
X99600000Y-77135000I1838478J1838478D01*
G01*
X95161522Y-75296522D02*
G75*
G02*
X99600000Y-77135000I1838478J-1838478D01*
G01*
%TO.C,Q1*%
X113650000Y-75335000D02*
X113650000Y-78935000D01*
X113661522Y-78973478D02*
G75*
G03*
X118100000Y-77135000I1838478J1838478D01*
G01*
X113661522Y-75296522D02*
G75*
G02*
X118100000Y-77135000I1838478J-1838478D01*
G01*
%TO.C,S3*%
X70960000Y-112522000D02*
X81120000Y-112522000D01*
X70960000Y-104902000D02*
X70960000Y-112522000D01*
X81120000Y-104902000D02*
X70960000Y-104902000D01*
X81120000Y-112522000D02*
X81120000Y-104902000D01*
X81120000Y-111252000D02*
X70960000Y-111252000D01*
%TO.C,RE3*%
X74150000Y-92050000D02*
X74150000Y-88050000D01*
X77750000Y-92050000D02*
X74150000Y-92050000D01*
X77750000Y-88050000D02*
X77750000Y-92050000D01*
X74150000Y-88050000D02*
X77750000Y-88050000D01*
X74150000Y-92050000D02*
X77750000Y-88050000D01*
X74150000Y-90050000D02*
X69950000Y-90050000D01*
X81950000Y-90050000D02*
X77750000Y-90050000D01*
X75950000Y-86650000D02*
X72350000Y-86650000D01*
X75950000Y-93450000D02*
X72350000Y-93450000D01*
X72350000Y-93450000D02*
X72350000Y-86650000D01*
X75950000Y-94950000D02*
X78450000Y-99550000D01*
X75950000Y-93450000D02*
X75950000Y-94950000D01*
X81950000Y-90050000D02*
X81950000Y-87550000D01*
X75950000Y-86650000D02*
X75950000Y-85850000D01*
X69950000Y-87550000D02*
X69950000Y-90050000D01*
X80200000Y-98150000D02*
X77700000Y-98150000D01*
X71800000Y-98150000D02*
X74250000Y-98150000D01*
X68200000Y-102400000D02*
X68200000Y-82600000D01*
X83800000Y-102400000D02*
X68200000Y-102400000D01*
X83800000Y-82600000D02*
X83800000Y-102400000D01*
X83800000Y-82600000D02*
X77200000Y-82600000D01*
X74800000Y-82600000D02*
X68200000Y-82600000D01*
%TO.C,S2*%
X99120000Y-111252000D02*
X88960000Y-111252000D01*
X99120000Y-112522000D02*
X99120000Y-104902000D01*
X99120000Y-104902000D02*
X88960000Y-104902000D01*
X88960000Y-104902000D02*
X88960000Y-112522000D01*
X88960000Y-112522000D02*
X99120000Y-112522000D01*
%TO.C,S1*%
X117120000Y-111252000D02*
X106960000Y-111252000D01*
X117120000Y-112522000D02*
X117120000Y-104902000D01*
X117120000Y-104902000D02*
X106960000Y-104902000D01*
X106960000Y-104902000D02*
X106960000Y-112522000D01*
X106960000Y-112522000D02*
X117120000Y-112522000D01*
%TO.C,S0*%
X129413000Y-90297000D02*
X129413000Y-100457000D01*
X130683000Y-90297000D02*
X123063000Y-90297000D01*
X123063000Y-90297000D02*
X123063000Y-100457000D01*
X123063000Y-100457000D02*
X130683000Y-100457000D01*
X130683000Y-100457000D02*
X130683000Y-90297000D01*
%TO.C,ALED1*%
X55633000Y-24634000D02*
X55633000Y-31934000D01*
X50133000Y-24634000D02*
X50133000Y-31934000D01*
X50133000Y-31934000D02*
X51283000Y-31934000D01*
%TO.C,RE1*%
X110150000Y-92050000D02*
X110150000Y-88050000D01*
X113750000Y-92050000D02*
X110150000Y-92050000D01*
X113750000Y-88050000D02*
X113750000Y-92050000D01*
X110150000Y-88050000D02*
X113750000Y-88050000D01*
X110150000Y-92050000D02*
X113750000Y-88050000D01*
X110150000Y-90050000D02*
X105950000Y-90050000D01*
X117950000Y-90050000D02*
X113750000Y-90050000D01*
X111950000Y-86650000D02*
X108350000Y-86650000D01*
X111950000Y-93450000D02*
X108350000Y-93450000D01*
X108350000Y-93450000D02*
X108350000Y-86650000D01*
X111950000Y-94950000D02*
X114450000Y-99550000D01*
X111950000Y-93450000D02*
X111950000Y-94950000D01*
X117950000Y-90050000D02*
X117950000Y-87550000D01*
X111950000Y-86650000D02*
X111950000Y-85850000D01*
X105950000Y-87550000D02*
X105950000Y-90050000D01*
X116200000Y-98150000D02*
X113700000Y-98150000D01*
X107800000Y-98150000D02*
X110250000Y-98150000D01*
X104200000Y-102400000D02*
X104200000Y-82600000D01*
X119800000Y-102400000D02*
X104200000Y-102400000D01*
X119800000Y-82600000D02*
X119800000Y-102400000D01*
X119800000Y-82600000D02*
X113200000Y-82600000D01*
X110800000Y-82600000D02*
X104200000Y-82600000D01*
%TO.C,RE2*%
X92150000Y-92050000D02*
X92150000Y-88050000D01*
X95750000Y-92050000D02*
X92150000Y-92050000D01*
X95750000Y-88050000D02*
X95750000Y-92050000D01*
X92150000Y-88050000D02*
X95750000Y-88050000D01*
X92150000Y-92050000D02*
X95750000Y-88050000D01*
X92150000Y-90050000D02*
X87950000Y-90050000D01*
X99950000Y-90050000D02*
X95750000Y-90050000D01*
X93950000Y-86650000D02*
X90350000Y-86650000D01*
X93950000Y-93450000D02*
X90350000Y-93450000D01*
X90350000Y-93450000D02*
X90350000Y-86650000D01*
X93950000Y-94950000D02*
X96450000Y-99550000D01*
X93950000Y-93450000D02*
X93950000Y-94950000D01*
X99950000Y-90050000D02*
X99950000Y-87550000D01*
X93950000Y-86650000D02*
X93950000Y-85850000D01*
X87950000Y-87550000D02*
X87950000Y-90050000D01*
X98200000Y-98150000D02*
X95700000Y-98150000D01*
X89800000Y-98150000D02*
X92250000Y-98150000D01*
X86200000Y-102400000D02*
X86200000Y-82600000D01*
X101800000Y-102400000D02*
X86200000Y-102400000D01*
X101800000Y-82600000D02*
X101800000Y-102400000D01*
X101800000Y-82600000D02*
X95200000Y-82600000D01*
X92800000Y-82600000D02*
X86200000Y-82600000D01*
%TO.C,i2c2*%
X50946500Y-39013000D02*
X49696500Y-39013000D01*
X50946500Y-40263000D02*
X50946500Y-39013000D01*
X45446500Y-51163000D02*
X45446500Y-45613000D01*
X48396500Y-51163000D02*
X45446500Y-51163000D01*
X48396500Y-51913000D02*
X48396500Y-51163000D01*
X45446500Y-45613000D02*
X45446500Y-41123000D01*
X48396500Y-40063000D02*
X47056500Y-40063000D01*
X48396500Y-39313000D02*
X48396500Y-40063000D01*
X50646500Y-51913000D02*
X50646500Y-50113000D01*
X49896500Y-51913000D02*
X50646500Y-51913000D01*
X49896500Y-50113000D02*
X49896500Y-51913000D01*
X50646500Y-50113000D02*
X49896500Y-50113000D01*
X50646500Y-41113000D02*
X50646500Y-39313000D01*
X49896500Y-41113000D02*
X50646500Y-41113000D01*
X49896500Y-39313000D02*
X49896500Y-41113000D01*
X50646500Y-39313000D02*
X49896500Y-39313000D01*
X50646500Y-48613000D02*
X50646500Y-42613000D01*
X49896500Y-48613000D02*
X50646500Y-48613000D01*
X49896500Y-42613000D02*
X49896500Y-48613000D01*
X50646500Y-42613000D02*
X49896500Y-42613000D01*
X50656500Y-51923000D02*
X50656500Y-39303000D01*
X44686500Y-51923000D02*
X50656500Y-51923000D01*
X44686500Y-39303000D02*
X44686500Y-51923000D01*
X50656500Y-39303000D02*
X44686500Y-39303000D01*
%TO.C,HT1*%
X120570000Y-26105000D02*
X114600000Y-26105000D01*
X114600000Y-26105000D02*
X114600000Y-36225000D01*
X114600000Y-36225000D02*
X120570000Y-36225000D01*
X120570000Y-36225000D02*
X120570000Y-26105000D01*
X120560000Y-29415000D02*
X119810000Y-29415000D01*
X119810000Y-29415000D02*
X119810000Y-32915000D01*
X119810000Y-32915000D02*
X120560000Y-32915000D01*
X120560000Y-32915000D02*
X120560000Y-29415000D01*
X120560000Y-26115000D02*
X119810000Y-26115000D01*
X119810000Y-26115000D02*
X119810000Y-27915000D01*
X119810000Y-27915000D02*
X120560000Y-27915000D01*
X120560000Y-27915000D02*
X120560000Y-26115000D01*
X120560000Y-34415000D02*
X119810000Y-34415000D01*
X119810000Y-34415000D02*
X119810000Y-36215000D01*
X119810000Y-36215000D02*
X120560000Y-36215000D01*
X120560000Y-36215000D02*
X120560000Y-34415000D01*
X118310000Y-26115000D02*
X118310000Y-26865000D01*
X118310000Y-26865000D02*
X116970000Y-26865000D01*
X115360000Y-31165000D02*
X115360000Y-27925000D01*
X118310000Y-36215000D02*
X118310000Y-35465000D01*
X118310000Y-35465000D02*
X115360000Y-35465000D01*
X115360000Y-35465000D02*
X115360000Y-31165000D01*
X120860000Y-27065000D02*
X120860000Y-25815000D01*
X120860000Y-25815000D02*
X119610000Y-25815000D01*
%TO.C,HT2*%
X111045000Y-26105000D02*
X105075000Y-26105000D01*
X105075000Y-26105000D02*
X105075000Y-36225000D01*
X105075000Y-36225000D02*
X111045000Y-36225000D01*
X111045000Y-36225000D02*
X111045000Y-26105000D01*
X111035000Y-29415000D02*
X110285000Y-29415000D01*
X110285000Y-29415000D02*
X110285000Y-32915000D01*
X110285000Y-32915000D02*
X111035000Y-32915000D01*
X111035000Y-32915000D02*
X111035000Y-29415000D01*
X111035000Y-26115000D02*
X110285000Y-26115000D01*
X110285000Y-26115000D02*
X110285000Y-27915000D01*
X110285000Y-27915000D02*
X111035000Y-27915000D01*
X111035000Y-27915000D02*
X111035000Y-26115000D01*
X111035000Y-34415000D02*
X110285000Y-34415000D01*
X110285000Y-34415000D02*
X110285000Y-36215000D01*
X110285000Y-36215000D02*
X111035000Y-36215000D01*
X111035000Y-36215000D02*
X111035000Y-34415000D01*
X108785000Y-26115000D02*
X108785000Y-26865000D01*
X108785000Y-26865000D02*
X107445000Y-26865000D01*
X105835000Y-31165000D02*
X105835000Y-27925000D01*
X108785000Y-36215000D02*
X108785000Y-35465000D01*
X108785000Y-35465000D02*
X105835000Y-35465000D01*
X105835000Y-35465000D02*
X105835000Y-31165000D01*
X111335000Y-27065000D02*
X111335000Y-25815000D01*
X111335000Y-25815000D02*
X110085000Y-25815000D01*
%TO.C,HT6*%
X72945000Y-26105000D02*
X66975000Y-26105000D01*
X66975000Y-26105000D02*
X66975000Y-36225000D01*
X66975000Y-36225000D02*
X72945000Y-36225000D01*
X72945000Y-36225000D02*
X72945000Y-26105000D01*
X72935000Y-29415000D02*
X72185000Y-29415000D01*
X72185000Y-29415000D02*
X72185000Y-32915000D01*
X72185000Y-32915000D02*
X72935000Y-32915000D01*
X72935000Y-32915000D02*
X72935000Y-29415000D01*
X72935000Y-26115000D02*
X72185000Y-26115000D01*
X72185000Y-26115000D02*
X72185000Y-27915000D01*
X72185000Y-27915000D02*
X72935000Y-27915000D01*
X72935000Y-27915000D02*
X72935000Y-26115000D01*
X72935000Y-34415000D02*
X72185000Y-34415000D01*
X72185000Y-34415000D02*
X72185000Y-36215000D01*
X72185000Y-36215000D02*
X72935000Y-36215000D01*
X72935000Y-36215000D02*
X72935000Y-34415000D01*
X70685000Y-26115000D02*
X70685000Y-26865000D01*
X70685000Y-26865000D02*
X69345000Y-26865000D01*
X67735000Y-31165000D02*
X67735000Y-27925000D01*
X70685000Y-36215000D02*
X70685000Y-35465000D01*
X70685000Y-35465000D02*
X67735000Y-35465000D01*
X67735000Y-35465000D02*
X67735000Y-31165000D01*
X73235000Y-27065000D02*
X73235000Y-25815000D01*
X73235000Y-25815000D02*
X71985000Y-25815000D01*
%TO.C,HT5*%
X82470000Y-26105000D02*
X76500000Y-26105000D01*
X76500000Y-26105000D02*
X76500000Y-36225000D01*
X76500000Y-36225000D02*
X82470000Y-36225000D01*
X82470000Y-36225000D02*
X82470000Y-26105000D01*
X82460000Y-29415000D02*
X81710000Y-29415000D01*
X81710000Y-29415000D02*
X81710000Y-32915000D01*
X81710000Y-32915000D02*
X82460000Y-32915000D01*
X82460000Y-32915000D02*
X82460000Y-29415000D01*
X82460000Y-26115000D02*
X81710000Y-26115000D01*
X81710000Y-26115000D02*
X81710000Y-27915000D01*
X81710000Y-27915000D02*
X82460000Y-27915000D01*
X82460000Y-27915000D02*
X82460000Y-26115000D01*
X82460000Y-34415000D02*
X81710000Y-34415000D01*
X81710000Y-34415000D02*
X81710000Y-36215000D01*
X81710000Y-36215000D02*
X82460000Y-36215000D01*
X82460000Y-36215000D02*
X82460000Y-34415000D01*
X80210000Y-26115000D02*
X80210000Y-26865000D01*
X80210000Y-26865000D02*
X78870000Y-26865000D01*
X77260000Y-31165000D02*
X77260000Y-27925000D01*
X80210000Y-36215000D02*
X80210000Y-35465000D01*
X80210000Y-35465000D02*
X77260000Y-35465000D01*
X77260000Y-35465000D02*
X77260000Y-31165000D01*
X82760000Y-27065000D02*
X82760000Y-25815000D01*
X82760000Y-25815000D02*
X81510000Y-25815000D01*
%TO.C,HT4*%
X91995000Y-26105000D02*
X86025000Y-26105000D01*
X86025000Y-26105000D02*
X86025000Y-36225000D01*
X86025000Y-36225000D02*
X91995000Y-36225000D01*
X91995000Y-36225000D02*
X91995000Y-26105000D01*
X91985000Y-29415000D02*
X91235000Y-29415000D01*
X91235000Y-29415000D02*
X91235000Y-32915000D01*
X91235000Y-32915000D02*
X91985000Y-32915000D01*
X91985000Y-32915000D02*
X91985000Y-29415000D01*
X91985000Y-26115000D02*
X91235000Y-26115000D01*
X91235000Y-26115000D02*
X91235000Y-27915000D01*
X91235000Y-27915000D02*
X91985000Y-27915000D01*
X91985000Y-27915000D02*
X91985000Y-26115000D01*
X91985000Y-34415000D02*
X91235000Y-34415000D01*
X91235000Y-34415000D02*
X91235000Y-36215000D01*
X91235000Y-36215000D02*
X91985000Y-36215000D01*
X91985000Y-36215000D02*
X91985000Y-34415000D01*
X89735000Y-26115000D02*
X89735000Y-26865000D01*
X89735000Y-26865000D02*
X88395000Y-26865000D01*
X86785000Y-31165000D02*
X86785000Y-27925000D01*
X89735000Y-36215000D02*
X89735000Y-35465000D01*
X89735000Y-35465000D02*
X86785000Y-35465000D01*
X86785000Y-35465000D02*
X86785000Y-31165000D01*
X92285000Y-27065000D02*
X92285000Y-25815000D01*
X92285000Y-25815000D02*
X91035000Y-25815000D01*
D15*
%TO.C,G\u002A\u002A\u002A*%
G36*
X69456806Y-42769199D02*
G01*
X70934580Y-42769879D01*
X71349925Y-42914461D01*
X71835611Y-43134748D01*
X72269562Y-43434542D01*
X72641818Y-43802991D01*
X72942420Y-44229245D01*
X73161409Y-44702453D01*
X73243054Y-44977125D01*
X73277065Y-45192797D01*
X73295571Y-45468428D01*
X73298375Y-45765536D01*
X73285282Y-46045636D01*
X73256098Y-46270246D01*
X73249767Y-46299120D01*
X73223729Y-46420330D01*
X73227117Y-46456390D01*
X73262333Y-46420091D01*
X73270445Y-46409282D01*
X73312531Y-46332038D01*
X73356045Y-46205348D01*
X73405508Y-46013286D01*
X73465443Y-45739924D01*
X73478824Y-45675362D01*
X73547223Y-45564727D01*
X73680398Y-45475688D01*
X73841590Y-45426220D01*
X73979900Y-45430308D01*
X74102502Y-45500940D01*
X74212705Y-45630049D01*
X74217205Y-45637525D01*
X74365402Y-45801118D01*
X74497129Y-45869481D01*
X74671051Y-45972117D01*
X74775959Y-46128436D01*
X74799478Y-46313333D01*
X74770684Y-46424418D01*
X74701961Y-46549788D01*
X74604493Y-46629010D01*
X74448965Y-46681186D01*
X74343922Y-46702440D01*
X74228709Y-46737096D01*
X74112202Y-46807447D01*
X73973277Y-46929020D01*
X73815809Y-47090593D01*
X73462858Y-47408855D01*
X73090746Y-47633699D01*
X72705782Y-47761518D01*
X72614823Y-47776989D01*
X72332112Y-47863579D01*
X72138157Y-47984810D01*
X71692117Y-48264009D01*
X71206771Y-48449927D01*
X70696496Y-48542141D01*
X70350380Y-48574309D01*
X70350380Y-51498020D01*
X72649080Y-51518314D01*
X73216467Y-51523442D01*
X73692796Y-51528730D01*
X74088604Y-51535366D01*
X74414428Y-51544536D01*
X74680804Y-51557426D01*
X74898269Y-51575222D01*
X75077360Y-51599111D01*
X75228613Y-51630279D01*
X75362566Y-51669912D01*
X75489755Y-51719196D01*
X75620717Y-51779318D01*
X75765988Y-51851464D01*
X75811380Y-51874342D01*
X76076159Y-52041235D01*
X76356882Y-52274187D01*
X76627519Y-52546730D01*
X76862043Y-52832399D01*
X77034423Y-53104727D01*
X77047980Y-53131720D01*
X77231396Y-53608279D01*
X77332559Y-54105850D01*
X77348608Y-54601504D01*
X77285596Y-55036720D01*
X77246521Y-55203174D01*
X77219143Y-55328596D01*
X77210189Y-55379620D01*
X77257177Y-55393717D01*
X77387144Y-55405573D01*
X77581472Y-55414111D01*
X77821548Y-55418253D01*
X77881480Y-55418470D01*
X78257490Y-55426967D01*
X78584291Y-55450368D01*
X78838396Y-55486853D01*
X78879541Y-55495821D01*
X79355178Y-55658401D01*
X79799861Y-55908079D01*
X80199857Y-56231823D01*
X80541432Y-56616602D01*
X80810851Y-57049384D01*
X80988604Y-57497040D01*
X81044375Y-57781651D01*
X81070405Y-58125675D01*
X81067444Y-58492665D01*
X81036240Y-58846173D01*
X80977542Y-59149749D01*
X80952986Y-59230657D01*
X80737828Y-59714966D01*
X80444573Y-60149555D01*
X80084427Y-60523788D01*
X79668598Y-60827026D01*
X79208293Y-61048631D01*
X78953647Y-61128442D01*
X78909725Y-61137894D01*
X78851566Y-61146578D01*
X78775009Y-61154522D01*
X78675897Y-61161756D01*
X78550070Y-61168310D01*
X78393370Y-61174214D01*
X78201637Y-61179497D01*
X77970714Y-61184189D01*
X77696441Y-61188320D01*
X77374659Y-61191918D01*
X77001210Y-61195014D01*
X76571935Y-61197638D01*
X76082675Y-61199818D01*
X75529271Y-61201584D01*
X74907564Y-61202967D01*
X74213396Y-61203995D01*
X73442608Y-61204699D01*
X72591040Y-61205107D01*
X71654535Y-61205250D01*
X70628933Y-61205157D01*
X69510076Y-61204857D01*
X68293804Y-61204381D01*
X68285647Y-61204377D01*
X67028144Y-61203708D01*
X65868670Y-61202832D01*
X64803655Y-61201726D01*
X63829527Y-61200367D01*
X62942716Y-61198732D01*
X62139650Y-61196797D01*
X61416760Y-61194539D01*
X60770474Y-61191935D01*
X60197221Y-61188961D01*
X59693431Y-61185595D01*
X59255533Y-61181813D01*
X58879956Y-61177592D01*
X58563129Y-61172909D01*
X58301482Y-61167740D01*
X58091444Y-61162062D01*
X57929443Y-61155852D01*
X57811909Y-61149087D01*
X57735272Y-61141743D01*
X57701180Y-61135484D01*
X57213430Y-60948644D01*
X56764417Y-60679280D01*
X56367392Y-60339595D01*
X56035606Y-59941795D01*
X55782312Y-59498085D01*
X55699216Y-59291661D01*
X55624422Y-59009733D01*
X55572840Y-58675765D01*
X55557336Y-58449034D01*
X56404488Y-58449034D01*
X56473735Y-58861100D01*
X56628300Y-59249677D01*
X56860068Y-59601321D01*
X57160928Y-59902588D01*
X57522765Y-60140036D01*
X57768685Y-60247337D01*
X57801883Y-60258388D01*
X57840499Y-60268536D01*
X57888741Y-60277817D01*
X57950818Y-60286262D01*
X58030937Y-60293906D01*
X58133309Y-60300780D01*
X58262140Y-60306919D01*
X58421640Y-60312356D01*
X58616017Y-60317123D01*
X58849479Y-60321253D01*
X59126234Y-60324781D01*
X59450492Y-60327739D01*
X59826461Y-60330160D01*
X60258348Y-60332077D01*
X60750364Y-60333524D01*
X61306715Y-60334533D01*
X61931610Y-60335138D01*
X62629259Y-60335373D01*
X63403868Y-60335269D01*
X64259648Y-60334861D01*
X65200805Y-60334181D01*
X66231550Y-60333262D01*
X67356089Y-60332139D01*
X68394580Y-60331041D01*
X78757780Y-60319920D01*
X79048257Y-60183773D01*
X79423758Y-59955178D01*
X79737843Y-59657442D01*
X79982747Y-59305102D01*
X80150703Y-58912700D01*
X80233948Y-58494773D01*
X80224714Y-58065861D01*
X80214617Y-57999982D01*
X80090559Y-57552550D01*
X79882966Y-57162097D01*
X79594494Y-56832198D01*
X79227797Y-56566429D01*
X79100135Y-56498355D01*
X78934972Y-56418705D01*
X78802009Y-56364251D01*
X78674194Y-56329503D01*
X78524470Y-56308972D01*
X78325785Y-56297170D01*
X78068632Y-56289087D01*
X77424737Y-56271455D01*
X77392761Y-56441487D01*
X77293556Y-56753228D01*
X77119577Y-57081022D01*
X76889437Y-57400903D01*
X76621748Y-57688904D01*
X76335123Y-57921060D01*
X76165550Y-58021687D01*
X75691180Y-58208867D01*
X75202039Y-58301958D01*
X74711472Y-58300972D01*
X74232825Y-58205922D01*
X73784500Y-58019548D01*
X73459907Y-57796690D01*
X73155445Y-57498362D01*
X72891644Y-57150695D01*
X72689039Y-56779818D01*
X72588277Y-56497220D01*
X72555717Y-56374778D01*
X73454976Y-56374778D01*
X73505637Y-56495537D01*
X73593053Y-56648450D01*
X73702905Y-56810717D01*
X73820872Y-56959536D01*
X73932637Y-57072106D01*
X73936817Y-57075566D01*
X74219698Y-57271130D01*
X74506984Y-57387272D01*
X74830521Y-57434246D01*
X75049380Y-57433751D01*
X75330476Y-57409307D01*
X75544371Y-57359154D01*
X75673969Y-57303890D01*
X76001951Y-57085885D01*
X76269588Y-56808351D01*
X76419452Y-56570135D01*
X76550738Y-56306720D01*
X75017648Y-56293263D01*
X74632998Y-56290826D01*
X74281773Y-56290402D01*
X73976668Y-56291862D01*
X73730377Y-56295079D01*
X73555595Y-56299926D01*
X73465018Y-56306274D01*
X73455390Y-56308976D01*
X73454976Y-56374778D01*
X72555717Y-56374778D01*
X72530863Y-56281320D01*
X70768841Y-56281320D01*
X70709711Y-56516145D01*
X70553795Y-56934428D01*
X70311235Y-57321357D01*
X69995428Y-57663317D01*
X69619771Y-57946695D01*
X69197659Y-58157875D01*
X69040593Y-58212469D01*
X68600893Y-58299360D01*
X68136161Y-58304125D01*
X67675758Y-58229662D01*
X67249049Y-58078872D01*
X67142766Y-58025091D01*
X66776450Y-57773119D01*
X66448979Y-57445966D01*
X66179511Y-57067365D01*
X65987204Y-56661053D01*
X65950512Y-56548020D01*
X65880832Y-56308976D01*
X66800590Y-56308976D01*
X66801017Y-56373783D01*
X66851308Y-56494289D01*
X66937260Y-56647337D01*
X67044672Y-56809772D01*
X67159338Y-56958439D01*
X67267058Y-57070181D01*
X67267965Y-57070959D01*
X67556095Y-57271495D01*
X67866320Y-57390332D01*
X68222298Y-57435082D01*
X68394580Y-57433473D01*
X68674744Y-57409385D01*
X68887850Y-57359762D01*
X69019169Y-57303890D01*
X69347151Y-57085885D01*
X69614788Y-56808351D01*
X69764652Y-56570135D01*
X69895938Y-56306720D01*
X68362848Y-56293263D01*
X67978198Y-56290826D01*
X67626973Y-56290402D01*
X67321868Y-56291862D01*
X67075577Y-56295079D01*
X66900795Y-56299926D01*
X66810218Y-56306274D01*
X66800590Y-56308976D01*
X65880832Y-56308976D01*
X65872770Y-56281320D01*
X64122888Y-56281320D01*
X64033709Y-56570930D01*
X63845120Y-57019264D01*
X63577625Y-57415067D01*
X63242886Y-57749655D01*
X62852562Y-58014343D01*
X62418311Y-58200449D01*
X61951795Y-58299287D01*
X61694301Y-58313320D01*
X61183993Y-58265950D01*
X60712994Y-58127571D01*
X60289141Y-57903774D01*
X59920270Y-57600151D01*
X59614218Y-57222296D01*
X59378821Y-56775799D01*
X59319430Y-56618563D01*
X59212045Y-56306720D01*
X60094550Y-56306720D01*
X60219878Y-56560720D01*
X60408108Y-56846040D01*
X60664413Y-57100604D01*
X60956669Y-57294694D01*
X61068369Y-57345582D01*
X61343583Y-57417022D01*
X61659562Y-57440564D01*
X61977863Y-57417445D01*
X62260042Y-57348901D01*
X62364369Y-57303890D01*
X62692382Y-57085858D01*
X62960061Y-56808272D01*
X63109894Y-56570135D01*
X63241223Y-56306720D01*
X62452401Y-56292730D01*
X62088372Y-56288431D01*
X61673692Y-56286959D01*
X61258401Y-56288313D01*
X60892540Y-56292493D01*
X60879065Y-56292730D01*
X60094550Y-56306720D01*
X59212045Y-56306720D01*
X59199780Y-56271103D01*
X58560443Y-56290520D01*
X58288154Y-56300388D01*
X58090883Y-56314012D01*
X57942054Y-56336454D01*
X57815095Y-56372776D01*
X57683430Y-56428040D01*
X57581921Y-56476918D01*
X57188007Y-56724526D01*
X56867463Y-57040639D01*
X56625125Y-57418758D01*
X56465827Y-57852386D01*
X56428670Y-58026922D01*
X56404488Y-58449034D01*
X55557336Y-58449034D01*
X55549724Y-58337719D01*
X55560326Y-58043553D01*
X55561460Y-58033920D01*
X55577246Y-57848825D01*
X55564387Y-57708219D01*
X55514145Y-57562287D01*
X55457516Y-57441418D01*
X55374584Y-57248538D01*
X55285951Y-57005318D01*
X55209150Y-56760326D01*
X55200768Y-56730218D01*
X55168018Y-56605157D01*
X55142084Y-56487308D01*
X55122176Y-56363021D01*
X55107503Y-56218646D01*
X55097274Y-56040532D01*
X55090698Y-55815030D01*
X55086984Y-55528488D01*
X55085342Y-55167257D01*
X55084980Y-54731920D01*
X55084980Y-54006910D01*
X55931159Y-54006910D01*
X55931853Y-54429059D01*
X55938435Y-54912022D01*
X55948536Y-55395569D01*
X55960018Y-55785061D01*
X55973435Y-56088040D01*
X55989341Y-56312047D01*
X56008292Y-56464625D01*
X56030842Y-56553315D01*
X56057547Y-56585658D01*
X56061603Y-56586120D01*
X56106624Y-56552530D01*
X56202879Y-56463706D01*
X56331093Y-56337567D01*
X56355409Y-56312963D01*
X56544002Y-56140029D01*
X56763249Y-55965850D01*
X56934108Y-55848542D01*
X57243979Y-55657278D01*
X57243790Y-54508799D01*
X57243082Y-54133819D01*
X57240386Y-53846259D01*
X57234627Y-53631942D01*
X57224734Y-53476694D01*
X57209634Y-53366339D01*
X57188255Y-53286699D01*
X57159523Y-53223600D01*
X57144615Y-53197980D01*
X56992708Y-53007629D01*
X56813406Y-52907281D01*
X56583818Y-52885440D01*
X56530296Y-52889438D01*
X56278340Y-52952550D01*
X56095906Y-53088836D01*
X55978568Y-53301798D01*
X55968199Y-53334180D01*
X55949352Y-53458425D01*
X55936999Y-53683017D01*
X55931159Y-54006910D01*
X55084980Y-54006910D01*
X55084980Y-53157120D01*
X55227532Y-52866826D01*
X55442882Y-52534819D01*
X55720850Y-52279204D01*
X56051681Y-52106116D01*
X56425618Y-52021691D01*
X56583579Y-52014120D01*
X56969634Y-52062533D01*
X57322034Y-52202669D01*
X57628259Y-52426873D01*
X57875784Y-52727490D01*
X57944506Y-52846053D01*
X57988549Y-52932409D01*
X58022188Y-53012255D01*
X58047069Y-53100720D01*
X58064840Y-53212931D01*
X58077148Y-53364016D01*
X58085639Y-53569103D01*
X58091960Y-53843318D01*
X58097759Y-54201791D01*
X58098660Y-54262020D01*
X58115895Y-55417720D01*
X59440224Y-55417720D01*
X59410437Y-55278020D01*
X59386902Y-55156022D01*
X59354678Y-54974548D01*
X59323247Y-54787973D01*
X59302912Y-54445896D01*
X60156125Y-54445896D01*
X60192301Y-54810304D01*
X60286440Y-55158735D01*
X60313755Y-55227220D01*
X60394943Y-55417720D01*
X76240570Y-55417720D01*
X76311258Y-55278020D01*
X76432834Y-54935429D01*
X76482787Y-54546660D01*
X76460602Y-54138102D01*
X76365764Y-53736144D01*
X76342640Y-53671062D01*
X76191366Y-53379526D01*
X75968110Y-53092300D01*
X75699633Y-52837619D01*
X75412695Y-52643720D01*
X75330574Y-52603214D01*
X74997328Y-52483865D01*
X74631825Y-52402093D01*
X74289158Y-52370087D01*
X74276638Y-52370014D01*
X74171854Y-52379556D01*
X74111865Y-52426849D01*
X74068777Y-52539154D01*
X74056033Y-52585620D01*
X73923099Y-52942073D01*
X73722269Y-53301597D01*
X73477728Y-53624323D01*
X73340733Y-53764905D01*
X72949489Y-54063349D01*
X72525932Y-54272957D01*
X72082017Y-54395875D01*
X71629702Y-54434245D01*
X71180941Y-54390212D01*
X70747689Y-54265920D01*
X70341904Y-54063513D01*
X69975540Y-53785135D01*
X69660552Y-53432931D01*
X69435859Y-53064629D01*
X69349617Y-52871983D01*
X69281426Y-52683393D01*
X69250479Y-52561609D01*
X69219795Y-52369720D01*
X70089533Y-52369720D01*
X70123631Y-52484020D01*
X70271263Y-52810737D01*
X70495119Y-53088367D01*
X70778870Y-53309727D01*
X71106185Y-53467635D01*
X71460734Y-53554909D01*
X71826187Y-53564366D01*
X72186213Y-53488826D01*
X72303738Y-53442833D01*
X72553510Y-53296048D01*
X72793739Y-53091896D01*
X72991781Y-52861328D01*
X73089074Y-52698156D01*
X73151195Y-52556213D01*
X73189390Y-52450083D01*
X73195180Y-52421073D01*
X73144778Y-52404773D01*
X72995086Y-52391484D01*
X72748368Y-52381279D01*
X72406891Y-52374235D01*
X71972921Y-52370425D01*
X71642356Y-52369720D01*
X70089533Y-52369720D01*
X69219795Y-52369720D01*
X69219428Y-52367430D01*
X68326634Y-52381275D01*
X67433841Y-52395120D01*
X67394261Y-52585827D01*
X67268604Y-52960559D01*
X67057479Y-53325308D01*
X66776771Y-53663011D01*
X66442366Y-53956607D01*
X66070149Y-54189034D01*
X65791148Y-54307732D01*
X65443030Y-54390972D01*
X65053489Y-54425081D01*
X64661217Y-54410009D01*
X64304906Y-54345708D01*
X64190944Y-54309796D01*
X63737411Y-54093942D01*
X63340989Y-53799920D01*
X63011340Y-53437782D01*
X62758129Y-53017577D01*
X62628597Y-52684797D01*
X62573790Y-52530277D01*
X62510054Y-52432091D01*
X62492240Y-52422543D01*
X63441580Y-52422543D01*
X63463160Y-52496994D01*
X63517483Y-52622200D01*
X63545380Y-52678832D01*
X63768967Y-53013451D01*
X64054336Y-53275840D01*
X64387586Y-53459698D01*
X64754817Y-53558723D01*
X65142127Y-53566614D01*
X65399723Y-53519447D01*
X65633137Y-53447473D01*
X65812646Y-53361608D01*
X65984921Y-53236490D01*
X66091620Y-53143450D01*
X66213039Y-53012053D01*
X66336790Y-52843709D01*
X66444618Y-52667752D01*
X66518273Y-52513520D01*
X66540380Y-52422208D01*
X66489620Y-52404943D01*
X66337385Y-52391106D01*
X66083743Y-52380702D01*
X65728762Y-52373732D01*
X65272508Y-52370198D01*
X64990980Y-52369720D01*
X64483734Y-52371398D01*
X64077443Y-52376446D01*
X63771518Y-52384884D01*
X63565368Y-52396731D01*
X63458405Y-52412009D01*
X63441580Y-52422543D01*
X62492240Y-52422543D01*
X62417015Y-52382226D01*
X62274299Y-52372667D01*
X62061530Y-52395402D01*
X61939419Y-52413735D01*
X61488558Y-52532171D01*
X61088998Y-52734831D01*
X60748648Y-53014074D01*
X60475413Y-53362260D01*
X60277201Y-53771745D01*
X60183228Y-54110974D01*
X60156125Y-54445896D01*
X59302912Y-54445896D01*
X59294862Y-54310490D01*
X59359201Y-53830159D01*
X59508846Y-53361287D01*
X59736379Y-52918183D01*
X60034382Y-52515153D01*
X60395439Y-52166504D01*
X60812131Y-51886544D01*
X60833460Y-51875050D01*
X61010966Y-51784257D01*
X61175941Y-51711422D01*
X61342790Y-51654329D01*
X61525917Y-51610764D01*
X61739726Y-51578512D01*
X61998623Y-51555360D01*
X62317013Y-51539093D01*
X62709299Y-51527497D01*
X63149480Y-51519023D01*
X64559180Y-51495581D01*
X64559180Y-51431061D01*
X65422780Y-51431061D01*
X65436210Y-51453575D01*
X65483535Y-51471506D01*
X65575311Y-51485530D01*
X65722089Y-51496323D01*
X65934424Y-51504558D01*
X66222870Y-51510912D01*
X66597980Y-51516060D01*
X66781680Y-51518003D01*
X67445099Y-51522878D01*
X68018677Y-51523453D01*
X68500606Y-51519771D01*
X68889081Y-51511877D01*
X69182297Y-51499813D01*
X69378447Y-51483624D01*
X69475726Y-51463354D01*
X69486780Y-51452495D01*
X69438972Y-51432823D01*
X69307448Y-51417307D01*
X69110054Y-51407414D01*
X68902580Y-51404520D01*
X68318380Y-51404520D01*
X68318380Y-50540920D01*
X69486780Y-50540920D01*
X69486780Y-50236120D01*
X68318380Y-50236120D01*
X68318380Y-49372520D01*
X69486780Y-49372520D01*
X69486780Y-49067720D01*
X68318380Y-49067720D01*
X68318380Y-48204120D01*
X69478707Y-48204120D01*
X69511023Y-48056987D01*
X69553470Y-47925369D01*
X69624565Y-47831393D01*
X69740681Y-47767672D01*
X69918195Y-47726817D01*
X70173482Y-47701440D01*
X70317475Y-47693133D01*
X70677245Y-47663216D01*
X70970952Y-47614291D01*
X71189634Y-47548974D01*
X71324332Y-47469882D01*
X71366380Y-47386808D01*
X71410584Y-47188030D01*
X71539842Y-47040603D01*
X71749123Y-46948897D01*
X71899780Y-46923473D01*
X71986652Y-46903568D01*
X72057718Y-46849729D01*
X72131929Y-46741413D01*
X72218003Y-46578520D01*
X72383808Y-46154654D01*
X72451105Y-45734513D01*
X72428596Y-45347112D01*
X72311603Y-44919453D01*
X72106326Y-44527281D01*
X71824051Y-44185865D01*
X71476062Y-43910474D01*
X71290180Y-43806799D01*
X70985380Y-43657520D01*
X69518144Y-43641917D01*
X69088851Y-43637763D01*
X68747288Y-43635935D01*
X68479597Y-43637141D01*
X68271923Y-43642089D01*
X68110408Y-43651489D01*
X67981194Y-43666048D01*
X67870425Y-43686476D01*
X67764244Y-43713481D01*
X67689344Y-43735434D01*
X67244389Y-43898765D01*
X66861567Y-44108417D01*
X66505669Y-44385490D01*
X66336674Y-44546014D01*
X66020413Y-44901023D01*
X65783639Y-45262813D01*
X65607437Y-45663462D01*
X65527977Y-45917460D01*
X65464858Y-46154324D01*
X65433266Y-46312212D01*
X65435060Y-46409324D01*
X65472100Y-46463856D01*
X65546245Y-46494006D01*
X65587880Y-46503562D01*
X65921837Y-46615795D01*
X66265731Y-46805043D01*
X66595473Y-47052586D01*
X66886973Y-47339707D01*
X67116143Y-47647685D01*
X67161008Y-47725994D01*
X67348539Y-48178225D01*
X67442133Y-48649345D01*
X67443807Y-49125294D01*
X67355577Y-49592013D01*
X67179462Y-50035440D01*
X66917477Y-50441517D01*
X66743247Y-50638057D01*
X66444791Y-50893450D01*
X66102138Y-51110033D01*
X65752905Y-51265254D01*
X65638680Y-51300222D01*
X65497758Y-51353502D01*
X65426821Y-51414316D01*
X65422780Y-51431061D01*
X64559180Y-51431061D01*
X64559180Y-48889238D01*
X65422780Y-48889238D01*
X65424457Y-49396599D01*
X65429502Y-49803006D01*
X65437936Y-50109051D01*
X65449778Y-50315323D01*
X65465048Y-50422416D01*
X65475603Y-50439320D01*
X65550066Y-50417739D01*
X65675256Y-50363423D01*
X65731711Y-50335612D01*
X66045869Y-50124009D01*
X66286938Y-49856791D01*
X66455516Y-49548294D01*
X66552197Y-49212855D01*
X66577575Y-48864812D01*
X66532248Y-48518501D01*
X66416810Y-48188260D01*
X66231855Y-47888424D01*
X65977981Y-47633332D01*
X65655781Y-47437321D01*
X65610545Y-47417610D01*
X65422780Y-47339156D01*
X65422780Y-48889238D01*
X64559180Y-48889238D01*
X64559180Y-48887971D01*
X64559558Y-48261339D01*
X64561180Y-47726711D01*
X64564772Y-47274489D01*
X64571060Y-46895079D01*
X64580774Y-46578884D01*
X64594639Y-46316308D01*
X64613383Y-46097757D01*
X64637733Y-45913634D01*
X64668417Y-45754343D01*
X64706162Y-45610288D01*
X64751695Y-45471875D01*
X64805743Y-45329506D01*
X64834253Y-45258598D01*
X65118301Y-44690833D01*
X65481724Y-44182120D01*
X65916823Y-43739159D01*
X66415899Y-43368651D01*
X66971254Y-43077297D01*
X67575188Y-42871799D01*
X67577206Y-42871282D01*
X67704976Y-42840943D01*
X67832820Y-42817175D01*
X67974998Y-42799204D01*
X68145776Y-42786254D01*
X68359415Y-42777552D01*
X68630180Y-42772322D01*
X68972334Y-42769789D01*
X69400139Y-42769180D01*
X69456806Y-42769199D01*
G37*
X69456806Y-42769199D02*
X70934580Y-42769879D01*
X71349925Y-42914461D01*
X71835611Y-43134748D01*
X72269562Y-43434542D01*
X72641818Y-43802991D01*
X72942420Y-44229245D01*
X73161409Y-44702453D01*
X73243054Y-44977125D01*
X73277065Y-45192797D01*
X73295571Y-45468428D01*
X73298375Y-45765536D01*
X73285282Y-46045636D01*
X73256098Y-46270246D01*
X73249767Y-46299120D01*
X73223729Y-46420330D01*
X73227117Y-46456390D01*
X73262333Y-46420091D01*
X73270445Y-46409282D01*
X73312531Y-46332038D01*
X73356045Y-46205348D01*
X73405508Y-46013286D01*
X73465443Y-45739924D01*
X73478824Y-45675362D01*
X73547223Y-45564727D01*
X73680398Y-45475688D01*
X73841590Y-45426220D01*
X73979900Y-45430308D01*
X74102502Y-45500940D01*
X74212705Y-45630049D01*
X74217205Y-45637525D01*
X74365402Y-45801118D01*
X74497129Y-45869481D01*
X74671051Y-45972117D01*
X74775959Y-46128436D01*
X74799478Y-46313333D01*
X74770684Y-46424418D01*
X74701961Y-46549788D01*
X74604493Y-46629010D01*
X74448965Y-46681186D01*
X74343922Y-46702440D01*
X74228709Y-46737096D01*
X74112202Y-46807447D01*
X73973277Y-46929020D01*
X73815809Y-47090593D01*
X73462858Y-47408855D01*
X73090746Y-47633699D01*
X72705782Y-47761518D01*
X72614823Y-47776989D01*
X72332112Y-47863579D01*
X72138157Y-47984810D01*
X71692117Y-48264009D01*
X71206771Y-48449927D01*
X70696496Y-48542141D01*
X70350380Y-48574309D01*
X70350380Y-51498020D01*
X72649080Y-51518314D01*
X73216467Y-51523442D01*
X73692796Y-51528730D01*
X74088604Y-51535366D01*
X74414428Y-51544536D01*
X74680804Y-51557426D01*
X74898269Y-51575222D01*
X75077360Y-51599111D01*
X75228613Y-51630279D01*
X75362566Y-51669912D01*
X75489755Y-51719196D01*
X75620717Y-51779318D01*
X75765988Y-51851464D01*
X75811380Y-51874342D01*
X76076159Y-52041235D01*
X76356882Y-52274187D01*
X76627519Y-52546730D01*
X76862043Y-52832399D01*
X77034423Y-53104727D01*
X77047980Y-53131720D01*
X77231396Y-53608279D01*
X77332559Y-54105850D01*
X77348608Y-54601504D01*
X77285596Y-55036720D01*
X77246521Y-55203174D01*
X77219143Y-55328596D01*
X77210189Y-55379620D01*
X77257177Y-55393717D01*
X77387144Y-55405573D01*
X77581472Y-55414111D01*
X77821548Y-55418253D01*
X77881480Y-55418470D01*
X78257490Y-55426967D01*
X78584291Y-55450368D01*
X78838396Y-55486853D01*
X78879541Y-55495821D01*
X79355178Y-55658401D01*
X79799861Y-55908079D01*
X80199857Y-56231823D01*
X80541432Y-56616602D01*
X80810851Y-57049384D01*
X80988604Y-57497040D01*
X81044375Y-57781651D01*
X81070405Y-58125675D01*
X81067444Y-58492665D01*
X81036240Y-58846173D01*
X80977542Y-59149749D01*
X80952986Y-59230657D01*
X80737828Y-59714966D01*
X80444573Y-60149555D01*
X80084427Y-60523788D01*
X79668598Y-60827026D01*
X79208293Y-61048631D01*
X78953647Y-61128442D01*
X78909725Y-61137894D01*
X78851566Y-61146578D01*
X78775009Y-61154522D01*
X78675897Y-61161756D01*
X78550070Y-61168310D01*
X78393370Y-61174214D01*
X78201637Y-61179497D01*
X77970714Y-61184189D01*
X77696441Y-61188320D01*
X77374659Y-61191918D01*
X77001210Y-61195014D01*
X76571935Y-61197638D01*
X76082675Y-61199818D01*
X75529271Y-61201584D01*
X74907564Y-61202967D01*
X74213396Y-61203995D01*
X73442608Y-61204699D01*
X72591040Y-61205107D01*
X71654535Y-61205250D01*
X70628933Y-61205157D01*
X69510076Y-61204857D01*
X68293804Y-61204381D01*
X68285647Y-61204377D01*
X67028144Y-61203708D01*
X65868670Y-61202832D01*
X64803655Y-61201726D01*
X63829527Y-61200367D01*
X62942716Y-61198732D01*
X62139650Y-61196797D01*
X61416760Y-61194539D01*
X60770474Y-61191935D01*
X60197221Y-61188961D01*
X59693431Y-61185595D01*
X59255533Y-61181813D01*
X58879956Y-61177592D01*
X58563129Y-61172909D01*
X58301482Y-61167740D01*
X58091444Y-61162062D01*
X57929443Y-61155852D01*
X57811909Y-61149087D01*
X57735272Y-61141743D01*
X57701180Y-61135484D01*
X57213430Y-60948644D01*
X56764417Y-60679280D01*
X56367392Y-60339595D01*
X56035606Y-59941795D01*
X55782312Y-59498085D01*
X55699216Y-59291661D01*
X55624422Y-59009733D01*
X55572840Y-58675765D01*
X55557336Y-58449034D01*
X56404488Y-58449034D01*
X56473735Y-58861100D01*
X56628300Y-59249677D01*
X56860068Y-59601321D01*
X57160928Y-59902588D01*
X57522765Y-60140036D01*
X57768685Y-60247337D01*
X57801883Y-60258388D01*
X57840499Y-60268536D01*
X57888741Y-60277817D01*
X57950818Y-60286262D01*
X58030937Y-60293906D01*
X58133309Y-60300780D01*
X58262140Y-60306919D01*
X58421640Y-60312356D01*
X58616017Y-60317123D01*
X58849479Y-60321253D01*
X59126234Y-60324781D01*
X59450492Y-60327739D01*
X59826461Y-60330160D01*
X60258348Y-60332077D01*
X60750364Y-60333524D01*
X61306715Y-60334533D01*
X61931610Y-60335138D01*
X62629259Y-60335373D01*
X63403868Y-60335269D01*
X64259648Y-60334861D01*
X65200805Y-60334181D01*
X66231550Y-60333262D01*
X67356089Y-60332139D01*
X68394580Y-60331041D01*
X78757780Y-60319920D01*
X79048257Y-60183773D01*
X79423758Y-59955178D01*
X79737843Y-59657442D01*
X79982747Y-59305102D01*
X80150703Y-58912700D01*
X80233948Y-58494773D01*
X80224714Y-58065861D01*
X80214617Y-57999982D01*
X80090559Y-57552550D01*
X79882966Y-57162097D01*
X79594494Y-56832198D01*
X79227797Y-56566429D01*
X79100135Y-56498355D01*
X78934972Y-56418705D01*
X78802009Y-56364251D01*
X78674194Y-56329503D01*
X78524470Y-56308972D01*
X78325785Y-56297170D01*
X78068632Y-56289087D01*
X77424737Y-56271455D01*
X77392761Y-56441487D01*
X77293556Y-56753228D01*
X77119577Y-57081022D01*
X76889437Y-57400903D01*
X76621748Y-57688904D01*
X76335123Y-57921060D01*
X76165550Y-58021687D01*
X75691180Y-58208867D01*
X75202039Y-58301958D01*
X74711472Y-58300972D01*
X74232825Y-58205922D01*
X73784500Y-58019548D01*
X73459907Y-57796690D01*
X73155445Y-57498362D01*
X72891644Y-57150695D01*
X72689039Y-56779818D01*
X72588277Y-56497220D01*
X72555717Y-56374778D01*
X73454976Y-56374778D01*
X73505637Y-56495537D01*
X73593053Y-56648450D01*
X73702905Y-56810717D01*
X73820872Y-56959536D01*
X73932637Y-57072106D01*
X73936817Y-57075566D01*
X74219698Y-57271130D01*
X74506984Y-57387272D01*
X74830521Y-57434246D01*
X75049380Y-57433751D01*
X75330476Y-57409307D01*
X75544371Y-57359154D01*
X75673969Y-57303890D01*
X76001951Y-57085885D01*
X76269588Y-56808351D01*
X76419452Y-56570135D01*
X76550738Y-56306720D01*
X75017648Y-56293263D01*
X74632998Y-56290826D01*
X74281773Y-56290402D01*
X73976668Y-56291862D01*
X73730377Y-56295079D01*
X73555595Y-56299926D01*
X73465018Y-56306274D01*
X73455390Y-56308976D01*
X73454976Y-56374778D01*
X72555717Y-56374778D01*
X72530863Y-56281320D01*
X70768841Y-56281320D01*
X70709711Y-56516145D01*
X70553795Y-56934428D01*
X70311235Y-57321357D01*
X69995428Y-57663317D01*
X69619771Y-57946695D01*
X69197659Y-58157875D01*
X69040593Y-58212469D01*
X68600893Y-58299360D01*
X68136161Y-58304125D01*
X67675758Y-58229662D01*
X67249049Y-58078872D01*
X67142766Y-58025091D01*
X66776450Y-57773119D01*
X66448979Y-57445966D01*
X66179511Y-57067365D01*
X65987204Y-56661053D01*
X65950512Y-56548020D01*
X65880832Y-56308976D01*
X66800590Y-56308976D01*
X66801017Y-56373783D01*
X66851308Y-56494289D01*
X66937260Y-56647337D01*
X67044672Y-56809772D01*
X67159338Y-56958439D01*
X67267058Y-57070181D01*
X67267965Y-57070959D01*
X67556095Y-57271495D01*
X67866320Y-57390332D01*
X68222298Y-57435082D01*
X68394580Y-57433473D01*
X68674744Y-57409385D01*
X68887850Y-57359762D01*
X69019169Y-57303890D01*
X69347151Y-57085885D01*
X69614788Y-56808351D01*
X69764652Y-56570135D01*
X69895938Y-56306720D01*
X68362848Y-56293263D01*
X67978198Y-56290826D01*
X67626973Y-56290402D01*
X67321868Y-56291862D01*
X67075577Y-56295079D01*
X66900795Y-56299926D01*
X66810218Y-56306274D01*
X66800590Y-56308976D01*
X65880832Y-56308976D01*
X65872770Y-56281320D01*
X64122888Y-56281320D01*
X64033709Y-56570930D01*
X63845120Y-57019264D01*
X63577625Y-57415067D01*
X63242886Y-57749655D01*
X62852562Y-58014343D01*
X62418311Y-58200449D01*
X61951795Y-58299287D01*
X61694301Y-58313320D01*
X61183993Y-58265950D01*
X60712994Y-58127571D01*
X60289141Y-57903774D01*
X59920270Y-57600151D01*
X59614218Y-57222296D01*
X59378821Y-56775799D01*
X59319430Y-56618563D01*
X59212045Y-56306720D01*
X60094550Y-56306720D01*
X60219878Y-56560720D01*
X60408108Y-56846040D01*
X60664413Y-57100604D01*
X60956669Y-57294694D01*
X61068369Y-57345582D01*
X61343583Y-57417022D01*
X61659562Y-57440564D01*
X61977863Y-57417445D01*
X62260042Y-57348901D01*
X62364369Y-57303890D01*
X62692382Y-57085858D01*
X62960061Y-56808272D01*
X63109894Y-56570135D01*
X63241223Y-56306720D01*
X62452401Y-56292730D01*
X62088372Y-56288431D01*
X61673692Y-56286959D01*
X61258401Y-56288313D01*
X60892540Y-56292493D01*
X60879065Y-56292730D01*
X60094550Y-56306720D01*
X59212045Y-56306720D01*
X59199780Y-56271103D01*
X58560443Y-56290520D01*
X58288154Y-56300388D01*
X58090883Y-56314012D01*
X57942054Y-56336454D01*
X57815095Y-56372776D01*
X57683430Y-56428040D01*
X57581921Y-56476918D01*
X57188007Y-56724526D01*
X56867463Y-57040639D01*
X56625125Y-57418758D01*
X56465827Y-57852386D01*
X56428670Y-58026922D01*
X56404488Y-58449034D01*
X55557336Y-58449034D01*
X55549724Y-58337719D01*
X55560326Y-58043553D01*
X55561460Y-58033920D01*
X55577246Y-57848825D01*
X55564387Y-57708219D01*
X55514145Y-57562287D01*
X55457516Y-57441418D01*
X55374584Y-57248538D01*
X55285951Y-57005318D01*
X55209150Y-56760326D01*
X55200768Y-56730218D01*
X55168018Y-56605157D01*
X55142084Y-56487308D01*
X55122176Y-56363021D01*
X55107503Y-56218646D01*
X55097274Y-56040532D01*
X55090698Y-55815030D01*
X55086984Y-55528488D01*
X55085342Y-55167257D01*
X55084980Y-54731920D01*
X55084980Y-54006910D01*
X55931159Y-54006910D01*
X55931853Y-54429059D01*
X55938435Y-54912022D01*
X55948536Y-55395569D01*
X55960018Y-55785061D01*
X55973435Y-56088040D01*
X55989341Y-56312047D01*
X56008292Y-56464625D01*
X56030842Y-56553315D01*
X56057547Y-56585658D01*
X56061603Y-56586120D01*
X56106624Y-56552530D01*
X56202879Y-56463706D01*
X56331093Y-56337567D01*
X56355409Y-56312963D01*
X56544002Y-56140029D01*
X56763249Y-55965850D01*
X56934108Y-55848542D01*
X57243979Y-55657278D01*
X57243790Y-54508799D01*
X57243082Y-54133819D01*
X57240386Y-53846259D01*
X57234627Y-53631942D01*
X57224734Y-53476694D01*
X57209634Y-53366339D01*
X57188255Y-53286699D01*
X57159523Y-53223600D01*
X57144615Y-53197980D01*
X56992708Y-53007629D01*
X56813406Y-52907281D01*
X56583818Y-52885440D01*
X56530296Y-52889438D01*
X56278340Y-52952550D01*
X56095906Y-53088836D01*
X55978568Y-53301798D01*
X55968199Y-53334180D01*
X55949352Y-53458425D01*
X55936999Y-53683017D01*
X55931159Y-54006910D01*
X55084980Y-54006910D01*
X55084980Y-53157120D01*
X55227532Y-52866826D01*
X55442882Y-52534819D01*
X55720850Y-52279204D01*
X56051681Y-52106116D01*
X56425618Y-52021691D01*
X56583579Y-52014120D01*
X56969634Y-52062533D01*
X57322034Y-52202669D01*
X57628259Y-52426873D01*
X57875784Y-52727490D01*
X57944506Y-52846053D01*
X57988549Y-52932409D01*
X58022188Y-53012255D01*
X58047069Y-53100720D01*
X58064840Y-53212931D01*
X58077148Y-53364016D01*
X58085639Y-53569103D01*
X58091960Y-53843318D01*
X58097759Y-54201791D01*
X58098660Y-54262020D01*
X58115895Y-55417720D01*
X59440224Y-55417720D01*
X59410437Y-55278020D01*
X59386902Y-55156022D01*
X59354678Y-54974548D01*
X59323247Y-54787973D01*
X59302912Y-54445896D01*
X60156125Y-54445896D01*
X60192301Y-54810304D01*
X60286440Y-55158735D01*
X60313755Y-55227220D01*
X60394943Y-55417720D01*
X76240570Y-55417720D01*
X76311258Y-55278020D01*
X76432834Y-54935429D01*
X76482787Y-54546660D01*
X76460602Y-54138102D01*
X76365764Y-53736144D01*
X76342640Y-53671062D01*
X76191366Y-53379526D01*
X75968110Y-53092300D01*
X75699633Y-52837619D01*
X75412695Y-52643720D01*
X75330574Y-52603214D01*
X74997328Y-52483865D01*
X74631825Y-52402093D01*
X74289158Y-52370087D01*
X74276638Y-52370014D01*
X74171854Y-52379556D01*
X74111865Y-52426849D01*
X74068777Y-52539154D01*
X74056033Y-52585620D01*
X73923099Y-52942073D01*
X73722269Y-53301597D01*
X73477728Y-53624323D01*
X73340733Y-53764905D01*
X72949489Y-54063349D01*
X72525932Y-54272957D01*
X72082017Y-54395875D01*
X71629702Y-54434245D01*
X71180941Y-54390212D01*
X70747689Y-54265920D01*
X70341904Y-54063513D01*
X69975540Y-53785135D01*
X69660552Y-53432931D01*
X69435859Y-53064629D01*
X69349617Y-52871983D01*
X69281426Y-52683393D01*
X69250479Y-52561609D01*
X69219795Y-52369720D01*
X70089533Y-52369720D01*
X70123631Y-52484020D01*
X70271263Y-52810737D01*
X70495119Y-53088367D01*
X70778870Y-53309727D01*
X71106185Y-53467635D01*
X71460734Y-53554909D01*
X71826187Y-53564366D01*
X72186213Y-53488826D01*
X72303738Y-53442833D01*
X72553510Y-53296048D01*
X72793739Y-53091896D01*
X72991781Y-52861328D01*
X73089074Y-52698156D01*
X73151195Y-52556213D01*
X73189390Y-52450083D01*
X73195180Y-52421073D01*
X73144778Y-52404773D01*
X72995086Y-52391484D01*
X72748368Y-52381279D01*
X72406891Y-52374235D01*
X71972921Y-52370425D01*
X71642356Y-52369720D01*
X70089533Y-52369720D01*
X69219795Y-52369720D01*
X69219428Y-52367430D01*
X68326634Y-52381275D01*
X67433841Y-52395120D01*
X67394261Y-52585827D01*
X67268604Y-52960559D01*
X67057479Y-53325308D01*
X66776771Y-53663011D01*
X66442366Y-53956607D01*
X66070149Y-54189034D01*
X65791148Y-54307732D01*
X65443030Y-54390972D01*
X65053489Y-54425081D01*
X64661217Y-54410009D01*
X64304906Y-54345708D01*
X64190944Y-54309796D01*
X63737411Y-54093942D01*
X63340989Y-53799920D01*
X63011340Y-53437782D01*
X62758129Y-53017577D01*
X62628597Y-52684797D01*
X62573790Y-52530277D01*
X62510054Y-52432091D01*
X62492240Y-52422543D01*
X63441580Y-52422543D01*
X63463160Y-52496994D01*
X63517483Y-52622200D01*
X63545380Y-52678832D01*
X63768967Y-53013451D01*
X64054336Y-53275840D01*
X64387586Y-53459698D01*
X64754817Y-53558723D01*
X65142127Y-53566614D01*
X65399723Y-53519447D01*
X65633137Y-53447473D01*
X65812646Y-53361608D01*
X65984921Y-53236490D01*
X66091620Y-53143450D01*
X66213039Y-53012053D01*
X66336790Y-52843709D01*
X66444618Y-52667752D01*
X66518273Y-52513520D01*
X66540380Y-52422208D01*
X66489620Y-52404943D01*
X66337385Y-52391106D01*
X66083743Y-52380702D01*
X65728762Y-52373732D01*
X65272508Y-52370198D01*
X64990980Y-52369720D01*
X64483734Y-52371398D01*
X64077443Y-52376446D01*
X63771518Y-52384884D01*
X63565368Y-52396731D01*
X63458405Y-52412009D01*
X63441580Y-52422543D01*
X62492240Y-52422543D01*
X62417015Y-52382226D01*
X62274299Y-52372667D01*
X62061530Y-52395402D01*
X61939419Y-52413735D01*
X61488558Y-52532171D01*
X61088998Y-52734831D01*
X60748648Y-53014074D01*
X60475413Y-53362260D01*
X60277201Y-53771745D01*
X60183228Y-54110974D01*
X60156125Y-54445896D01*
X59302912Y-54445896D01*
X59294862Y-54310490D01*
X59359201Y-53830159D01*
X59508846Y-53361287D01*
X59736379Y-52918183D01*
X60034382Y-52515153D01*
X60395439Y-52166504D01*
X60812131Y-51886544D01*
X60833460Y-51875050D01*
X61010966Y-51784257D01*
X61175941Y-51711422D01*
X61342790Y-51654329D01*
X61525917Y-51610764D01*
X61739726Y-51578512D01*
X61998623Y-51555360D01*
X62317013Y-51539093D01*
X62709299Y-51527497D01*
X63149480Y-51519023D01*
X64559180Y-51495581D01*
X64559180Y-51431061D01*
X65422780Y-51431061D01*
X65436210Y-51453575D01*
X65483535Y-51471506D01*
X65575311Y-51485530D01*
X65722089Y-51496323D01*
X65934424Y-51504558D01*
X66222870Y-51510912D01*
X66597980Y-51516060D01*
X66781680Y-51518003D01*
X67445099Y-51522878D01*
X68018677Y-51523453D01*
X68500606Y-51519771D01*
X68889081Y-51511877D01*
X69182297Y-51499813D01*
X69378447Y-51483624D01*
X69475726Y-51463354D01*
X69486780Y-51452495D01*
X69438972Y-51432823D01*
X69307448Y-51417307D01*
X69110054Y-51407414D01*
X68902580Y-51404520D01*
X68318380Y-51404520D01*
X68318380Y-50540920D01*
X69486780Y-50540920D01*
X69486780Y-50236120D01*
X68318380Y-50236120D01*
X68318380Y-49372520D01*
X69486780Y-49372520D01*
X69486780Y-49067720D01*
X68318380Y-49067720D01*
X68318380Y-48204120D01*
X69478707Y-48204120D01*
X69511023Y-48056987D01*
X69553470Y-47925369D01*
X69624565Y-47831393D01*
X69740681Y-47767672D01*
X69918195Y-47726817D01*
X70173482Y-47701440D01*
X70317475Y-47693133D01*
X70677245Y-47663216D01*
X70970952Y-47614291D01*
X71189634Y-47548974D01*
X71324332Y-47469882D01*
X71366380Y-47386808D01*
X71410584Y-47188030D01*
X71539842Y-47040603D01*
X71749123Y-46948897D01*
X71899780Y-46923473D01*
X71986652Y-46903568D01*
X72057718Y-46849729D01*
X72131929Y-46741413D01*
X72218003Y-46578520D01*
X72383808Y-46154654D01*
X72451105Y-45734513D01*
X72428596Y-45347112D01*
X72311603Y-44919453D01*
X72106326Y-44527281D01*
X71824051Y-44185865D01*
X71476062Y-43910474D01*
X71290180Y-43806799D01*
X70985380Y-43657520D01*
X69518144Y-43641917D01*
X69088851Y-43637763D01*
X68747288Y-43635935D01*
X68479597Y-43637141D01*
X68271923Y-43642089D01*
X68110408Y-43651489D01*
X67981194Y-43666048D01*
X67870425Y-43686476D01*
X67764244Y-43713481D01*
X67689344Y-43735434D01*
X67244389Y-43898765D01*
X66861567Y-44108417D01*
X66505669Y-44385490D01*
X66336674Y-44546014D01*
X66020413Y-44901023D01*
X65783639Y-45262813D01*
X65607437Y-45663462D01*
X65527977Y-45917460D01*
X65464858Y-46154324D01*
X65433266Y-46312212D01*
X65435060Y-46409324D01*
X65472100Y-46463856D01*
X65546245Y-46494006D01*
X65587880Y-46503562D01*
X65921837Y-46615795D01*
X66265731Y-46805043D01*
X66595473Y-47052586D01*
X66886973Y-47339707D01*
X67116143Y-47647685D01*
X67161008Y-47725994D01*
X67348539Y-48178225D01*
X67442133Y-48649345D01*
X67443807Y-49125294D01*
X67355577Y-49592013D01*
X67179462Y-50035440D01*
X66917477Y-50441517D01*
X66743247Y-50638057D01*
X66444791Y-50893450D01*
X66102138Y-51110033D01*
X65752905Y-51265254D01*
X65638680Y-51300222D01*
X65497758Y-51353502D01*
X65426821Y-51414316D01*
X65422780Y-51431061D01*
X64559180Y-51431061D01*
X64559180Y-48889238D01*
X65422780Y-48889238D01*
X65424457Y-49396599D01*
X65429502Y-49803006D01*
X65437936Y-50109051D01*
X65449778Y-50315323D01*
X65465048Y-50422416D01*
X65475603Y-50439320D01*
X65550066Y-50417739D01*
X65675256Y-50363423D01*
X65731711Y-50335612D01*
X66045869Y-50124009D01*
X66286938Y-49856791D01*
X66455516Y-49548294D01*
X66552197Y-49212855D01*
X66577575Y-48864812D01*
X66532248Y-48518501D01*
X66416810Y-48188260D01*
X66231855Y-47888424D01*
X65977981Y-47633332D01*
X65655781Y-47437321D01*
X65610545Y-47417610D01*
X65422780Y-47339156D01*
X65422780Y-48889238D01*
X64559180Y-48889238D01*
X64559180Y-48887971D01*
X64559558Y-48261339D01*
X64561180Y-47726711D01*
X64564772Y-47274489D01*
X64571060Y-46895079D01*
X64580774Y-46578884D01*
X64594639Y-46316308D01*
X64613383Y-46097757D01*
X64637733Y-45913634D01*
X64668417Y-45754343D01*
X64706162Y-45610288D01*
X64751695Y-45471875D01*
X64805743Y-45329506D01*
X64834253Y-45258598D01*
X65118301Y-44690833D01*
X65481724Y-44182120D01*
X65916823Y-43739159D01*
X66415899Y-43368651D01*
X66971254Y-43077297D01*
X67575188Y-42871799D01*
X67577206Y-42871282D01*
X67704976Y-42840943D01*
X67832820Y-42817175D01*
X67974998Y-42799204D01*
X68145776Y-42786254D01*
X68359415Y-42777552D01*
X68630180Y-42772322D01*
X68972334Y-42769789D01*
X69400139Y-42769180D01*
X69456806Y-42769199D01*
G36*
X69112162Y-45200616D02*
G01*
X69234613Y-45312156D01*
X69316627Y-45457817D01*
X69334380Y-45556056D01*
X69315068Y-45741716D01*
X69245596Y-45863806D01*
X69127546Y-45945398D01*
X68974854Y-46007520D01*
X68852785Y-46005396D01*
X68750180Y-45961059D01*
X68593685Y-45823931D01*
X68520974Y-45640129D01*
X68538741Y-45429159D01*
X68553136Y-45386995D01*
X68629341Y-45297027D01*
X68763568Y-45214755D01*
X68913399Y-45163198D01*
X68978566Y-45156120D01*
X69112162Y-45200616D01*
G37*
X69112162Y-45200616D02*
X69234613Y-45312156D01*
X69316627Y-45457817D01*
X69334380Y-45556056D01*
X69315068Y-45741716D01*
X69245596Y-45863806D01*
X69127546Y-45945398D01*
X68974854Y-46007520D01*
X68852785Y-46005396D01*
X68750180Y-45961059D01*
X68593685Y-45823931D01*
X68520974Y-45640129D01*
X68538741Y-45429159D01*
X68553136Y-45386995D01*
X68629341Y-45297027D01*
X68763568Y-45214755D01*
X68913399Y-45163198D01*
X68978566Y-45156120D01*
X69112162Y-45200616D01*
D10*
%TO.C,i2c4*%
X48708000Y-56201000D02*
X50038000Y-56201000D01*
X48708000Y-57531000D02*
X48708000Y-56201000D01*
X48708000Y-58801000D02*
X51368000Y-58801000D01*
X51368000Y-58801000D02*
X51368000Y-66481000D01*
X48708000Y-58801000D02*
X48708000Y-66481000D01*
X48708000Y-66481000D02*
X51368000Y-66481000D01*
%TO.C,i2c3*%
X44898000Y-66481000D02*
X47558000Y-66481000D01*
X44898000Y-58801000D02*
X44898000Y-66481000D01*
X47558000Y-58801000D02*
X47558000Y-66481000D01*
X44898000Y-58801000D02*
X47558000Y-58801000D01*
X44898000Y-57531000D02*
X44898000Y-56201000D01*
X44898000Y-56201000D02*
X46228000Y-56201000D01*
%TD*%
%TO.C,D2*%
D11*
X84662904Y-80360780D02*
X84662904Y-79360780D01*
X84901000Y-79360780D01*
X85043857Y-79408400D01*
X85139095Y-79503638D01*
X85186714Y-79598876D01*
X85234333Y-79789352D01*
X85234333Y-79932209D01*
X85186714Y-80122685D01*
X85139095Y-80217923D01*
X85043857Y-80313161D01*
X84901000Y-80360780D01*
X84662904Y-80360780D01*
X85615285Y-79456019D02*
X85662904Y-79408400D01*
X85758142Y-79360780D01*
X85996238Y-79360780D01*
X86091476Y-79408400D01*
X86139095Y-79456019D01*
X86186714Y-79551257D01*
X86186714Y-79646495D01*
X86139095Y-79789352D01*
X85567666Y-80360780D01*
X86186714Y-80360780D01*
%TO.C,D1*%
X102690704Y-80309980D02*
X102690704Y-79309980D01*
X102928800Y-79309980D01*
X103071657Y-79357600D01*
X103166895Y-79452838D01*
X103214514Y-79548076D01*
X103262133Y-79738552D01*
X103262133Y-79881409D01*
X103214514Y-80071885D01*
X103166895Y-80167123D01*
X103071657Y-80262361D01*
X102928800Y-80309980D01*
X102690704Y-80309980D01*
X104214514Y-80309980D02*
X103643085Y-80309980D01*
X103928800Y-80309980D02*
X103928800Y-79309980D01*
X103833561Y-79452838D01*
X103738323Y-79548076D01*
X103643085Y-79595695D01*
%TO.C,D3*%
X66622704Y-80411580D02*
X66622704Y-79411580D01*
X66860800Y-79411580D01*
X67003657Y-79459200D01*
X67098895Y-79554438D01*
X67146514Y-79649676D01*
X67194133Y-79840152D01*
X67194133Y-79983009D01*
X67146514Y-80173485D01*
X67098895Y-80268723D01*
X67003657Y-80363961D01*
X66860800Y-80411580D01*
X66622704Y-80411580D01*
X67527466Y-79411580D02*
X68146514Y-79411580D01*
X67813180Y-79792533D01*
X67956038Y-79792533D01*
X68051276Y-79840152D01*
X68098895Y-79887771D01*
X68146514Y-79983009D01*
X68146514Y-80221104D01*
X68098895Y-80316342D01*
X68051276Y-80363961D01*
X67956038Y-80411580D01*
X67670323Y-80411580D01*
X67575085Y-80363961D01*
X67527466Y-80316342D01*
%TO.C,SW3*%
X43570380Y-76049285D02*
X43094190Y-76382619D01*
X43570380Y-76620714D02*
X42570380Y-76620714D01*
X42570380Y-76239761D01*
X42618000Y-76144523D01*
X42665619Y-76096904D01*
X42760857Y-76049285D01*
X42903714Y-76049285D01*
X42998952Y-76096904D01*
X43046571Y-76144523D01*
X43094190Y-76239761D01*
X43094190Y-76620714D01*
X43046571Y-75620714D02*
X43046571Y-75287380D01*
X43570380Y-75144523D02*
X43570380Y-75620714D01*
X42570380Y-75620714D01*
X42570380Y-75144523D01*
X43522761Y-74763571D02*
X43570380Y-74620714D01*
X43570380Y-74382619D01*
X43522761Y-74287380D01*
X43475142Y-74239761D01*
X43379904Y-74192142D01*
X43284666Y-74192142D01*
X43189428Y-74239761D01*
X43141809Y-74287380D01*
X43094190Y-74382619D01*
X43046571Y-74573095D01*
X42998952Y-74668333D01*
X42951333Y-74715952D01*
X42856095Y-74763571D01*
X42760857Y-74763571D01*
X42665619Y-74715952D01*
X42618000Y-74668333D01*
X42570380Y-74573095D01*
X42570380Y-74335000D01*
X42618000Y-74192142D01*
X43046571Y-73763571D02*
X43046571Y-73430238D01*
X43570380Y-73287380D02*
X43570380Y-73763571D01*
X42570380Y-73763571D01*
X42570380Y-73287380D01*
X42570380Y-73001666D02*
X42570380Y-72430238D01*
X43570380Y-72715952D02*
X42570380Y-72715952D01*
X43570380Y-70763571D02*
X43094190Y-71096904D01*
X43570380Y-71335000D02*
X42570380Y-71335000D01*
X42570380Y-70954047D01*
X42618000Y-70858809D01*
X42665619Y-70811190D01*
X42760857Y-70763571D01*
X42903714Y-70763571D01*
X42998952Y-70811190D01*
X43046571Y-70858809D01*
X43094190Y-70954047D01*
X43094190Y-71335000D01*
X42570380Y-70477857D02*
X42570380Y-69906428D01*
X43570380Y-70192142D02*
X42570380Y-70192142D01*
X43475142Y-69001666D02*
X43522761Y-69049285D01*
X43570380Y-69192142D01*
X43570380Y-69287380D01*
X43522761Y-69430238D01*
X43427523Y-69525476D01*
X43332285Y-69573095D01*
X43141809Y-69620714D01*
X42998952Y-69620714D01*
X42808476Y-69573095D01*
X42713238Y-69525476D01*
X42618000Y-69430238D01*
X42570380Y-69287380D01*
X42570380Y-69192142D01*
X42618000Y-69049285D01*
X42665619Y-69001666D01*
%TO.C,U1*%
X106807095Y-45108880D02*
X106807095Y-45918404D01*
X106854714Y-46013642D01*
X106902333Y-46061261D01*
X106997571Y-46108880D01*
X107188047Y-46108880D01*
X107283285Y-46061261D01*
X107330904Y-46013642D01*
X107378523Y-45918404D01*
X107378523Y-45108880D01*
X108378523Y-46108880D02*
X107807095Y-46108880D01*
X108092809Y-46108880D02*
X108092809Y-45108880D01*
X107997571Y-45251738D01*
X107902333Y-45346976D01*
X107807095Y-45394595D01*
%TO.C,D4*%
X53360904Y-72503380D02*
X53360904Y-71503380D01*
X53599000Y-71503380D01*
X53741857Y-71551000D01*
X53837095Y-71646238D01*
X53884714Y-71741476D01*
X53932333Y-71931952D01*
X53932333Y-72074809D01*
X53884714Y-72265285D01*
X53837095Y-72360523D01*
X53741857Y-72455761D01*
X53599000Y-72503380D01*
X53360904Y-72503380D01*
X54789476Y-71836714D02*
X54789476Y-72503380D01*
X54551380Y-71455761D02*
X54313285Y-72170047D01*
X54932333Y-72170047D01*
%TO.C,H3*%
X44238095Y-105252380D02*
X44238095Y-104252380D01*
X44238095Y-104728571D02*
X44809523Y-104728571D01*
X44809523Y-105252380D02*
X44809523Y-104252380D01*
X45190476Y-104252380D02*
X45809523Y-104252380D01*
X45476190Y-104633333D01*
X45619047Y-104633333D01*
X45714285Y-104680952D01*
X45761904Y-104728571D01*
X45809523Y-104823809D01*
X45809523Y-105061904D01*
X45761904Y-105157142D01*
X45714285Y-105204761D01*
X45619047Y-105252380D01*
X45333333Y-105252380D01*
X45238095Y-105204761D01*
X45190476Y-105157142D01*
%TO.C,HT3*%
X97917142Y-25053380D02*
X97917142Y-24053380D01*
X97917142Y-24529571D02*
X98488571Y-24529571D01*
X98488571Y-25053380D02*
X98488571Y-24053380D01*
X98821904Y-24053380D02*
X99393333Y-24053380D01*
X99107619Y-25053380D02*
X99107619Y-24053380D01*
X99631428Y-24053380D02*
X100250476Y-24053380D01*
X99917142Y-24434333D01*
X100060000Y-24434333D01*
X100155238Y-24481952D01*
X100202857Y-24529571D01*
X100250476Y-24624809D01*
X100250476Y-24862904D01*
X100202857Y-24958142D01*
X100155238Y-25005761D01*
X100060000Y-25053380D01*
X99774285Y-25053380D01*
X99679047Y-25005761D01*
X99631428Y-24958142D01*
%TO.C,LED3*%
X70010952Y-71437780D02*
X69534761Y-71437780D01*
X69534761Y-70437780D01*
X70344285Y-70913971D02*
X70677619Y-70913971D01*
X70820476Y-71437780D02*
X70344285Y-71437780D01*
X70344285Y-70437780D01*
X70820476Y-70437780D01*
X71249047Y-71437780D02*
X71249047Y-70437780D01*
X71487142Y-70437780D01*
X71630000Y-70485400D01*
X71725238Y-70580638D01*
X71772857Y-70675876D01*
X71820476Y-70866352D01*
X71820476Y-71009209D01*
X71772857Y-71199685D01*
X71725238Y-71294923D01*
X71630000Y-71390161D01*
X71487142Y-71437780D01*
X71249047Y-71437780D01*
X72153809Y-70437780D02*
X72772857Y-70437780D01*
X72439523Y-70818733D01*
X72582380Y-70818733D01*
X72677619Y-70866352D01*
X72725238Y-70913971D01*
X72772857Y-71009209D01*
X72772857Y-71247304D01*
X72725238Y-71342542D01*
X72677619Y-71390161D01*
X72582380Y-71437780D01*
X72296666Y-71437780D01*
X72201428Y-71390161D01*
X72153809Y-71342542D01*
%TO.C,R10*%
X101782642Y-58618380D02*
X101449309Y-58142190D01*
X101211214Y-58618380D02*
X101211214Y-57618380D01*
X101592166Y-57618380D01*
X101687404Y-57666000D01*
X101735023Y-57713619D01*
X101782642Y-57808857D01*
X101782642Y-57951714D01*
X101735023Y-58046952D01*
X101687404Y-58094571D01*
X101592166Y-58142190D01*
X101211214Y-58142190D01*
X102735023Y-58618380D02*
X102163595Y-58618380D01*
X102449309Y-58618380D02*
X102449309Y-57618380D01*
X102354071Y-57761238D01*
X102258833Y-57856476D01*
X102163595Y-57904095D01*
X103354071Y-57618380D02*
X103449309Y-57618380D01*
X103544547Y-57666000D01*
X103592166Y-57713619D01*
X103639785Y-57808857D01*
X103687404Y-57999333D01*
X103687404Y-58237428D01*
X103639785Y-58427904D01*
X103592166Y-58523142D01*
X103544547Y-58570761D01*
X103449309Y-58618380D01*
X103354071Y-58618380D01*
X103258833Y-58570761D01*
X103211214Y-58523142D01*
X103163595Y-58427904D01*
X103115976Y-58237428D01*
X103115976Y-57999333D01*
X103163595Y-57808857D01*
X103211214Y-57713619D01*
X103258833Y-57666000D01*
X103354071Y-57618380D01*
%TO.C,R11*%
X101782642Y-44965880D02*
X101449309Y-44489690D01*
X101211214Y-44965880D02*
X101211214Y-43965880D01*
X101592166Y-43965880D01*
X101687404Y-44013500D01*
X101735023Y-44061119D01*
X101782642Y-44156357D01*
X101782642Y-44299214D01*
X101735023Y-44394452D01*
X101687404Y-44442071D01*
X101592166Y-44489690D01*
X101211214Y-44489690D01*
X102735023Y-44965880D02*
X102163595Y-44965880D01*
X102449309Y-44965880D02*
X102449309Y-43965880D01*
X102354071Y-44108738D01*
X102258833Y-44203976D01*
X102163595Y-44251595D01*
X103687404Y-44965880D02*
X103115976Y-44965880D01*
X103401690Y-44965880D02*
X103401690Y-43965880D01*
X103306452Y-44108738D01*
X103211214Y-44203976D01*
X103115976Y-44251595D01*
%TO.C,LED1*%
X105764152Y-71394580D02*
X105287961Y-71394580D01*
X105287961Y-70394580D01*
X106097485Y-70870771D02*
X106430819Y-70870771D01*
X106573676Y-71394580D02*
X106097485Y-71394580D01*
X106097485Y-70394580D01*
X106573676Y-70394580D01*
X107002247Y-71394580D02*
X107002247Y-70394580D01*
X107240342Y-70394580D01*
X107383200Y-70442200D01*
X107478438Y-70537438D01*
X107526057Y-70632676D01*
X107573676Y-70823152D01*
X107573676Y-70966009D01*
X107526057Y-71156485D01*
X107478438Y-71251723D01*
X107383200Y-71346961D01*
X107240342Y-71394580D01*
X107002247Y-71394580D01*
X108526057Y-71394580D02*
X107954628Y-71394580D01*
X108240342Y-71394580D02*
X108240342Y-70394580D01*
X108145104Y-70537438D01*
X108049866Y-70632676D01*
X107954628Y-70680295D01*
%TO.C,LED2*%
X87780952Y-71445380D02*
X87304761Y-71445380D01*
X87304761Y-70445380D01*
X88114285Y-70921571D02*
X88447619Y-70921571D01*
X88590476Y-71445380D02*
X88114285Y-71445380D01*
X88114285Y-70445380D01*
X88590476Y-70445380D01*
X89019047Y-71445380D02*
X89019047Y-70445380D01*
X89257142Y-70445380D01*
X89400000Y-70493000D01*
X89495238Y-70588238D01*
X89542857Y-70683476D01*
X89590476Y-70873952D01*
X89590476Y-71016809D01*
X89542857Y-71207285D01*
X89495238Y-71302523D01*
X89400000Y-71397761D01*
X89257142Y-71445380D01*
X89019047Y-71445380D01*
X89971428Y-70540619D02*
X90019047Y-70493000D01*
X90114285Y-70445380D01*
X90352380Y-70445380D01*
X90447619Y-70493000D01*
X90495238Y-70540619D01*
X90542857Y-70635857D01*
X90542857Y-70731095D01*
X90495238Y-70873952D01*
X89923809Y-71445380D01*
X90542857Y-71445380D01*
%TO.C,LED4*%
X126182752Y-35783780D02*
X125706561Y-35783780D01*
X125706561Y-34783780D01*
X126516085Y-35259971D02*
X126849419Y-35259971D01*
X126992276Y-35783780D02*
X126516085Y-35783780D01*
X126516085Y-34783780D01*
X126992276Y-34783780D01*
X127420847Y-35783780D02*
X127420847Y-34783780D01*
X127658942Y-34783780D01*
X127801800Y-34831400D01*
X127897038Y-34926638D01*
X127944657Y-35021876D01*
X127992276Y-35212352D01*
X127992276Y-35355209D01*
X127944657Y-35545685D01*
X127897038Y-35640923D01*
X127801800Y-35736161D01*
X127658942Y-35783780D01*
X127420847Y-35783780D01*
X128849419Y-35117114D02*
X128849419Y-35783780D01*
X128611323Y-34736161D02*
X128373228Y-35450447D01*
X128992276Y-35450447D01*
%TO.C,R12*%
X126596442Y-32033380D02*
X126263109Y-31557190D01*
X126025014Y-32033380D02*
X126025014Y-31033380D01*
X126405966Y-31033380D01*
X126501204Y-31081000D01*
X126548823Y-31128619D01*
X126596442Y-31223857D01*
X126596442Y-31366714D01*
X126548823Y-31461952D01*
X126501204Y-31509571D01*
X126405966Y-31557190D01*
X126025014Y-31557190D01*
X127548823Y-32033380D02*
X126977395Y-32033380D01*
X127263109Y-32033380D02*
X127263109Y-31033380D01*
X127167871Y-31176238D01*
X127072633Y-31271476D01*
X126977395Y-31319095D01*
X127929776Y-31128619D02*
X127977395Y-31081000D01*
X128072633Y-31033380D01*
X128310728Y-31033380D01*
X128405966Y-31081000D01*
X128453585Y-31128619D01*
X128501204Y-31223857D01*
X128501204Y-31319095D01*
X128453585Y-31461952D01*
X127882157Y-32033380D01*
X128501204Y-32033380D01*
%TO.C,C2*%
X120673833Y-39028642D02*
X120626214Y-39076261D01*
X120483357Y-39123880D01*
X120388119Y-39123880D01*
X120245261Y-39076261D01*
X120150023Y-38981023D01*
X120102404Y-38885785D01*
X120054785Y-38695309D01*
X120054785Y-38552452D01*
X120102404Y-38361976D01*
X120150023Y-38266738D01*
X120245261Y-38171500D01*
X120388119Y-38123880D01*
X120483357Y-38123880D01*
X120626214Y-38171500D01*
X120673833Y-38219119D01*
X121054785Y-38219119D02*
X121102404Y-38171500D01*
X121197642Y-38123880D01*
X121435738Y-38123880D01*
X121530976Y-38171500D01*
X121578595Y-38219119D01*
X121626214Y-38314357D01*
X121626214Y-38409595D01*
X121578595Y-38552452D01*
X121007166Y-39123880D01*
X121626214Y-39123880D01*
%TO.C,C3*%
X106894333Y-39092142D02*
X106846714Y-39139761D01*
X106703857Y-39187380D01*
X106608619Y-39187380D01*
X106465761Y-39139761D01*
X106370523Y-39044523D01*
X106322904Y-38949285D01*
X106275285Y-38758809D01*
X106275285Y-38615952D01*
X106322904Y-38425476D01*
X106370523Y-38330238D01*
X106465761Y-38235000D01*
X106608619Y-38187380D01*
X106703857Y-38187380D01*
X106846714Y-38235000D01*
X106894333Y-38282619D01*
X107227666Y-38187380D02*
X107846714Y-38187380D01*
X107513380Y-38568333D01*
X107656238Y-38568333D01*
X107751476Y-38615952D01*
X107799095Y-38663571D01*
X107846714Y-38758809D01*
X107846714Y-38996904D01*
X107799095Y-39092142D01*
X107751476Y-39139761D01*
X107656238Y-39187380D01*
X107370523Y-39187380D01*
X107275285Y-39139761D01*
X107227666Y-39092142D01*
%TO.C,C1*%
X59967833Y-27598642D02*
X59920214Y-27646261D01*
X59777357Y-27693880D01*
X59682119Y-27693880D01*
X59539261Y-27646261D01*
X59444023Y-27551023D01*
X59396404Y-27455785D01*
X59348785Y-27265309D01*
X59348785Y-27122452D01*
X59396404Y-26931976D01*
X59444023Y-26836738D01*
X59539261Y-26741500D01*
X59682119Y-26693880D01*
X59777357Y-26693880D01*
X59920214Y-26741500D01*
X59967833Y-26789119D01*
X60920214Y-27693880D02*
X60348785Y-27693880D01*
X60634500Y-27693880D02*
X60634500Y-26693880D01*
X60539261Y-26836738D01*
X60444023Y-26931976D01*
X60348785Y-26979595D01*
%TO.C,R9*%
X86256833Y-44076880D02*
X85923500Y-43600690D01*
X85685404Y-44076880D02*
X85685404Y-43076880D01*
X86066357Y-43076880D01*
X86161595Y-43124500D01*
X86209214Y-43172119D01*
X86256833Y-43267357D01*
X86256833Y-43410214D01*
X86209214Y-43505452D01*
X86161595Y-43553071D01*
X86066357Y-43600690D01*
X85685404Y-43600690D01*
X86733023Y-44076880D02*
X86923500Y-44076880D01*
X87018738Y-44029261D01*
X87066357Y-43981642D01*
X87161595Y-43838785D01*
X87209214Y-43648309D01*
X87209214Y-43267357D01*
X87161595Y-43172119D01*
X87113976Y-43124500D01*
X87018738Y-43076880D01*
X86828261Y-43076880D01*
X86733023Y-43124500D01*
X86685404Y-43172119D01*
X86637785Y-43267357D01*
X86637785Y-43505452D01*
X86685404Y-43600690D01*
X86733023Y-43648309D01*
X86828261Y-43695928D01*
X87018738Y-43695928D01*
X87113976Y-43648309D01*
X87161595Y-43600690D01*
X87209214Y-43505452D01*
%TO.C,R8*%
X86320333Y-58110380D02*
X85987000Y-57634190D01*
X85748904Y-58110380D02*
X85748904Y-57110380D01*
X86129857Y-57110380D01*
X86225095Y-57158000D01*
X86272714Y-57205619D01*
X86320333Y-57300857D01*
X86320333Y-57443714D01*
X86272714Y-57538952D01*
X86225095Y-57586571D01*
X86129857Y-57634190D01*
X85748904Y-57634190D01*
X86891761Y-57538952D02*
X86796523Y-57491333D01*
X86748904Y-57443714D01*
X86701285Y-57348476D01*
X86701285Y-57300857D01*
X86748904Y-57205619D01*
X86796523Y-57158000D01*
X86891761Y-57110380D01*
X87082238Y-57110380D01*
X87177476Y-57158000D01*
X87225095Y-57205619D01*
X87272714Y-57300857D01*
X87272714Y-57348476D01*
X87225095Y-57443714D01*
X87177476Y-57491333D01*
X87082238Y-57538952D01*
X86891761Y-57538952D01*
X86796523Y-57586571D01*
X86748904Y-57634190D01*
X86701285Y-57729428D01*
X86701285Y-57919904D01*
X86748904Y-58015142D01*
X86796523Y-58062761D01*
X86891761Y-58110380D01*
X87082238Y-58110380D01*
X87177476Y-58062761D01*
X87225095Y-58015142D01*
X87272714Y-57919904D01*
X87272714Y-57729428D01*
X87225095Y-57634190D01*
X87177476Y-57586571D01*
X87082238Y-57538952D01*
%TO.C,R7*%
X75419033Y-73317380D02*
X75085700Y-72841190D01*
X74847604Y-73317380D02*
X74847604Y-72317380D01*
X75228557Y-72317380D01*
X75323795Y-72365000D01*
X75371414Y-72412619D01*
X75419033Y-72507857D01*
X75419033Y-72650714D01*
X75371414Y-72745952D01*
X75323795Y-72793571D01*
X75228557Y-72841190D01*
X74847604Y-72841190D01*
X75752366Y-72317380D02*
X76419033Y-72317380D01*
X75990461Y-73317380D01*
%TO.C,R6*%
X67378933Y-76868180D02*
X67045600Y-76391990D01*
X66807504Y-76868180D02*
X66807504Y-75868180D01*
X67188457Y-75868180D01*
X67283695Y-75915800D01*
X67331314Y-75963419D01*
X67378933Y-76058657D01*
X67378933Y-76201514D01*
X67331314Y-76296752D01*
X67283695Y-76344371D01*
X67188457Y-76391990D01*
X66807504Y-76391990D01*
X68236076Y-75868180D02*
X68045600Y-75868180D01*
X67950361Y-75915800D01*
X67902742Y-75963419D01*
X67807504Y-76106276D01*
X67759885Y-76296752D01*
X67759885Y-76677704D01*
X67807504Y-76772942D01*
X67855123Y-76820561D01*
X67950361Y-76868180D01*
X68140838Y-76868180D01*
X68236076Y-76820561D01*
X68283695Y-76772942D01*
X68331314Y-76677704D01*
X68331314Y-76439609D01*
X68283695Y-76344371D01*
X68236076Y-76296752D01*
X68140838Y-76249133D01*
X67950361Y-76249133D01*
X67855123Y-76296752D01*
X67807504Y-76344371D01*
X67759885Y-76439609D01*
%TO.C,R4*%
X85431333Y-76880980D02*
X85098000Y-76404790D01*
X84859904Y-76880980D02*
X84859904Y-75880980D01*
X85240857Y-75880980D01*
X85336095Y-75928600D01*
X85383714Y-75976219D01*
X85431333Y-76071457D01*
X85431333Y-76214314D01*
X85383714Y-76309552D01*
X85336095Y-76357171D01*
X85240857Y-76404790D01*
X84859904Y-76404790D01*
X86288476Y-76214314D02*
X86288476Y-76880980D01*
X86050380Y-75833361D02*
X85812285Y-76547647D01*
X86431333Y-76547647D01*
%TO.C,R3*%
X93254533Y-73324980D02*
X92921200Y-72848790D01*
X92683104Y-73324980D02*
X92683104Y-72324980D01*
X93064057Y-72324980D01*
X93159295Y-72372600D01*
X93206914Y-72420219D01*
X93254533Y-72515457D01*
X93254533Y-72658314D01*
X93206914Y-72753552D01*
X93159295Y-72801171D01*
X93064057Y-72848790D01*
X92683104Y-72848790D01*
X93587866Y-72324980D02*
X94206914Y-72324980D01*
X93873580Y-72705933D01*
X94016438Y-72705933D01*
X94111676Y-72753552D01*
X94159295Y-72801171D01*
X94206914Y-72896409D01*
X94206914Y-73134504D01*
X94159295Y-73229742D01*
X94111676Y-73277361D01*
X94016438Y-73324980D01*
X93730723Y-73324980D01*
X93635485Y-73277361D01*
X93587866Y-73229742D01*
%TO.C,R2*%
X103312933Y-76830180D02*
X102979600Y-76353990D01*
X102741504Y-76830180D02*
X102741504Y-75830180D01*
X103122457Y-75830180D01*
X103217695Y-75877800D01*
X103265314Y-75925419D01*
X103312933Y-76020657D01*
X103312933Y-76163514D01*
X103265314Y-76258752D01*
X103217695Y-76306371D01*
X103122457Y-76353990D01*
X102741504Y-76353990D01*
X103693885Y-75925419D02*
X103741504Y-75877800D01*
X103836742Y-75830180D01*
X104074838Y-75830180D01*
X104170076Y-75877800D01*
X104217695Y-75925419D01*
X104265314Y-76020657D01*
X104265314Y-76115895D01*
X104217695Y-76258752D01*
X103646266Y-76830180D01*
X104265314Y-76830180D01*
%TO.C,R1*%
X111999733Y-73274180D02*
X111666400Y-72797990D01*
X111428304Y-73274180D02*
X111428304Y-72274180D01*
X111809257Y-72274180D01*
X111904495Y-72321800D01*
X111952114Y-72369419D01*
X111999733Y-72464657D01*
X111999733Y-72607514D01*
X111952114Y-72702752D01*
X111904495Y-72750371D01*
X111809257Y-72797990D01*
X111428304Y-72797990D01*
X112952114Y-73274180D02*
X112380685Y-73274180D01*
X112666400Y-73274180D02*
X112666400Y-72274180D01*
X112571161Y-72417038D01*
X112475923Y-72512276D01*
X112380685Y-72559895D01*
%TO.C,R5*%
X56348333Y-34424880D02*
X56015000Y-33948690D01*
X55776904Y-34424880D02*
X55776904Y-33424880D01*
X56157857Y-33424880D01*
X56253095Y-33472500D01*
X56300714Y-33520119D01*
X56348333Y-33615357D01*
X56348333Y-33758214D01*
X56300714Y-33853452D01*
X56253095Y-33901071D01*
X56157857Y-33948690D01*
X55776904Y-33948690D01*
X57253095Y-33424880D02*
X56776904Y-33424880D01*
X56729285Y-33901071D01*
X56776904Y-33853452D01*
X56872142Y-33805833D01*
X57110238Y-33805833D01*
X57205476Y-33853452D01*
X57253095Y-33901071D01*
X57300714Y-33996309D01*
X57300714Y-34234404D01*
X57253095Y-34329642D01*
X57205476Y-34377261D01*
X57110238Y-34424880D01*
X56872142Y-34424880D01*
X56776904Y-34377261D01*
X56729285Y-34329642D01*
%TO.C,U3*%
X112903095Y-41362380D02*
X112903095Y-42171904D01*
X112950714Y-42267142D01*
X112998333Y-42314761D01*
X113093571Y-42362380D01*
X113284047Y-42362380D01*
X113379285Y-42314761D01*
X113426904Y-42267142D01*
X113474523Y-42171904D01*
X113474523Y-41362380D01*
X113855476Y-41362380D02*
X114474523Y-41362380D01*
X114141190Y-41743333D01*
X114284047Y-41743333D01*
X114379285Y-41790952D01*
X114426904Y-41838571D01*
X114474523Y-41933809D01*
X114474523Y-42171904D01*
X114426904Y-42267142D01*
X114379285Y-42314761D01*
X114284047Y-42362380D01*
X113998333Y-42362380D01*
X113903095Y-42314761D01*
X113855476Y-42267142D01*
%TO.C,SW2*%
X94607071Y-60323742D02*
X94654690Y-60180885D01*
X94702309Y-60133266D01*
X94797547Y-60085647D01*
X94940404Y-60085647D01*
X95035642Y-60133266D01*
X95083261Y-60180885D01*
X95130880Y-60276123D01*
X95130880Y-60657076D01*
X94130880Y-60657076D01*
X94130880Y-60323742D01*
X94178500Y-60228504D01*
X94226119Y-60180885D01*
X94321357Y-60133266D01*
X94416595Y-60133266D01*
X94511833Y-60180885D01*
X94559452Y-60228504D01*
X94607071Y-60323742D01*
X94607071Y-60657076D01*
X94130880Y-59466600D02*
X94130880Y-59276123D01*
X94178500Y-59180885D01*
X94273738Y-59085647D01*
X94464214Y-59038028D01*
X94797547Y-59038028D01*
X94988023Y-59085647D01*
X95083261Y-59180885D01*
X95130880Y-59276123D01*
X95130880Y-59466600D01*
X95083261Y-59561838D01*
X94988023Y-59657076D01*
X94797547Y-59704695D01*
X94464214Y-59704695D01*
X94273738Y-59657076D01*
X94178500Y-59561838D01*
X94130880Y-59466600D01*
X94130880Y-58418980D02*
X94130880Y-58228504D01*
X94178500Y-58133266D01*
X94273738Y-58038028D01*
X94464214Y-57990409D01*
X94797547Y-57990409D01*
X94988023Y-58038028D01*
X95083261Y-58133266D01*
X95130880Y-58228504D01*
X95130880Y-58418980D01*
X95083261Y-58514219D01*
X94988023Y-58609457D01*
X94797547Y-58657076D01*
X94464214Y-58657076D01*
X94273738Y-58609457D01*
X94178500Y-58514219D01*
X94130880Y-58418980D01*
X94130880Y-57704695D02*
X94130880Y-57133266D01*
X95130880Y-57418980D02*
X94130880Y-57418980D01*
%TO.C,SW1*%
X95132380Y-46728380D02*
X94656190Y-47061714D01*
X95132380Y-47299809D02*
X94132380Y-47299809D01*
X94132380Y-46918857D01*
X94180000Y-46823619D01*
X94227619Y-46776000D01*
X94322857Y-46728380D01*
X94465714Y-46728380D01*
X94560952Y-46776000D01*
X94608571Y-46823619D01*
X94656190Y-46918857D01*
X94656190Y-47299809D01*
X94608571Y-46299809D02*
X94608571Y-45966476D01*
X95132380Y-45823619D02*
X95132380Y-46299809D01*
X94132380Y-46299809D01*
X94132380Y-45823619D01*
X95084761Y-45442666D02*
X95132380Y-45299809D01*
X95132380Y-45061714D01*
X95084761Y-44966476D01*
X95037142Y-44918857D01*
X94941904Y-44871238D01*
X94846666Y-44871238D01*
X94751428Y-44918857D01*
X94703809Y-44966476D01*
X94656190Y-45061714D01*
X94608571Y-45252190D01*
X94560952Y-45347428D01*
X94513333Y-45395047D01*
X94418095Y-45442666D01*
X94322857Y-45442666D01*
X94227619Y-45395047D01*
X94180000Y-45347428D01*
X94132380Y-45252190D01*
X94132380Y-45014095D01*
X94180000Y-44871238D01*
X94608571Y-44442666D02*
X94608571Y-44109333D01*
X95132380Y-43966476D02*
X95132380Y-44442666D01*
X94132380Y-44442666D01*
X94132380Y-43966476D01*
X94132380Y-43680761D02*
X94132380Y-43109333D01*
X95132380Y-43395047D02*
X94132380Y-43395047D01*
%TO.C,S4*%
X123799695Y-81087861D02*
X123942552Y-81135480D01*
X124180647Y-81135480D01*
X124275885Y-81087861D01*
X124323504Y-81040242D01*
X124371123Y-80945004D01*
X124371123Y-80849766D01*
X124323504Y-80754528D01*
X124275885Y-80706909D01*
X124180647Y-80659290D01*
X123990171Y-80611671D01*
X123894933Y-80564052D01*
X123847314Y-80516433D01*
X123799695Y-80421195D01*
X123799695Y-80325957D01*
X123847314Y-80230719D01*
X123894933Y-80183100D01*
X123990171Y-80135480D01*
X124228266Y-80135480D01*
X124371123Y-80183100D01*
X125228266Y-80468814D02*
X125228266Y-81135480D01*
X124990171Y-80087861D02*
X124752076Y-80802147D01*
X125371123Y-80802147D01*
%TO.C,U2*%
X85964595Y-50125380D02*
X85964595Y-50934904D01*
X86012214Y-51030142D01*
X86059833Y-51077761D01*
X86155071Y-51125380D01*
X86345547Y-51125380D01*
X86440785Y-51077761D01*
X86488404Y-51030142D01*
X86536023Y-50934904D01*
X86536023Y-50125380D01*
X86964595Y-50220619D02*
X87012214Y-50173000D01*
X87107452Y-50125380D01*
X87345547Y-50125380D01*
X87440785Y-50173000D01*
X87488404Y-50220619D01*
X87536023Y-50315857D01*
X87536023Y-50411095D01*
X87488404Y-50553952D01*
X86916976Y-51125380D01*
X87536023Y-51125380D01*
%TO.C,BT1*%
X46537571Y-90828714D02*
X46585190Y-90685857D01*
X46632809Y-90638238D01*
X46728047Y-90590619D01*
X46870904Y-90590619D01*
X46966142Y-90638238D01*
X47013761Y-90685857D01*
X47061380Y-90781095D01*
X47061380Y-91162047D01*
X46061380Y-91162047D01*
X46061380Y-90828714D01*
X46109000Y-90733476D01*
X46156619Y-90685857D01*
X46251857Y-90638238D01*
X46347095Y-90638238D01*
X46442333Y-90685857D01*
X46489952Y-90733476D01*
X46537571Y-90828714D01*
X46537571Y-91162047D01*
X46061380Y-90304904D02*
X46061380Y-89733476D01*
X47061380Y-90019190D02*
X46061380Y-90019190D01*
X47061380Y-88876333D02*
X47061380Y-89447761D01*
X47061380Y-89162047D02*
X46061380Y-89162047D01*
X46204238Y-89257285D01*
X46299476Y-89352523D01*
X46347095Y-89447761D01*
%TO.C,Q3*%
X81605161Y-75853819D02*
X81509923Y-75806200D01*
X81414685Y-75710961D01*
X81271828Y-75568104D01*
X81176590Y-75520485D01*
X81081352Y-75520485D01*
X81128971Y-75758580D02*
X81033733Y-75710961D01*
X80938495Y-75615723D01*
X80890876Y-75425247D01*
X80890876Y-75091914D01*
X80938495Y-74901438D01*
X81033733Y-74806200D01*
X81128971Y-74758580D01*
X81319447Y-74758580D01*
X81414685Y-74806200D01*
X81509923Y-74901438D01*
X81557542Y-75091914D01*
X81557542Y-75425247D01*
X81509923Y-75615723D01*
X81414685Y-75710961D01*
X81319447Y-75758580D01*
X81128971Y-75758580D01*
X81890876Y-74758580D02*
X82509923Y-74758580D01*
X82176590Y-75139533D01*
X82319447Y-75139533D01*
X82414685Y-75187152D01*
X82462304Y-75234771D01*
X82509923Y-75330009D01*
X82509923Y-75568104D01*
X82462304Y-75663342D01*
X82414685Y-75710961D01*
X82319447Y-75758580D01*
X82033733Y-75758580D01*
X81938495Y-75710961D01*
X81890876Y-75663342D01*
%TO.C,Q2*%
X99828361Y-75807819D02*
X99733123Y-75760200D01*
X99637885Y-75664961D01*
X99495028Y-75522104D01*
X99399790Y-75474485D01*
X99304552Y-75474485D01*
X99352171Y-75712580D02*
X99256933Y-75664961D01*
X99161695Y-75569723D01*
X99114076Y-75379247D01*
X99114076Y-75045914D01*
X99161695Y-74855438D01*
X99256933Y-74760200D01*
X99352171Y-74712580D01*
X99542647Y-74712580D01*
X99637885Y-74760200D01*
X99733123Y-74855438D01*
X99780742Y-75045914D01*
X99780742Y-75379247D01*
X99733123Y-75569723D01*
X99637885Y-75664961D01*
X99542647Y-75712580D01*
X99352171Y-75712580D01*
X100161695Y-74807819D02*
X100209314Y-74760200D01*
X100304552Y-74712580D01*
X100542647Y-74712580D01*
X100637885Y-74760200D01*
X100685504Y-74807819D01*
X100733123Y-74903057D01*
X100733123Y-74998295D01*
X100685504Y-75141152D01*
X100114076Y-75712580D01*
X100733123Y-75712580D01*
%TO.C,Q1*%
X118471961Y-75757019D02*
X118376723Y-75709400D01*
X118281485Y-75614161D01*
X118138628Y-75471304D01*
X118043390Y-75423685D01*
X117948152Y-75423685D01*
X117995771Y-75661780D02*
X117900533Y-75614161D01*
X117805295Y-75518923D01*
X117757676Y-75328447D01*
X117757676Y-74995114D01*
X117805295Y-74804638D01*
X117900533Y-74709400D01*
X117995771Y-74661780D01*
X118186247Y-74661780D01*
X118281485Y-74709400D01*
X118376723Y-74804638D01*
X118424342Y-74995114D01*
X118424342Y-75328447D01*
X118376723Y-75518923D01*
X118281485Y-75614161D01*
X118186247Y-75661780D01*
X117995771Y-75661780D01*
X119376723Y-75661780D02*
X118805295Y-75661780D01*
X119091009Y-75661780D02*
X119091009Y-74661780D01*
X118995771Y-74804638D01*
X118900533Y-74899876D01*
X118805295Y-74947495D01*
%TO.C,S3*%
X75278095Y-106576761D02*
X75420952Y-106624380D01*
X75659047Y-106624380D01*
X75754285Y-106576761D01*
X75801904Y-106529142D01*
X75849523Y-106433904D01*
X75849523Y-106338666D01*
X75801904Y-106243428D01*
X75754285Y-106195809D01*
X75659047Y-106148190D01*
X75468571Y-106100571D01*
X75373333Y-106052952D01*
X75325714Y-106005333D01*
X75278095Y-105910095D01*
X75278095Y-105814857D01*
X75325714Y-105719619D01*
X75373333Y-105672000D01*
X75468571Y-105624380D01*
X75706666Y-105624380D01*
X75849523Y-105672000D01*
X76182857Y-105624380D02*
X76801904Y-105624380D01*
X76468571Y-106005333D01*
X76611428Y-106005333D01*
X76706666Y-106052952D01*
X76754285Y-106100571D01*
X76801904Y-106195809D01*
X76801904Y-106433904D01*
X76754285Y-106529142D01*
X76706666Y-106576761D01*
X76611428Y-106624380D01*
X76325714Y-106624380D01*
X76230476Y-106576761D01*
X76182857Y-106529142D01*
%TO.C,RE3*%
X70429380Y-92719047D02*
X69953190Y-93052380D01*
X70429380Y-93290476D02*
X69429380Y-93290476D01*
X69429380Y-92909523D01*
X69477000Y-92814285D01*
X69524619Y-92766666D01*
X69619857Y-92719047D01*
X69762714Y-92719047D01*
X69857952Y-92766666D01*
X69905571Y-92814285D01*
X69953190Y-92909523D01*
X69953190Y-93290476D01*
X69905571Y-92290476D02*
X69905571Y-91957142D01*
X70429380Y-91814285D02*
X70429380Y-92290476D01*
X69429380Y-92290476D01*
X69429380Y-91814285D01*
X69429380Y-91480952D02*
X69429380Y-90861904D01*
X69810333Y-91195238D01*
X69810333Y-91052380D01*
X69857952Y-90957142D01*
X69905571Y-90909523D01*
X70000809Y-90861904D01*
X70238904Y-90861904D01*
X70334142Y-90909523D01*
X70381761Y-90957142D01*
X70429380Y-91052380D01*
X70429380Y-91338095D01*
X70381761Y-91433333D01*
X70334142Y-91480952D01*
%TO.C,S2*%
X93405095Y-106576761D02*
X93547952Y-106624380D01*
X93786047Y-106624380D01*
X93881285Y-106576761D01*
X93928904Y-106529142D01*
X93976523Y-106433904D01*
X93976523Y-106338666D01*
X93928904Y-106243428D01*
X93881285Y-106195809D01*
X93786047Y-106148190D01*
X93595571Y-106100571D01*
X93500333Y-106052952D01*
X93452714Y-106005333D01*
X93405095Y-105910095D01*
X93405095Y-105814857D01*
X93452714Y-105719619D01*
X93500333Y-105672000D01*
X93595571Y-105624380D01*
X93833666Y-105624380D01*
X93976523Y-105672000D01*
X94357476Y-105719619D02*
X94405095Y-105672000D01*
X94500333Y-105624380D01*
X94738428Y-105624380D01*
X94833666Y-105672000D01*
X94881285Y-105719619D01*
X94928904Y-105814857D01*
X94928904Y-105910095D01*
X94881285Y-106052952D01*
X94309857Y-106624380D01*
X94928904Y-106624380D01*
%TO.C,S1*%
X111278095Y-106449761D02*
X111420952Y-106497380D01*
X111659047Y-106497380D01*
X111754285Y-106449761D01*
X111801904Y-106402142D01*
X111849523Y-106306904D01*
X111849523Y-106211666D01*
X111801904Y-106116428D01*
X111754285Y-106068809D01*
X111659047Y-106021190D01*
X111468571Y-105973571D01*
X111373333Y-105925952D01*
X111325714Y-105878333D01*
X111278095Y-105783095D01*
X111278095Y-105687857D01*
X111325714Y-105592619D01*
X111373333Y-105545000D01*
X111468571Y-105497380D01*
X111706666Y-105497380D01*
X111849523Y-105545000D01*
X112801904Y-106497380D02*
X112230476Y-106497380D01*
X112516190Y-106497380D02*
X112516190Y-105497380D01*
X112420952Y-105640238D01*
X112325714Y-105735476D01*
X112230476Y-105783095D01*
%TO.C,S0*%
X123825095Y-95654761D02*
X123967952Y-95702380D01*
X124206047Y-95702380D01*
X124301285Y-95654761D01*
X124348904Y-95607142D01*
X124396523Y-95511904D01*
X124396523Y-95416666D01*
X124348904Y-95321428D01*
X124301285Y-95273809D01*
X124206047Y-95226190D01*
X124015571Y-95178571D01*
X123920333Y-95130952D01*
X123872714Y-95083333D01*
X123825095Y-94988095D01*
X123825095Y-94892857D01*
X123872714Y-94797619D01*
X123920333Y-94750000D01*
X124015571Y-94702380D01*
X124253666Y-94702380D01*
X124396523Y-94750000D01*
X125015571Y-94702380D02*
X125110809Y-94702380D01*
X125206047Y-94750000D01*
X125253666Y-94797619D01*
X125301285Y-94892857D01*
X125348904Y-95083333D01*
X125348904Y-95321428D01*
X125301285Y-95511904D01*
X125253666Y-95607142D01*
X125206047Y-95654761D01*
X125110809Y-95702380D01*
X125015571Y-95702380D01*
X124920333Y-95654761D01*
X124872714Y-95607142D01*
X124825095Y-95511904D01*
X124777476Y-95321428D01*
X124777476Y-95083333D01*
X124825095Y-94892857D01*
X124872714Y-94797619D01*
X124920333Y-94750000D01*
X125015571Y-94702380D01*
%TO.C,ALED1*%
X49544266Y-30671828D02*
X49544266Y-30195638D01*
X49829980Y-30767066D02*
X48829980Y-30433733D01*
X49829980Y-30100400D01*
X49829980Y-29290876D02*
X49829980Y-29767066D01*
X48829980Y-29767066D01*
X49306171Y-28957542D02*
X49306171Y-28624209D01*
X49829980Y-28481352D02*
X49829980Y-28957542D01*
X48829980Y-28957542D01*
X48829980Y-28481352D01*
X49829980Y-28052780D02*
X48829980Y-28052780D01*
X48829980Y-27814685D01*
X48877600Y-27671828D01*
X48972838Y-27576590D01*
X49068076Y-27528971D01*
X49258552Y-27481352D01*
X49401409Y-27481352D01*
X49591885Y-27528971D01*
X49687123Y-27576590D01*
X49782361Y-27671828D01*
X49829980Y-27814685D01*
X49829980Y-28052780D01*
X49829980Y-26528971D02*
X49829980Y-27100400D01*
X49829980Y-26814685D02*
X48829980Y-26814685D01*
X48972838Y-26909923D01*
X49068076Y-27005161D01*
X49115695Y-27100400D01*
%TO.C,RE1*%
X106497380Y-92719047D02*
X106021190Y-93052380D01*
X106497380Y-93290476D02*
X105497380Y-93290476D01*
X105497380Y-92909523D01*
X105545000Y-92814285D01*
X105592619Y-92766666D01*
X105687857Y-92719047D01*
X105830714Y-92719047D01*
X105925952Y-92766666D01*
X105973571Y-92814285D01*
X106021190Y-92909523D01*
X106021190Y-93290476D01*
X105973571Y-92290476D02*
X105973571Y-91957142D01*
X106497380Y-91814285D02*
X106497380Y-92290476D01*
X105497380Y-92290476D01*
X105497380Y-91814285D01*
X106497380Y-90861904D02*
X106497380Y-91433333D01*
X106497380Y-91147619D02*
X105497380Y-91147619D01*
X105640238Y-91242857D01*
X105735476Y-91338095D01*
X105783095Y-91433333D01*
%TO.C,RE2*%
X88336380Y-92694047D02*
X87860190Y-93027380D01*
X88336380Y-93265476D02*
X87336380Y-93265476D01*
X87336380Y-92884523D01*
X87384000Y-92789285D01*
X87431619Y-92741666D01*
X87526857Y-92694047D01*
X87669714Y-92694047D01*
X87764952Y-92741666D01*
X87812571Y-92789285D01*
X87860190Y-92884523D01*
X87860190Y-93265476D01*
X87812571Y-92265476D02*
X87812571Y-91932142D01*
X88336380Y-91789285D02*
X88336380Y-92265476D01*
X87336380Y-92265476D01*
X87336380Y-91789285D01*
X87431619Y-91408333D02*
X87384000Y-91360714D01*
X87336380Y-91265476D01*
X87336380Y-91027380D01*
X87384000Y-90932142D01*
X87431619Y-90884523D01*
X87526857Y-90836904D01*
X87622095Y-90836904D01*
X87764952Y-90884523D01*
X88336380Y-91455952D01*
X88336380Y-90836904D01*
%TO.C,HT1*%
X116967142Y-25053380D02*
X116967142Y-24053380D01*
X116967142Y-24529571D02*
X117538571Y-24529571D01*
X117538571Y-25053380D02*
X117538571Y-24053380D01*
X117871904Y-24053380D02*
X118443333Y-24053380D01*
X118157619Y-25053380D02*
X118157619Y-24053380D01*
X119300476Y-25053380D02*
X118729047Y-25053380D01*
X119014761Y-25053380D02*
X119014761Y-24053380D01*
X118919523Y-24196238D01*
X118824285Y-24291476D01*
X118729047Y-24339095D01*
%TO.C,HT2*%
X107442142Y-25053380D02*
X107442142Y-24053380D01*
X107442142Y-24529571D02*
X108013571Y-24529571D01*
X108013571Y-25053380D02*
X108013571Y-24053380D01*
X108346904Y-24053380D02*
X108918333Y-24053380D01*
X108632619Y-25053380D02*
X108632619Y-24053380D01*
X109204047Y-24148619D02*
X109251666Y-24101000D01*
X109346904Y-24053380D01*
X109585000Y-24053380D01*
X109680238Y-24101000D01*
X109727857Y-24148619D01*
X109775476Y-24243857D01*
X109775476Y-24339095D01*
X109727857Y-24481952D01*
X109156428Y-25053380D01*
X109775476Y-25053380D01*
%TO.C,HT6*%
X69342142Y-25053380D02*
X69342142Y-24053380D01*
X69342142Y-24529571D02*
X69913571Y-24529571D01*
X69913571Y-25053380D02*
X69913571Y-24053380D01*
X70246904Y-24053380D02*
X70818333Y-24053380D01*
X70532619Y-25053380D02*
X70532619Y-24053380D01*
X71580238Y-24053380D02*
X71389761Y-24053380D01*
X71294523Y-24101000D01*
X71246904Y-24148619D01*
X71151666Y-24291476D01*
X71104047Y-24481952D01*
X71104047Y-24862904D01*
X71151666Y-24958142D01*
X71199285Y-25005761D01*
X71294523Y-25053380D01*
X71485000Y-25053380D01*
X71580238Y-25005761D01*
X71627857Y-24958142D01*
X71675476Y-24862904D01*
X71675476Y-24624809D01*
X71627857Y-24529571D01*
X71580238Y-24481952D01*
X71485000Y-24434333D01*
X71294523Y-24434333D01*
X71199285Y-24481952D01*
X71151666Y-24529571D01*
X71104047Y-24624809D01*
%TO.C,HT5*%
X78867142Y-25053380D02*
X78867142Y-24053380D01*
X78867142Y-24529571D02*
X79438571Y-24529571D01*
X79438571Y-25053380D02*
X79438571Y-24053380D01*
X79771904Y-24053380D02*
X80343333Y-24053380D01*
X80057619Y-25053380D02*
X80057619Y-24053380D01*
X81152857Y-24053380D02*
X80676666Y-24053380D01*
X80629047Y-24529571D01*
X80676666Y-24481952D01*
X80771904Y-24434333D01*
X81010000Y-24434333D01*
X81105238Y-24481952D01*
X81152857Y-24529571D01*
X81200476Y-24624809D01*
X81200476Y-24862904D01*
X81152857Y-24958142D01*
X81105238Y-25005761D01*
X81010000Y-25053380D01*
X80771904Y-25053380D01*
X80676666Y-25005761D01*
X80629047Y-24958142D01*
%TO.C,HT4*%
X88392142Y-24973380D02*
X88392142Y-23973380D01*
X88392142Y-24449571D02*
X88963571Y-24449571D01*
X88963571Y-24973380D02*
X88963571Y-23973380D01*
X89296904Y-23973380D02*
X89868333Y-23973380D01*
X89582619Y-24973380D02*
X89582619Y-23973380D01*
X90630238Y-24306714D02*
X90630238Y-24973380D01*
X90392142Y-23925761D02*
X90154047Y-24640047D01*
X90773095Y-24640047D01*
%TD*%
M02*
