M48
; DRILL file {KiCad 5.1.10-88a1d61d58~90~ubuntu21.04.1} date Mon Dec 13 13:58:51 2021
; FORMAT={-:-/ absolute / inch / decimal}
; #@! TF.CreationDate,2021-12-13T13:58:51+01:00
; #@! TF.GenerationSoftware,Kicad,Pcbnew,5.1.10-88a1d61d58~90~ubuntu21.04.1
FMAT,2
INCH
T1C0.0157
T2C0.0295
T3C0.0315
T4C0.0354
T5C0.0374
T6C0.0394
T7C0.0433
T8C0.0512
T9C0.0598
T10C0.1260
T11C0.0472
%
G90
G05
T1
X2.06Y-1.73
X2.14Y-1.73
T2
X3.255Y-3.01
X3.255Y-3.06
X3.255Y-3.11
X3.97Y-3.01
X3.97Y-3.06
X3.97Y-3.11
X4.685Y-3.01
X4.685Y-3.06
X4.685Y-3.11
T3
X1.78Y-2.05
X1.9769Y-2.05
X2.67Y-1.705
X2.755Y-3.01
X2.955Y-2.8425
X2.97Y-1.705
X3.055Y-3.01
X3.255Y-2.8425
X3.46Y-3.01
X3.67Y-2.8425
X3.76Y-3.01
X3.97Y-2.8425
X4.17Y-3.01
X4.385Y-2.8425
X4.47Y-3.01
X4.685Y-2.8425
T4
X2.75Y-2.8425
X2.85Y-2.8425
X3.465Y-2.8425
X3.565Y-2.8425
X4.17Y-2.8425
X4.27Y-2.8425
T5
X2.3Y-1.96
X2.3984Y-1.96
X2.4969Y-1.96
X2.5953Y-1.96
X2.775Y-1.1285
X2.775Y-1.227
X2.775Y-1.3254
X3.15Y-1.1285
X3.15Y-1.227
X3.15Y-1.3254
X3.525Y-1.1285
X3.525Y-1.227
X3.525Y-1.3254
X3.9Y-1.1285
X3.9Y-1.227
X3.9Y-1.3254
X4.275Y-1.1285
X4.275Y-1.227
X4.275Y-1.3254
X4.65Y-1.1285
X4.65Y-1.227
X4.65Y-1.3254
T6
X1.9Y-2.25
X1.9Y-2.35
X1.9Y-2.45
X2.08Y-2.65
X2.18Y-2.65
X2.28Y-2.65
X2.3Y-2.25
X2.3Y-2.44
X2.38Y-2.65
X2.4Y-2.25
X2.4Y-2.44
X2.5Y-2.25
X2.5Y-2.44
X2.6Y-2.25
X2.6Y-2.44
X2.7539Y-3.3839
X3.1484Y-1.61
X3.1484Y-2.61
X3.2264Y-3.3839
X3.2484Y-1.61
X3.2484Y-2.61
X3.3484Y-1.61
X3.3484Y-2.61
X3.4484Y-1.61
X3.4484Y-2.61
X3.4626Y-3.3839
X3.5484Y-1.61
X3.5484Y-2.61
X3.6484Y-1.61
X3.6484Y-2.61
X3.7484Y-1.61
X3.7484Y-2.61
X3.8484Y-1.61
X3.8484Y-2.61
X3.935Y-3.3839
X3.9484Y-1.61
X3.9484Y-2.61
X4.0484Y-1.61
X4.0484Y-2.61
X4.1484Y-1.61
X4.1484Y-2.61
X4.1713Y-3.3839
X4.2484Y-1.61
X4.2484Y-2.61
X4.3484Y-1.61
X4.3484Y-2.61
X4.4484Y-1.61
X4.4484Y-2.61
X4.5484Y-1.61
X4.5484Y-2.61
X4.6437Y-3.3839
X4.6484Y-1.61
X4.6484Y-2.61
X4.7484Y-1.61
X4.7484Y-2.61
X4.8484Y-1.61
X4.8484Y-2.61
X4.9484Y-1.61
X4.9484Y-2.61
T7
X2.755Y-3.145
X3.055Y-3.145
X3.46Y-3.145
X3.76Y-3.145
X4.17Y-3.145
X4.47Y-3.145
T8
X2.7539Y-3.8642
X2.9921Y-3.3071
X3.2283Y-3.8661
X3.4626Y-3.8642
X3.7008Y-3.3071
X3.937Y-3.8661
X4.1713Y-3.8642
X4.4094Y-3.3071
X4.6457Y-3.8661
T9
X2.8937Y-4.28
X3.0937Y-4.28
X3.6024Y-4.28
X3.8024Y-4.28
X4.311Y-4.28
X4.511Y-4.28
X4.995Y-3.655
X4.995Y-3.855
T10
X1.7717Y-1.063
X1.7717Y-4.2913
X5.0Y-1.063
X5.0Y-4.2913
T11
X2.237Y-2.0387
X2.6963Y-1.0656
X3.0713Y-1.0656
X3.4463Y-1.0656
X3.8213Y-1.0656
X4.1963Y-1.0656
X4.5713Y-1.0656
T0
M30
