%TF.GenerationSoftware,KiCad,Pcbnew,(5.1.10)-1*%
%TF.CreationDate,2021-12-02T23:37:58+01:00*%
%TF.ProjectId,terrarium,74657272-6172-4697-956d-2e6b69636164,rev?*%
%TF.SameCoordinates,Original*%
%TF.FileFunction,Legend,Top*%
%TF.FilePolarity,Positive*%
%FSLAX46Y46*%
G04 Gerber Fmt 4.6, Leading zero omitted, Abs format (unit mm)*
G04 Created by KiCad (PCBNEW (5.1.10)-1) date 2021-12-02 23:37:58*
%MOMM*%
%LPD*%
G01*
G04 APERTURE LIST*
%ADD10C,0.120000*%
%TA.AperFunction,Profile*%
%ADD11C,0.050000*%
%TD*%
%ADD12C,0.300000*%
%ADD13C,0.150000*%
%ADD14C,0.010000*%
G04 APERTURE END LIST*
D10*
X64770000Y-60646000D02*
X66040000Y-60646000D01*
X56455000Y-40386000D02*
X56451500Y-41529000D01*
X59055000Y-39056000D02*
X57785000Y-39056000D01*
X49590000Y-62230000D02*
X49590000Y-60960000D01*
X46926500Y-63563500D02*
X48260000Y-63560000D01*
X46930000Y-60960000D02*
X46926500Y-63563500D01*
X67373500Y-58483500D02*
X67370000Y-57150000D01*
X64770000Y-58480000D02*
X67373500Y-58483500D01*
X66040000Y-55820000D02*
X64770000Y-55820000D01*
X67373500Y-63309500D02*
X67370000Y-61976000D01*
X64770000Y-63306000D02*
X67373500Y-63309500D01*
X67373500Y-76263500D02*
X64770000Y-76263500D01*
X67370000Y-74930000D02*
X67373500Y-76263500D01*
X66040000Y-73600000D02*
X64770000Y-73600000D01*
X66040000Y-73596500D02*
X66040000Y-73600000D01*
X106680000Y-81340000D02*
X107950000Y-81340000D01*
X105346500Y-79946500D02*
X105350000Y-80010000D01*
X105346500Y-78676500D02*
X105346500Y-79946500D01*
X107950000Y-78680000D02*
X105346500Y-78676500D01*
X78930500Y-81343500D02*
X81534000Y-81340000D01*
X78934000Y-80010000D02*
X78930500Y-81343500D01*
X78930500Y-78676500D02*
X78934000Y-80010000D01*
X81534000Y-78680000D02*
X78930500Y-78676500D01*
D11*
X45000000Y-113000000D02*
G75*
G02*
X41000000Y-109000000I0J4000000D01*
G01*
X131000000Y-109000000D02*
G75*
G02*
X127000000Y-113000000I-4000000J0D01*
G01*
X127000000Y-23000000D02*
G75*
G02*
X131000000Y-27000000I0J-4000000D01*
G01*
X41000000Y-27000000D02*
G75*
G02*
X45000000Y-23000000I4000000J0D01*
G01*
D12*
X114871428Y-26904761D02*
X113728571Y-26904761D01*
X114300000Y-26904761D02*
X114300000Y-24904761D01*
X114109523Y-25190476D01*
X113919047Y-25380952D01*
X113728571Y-25476190D01*
X104203571Y-25095238D02*
X104298809Y-25000000D01*
X104489285Y-24904761D01*
X104965476Y-24904761D01*
X105155952Y-25000000D01*
X105251190Y-25095238D01*
X105346428Y-25285714D01*
X105346428Y-25476190D01*
X105251190Y-25761904D01*
X104108333Y-26904761D01*
X105346428Y-26904761D01*
X94583333Y-24904761D02*
X95821428Y-24904761D01*
X95154761Y-25666666D01*
X95440476Y-25666666D01*
X95630952Y-25761904D01*
X95726190Y-25857142D01*
X95821428Y-26047619D01*
X95821428Y-26523809D01*
X95726190Y-26714285D01*
X95630952Y-26809523D01*
X95440476Y-26904761D01*
X94869047Y-26904761D01*
X94678571Y-26809523D01*
X94583333Y-26714285D01*
X85978952Y-25571428D02*
X85978952Y-26904761D01*
X85502761Y-24809523D02*
X85026571Y-26238095D01*
X86264666Y-26238095D01*
X76676190Y-24904761D02*
X75723809Y-24904761D01*
X75628571Y-25857142D01*
X75723809Y-25761904D01*
X75914285Y-25666666D01*
X76390476Y-25666666D01*
X76580952Y-25761904D01*
X76676190Y-25857142D01*
X76771428Y-26047619D01*
X76771428Y-26523809D01*
X76676190Y-26714285D01*
X76580952Y-26809523D01*
X76390476Y-26904761D01*
X75914285Y-26904761D01*
X75723809Y-26809523D01*
X75628571Y-26714285D01*
X67055952Y-24904761D02*
X66675000Y-24904761D01*
X66484523Y-25000000D01*
X66389285Y-25095238D01*
X66198809Y-25380952D01*
X66103571Y-25761904D01*
X66103571Y-26523809D01*
X66198809Y-26714285D01*
X66294047Y-26809523D01*
X66484523Y-26904761D01*
X66865476Y-26904761D01*
X67055952Y-26809523D01*
X67151190Y-26714285D01*
X67246428Y-26523809D01*
X67246428Y-26047619D01*
X67151190Y-25857142D01*
X67055952Y-25761904D01*
X66865476Y-25666666D01*
X66484523Y-25666666D01*
X66294047Y-25761904D01*
X66198809Y-25857142D01*
X66103571Y-26047619D01*
D10*
X130429000Y-39116000D02*
X124968000Y-39116000D01*
X130429000Y-68072000D02*
X125095000Y-68072000D01*
X75692000Y-68072000D02*
X73152000Y-68072000D01*
X75565000Y-39116000D02*
X73152000Y-39116000D01*
X75565000Y-39116000D02*
X124968000Y-39116000D01*
X73152000Y-68072000D02*
X73152000Y-39116000D01*
X125095000Y-68072000D02*
X75692000Y-68072000D01*
X130429000Y-39116000D02*
X130429000Y-68072000D01*
D13*
X67025204Y-33104200D02*
X66929966Y-33056580D01*
X66787109Y-33056580D01*
X66644252Y-33104200D01*
X66549014Y-33199438D01*
X66501395Y-33294676D01*
X66453776Y-33485152D01*
X66453776Y-33628009D01*
X66501395Y-33818485D01*
X66549014Y-33913723D01*
X66644252Y-34008961D01*
X66787109Y-34056580D01*
X66882347Y-34056580D01*
X67025204Y-34008961D01*
X67072823Y-33961342D01*
X67072823Y-33628009D01*
X66882347Y-33628009D01*
X66263300Y-28103580D02*
X65787109Y-28103580D01*
X65739490Y-28579771D01*
X65787109Y-28532152D01*
X65882347Y-28484533D01*
X66120442Y-28484533D01*
X66215680Y-28532152D01*
X66263300Y-28579771D01*
X66310919Y-28675009D01*
X66310919Y-28913104D01*
X66263300Y-29008342D01*
X66215680Y-29055961D01*
X66120442Y-29103580D01*
X65882347Y-29103580D01*
X65787109Y-29055961D01*
X65739490Y-29008342D01*
X66644252Y-28436914D02*
X66882347Y-29103580D01*
X67120442Y-28436914D01*
X66501395Y-31595961D02*
X66644252Y-31643580D01*
X66882347Y-31643580D01*
X66977585Y-31595961D01*
X67025204Y-31548342D01*
X67072823Y-31453104D01*
X67072823Y-31357866D01*
X67025204Y-31262628D01*
X66977585Y-31215009D01*
X66882347Y-31167390D01*
X66691871Y-31119771D01*
X66596633Y-31072152D01*
X66549014Y-31024533D01*
X66501395Y-30929295D01*
X66501395Y-30834057D01*
X66549014Y-30738819D01*
X66596633Y-30691200D01*
X66691871Y-30643580D01*
X66929966Y-30643580D01*
X67072823Y-30691200D01*
X75813700Y-28078180D02*
X75337509Y-28078180D01*
X75289890Y-28554371D01*
X75337509Y-28506752D01*
X75432747Y-28459133D01*
X75670842Y-28459133D01*
X75766080Y-28506752D01*
X75813700Y-28554371D01*
X75861319Y-28649609D01*
X75861319Y-28887704D01*
X75813700Y-28982942D01*
X75766080Y-29030561D01*
X75670842Y-29078180D01*
X75432747Y-29078180D01*
X75337509Y-29030561D01*
X75289890Y-28982942D01*
X76194652Y-28411514D02*
X76432747Y-29078180D01*
X76670842Y-28411514D01*
X76051795Y-31570561D02*
X76194652Y-31618180D01*
X76432747Y-31618180D01*
X76527985Y-31570561D01*
X76575604Y-31522942D01*
X76623223Y-31427704D01*
X76623223Y-31332466D01*
X76575604Y-31237228D01*
X76527985Y-31189609D01*
X76432747Y-31141990D01*
X76242271Y-31094371D01*
X76147033Y-31046752D01*
X76099414Y-30999133D01*
X76051795Y-30903895D01*
X76051795Y-30808657D01*
X76099414Y-30713419D01*
X76147033Y-30665800D01*
X76242271Y-30618180D01*
X76480366Y-30618180D01*
X76623223Y-30665800D01*
X86100604Y-33078800D02*
X86005366Y-33031180D01*
X85862509Y-33031180D01*
X85719652Y-33078800D01*
X85624414Y-33174038D01*
X85576795Y-33269276D01*
X85529176Y-33459752D01*
X85529176Y-33602609D01*
X85576795Y-33793085D01*
X85624414Y-33888323D01*
X85719652Y-33983561D01*
X85862509Y-34031180D01*
X85957747Y-34031180D01*
X86100604Y-33983561D01*
X86148223Y-33935942D01*
X86148223Y-33602609D01*
X85957747Y-33602609D01*
X85338700Y-28078180D02*
X84862509Y-28078180D01*
X84814890Y-28554371D01*
X84862509Y-28506752D01*
X84957747Y-28459133D01*
X85195842Y-28459133D01*
X85291080Y-28506752D01*
X85338700Y-28554371D01*
X85386319Y-28649609D01*
X85386319Y-28887704D01*
X85338700Y-28982942D01*
X85291080Y-29030561D01*
X85195842Y-29078180D01*
X84957747Y-29078180D01*
X84862509Y-29030561D01*
X84814890Y-28982942D01*
X85719652Y-28411514D02*
X85957747Y-29078180D01*
X86195842Y-28411514D01*
X85576795Y-31570561D02*
X85719652Y-31618180D01*
X85957747Y-31618180D01*
X86052985Y-31570561D01*
X86100604Y-31522942D01*
X86148223Y-31427704D01*
X86148223Y-31332466D01*
X86100604Y-31237228D01*
X86052985Y-31189609D01*
X85957747Y-31141990D01*
X85767271Y-31094371D01*
X85672033Y-31046752D01*
X85624414Y-30999133D01*
X85576795Y-30903895D01*
X85576795Y-30808657D01*
X85624414Y-30713419D01*
X85672033Y-30665800D01*
X85767271Y-30618180D01*
X86005366Y-30618180D01*
X86148223Y-30665800D01*
D10*
X124968000Y-75946000D02*
X99060000Y-75946000D01*
D13*
X112530000Y-44213976D02*
X112482380Y-44309214D01*
X112482380Y-44452071D01*
X112530000Y-44594928D01*
X112625238Y-44690166D01*
X112720476Y-44737785D01*
X112910952Y-44785404D01*
X113053809Y-44785404D01*
X113244285Y-44737785D01*
X113339523Y-44690166D01*
X113434761Y-44594928D01*
X113482380Y-44452071D01*
X113482380Y-44356833D01*
X113434761Y-44213976D01*
X113387142Y-44166357D01*
X113053809Y-44166357D01*
X113053809Y-44356833D01*
X112577619Y-43785404D02*
X112530000Y-43737785D01*
X112482380Y-43642547D01*
X112482380Y-43404452D01*
X112530000Y-43309214D01*
X112577619Y-43261595D01*
X112672857Y-43213976D01*
X112768095Y-43213976D01*
X112910952Y-43261595D01*
X113482380Y-43833023D01*
X113482380Y-43213976D01*
X115070000Y-45166357D02*
X115022380Y-45261595D01*
X115022380Y-45404452D01*
X115070000Y-45547309D01*
X115165238Y-45642547D01*
X115260476Y-45690166D01*
X115450952Y-45737785D01*
X115593809Y-45737785D01*
X115784285Y-45690166D01*
X115879523Y-45642547D01*
X115974761Y-45547309D01*
X116022380Y-45404452D01*
X116022380Y-45309214D01*
X115974761Y-45166357D01*
X115927142Y-45118738D01*
X115593809Y-45118738D01*
X115593809Y-45309214D01*
X116022380Y-44166357D02*
X116022380Y-44737785D01*
X116022380Y-44452071D02*
X115022380Y-44452071D01*
X115165238Y-44547309D01*
X115260476Y-44642547D01*
X115308095Y-44737785D01*
X115022380Y-43261595D02*
X115022380Y-43737785D01*
X115498571Y-43785404D01*
X115450952Y-43737785D01*
X115403333Y-43642547D01*
X115403333Y-43404452D01*
X115450952Y-43309214D01*
X115498571Y-43261595D01*
X115593809Y-43213976D01*
X115831904Y-43213976D01*
X115927142Y-43261595D01*
X115974761Y-43309214D01*
X116022380Y-43404452D01*
X116022380Y-43642547D01*
X115974761Y-43737785D01*
X115927142Y-43785404D01*
X80436404Y-76970000D02*
X80341166Y-76922380D01*
X80198309Y-76922380D01*
X80055452Y-76970000D01*
X79960214Y-77065238D01*
X79912595Y-77160476D01*
X79864976Y-77350952D01*
X79864976Y-77493809D01*
X79912595Y-77684285D01*
X79960214Y-77779523D01*
X80055452Y-77874761D01*
X80198309Y-77922380D01*
X80293547Y-77922380D01*
X80436404Y-77874761D01*
X80484023Y-77827142D01*
X80484023Y-77493809D01*
X80293547Y-77493809D01*
X82722500Y-76922380D02*
X82246309Y-76922380D01*
X82198690Y-77398571D01*
X82246309Y-77350952D01*
X82341547Y-77303333D01*
X82579642Y-77303333D01*
X82674880Y-77350952D01*
X82722500Y-77398571D01*
X82770119Y-77493809D01*
X82770119Y-77731904D01*
X82722500Y-77827142D01*
X82674880Y-77874761D01*
X82579642Y-77922380D01*
X82341547Y-77922380D01*
X82246309Y-77874761D01*
X82198690Y-77827142D01*
X83103452Y-77255714D02*
X83341547Y-77922380D01*
X83579642Y-77255714D01*
X84992595Y-77874761D02*
X85135452Y-77922380D01*
X85373547Y-77922380D01*
X85468785Y-77874761D01*
X85516404Y-77827142D01*
X85564023Y-77731904D01*
X85564023Y-77636666D01*
X85516404Y-77541428D01*
X85468785Y-77493809D01*
X85373547Y-77446190D01*
X85183071Y-77398571D01*
X85087833Y-77350952D01*
X85040214Y-77303333D01*
X84992595Y-77208095D01*
X84992595Y-77112857D01*
X85040214Y-77017619D01*
X85087833Y-76970000D01*
X85183071Y-76922380D01*
X85421166Y-76922380D01*
X85564023Y-76970000D01*
D12*
X75521857Y-49320571D02*
X76093285Y-49320571D01*
X75736142Y-48820571D02*
X75736142Y-50106285D01*
X75807571Y-50249142D01*
X75950428Y-50320571D01*
X76093285Y-50320571D01*
X77164714Y-50249142D02*
X77021857Y-50320571D01*
X76736142Y-50320571D01*
X76593285Y-50249142D01*
X76521857Y-50106285D01*
X76521857Y-49534857D01*
X76593285Y-49392000D01*
X76736142Y-49320571D01*
X77021857Y-49320571D01*
X77164714Y-49392000D01*
X77236142Y-49534857D01*
X77236142Y-49677714D01*
X76521857Y-49820571D01*
X77879000Y-50320571D02*
X77879000Y-49320571D01*
X77879000Y-49606285D02*
X77950428Y-49463428D01*
X78021857Y-49392000D01*
X78164714Y-49320571D01*
X78307571Y-49320571D01*
X78807571Y-50320571D02*
X78807571Y-49320571D01*
X78807571Y-49606285D02*
X78879000Y-49463428D01*
X78950428Y-49392000D01*
X79093285Y-49320571D01*
X79236142Y-49320571D01*
X80379000Y-50320571D02*
X80379000Y-49534857D01*
X80307571Y-49392000D01*
X80164714Y-49320571D01*
X79879000Y-49320571D01*
X79736142Y-49392000D01*
X80379000Y-50249142D02*
X80236142Y-50320571D01*
X79879000Y-50320571D01*
X79736142Y-50249142D01*
X79664714Y-50106285D01*
X79664714Y-49963428D01*
X79736142Y-49820571D01*
X79879000Y-49749142D01*
X80236142Y-49749142D01*
X80379000Y-49677714D01*
X81093285Y-50320571D02*
X81093285Y-49320571D01*
X81093285Y-49606285D02*
X81164714Y-49463428D01*
X81236142Y-49392000D01*
X81379000Y-49320571D01*
X81521857Y-49320571D01*
X82021857Y-50320571D02*
X82021857Y-49320571D01*
X82021857Y-48820571D02*
X81950428Y-48892000D01*
X82021857Y-48963428D01*
X82093285Y-48892000D01*
X82021857Y-48820571D01*
X82021857Y-48963428D01*
X83379000Y-49320571D02*
X83379000Y-50320571D01*
X82736142Y-49320571D02*
X82736142Y-50106285D01*
X82807571Y-50249142D01*
X82950428Y-50320571D01*
X83164714Y-50320571D01*
X83307571Y-50249142D01*
X83379000Y-50177714D01*
X84093285Y-50320571D02*
X84093285Y-49320571D01*
X84093285Y-49463428D02*
X84164714Y-49392000D01*
X84307571Y-49320571D01*
X84521857Y-49320571D01*
X84664714Y-49392000D01*
X84736142Y-49534857D01*
X84736142Y-50320571D01*
X84736142Y-49534857D02*
X84807571Y-49392000D01*
X84950428Y-49320571D01*
X85164714Y-49320571D01*
X85307571Y-49392000D01*
X85379000Y-49534857D01*
X85379000Y-50320571D01*
X87879000Y-50249142D02*
X87736142Y-50320571D01*
X87450428Y-50320571D01*
X87307571Y-50249142D01*
X87236142Y-50177714D01*
X87164714Y-50034857D01*
X87164714Y-49606285D01*
X87236142Y-49463428D01*
X87307571Y-49392000D01*
X87450428Y-49320571D01*
X87736142Y-49320571D01*
X87879000Y-49392000D01*
X88736142Y-50320571D02*
X88593285Y-50249142D01*
X88521857Y-50177714D01*
X88450428Y-50034857D01*
X88450428Y-49606285D01*
X88521857Y-49463428D01*
X88593285Y-49392000D01*
X88736142Y-49320571D01*
X88950428Y-49320571D01*
X89093285Y-49392000D01*
X89164714Y-49463428D01*
X89236142Y-49606285D01*
X89236142Y-50034857D01*
X89164714Y-50177714D01*
X89093285Y-50249142D01*
X88950428Y-50320571D01*
X88736142Y-50320571D01*
X89879000Y-49320571D02*
X89879000Y-50320571D01*
X89879000Y-49463428D02*
X89950428Y-49392000D01*
X90093285Y-49320571D01*
X90307571Y-49320571D01*
X90450428Y-49392000D01*
X90521857Y-49534857D01*
X90521857Y-50320571D01*
X91021857Y-49320571D02*
X91593285Y-49320571D01*
X91236142Y-48820571D02*
X91236142Y-50106285D01*
X91307571Y-50249142D01*
X91450428Y-50320571D01*
X91593285Y-50320571D01*
X92093285Y-50320571D02*
X92093285Y-49320571D01*
X92093285Y-49606285D02*
X92164714Y-49463428D01*
X92236142Y-49392000D01*
X92379000Y-49320571D01*
X92521857Y-49320571D01*
X93236142Y-50320571D02*
X93093285Y-50249142D01*
X93021857Y-50177714D01*
X92950428Y-50034857D01*
X92950428Y-49606285D01*
X93021857Y-49463428D01*
X93093285Y-49392000D01*
X93236142Y-49320571D01*
X93450428Y-49320571D01*
X93593285Y-49392000D01*
X93664714Y-49463428D01*
X93736142Y-49606285D01*
X93736142Y-50034857D01*
X93664714Y-50177714D01*
X93593285Y-50249142D01*
X93450428Y-50320571D01*
X93236142Y-50320571D01*
X94593285Y-50320571D02*
X94450428Y-50249142D01*
X94379000Y-50106285D01*
X94379000Y-48820571D01*
X95379000Y-50320571D02*
X95236142Y-50249142D01*
X95164714Y-50106285D01*
X95164714Y-48820571D01*
X96521857Y-50249142D02*
X96379000Y-50320571D01*
X96093285Y-50320571D01*
X95950428Y-50249142D01*
X95879000Y-50106285D01*
X95879000Y-49534857D01*
X95950428Y-49392000D01*
X96093285Y-49320571D01*
X96379000Y-49320571D01*
X96521857Y-49392000D01*
X96593285Y-49534857D01*
X96593285Y-49677714D01*
X95879000Y-49820571D01*
X97236142Y-50320571D02*
X97236142Y-49320571D01*
X97236142Y-49606285D02*
X97307571Y-49463428D01*
X97379000Y-49392000D01*
X97521857Y-49320571D01*
X97664714Y-49320571D01*
X75593285Y-51870571D02*
X75950428Y-52870571D01*
X76307571Y-51870571D01*
X77664714Y-52870571D02*
X76807571Y-52870571D01*
X77236142Y-52870571D02*
X77236142Y-51370571D01*
X77093285Y-51584857D01*
X76950428Y-51727714D01*
X76807571Y-51799142D01*
X78307571Y-52727714D02*
X78379000Y-52799142D01*
X78307571Y-52870571D01*
X78236142Y-52799142D01*
X78307571Y-52727714D01*
X78307571Y-52870571D01*
X79807571Y-52870571D02*
X78950428Y-52870571D01*
X79379000Y-52870571D02*
X79379000Y-51370571D01*
X79236142Y-51584857D01*
X79093285Y-51727714D01*
X78950428Y-51799142D01*
X76379000Y-54420571D02*
X76379000Y-55634857D01*
X76307571Y-55777714D01*
X76236142Y-55849142D01*
X76093285Y-55920571D01*
X75879000Y-55920571D01*
X75736142Y-55849142D01*
X76379000Y-55349142D02*
X76236142Y-55420571D01*
X75950428Y-55420571D01*
X75807571Y-55349142D01*
X75736142Y-55277714D01*
X75664714Y-55134857D01*
X75664714Y-54706285D01*
X75736142Y-54563428D01*
X75807571Y-54492000D01*
X75950428Y-54420571D01*
X76236142Y-54420571D01*
X76379000Y-54492000D01*
X77093285Y-55420571D02*
X77093285Y-54420571D01*
X77093285Y-53920571D02*
X77021857Y-53992000D01*
X77093285Y-54063428D01*
X77164714Y-53992000D01*
X77093285Y-53920571D01*
X77093285Y-54063428D01*
X77593285Y-54420571D02*
X78164714Y-54420571D01*
X77807571Y-53920571D02*
X77807571Y-55206285D01*
X77879000Y-55349142D01*
X78021857Y-55420571D01*
X78164714Y-55420571D01*
X78664714Y-55420571D02*
X78664714Y-53920571D01*
X79307571Y-55420571D02*
X79307571Y-54634857D01*
X79236142Y-54492000D01*
X79093285Y-54420571D01*
X78879000Y-54420571D01*
X78736142Y-54492000D01*
X78664714Y-54563428D01*
X80664714Y-54420571D02*
X80664714Y-55420571D01*
X80021857Y-54420571D02*
X80021857Y-55206285D01*
X80093285Y-55349142D01*
X80236142Y-55420571D01*
X80450428Y-55420571D01*
X80593285Y-55349142D01*
X80664714Y-55277714D01*
X81379000Y-55420571D02*
X81379000Y-53920571D01*
X81379000Y-54492000D02*
X81521857Y-54420571D01*
X81807571Y-54420571D01*
X81950428Y-54492000D01*
X82021857Y-54563428D01*
X82093285Y-54706285D01*
X82093285Y-55134857D01*
X82021857Y-55277714D01*
X81950428Y-55349142D01*
X81807571Y-55420571D01*
X81521857Y-55420571D01*
X81379000Y-55349142D01*
X82736142Y-55277714D02*
X82807571Y-55349142D01*
X82736142Y-55420571D01*
X82664714Y-55349142D01*
X82736142Y-55277714D01*
X82736142Y-55420571D01*
X84093285Y-55349142D02*
X83950428Y-55420571D01*
X83664714Y-55420571D01*
X83521857Y-55349142D01*
X83450428Y-55277714D01*
X83379000Y-55134857D01*
X83379000Y-54706285D01*
X83450428Y-54563428D01*
X83521857Y-54492000D01*
X83664714Y-54420571D01*
X83950428Y-54420571D01*
X84093285Y-54492000D01*
X84950428Y-55420571D02*
X84807571Y-55349142D01*
X84736142Y-55277714D01*
X84664714Y-55134857D01*
X84664714Y-54706285D01*
X84736142Y-54563428D01*
X84807571Y-54492000D01*
X84950428Y-54420571D01*
X85164714Y-54420571D01*
X85307571Y-54492000D01*
X85379000Y-54563428D01*
X85450428Y-54706285D01*
X85450428Y-55134857D01*
X85379000Y-55277714D01*
X85307571Y-55349142D01*
X85164714Y-55420571D01*
X84950428Y-55420571D01*
X86093285Y-55420571D02*
X86093285Y-54420571D01*
X86093285Y-54563428D02*
X86164714Y-54492000D01*
X86307571Y-54420571D01*
X86521857Y-54420571D01*
X86664714Y-54492000D01*
X86736142Y-54634857D01*
X86736142Y-55420571D01*
X86736142Y-54634857D02*
X86807571Y-54492000D01*
X86950428Y-54420571D01*
X87164714Y-54420571D01*
X87307571Y-54492000D01*
X87379000Y-54634857D01*
X87379000Y-55420571D01*
X89164714Y-53849142D02*
X87879000Y-55777714D01*
X89664714Y-55420571D02*
X89664714Y-53920571D01*
X89664714Y-54492000D02*
X89807571Y-54420571D01*
X90093285Y-54420571D01*
X90236142Y-54492000D01*
X90307571Y-54563428D01*
X90379000Y-54706285D01*
X90379000Y-55134857D01*
X90307571Y-55277714D01*
X90236142Y-55349142D01*
X90093285Y-55420571D01*
X89807571Y-55420571D01*
X89664714Y-55349142D01*
X91021857Y-55420571D02*
X91021857Y-54420571D01*
X91021857Y-54706285D02*
X91093285Y-54563428D01*
X91164714Y-54492000D01*
X91307571Y-54420571D01*
X91450428Y-54420571D01*
X92593285Y-54420571D02*
X92593285Y-55420571D01*
X91950428Y-54420571D02*
X91950428Y-55206285D01*
X92021857Y-55349142D01*
X92164714Y-55420571D01*
X92379000Y-55420571D01*
X92521857Y-55349142D01*
X92593285Y-55277714D01*
X93236142Y-55349142D02*
X93379000Y-55420571D01*
X93664714Y-55420571D01*
X93807571Y-55349142D01*
X93879000Y-55206285D01*
X93879000Y-55134857D01*
X93807571Y-54992000D01*
X93664714Y-54920571D01*
X93450428Y-54920571D01*
X93307571Y-54849142D01*
X93236142Y-54706285D01*
X93236142Y-54634857D01*
X93307571Y-54492000D01*
X93450428Y-54420571D01*
X93664714Y-54420571D01*
X93807571Y-54492000D01*
X94521857Y-55420571D02*
X94521857Y-53920571D01*
X95164714Y-55420571D02*
X95164714Y-54634857D01*
X95093285Y-54492000D01*
X94950428Y-54420571D01*
X94736142Y-54420571D01*
X94593285Y-54492000D01*
X94521857Y-54563428D01*
X95879000Y-55420571D02*
X95879000Y-53920571D01*
X96021857Y-54849142D02*
X96450428Y-55420571D01*
X96450428Y-54420571D02*
X95879000Y-54992000D01*
X97093285Y-54420571D02*
X97093285Y-55420571D01*
X97093285Y-54563428D02*
X97164714Y-54492000D01*
X97307571Y-54420571D01*
X97521857Y-54420571D01*
X97664714Y-54492000D01*
X97736142Y-54634857D01*
X97736142Y-55420571D01*
X98450428Y-55420571D02*
X98450428Y-54420571D01*
X98450428Y-53920571D02*
X98379000Y-53992000D01*
X98450428Y-54063428D01*
X98521857Y-53992000D01*
X98450428Y-53920571D01*
X98450428Y-54063428D01*
X99807571Y-54420571D02*
X99807571Y-55634857D01*
X99736142Y-55777714D01*
X99664714Y-55849142D01*
X99521857Y-55920571D01*
X99307571Y-55920571D01*
X99164714Y-55849142D01*
X99807571Y-55349142D02*
X99664714Y-55420571D01*
X99379000Y-55420571D01*
X99236142Y-55349142D01*
X99164714Y-55277714D01*
X99093285Y-55134857D01*
X99093285Y-54706285D01*
X99164714Y-54563428D01*
X99236142Y-54492000D01*
X99379000Y-54420571D01*
X99664714Y-54420571D01*
X99807571Y-54492000D01*
X100521857Y-55420571D02*
X100521857Y-53920571D01*
X101164714Y-55420571D02*
X101164714Y-54634857D01*
X101093285Y-54492000D01*
X100950428Y-54420571D01*
X100736142Y-54420571D01*
X100593285Y-54492000D01*
X100521857Y-54563428D01*
X101664714Y-54420571D02*
X102236142Y-54420571D01*
X101879000Y-53920571D02*
X101879000Y-55206285D01*
X101950428Y-55349142D01*
X102093285Y-55420571D01*
X102236142Y-55420571D01*
X103807571Y-53849142D02*
X102521857Y-55777714D01*
X104093285Y-54420571D02*
X104664714Y-54420571D01*
X104307571Y-53920571D02*
X104307571Y-55206285D01*
X104379000Y-55349142D01*
X104521857Y-55420571D01*
X104664714Y-55420571D01*
X105736142Y-55349142D02*
X105593285Y-55420571D01*
X105307571Y-55420571D01*
X105164714Y-55349142D01*
X105093285Y-55206285D01*
X105093285Y-54634857D01*
X105164714Y-54492000D01*
X105307571Y-54420571D01*
X105593285Y-54420571D01*
X105736142Y-54492000D01*
X105807571Y-54634857D01*
X105807571Y-54777714D01*
X105093285Y-54920571D01*
X106450428Y-55420571D02*
X106450428Y-54420571D01*
X106450428Y-54706285D02*
X106521857Y-54563428D01*
X106593285Y-54492000D01*
X106736142Y-54420571D01*
X106879000Y-54420571D01*
X107379000Y-55420571D02*
X107379000Y-54420571D01*
X107379000Y-54706285D02*
X107450428Y-54563428D01*
X107521857Y-54492000D01*
X107664714Y-54420571D01*
X107807571Y-54420571D01*
X108950428Y-55420571D02*
X108950428Y-54634857D01*
X108879000Y-54492000D01*
X108736142Y-54420571D01*
X108450428Y-54420571D01*
X108307571Y-54492000D01*
X108950428Y-55349142D02*
X108807571Y-55420571D01*
X108450428Y-55420571D01*
X108307571Y-55349142D01*
X108236142Y-55206285D01*
X108236142Y-55063428D01*
X108307571Y-54920571D01*
X108450428Y-54849142D01*
X108807571Y-54849142D01*
X108950428Y-54777714D01*
X109664714Y-55420571D02*
X109664714Y-54420571D01*
X109664714Y-54706285D02*
X109736142Y-54563428D01*
X109807571Y-54492000D01*
X109950428Y-54420571D01*
X110093285Y-54420571D01*
X110593285Y-55420571D02*
X110593285Y-54420571D01*
X110593285Y-53920571D02*
X110521857Y-53992000D01*
X110593285Y-54063428D01*
X110664714Y-53992000D01*
X110593285Y-53920571D01*
X110593285Y-54063428D01*
X111950428Y-54420571D02*
X111950428Y-55420571D01*
X111307571Y-54420571D02*
X111307571Y-55206285D01*
X111379000Y-55349142D01*
X111521857Y-55420571D01*
X111736142Y-55420571D01*
X111879000Y-55349142D01*
X111950428Y-55277714D01*
X112664714Y-55420571D02*
X112664714Y-54420571D01*
X112664714Y-54563428D02*
X112736142Y-54492000D01*
X112879000Y-54420571D01*
X113093285Y-54420571D01*
X113236142Y-54492000D01*
X113307571Y-54634857D01*
X113307571Y-55420571D01*
X113307571Y-54634857D02*
X113379000Y-54492000D01*
X113521857Y-54420571D01*
X113736142Y-54420571D01*
X113879000Y-54492000D01*
X113950428Y-54634857D01*
X113950428Y-55420571D01*
X76379000Y-56970571D02*
X76379000Y-58184857D01*
X76307571Y-58327714D01*
X76236142Y-58399142D01*
X76093285Y-58470571D01*
X75879000Y-58470571D01*
X75736142Y-58399142D01*
X76379000Y-57899142D02*
X76236142Y-57970571D01*
X75950428Y-57970571D01*
X75807571Y-57899142D01*
X75736142Y-57827714D01*
X75664714Y-57684857D01*
X75664714Y-57256285D01*
X75736142Y-57113428D01*
X75807571Y-57042000D01*
X75950428Y-56970571D01*
X76236142Y-56970571D01*
X76379000Y-57042000D01*
X77093285Y-57970571D02*
X77093285Y-56970571D01*
X77093285Y-56470571D02*
X77021857Y-56542000D01*
X77093285Y-56613428D01*
X77164714Y-56542000D01*
X77093285Y-56470571D01*
X77093285Y-56613428D01*
X77593285Y-56970571D02*
X78164714Y-56970571D01*
X77807571Y-56470571D02*
X77807571Y-57756285D01*
X77879000Y-57899142D01*
X78021857Y-57970571D01*
X78164714Y-57970571D01*
X78664714Y-57970571D02*
X78664714Y-56470571D01*
X79307571Y-57970571D02*
X79307571Y-57184857D01*
X79236142Y-57042000D01*
X79093285Y-56970571D01*
X78879000Y-56970571D01*
X78736142Y-57042000D01*
X78664714Y-57113428D01*
X80664714Y-56970571D02*
X80664714Y-57970571D01*
X80021857Y-56970571D02*
X80021857Y-57756285D01*
X80093285Y-57899142D01*
X80236142Y-57970571D01*
X80450428Y-57970571D01*
X80593285Y-57899142D01*
X80664714Y-57827714D01*
X81379000Y-57970571D02*
X81379000Y-56470571D01*
X81379000Y-57042000D02*
X81521857Y-56970571D01*
X81807571Y-56970571D01*
X81950428Y-57042000D01*
X82021857Y-57113428D01*
X82093285Y-57256285D01*
X82093285Y-57684857D01*
X82021857Y-57827714D01*
X81950428Y-57899142D01*
X81807571Y-57970571D01*
X81521857Y-57970571D01*
X81379000Y-57899142D01*
X82736142Y-57827714D02*
X82807571Y-57899142D01*
X82736142Y-57970571D01*
X82664714Y-57899142D01*
X82736142Y-57827714D01*
X82736142Y-57970571D01*
X84093285Y-57899142D02*
X83950428Y-57970571D01*
X83664714Y-57970571D01*
X83521857Y-57899142D01*
X83450428Y-57827714D01*
X83379000Y-57684857D01*
X83379000Y-57256285D01*
X83450428Y-57113428D01*
X83521857Y-57042000D01*
X83664714Y-56970571D01*
X83950428Y-56970571D01*
X84093285Y-57042000D01*
X84950428Y-57970571D02*
X84807571Y-57899142D01*
X84736142Y-57827714D01*
X84664714Y-57684857D01*
X84664714Y-57256285D01*
X84736142Y-57113428D01*
X84807571Y-57042000D01*
X84950428Y-56970571D01*
X85164714Y-56970571D01*
X85307571Y-57042000D01*
X85379000Y-57113428D01*
X85450428Y-57256285D01*
X85450428Y-57684857D01*
X85379000Y-57827714D01*
X85307571Y-57899142D01*
X85164714Y-57970571D01*
X84950428Y-57970571D01*
X86093285Y-57970571D02*
X86093285Y-56970571D01*
X86093285Y-57113428D02*
X86164714Y-57042000D01*
X86307571Y-56970571D01*
X86521857Y-56970571D01*
X86664714Y-57042000D01*
X86736142Y-57184857D01*
X86736142Y-57970571D01*
X86736142Y-57184857D02*
X86807571Y-57042000D01*
X86950428Y-56970571D01*
X87164714Y-56970571D01*
X87307571Y-57042000D01*
X87379000Y-57184857D01*
X87379000Y-57970571D01*
X89164714Y-56399142D02*
X87879000Y-58327714D01*
X89664714Y-57970571D02*
X89664714Y-56470571D01*
X89664714Y-57042000D02*
X89807571Y-56970571D01*
X90093285Y-56970571D01*
X90236142Y-57042000D01*
X90307571Y-57113428D01*
X90379000Y-57256285D01*
X90379000Y-57684857D01*
X90307571Y-57827714D01*
X90236142Y-57899142D01*
X90093285Y-57970571D01*
X89807571Y-57970571D01*
X89664714Y-57899142D01*
X91021857Y-57970571D02*
X91021857Y-56970571D01*
X91021857Y-57256285D02*
X91093285Y-57113428D01*
X91164714Y-57042000D01*
X91307571Y-56970571D01*
X91450428Y-56970571D01*
X92593285Y-56970571D02*
X92593285Y-57970571D01*
X91950428Y-56970571D02*
X91950428Y-57756285D01*
X92021857Y-57899142D01*
X92164714Y-57970571D01*
X92379000Y-57970571D01*
X92521857Y-57899142D01*
X92593285Y-57827714D01*
X93236142Y-57899142D02*
X93379000Y-57970571D01*
X93664714Y-57970571D01*
X93807571Y-57899142D01*
X93879000Y-57756285D01*
X93879000Y-57684857D01*
X93807571Y-57542000D01*
X93664714Y-57470571D01*
X93450428Y-57470571D01*
X93307571Y-57399142D01*
X93236142Y-57256285D01*
X93236142Y-57184857D01*
X93307571Y-57042000D01*
X93450428Y-56970571D01*
X93664714Y-56970571D01*
X93807571Y-57042000D01*
X94521857Y-57970571D02*
X94521857Y-56470571D01*
X95164714Y-57970571D02*
X95164714Y-57184857D01*
X95093285Y-57042000D01*
X94950428Y-56970571D01*
X94736142Y-56970571D01*
X94593285Y-57042000D01*
X94521857Y-57113428D01*
X95879000Y-57970571D02*
X95879000Y-56470571D01*
X96021857Y-57399142D02*
X96450428Y-57970571D01*
X96450428Y-56970571D02*
X95879000Y-57542000D01*
X97093285Y-56970571D02*
X97093285Y-57970571D01*
X97093285Y-57113428D02*
X97164714Y-57042000D01*
X97307571Y-56970571D01*
X97521857Y-56970571D01*
X97664714Y-57042000D01*
X97736142Y-57184857D01*
X97736142Y-57970571D01*
X98450428Y-57970571D02*
X98450428Y-56970571D01*
X98450428Y-56470571D02*
X98379000Y-56542000D01*
X98450428Y-56613428D01*
X98521857Y-56542000D01*
X98450428Y-56470571D01*
X98450428Y-56613428D01*
X99807571Y-56970571D02*
X99807571Y-58184857D01*
X99736142Y-58327714D01*
X99664714Y-58399142D01*
X99521857Y-58470571D01*
X99307571Y-58470571D01*
X99164714Y-58399142D01*
X99807571Y-57899142D02*
X99664714Y-57970571D01*
X99379000Y-57970571D01*
X99236142Y-57899142D01*
X99164714Y-57827714D01*
X99093285Y-57684857D01*
X99093285Y-57256285D01*
X99164714Y-57113428D01*
X99236142Y-57042000D01*
X99379000Y-56970571D01*
X99664714Y-56970571D01*
X99807571Y-57042000D01*
X100521857Y-57970571D02*
X100521857Y-56470571D01*
X101164714Y-57970571D02*
X101164714Y-57184857D01*
X101093285Y-57042000D01*
X100950428Y-56970571D01*
X100736142Y-56970571D01*
X100593285Y-57042000D01*
X100521857Y-57113428D01*
X101664714Y-56970571D02*
X102236142Y-56970571D01*
X101879000Y-56470571D02*
X101879000Y-57756285D01*
X101950428Y-57899142D01*
X102093285Y-57970571D01*
X102236142Y-57970571D01*
X103807571Y-56399142D02*
X102521857Y-58327714D01*
X104093285Y-56970571D02*
X104664714Y-56970571D01*
X104307571Y-56470571D02*
X104307571Y-57756285D01*
X104379000Y-57899142D01*
X104521857Y-57970571D01*
X104664714Y-57970571D01*
X105736142Y-57899142D02*
X105593285Y-57970571D01*
X105307571Y-57970571D01*
X105164714Y-57899142D01*
X105093285Y-57756285D01*
X105093285Y-57184857D01*
X105164714Y-57042000D01*
X105307571Y-56970571D01*
X105593285Y-56970571D01*
X105736142Y-57042000D01*
X105807571Y-57184857D01*
X105807571Y-57327714D01*
X105093285Y-57470571D01*
X106450428Y-57970571D02*
X106450428Y-56970571D01*
X106450428Y-57256285D02*
X106521857Y-57113428D01*
X106593285Y-57042000D01*
X106736142Y-56970571D01*
X106879000Y-56970571D01*
X107379000Y-57970571D02*
X107379000Y-56970571D01*
X107379000Y-57256285D02*
X107450428Y-57113428D01*
X107521857Y-57042000D01*
X107664714Y-56970571D01*
X107807571Y-56970571D01*
X108950428Y-57970571D02*
X108950428Y-57184857D01*
X108879000Y-57042000D01*
X108736142Y-56970571D01*
X108450428Y-56970571D01*
X108307571Y-57042000D01*
X108950428Y-57899142D02*
X108807571Y-57970571D01*
X108450428Y-57970571D01*
X108307571Y-57899142D01*
X108236142Y-57756285D01*
X108236142Y-57613428D01*
X108307571Y-57470571D01*
X108450428Y-57399142D01*
X108807571Y-57399142D01*
X108950428Y-57327714D01*
X109664714Y-57970571D02*
X109664714Y-56970571D01*
X109664714Y-57256285D02*
X109736142Y-57113428D01*
X109807571Y-57042000D01*
X109950428Y-56970571D01*
X110093285Y-56970571D01*
X110593285Y-57970571D02*
X110593285Y-56970571D01*
X110593285Y-56470571D02*
X110521857Y-56542000D01*
X110593285Y-56613428D01*
X110664714Y-56542000D01*
X110593285Y-56470571D01*
X110593285Y-56613428D01*
X111950428Y-56970571D02*
X111950428Y-57970571D01*
X111307571Y-56970571D02*
X111307571Y-57756285D01*
X111379000Y-57899142D01*
X111521857Y-57970571D01*
X111736142Y-57970571D01*
X111879000Y-57899142D01*
X111950428Y-57827714D01*
X112664714Y-57970571D02*
X112664714Y-56970571D01*
X112664714Y-57113428D02*
X112736142Y-57042000D01*
X112879000Y-56970571D01*
X113093285Y-56970571D01*
X113236142Y-57042000D01*
X113307571Y-57184857D01*
X113307571Y-57970571D01*
X113307571Y-57184857D02*
X113379000Y-57042000D01*
X113521857Y-56970571D01*
X113736142Y-56970571D01*
X113879000Y-57042000D01*
X113950428Y-57184857D01*
X113950428Y-57970571D01*
X114664714Y-57399142D02*
X115807571Y-57399142D01*
X116521857Y-57970571D02*
X116521857Y-56470571D01*
X117164714Y-57970571D02*
X117164714Y-57184857D01*
X117093285Y-57042000D01*
X116950428Y-56970571D01*
X116736142Y-56970571D01*
X116593285Y-57042000D01*
X116521857Y-57113428D01*
X118521857Y-57970571D02*
X118521857Y-57184857D01*
X118450428Y-57042000D01*
X118307571Y-56970571D01*
X118021857Y-56970571D01*
X117879000Y-57042000D01*
X118521857Y-57899142D02*
X118379000Y-57970571D01*
X118021857Y-57970571D01*
X117879000Y-57899142D01*
X117807571Y-57756285D01*
X117807571Y-57613428D01*
X117879000Y-57470571D01*
X118021857Y-57399142D01*
X118379000Y-57399142D01*
X118521857Y-57327714D01*
X119236142Y-57970571D02*
X119236142Y-56970571D01*
X119236142Y-57256285D02*
X119307571Y-57113428D01*
X119379000Y-57042000D01*
X119521857Y-56970571D01*
X119664714Y-56970571D01*
X120807571Y-57970571D02*
X120807571Y-56470571D01*
X120807571Y-57899142D02*
X120664714Y-57970571D01*
X120379000Y-57970571D01*
X120236142Y-57899142D01*
X120164714Y-57827714D01*
X120093285Y-57684857D01*
X120093285Y-57256285D01*
X120164714Y-57113428D01*
X120236142Y-57042000D01*
X120379000Y-56970571D01*
X120664714Y-56970571D01*
X120807571Y-57042000D01*
X121379000Y-56970571D02*
X121664714Y-57970571D01*
X121950428Y-57256285D01*
X122236142Y-57970571D01*
X122521857Y-56970571D01*
X123736142Y-57970571D02*
X123736142Y-57184857D01*
X123664714Y-57042000D01*
X123521857Y-56970571D01*
X123236142Y-56970571D01*
X123093285Y-57042000D01*
X123736142Y-57899142D02*
X123593285Y-57970571D01*
X123236142Y-57970571D01*
X123093285Y-57899142D01*
X123021857Y-57756285D01*
X123021857Y-57613428D01*
X123093285Y-57470571D01*
X123236142Y-57399142D01*
X123593285Y-57399142D01*
X123736142Y-57327714D01*
X124450428Y-57970571D02*
X124450428Y-56970571D01*
X124450428Y-57256285D02*
X124521857Y-57113428D01*
X124593285Y-57042000D01*
X124736142Y-56970571D01*
X124879000Y-56970571D01*
X125950428Y-57899142D02*
X125807571Y-57970571D01*
X125521857Y-57970571D01*
X125379000Y-57899142D01*
X125307571Y-57756285D01*
X125307571Y-57184857D01*
X125379000Y-57042000D01*
X125521857Y-56970571D01*
X125807571Y-56970571D01*
X125950428Y-57042000D01*
X126021857Y-57184857D01*
X126021857Y-57327714D01*
X125307571Y-57470571D01*
D13*
X95152595Y-31595961D02*
X95295452Y-31643580D01*
X95533547Y-31643580D01*
X95628785Y-31595961D01*
X95676404Y-31548342D01*
X95724023Y-31453104D01*
X95724023Y-31357866D01*
X95676404Y-31262628D01*
X95628785Y-31215009D01*
X95533547Y-31167390D01*
X95343071Y-31119771D01*
X95247833Y-31072152D01*
X95200214Y-31024533D01*
X95152595Y-30929295D01*
X95152595Y-30834057D01*
X95200214Y-30738819D01*
X95247833Y-30691200D01*
X95343071Y-30643580D01*
X95581166Y-30643580D01*
X95724023Y-30691200D01*
X113989900Y-28128980D02*
X113513709Y-28128980D01*
X113466090Y-28605171D01*
X113513709Y-28557552D01*
X113608947Y-28509933D01*
X113847042Y-28509933D01*
X113942280Y-28557552D01*
X113989900Y-28605171D01*
X114037519Y-28700409D01*
X114037519Y-28938504D01*
X113989900Y-29033742D01*
X113942280Y-29081361D01*
X113847042Y-29128980D01*
X113608947Y-29128980D01*
X113513709Y-29081361D01*
X113466090Y-29033742D01*
X114370852Y-28462314D02*
X114608947Y-29128980D01*
X114847042Y-28462314D01*
X114227995Y-31748361D02*
X114370852Y-31795980D01*
X114608947Y-31795980D01*
X114704185Y-31748361D01*
X114751804Y-31700742D01*
X114799423Y-31605504D01*
X114799423Y-31510266D01*
X114751804Y-31415028D01*
X114704185Y-31367409D01*
X114608947Y-31319790D01*
X114418471Y-31272171D01*
X114323233Y-31224552D01*
X114275614Y-31176933D01*
X114227995Y-31081695D01*
X114227995Y-30986457D01*
X114275614Y-30891219D01*
X114323233Y-30843600D01*
X114418471Y-30795980D01*
X114656566Y-30795980D01*
X114799423Y-30843600D01*
X104439500Y-28154380D02*
X103963309Y-28154380D01*
X103915690Y-28630571D01*
X103963309Y-28582952D01*
X104058547Y-28535333D01*
X104296642Y-28535333D01*
X104391880Y-28582952D01*
X104439500Y-28630571D01*
X104487119Y-28725809D01*
X104487119Y-28963904D01*
X104439500Y-29059142D01*
X104391880Y-29106761D01*
X104296642Y-29154380D01*
X104058547Y-29154380D01*
X103963309Y-29106761D01*
X103915690Y-29059142D01*
X104820452Y-28487714D02*
X105058547Y-29154380D01*
X105296642Y-28487714D01*
X104677595Y-31773761D02*
X104820452Y-31821380D01*
X105058547Y-31821380D01*
X105153785Y-31773761D01*
X105201404Y-31726142D01*
X105249023Y-31630904D01*
X105249023Y-31535666D01*
X105201404Y-31440428D01*
X105153785Y-31392809D01*
X105058547Y-31345190D01*
X104868071Y-31297571D01*
X104772833Y-31249952D01*
X104725214Y-31202333D01*
X104677595Y-31107095D01*
X104677595Y-31011857D01*
X104725214Y-30916619D01*
X104772833Y-30869000D01*
X104868071Y-30821380D01*
X105106166Y-30821380D01*
X105249023Y-30869000D01*
X94914500Y-28103580D02*
X94438309Y-28103580D01*
X94390690Y-28579771D01*
X94438309Y-28532152D01*
X94533547Y-28484533D01*
X94771642Y-28484533D01*
X94866880Y-28532152D01*
X94914500Y-28579771D01*
X94962119Y-28675009D01*
X94962119Y-28913104D01*
X94914500Y-29008342D01*
X94866880Y-29055961D01*
X94771642Y-29103580D01*
X94533547Y-29103580D01*
X94438309Y-29055961D01*
X94390690Y-29008342D01*
X95295452Y-28436914D02*
X95533547Y-29103580D01*
X95771642Y-28436914D01*
X114751804Y-33256600D02*
X114656566Y-33208980D01*
X114513709Y-33208980D01*
X114370852Y-33256600D01*
X114275614Y-33351838D01*
X114227995Y-33447076D01*
X114180376Y-33637552D01*
X114180376Y-33780409D01*
X114227995Y-33970885D01*
X114275614Y-34066123D01*
X114370852Y-34161361D01*
X114513709Y-34208980D01*
X114608947Y-34208980D01*
X114751804Y-34161361D01*
X114799423Y-34113742D01*
X114799423Y-33780409D01*
X114608947Y-33780409D01*
X105201404Y-33282000D02*
X105106166Y-33234380D01*
X104963309Y-33234380D01*
X104820452Y-33282000D01*
X104725214Y-33377238D01*
X104677595Y-33472476D01*
X104629976Y-33662952D01*
X104629976Y-33805809D01*
X104677595Y-33996285D01*
X104725214Y-34091523D01*
X104820452Y-34186761D01*
X104963309Y-34234380D01*
X105058547Y-34234380D01*
X105201404Y-34186761D01*
X105249023Y-34139142D01*
X105249023Y-33805809D01*
X105058547Y-33805809D01*
X95676404Y-33104200D02*
X95581166Y-33056580D01*
X95438309Y-33056580D01*
X95295452Y-33104200D01*
X95200214Y-33199438D01*
X95152595Y-33294676D01*
X95104976Y-33485152D01*
X95104976Y-33628009D01*
X95152595Y-33818485D01*
X95200214Y-33913723D01*
X95295452Y-34008961D01*
X95438309Y-34056580D01*
X95533547Y-34056580D01*
X95676404Y-34008961D01*
X95724023Y-33961342D01*
X95724023Y-33628009D01*
X95533547Y-33628009D01*
X54816952Y-109688380D02*
X54816952Y-110402666D01*
X54769333Y-110545523D01*
X54674095Y-110640761D01*
X54531238Y-110688380D01*
X54436000Y-110688380D01*
X55769333Y-110688380D02*
X55293142Y-110688380D01*
X55293142Y-109688380D01*
X56674095Y-110593142D02*
X56626476Y-110640761D01*
X56483619Y-110688380D01*
X56388380Y-110688380D01*
X56245523Y-110640761D01*
X56150285Y-110545523D01*
X56102666Y-110450285D01*
X56055047Y-110259809D01*
X56055047Y-110116952D01*
X56102666Y-109926476D01*
X56150285Y-109831238D01*
X56245523Y-109736000D01*
X56388380Y-109688380D01*
X56483619Y-109688380D01*
X56626476Y-109736000D01*
X56674095Y-109783619D01*
X57388380Y-109688380D02*
X57388380Y-110402666D01*
X57340761Y-110545523D01*
X57245523Y-110640761D01*
X57102666Y-110688380D01*
X57007428Y-110688380D01*
X58340761Y-110688380D02*
X57864571Y-110688380D01*
X57864571Y-109688380D01*
X59245523Y-110593142D02*
X59197904Y-110640761D01*
X59055047Y-110688380D01*
X58959809Y-110688380D01*
X58816952Y-110640761D01*
X58721714Y-110545523D01*
X58674095Y-110450285D01*
X58626476Y-110259809D01*
X58626476Y-110116952D01*
X58674095Y-109926476D01*
X58721714Y-109831238D01*
X58816952Y-109736000D01*
X58959809Y-109688380D01*
X59055047Y-109688380D01*
X59197904Y-109736000D01*
X59245523Y-109783619D01*
X59959809Y-109688380D02*
X59959809Y-110402666D01*
X59912190Y-110545523D01*
X59816952Y-110640761D01*
X59674095Y-110688380D01*
X59578857Y-110688380D01*
X60912190Y-110688380D02*
X60436000Y-110688380D01*
X60436000Y-109688380D01*
X61816952Y-110593142D02*
X61769333Y-110640761D01*
X61626476Y-110688380D01*
X61531238Y-110688380D01*
X61388380Y-110640761D01*
X61293142Y-110545523D01*
X61245523Y-110450285D01*
X61197904Y-110259809D01*
X61197904Y-110116952D01*
X61245523Y-109926476D01*
X61293142Y-109831238D01*
X61388380Y-109736000D01*
X61531238Y-109688380D01*
X61626476Y-109688380D01*
X61769333Y-109736000D01*
X61816952Y-109783619D01*
X62531238Y-109688380D02*
X62531238Y-110402666D01*
X62483619Y-110545523D01*
X62388380Y-110640761D01*
X62245523Y-110688380D01*
X62150285Y-110688380D01*
X63483619Y-110688380D02*
X63007428Y-110688380D01*
X63007428Y-109688380D01*
X64388380Y-110593142D02*
X64340761Y-110640761D01*
X64197904Y-110688380D01*
X64102666Y-110688380D01*
X63959809Y-110640761D01*
X63864571Y-110545523D01*
X63816952Y-110450285D01*
X63769333Y-110259809D01*
X63769333Y-110116952D01*
X63816952Y-109926476D01*
X63864571Y-109831238D01*
X63959809Y-109736000D01*
X64102666Y-109688380D01*
X64197904Y-109688380D01*
X64340761Y-109736000D01*
X64388380Y-109783619D01*
D11*
X127000000Y-23000000D02*
X45000000Y-23000000D01*
X131000000Y-109000000D02*
X131000000Y-27000000D01*
X45000000Y-113000000D02*
X127000000Y-113000000D01*
X41000000Y-27000000D02*
X41000000Y-109000000D01*
D12*
X45382571Y-62908285D02*
X43882571Y-62908285D01*
X43882571Y-62336857D01*
X43954000Y-62194000D01*
X44025428Y-62122571D01*
X44168285Y-62051142D01*
X44382571Y-62051142D01*
X44525428Y-62122571D01*
X44596857Y-62194000D01*
X44668285Y-62336857D01*
X44668285Y-62908285D01*
X45382571Y-61194000D02*
X45311142Y-61336857D01*
X45239714Y-61408285D01*
X45096857Y-61479714D01*
X44668285Y-61479714D01*
X44525428Y-61408285D01*
X44454000Y-61336857D01*
X44382571Y-61194000D01*
X44382571Y-60979714D01*
X44454000Y-60836857D01*
X44525428Y-60765428D01*
X44668285Y-60694000D01*
X45096857Y-60694000D01*
X45239714Y-60765428D01*
X45311142Y-60836857D01*
X45382571Y-60979714D01*
X45382571Y-61194000D01*
X44382571Y-60194000D02*
X45382571Y-59908285D01*
X44668285Y-59622571D01*
X45382571Y-59336857D01*
X44382571Y-59051142D01*
X45311142Y-57908285D02*
X45382571Y-58051142D01*
X45382571Y-58336857D01*
X45311142Y-58479714D01*
X45168285Y-58551142D01*
X44596857Y-58551142D01*
X44454000Y-58479714D01*
X44382571Y-58336857D01*
X44382571Y-58051142D01*
X44454000Y-57908285D01*
X44596857Y-57836857D01*
X44739714Y-57836857D01*
X44882571Y-58551142D01*
X45382571Y-57194000D02*
X44382571Y-57194000D01*
X44668285Y-57194000D02*
X44525428Y-57122571D01*
X44454000Y-57051142D01*
X44382571Y-56908285D01*
X44382571Y-56765428D01*
D13*
X62952380Y-66722476D02*
X62952380Y-66103428D01*
X63333333Y-66436761D01*
X63333333Y-66293904D01*
X63380952Y-66198666D01*
X63428571Y-66151047D01*
X63523809Y-66103428D01*
X63761904Y-66103428D01*
X63857142Y-66151047D01*
X63904761Y-66198666D01*
X63952380Y-66293904D01*
X63952380Y-66579619D01*
X63904761Y-66674857D01*
X63857142Y-66722476D01*
X63285714Y-65770095D02*
X63952380Y-65532000D01*
X63285714Y-65293904D01*
X62952380Y-65008190D02*
X62952380Y-64389142D01*
X63333333Y-64722476D01*
X63333333Y-64579619D01*
X63380952Y-64484380D01*
X63428571Y-64436761D01*
X63523809Y-64389142D01*
X63761904Y-64389142D01*
X63857142Y-64436761D01*
X63904761Y-64484380D01*
X63952380Y-64579619D01*
X63952380Y-64865333D01*
X63904761Y-64960571D01*
X63857142Y-65008190D01*
X107450000Y-44213976D02*
X107402380Y-44309214D01*
X107402380Y-44452071D01*
X107450000Y-44594928D01*
X107545238Y-44690166D01*
X107640476Y-44737785D01*
X107830952Y-44785404D01*
X107973809Y-44785404D01*
X108164285Y-44737785D01*
X108259523Y-44690166D01*
X108354761Y-44594928D01*
X108402380Y-44452071D01*
X108402380Y-44356833D01*
X108354761Y-44213976D01*
X108307142Y-44166357D01*
X107973809Y-44166357D01*
X107973809Y-44356833D01*
X107735714Y-43309214D02*
X108402380Y-43309214D01*
X107354761Y-43547309D02*
X108069047Y-43785404D01*
X108069047Y-43166357D01*
X99830000Y-44213976D02*
X99782380Y-44309214D01*
X99782380Y-44452071D01*
X99830000Y-44594928D01*
X99925238Y-44690166D01*
X100020476Y-44737785D01*
X100210952Y-44785404D01*
X100353809Y-44785404D01*
X100544285Y-44737785D01*
X100639523Y-44690166D01*
X100734761Y-44594928D01*
X100782380Y-44452071D01*
X100782380Y-44356833D01*
X100734761Y-44213976D01*
X100687142Y-44166357D01*
X100353809Y-44166357D01*
X100353809Y-44356833D01*
X99782380Y-43261595D02*
X99782380Y-43737785D01*
X100258571Y-43785404D01*
X100210952Y-43737785D01*
X100163333Y-43642547D01*
X100163333Y-43404452D01*
X100210952Y-43309214D01*
X100258571Y-43261595D01*
X100353809Y-43213976D01*
X100591904Y-43213976D01*
X100687142Y-43261595D01*
X100734761Y-43309214D01*
X100782380Y-43404452D01*
X100782380Y-43642547D01*
X100734761Y-43737785D01*
X100687142Y-43785404D01*
X88082380Y-44166357D02*
X87606190Y-44499690D01*
X88082380Y-44737785D02*
X87082380Y-44737785D01*
X87082380Y-44356833D01*
X87130000Y-44261595D01*
X87177619Y-44213976D01*
X87272857Y-44166357D01*
X87415714Y-44166357D01*
X87510952Y-44213976D01*
X87558571Y-44261595D01*
X87606190Y-44356833D01*
X87606190Y-44737785D01*
X87082380Y-43833023D02*
X88082380Y-43166357D01*
X87082380Y-43166357D02*
X88082380Y-43833023D01*
X84542380Y-44642547D02*
X84542380Y-44071119D01*
X85542380Y-44356833D02*
X84542380Y-44356833D01*
X84542380Y-43833023D02*
X85542380Y-43166357D01*
X84542380Y-43166357D02*
X85542380Y-43833023D01*
D12*
X55670000Y-43176071D02*
X56241428Y-43176071D01*
X55884285Y-42676071D02*
X55884285Y-43961785D01*
X55955714Y-44104642D01*
X56098571Y-44176071D01*
X56241428Y-44176071D01*
X56598571Y-44176071D02*
X57384285Y-43176071D01*
X56598571Y-43176071D02*
X57384285Y-44176071D01*
X59027142Y-42604642D02*
X57741428Y-44533214D01*
X59527142Y-44176071D02*
X59527142Y-43176071D01*
X59527142Y-43461785D02*
X59598571Y-43318928D01*
X59670000Y-43247500D01*
X59812857Y-43176071D01*
X59955714Y-43176071D01*
X60312857Y-44176071D02*
X61098571Y-43176071D01*
X60312857Y-43176071D02*
X61098571Y-44176071D01*
X71290571Y-63614571D02*
X70290571Y-63614571D01*
X69790571Y-63614571D02*
X69862000Y-63686000D01*
X69933428Y-63614571D01*
X69862000Y-63543142D01*
X69790571Y-63614571D01*
X69933428Y-63614571D01*
X69933428Y-62971714D02*
X69862000Y-62900285D01*
X69790571Y-62757428D01*
X69790571Y-62400285D01*
X69862000Y-62257428D01*
X69933428Y-62186000D01*
X70076285Y-62114571D01*
X70219142Y-62114571D01*
X70433428Y-62186000D01*
X71290571Y-63043142D01*
X71290571Y-62114571D01*
X71219142Y-60828857D02*
X71290571Y-60971714D01*
X71290571Y-61257428D01*
X71219142Y-61400285D01*
X71147714Y-61471714D01*
X71004857Y-61543142D01*
X70576285Y-61543142D01*
X70433428Y-61471714D01*
X70362000Y-61400285D01*
X70290571Y-61257428D01*
X70290571Y-60971714D01*
X70362000Y-60828857D01*
X70504857Y-58543142D02*
X70576285Y-58328857D01*
X70647714Y-58257428D01*
X70790571Y-58186000D01*
X71004857Y-58186000D01*
X71147714Y-58257428D01*
X71219142Y-58328857D01*
X71290571Y-58471714D01*
X71290571Y-59043142D01*
X69790571Y-59043142D01*
X69790571Y-58543142D01*
X69862000Y-58400285D01*
X69933428Y-58328857D01*
X70076285Y-58257428D01*
X70219142Y-58257428D01*
X70362000Y-58328857D01*
X70433428Y-58400285D01*
X70504857Y-58543142D01*
X70504857Y-59043142D01*
X69790571Y-57543142D02*
X71004857Y-57543142D01*
X71147714Y-57471714D01*
X71219142Y-57400285D01*
X71290571Y-57257428D01*
X71290571Y-56971714D01*
X71219142Y-56828857D01*
X71147714Y-56757428D01*
X71004857Y-56686000D01*
X69790571Y-56686000D01*
X71219142Y-56043142D02*
X71290571Y-55828857D01*
X71290571Y-55471714D01*
X71219142Y-55328857D01*
X71147714Y-55257428D01*
X71004857Y-55186000D01*
X70862000Y-55186000D01*
X70719142Y-55257428D01*
X70647714Y-55328857D01*
X70576285Y-55471714D01*
X70504857Y-55757428D01*
X70433428Y-55900285D01*
X70362000Y-55971714D01*
X70219142Y-56043142D01*
X70076285Y-56043142D01*
X69933428Y-55971714D01*
X69862000Y-55900285D01*
X69790571Y-55757428D01*
X69790571Y-55400285D01*
X69862000Y-55186000D01*
D10*
X72390000Y-75946000D02*
X72390000Y-108966000D01*
X72390000Y-108966000D02*
X98298000Y-108966000D01*
X98298000Y-108966000D02*
X98298000Y-75946000D01*
X98298000Y-75946000D02*
X72390000Y-75946000D01*
D13*
X76922380Y-64089309D02*
X76922380Y-63470261D01*
X77303333Y-63803595D01*
X77303333Y-63660738D01*
X77350952Y-63565500D01*
X77398571Y-63517880D01*
X77493809Y-63470261D01*
X77731904Y-63470261D01*
X77827142Y-63517880D01*
X77874761Y-63565500D01*
X77922380Y-63660738D01*
X77922380Y-63946452D01*
X77874761Y-64041690D01*
X77827142Y-64089309D01*
X77255714Y-63136928D02*
X77922380Y-62898833D01*
X77255714Y-62660738D01*
X76922380Y-62375023D02*
X76922380Y-61755976D01*
X77303333Y-62089309D01*
X77303333Y-61946452D01*
X77350952Y-61851214D01*
X77398571Y-61803595D01*
X77493809Y-61755976D01*
X77731904Y-61755976D01*
X77827142Y-61803595D01*
X77874761Y-61851214D01*
X77922380Y-61946452D01*
X77922380Y-62232166D01*
X77874761Y-62327404D01*
X77827142Y-62375023D01*
X61364761Y-55062285D02*
X61412380Y-54919428D01*
X61412380Y-54681333D01*
X61364761Y-54586095D01*
X61317142Y-54538476D01*
X61221904Y-54490857D01*
X61126666Y-54490857D01*
X61031428Y-54538476D01*
X60983809Y-54586095D01*
X60936190Y-54681333D01*
X60888571Y-54871809D01*
X60840952Y-54967047D01*
X60793333Y-55014666D01*
X60698095Y-55062285D01*
X60602857Y-55062285D01*
X60507619Y-55014666D01*
X60460000Y-54967047D01*
X60412380Y-54871809D01*
X60412380Y-54633714D01*
X60460000Y-54490857D01*
X61412380Y-54062285D02*
X60412380Y-54062285D01*
X60412380Y-53824190D01*
X60460000Y-53681333D01*
X60555238Y-53586095D01*
X60650476Y-53538476D01*
X60840952Y-53490857D01*
X60983809Y-53490857D01*
X61174285Y-53538476D01*
X61269523Y-53586095D01*
X61364761Y-53681333D01*
X61412380Y-53824190D01*
X61412380Y-54062285D01*
X61126666Y-53109904D02*
X61126666Y-52633714D01*
X61412380Y-53205142D02*
X60412380Y-52871809D01*
X61412380Y-52538476D01*
X58824761Y-55038476D02*
X58872380Y-54895619D01*
X58872380Y-54657523D01*
X58824761Y-54562285D01*
X58777142Y-54514666D01*
X58681904Y-54467047D01*
X58586666Y-54467047D01*
X58491428Y-54514666D01*
X58443809Y-54562285D01*
X58396190Y-54657523D01*
X58348571Y-54848000D01*
X58300952Y-54943238D01*
X58253333Y-54990857D01*
X58158095Y-55038476D01*
X58062857Y-55038476D01*
X57967619Y-54990857D01*
X57920000Y-54943238D01*
X57872380Y-54848000D01*
X57872380Y-54609904D01*
X57920000Y-54467047D01*
X58777142Y-53467047D02*
X58824761Y-53514666D01*
X58872380Y-53657523D01*
X58872380Y-53752761D01*
X58824761Y-53895619D01*
X58729523Y-53990857D01*
X58634285Y-54038476D01*
X58443809Y-54086095D01*
X58300952Y-54086095D01*
X58110476Y-54038476D01*
X58015238Y-53990857D01*
X57920000Y-53895619D01*
X57872380Y-53752761D01*
X57872380Y-53657523D01*
X57920000Y-53514666D01*
X57967619Y-53467047D01*
X58872380Y-52562285D02*
X58872380Y-53038476D01*
X57872380Y-53038476D01*
X65540000Y-54609904D02*
X65492380Y-54705142D01*
X65492380Y-54848000D01*
X65540000Y-54990857D01*
X65635238Y-55086095D01*
X65730476Y-55133714D01*
X65920952Y-55181333D01*
X66063809Y-55181333D01*
X66254285Y-55133714D01*
X66349523Y-55086095D01*
X66444761Y-54990857D01*
X66492380Y-54848000D01*
X66492380Y-54752761D01*
X66444761Y-54609904D01*
X66397142Y-54562285D01*
X66063809Y-54562285D01*
X66063809Y-54752761D01*
X66492380Y-54133714D02*
X65492380Y-54133714D01*
X66492380Y-53562285D01*
X65492380Y-53562285D01*
X66492380Y-53086095D02*
X65492380Y-53086095D01*
X65492380Y-52848000D01*
X65540000Y-52705142D01*
X65635238Y-52609904D01*
X65730476Y-52562285D01*
X65920952Y-52514666D01*
X66063809Y-52514666D01*
X66254285Y-52562285D01*
X66349523Y-52609904D01*
X66444761Y-52705142D01*
X66492380Y-52848000D01*
X66492380Y-53086095D01*
X62952380Y-53482857D02*
X62952380Y-53959047D01*
X63428571Y-54006666D01*
X63380952Y-53959047D01*
X63333333Y-53863809D01*
X63333333Y-53625714D01*
X63380952Y-53530476D01*
X63428571Y-53482857D01*
X63523809Y-53435238D01*
X63761904Y-53435238D01*
X63857142Y-53482857D01*
X63904761Y-53530476D01*
X63952380Y-53625714D01*
X63952380Y-53863809D01*
X63904761Y-53959047D01*
X63857142Y-54006666D01*
X63285714Y-53101904D02*
X63952380Y-52863809D01*
X63285714Y-52625714D01*
X104910000Y-45166357D02*
X104862380Y-45261595D01*
X104862380Y-45404452D01*
X104910000Y-45547309D01*
X105005238Y-45642547D01*
X105100476Y-45690166D01*
X105290952Y-45737785D01*
X105433809Y-45737785D01*
X105624285Y-45690166D01*
X105719523Y-45642547D01*
X105814761Y-45547309D01*
X105862380Y-45404452D01*
X105862380Y-45309214D01*
X105814761Y-45166357D01*
X105767142Y-45118738D01*
X105433809Y-45118738D01*
X105433809Y-45309214D01*
X105862380Y-44166357D02*
X105862380Y-44737785D01*
X105862380Y-44452071D02*
X104862380Y-44452071D01*
X105005238Y-44547309D01*
X105100476Y-44642547D01*
X105148095Y-44737785D01*
X104862380Y-43309214D02*
X104862380Y-43499690D01*
X104910000Y-43594928D01*
X104957619Y-43642547D01*
X105100476Y-43737785D01*
X105290952Y-43785404D01*
X105671904Y-43785404D01*
X105767142Y-43737785D01*
X105814761Y-43690166D01*
X105862380Y-43594928D01*
X105862380Y-43404452D01*
X105814761Y-43309214D01*
X105767142Y-43261595D01*
X105671904Y-43213976D01*
X105433809Y-43213976D01*
X105338571Y-43261595D01*
X105290952Y-43309214D01*
X105243333Y-43404452D01*
X105243333Y-43594928D01*
X105290952Y-43690166D01*
X105338571Y-43737785D01*
X105433809Y-43785404D01*
X102370000Y-45166357D02*
X102322380Y-45261595D01*
X102322380Y-45404452D01*
X102370000Y-45547309D01*
X102465238Y-45642547D01*
X102560476Y-45690166D01*
X102750952Y-45737785D01*
X102893809Y-45737785D01*
X103084285Y-45690166D01*
X103179523Y-45642547D01*
X103274761Y-45547309D01*
X103322380Y-45404452D01*
X103322380Y-45309214D01*
X103274761Y-45166357D01*
X103227142Y-45118738D01*
X102893809Y-45118738D01*
X102893809Y-45309214D01*
X103322380Y-44166357D02*
X103322380Y-44737785D01*
X103322380Y-44452071D02*
X102322380Y-44452071D01*
X102465238Y-44547309D01*
X102560476Y-44642547D01*
X102608095Y-44737785D01*
X102322380Y-43833023D02*
X102322380Y-43166357D01*
X103322380Y-43594928D01*
X97290000Y-45166357D02*
X97242380Y-45261595D01*
X97242380Y-45404452D01*
X97290000Y-45547309D01*
X97385238Y-45642547D01*
X97480476Y-45690166D01*
X97670952Y-45737785D01*
X97813809Y-45737785D01*
X98004285Y-45690166D01*
X98099523Y-45642547D01*
X98194761Y-45547309D01*
X98242380Y-45404452D01*
X98242380Y-45309214D01*
X98194761Y-45166357D01*
X98147142Y-45118738D01*
X97813809Y-45118738D01*
X97813809Y-45309214D01*
X98242380Y-44166357D02*
X98242380Y-44737785D01*
X98242380Y-44452071D02*
X97242380Y-44452071D01*
X97385238Y-44547309D01*
X97480476Y-44642547D01*
X97528095Y-44737785D01*
X97670952Y-43594928D02*
X97623333Y-43690166D01*
X97575714Y-43737785D01*
X97480476Y-43785404D01*
X97432857Y-43785404D01*
X97337619Y-43737785D01*
X97290000Y-43690166D01*
X97242380Y-43594928D01*
X97242380Y-43404452D01*
X97290000Y-43309214D01*
X97337619Y-43261595D01*
X97432857Y-43213976D01*
X97480476Y-43213976D01*
X97575714Y-43261595D01*
X97623333Y-43309214D01*
X97670952Y-43404452D01*
X97670952Y-43594928D01*
X97718571Y-43690166D01*
X97766190Y-43737785D01*
X97861428Y-43785404D01*
X98051904Y-43785404D01*
X98147142Y-43737785D01*
X98194761Y-43690166D01*
X98242380Y-43594928D01*
X98242380Y-43404452D01*
X98194761Y-43309214D01*
X98147142Y-43261595D01*
X98051904Y-43213976D01*
X97861428Y-43213976D01*
X97766190Y-43261595D01*
X97718571Y-43309214D01*
X97670952Y-43404452D01*
X94750000Y-45166357D02*
X94702380Y-45261595D01*
X94702380Y-45404452D01*
X94750000Y-45547309D01*
X94845238Y-45642547D01*
X94940476Y-45690166D01*
X95130952Y-45737785D01*
X95273809Y-45737785D01*
X95464285Y-45690166D01*
X95559523Y-45642547D01*
X95654761Y-45547309D01*
X95702380Y-45404452D01*
X95702380Y-45309214D01*
X95654761Y-45166357D01*
X95607142Y-45118738D01*
X95273809Y-45118738D01*
X95273809Y-45309214D01*
X95702380Y-44166357D02*
X95702380Y-44737785D01*
X95702380Y-44452071D02*
X94702380Y-44452071D01*
X94845238Y-44547309D01*
X94940476Y-44642547D01*
X94988095Y-44737785D01*
X95702380Y-43690166D02*
X95702380Y-43499690D01*
X95654761Y-43404452D01*
X95607142Y-43356833D01*
X95464285Y-43261595D01*
X95273809Y-43213976D01*
X94892857Y-43213976D01*
X94797619Y-43261595D01*
X94750000Y-43309214D01*
X94702380Y-43404452D01*
X94702380Y-43594928D01*
X94750000Y-43690166D01*
X94797619Y-43737785D01*
X94892857Y-43785404D01*
X95130952Y-43785404D01*
X95226190Y-43737785D01*
X95273809Y-43690166D01*
X95321428Y-43594928D01*
X95321428Y-43404452D01*
X95273809Y-43309214D01*
X95226190Y-43261595D01*
X95130952Y-43213976D01*
X89670000Y-45166357D02*
X89622380Y-45261595D01*
X89622380Y-45404452D01*
X89670000Y-45547309D01*
X89765238Y-45642547D01*
X89860476Y-45690166D01*
X90050952Y-45737785D01*
X90193809Y-45737785D01*
X90384285Y-45690166D01*
X90479523Y-45642547D01*
X90574761Y-45547309D01*
X90622380Y-45404452D01*
X90622380Y-45309214D01*
X90574761Y-45166357D01*
X90527142Y-45118738D01*
X90193809Y-45118738D01*
X90193809Y-45309214D01*
X89717619Y-44737785D02*
X89670000Y-44690166D01*
X89622380Y-44594928D01*
X89622380Y-44356833D01*
X89670000Y-44261595D01*
X89717619Y-44213976D01*
X89812857Y-44166357D01*
X89908095Y-44166357D01*
X90050952Y-44213976D01*
X90622380Y-44785404D01*
X90622380Y-44166357D01*
X90622380Y-43213976D02*
X90622380Y-43785404D01*
X90622380Y-43499690D02*
X89622380Y-43499690D01*
X89765238Y-43594928D01*
X89860476Y-43690166D01*
X89908095Y-43785404D01*
X82050000Y-45166357D02*
X82002380Y-45261595D01*
X82002380Y-45404452D01*
X82050000Y-45547309D01*
X82145238Y-45642547D01*
X82240476Y-45690166D01*
X82430952Y-45737785D01*
X82573809Y-45737785D01*
X82764285Y-45690166D01*
X82859523Y-45642547D01*
X82954761Y-45547309D01*
X83002380Y-45404452D01*
X83002380Y-45309214D01*
X82954761Y-45166357D01*
X82907142Y-45118738D01*
X82573809Y-45118738D01*
X82573809Y-45309214D01*
X82097619Y-44737785D02*
X82050000Y-44690166D01*
X82002380Y-44594928D01*
X82002380Y-44356833D01*
X82050000Y-44261595D01*
X82097619Y-44213976D01*
X82192857Y-44166357D01*
X82288095Y-44166357D01*
X82430952Y-44213976D01*
X83002380Y-44785404D01*
X83002380Y-44166357D01*
X82097619Y-43785404D02*
X82050000Y-43737785D01*
X82002380Y-43642547D01*
X82002380Y-43404452D01*
X82050000Y-43309214D01*
X82097619Y-43261595D01*
X82192857Y-43213976D01*
X82288095Y-43213976D01*
X82430952Y-43261595D01*
X83002380Y-43833023D01*
X83002380Y-43213976D01*
X77224000Y-45309214D02*
X77176380Y-45404452D01*
X77176380Y-45547309D01*
X77224000Y-45690166D01*
X77319238Y-45785404D01*
X77414476Y-45833023D01*
X77604952Y-45880642D01*
X77747809Y-45880642D01*
X77938285Y-45833023D01*
X78033523Y-45785404D01*
X78128761Y-45690166D01*
X78176380Y-45547309D01*
X78176380Y-45452071D01*
X78128761Y-45309214D01*
X78081142Y-45261595D01*
X77747809Y-45261595D01*
X77747809Y-45452071D01*
X78176380Y-44833023D02*
X77176380Y-44833023D01*
X78176380Y-44261595D01*
X77176380Y-44261595D01*
X78176380Y-43785404D02*
X77176380Y-43785404D01*
X77176380Y-43547309D01*
X77224000Y-43404452D01*
X77319238Y-43309214D01*
X77414476Y-43261595D01*
X77604952Y-43213976D01*
X77747809Y-43213976D01*
X77938285Y-43261595D01*
X78033523Y-43309214D01*
X78128761Y-43404452D01*
X78176380Y-43547309D01*
X78176380Y-43785404D01*
X122642380Y-63581500D02*
X122642380Y-64057690D01*
X123118571Y-64105309D01*
X123070952Y-64057690D01*
X123023333Y-63962452D01*
X123023333Y-63724357D01*
X123070952Y-63629119D01*
X123118571Y-63581500D01*
X123213809Y-63533880D01*
X123451904Y-63533880D01*
X123547142Y-63581500D01*
X123594761Y-63629119D01*
X123642380Y-63724357D01*
X123642380Y-63962452D01*
X123594761Y-64057690D01*
X123547142Y-64105309D01*
X122975714Y-63200547D02*
X123642380Y-62962452D01*
X122975714Y-62724357D01*
X111408595Y-77874761D02*
X111551452Y-77922380D01*
X111789547Y-77922380D01*
X111884785Y-77874761D01*
X111932404Y-77827142D01*
X111980023Y-77731904D01*
X111980023Y-77636666D01*
X111932404Y-77541428D01*
X111884785Y-77493809D01*
X111789547Y-77446190D01*
X111599071Y-77398571D01*
X111503833Y-77350952D01*
X111456214Y-77303333D01*
X111408595Y-77208095D01*
X111408595Y-77112857D01*
X111456214Y-77017619D01*
X111503833Y-76970000D01*
X111599071Y-76922380D01*
X111837166Y-76922380D01*
X111980023Y-76970000D01*
X109138500Y-76922380D02*
X108662309Y-76922380D01*
X108614690Y-77398571D01*
X108662309Y-77350952D01*
X108757547Y-77303333D01*
X108995642Y-77303333D01*
X109090880Y-77350952D01*
X109138500Y-77398571D01*
X109186119Y-77493809D01*
X109186119Y-77731904D01*
X109138500Y-77827142D01*
X109090880Y-77874761D01*
X108995642Y-77922380D01*
X108757547Y-77922380D01*
X108662309Y-77874761D01*
X108614690Y-77827142D01*
X109519452Y-77255714D02*
X109757547Y-77922380D01*
X109995642Y-77255714D01*
X106852404Y-76970000D02*
X106757166Y-76922380D01*
X106614309Y-76922380D01*
X106471452Y-76970000D01*
X106376214Y-77065238D01*
X106328595Y-77160476D01*
X106280976Y-77350952D01*
X106280976Y-77493809D01*
X106328595Y-77684285D01*
X106376214Y-77779523D01*
X106471452Y-77874761D01*
X106614309Y-77922380D01*
X106709547Y-77922380D01*
X106852404Y-77874761D01*
X106900023Y-77827142D01*
X106900023Y-77493809D01*
X106709547Y-77493809D01*
X61364761Y-79954285D02*
X61412380Y-79811428D01*
X61412380Y-79573333D01*
X61364761Y-79478095D01*
X61317142Y-79430476D01*
X61221904Y-79382857D01*
X61126666Y-79382857D01*
X61031428Y-79430476D01*
X60983809Y-79478095D01*
X60936190Y-79573333D01*
X60888571Y-79763809D01*
X60840952Y-79859047D01*
X60793333Y-79906666D01*
X60698095Y-79954285D01*
X60602857Y-79954285D01*
X60507619Y-79906666D01*
X60460000Y-79859047D01*
X60412380Y-79763809D01*
X60412380Y-79525714D01*
X60460000Y-79382857D01*
X61412380Y-78954285D02*
X60412380Y-78954285D01*
X60412380Y-78716190D01*
X60460000Y-78573333D01*
X60555238Y-78478095D01*
X60650476Y-78430476D01*
X60840952Y-78382857D01*
X60983809Y-78382857D01*
X61174285Y-78430476D01*
X61269523Y-78478095D01*
X61364761Y-78573333D01*
X61412380Y-78716190D01*
X61412380Y-78954285D01*
X61126666Y-78001904D02*
X61126666Y-77525714D01*
X61412380Y-78097142D02*
X60412380Y-77763809D01*
X61412380Y-77430476D01*
X62952380Y-79930476D02*
X62952380Y-79311428D01*
X63333333Y-79644761D01*
X63333333Y-79501904D01*
X63380952Y-79406666D01*
X63428571Y-79359047D01*
X63523809Y-79311428D01*
X63761904Y-79311428D01*
X63857142Y-79359047D01*
X63904761Y-79406666D01*
X63952380Y-79501904D01*
X63952380Y-79787619D01*
X63904761Y-79882857D01*
X63857142Y-79930476D01*
X63285714Y-78978095D02*
X63952380Y-78740000D01*
X63285714Y-78501904D01*
X62952380Y-78216190D02*
X62952380Y-77597142D01*
X63333333Y-77930476D01*
X63333333Y-77787619D01*
X63380952Y-77692380D01*
X63428571Y-77644761D01*
X63523809Y-77597142D01*
X63761904Y-77597142D01*
X63857142Y-77644761D01*
X63904761Y-77692380D01*
X63952380Y-77787619D01*
X63952380Y-78073333D01*
X63904761Y-78168571D01*
X63857142Y-78216190D01*
X65540000Y-79501904D02*
X65492380Y-79597142D01*
X65492380Y-79740000D01*
X65540000Y-79882857D01*
X65635238Y-79978095D01*
X65730476Y-80025714D01*
X65920952Y-80073333D01*
X66063809Y-80073333D01*
X66254285Y-80025714D01*
X66349523Y-79978095D01*
X66444761Y-79882857D01*
X66492380Y-79740000D01*
X66492380Y-79644761D01*
X66444761Y-79501904D01*
X66397142Y-79454285D01*
X66063809Y-79454285D01*
X66063809Y-79644761D01*
X66492380Y-79025714D02*
X65492380Y-79025714D01*
X66492380Y-78454285D01*
X65492380Y-78454285D01*
X66492380Y-77978095D02*
X65492380Y-77978095D01*
X65492380Y-77740000D01*
X65540000Y-77597142D01*
X65635238Y-77501904D01*
X65730476Y-77454285D01*
X65920952Y-77406666D01*
X66063809Y-77406666D01*
X66254285Y-77454285D01*
X66349523Y-77501904D01*
X66444761Y-77597142D01*
X66492380Y-77740000D01*
X66492380Y-77978095D01*
X58824761Y-79930476D02*
X58872380Y-79787619D01*
X58872380Y-79549523D01*
X58824761Y-79454285D01*
X58777142Y-79406666D01*
X58681904Y-79359047D01*
X58586666Y-79359047D01*
X58491428Y-79406666D01*
X58443809Y-79454285D01*
X58396190Y-79549523D01*
X58348571Y-79740000D01*
X58300952Y-79835238D01*
X58253333Y-79882857D01*
X58158095Y-79930476D01*
X58062857Y-79930476D01*
X57967619Y-79882857D01*
X57920000Y-79835238D01*
X57872380Y-79740000D01*
X57872380Y-79501904D01*
X57920000Y-79359047D01*
X58777142Y-78359047D02*
X58824761Y-78406666D01*
X58872380Y-78549523D01*
X58872380Y-78644761D01*
X58824761Y-78787619D01*
X58729523Y-78882857D01*
X58634285Y-78930476D01*
X58443809Y-78978095D01*
X58300952Y-78978095D01*
X58110476Y-78930476D01*
X58015238Y-78882857D01*
X57920000Y-78787619D01*
X57872380Y-78644761D01*
X57872380Y-78549523D01*
X57920000Y-78406666D01*
X57967619Y-78359047D01*
X58872380Y-77454285D02*
X58872380Y-77930476D01*
X57872380Y-77930476D01*
X51337785Y-61730000D02*
X51242547Y-61682380D01*
X51099690Y-61682380D01*
X50956833Y-61730000D01*
X50861595Y-61825238D01*
X50813976Y-61920476D01*
X50766357Y-62110952D01*
X50766357Y-62253809D01*
X50813976Y-62444285D01*
X50861595Y-62539523D01*
X50956833Y-62634761D01*
X51099690Y-62682380D01*
X51194928Y-62682380D01*
X51337785Y-62634761D01*
X51385404Y-62587142D01*
X51385404Y-62253809D01*
X51194928Y-62253809D01*
X51813976Y-62682380D02*
X51813976Y-61682380D01*
X52385404Y-62682380D01*
X52385404Y-61682380D01*
X52861595Y-62682380D02*
X52861595Y-61682380D01*
X53099690Y-61682380D01*
X53242547Y-61730000D01*
X53337785Y-61825238D01*
X53385404Y-61920476D01*
X53433023Y-62110952D01*
X53433023Y-62253809D01*
X53385404Y-62444285D01*
X53337785Y-62539523D01*
X53242547Y-62634761D01*
X53099690Y-62682380D01*
X52861595Y-62682380D01*
X50845690Y-59142380D02*
X51464738Y-59142380D01*
X51131404Y-59523333D01*
X51274261Y-59523333D01*
X51369500Y-59570952D01*
X51417119Y-59618571D01*
X51464738Y-59713809D01*
X51464738Y-59951904D01*
X51417119Y-60047142D01*
X51369500Y-60094761D01*
X51274261Y-60142380D01*
X50988547Y-60142380D01*
X50893309Y-60094761D01*
X50845690Y-60047142D01*
X51798071Y-59475714D02*
X52036166Y-60142380D01*
X52274261Y-59475714D01*
X52559976Y-59142380D02*
X53179023Y-59142380D01*
X52845690Y-59523333D01*
X52988547Y-59523333D01*
X53083785Y-59570952D01*
X53131404Y-59618571D01*
X53179023Y-59713809D01*
X53179023Y-59951904D01*
X53131404Y-60047142D01*
X53083785Y-60094761D01*
X52988547Y-60142380D01*
X52702833Y-60142380D01*
X52607595Y-60094761D01*
X52559976Y-60047142D01*
X51353500Y-56602380D02*
X50877309Y-56602380D01*
X50829690Y-57078571D01*
X50877309Y-57030952D01*
X50972547Y-56983333D01*
X51210642Y-56983333D01*
X51305880Y-57030952D01*
X51353500Y-57078571D01*
X51401119Y-57173809D01*
X51401119Y-57411904D01*
X51353500Y-57507142D01*
X51305880Y-57554761D01*
X51210642Y-57602380D01*
X50972547Y-57602380D01*
X50877309Y-57554761D01*
X50829690Y-57507142D01*
X51734452Y-56935714D02*
X51972547Y-57602380D01*
X52210642Y-56935714D01*
D12*
X71290571Y-50311714D02*
X71290571Y-51026000D01*
X69790571Y-51026000D01*
X71147714Y-48954571D02*
X71219142Y-49026000D01*
X71290571Y-49240285D01*
X71290571Y-49383142D01*
X71219142Y-49597428D01*
X71076285Y-49740285D01*
X70933428Y-49811714D01*
X70647714Y-49883142D01*
X70433428Y-49883142D01*
X70147714Y-49811714D01*
X70004857Y-49740285D01*
X69862000Y-49597428D01*
X69790571Y-49383142D01*
X69790571Y-49240285D01*
X69862000Y-49026000D01*
X69933428Y-48954571D01*
X71290571Y-48311714D02*
X69790571Y-48311714D01*
X69790571Y-47954571D01*
X69862000Y-47740285D01*
X70004857Y-47597428D01*
X70147714Y-47526000D01*
X70433428Y-47454571D01*
X70647714Y-47454571D01*
X70933428Y-47526000D01*
X71076285Y-47597428D01*
X71219142Y-47740285D01*
X71290571Y-47954571D01*
X71290571Y-48311714D01*
X58832857Y-96436571D02*
X58332857Y-95722285D01*
X57975714Y-96436571D02*
X57975714Y-94936571D01*
X58547142Y-94936571D01*
X58690000Y-95008000D01*
X58761428Y-95079428D01*
X58832857Y-95222285D01*
X58832857Y-95436571D01*
X58761428Y-95579428D01*
X58690000Y-95650857D01*
X58547142Y-95722285D01*
X57975714Y-95722285D01*
X59261428Y-94936571D02*
X60118571Y-94936571D01*
X59690000Y-96436571D02*
X59690000Y-94936571D01*
X61475714Y-96293714D02*
X61404285Y-96365142D01*
X61190000Y-96436571D01*
X61047142Y-96436571D01*
X60832857Y-96365142D01*
X60690000Y-96222285D01*
X60618571Y-96079428D01*
X60547142Y-95793714D01*
X60547142Y-95579428D01*
X60618571Y-95293714D01*
X60690000Y-95150857D01*
X60832857Y-95008000D01*
X61047142Y-94936571D01*
X61190000Y-94936571D01*
X61404285Y-95008000D01*
X61475714Y-95079428D01*
D10*
X71628000Y-73152000D02*
X71628000Y-112268000D01*
X47752000Y-73152000D02*
X71628000Y-73152000D01*
X47752000Y-112268000D02*
X47752000Y-73152000D01*
X71628000Y-112268000D02*
X47752000Y-112268000D01*
X124968000Y-108966000D02*
X124968000Y-75946000D01*
X99060000Y-108966000D02*
X124968000Y-108966000D01*
X99060000Y-75946000D02*
X99060000Y-108966000D01*
%TO.C,TP2*%
X64399200Y-41437600D02*
X62499200Y-41437600D01*
X62499200Y-41437600D02*
X62499200Y-39537600D01*
X62499200Y-39537600D02*
X64399200Y-39537600D01*
X64399200Y-39537600D02*
X64399200Y-41437600D01*
%TO.C,TP1*%
X66939200Y-41437600D02*
X65039200Y-41437600D01*
X65039200Y-41437600D02*
X65039200Y-39537600D01*
X65039200Y-39537600D02*
X66939200Y-39537600D01*
X66939200Y-39537600D02*
X66939200Y-41437600D01*
%TO.C,R5*%
X69691000Y-44728000D02*
X69691000Y-45058000D01*
X69691000Y-45058000D02*
X63151000Y-45058000D01*
X63151000Y-45058000D02*
X63151000Y-44728000D01*
X69691000Y-42648000D02*
X69691000Y-42318000D01*
X69691000Y-42318000D02*
X63151000Y-42318000D01*
X63151000Y-42318000D02*
X63151000Y-42648000D01*
%TO.C,D1*%
X121701000Y-81607000D02*
X121701000Y-78667000D01*
X121461000Y-81607000D02*
X121461000Y-78667000D01*
X121581000Y-81607000D02*
X121581000Y-78667000D01*
X117041000Y-78667000D02*
X117041000Y-78797000D01*
X122481000Y-78667000D02*
X117041000Y-78667000D01*
X122481000Y-78797000D02*
X122481000Y-78667000D01*
X117041000Y-81607000D02*
X117041000Y-81477000D01*
X122481000Y-81607000D02*
X117041000Y-81607000D01*
X122481000Y-81477000D02*
X122481000Y-81607000D01*
%TO.C,R4*%
X96361000Y-77621000D02*
X96361000Y-77951000D01*
X96361000Y-77951000D02*
X89821000Y-77951000D01*
X89821000Y-77951000D02*
X89821000Y-77621000D01*
X96361000Y-75541000D02*
X96361000Y-75211000D01*
X96361000Y-75211000D02*
X89821000Y-75211000D01*
X89821000Y-75211000D02*
X89821000Y-75541000D01*
%TO.C,R3*%
X84233000Y-71604000D02*
X84233000Y-71274000D01*
X84233000Y-71274000D02*
X90773000Y-71274000D01*
X90773000Y-71274000D02*
X90773000Y-71604000D01*
X84233000Y-73684000D02*
X84233000Y-74014000D01*
X84233000Y-74014000D02*
X90773000Y-74014000D01*
X90773000Y-74014000D02*
X90773000Y-73684000D01*
%TO.C,R2*%
X123031000Y-77748000D02*
X123031000Y-78078000D01*
X123031000Y-78078000D02*
X116491000Y-78078000D01*
X116491000Y-78078000D02*
X116491000Y-77748000D01*
X123031000Y-75668000D02*
X123031000Y-75338000D01*
X123031000Y-75338000D02*
X116491000Y-75338000D01*
X116491000Y-75338000D02*
X116491000Y-75668000D01*
%TO.C,R1*%
X110903000Y-71858000D02*
X110903000Y-71528000D01*
X110903000Y-71528000D02*
X117443000Y-71528000D01*
X117443000Y-71528000D02*
X117443000Y-71858000D01*
X110903000Y-73938000D02*
X110903000Y-74268000D01*
X110903000Y-74268000D02*
X117443000Y-74268000D01*
X117443000Y-74268000D02*
X117443000Y-73938000D01*
%TO.C,C1*%
X45092000Y-50700000D02*
X50332000Y-50700000D01*
X45092000Y-53440000D02*
X50332000Y-53440000D01*
X45092000Y-50700000D02*
X45092000Y-51015000D01*
X45092000Y-53125000D02*
X45092000Y-53440000D01*
X50332000Y-50700000D02*
X50332000Y-51015000D01*
X50332000Y-53125000D02*
X50332000Y-53440000D01*
%TO.C,AD1*%
X44102000Y-42970000D02*
X51402000Y-42970000D01*
X44102000Y-48470000D02*
X51402000Y-48470000D01*
X51402000Y-48470000D02*
X51402000Y-47320000D01*
%TO.C,RE1*%
X110545000Y-91870000D02*
X110545000Y-87870000D01*
X114145000Y-91870000D02*
X110545000Y-91870000D01*
X114145000Y-87870000D02*
X114145000Y-91870000D01*
X110545000Y-87870000D02*
X114145000Y-87870000D01*
X110545000Y-91870000D02*
X114145000Y-87870000D01*
X110545000Y-89870000D02*
X106345000Y-89870000D01*
X118345000Y-89870000D02*
X114145000Y-89870000D01*
X112345000Y-86470000D02*
X108745000Y-86470000D01*
X112345000Y-93270000D02*
X108745000Y-93270000D01*
X108745000Y-93270000D02*
X108745000Y-86470000D01*
X112345000Y-94770000D02*
X114845000Y-99370000D01*
X112345000Y-93270000D02*
X112345000Y-94770000D01*
X118345000Y-89870000D02*
X118345000Y-87370000D01*
X112345000Y-86470000D02*
X112345000Y-85670000D01*
X106345000Y-87370000D02*
X106345000Y-89870000D01*
X116595000Y-97970000D02*
X114095000Y-97970000D01*
X108195000Y-97970000D02*
X110645000Y-97970000D01*
X104595000Y-102220000D02*
X104595000Y-82420000D01*
X120195000Y-102220000D02*
X104595000Y-102220000D01*
X120195000Y-82420000D02*
X120195000Y-102220000D01*
X120195000Y-82420000D02*
X113595000Y-82420000D01*
X111195000Y-82420000D02*
X104595000Y-82420000D01*
%TO.C,TR2*%
X93831000Y-74494000D02*
X97431000Y-74494000D01*
X97469478Y-74482478D02*
G75*
G03*
X95631000Y-70044000I-1838478J1838478D01*
G01*
X93792522Y-74482478D02*
G75*
G02*
X95631000Y-70044000I1838478J1838478D01*
G01*
%TO.C,TR1*%
X120501000Y-74748000D02*
X124101000Y-74748000D01*
X124139478Y-74736478D02*
G75*
G03*
X122301000Y-70298000I-1838478J1838478D01*
G01*
X120462522Y-74736478D02*
G75*
G02*
X122301000Y-70298000I1838478J1838478D01*
G01*
%TO.C,S2*%
X92710000Y-104902000D02*
X77470000Y-104902000D01*
X92710000Y-112522000D02*
X77470000Y-112522000D01*
X92710000Y-106172000D02*
X77470000Y-106172000D01*
X77470000Y-104902000D02*
X77470000Y-112522000D01*
X92710000Y-104902000D02*
X92710000Y-112522000D01*
%TO.C,S1*%
X120142000Y-104902000D02*
X104902000Y-104902000D01*
X120142000Y-112522000D02*
X104902000Y-112522000D01*
X120142000Y-106172000D02*
X104902000Y-106172000D01*
X104902000Y-104902000D02*
X104902000Y-112522000D01*
X120142000Y-104902000D02*
X120142000Y-112522000D01*
%TO.C,RE2*%
X83240000Y-91870000D02*
X83240000Y-87870000D01*
X86840000Y-91870000D02*
X83240000Y-91870000D01*
X86840000Y-87870000D02*
X86840000Y-91870000D01*
X83240000Y-87870000D02*
X86840000Y-87870000D01*
X83240000Y-91870000D02*
X86840000Y-87870000D01*
X83240000Y-89870000D02*
X79040000Y-89870000D01*
X91040000Y-89870000D02*
X86840000Y-89870000D01*
X85040000Y-86470000D02*
X81440000Y-86470000D01*
X85040000Y-93270000D02*
X81440000Y-93270000D01*
X81440000Y-93270000D02*
X81440000Y-86470000D01*
X85040000Y-94770000D02*
X87540000Y-99370000D01*
X85040000Y-93270000D02*
X85040000Y-94770000D01*
X91040000Y-89870000D02*
X91040000Y-87370000D01*
X85040000Y-86470000D02*
X85040000Y-85670000D01*
X79040000Y-87370000D02*
X79040000Y-89870000D01*
X89290000Y-97970000D02*
X86790000Y-97970000D01*
X80890000Y-97970000D02*
X83340000Y-97970000D01*
X77290000Y-102220000D02*
X77290000Y-82420000D01*
X92890000Y-102220000D02*
X77290000Y-102220000D01*
X92890000Y-82420000D02*
X92890000Y-102220000D01*
X92890000Y-82420000D02*
X86290000Y-82420000D01*
X83890000Y-82420000D02*
X77290000Y-82420000D01*
%TO.C,LED2*%
X81316000Y-71564000D02*
X81316000Y-71408000D01*
X81316000Y-73880000D02*
X81316000Y-73724000D01*
X78714870Y-71564163D02*
G75*
G02*
X80796961Y-71564000I1041130J-1079837D01*
G01*
X78714870Y-73723837D02*
G75*
G03*
X80796961Y-73724000I1041130J1079837D01*
G01*
X78083665Y-71565392D02*
G75*
G02*
X81316000Y-71408484I1672335J-1078608D01*
G01*
X78083665Y-73722608D02*
G75*
G03*
X81316000Y-73879516I1672335J1078608D01*
G01*
%TO.C,LED1*%
X107986000Y-71818000D02*
X107986000Y-71662000D01*
X107986000Y-74134000D02*
X107986000Y-73978000D01*
X105384870Y-71818163D02*
G75*
G02*
X107466961Y-71818000I1041130J-1079837D01*
G01*
X105384870Y-73977837D02*
G75*
G03*
X107466961Y-73978000I1041130J1079837D01*
G01*
X104753665Y-71819392D02*
G75*
G02*
X107986000Y-71662484I1672335J-1078608D01*
G01*
X104753665Y-73976608D02*
G75*
G03*
X107986000Y-74133516I1672335J1078608D01*
G01*
%TO.C,D2*%
X95031000Y-81480000D02*
X95031000Y-78540000D01*
X94791000Y-81480000D02*
X94791000Y-78540000D01*
X94911000Y-81480000D02*
X94911000Y-78540000D01*
X90371000Y-78540000D02*
X90371000Y-78670000D01*
X95811000Y-78540000D02*
X90371000Y-78540000D01*
X95811000Y-78670000D02*
X95811000Y-78540000D01*
X90371000Y-81480000D02*
X90371000Y-81350000D01*
X95811000Y-81480000D02*
X90371000Y-81480000D01*
X95811000Y-81350000D02*
X95811000Y-81480000D01*
%TO.C,i2c2*%
X68890000Y-52534000D02*
X68890000Y-51284000D01*
X67640000Y-52534000D02*
X68890000Y-52534000D01*
X56740000Y-47034000D02*
X62290000Y-47034000D01*
X56740000Y-49984000D02*
X56740000Y-47034000D01*
X55990000Y-49984000D02*
X56740000Y-49984000D01*
X62290000Y-47034000D02*
X66780000Y-47034000D01*
X67840000Y-49984000D02*
X67840000Y-48644000D01*
X68590000Y-49984000D02*
X67840000Y-49984000D01*
X55990000Y-52234000D02*
X57790000Y-52234000D01*
X55990000Y-51484000D02*
X55990000Y-52234000D01*
X57790000Y-51484000D02*
X55990000Y-51484000D01*
X57790000Y-52234000D02*
X57790000Y-51484000D01*
X66790000Y-52234000D02*
X68590000Y-52234000D01*
X66790000Y-51484000D02*
X66790000Y-52234000D01*
X68590000Y-51484000D02*
X66790000Y-51484000D01*
X68590000Y-52234000D02*
X68590000Y-51484000D01*
X59290000Y-52234000D02*
X65290000Y-52234000D01*
X59290000Y-51484000D02*
X59290000Y-52234000D01*
X65290000Y-51484000D02*
X59290000Y-51484000D01*
X65290000Y-52234000D02*
X65290000Y-51484000D01*
X55980000Y-52244000D02*
X68600000Y-52244000D01*
X55980000Y-46274000D02*
X55980000Y-52244000D01*
X68600000Y-46274000D02*
X55980000Y-46274000D01*
X68600000Y-52244000D02*
X68600000Y-46274000D01*
%TO.C,relay2*%
X78934000Y-81340000D02*
X78934000Y-80010000D01*
X80264000Y-81340000D02*
X78934000Y-81340000D01*
X81534000Y-81340000D02*
X81534000Y-78680000D01*
X81534000Y-78680000D02*
X86674000Y-78680000D01*
X81534000Y-81340000D02*
X86674000Y-81340000D01*
X86674000Y-81340000D02*
X86674000Y-78680000D01*
%TO.C,HT1*%
X115650000Y-36215000D02*
X121620000Y-36215000D01*
X121620000Y-36215000D02*
X121620000Y-26095000D01*
X121620000Y-26095000D02*
X115650000Y-26095000D01*
X115650000Y-26095000D02*
X115650000Y-36215000D01*
X115660000Y-32905000D02*
X116410000Y-32905000D01*
X116410000Y-32905000D02*
X116410000Y-29405000D01*
X116410000Y-29405000D02*
X115660000Y-29405000D01*
X115660000Y-29405000D02*
X115660000Y-32905000D01*
X115660000Y-36205000D02*
X116410000Y-36205000D01*
X116410000Y-36205000D02*
X116410000Y-34405000D01*
X116410000Y-34405000D02*
X115660000Y-34405000D01*
X115660000Y-34405000D02*
X115660000Y-36205000D01*
X115660000Y-27905000D02*
X116410000Y-27905000D01*
X116410000Y-27905000D02*
X116410000Y-26105000D01*
X116410000Y-26105000D02*
X115660000Y-26105000D01*
X115660000Y-26105000D02*
X115660000Y-27905000D01*
X117910000Y-36205000D02*
X117910000Y-35455000D01*
X117910000Y-35455000D02*
X119250000Y-35455000D01*
X120860000Y-31155000D02*
X120860000Y-34395000D01*
X117910000Y-26105000D02*
X117910000Y-26855000D01*
X117910000Y-26855000D02*
X120860000Y-26855000D01*
X120860000Y-26855000D02*
X120860000Y-31155000D01*
X115360000Y-35255000D02*
X115360000Y-36505000D01*
X115360000Y-36505000D02*
X116610000Y-36505000D01*
%TO.C,HT2*%
X106125000Y-36215000D02*
X112095000Y-36215000D01*
X112095000Y-36215000D02*
X112095000Y-26095000D01*
X112095000Y-26095000D02*
X106125000Y-26095000D01*
X106125000Y-26095000D02*
X106125000Y-36215000D01*
X106135000Y-32905000D02*
X106885000Y-32905000D01*
X106885000Y-32905000D02*
X106885000Y-29405000D01*
X106885000Y-29405000D02*
X106135000Y-29405000D01*
X106135000Y-29405000D02*
X106135000Y-32905000D01*
X106135000Y-36205000D02*
X106885000Y-36205000D01*
X106885000Y-36205000D02*
X106885000Y-34405000D01*
X106885000Y-34405000D02*
X106135000Y-34405000D01*
X106135000Y-34405000D02*
X106135000Y-36205000D01*
X106135000Y-27905000D02*
X106885000Y-27905000D01*
X106885000Y-27905000D02*
X106885000Y-26105000D01*
X106885000Y-26105000D02*
X106135000Y-26105000D01*
X106135000Y-26105000D02*
X106135000Y-27905000D01*
X108385000Y-36205000D02*
X108385000Y-35455000D01*
X108385000Y-35455000D02*
X109725000Y-35455000D01*
X111335000Y-31155000D02*
X111335000Y-34395000D01*
X108385000Y-26105000D02*
X108385000Y-26855000D01*
X108385000Y-26855000D02*
X111335000Y-26855000D01*
X111335000Y-26855000D02*
X111335000Y-31155000D01*
X105835000Y-35255000D02*
X105835000Y-36505000D01*
X105835000Y-36505000D02*
X107085000Y-36505000D01*
%TO.C,HT6*%
X68025000Y-36215000D02*
X73995000Y-36215000D01*
X73995000Y-36215000D02*
X73995000Y-26095000D01*
X73995000Y-26095000D02*
X68025000Y-26095000D01*
X68025000Y-26095000D02*
X68025000Y-36215000D01*
X68035000Y-32905000D02*
X68785000Y-32905000D01*
X68785000Y-32905000D02*
X68785000Y-29405000D01*
X68785000Y-29405000D02*
X68035000Y-29405000D01*
X68035000Y-29405000D02*
X68035000Y-32905000D01*
X68035000Y-36205000D02*
X68785000Y-36205000D01*
X68785000Y-36205000D02*
X68785000Y-34405000D01*
X68785000Y-34405000D02*
X68035000Y-34405000D01*
X68035000Y-34405000D02*
X68035000Y-36205000D01*
X68035000Y-27905000D02*
X68785000Y-27905000D01*
X68785000Y-27905000D02*
X68785000Y-26105000D01*
X68785000Y-26105000D02*
X68035000Y-26105000D01*
X68035000Y-26105000D02*
X68035000Y-27905000D01*
X70285000Y-36205000D02*
X70285000Y-35455000D01*
X70285000Y-35455000D02*
X71625000Y-35455000D01*
X73235000Y-31155000D02*
X73235000Y-34395000D01*
X70285000Y-26105000D02*
X70285000Y-26855000D01*
X70285000Y-26855000D02*
X73235000Y-26855000D01*
X73235000Y-26855000D02*
X73235000Y-31155000D01*
X67735000Y-35255000D02*
X67735000Y-36505000D01*
X67735000Y-36505000D02*
X68985000Y-36505000D01*
%TO.C,HT5*%
X77550000Y-36215000D02*
X83520000Y-36215000D01*
X83520000Y-36215000D02*
X83520000Y-26095000D01*
X83520000Y-26095000D02*
X77550000Y-26095000D01*
X77550000Y-26095000D02*
X77550000Y-36215000D01*
X77560000Y-32905000D02*
X78310000Y-32905000D01*
X78310000Y-32905000D02*
X78310000Y-29405000D01*
X78310000Y-29405000D02*
X77560000Y-29405000D01*
X77560000Y-29405000D02*
X77560000Y-32905000D01*
X77560000Y-36205000D02*
X78310000Y-36205000D01*
X78310000Y-36205000D02*
X78310000Y-34405000D01*
X78310000Y-34405000D02*
X77560000Y-34405000D01*
X77560000Y-34405000D02*
X77560000Y-36205000D01*
X77560000Y-27905000D02*
X78310000Y-27905000D01*
X78310000Y-27905000D02*
X78310000Y-26105000D01*
X78310000Y-26105000D02*
X77560000Y-26105000D01*
X77560000Y-26105000D02*
X77560000Y-27905000D01*
X79810000Y-36205000D02*
X79810000Y-35455000D01*
X79810000Y-35455000D02*
X81150000Y-35455000D01*
X82760000Y-31155000D02*
X82760000Y-34395000D01*
X79810000Y-26105000D02*
X79810000Y-26855000D01*
X79810000Y-26855000D02*
X82760000Y-26855000D01*
X82760000Y-26855000D02*
X82760000Y-31155000D01*
X77260000Y-35255000D02*
X77260000Y-36505000D01*
X77260000Y-36505000D02*
X78510000Y-36505000D01*
%TO.C,HT4*%
X87075000Y-36215000D02*
X93045000Y-36215000D01*
X93045000Y-36215000D02*
X93045000Y-26095000D01*
X93045000Y-26095000D02*
X87075000Y-26095000D01*
X87075000Y-26095000D02*
X87075000Y-36215000D01*
X87085000Y-32905000D02*
X87835000Y-32905000D01*
X87835000Y-32905000D02*
X87835000Y-29405000D01*
X87835000Y-29405000D02*
X87085000Y-29405000D01*
X87085000Y-29405000D02*
X87085000Y-32905000D01*
X87085000Y-36205000D02*
X87835000Y-36205000D01*
X87835000Y-36205000D02*
X87835000Y-34405000D01*
X87835000Y-34405000D02*
X87085000Y-34405000D01*
X87085000Y-34405000D02*
X87085000Y-36205000D01*
X87085000Y-27905000D02*
X87835000Y-27905000D01*
X87835000Y-27905000D02*
X87835000Y-26105000D01*
X87835000Y-26105000D02*
X87085000Y-26105000D01*
X87085000Y-26105000D02*
X87085000Y-27905000D01*
X89335000Y-36205000D02*
X89335000Y-35455000D01*
X89335000Y-35455000D02*
X90675000Y-35455000D01*
X92285000Y-31155000D02*
X92285000Y-34395000D01*
X89335000Y-26105000D02*
X89335000Y-26855000D01*
X89335000Y-26855000D02*
X92285000Y-26855000D01*
X92285000Y-26855000D02*
X92285000Y-31155000D01*
X86785000Y-35255000D02*
X86785000Y-36505000D01*
X86785000Y-36505000D02*
X88035000Y-36505000D01*
%TO.C,HT3*%
X96600000Y-36215000D02*
X102570000Y-36215000D01*
X102570000Y-36215000D02*
X102570000Y-26095000D01*
X102570000Y-26095000D02*
X96600000Y-26095000D01*
X96600000Y-26095000D02*
X96600000Y-36215000D01*
X96610000Y-32905000D02*
X97360000Y-32905000D01*
X97360000Y-32905000D02*
X97360000Y-29405000D01*
X97360000Y-29405000D02*
X96610000Y-29405000D01*
X96610000Y-29405000D02*
X96610000Y-32905000D01*
X96610000Y-36205000D02*
X97360000Y-36205000D01*
X97360000Y-36205000D02*
X97360000Y-34405000D01*
X97360000Y-34405000D02*
X96610000Y-34405000D01*
X96610000Y-34405000D02*
X96610000Y-36205000D01*
X96610000Y-27905000D02*
X97360000Y-27905000D01*
X97360000Y-27905000D02*
X97360000Y-26105000D01*
X97360000Y-26105000D02*
X96610000Y-26105000D01*
X96610000Y-26105000D02*
X96610000Y-27905000D01*
X98860000Y-36205000D02*
X98860000Y-35455000D01*
X98860000Y-35455000D02*
X100200000Y-35455000D01*
X101810000Y-31155000D02*
X101810000Y-34395000D01*
X98860000Y-26105000D02*
X98860000Y-26855000D01*
X98860000Y-26855000D02*
X101810000Y-26855000D01*
X101810000Y-26855000D02*
X101810000Y-31155000D01*
X96310000Y-35255000D02*
X96310000Y-36505000D01*
X96310000Y-36505000D02*
X97560000Y-36505000D01*
%TO.C,esp32-left1*%
X76140000Y-39564000D02*
X76140000Y-42224000D01*
X121920000Y-39564000D02*
X76140000Y-39564000D01*
X121920000Y-42224000D02*
X76140000Y-42224000D01*
X121920000Y-39564000D02*
X121920000Y-42224000D01*
X123190000Y-39564000D02*
X124520000Y-39564000D01*
X124520000Y-39564000D02*
X124520000Y-40894000D01*
%TO.C,relay1*%
X105350000Y-81340000D02*
X105350000Y-80010000D01*
X106680000Y-81340000D02*
X105350000Y-81340000D01*
X107950000Y-81340000D02*
X107950000Y-78680000D01*
X107950000Y-78680000D02*
X113090000Y-78680000D01*
X107950000Y-81340000D02*
X113090000Y-81340000D01*
X113090000Y-81340000D02*
X113090000Y-78680000D01*
D14*
%TO.C,G\u002A\u002A\u002A*%
G36*
X56764426Y-23952879D02*
G01*
X58242200Y-23953559D01*
X58657545Y-24098141D01*
X59143231Y-24318428D01*
X59577182Y-24618222D01*
X59949438Y-24986671D01*
X60250040Y-25412925D01*
X60469029Y-25886133D01*
X60550674Y-26160805D01*
X60584685Y-26376477D01*
X60603191Y-26652108D01*
X60605995Y-26949216D01*
X60592902Y-27229316D01*
X60563718Y-27453926D01*
X60557387Y-27482800D01*
X60531349Y-27604010D01*
X60534737Y-27640070D01*
X60569953Y-27603771D01*
X60578065Y-27592962D01*
X60620151Y-27515718D01*
X60663665Y-27389028D01*
X60713128Y-27196966D01*
X60773063Y-26923604D01*
X60786444Y-26859042D01*
X60854843Y-26748407D01*
X60988018Y-26659368D01*
X61149210Y-26609900D01*
X61287520Y-26613988D01*
X61410122Y-26684620D01*
X61520325Y-26813729D01*
X61524825Y-26821205D01*
X61673022Y-26984798D01*
X61804749Y-27053161D01*
X61978671Y-27155797D01*
X62083579Y-27312116D01*
X62107098Y-27497013D01*
X62078304Y-27608098D01*
X62009581Y-27733468D01*
X61912113Y-27812690D01*
X61756585Y-27864866D01*
X61651542Y-27886120D01*
X61536329Y-27920776D01*
X61419822Y-27991127D01*
X61280897Y-28112700D01*
X61123429Y-28274273D01*
X60770478Y-28592535D01*
X60398366Y-28817379D01*
X60013402Y-28945198D01*
X59922443Y-28960669D01*
X59639732Y-29047259D01*
X59445777Y-29168490D01*
X58999737Y-29447689D01*
X58514391Y-29633607D01*
X58004116Y-29725821D01*
X57658000Y-29757989D01*
X57658000Y-32681700D01*
X59956700Y-32701994D01*
X60524087Y-32707122D01*
X61000416Y-32712410D01*
X61396224Y-32719046D01*
X61722048Y-32728216D01*
X61988424Y-32741106D01*
X62205889Y-32758902D01*
X62384980Y-32782791D01*
X62536233Y-32813959D01*
X62670186Y-32853592D01*
X62797375Y-32902876D01*
X62928337Y-32962998D01*
X63073608Y-33035144D01*
X63119000Y-33058022D01*
X63383779Y-33224915D01*
X63664502Y-33457867D01*
X63935139Y-33730410D01*
X64169663Y-34016079D01*
X64342043Y-34288407D01*
X64355600Y-34315400D01*
X64539016Y-34791959D01*
X64640179Y-35289530D01*
X64656228Y-35785184D01*
X64593216Y-36220400D01*
X64554141Y-36386854D01*
X64526763Y-36512276D01*
X64517809Y-36563300D01*
X64564797Y-36577397D01*
X64694764Y-36589253D01*
X64889092Y-36597791D01*
X65129168Y-36601933D01*
X65189100Y-36602150D01*
X65565110Y-36610647D01*
X65891911Y-36634048D01*
X66146016Y-36670533D01*
X66187161Y-36679501D01*
X66662798Y-36842081D01*
X67107481Y-37091759D01*
X67507477Y-37415503D01*
X67849052Y-37800282D01*
X68118471Y-38233064D01*
X68296224Y-38680720D01*
X68351995Y-38965331D01*
X68378025Y-39309355D01*
X68375064Y-39676345D01*
X68343860Y-40029853D01*
X68285162Y-40333429D01*
X68260606Y-40414337D01*
X68045448Y-40898646D01*
X67752193Y-41333235D01*
X67392047Y-41707468D01*
X66976218Y-42010706D01*
X66515913Y-42232311D01*
X66261267Y-42312122D01*
X66217345Y-42321574D01*
X66159186Y-42330258D01*
X66082629Y-42338202D01*
X65983517Y-42345436D01*
X65857690Y-42351990D01*
X65700990Y-42357894D01*
X65509257Y-42363177D01*
X65278334Y-42367869D01*
X65004061Y-42372000D01*
X64682279Y-42375598D01*
X64308830Y-42378694D01*
X63879555Y-42381318D01*
X63390295Y-42383498D01*
X62836891Y-42385264D01*
X62215184Y-42386647D01*
X61521016Y-42387675D01*
X60750228Y-42388379D01*
X59898660Y-42388787D01*
X58962155Y-42388930D01*
X57936553Y-42388837D01*
X56817696Y-42388537D01*
X55601424Y-42388061D01*
X55593267Y-42388057D01*
X54335764Y-42387388D01*
X53176290Y-42386512D01*
X52111275Y-42385406D01*
X51137147Y-42384047D01*
X50250336Y-42382412D01*
X49447270Y-42380477D01*
X48724380Y-42378219D01*
X48078094Y-42375615D01*
X47504841Y-42372641D01*
X47001051Y-42369275D01*
X46563153Y-42365493D01*
X46187576Y-42361272D01*
X45870749Y-42356589D01*
X45609102Y-42351420D01*
X45399064Y-42345742D01*
X45237063Y-42339532D01*
X45119529Y-42332767D01*
X45042892Y-42325423D01*
X45008800Y-42319164D01*
X44521050Y-42132324D01*
X44072037Y-41862960D01*
X43675012Y-41523275D01*
X43343226Y-41125475D01*
X43089932Y-40681765D01*
X43006836Y-40475341D01*
X42932042Y-40193413D01*
X42880460Y-39859445D01*
X42864956Y-39632714D01*
X43712108Y-39632714D01*
X43781355Y-40044780D01*
X43935920Y-40433357D01*
X44167688Y-40785001D01*
X44468548Y-41086268D01*
X44830385Y-41323716D01*
X45076305Y-41431017D01*
X45109503Y-41442068D01*
X45148119Y-41452216D01*
X45196361Y-41461497D01*
X45258438Y-41469942D01*
X45338557Y-41477586D01*
X45440929Y-41484460D01*
X45569760Y-41490599D01*
X45729260Y-41496036D01*
X45923637Y-41500803D01*
X46157099Y-41504933D01*
X46433854Y-41508461D01*
X46758112Y-41511419D01*
X47134081Y-41513840D01*
X47565968Y-41515757D01*
X48057984Y-41517204D01*
X48614335Y-41518213D01*
X49239230Y-41518818D01*
X49936879Y-41519053D01*
X50711488Y-41518949D01*
X51567268Y-41518541D01*
X52508425Y-41517861D01*
X53539170Y-41516942D01*
X54663709Y-41515819D01*
X55702200Y-41514721D01*
X66065400Y-41503600D01*
X66355877Y-41367453D01*
X66731378Y-41138858D01*
X67045463Y-40841122D01*
X67290367Y-40488782D01*
X67458323Y-40096380D01*
X67541568Y-39678453D01*
X67532334Y-39249541D01*
X67522237Y-39183662D01*
X67398179Y-38736230D01*
X67190586Y-38345777D01*
X66902114Y-38015878D01*
X66535417Y-37750109D01*
X66407755Y-37682035D01*
X66242592Y-37602385D01*
X66109629Y-37547931D01*
X65981814Y-37513183D01*
X65832090Y-37492652D01*
X65633405Y-37480850D01*
X65376252Y-37472767D01*
X64732357Y-37455135D01*
X64700381Y-37625167D01*
X64601176Y-37936908D01*
X64427197Y-38264702D01*
X64197057Y-38584583D01*
X63929368Y-38872584D01*
X63642743Y-39104740D01*
X63473170Y-39205367D01*
X62998800Y-39392547D01*
X62509659Y-39485638D01*
X62019092Y-39484652D01*
X61540445Y-39389602D01*
X61092120Y-39203228D01*
X60767527Y-38980370D01*
X60463065Y-38682042D01*
X60199264Y-38334375D01*
X59996659Y-37963498D01*
X59895897Y-37680900D01*
X59863337Y-37558458D01*
X60762596Y-37558458D01*
X60813257Y-37679217D01*
X60900673Y-37832130D01*
X61010525Y-37994397D01*
X61128492Y-38143216D01*
X61240257Y-38255786D01*
X61244437Y-38259246D01*
X61527318Y-38454810D01*
X61814604Y-38570952D01*
X62138141Y-38617926D01*
X62357000Y-38617431D01*
X62638096Y-38592987D01*
X62851991Y-38542834D01*
X62981589Y-38487570D01*
X63309571Y-38269565D01*
X63577208Y-37992031D01*
X63727072Y-37753815D01*
X63858358Y-37490400D01*
X62325268Y-37476943D01*
X61940618Y-37474506D01*
X61589393Y-37474082D01*
X61284288Y-37475542D01*
X61037997Y-37478759D01*
X60863215Y-37483606D01*
X60772638Y-37489954D01*
X60763010Y-37492656D01*
X60762596Y-37558458D01*
X59863337Y-37558458D01*
X59838483Y-37465000D01*
X58076461Y-37465000D01*
X58017331Y-37699825D01*
X57861415Y-38118108D01*
X57618855Y-38505037D01*
X57303048Y-38846997D01*
X56927391Y-39130375D01*
X56505279Y-39341555D01*
X56348213Y-39396149D01*
X55908513Y-39483040D01*
X55443781Y-39487805D01*
X54983378Y-39413342D01*
X54556669Y-39262552D01*
X54450386Y-39208771D01*
X54084070Y-38956799D01*
X53756599Y-38629646D01*
X53487131Y-38251045D01*
X53294824Y-37844733D01*
X53258132Y-37731700D01*
X53188452Y-37492656D01*
X54108210Y-37492656D01*
X54108637Y-37557463D01*
X54158928Y-37677969D01*
X54244880Y-37831017D01*
X54352292Y-37993452D01*
X54466958Y-38142119D01*
X54574678Y-38253861D01*
X54575585Y-38254639D01*
X54863715Y-38455175D01*
X55173940Y-38574012D01*
X55529918Y-38618762D01*
X55702200Y-38617153D01*
X55982364Y-38593065D01*
X56195470Y-38543442D01*
X56326789Y-38487570D01*
X56654771Y-38269565D01*
X56922408Y-37992031D01*
X57072272Y-37753815D01*
X57203558Y-37490400D01*
X55670468Y-37476943D01*
X55285818Y-37474506D01*
X54934593Y-37474082D01*
X54629488Y-37475542D01*
X54383197Y-37478759D01*
X54208415Y-37483606D01*
X54117838Y-37489954D01*
X54108210Y-37492656D01*
X53188452Y-37492656D01*
X53180390Y-37465000D01*
X51430508Y-37465000D01*
X51341329Y-37754610D01*
X51152740Y-38202944D01*
X50885245Y-38598747D01*
X50550506Y-38933335D01*
X50160182Y-39198023D01*
X49725931Y-39384129D01*
X49259415Y-39482967D01*
X49001921Y-39497000D01*
X48491613Y-39449630D01*
X48020614Y-39311251D01*
X47596761Y-39087454D01*
X47227890Y-38783831D01*
X46921838Y-38405976D01*
X46686441Y-37959479D01*
X46627050Y-37802243D01*
X46519665Y-37490400D01*
X47402170Y-37490400D01*
X47527498Y-37744400D01*
X47715728Y-38029720D01*
X47972033Y-38284284D01*
X48264289Y-38478374D01*
X48375989Y-38529262D01*
X48651203Y-38600702D01*
X48967182Y-38624244D01*
X49285483Y-38601125D01*
X49567662Y-38532581D01*
X49671989Y-38487570D01*
X50000002Y-38269538D01*
X50267681Y-37991952D01*
X50417514Y-37753815D01*
X50548843Y-37490400D01*
X49760021Y-37476410D01*
X49395992Y-37472111D01*
X48981312Y-37470639D01*
X48566021Y-37471993D01*
X48200160Y-37476173D01*
X48186685Y-37476410D01*
X47402170Y-37490400D01*
X46519665Y-37490400D01*
X46507400Y-37454783D01*
X45868063Y-37474200D01*
X45595774Y-37484068D01*
X45398503Y-37497692D01*
X45249674Y-37520134D01*
X45122715Y-37556456D01*
X44991050Y-37611720D01*
X44889541Y-37660598D01*
X44495627Y-37908206D01*
X44175083Y-38224319D01*
X43932745Y-38602438D01*
X43773447Y-39036066D01*
X43736290Y-39210602D01*
X43712108Y-39632714D01*
X42864956Y-39632714D01*
X42857344Y-39521399D01*
X42867946Y-39227233D01*
X42869080Y-39217600D01*
X42884866Y-39032505D01*
X42872007Y-38891899D01*
X42821765Y-38745967D01*
X42765136Y-38625098D01*
X42682204Y-38432218D01*
X42593571Y-38188998D01*
X42516770Y-37944006D01*
X42508388Y-37913898D01*
X42475638Y-37788837D01*
X42449704Y-37670988D01*
X42429796Y-37546701D01*
X42415123Y-37402326D01*
X42404894Y-37224212D01*
X42398318Y-36998710D01*
X42394604Y-36712168D01*
X42392962Y-36350937D01*
X42392600Y-35915600D01*
X42392600Y-35190590D01*
X43238779Y-35190590D01*
X43239473Y-35612739D01*
X43246055Y-36095702D01*
X43256156Y-36579249D01*
X43267638Y-36968741D01*
X43281055Y-37271720D01*
X43296961Y-37495727D01*
X43315912Y-37648305D01*
X43338462Y-37736995D01*
X43365167Y-37769338D01*
X43369223Y-37769800D01*
X43414244Y-37736210D01*
X43510499Y-37647386D01*
X43638713Y-37521247D01*
X43663029Y-37496643D01*
X43851622Y-37323709D01*
X44070869Y-37149530D01*
X44241728Y-37032222D01*
X44551599Y-36840958D01*
X44551410Y-35692479D01*
X44550702Y-35317499D01*
X44548006Y-35029939D01*
X44542247Y-34815622D01*
X44532354Y-34660374D01*
X44517254Y-34550019D01*
X44495875Y-34470379D01*
X44467143Y-34407280D01*
X44452235Y-34381660D01*
X44300328Y-34191309D01*
X44121026Y-34090961D01*
X43891438Y-34069120D01*
X43837916Y-34073118D01*
X43585960Y-34136230D01*
X43403526Y-34272516D01*
X43286188Y-34485478D01*
X43275819Y-34517860D01*
X43256972Y-34642105D01*
X43244619Y-34866697D01*
X43238779Y-35190590D01*
X42392600Y-35190590D01*
X42392600Y-34340800D01*
X42535152Y-34050506D01*
X42750502Y-33718499D01*
X43028470Y-33462884D01*
X43359301Y-33289796D01*
X43733238Y-33205371D01*
X43891199Y-33197800D01*
X44277254Y-33246213D01*
X44629654Y-33386349D01*
X44935879Y-33610553D01*
X45183404Y-33911170D01*
X45252126Y-34029733D01*
X45296169Y-34116089D01*
X45329808Y-34195935D01*
X45354689Y-34284400D01*
X45372460Y-34396611D01*
X45384768Y-34547696D01*
X45393259Y-34752783D01*
X45399580Y-35026998D01*
X45405379Y-35385471D01*
X45406280Y-35445700D01*
X45423515Y-36601400D01*
X46747844Y-36601400D01*
X46718057Y-36461700D01*
X46694522Y-36339702D01*
X46662298Y-36158228D01*
X46630867Y-35971653D01*
X46610532Y-35629576D01*
X47463745Y-35629576D01*
X47499921Y-35993984D01*
X47594060Y-36342415D01*
X47621375Y-36410900D01*
X47702563Y-36601400D01*
X63548190Y-36601400D01*
X63618878Y-36461700D01*
X63740454Y-36119109D01*
X63790407Y-35730340D01*
X63768222Y-35321782D01*
X63673384Y-34919824D01*
X63650260Y-34854742D01*
X63498986Y-34563206D01*
X63275730Y-34275980D01*
X63007253Y-34021299D01*
X62720315Y-33827400D01*
X62638194Y-33786894D01*
X62304948Y-33667545D01*
X61939445Y-33585773D01*
X61596778Y-33553767D01*
X61584258Y-33553694D01*
X61479474Y-33563236D01*
X61419485Y-33610529D01*
X61376397Y-33722834D01*
X61363653Y-33769300D01*
X61230719Y-34125753D01*
X61029889Y-34485277D01*
X60785348Y-34808003D01*
X60648353Y-34948585D01*
X60257109Y-35247029D01*
X59833552Y-35456637D01*
X59389637Y-35579555D01*
X58937322Y-35617925D01*
X58488561Y-35573892D01*
X58055309Y-35449600D01*
X57649524Y-35247193D01*
X57283160Y-34968815D01*
X56968172Y-34616611D01*
X56743479Y-34248309D01*
X56657237Y-34055663D01*
X56589046Y-33867073D01*
X56558099Y-33745289D01*
X56527415Y-33553400D01*
X57397153Y-33553400D01*
X57431251Y-33667700D01*
X57578883Y-33994417D01*
X57802739Y-34272047D01*
X58086490Y-34493407D01*
X58413805Y-34651315D01*
X58768354Y-34738589D01*
X59133807Y-34748046D01*
X59493833Y-34672506D01*
X59611358Y-34626513D01*
X59861130Y-34479728D01*
X60101359Y-34275576D01*
X60299401Y-34045008D01*
X60396694Y-33881836D01*
X60458815Y-33739893D01*
X60497010Y-33633763D01*
X60502800Y-33604753D01*
X60452398Y-33588453D01*
X60302706Y-33575164D01*
X60055988Y-33564959D01*
X59714511Y-33557915D01*
X59280541Y-33554105D01*
X58949976Y-33553400D01*
X57397153Y-33553400D01*
X56527415Y-33553400D01*
X56527048Y-33551110D01*
X55634254Y-33564955D01*
X54741461Y-33578800D01*
X54701881Y-33769507D01*
X54576224Y-34144239D01*
X54365099Y-34508988D01*
X54084391Y-34846691D01*
X53749986Y-35140287D01*
X53377769Y-35372714D01*
X53098768Y-35491412D01*
X52750650Y-35574652D01*
X52361109Y-35608761D01*
X51968837Y-35593689D01*
X51612526Y-35529388D01*
X51498564Y-35493476D01*
X51045031Y-35277622D01*
X50648609Y-34983600D01*
X50318960Y-34621462D01*
X50065749Y-34201257D01*
X49936217Y-33868477D01*
X49881410Y-33713957D01*
X49817674Y-33615771D01*
X49799860Y-33606223D01*
X50749200Y-33606223D01*
X50770780Y-33680674D01*
X50825103Y-33805880D01*
X50853000Y-33862512D01*
X51076587Y-34197131D01*
X51361956Y-34459520D01*
X51695206Y-34643378D01*
X52062437Y-34742403D01*
X52449747Y-34750294D01*
X52707343Y-34703127D01*
X52940757Y-34631153D01*
X53120266Y-34545288D01*
X53292541Y-34420170D01*
X53399240Y-34327130D01*
X53520659Y-34195733D01*
X53644410Y-34027389D01*
X53752238Y-33851432D01*
X53825893Y-33697200D01*
X53848000Y-33605888D01*
X53797240Y-33588623D01*
X53645005Y-33574786D01*
X53391363Y-33564382D01*
X53036382Y-33557412D01*
X52580128Y-33553878D01*
X52298600Y-33553400D01*
X51791354Y-33555078D01*
X51385063Y-33560126D01*
X51079138Y-33568564D01*
X50872988Y-33580411D01*
X50766025Y-33595689D01*
X50749200Y-33606223D01*
X49799860Y-33606223D01*
X49724635Y-33565906D01*
X49581919Y-33556347D01*
X49369150Y-33579082D01*
X49247039Y-33597415D01*
X48796178Y-33715851D01*
X48396618Y-33918511D01*
X48056268Y-34197754D01*
X47783033Y-34545940D01*
X47584821Y-34955425D01*
X47490848Y-35294654D01*
X47463745Y-35629576D01*
X46610532Y-35629576D01*
X46602482Y-35494170D01*
X46666821Y-35013839D01*
X46816466Y-34544967D01*
X47043999Y-34101863D01*
X47342002Y-33698833D01*
X47703059Y-33350184D01*
X48119751Y-33070224D01*
X48141080Y-33058730D01*
X48318586Y-32967937D01*
X48483561Y-32895102D01*
X48650410Y-32838009D01*
X48833537Y-32794444D01*
X49047346Y-32762192D01*
X49306243Y-32739040D01*
X49624633Y-32722773D01*
X50016919Y-32711177D01*
X50457100Y-32702703D01*
X51866800Y-32679261D01*
X51866800Y-32614741D01*
X52730400Y-32614741D01*
X52743830Y-32637255D01*
X52791155Y-32655186D01*
X52882931Y-32669210D01*
X53029709Y-32680003D01*
X53242044Y-32688238D01*
X53530490Y-32694592D01*
X53905600Y-32699740D01*
X54089300Y-32701683D01*
X54752719Y-32706558D01*
X55326297Y-32707133D01*
X55808226Y-32703451D01*
X56196701Y-32695557D01*
X56489917Y-32683493D01*
X56686067Y-32667304D01*
X56783346Y-32647034D01*
X56794400Y-32636175D01*
X56746592Y-32616503D01*
X56615068Y-32600987D01*
X56417674Y-32591094D01*
X56210200Y-32588200D01*
X55626000Y-32588200D01*
X55626000Y-31724600D01*
X56794400Y-31724600D01*
X56794400Y-31419800D01*
X55626000Y-31419800D01*
X55626000Y-30556200D01*
X56794400Y-30556200D01*
X56794400Y-30251400D01*
X55626000Y-30251400D01*
X55626000Y-29387800D01*
X56786327Y-29387800D01*
X56818643Y-29240667D01*
X56861090Y-29109049D01*
X56932185Y-29015073D01*
X57048301Y-28951352D01*
X57225815Y-28910497D01*
X57481102Y-28885120D01*
X57625095Y-28876813D01*
X57984865Y-28846896D01*
X58278572Y-28797971D01*
X58497254Y-28732654D01*
X58631952Y-28653562D01*
X58674000Y-28570488D01*
X58718204Y-28371710D01*
X58847462Y-28224283D01*
X59056743Y-28132577D01*
X59207400Y-28107153D01*
X59294272Y-28087248D01*
X59365338Y-28033409D01*
X59439549Y-27925093D01*
X59525623Y-27762200D01*
X59691428Y-27338334D01*
X59758725Y-26918193D01*
X59736216Y-26530792D01*
X59619223Y-26103133D01*
X59413946Y-25710961D01*
X59131671Y-25369545D01*
X58783682Y-25094154D01*
X58597800Y-24990479D01*
X58293000Y-24841200D01*
X56825764Y-24825597D01*
X56396471Y-24821443D01*
X56054908Y-24819615D01*
X55787217Y-24820821D01*
X55579543Y-24825769D01*
X55418028Y-24835169D01*
X55288814Y-24849728D01*
X55178045Y-24870156D01*
X55071864Y-24897161D01*
X54996964Y-24919114D01*
X54552009Y-25082445D01*
X54169187Y-25292097D01*
X53813289Y-25569170D01*
X53644294Y-25729694D01*
X53328033Y-26084703D01*
X53091259Y-26446493D01*
X52915057Y-26847142D01*
X52835597Y-27101140D01*
X52772478Y-27338004D01*
X52740886Y-27495892D01*
X52742680Y-27593004D01*
X52779720Y-27647536D01*
X52853865Y-27677686D01*
X52895500Y-27687242D01*
X53229457Y-27799475D01*
X53573351Y-27988723D01*
X53903093Y-28236266D01*
X54194593Y-28523387D01*
X54423763Y-28831365D01*
X54468628Y-28909674D01*
X54656159Y-29361905D01*
X54749753Y-29833025D01*
X54751427Y-30308974D01*
X54663197Y-30775693D01*
X54487082Y-31219120D01*
X54225097Y-31625197D01*
X54050867Y-31821737D01*
X53752411Y-32077130D01*
X53409758Y-32293713D01*
X53060525Y-32448934D01*
X52946300Y-32483902D01*
X52805378Y-32537182D01*
X52734441Y-32597996D01*
X52730400Y-32614741D01*
X51866800Y-32614741D01*
X51866800Y-30072918D01*
X52730400Y-30072918D01*
X52732077Y-30580279D01*
X52737122Y-30986686D01*
X52745556Y-31292731D01*
X52757398Y-31499003D01*
X52772668Y-31606096D01*
X52783223Y-31623000D01*
X52857686Y-31601419D01*
X52982876Y-31547103D01*
X53039331Y-31519292D01*
X53353489Y-31307689D01*
X53594558Y-31040471D01*
X53763136Y-30731974D01*
X53859817Y-30396535D01*
X53885195Y-30048492D01*
X53839868Y-29702181D01*
X53724430Y-29371940D01*
X53539475Y-29072104D01*
X53285601Y-28817012D01*
X52963401Y-28621001D01*
X52918165Y-28601290D01*
X52730400Y-28522836D01*
X52730400Y-30072918D01*
X51866800Y-30072918D01*
X51866800Y-30071651D01*
X51867178Y-29445019D01*
X51868800Y-28910391D01*
X51872392Y-28458169D01*
X51878680Y-28078759D01*
X51888394Y-27762564D01*
X51902259Y-27499988D01*
X51921003Y-27281437D01*
X51945353Y-27097314D01*
X51976037Y-26938023D01*
X52013782Y-26793968D01*
X52059315Y-26655555D01*
X52113363Y-26513186D01*
X52141873Y-26442278D01*
X52425921Y-25874513D01*
X52789344Y-25365800D01*
X53224443Y-24922839D01*
X53723519Y-24552331D01*
X54278874Y-24260977D01*
X54882808Y-24055479D01*
X54884826Y-24054962D01*
X55012596Y-24024623D01*
X55140440Y-24000855D01*
X55282618Y-23982884D01*
X55453396Y-23969934D01*
X55667035Y-23961232D01*
X55937800Y-23956002D01*
X56279954Y-23953469D01*
X56707759Y-23952860D01*
X56764426Y-23952879D01*
G37*
X56764426Y-23952879D02*
X58242200Y-23953559D01*
X58657545Y-24098141D01*
X59143231Y-24318428D01*
X59577182Y-24618222D01*
X59949438Y-24986671D01*
X60250040Y-25412925D01*
X60469029Y-25886133D01*
X60550674Y-26160805D01*
X60584685Y-26376477D01*
X60603191Y-26652108D01*
X60605995Y-26949216D01*
X60592902Y-27229316D01*
X60563718Y-27453926D01*
X60557387Y-27482800D01*
X60531349Y-27604010D01*
X60534737Y-27640070D01*
X60569953Y-27603771D01*
X60578065Y-27592962D01*
X60620151Y-27515718D01*
X60663665Y-27389028D01*
X60713128Y-27196966D01*
X60773063Y-26923604D01*
X60786444Y-26859042D01*
X60854843Y-26748407D01*
X60988018Y-26659368D01*
X61149210Y-26609900D01*
X61287520Y-26613988D01*
X61410122Y-26684620D01*
X61520325Y-26813729D01*
X61524825Y-26821205D01*
X61673022Y-26984798D01*
X61804749Y-27053161D01*
X61978671Y-27155797D01*
X62083579Y-27312116D01*
X62107098Y-27497013D01*
X62078304Y-27608098D01*
X62009581Y-27733468D01*
X61912113Y-27812690D01*
X61756585Y-27864866D01*
X61651542Y-27886120D01*
X61536329Y-27920776D01*
X61419822Y-27991127D01*
X61280897Y-28112700D01*
X61123429Y-28274273D01*
X60770478Y-28592535D01*
X60398366Y-28817379D01*
X60013402Y-28945198D01*
X59922443Y-28960669D01*
X59639732Y-29047259D01*
X59445777Y-29168490D01*
X58999737Y-29447689D01*
X58514391Y-29633607D01*
X58004116Y-29725821D01*
X57658000Y-29757989D01*
X57658000Y-32681700D01*
X59956700Y-32701994D01*
X60524087Y-32707122D01*
X61000416Y-32712410D01*
X61396224Y-32719046D01*
X61722048Y-32728216D01*
X61988424Y-32741106D01*
X62205889Y-32758902D01*
X62384980Y-32782791D01*
X62536233Y-32813959D01*
X62670186Y-32853592D01*
X62797375Y-32902876D01*
X62928337Y-32962998D01*
X63073608Y-33035144D01*
X63119000Y-33058022D01*
X63383779Y-33224915D01*
X63664502Y-33457867D01*
X63935139Y-33730410D01*
X64169663Y-34016079D01*
X64342043Y-34288407D01*
X64355600Y-34315400D01*
X64539016Y-34791959D01*
X64640179Y-35289530D01*
X64656228Y-35785184D01*
X64593216Y-36220400D01*
X64554141Y-36386854D01*
X64526763Y-36512276D01*
X64517809Y-36563300D01*
X64564797Y-36577397D01*
X64694764Y-36589253D01*
X64889092Y-36597791D01*
X65129168Y-36601933D01*
X65189100Y-36602150D01*
X65565110Y-36610647D01*
X65891911Y-36634048D01*
X66146016Y-36670533D01*
X66187161Y-36679501D01*
X66662798Y-36842081D01*
X67107481Y-37091759D01*
X67507477Y-37415503D01*
X67849052Y-37800282D01*
X68118471Y-38233064D01*
X68296224Y-38680720D01*
X68351995Y-38965331D01*
X68378025Y-39309355D01*
X68375064Y-39676345D01*
X68343860Y-40029853D01*
X68285162Y-40333429D01*
X68260606Y-40414337D01*
X68045448Y-40898646D01*
X67752193Y-41333235D01*
X67392047Y-41707468D01*
X66976218Y-42010706D01*
X66515913Y-42232311D01*
X66261267Y-42312122D01*
X66217345Y-42321574D01*
X66159186Y-42330258D01*
X66082629Y-42338202D01*
X65983517Y-42345436D01*
X65857690Y-42351990D01*
X65700990Y-42357894D01*
X65509257Y-42363177D01*
X65278334Y-42367869D01*
X65004061Y-42372000D01*
X64682279Y-42375598D01*
X64308830Y-42378694D01*
X63879555Y-42381318D01*
X63390295Y-42383498D01*
X62836891Y-42385264D01*
X62215184Y-42386647D01*
X61521016Y-42387675D01*
X60750228Y-42388379D01*
X59898660Y-42388787D01*
X58962155Y-42388930D01*
X57936553Y-42388837D01*
X56817696Y-42388537D01*
X55601424Y-42388061D01*
X55593267Y-42388057D01*
X54335764Y-42387388D01*
X53176290Y-42386512D01*
X52111275Y-42385406D01*
X51137147Y-42384047D01*
X50250336Y-42382412D01*
X49447270Y-42380477D01*
X48724380Y-42378219D01*
X48078094Y-42375615D01*
X47504841Y-42372641D01*
X47001051Y-42369275D01*
X46563153Y-42365493D01*
X46187576Y-42361272D01*
X45870749Y-42356589D01*
X45609102Y-42351420D01*
X45399064Y-42345742D01*
X45237063Y-42339532D01*
X45119529Y-42332767D01*
X45042892Y-42325423D01*
X45008800Y-42319164D01*
X44521050Y-42132324D01*
X44072037Y-41862960D01*
X43675012Y-41523275D01*
X43343226Y-41125475D01*
X43089932Y-40681765D01*
X43006836Y-40475341D01*
X42932042Y-40193413D01*
X42880460Y-39859445D01*
X42864956Y-39632714D01*
X43712108Y-39632714D01*
X43781355Y-40044780D01*
X43935920Y-40433357D01*
X44167688Y-40785001D01*
X44468548Y-41086268D01*
X44830385Y-41323716D01*
X45076305Y-41431017D01*
X45109503Y-41442068D01*
X45148119Y-41452216D01*
X45196361Y-41461497D01*
X45258438Y-41469942D01*
X45338557Y-41477586D01*
X45440929Y-41484460D01*
X45569760Y-41490599D01*
X45729260Y-41496036D01*
X45923637Y-41500803D01*
X46157099Y-41504933D01*
X46433854Y-41508461D01*
X46758112Y-41511419D01*
X47134081Y-41513840D01*
X47565968Y-41515757D01*
X48057984Y-41517204D01*
X48614335Y-41518213D01*
X49239230Y-41518818D01*
X49936879Y-41519053D01*
X50711488Y-41518949D01*
X51567268Y-41518541D01*
X52508425Y-41517861D01*
X53539170Y-41516942D01*
X54663709Y-41515819D01*
X55702200Y-41514721D01*
X66065400Y-41503600D01*
X66355877Y-41367453D01*
X66731378Y-41138858D01*
X67045463Y-40841122D01*
X67290367Y-40488782D01*
X67458323Y-40096380D01*
X67541568Y-39678453D01*
X67532334Y-39249541D01*
X67522237Y-39183662D01*
X67398179Y-38736230D01*
X67190586Y-38345777D01*
X66902114Y-38015878D01*
X66535417Y-37750109D01*
X66407755Y-37682035D01*
X66242592Y-37602385D01*
X66109629Y-37547931D01*
X65981814Y-37513183D01*
X65832090Y-37492652D01*
X65633405Y-37480850D01*
X65376252Y-37472767D01*
X64732357Y-37455135D01*
X64700381Y-37625167D01*
X64601176Y-37936908D01*
X64427197Y-38264702D01*
X64197057Y-38584583D01*
X63929368Y-38872584D01*
X63642743Y-39104740D01*
X63473170Y-39205367D01*
X62998800Y-39392547D01*
X62509659Y-39485638D01*
X62019092Y-39484652D01*
X61540445Y-39389602D01*
X61092120Y-39203228D01*
X60767527Y-38980370D01*
X60463065Y-38682042D01*
X60199264Y-38334375D01*
X59996659Y-37963498D01*
X59895897Y-37680900D01*
X59863337Y-37558458D01*
X60762596Y-37558458D01*
X60813257Y-37679217D01*
X60900673Y-37832130D01*
X61010525Y-37994397D01*
X61128492Y-38143216D01*
X61240257Y-38255786D01*
X61244437Y-38259246D01*
X61527318Y-38454810D01*
X61814604Y-38570952D01*
X62138141Y-38617926D01*
X62357000Y-38617431D01*
X62638096Y-38592987D01*
X62851991Y-38542834D01*
X62981589Y-38487570D01*
X63309571Y-38269565D01*
X63577208Y-37992031D01*
X63727072Y-37753815D01*
X63858358Y-37490400D01*
X62325268Y-37476943D01*
X61940618Y-37474506D01*
X61589393Y-37474082D01*
X61284288Y-37475542D01*
X61037997Y-37478759D01*
X60863215Y-37483606D01*
X60772638Y-37489954D01*
X60763010Y-37492656D01*
X60762596Y-37558458D01*
X59863337Y-37558458D01*
X59838483Y-37465000D01*
X58076461Y-37465000D01*
X58017331Y-37699825D01*
X57861415Y-38118108D01*
X57618855Y-38505037D01*
X57303048Y-38846997D01*
X56927391Y-39130375D01*
X56505279Y-39341555D01*
X56348213Y-39396149D01*
X55908513Y-39483040D01*
X55443781Y-39487805D01*
X54983378Y-39413342D01*
X54556669Y-39262552D01*
X54450386Y-39208771D01*
X54084070Y-38956799D01*
X53756599Y-38629646D01*
X53487131Y-38251045D01*
X53294824Y-37844733D01*
X53258132Y-37731700D01*
X53188452Y-37492656D01*
X54108210Y-37492656D01*
X54108637Y-37557463D01*
X54158928Y-37677969D01*
X54244880Y-37831017D01*
X54352292Y-37993452D01*
X54466958Y-38142119D01*
X54574678Y-38253861D01*
X54575585Y-38254639D01*
X54863715Y-38455175D01*
X55173940Y-38574012D01*
X55529918Y-38618762D01*
X55702200Y-38617153D01*
X55982364Y-38593065D01*
X56195470Y-38543442D01*
X56326789Y-38487570D01*
X56654771Y-38269565D01*
X56922408Y-37992031D01*
X57072272Y-37753815D01*
X57203558Y-37490400D01*
X55670468Y-37476943D01*
X55285818Y-37474506D01*
X54934593Y-37474082D01*
X54629488Y-37475542D01*
X54383197Y-37478759D01*
X54208415Y-37483606D01*
X54117838Y-37489954D01*
X54108210Y-37492656D01*
X53188452Y-37492656D01*
X53180390Y-37465000D01*
X51430508Y-37465000D01*
X51341329Y-37754610D01*
X51152740Y-38202944D01*
X50885245Y-38598747D01*
X50550506Y-38933335D01*
X50160182Y-39198023D01*
X49725931Y-39384129D01*
X49259415Y-39482967D01*
X49001921Y-39497000D01*
X48491613Y-39449630D01*
X48020614Y-39311251D01*
X47596761Y-39087454D01*
X47227890Y-38783831D01*
X46921838Y-38405976D01*
X46686441Y-37959479D01*
X46627050Y-37802243D01*
X46519665Y-37490400D01*
X47402170Y-37490400D01*
X47527498Y-37744400D01*
X47715728Y-38029720D01*
X47972033Y-38284284D01*
X48264289Y-38478374D01*
X48375989Y-38529262D01*
X48651203Y-38600702D01*
X48967182Y-38624244D01*
X49285483Y-38601125D01*
X49567662Y-38532581D01*
X49671989Y-38487570D01*
X50000002Y-38269538D01*
X50267681Y-37991952D01*
X50417514Y-37753815D01*
X50548843Y-37490400D01*
X49760021Y-37476410D01*
X49395992Y-37472111D01*
X48981312Y-37470639D01*
X48566021Y-37471993D01*
X48200160Y-37476173D01*
X48186685Y-37476410D01*
X47402170Y-37490400D01*
X46519665Y-37490400D01*
X46507400Y-37454783D01*
X45868063Y-37474200D01*
X45595774Y-37484068D01*
X45398503Y-37497692D01*
X45249674Y-37520134D01*
X45122715Y-37556456D01*
X44991050Y-37611720D01*
X44889541Y-37660598D01*
X44495627Y-37908206D01*
X44175083Y-38224319D01*
X43932745Y-38602438D01*
X43773447Y-39036066D01*
X43736290Y-39210602D01*
X43712108Y-39632714D01*
X42864956Y-39632714D01*
X42857344Y-39521399D01*
X42867946Y-39227233D01*
X42869080Y-39217600D01*
X42884866Y-39032505D01*
X42872007Y-38891899D01*
X42821765Y-38745967D01*
X42765136Y-38625098D01*
X42682204Y-38432218D01*
X42593571Y-38188998D01*
X42516770Y-37944006D01*
X42508388Y-37913898D01*
X42475638Y-37788837D01*
X42449704Y-37670988D01*
X42429796Y-37546701D01*
X42415123Y-37402326D01*
X42404894Y-37224212D01*
X42398318Y-36998710D01*
X42394604Y-36712168D01*
X42392962Y-36350937D01*
X42392600Y-35915600D01*
X42392600Y-35190590D01*
X43238779Y-35190590D01*
X43239473Y-35612739D01*
X43246055Y-36095702D01*
X43256156Y-36579249D01*
X43267638Y-36968741D01*
X43281055Y-37271720D01*
X43296961Y-37495727D01*
X43315912Y-37648305D01*
X43338462Y-37736995D01*
X43365167Y-37769338D01*
X43369223Y-37769800D01*
X43414244Y-37736210D01*
X43510499Y-37647386D01*
X43638713Y-37521247D01*
X43663029Y-37496643D01*
X43851622Y-37323709D01*
X44070869Y-37149530D01*
X44241728Y-37032222D01*
X44551599Y-36840958D01*
X44551410Y-35692479D01*
X44550702Y-35317499D01*
X44548006Y-35029939D01*
X44542247Y-34815622D01*
X44532354Y-34660374D01*
X44517254Y-34550019D01*
X44495875Y-34470379D01*
X44467143Y-34407280D01*
X44452235Y-34381660D01*
X44300328Y-34191309D01*
X44121026Y-34090961D01*
X43891438Y-34069120D01*
X43837916Y-34073118D01*
X43585960Y-34136230D01*
X43403526Y-34272516D01*
X43286188Y-34485478D01*
X43275819Y-34517860D01*
X43256972Y-34642105D01*
X43244619Y-34866697D01*
X43238779Y-35190590D01*
X42392600Y-35190590D01*
X42392600Y-34340800D01*
X42535152Y-34050506D01*
X42750502Y-33718499D01*
X43028470Y-33462884D01*
X43359301Y-33289796D01*
X43733238Y-33205371D01*
X43891199Y-33197800D01*
X44277254Y-33246213D01*
X44629654Y-33386349D01*
X44935879Y-33610553D01*
X45183404Y-33911170D01*
X45252126Y-34029733D01*
X45296169Y-34116089D01*
X45329808Y-34195935D01*
X45354689Y-34284400D01*
X45372460Y-34396611D01*
X45384768Y-34547696D01*
X45393259Y-34752783D01*
X45399580Y-35026998D01*
X45405379Y-35385471D01*
X45406280Y-35445700D01*
X45423515Y-36601400D01*
X46747844Y-36601400D01*
X46718057Y-36461700D01*
X46694522Y-36339702D01*
X46662298Y-36158228D01*
X46630867Y-35971653D01*
X46610532Y-35629576D01*
X47463745Y-35629576D01*
X47499921Y-35993984D01*
X47594060Y-36342415D01*
X47621375Y-36410900D01*
X47702563Y-36601400D01*
X63548190Y-36601400D01*
X63618878Y-36461700D01*
X63740454Y-36119109D01*
X63790407Y-35730340D01*
X63768222Y-35321782D01*
X63673384Y-34919824D01*
X63650260Y-34854742D01*
X63498986Y-34563206D01*
X63275730Y-34275980D01*
X63007253Y-34021299D01*
X62720315Y-33827400D01*
X62638194Y-33786894D01*
X62304948Y-33667545D01*
X61939445Y-33585773D01*
X61596778Y-33553767D01*
X61584258Y-33553694D01*
X61479474Y-33563236D01*
X61419485Y-33610529D01*
X61376397Y-33722834D01*
X61363653Y-33769300D01*
X61230719Y-34125753D01*
X61029889Y-34485277D01*
X60785348Y-34808003D01*
X60648353Y-34948585D01*
X60257109Y-35247029D01*
X59833552Y-35456637D01*
X59389637Y-35579555D01*
X58937322Y-35617925D01*
X58488561Y-35573892D01*
X58055309Y-35449600D01*
X57649524Y-35247193D01*
X57283160Y-34968815D01*
X56968172Y-34616611D01*
X56743479Y-34248309D01*
X56657237Y-34055663D01*
X56589046Y-33867073D01*
X56558099Y-33745289D01*
X56527415Y-33553400D01*
X57397153Y-33553400D01*
X57431251Y-33667700D01*
X57578883Y-33994417D01*
X57802739Y-34272047D01*
X58086490Y-34493407D01*
X58413805Y-34651315D01*
X58768354Y-34738589D01*
X59133807Y-34748046D01*
X59493833Y-34672506D01*
X59611358Y-34626513D01*
X59861130Y-34479728D01*
X60101359Y-34275576D01*
X60299401Y-34045008D01*
X60396694Y-33881836D01*
X60458815Y-33739893D01*
X60497010Y-33633763D01*
X60502800Y-33604753D01*
X60452398Y-33588453D01*
X60302706Y-33575164D01*
X60055988Y-33564959D01*
X59714511Y-33557915D01*
X59280541Y-33554105D01*
X58949976Y-33553400D01*
X57397153Y-33553400D01*
X56527415Y-33553400D01*
X56527048Y-33551110D01*
X55634254Y-33564955D01*
X54741461Y-33578800D01*
X54701881Y-33769507D01*
X54576224Y-34144239D01*
X54365099Y-34508988D01*
X54084391Y-34846691D01*
X53749986Y-35140287D01*
X53377769Y-35372714D01*
X53098768Y-35491412D01*
X52750650Y-35574652D01*
X52361109Y-35608761D01*
X51968837Y-35593689D01*
X51612526Y-35529388D01*
X51498564Y-35493476D01*
X51045031Y-35277622D01*
X50648609Y-34983600D01*
X50318960Y-34621462D01*
X50065749Y-34201257D01*
X49936217Y-33868477D01*
X49881410Y-33713957D01*
X49817674Y-33615771D01*
X49799860Y-33606223D01*
X50749200Y-33606223D01*
X50770780Y-33680674D01*
X50825103Y-33805880D01*
X50853000Y-33862512D01*
X51076587Y-34197131D01*
X51361956Y-34459520D01*
X51695206Y-34643378D01*
X52062437Y-34742403D01*
X52449747Y-34750294D01*
X52707343Y-34703127D01*
X52940757Y-34631153D01*
X53120266Y-34545288D01*
X53292541Y-34420170D01*
X53399240Y-34327130D01*
X53520659Y-34195733D01*
X53644410Y-34027389D01*
X53752238Y-33851432D01*
X53825893Y-33697200D01*
X53848000Y-33605888D01*
X53797240Y-33588623D01*
X53645005Y-33574786D01*
X53391363Y-33564382D01*
X53036382Y-33557412D01*
X52580128Y-33553878D01*
X52298600Y-33553400D01*
X51791354Y-33555078D01*
X51385063Y-33560126D01*
X51079138Y-33568564D01*
X50872988Y-33580411D01*
X50766025Y-33595689D01*
X50749200Y-33606223D01*
X49799860Y-33606223D01*
X49724635Y-33565906D01*
X49581919Y-33556347D01*
X49369150Y-33579082D01*
X49247039Y-33597415D01*
X48796178Y-33715851D01*
X48396618Y-33918511D01*
X48056268Y-34197754D01*
X47783033Y-34545940D01*
X47584821Y-34955425D01*
X47490848Y-35294654D01*
X47463745Y-35629576D01*
X46610532Y-35629576D01*
X46602482Y-35494170D01*
X46666821Y-35013839D01*
X46816466Y-34544967D01*
X47043999Y-34101863D01*
X47342002Y-33698833D01*
X47703059Y-33350184D01*
X48119751Y-33070224D01*
X48141080Y-33058730D01*
X48318586Y-32967937D01*
X48483561Y-32895102D01*
X48650410Y-32838009D01*
X48833537Y-32794444D01*
X49047346Y-32762192D01*
X49306243Y-32739040D01*
X49624633Y-32722773D01*
X50016919Y-32711177D01*
X50457100Y-32702703D01*
X51866800Y-32679261D01*
X51866800Y-32614741D01*
X52730400Y-32614741D01*
X52743830Y-32637255D01*
X52791155Y-32655186D01*
X52882931Y-32669210D01*
X53029709Y-32680003D01*
X53242044Y-32688238D01*
X53530490Y-32694592D01*
X53905600Y-32699740D01*
X54089300Y-32701683D01*
X54752719Y-32706558D01*
X55326297Y-32707133D01*
X55808226Y-32703451D01*
X56196701Y-32695557D01*
X56489917Y-32683493D01*
X56686067Y-32667304D01*
X56783346Y-32647034D01*
X56794400Y-32636175D01*
X56746592Y-32616503D01*
X56615068Y-32600987D01*
X56417674Y-32591094D01*
X56210200Y-32588200D01*
X55626000Y-32588200D01*
X55626000Y-31724600D01*
X56794400Y-31724600D01*
X56794400Y-31419800D01*
X55626000Y-31419800D01*
X55626000Y-30556200D01*
X56794400Y-30556200D01*
X56794400Y-30251400D01*
X55626000Y-30251400D01*
X55626000Y-29387800D01*
X56786327Y-29387800D01*
X56818643Y-29240667D01*
X56861090Y-29109049D01*
X56932185Y-29015073D01*
X57048301Y-28951352D01*
X57225815Y-28910497D01*
X57481102Y-28885120D01*
X57625095Y-28876813D01*
X57984865Y-28846896D01*
X58278572Y-28797971D01*
X58497254Y-28732654D01*
X58631952Y-28653562D01*
X58674000Y-28570488D01*
X58718204Y-28371710D01*
X58847462Y-28224283D01*
X59056743Y-28132577D01*
X59207400Y-28107153D01*
X59294272Y-28087248D01*
X59365338Y-28033409D01*
X59439549Y-27925093D01*
X59525623Y-27762200D01*
X59691428Y-27338334D01*
X59758725Y-26918193D01*
X59736216Y-26530792D01*
X59619223Y-26103133D01*
X59413946Y-25710961D01*
X59131671Y-25369545D01*
X58783682Y-25094154D01*
X58597800Y-24990479D01*
X58293000Y-24841200D01*
X56825764Y-24825597D01*
X56396471Y-24821443D01*
X56054908Y-24819615D01*
X55787217Y-24820821D01*
X55579543Y-24825769D01*
X55418028Y-24835169D01*
X55288814Y-24849728D01*
X55178045Y-24870156D01*
X55071864Y-24897161D01*
X54996964Y-24919114D01*
X54552009Y-25082445D01*
X54169187Y-25292097D01*
X53813289Y-25569170D01*
X53644294Y-25729694D01*
X53328033Y-26084703D01*
X53091259Y-26446493D01*
X52915057Y-26847142D01*
X52835597Y-27101140D01*
X52772478Y-27338004D01*
X52740886Y-27495892D01*
X52742680Y-27593004D01*
X52779720Y-27647536D01*
X52853865Y-27677686D01*
X52895500Y-27687242D01*
X53229457Y-27799475D01*
X53573351Y-27988723D01*
X53903093Y-28236266D01*
X54194593Y-28523387D01*
X54423763Y-28831365D01*
X54468628Y-28909674D01*
X54656159Y-29361905D01*
X54749753Y-29833025D01*
X54751427Y-30308974D01*
X54663197Y-30775693D01*
X54487082Y-31219120D01*
X54225097Y-31625197D01*
X54050867Y-31821737D01*
X53752411Y-32077130D01*
X53409758Y-32293713D01*
X53060525Y-32448934D01*
X52946300Y-32483902D01*
X52805378Y-32537182D01*
X52734441Y-32597996D01*
X52730400Y-32614741D01*
X51866800Y-32614741D01*
X51866800Y-30072918D01*
X52730400Y-30072918D01*
X52732077Y-30580279D01*
X52737122Y-30986686D01*
X52745556Y-31292731D01*
X52757398Y-31499003D01*
X52772668Y-31606096D01*
X52783223Y-31623000D01*
X52857686Y-31601419D01*
X52982876Y-31547103D01*
X53039331Y-31519292D01*
X53353489Y-31307689D01*
X53594558Y-31040471D01*
X53763136Y-30731974D01*
X53859817Y-30396535D01*
X53885195Y-30048492D01*
X53839868Y-29702181D01*
X53724430Y-29371940D01*
X53539475Y-29072104D01*
X53285601Y-28817012D01*
X52963401Y-28621001D01*
X52918165Y-28601290D01*
X52730400Y-28522836D01*
X52730400Y-30072918D01*
X51866800Y-30072918D01*
X51866800Y-30071651D01*
X51867178Y-29445019D01*
X51868800Y-28910391D01*
X51872392Y-28458169D01*
X51878680Y-28078759D01*
X51888394Y-27762564D01*
X51902259Y-27499988D01*
X51921003Y-27281437D01*
X51945353Y-27097314D01*
X51976037Y-26938023D01*
X52013782Y-26793968D01*
X52059315Y-26655555D01*
X52113363Y-26513186D01*
X52141873Y-26442278D01*
X52425921Y-25874513D01*
X52789344Y-25365800D01*
X53224443Y-24922839D01*
X53723519Y-24552331D01*
X54278874Y-24260977D01*
X54882808Y-24055479D01*
X54884826Y-24054962D01*
X55012596Y-24024623D01*
X55140440Y-24000855D01*
X55282618Y-23982884D01*
X55453396Y-23969934D01*
X55667035Y-23961232D01*
X55937800Y-23956002D01*
X56279954Y-23953469D01*
X56707759Y-23952860D01*
X56764426Y-23952879D01*
G36*
X56419782Y-26384296D02*
G01*
X56542233Y-26495836D01*
X56624247Y-26641497D01*
X56642000Y-26739736D01*
X56622688Y-26925396D01*
X56553216Y-27047486D01*
X56435166Y-27129078D01*
X56282474Y-27191200D01*
X56160405Y-27189076D01*
X56057800Y-27144739D01*
X55901305Y-27007611D01*
X55828594Y-26823809D01*
X55846361Y-26612839D01*
X55860756Y-26570675D01*
X55936961Y-26480707D01*
X56071188Y-26398435D01*
X56221019Y-26346878D01*
X56286186Y-26339800D01*
X56419782Y-26384296D01*
G37*
X56419782Y-26384296D02*
X56542233Y-26495836D01*
X56624247Y-26641497D01*
X56642000Y-26739736D01*
X56622688Y-26925396D01*
X56553216Y-27047486D01*
X56435166Y-27129078D01*
X56282474Y-27191200D01*
X56160405Y-27189076D01*
X56057800Y-27144739D01*
X55901305Y-27007611D01*
X55828594Y-26823809D01*
X55846361Y-26612839D01*
X55860756Y-26570675D01*
X55936961Y-26480707D01*
X56071188Y-26398435D01*
X56221019Y-26346878D01*
X56286186Y-26339800D01*
X56419782Y-26384296D01*
D10*
%TO.C,i2c4*%
X67370000Y-60646000D02*
X67370000Y-61976000D01*
X66040000Y-60646000D02*
X67370000Y-60646000D01*
X64770000Y-60646000D02*
X64770000Y-63306000D01*
X64770000Y-63306000D02*
X57090000Y-63306000D01*
X64770000Y-60646000D02*
X57090000Y-60646000D01*
X57090000Y-60646000D02*
X57090000Y-63306000D01*
%TO.C,rxtx1*%
X59055000Y-41716000D02*
X59055000Y-39056000D01*
X59055000Y-41716000D02*
X61655000Y-41716000D01*
X61655000Y-41716000D02*
X61655000Y-39056000D01*
X59055000Y-39056000D02*
X61655000Y-39056000D01*
X56455000Y-39056000D02*
X57785000Y-39056000D01*
X56455000Y-40386000D02*
X56455000Y-39056000D01*
%TO.C,i2c3*%
X57090000Y-55820000D02*
X57090000Y-58480000D01*
X64770000Y-55820000D02*
X57090000Y-55820000D01*
X64770000Y-58480000D02*
X57090000Y-58480000D01*
X64770000Y-55820000D02*
X64770000Y-58480000D01*
X66040000Y-55820000D02*
X67370000Y-55820000D01*
X67370000Y-55820000D02*
X67370000Y-57150000D01*
%TO.C,ExternalPower1*%
X49590000Y-55820000D02*
X46930000Y-55820000D01*
X49590000Y-60960000D02*
X49590000Y-55820000D01*
X46930000Y-60960000D02*
X46930000Y-55820000D01*
X49590000Y-60960000D02*
X46930000Y-60960000D01*
X49590000Y-62230000D02*
X49590000Y-63560000D01*
X49590000Y-63560000D02*
X48260000Y-63560000D01*
%TO.C,i2c1*%
X57090000Y-73600000D02*
X57090000Y-76260000D01*
X64770000Y-73600000D02*
X57090000Y-73600000D01*
X64770000Y-76260000D02*
X57090000Y-76260000D01*
X64770000Y-73600000D02*
X64770000Y-76260000D01*
X66040000Y-73600000D02*
X67370000Y-73600000D01*
X67370000Y-73600000D02*
X67370000Y-74930000D01*
%TO.C,esp32-right1*%
X76140000Y-64964000D02*
X76140000Y-67624000D01*
X121920000Y-64964000D02*
X76140000Y-64964000D01*
X121920000Y-67624000D02*
X76140000Y-67624000D01*
X121920000Y-64964000D02*
X121920000Y-67624000D01*
X123190000Y-64964000D02*
X124520000Y-64964000D01*
X124520000Y-64964000D02*
X124520000Y-66294000D01*
%TD*%
%TO.C,R5*%
D13*
X66254333Y-44140380D02*
X65921000Y-43664190D01*
X65682904Y-44140380D02*
X65682904Y-43140380D01*
X66063857Y-43140380D01*
X66159095Y-43188000D01*
X66206714Y-43235619D01*
X66254333Y-43330857D01*
X66254333Y-43473714D01*
X66206714Y-43568952D01*
X66159095Y-43616571D01*
X66063857Y-43664190D01*
X65682904Y-43664190D01*
X67159095Y-43140380D02*
X66682904Y-43140380D01*
X66635285Y-43616571D01*
X66682904Y-43568952D01*
X66778142Y-43521333D01*
X67016238Y-43521333D01*
X67111476Y-43568952D01*
X67159095Y-43616571D01*
X67206714Y-43711809D01*
X67206714Y-43949904D01*
X67159095Y-44045142D01*
X67111476Y-44092761D01*
X67016238Y-44140380D01*
X66778142Y-44140380D01*
X66682904Y-44092761D01*
X66635285Y-44045142D01*
%TO.C,D1*%
X118768904Y-80589380D02*
X118768904Y-79589380D01*
X119007000Y-79589380D01*
X119149857Y-79637000D01*
X119245095Y-79732238D01*
X119292714Y-79827476D01*
X119340333Y-80017952D01*
X119340333Y-80160809D01*
X119292714Y-80351285D01*
X119245095Y-80446523D01*
X119149857Y-80541761D01*
X119007000Y-80589380D01*
X118768904Y-80589380D01*
X120292714Y-80589380D02*
X119721285Y-80589380D01*
X120007000Y-80589380D02*
X120007000Y-79589380D01*
X119911761Y-79732238D01*
X119816523Y-79827476D01*
X119721285Y-79875095D01*
%TO.C,R4*%
X92924333Y-77033380D02*
X92591000Y-76557190D01*
X92352904Y-77033380D02*
X92352904Y-76033380D01*
X92733857Y-76033380D01*
X92829095Y-76081000D01*
X92876714Y-76128619D01*
X92924333Y-76223857D01*
X92924333Y-76366714D01*
X92876714Y-76461952D01*
X92829095Y-76509571D01*
X92733857Y-76557190D01*
X92352904Y-76557190D01*
X93781476Y-76366714D02*
X93781476Y-77033380D01*
X93543380Y-75985761D02*
X93305285Y-76700047D01*
X93924333Y-76700047D01*
%TO.C,R3*%
X87336333Y-70726380D02*
X87003000Y-70250190D01*
X86764904Y-70726380D02*
X86764904Y-69726380D01*
X87145857Y-69726380D01*
X87241095Y-69774000D01*
X87288714Y-69821619D01*
X87336333Y-69916857D01*
X87336333Y-70059714D01*
X87288714Y-70154952D01*
X87241095Y-70202571D01*
X87145857Y-70250190D01*
X86764904Y-70250190D01*
X87669666Y-69726380D02*
X88288714Y-69726380D01*
X87955380Y-70107333D01*
X88098238Y-70107333D01*
X88193476Y-70154952D01*
X88241095Y-70202571D01*
X88288714Y-70297809D01*
X88288714Y-70535904D01*
X88241095Y-70631142D01*
X88193476Y-70678761D01*
X88098238Y-70726380D01*
X87812523Y-70726380D01*
X87717285Y-70678761D01*
X87669666Y-70631142D01*
%TO.C,R2*%
X119594333Y-77287380D02*
X119261000Y-76811190D01*
X119022904Y-77287380D02*
X119022904Y-76287380D01*
X119403857Y-76287380D01*
X119499095Y-76335000D01*
X119546714Y-76382619D01*
X119594333Y-76477857D01*
X119594333Y-76620714D01*
X119546714Y-76715952D01*
X119499095Y-76763571D01*
X119403857Y-76811190D01*
X119022904Y-76811190D01*
X119975285Y-76382619D02*
X120022904Y-76335000D01*
X120118142Y-76287380D01*
X120356238Y-76287380D01*
X120451476Y-76335000D01*
X120499095Y-76382619D01*
X120546714Y-76477857D01*
X120546714Y-76573095D01*
X120499095Y-76715952D01*
X119927666Y-77287380D01*
X120546714Y-77287380D01*
%TO.C,R1*%
X114006333Y-70980380D02*
X113673000Y-70504190D01*
X113434904Y-70980380D02*
X113434904Y-69980380D01*
X113815857Y-69980380D01*
X113911095Y-70028000D01*
X113958714Y-70075619D01*
X114006333Y-70170857D01*
X114006333Y-70313714D01*
X113958714Y-70408952D01*
X113911095Y-70456571D01*
X113815857Y-70504190D01*
X113434904Y-70504190D01*
X114958714Y-70980380D02*
X114387285Y-70980380D01*
X114673000Y-70980380D02*
X114673000Y-69980380D01*
X114577761Y-70123238D01*
X114482523Y-70218476D01*
X114387285Y-70266095D01*
%TO.C,C1*%
X47545333Y-49927142D02*
X47497714Y-49974761D01*
X47354857Y-50022380D01*
X47259619Y-50022380D01*
X47116761Y-49974761D01*
X47021523Y-49879523D01*
X46973904Y-49784285D01*
X46926285Y-49593809D01*
X46926285Y-49450952D01*
X46973904Y-49260476D01*
X47021523Y-49165238D01*
X47116761Y-49070000D01*
X47259619Y-49022380D01*
X47354857Y-49022380D01*
X47497714Y-49070000D01*
X47545333Y-49117619D01*
X48497714Y-50022380D02*
X47926285Y-50022380D01*
X48212000Y-50022380D02*
X48212000Y-49022380D01*
X48116761Y-49165238D01*
X48021523Y-49260476D01*
X47926285Y-49308095D01*
%TO.C,AD1*%
X43600666Y-46934285D02*
X43600666Y-46458095D01*
X43886380Y-47029523D02*
X42886380Y-46696190D01*
X43886380Y-46362857D01*
X43886380Y-46029523D02*
X42886380Y-46029523D01*
X42886380Y-45791428D01*
X42934000Y-45648571D01*
X43029238Y-45553333D01*
X43124476Y-45505714D01*
X43314952Y-45458095D01*
X43457809Y-45458095D01*
X43648285Y-45505714D01*
X43743523Y-45553333D01*
X43838761Y-45648571D01*
X43886380Y-45791428D01*
X43886380Y-46029523D01*
X43886380Y-44505714D02*
X43886380Y-45077142D01*
X43886380Y-44791428D02*
X42886380Y-44791428D01*
X43029238Y-44886666D01*
X43124476Y-44981904D01*
X43172095Y-45077142D01*
%TO.C,RE1*%
X103647380Y-92539047D02*
X103171190Y-92872380D01*
X103647380Y-93110476D02*
X102647380Y-93110476D01*
X102647380Y-92729523D01*
X102695000Y-92634285D01*
X102742619Y-92586666D01*
X102837857Y-92539047D01*
X102980714Y-92539047D01*
X103075952Y-92586666D01*
X103123571Y-92634285D01*
X103171190Y-92729523D01*
X103171190Y-93110476D01*
X103123571Y-92110476D02*
X103123571Y-91777142D01*
X103647380Y-91634285D02*
X103647380Y-92110476D01*
X102647380Y-92110476D01*
X102647380Y-91634285D01*
X103647380Y-90681904D02*
X103647380Y-91253333D01*
X103647380Y-90967619D02*
X102647380Y-90967619D01*
X102790238Y-91062857D01*
X102885476Y-91158095D01*
X102933095Y-91253333D01*
%TO.C,TR2*%
X94369095Y-68536380D02*
X94940523Y-68536380D01*
X94654809Y-69536380D02*
X94654809Y-68536380D01*
X95845285Y-69536380D02*
X95511952Y-69060190D01*
X95273857Y-69536380D02*
X95273857Y-68536380D01*
X95654809Y-68536380D01*
X95750047Y-68584000D01*
X95797666Y-68631619D01*
X95845285Y-68726857D01*
X95845285Y-68869714D01*
X95797666Y-68964952D01*
X95750047Y-69012571D01*
X95654809Y-69060190D01*
X95273857Y-69060190D01*
X96226238Y-68631619D02*
X96273857Y-68584000D01*
X96369095Y-68536380D01*
X96607190Y-68536380D01*
X96702428Y-68584000D01*
X96750047Y-68631619D01*
X96797666Y-68726857D01*
X96797666Y-68822095D01*
X96750047Y-68964952D01*
X96178619Y-69536380D01*
X96797666Y-69536380D01*
%TO.C,TR1*%
X121039095Y-68794380D02*
X121610523Y-68794380D01*
X121324809Y-69794380D02*
X121324809Y-68794380D01*
X122515285Y-69794380D02*
X122181952Y-69318190D01*
X121943857Y-69794380D02*
X121943857Y-68794380D01*
X122324809Y-68794380D01*
X122420047Y-68842000D01*
X122467666Y-68889619D01*
X122515285Y-68984857D01*
X122515285Y-69127714D01*
X122467666Y-69222952D01*
X122420047Y-69270571D01*
X122324809Y-69318190D01*
X121943857Y-69318190D01*
X123467666Y-69794380D02*
X122896238Y-69794380D01*
X123181952Y-69794380D02*
X123181952Y-68794380D01*
X123086714Y-68937238D01*
X122991476Y-69032476D01*
X122896238Y-69080095D01*
%TO.C,S2*%
X76096761Y-111505904D02*
X76144380Y-111363047D01*
X76144380Y-111124952D01*
X76096761Y-111029714D01*
X76049142Y-110982095D01*
X75953904Y-110934476D01*
X75858666Y-110934476D01*
X75763428Y-110982095D01*
X75715809Y-111029714D01*
X75668190Y-111124952D01*
X75620571Y-111315428D01*
X75572952Y-111410666D01*
X75525333Y-111458285D01*
X75430095Y-111505904D01*
X75334857Y-111505904D01*
X75239619Y-111458285D01*
X75192000Y-111410666D01*
X75144380Y-111315428D01*
X75144380Y-111077333D01*
X75192000Y-110934476D01*
X75239619Y-110553523D02*
X75192000Y-110505904D01*
X75144380Y-110410666D01*
X75144380Y-110172571D01*
X75192000Y-110077333D01*
X75239619Y-110029714D01*
X75334857Y-109982095D01*
X75430095Y-109982095D01*
X75572952Y-110029714D01*
X76144380Y-110601142D01*
X76144380Y-109982095D01*
%TO.C,S1*%
X103528761Y-111505904D02*
X103576380Y-111363047D01*
X103576380Y-111124952D01*
X103528761Y-111029714D01*
X103481142Y-110982095D01*
X103385904Y-110934476D01*
X103290666Y-110934476D01*
X103195428Y-110982095D01*
X103147809Y-111029714D01*
X103100190Y-111124952D01*
X103052571Y-111315428D01*
X103004952Y-111410666D01*
X102957333Y-111458285D01*
X102862095Y-111505904D01*
X102766857Y-111505904D01*
X102671619Y-111458285D01*
X102624000Y-111410666D01*
X102576380Y-111315428D01*
X102576380Y-111077333D01*
X102624000Y-110934476D01*
X103576380Y-109982095D02*
X103576380Y-110553523D01*
X103576380Y-110267809D02*
X102576380Y-110267809D01*
X102719238Y-110363047D01*
X102814476Y-110458285D01*
X102862095Y-110553523D01*
%TO.C,RE2*%
X76342380Y-92539047D02*
X75866190Y-92872380D01*
X76342380Y-93110476D02*
X75342380Y-93110476D01*
X75342380Y-92729523D01*
X75390000Y-92634285D01*
X75437619Y-92586666D01*
X75532857Y-92539047D01*
X75675714Y-92539047D01*
X75770952Y-92586666D01*
X75818571Y-92634285D01*
X75866190Y-92729523D01*
X75866190Y-93110476D01*
X75818571Y-92110476D02*
X75818571Y-91777142D01*
X76342380Y-91634285D02*
X76342380Y-92110476D01*
X75342380Y-92110476D01*
X75342380Y-91634285D01*
X75437619Y-91253333D02*
X75390000Y-91205714D01*
X75342380Y-91110476D01*
X75342380Y-90872380D01*
X75390000Y-90777142D01*
X75437619Y-90729523D01*
X75532857Y-90681904D01*
X75628095Y-90681904D01*
X75770952Y-90729523D01*
X76342380Y-91300952D01*
X76342380Y-90681904D01*
%TO.C,LED2*%
X78636952Y-69794380D02*
X78160761Y-69794380D01*
X78160761Y-68794380D01*
X78970285Y-69270571D02*
X79303619Y-69270571D01*
X79446476Y-69794380D02*
X78970285Y-69794380D01*
X78970285Y-68794380D01*
X79446476Y-68794380D01*
X79875047Y-69794380D02*
X79875047Y-68794380D01*
X80113142Y-68794380D01*
X80256000Y-68842000D01*
X80351238Y-68937238D01*
X80398857Y-69032476D01*
X80446476Y-69222952D01*
X80446476Y-69365809D01*
X80398857Y-69556285D01*
X80351238Y-69651523D01*
X80256000Y-69746761D01*
X80113142Y-69794380D01*
X79875047Y-69794380D01*
X80827428Y-68889619D02*
X80875047Y-68842000D01*
X80970285Y-68794380D01*
X81208380Y-68794380D01*
X81303619Y-68842000D01*
X81351238Y-68889619D01*
X81398857Y-68984857D01*
X81398857Y-69080095D01*
X81351238Y-69222952D01*
X80779809Y-69794380D01*
X81398857Y-69794380D01*
%TO.C,LED1*%
X105560952Y-70048380D02*
X105084761Y-70048380D01*
X105084761Y-69048380D01*
X105894285Y-69524571D02*
X106227619Y-69524571D01*
X106370476Y-70048380D02*
X105894285Y-70048380D01*
X105894285Y-69048380D01*
X106370476Y-69048380D01*
X106799047Y-70048380D02*
X106799047Y-69048380D01*
X107037142Y-69048380D01*
X107180000Y-69096000D01*
X107275238Y-69191238D01*
X107322857Y-69286476D01*
X107370476Y-69476952D01*
X107370476Y-69619809D01*
X107322857Y-69810285D01*
X107275238Y-69905523D01*
X107180000Y-70000761D01*
X107037142Y-70048380D01*
X106799047Y-70048380D01*
X108322857Y-70048380D02*
X107751428Y-70048380D01*
X108037142Y-70048380D02*
X108037142Y-69048380D01*
X107941904Y-69191238D01*
X107846666Y-69286476D01*
X107751428Y-69334095D01*
%TO.C,D2*%
X92098904Y-80462380D02*
X92098904Y-79462380D01*
X92337000Y-79462380D01*
X92479857Y-79510000D01*
X92575095Y-79605238D01*
X92622714Y-79700476D01*
X92670333Y-79890952D01*
X92670333Y-80033809D01*
X92622714Y-80224285D01*
X92575095Y-80319523D01*
X92479857Y-80414761D01*
X92337000Y-80462380D01*
X92098904Y-80462380D01*
X93051285Y-79557619D02*
X93098904Y-79510000D01*
X93194142Y-79462380D01*
X93432238Y-79462380D01*
X93527476Y-79510000D01*
X93575095Y-79557619D01*
X93622714Y-79652857D01*
X93622714Y-79748095D01*
X93575095Y-79890952D01*
X93003666Y-80462380D01*
X93622714Y-80462380D01*
%TO.C,relay2*%
X77922380Y-81827428D02*
X77255714Y-81827428D01*
X77446190Y-81827428D02*
X77350952Y-81779809D01*
X77303333Y-81732190D01*
X77255714Y-81636952D01*
X77255714Y-81541714D01*
X77874761Y-80827428D02*
X77922380Y-80922666D01*
X77922380Y-81113142D01*
X77874761Y-81208380D01*
X77779523Y-81256000D01*
X77398571Y-81256000D01*
X77303333Y-81208380D01*
X77255714Y-81113142D01*
X77255714Y-80922666D01*
X77303333Y-80827428D01*
X77398571Y-80779809D01*
X77493809Y-80779809D01*
X77589047Y-81256000D01*
X77922380Y-80208380D02*
X77874761Y-80303619D01*
X77779523Y-80351238D01*
X76922380Y-80351238D01*
X77922380Y-79398857D02*
X77398571Y-79398857D01*
X77303333Y-79446476D01*
X77255714Y-79541714D01*
X77255714Y-79732190D01*
X77303333Y-79827428D01*
X77874761Y-79398857D02*
X77922380Y-79494095D01*
X77922380Y-79732190D01*
X77874761Y-79827428D01*
X77779523Y-79875047D01*
X77684285Y-79875047D01*
X77589047Y-79827428D01*
X77541428Y-79732190D01*
X77541428Y-79494095D01*
X77493809Y-79398857D01*
X77255714Y-79017904D02*
X77922380Y-78779809D01*
X77255714Y-78541714D02*
X77922380Y-78779809D01*
X78160476Y-78875047D01*
X78208095Y-78922666D01*
X78255714Y-79017904D01*
X77017619Y-78208380D02*
X76970000Y-78160761D01*
X76922380Y-78065523D01*
X76922380Y-77827428D01*
X76970000Y-77732190D01*
X77017619Y-77684571D01*
X77112857Y-77636952D01*
X77208095Y-77636952D01*
X77350952Y-77684571D01*
X77922380Y-78256000D01*
X77922380Y-77636952D01*
%TO.C,HT1*%
X117602142Y-25217380D02*
X117602142Y-24217380D01*
X117602142Y-24693571D02*
X118173571Y-24693571D01*
X118173571Y-25217380D02*
X118173571Y-24217380D01*
X118506904Y-24217380D02*
X119078333Y-24217380D01*
X118792619Y-25217380D02*
X118792619Y-24217380D01*
X119935476Y-25217380D02*
X119364047Y-25217380D01*
X119649761Y-25217380D02*
X119649761Y-24217380D01*
X119554523Y-24360238D01*
X119459285Y-24455476D01*
X119364047Y-24503095D01*
%TO.C,HT2*%
X108077142Y-25217380D02*
X108077142Y-24217380D01*
X108077142Y-24693571D02*
X108648571Y-24693571D01*
X108648571Y-25217380D02*
X108648571Y-24217380D01*
X108981904Y-24217380D02*
X109553333Y-24217380D01*
X109267619Y-25217380D02*
X109267619Y-24217380D01*
X109839047Y-24312619D02*
X109886666Y-24265000D01*
X109981904Y-24217380D01*
X110220000Y-24217380D01*
X110315238Y-24265000D01*
X110362857Y-24312619D01*
X110410476Y-24407857D01*
X110410476Y-24503095D01*
X110362857Y-24645952D01*
X109791428Y-25217380D01*
X110410476Y-25217380D01*
%TO.C,HT6*%
X69977142Y-25217380D02*
X69977142Y-24217380D01*
X69977142Y-24693571D02*
X70548571Y-24693571D01*
X70548571Y-25217380D02*
X70548571Y-24217380D01*
X70881904Y-24217380D02*
X71453333Y-24217380D01*
X71167619Y-25217380D02*
X71167619Y-24217380D01*
X72215238Y-24217380D02*
X72024761Y-24217380D01*
X71929523Y-24265000D01*
X71881904Y-24312619D01*
X71786666Y-24455476D01*
X71739047Y-24645952D01*
X71739047Y-25026904D01*
X71786666Y-25122142D01*
X71834285Y-25169761D01*
X71929523Y-25217380D01*
X72120000Y-25217380D01*
X72215238Y-25169761D01*
X72262857Y-25122142D01*
X72310476Y-25026904D01*
X72310476Y-24788809D01*
X72262857Y-24693571D01*
X72215238Y-24645952D01*
X72120000Y-24598333D01*
X71929523Y-24598333D01*
X71834285Y-24645952D01*
X71786666Y-24693571D01*
X71739047Y-24788809D01*
%TO.C,HT5*%
X79502142Y-25217380D02*
X79502142Y-24217380D01*
X79502142Y-24693571D02*
X80073571Y-24693571D01*
X80073571Y-25217380D02*
X80073571Y-24217380D01*
X80406904Y-24217380D02*
X80978333Y-24217380D01*
X80692619Y-25217380D02*
X80692619Y-24217380D01*
X81787857Y-24217380D02*
X81311666Y-24217380D01*
X81264047Y-24693571D01*
X81311666Y-24645952D01*
X81406904Y-24598333D01*
X81645000Y-24598333D01*
X81740238Y-24645952D01*
X81787857Y-24693571D01*
X81835476Y-24788809D01*
X81835476Y-25026904D01*
X81787857Y-25122142D01*
X81740238Y-25169761D01*
X81645000Y-25217380D01*
X81406904Y-25217380D01*
X81311666Y-25169761D01*
X81264047Y-25122142D01*
%TO.C,HT4*%
X89027142Y-25297380D02*
X89027142Y-24297380D01*
X89027142Y-24773571D02*
X89598571Y-24773571D01*
X89598571Y-25297380D02*
X89598571Y-24297380D01*
X89931904Y-24297380D02*
X90503333Y-24297380D01*
X90217619Y-25297380D02*
X90217619Y-24297380D01*
X91265238Y-24630714D02*
X91265238Y-25297380D01*
X91027142Y-24249761D02*
X90789047Y-24964047D01*
X91408095Y-24964047D01*
%TO.C,HT3*%
X98552142Y-25217380D02*
X98552142Y-24217380D01*
X98552142Y-24693571D02*
X99123571Y-24693571D01*
X99123571Y-25217380D02*
X99123571Y-24217380D01*
X99456904Y-24217380D02*
X100028333Y-24217380D01*
X99742619Y-25217380D02*
X99742619Y-24217380D01*
X100266428Y-24217380D02*
X100885476Y-24217380D01*
X100552142Y-24598333D01*
X100695000Y-24598333D01*
X100790238Y-24645952D01*
X100837857Y-24693571D01*
X100885476Y-24788809D01*
X100885476Y-25026904D01*
X100837857Y-25122142D01*
X100790238Y-25169761D01*
X100695000Y-25217380D01*
X100409285Y-25217380D01*
X100314047Y-25169761D01*
X100266428Y-25122142D01*
%TO.C,relay1*%
X104084380Y-81827428D02*
X103417714Y-81827428D01*
X103608190Y-81827428D02*
X103512952Y-81779809D01*
X103465333Y-81732190D01*
X103417714Y-81636952D01*
X103417714Y-81541714D01*
X104036761Y-80827428D02*
X104084380Y-80922666D01*
X104084380Y-81113142D01*
X104036761Y-81208380D01*
X103941523Y-81256000D01*
X103560571Y-81256000D01*
X103465333Y-81208380D01*
X103417714Y-81113142D01*
X103417714Y-80922666D01*
X103465333Y-80827428D01*
X103560571Y-80779809D01*
X103655809Y-80779809D01*
X103751047Y-81256000D01*
X104084380Y-80208380D02*
X104036761Y-80303619D01*
X103941523Y-80351238D01*
X103084380Y-80351238D01*
X104084380Y-79398857D02*
X103560571Y-79398857D01*
X103465333Y-79446476D01*
X103417714Y-79541714D01*
X103417714Y-79732190D01*
X103465333Y-79827428D01*
X104036761Y-79398857D02*
X104084380Y-79494095D01*
X104084380Y-79732190D01*
X104036761Y-79827428D01*
X103941523Y-79875047D01*
X103846285Y-79875047D01*
X103751047Y-79827428D01*
X103703428Y-79732190D01*
X103703428Y-79494095D01*
X103655809Y-79398857D01*
X103417714Y-79017904D02*
X104084380Y-78779809D01*
X103417714Y-78541714D02*
X104084380Y-78779809D01*
X104322476Y-78875047D01*
X104370095Y-78922666D01*
X104417714Y-79017904D01*
X104084380Y-77636952D02*
X104084380Y-78208380D01*
X104084380Y-77922666D02*
X103084380Y-77922666D01*
X103227238Y-78017904D01*
X103322476Y-78113142D01*
X103370095Y-78208380D01*
%TD*%
M02*
